<svg xmlns="http://www.w3.org/2000/svg" xml:space="preserve" width="512" height="512" viewBox="0 0 135.46666 135.46667"><path d="M 135.46666,0 H 123.49426 67.733328 L 95.613796,27.880468 0,123.49427 v 11.97239 h 11.97239 l 95.6138,-95.613796 27.88047,27.880468 V 11.972396 Z" style="fill:#c36522;fill-opacity:1;stroke:none;stroke-width:33.8667;stroke-miterlimit:128;stroke-dasharray:none;stroke-opacity:1;paint-order:stroke fill markers"/><path d="M 26.500191 58.208849 C 25.225467 58.208849 23.923877 58.460845 22.734529 58.97056 C 21.882824 59.335583 21.144367 59.923182 20.422009 60.515685 C 20.045508 60.016125 19.68387 59.479952 19.257739 59.205171 C 18.574078 58.760857 17.659858 58.39075 16.712675 58.39075 L 14.755688 58.39075 C 13.769672 58.39075 12.76703 58.768855 12.078332 59.240311 C 11.435806 59.680161 10.778806 60.387988 10.412284 61.2128 A 4.2337531 4.2337531 0 0 0 10.388513 61.263443 L 6.3360473 70.728498 L 6.4394001 70.503706 C 6.1523327 71.078303 5.7986732 72.023961 6.009969 73.289066 A 4.2337531 4.2337531 0 0 0 6.009969 73.2932 C 6.1295605 74.004642 6.5747974 74.807202 7.1230793 75.453275 C 7.7077953 76.105254 8.3974682 76.573997 8.9648274 76.775158 C 9.4342633 76.944558 9.9649652 77.075915 10.519771 77.075915 L 12.923759 77.075915 C 13.862109 77.075915 14.852519 76.738914 15.539103 76.281131 A 4.2337531 4.2337531 0 0 0 15.617134 76.226354 C 15.644844 76.206964 15.667106 76.151343 15.695166 76.130753 A 4.2337531 4.2337531 0 0 0 16.072404 76.388618 C 16.755643 76.798591 17.674257 77.075915 18.545121 77.075915 L 20.935673 77.075915 C 21.410283 77.075915 22.152659 76.869108 22.877156 76.525561 C 24.029369 76.997179 25.273758 77.257816 26.500191 77.257816 C 27.64463 77.257817 28.805526 77.061926 29.894299 76.659919 A 4.2337531 4.2337531 0 0 0 29.949076 76.640799 C 30.854238 76.292662 31.6901 75.755928 32.463134 75.146317 C 33.118665 75.643399 33.75688 76.175094 34.505904 76.496105 C 35.694959 77.005702 36.996841 77.257816 38.271565 77.257816 C 39.416004 77.257817 40.577417 77.061925 41.66619 76.659919 A 4.2337531 4.2337531 0 0 0 41.720967 76.640799 C 42.021246 76.525308 42.264527 76.289917 42.554508 76.144705 C 43.334202 76.67276 44.297022 77.075915 45.150215 77.075915 L 47.232259 77.075915 C 47.802286 77.075915 48.441685 76.909255 49.043001 76.64855 A 4.2337531 4.2337531 0 0 0 49.113281 76.681623 C 49.609573 76.888393 50.24853 77.075915 51.04908 77.075915 L 53.650471 77.075915 C 53.821307 77.075915 54.081439 76.90793 54.282991 76.881094 C 54.589588 76.951384 54.904236 77.075915 55.187328 77.075915 L 62.304723 77.075915 C 62.962989 77.075915 63.684124 76.829016 64.357311 76.491971 C 64.383531 76.502271 64.407502 76.519068 64.433792 76.529178 C 65.058705 76.769531 65.701017 76.937387 66.347887 77.054727 C 67.05796 77.192985 67.770487 77.257816 68.482641 77.257816 C 69.365809 77.257816 70.249761 77.16963 71.131058 76.949307 A 4.2337531 4.2337531 0 0 0 71.185318 76.935355 C 71.802125 76.772425 72.39579 76.40239 72.993993 76.074425 C 73.307926 76.229725 73.613841 76.403859 73.939672 76.529178 C 74.564584 76.769531 75.206897 76.937387 75.853767 77.054727 C 76.563849 77.19299 77.277902 77.257816 77.990071 77.257816 C 78.87324 77.257816 79.757475 77.16956 80.638488 76.949307 A 4.2337531 4.2337531 0 0 0 80.693265 76.935355 C 81.049888 76.841155 81.382975 76.584644 81.738162 76.437711 C 82.460451 76.811477 83.227363 77.075915 83.874983 77.075915 L 85.986482 77.075915 C 86.989533 77.075915 88.201832 76.567847 88.998184 75.879088 C 89.068424 75.940438 89.118474 76.046658 89.189387 76.101814 A 4.2337531 4.2337531 0 0 0 89.611583 76.388618 C 90.240485 76.766026 91.129931 77.075915 92.068281 77.075915 L 93.927599 77.075915 C 94.865949 77.075915 95.854201 76.738997 96.540876 76.281131 A 4.2337531 4.2337531 0 0 0 96.620975 76.226354 C 96.752339 76.134404 96.861013 75.929552 96.994078 75.814493 C 97.782477 76.542383 99.067363 77.075915 100.10758 77.075915 L 107.22291 77.075915 C 107.59556 77.075915 108.00892 76.935381 108.41405 76.816499 C 108.84412 76.943732 109.28634 77.075915 109.65635 77.075915 L 116.63267 77.075915 C 117.01716 77.075915 117.44471 76.935203 117.86309 76.808747 C 118.2811 76.934982 118.70732 77.075915 119.09195 77.075915 L 121.20294 77.075915 C 122.28542 77.075915 123.65904 76.515175 124.43581 75.738529 C 125.21169 74.962175 125.77372 73.591087 125.77372 72.507718 L 125.77372 70.171943 L 128.81849 65.238394 A 4.2337531 4.2337531 0 0 0 128.89084 65.115404 C 129.09852 64.752147 129.35645 64.270915 129.47478 63.439538 C 129.58431 62.669954 129.39929 61.484029 128.80867 60.510001 C 127.96998 59.213954 126.10779 58.39075 125.06265 58.39075 L 122.54704 58.39075 C 121.60949 58.39075 120.80007 58.676331 120.2247 58.990197 A 4.2337531 4.2337531 0 0 0 120.15649 59.031021 L 120.23452 59.07598 C 120.21272 59.06292 120.17062 59.065635 120.14822 59.052726 C 120.14422 59.050426 120.14055 59.04316 120.13685 59.04084 A 4.2337531 4.2337531 0 0 0 120.12652 59.047041 C 119.50789 58.695117 118.67651 58.39075 117.77886 58.39075 L 115.29064 58.39075 C 114.80161 58.39075 114.18371 58.553716 113.56826 58.808813 C 112.96364 58.546038 112.32337 58.376798 111.7539 58.376798 L 109.65584 58.376798 C 109.28698 58.376798 108.84494 58.509421 108.41405 58.63673 C 108.0083 58.517657 107.59374 58.376798 107.22239 58.376798 L 100.10707 58.376798 C 99.797194 58.376798 99.45139 58.509384 99.113329 58.593839 C 98.88802 58.544589 98.627116 58.376798 98.42965 58.376798 L 96.109378 58.376798 C 95.049625 58.376798 94.083911 58.784847 93.443391 59.224808 C 93.260218 59.350106 93.142916 59.577664 92.970551 59.736405 C 92.785416 59.573001 92.64395 59.328298 92.454821 59.205171 C 91.768619 58.753973 90.838339 58.376798 89.886502 58.376798 L 87.609122 58.376798 C 87.438379 58.376798 87.144976 58.548921 86.92751 58.595906 C 86.608065 58.519846 86.280405 58.39075 85.985965 58.39075 L 83.874983 58.39075 C 83.192479 58.39075 82.379422 58.684629 81.629125 59.097684 C 81.473829 59.032354 81.348035 58.912965 81.189359 58.855322 C 80.028354 58.420708 78.819015 58.236237 77.626785 58.236238 C 76.874363 58.236238 76.129988 58.325623 75.404182 58.4786 C 74.515679 58.655747 73.644999 59.021725 72.851366 59.500243 C 72.454526 59.294629 72.105554 59.008652 71.683479 58.855322 C 70.52246 58.420699 69.311585 58.236238 68.119355 58.236238 C 67.366948 58.236238 66.62433 58.325583 65.898302 58.4786 C 65.40676 58.5766 64.960607 58.85065 64.486502 59.042907 C 63.778844 58.662244 63.005876 58.376798 62.304723 58.376798 L 55.187328 58.376798 C 54.426502 58.376798 53.583609 58.711232 52.839668 59.150394 C 52.736348 59.104354 52.656984 59.001667 52.552864 58.960741 C 51.565452 58.564274 50.51104 58.376798 49.49827 58.376798 L 45.150215 58.376798 C 44.338628 58.376798 43.426491 58.749804 42.658378 59.240311 C 41.275247 58.54875 39.756193 58.208849 38.271565 58.208849 C 36.996844 58.208849 35.694962 58.460961 34.505904 58.97056 C 33.770644 59.285672 33.152885 59.818068 32.509643 60.304845 C 32.092925 59.971103 31.682673 59.624589 31.218766 59.368985 C 29.754458 58.557328 28.100041 58.208849 26.500191 58.208849 z M 42.978771 59.359167 L 42.997892 59.371052 C 42.995492 59.369752 42.99254 59.370344 42.99014 59.368985 C 42.98574 59.366585 42.983191 59.361667 42.978771 59.359167 z M 63.16772 59.566389 C 63.16452 59.568389 63.163168 59.572141 63.159968 59.574141 C 63.155768 59.576841 63.150702 59.577642 63.146532 59.580342 L 63.16772 59.566389 z M 72.675666 59.566389 C 72.672866 59.568189 72.672782 59.572341 72.669982 59.574141 C 72.664782 59.577541 72.657652 59.576942 72.652412 59.580342 L 72.675666 59.566389 z M 102.24234 60.492431 L 102.35344 60.6795 C 102.33774 60.65119 102.29044 60.633732 102.27334 60.605602 C 102.25664 60.576292 102.25964 60.520243 102.24234 60.492431 z M 55.146504 60.650561 L 55.189395 60.693452 C 55.182095 60.685852 55.171444 60.683402 55.164074 60.675882 C 55.156774 60.668482 55.153864 60.657921 55.146504 60.650561 z M 75.849633 61.056738 C 75.816733 61.064338 75.783157 61.09889 75.749897 61.10738 C 75.685907 61.12449 75.619914 61.117336 75.556627 61.136836 L 75.849633 61.056738 z M 70.36728 61.24794 L 70.450996 61.273262 C 70.437256 61.268862 70.419818 61.26981 70.406038 61.26551 C 70.391588 61.26111 70.3818 61.25223 70.36728 61.24794 z M 23.74222 61.468599 C 23.73292 61.472799 23.726198 61.481889 23.716898 61.486169 C 23.708998 61.489869 23.699417 61.48867 23.691577 61.49237 L 23.74222 61.468599 z M 35.513594 61.468599 C 35.504294 61.472799 35.497573 61.481889 35.488273 61.486169 C 35.480373 61.489869 35.470791 61.48867 35.462951 61.49237 L 35.513594 61.468599 z M 29.921687 61.77349 L 29.965096 61.798811 C 29.956896 61.793811 29.947477 61.791846 29.939257 61.786926 C 29.932757 61.783026 29.928227 61.77736 29.921687 61.77349 z M 25.015527 74.597513 L 24.859464 74.8807 C 24.886264 74.83602 24.888691 74.744191 24.914241 74.695181 C 24.938111 74.652191 24.993404 74.641763 25.015527 74.597513 z M 61.392634 74.744274 C 61.433004 74.777434 61.478975 74.803111 61.519758 74.835741 C 61.527158 74.841441 61.531419 74.853912 61.538879 74.859512 L 61.392634 74.744274 z M 70.898514 74.744274 C 70.940384 74.778664 70.986965 74.806085 71.029255 74.839875 C 71.035655 74.844775 71.040405 74.854702 71.046825 74.859512 L 70.898514 74.744274 z M 32.796964 74.949429 L 32.765441 74.974751 C 32.770041 74.970851 32.772707 74.964668 32.777327 74.960798 C 32.783127 74.955798 32.791144 74.954449 32.796964 74.949429 z M 44.568338 74.949429 L 44.537333 74.974751 C 44.541933 74.970851 44.544081 74.964668 44.548701 74.960798 C 44.554501 74.955798 44.562518 74.954449 44.568338 74.949429 z M 73.917968 75.632592 L 73.875076 75.664114 C 73.881376 75.659514 73.884249 75.651224 73.890579 75.646544 C 73.899179 75.640144 73.909388 75.639062 73.917968 75.632592 z M 83.423847 75.632592 L 83.380956 75.664114 C 83.387256 75.659514 83.390129 75.651214 83.396459 75.646544 C 83.405059 75.640044 83.415267 75.639062 83.423847 75.632592 z" style="color:#000;-inkscape-font-specification:Heavitas;fill:#c36522;stroke-linecap:round;stroke-linejoin:round;stroke-miterlimit:128;-inkscape-stroke:none;paint-order:stroke fill markers"/><path d="m 26.499765,62.441668 c -0.745632,0 -1.44478,0.139787 -2.097213,0.419398 -0.652415,0.279611 -1.225639,0.661756 -1.719614,1.146414 -0.484657,0.475338 -0.871348,1.034704 -1.160281,1.677809 -0.279607,0.643104 -0.419398,1.327981 -0.419398,2.054969 0,0.726988 0.139791,1.412077 0.419398,2.055183 0.288933,0.643103 0.675624,1.20247 1.160281,1.677809 0.493975,0.475337 1.067199,0.852723 1.719614,1.132334 0.652433,0.279611 1.351581,0.419399 2.097213,0.419399 0.680391,0 1.323499,-0.111875 1.929322,-0.335562 0.605825,-0.233008 1.141607,-0.549806 1.607622,-0.950582 0.475341,-0.400774 0.862241,-0.876183 1.160498,-1.426082 0.29825,-0.549902 0.480016,-1.146489 0.545258,-1.789592 0.02791,-0.24233 0.04184,-0.475169 0.04184,-0.698857 0,-0.233009 -0.0094,-0.42884 -0.02791,-0.587286 -0.0094,-0.102525 -0.05134,-0.181723 -0.125866,-0.237646 -0.06525,-0.06524 -0.144441,-0.09791 -0.237641,-0.09791 h -4.809225 c -0.0932,0 -0.1724,0.03267 -0.237642,0.09791 -0.06525,0.06524 -0.09791,0.144443 -0.09791,0.237646 v 1.66373 c 0,0.0932 0.03266,0.172402 0.09791,0.237644 0.06525,0.06524 0.144442,0.09791 0.237642,0.09791 h 1.607631 c 0.0932,0 0.158549,0.03267 0.195832,0.09791 0.03725,0.05593 0.0325,0.121063 -0.01409,0.195619 -0.205049,0.298252 -0.479865,0.512693 -0.824715,0.643178 -0.344859,0.130485 -0.694324,0.19562 -1.048499,0.19562 -0.354174,0 -0.689798,-0.06989 -1.006689,-0.2097 -0.307566,-0.149125 -0.577841,-0.340197 -0.81085,-0.573206 -0.233007,-0.242328 -0.41954,-0.521905 -0.55934,-0.838798 -0.130483,-0.316892 -0.195625,-0.652512 -0.195625,-1.006685 0,-0.344853 0.06516,-0.675713 0.195625,-0.992607 0.1398,-0.326212 0.326333,-0.610333 0.55934,-0.852663 0.233009,-0.242329 0.503284,-0.433402 0.81085,-0.573207 0.316891,-0.149126 0.652515,-0.223779 1.006689,-0.223779 0.493974,0 0.91789,0.107112 1.272065,0.321483 0.363491,0.214367 0.689807,0.498703 0.978732,0.852877 0.06525,0.07456 0.144449,0.1213 0.237649,0.139942 0.0932,0.0094 0.177158,-0.0095 0.251725,-0.05611 l 1.677594,-1.076429 c 0.07459,-0.0466 0.121087,-0.1165 0.139725,-0.2097 0.028,-0.102525 0.01866,-0.191029 -0.02791,-0.26559 -0.475341,-0.736308 -1.095081,-1.314285 -1.859355,-1.733701 -0.754949,-0.419416 -1.644964,-0.629098 -2.670203,-0.629098 z m 11.77154,0 c -0.745625,0 -1.444565,0.139787 -2.096988,0.419398 -0.652425,0.279611 -1.225649,0.661756 -1.719623,1.146414 -0.484658,0.475338 -0.871565,1.034704 -1.160499,1.677809 -0.279607,0.643104 -0.419398,1.327981 -0.419398,2.054969 0,0.726988 0.139791,1.412077 0.419398,2.055183 0.288934,0.643103 0.675841,1.20247 1.160499,1.677809 0.493974,0.475337 1.067198,0.852723 1.719623,1.132334 0.652423,0.279611 1.351363,0.419399 2.096988,0.419399 0.680389,0 1.323497,-0.111875 1.929321,-0.335562 0.605824,-0.233008 1.141824,-0.549806 1.607839,-0.950582 0.475341,-0.400774 0.862032,-0.876183 1.160282,-1.426082 0.298248,-0.549902 0.480018,-1.146489 0.545259,-1.789592 0.02796,-0.24233 0.04203,-0.475169 0.04203,-0.698857 0,-0.233009 -0.0093,-0.42884 -0.02795,-0.587286 -0.0094,-0.102525 -0.0513,-0.181723 -0.125861,-0.237646 -0.06525,-0.06524 -0.144441,-0.09791 -0.237641,-0.09791 h -4.809433 c -0.09321,0 -0.172409,0.03267 -0.23765,0.09791 -0.06525,0.06524 -0.09791,0.144443 -0.09791,0.237646 v 1.66373 c 0,0.0932 0.03266,0.172402 0.09791,0.237644 0.06525,0.06524 0.144441,0.09791 0.23765,0.09791 h 1.607838 c 0.0932,0 0.158334,0.03267 0.195617,0.09791 0.03725,0.05593 0.03275,0.121063 -0.01384,0.195619 -0.20505,0.298252 -0.480075,0.512693 -0.824932,0.643178 -0.344849,0.130485 -0.694324,0.19562 -1.048499,0.19562 -0.354174,0 -0.68979,-0.06989 -1.006681,-0.2097 -0.307575,-0.149125 -0.577849,-0.340197 -0.810857,-0.573206 -0.233007,-0.242328 -0.419316,-0.521905 -0.559125,-0.838798 -0.130482,-0.316892 -0.195832,-0.652512 -0.195832,-1.006685 0,-0.344853 0.06534,-0.675713 0.195832,-0.992607 0.139809,-0.326212 0.326118,-0.610333 0.559125,-0.852663 0.233008,-0.242329 0.503282,-0.433402 0.810857,-0.573207 0.316891,-0.149126 0.652507,-0.223779 1.006681,-0.223779 0.493984,0 0.918107,0.107112 1.272282,0.321483 0.363491,0.214367 0.68959,0.498703 0.978522,0.852877 0.06525,0.07456 0.144443,0.1213 0.237643,0.139942 0.09321,0.0094 0.177166,-0.0095 0.251723,-0.05611 l 1.677603,-1.076429 c 0.07459,-0.0466 0.121299,-0.1165 0.139942,-0.2097 0.028,-0.102525 0.01866,-0.191029 -0.02791,-0.26559 -0.47534,-0.736308 -1.095297,-1.314285 -1.859563,-1.733701 -0.754948,-0.419416 -1.644963,-0.629098 -2.670204,-0.629098 z m 29.848575,0.02795 c -0.447377,0 -0.908934,0.05129 -1.384272,0.153807 -0.475338,0.0932 -0.908555,0.265666 -1.300008,0.517316 -0.382135,0.242328 -0.699146,0.573189 -0.950795,0.992605 -0.251649,0.419416 -0.377373,0.950654 -0.377373,1.593759 0,0.438056 0.06514,0.820202 0.195619,1.146414 0.139806,0.316892 0.321573,0.591922 0.545262,0.824932 0.223688,0.233008 0.475349,0.42408 0.75496,0.573207 0.288931,0.149126 0.577812,0.274849 0.866743,0.377373 0.288932,0.0932 0.568508,0.167856 0.838798,0.223778 0.279611,0.0466 0.521968,0.08858 0.727016,0.125863 0.214368,0.0466 0.424049,0.08383 0.629098,0.111787 0.205047,0.02796 0.38227,0.06519 0.531395,0.111788 0.158447,0.0466 0.284171,0.107187 0.377373,0.181753 0.0932,0.06524 0.139942,0.158505 0.139942,0.27967 0,0.23301 -0.107325,0.410018 -0.321696,0.531182 -0.214367,0.111837 -0.526618,0.167887 -0.936714,0.167887 -0.428736,0 -0.89008,-0.09326 -1.384059,-0.279671 -0.493978,-0.186406 -0.992543,-0.442613 -1.495842,-0.768825 -0.07456,-0.0466 -0.15852,-0.06066 -0.251725,-0.04202 -0.0932,0.01864 -0.167642,0.06516 -0.223565,0.139728 l -1.076656,1.551948 c -0.05593,0.07456 -0.07908,0.163066 -0.06976,0.265591 0.0094,0.0932 0.0513,0.167856 0.125863,0.223777 0.26097,0.214369 0.545093,0.419292 0.852664,0.615021 0.316892,0.186406 0.657058,0.349563 1.020552,0.489368 0.363493,0.139806 0.754943,0.24692 1.174359,0.321484 0.419415,0.08389 0.871455,0.125862 1.356113,0.125862 0.596502,0 1.137259,-0.06059 1.621918,-0.181755 0.493979,-0.130485 0.913343,-0.326103 1.258197,-0.587073 0.354174,-0.260969 0.62899,-0.591831 0.824717,-0.992605 0.195729,-0.410096 0.293751,-0.894808 0.293751,-1.45403 0,-0.596502 -0.121175,-1.090521 -0.363508,-1.481977 -0.233009,-0.400775 -0.526649,-0.722331 -0.880822,-0.964661 -0.344853,-0.25165 -0.717693,-0.437962 -1.118469,-0.559127 -0.400775,-0.130485 -0.768856,-0.228507 -1.104389,-0.29375 -0.06524,-0.0094 -0.214335,-0.03247 -0.447343,-0.06976 -0.233009,-0.0466 -0.475366,-0.107188 -0.727016,-0.181754 -0.25165,-0.07456 -0.475396,-0.16328 -0.671123,-0.265805 -0.195729,-0.102525 -0.293537,-0.218942 -0.293537,-0.349427 0,-0.130485 0.03721,-0.233053 0.111787,-0.307616 0.08389,-0.07456 0.186451,-0.125846 0.307616,-0.153809 0.121162,-0.03729 0.246888,-0.05589 0.377373,-0.05589 0.139806,-0.0094 0.260984,-0.01386 0.363508,-0.01386 0.344853,0 0.722453,0.06514 1.132547,0.195619 0.410096,0.121163 0.85283,0.330846 1.328168,0.629097 0.07456,0.05593 0.158308,0.07454 0.251511,0.05589 0.0932,-0.01864 0.167857,-0.06516 0.223778,-0.139729 l 1.090523,-1.551732 c 0.05593,-0.07456 0.07908,-0.158523 0.06976,-0.251726 -0.0094,-0.0932 -0.05109,-0.172403 -0.12565,-0.237645 -0.568542,-0.438057 -1.165128,-0.768918 -1.789591,-0.992605 -0.615143,-0.233009 -1.314085,-0.349641 -2.096996,-0.349641 z m 9.50666,0 c -0.447378,0 -0.908722,0.05129 -1.38406,0.153807 -0.475338,0.0932 -0.908767,0.265666 -1.300221,0.517316 -0.382135,0.242328 -0.698932,0.573189 -0.950582,0.992605 -0.25165,0.419416 -0.377586,0.950654 -0.377586,1.593759 0,0.438056 0.06535,0.820202 0.195834,1.146414 0.139805,0.316892 0.321572,0.591922 0.54526,0.824932 0.223689,0.233008 0.47535,0.42408 0.754961,0.573207 0.288931,0.149126 0.577812,0.274849 0.866743,0.377373 0.288931,0.0932 0.568508,0.167856 0.838798,0.223778 0.279611,0.0466 0.521967,0.08858 0.727016,0.125863 0.214367,0.0466 0.424049,0.08383 0.629098,0.111787 0.205047,0.02796 0.382056,0.06519 0.531181,0.111788 0.158446,0.0466 0.284383,0.107187 0.377587,0.181753 0.0932,0.06524 0.139728,0.158505 0.139728,0.27967 0,0.23301 -0.107112,0.410018 -0.321482,0.531182 -0.214368,0.111837 -0.526618,0.167887 -0.936714,0.167887 -0.428736,0 -0.89008,-0.09326 -1.384059,-0.279671 -0.493979,-0.186406 -0.992755,-0.442613 -1.496055,-0.768825 -0.07456,-0.0466 -0.158308,-0.06066 -0.251511,-0.04202 -0.0932,0.01864 -0.167857,0.06516 -0.22378,0.139728 l -1.076442,1.551948 c -0.05593,0.07456 -0.07929,0.163066 -0.06996,0.265591 0.0094,0.0932 0.0513,0.167856 0.125861,0.223777 0.260971,0.214369 0.545307,0.419292 0.852878,0.615021 0.316893,0.186406 0.657057,0.349563 1.020552,0.489368 0.363493,0.139806 0.754943,0.24692 1.174359,0.321484 0.419417,0.08389 0.871455,0.125862 1.356114,0.125862 0.596503,0 1.137046,-0.06059 1.621705,-0.181755 0.493978,-0.130485 0.913343,-0.326103 1.258195,-0.587073 0.354174,-0.260969 0.629205,-0.591831 0.824933,-0.992605 0.195726,-0.410096 0.293536,-0.894808 0.293536,-1.45403 0,-0.596502 -0.121175,-1.090521 -0.363509,-1.481977 -0.233007,-0.400774 -0.526435,-0.72233 -0.880609,-0.964659 -0.344852,-0.251649 -0.717693,-0.437963 -1.118468,-0.559128 -0.400776,-0.130485 -0.769069,-0.228507 -1.104602,-0.29375 -0.06524,-0.0094 -0.214335,-0.03248 -0.447344,-0.06976 -0.23301,-0.0466 -0.475366,-0.107188 -0.727015,-0.181754 -0.251649,-0.07456 -0.475184,-0.163281 -0.670911,-0.265804 -0.195726,-0.102525 -0.29375,-0.218944 -0.29375,-0.349429 0,-0.130485 0.03744,-0.233053 0.112,-0.307616 0.08389,-0.07456 0.186239,-0.125846 0.307404,-0.153807 0.121162,-0.03729 0.247102,-0.05589 0.377585,-0.05589 0.139807,-0.0094 0.260985,-0.01386 0.363509,-0.01386 0.344852,0 0.722238,0.06514 1.132334,0.19562 0.410096,0.121162 0.85283,0.330847 1.328167,0.629098 0.07456,0.05593 0.158522,0.07454 0.251725,0.05589 0.0932,-0.01864 0.167644,-0.06516 0.223566,-0.139727 l 1.090523,-1.551735 c 0.05593,-0.07456 0.07929,-0.15852 0.06996,-0.251725 -0.0094,-0.0932 -0.0513,-0.172402 -0.125863,-0.237643 -0.568542,-0.438057 -1.165128,-0.768918 -1.789592,-0.992607 -0.615143,-0.233008 -1.314084,-0.349641 -2.096993,-0.34964 z m -32.476749,0.139941 c -0.0932,0 -0.172403,0.03246 -0.237646,0.0977 -0.06524,0.06524 -0.09791,0.144655 -0.09791,0.237858 v 9.562551 c 0,0.0932 0.03267,0.172402 0.09791,0.237644 0.06524,0.06524 0.144442,0.09791 0.237646,0.09791 h 2.083128 c 0.0932,0 0.172403,-0.03267 0.237645,-0.09791 0.06524,-0.06524 0.0977,-0.144441 0.0977,-0.237644 v -2.264882 c 0,-0.0932 0.03268,-0.172403 0.09791,-0.237646 0.06524,-0.06524 0.144442,-0.0977 0.237646,-0.0977 h 0.307616 c 0.0932,0 0.191013,0.02791 0.293536,0.08384 0.102525,0.0466 0.181937,0.107188 0.237859,0.181754 0.288931,0.410094 0.577812,0.815395 0.866744,1.216171 0.298251,0.400775 0.596438,0.796985 0.894688,1.188439 0.05592,0.07456 0.135121,0.139698 0.237646,0.19562 0.11185,0.0466 0.214413,0.06996 0.307616,0.06996 h 2.600444 c 0.0932,0 0.153793,-0.04197 0.181754,-0.125862 0.02796,-0.0932 0.01389,-0.176948 -0.04203,-0.251511 -0.307572,-0.410096 -0.657043,-0.862135 -1.048498,-1.356114 -0.391455,-0.493978 -0.764296,-0.974145 -1.118468,-1.440162 -0.05593,-0.07456 -0.07454,-0.149004 -0.05589,-0.223566 0.02796,-0.08389 0.07924,-0.153778 0.153807,-0.2097 0.223689,-0.139805 0.424066,-0.312269 0.601152,-0.517316 0.177087,-0.214368 0.330727,-0.451964 0.461212,-0.712935 0.130484,-0.26097 0.228506,-0.536001 0.293749,-0.824932 0.07456,-0.298251 0.111787,-0.596437 0.111787,-0.894688 0,-0.540581 -0.09326,-1.034599 -0.279671,-1.481976 -0.177086,-0.447378 -0.428748,-0.834281 -0.754959,-1.160494 -0.316894,-0.326213 -0.703583,-0.577874 -1.160282,-0.754961 -0.456696,-0.186406 -0.955474,-0.279456 -1.496055,-0.279456 z m 10.038054,0 c -0.0932,0 -0.172616,0.03246 -0.237859,0.0977 -0.06524,0.06524 -0.0977,0.144655 -0.0977,0.237858 v 9.562551 c 0,0.0932 0.03246,0.172402 0.0977,0.237644 0.06524,0.06524 0.144655,0.09791 0.237859,0.09791 h 7.115915 c 0.0932,0 0.172616,-0.03267 0.23786,-0.09791 0.06524,-0.06524 0.0977,-0.144441 0.0977,-0.237644 v -1.929321 c 0,-0.0932 -0.03246,-0.172403 -0.0977,-0.237645 -0.06524,-0.06524 -0.144657,-0.09791 -0.23786,-0.09791 h -4.347796 c -0.0932,0 -0.172404,-0.03246 -0.237646,-0.0977 -0.06524,-0.06524 -0.09791,-0.144442 -0.09791,-0.237645 v -0.531398 c 0,-0.0932 0.03267,-0.172402 0.09791,-0.237645 0.06524,-0.06524 0.144442,-0.09791 0.237646,-0.09791 h 3.788669 c 0.0932,0 0.172402,-0.03246 0.237645,-0.0977 0.06524,-0.06524 0.09791,-0.144655 0.09791,-0.237859 v -1.929332 c 0,-0.0932 -0.03267,-0.172402 -0.09791,-0.237644 -0.06524,-0.06524 -0.144442,-0.0977 -0.237645,-0.0977 h -3.788669 c -0.0932,0 -0.172404,-0.03267 -0.237646,-0.09791 -0.06524,-0.06524 -0.09791,-0.144441 -0.09791,-0.237645 v -0.587287 c 0,-0.0932 0.03267,-0.172402 0.09791,-0.237644 0.06524,-0.06524 0.144442,-0.09791 0.237646,-0.09791 h 4.347796 c 0.0932,0 0.172616,-0.03246 0.23786,-0.0977 0.06524,-0.06524 0.0977,-0.144442 0.0977,-0.237644 v -1.901375 c 0,-0.0932 -0.03246,-0.172616 -0.0977,-0.237859 -0.06524,-0.06524 -0.144657,-0.0977 -0.23786,-0.0977 z m 32.420856,0 c -0.121162,0 -0.200362,0.04198 -0.237643,0.125862 -0.0466,0.08389 -0.0466,0.176932 0,0.279457 l 4.222145,9.52074 c 0.0466,0.08389 0.11174,0.158536 0.19562,0.223778 0.0932,0.05593 0.18647,0.08384 0.27967,0.08384 h 1.85935 c 0.0932,0 0.18171,-0.02791 0.26559,-0.08384 0.0932,-0.06524 0.1631,-0.139896 0.2097,-0.223778 l 4.26418,-9.576633 c 0.0373,-0.07456 0.0325,-0.149003 -0.0141,-0.223565 -0.0466,-0.08389 -0.12104,-0.125862 -0.22356,-0.125862 h -2.32078 c -0.0932,0 -0.18647,0.03246 -0.27967,0.0977 -0.0839,0.05593 -0.14902,0.12603 -0.19562,0.209914 l -2.44664,5.620073 c -0.0466,0.08389 -0.10718,0.125862 -0.18175,0.125862 -0.0746,0 -0.13515,-0.04199 -0.18176,-0.125862 l -2.4607,-5.620072 c -0.0466,-0.08389 -0.1165,-0.153991 -0.2097,-0.209913 -0.0839,-0.06524 -0.17238,-0.0977 -0.26558,-0.0977 z m 12.498559,0 c -0.0932,0 -0.172397,0.03246 -0.237647,0.0977 -0.0653,0.06524 -0.0979,0.144655 -0.0979,0.237858 v 9.562551 c 0,0.0932 0.0327,0.172402 0.0979,0.237644 0.0653,0.06524 0.144437,0.09791 0.237647,0.09791 h 7.11613 c 0.0932,0 0.1724,-0.03267 0.23764,-0.09791 0.0653,-0.06524 0.0979,-0.144441 0.0979,-0.237644 v -1.929321 c 0,-0.0932 -0.0327,-0.172403 -0.0979,-0.237645 -0.0653,-0.06524 -0.14444,-0.09791 -0.23764,-0.09791 h -4.34801 c -0.0932,0 -0.17241,-0.03246 -0.23765,-0.0977 -0.0652,-0.06524 -0.0979,-0.144442 -0.0979,-0.237645 v -0.531398 c 0,-0.0932 0.0327,-0.172402 0.0979,-0.237645 0.0653,-0.06524 0.14444,-0.09791 0.23765,-0.09791 h 3.78867 c 0.0932,0 0.17261,-0.03246 0.23785,-0.0977 0.0652,-0.06524 0.0977,-0.144655 0.0977,-0.237859 v -1.929332 c 0,-0.0932 -0.0324,-0.172402 -0.0977,-0.237644 -0.0653,-0.06524 -0.14465,-0.0977 -0.23785,-0.0977 h -3.78867 c -0.0932,0 -0.17241,-0.03267 -0.23765,-0.09791 -0.0652,-0.06524 -0.0979,-0.144441 -0.0979,-0.237645 v -0.587287 c 0,-0.0932 0.0327,-0.172402 0.0979,-0.237644 0.0653,-0.06524 0.14444,-0.09791 0.23765,-0.09791 h 4.34801 c 0.0932,0 0.1724,-0.03246 0.23764,-0.0977 0.0653,-0.06524 0.0979,-0.144442 0.0979,-0.237644 v -1.901375 c 0,-0.0932 -0.0327,-0.172616 -0.0979,-0.237859 -0.0653,-0.06524 -0.14444,-0.0977 -0.23764,-0.0977 z m 9.54869,0 c -0.1025,0 -0.18628,0.03246 -0.25153,0.0977 -0.0559,0.06524 -0.084,0.144655 -0.084,0.237858 v 9.562551 c 0,0.0932 0.0281,0.172402 0.084,0.237644 0.0653,0.06524 0.149,0.09791 0.25153,0.09791 h 6.97639 c 0.0933,0 0.1724,-0.03267 0.23765,-0.09791 0.0653,-0.06524 0.0979,-0.144441 0.0979,-0.237644 v -1.901375 c 0,-0.0932 -0.0326,-0.172402 -0.0979,-0.237645 -0.0652,-0.06524 -0.14445,-0.09791 -0.23765,-0.09791 h -4.20828 c -0.1025,0 -0.18628,-0.03246 -0.25152,-0.0977 -0.0559,-0.06524 -0.084,-0.144443 -0.084,-0.237646 v -6.990268 c 0,-0.0932 -0.0324,-0.172615 -0.0978,-0.237858 -0.0652,-0.06524 -0.14443,-0.0977 -0.23765,-0.0977 z m -94.89999,0.01386 c -0.102524,0 -0.200332,0.03267 -0.293541,0.09791 -0.08389,0.05593 -0.144474,0.125815 -0.181749,0.209698 l -4.054259,9.464847 c -0.03725,0.07456 -0.05134,0.139699 -0.042,0.195621 0.0094,0.05592 0.03266,0.102662 0.07,0.139941 0.02791,0.03729 0.06991,0.0652 0.125857,0.08384 0.04659,0.01864 0.09314,0.02795 0.139734,0.02795 h 2.404613 c 0.0932,0 0.181707,-0.02791 0.265591,-0.08384 0.0932,-0.06524 0.158549,-0.139895 0.195832,-0.223778 l 0.39145,-0.838798 c 0.03725,-0.08389 0.09787,-0.153778 0.181758,-0.2097 0.0932,-0.06524 0.191007,-0.09791 0.293532,-0.09791 h 2.94987 c 0.09321,0 0.181709,0.03267 0.265591,0.09791 0.09321,0.05593 0.1631,0.125816 0.2097,0.2097 l 0.377591,0.838798 c 0.04659,0.08389 0.111737,0.158536 0.195616,0.223778 0.09321,0.05593 0.191234,0.08384 0.29375,0.08384 h 2.390529 c 0.149134,0 0.24715,-0.04652 0.293758,-0.139728 0.05591,-0.0932 0.06525,-0.181707 0.02791,-0.265591 l -4.08241,-9.506867 c -0.03725,-0.08389 -0.102425,-0.153777 -0.195625,-0.209698 -0.08389,-0.06524 -0.172599,-0.09791 -0.265807,-0.09791 z m 69.119965,0 c -0.102525,0 -0.186483,0.03267 -0.251725,0.09791 -0.05593,0.06524 -0.08384,0.144441 -0.08384,0.237643 v 9.548686 c 0,0.0932 0.02791,0.172402 0.08384,0.237644 0.06524,0.06524 0.1492,0.09791 0.251725,0.09791 h 2.111073 c 0.0932,0 0.172403,-0.03267 0.237646,-0.09791 0.06524,-0.06524 0.0977,-0.144441 0.0977,-0.237644 v -9.548687 c 0,-0.0932 -0.03246,-0.172402 -0.0977,-0.237645 -0.06524,-0.06524 -0.144443,-0.09791 -0.237646,-0.09791 z m 31.414165,0 c -0.0932,0 -0.15379,0.04674 -0.18175,0.139943 -0.0279,0.08389 -0.0186,0.167627 0.0279,0.251511 0.57786,0.978636 1.15583,1.929453 1.73371,2.852168 0.58717,0.922715 1.16038,1.864012 1.71961,2.824009 0.0466,0.07456 0.0839,0.177131 0.11175,0.307616 0.0373,0.121163 0.0559,0.228279 0.0559,0.321482 v 3.187518 c 0,0.0932 0.0326,0.172402 0.0979,0.237644 0.0653,0.06524 0.14444,0.09791 0.23765,0.09791 h 2.11106 c 0.0932,0 0.1724,-0.03267 0.23765,-0.09791 0.0652,-0.06524 0.0979,-0.144441 0.0979,-0.237644 v -3.201384 c 0,-0.0932 0.0186,-0.200531 0.0559,-0.321695 0.0373,-0.121162 0.0793,-0.223733 0.12587,-0.307616 l 3.49514,-5.662098 c 0.0746,-0.130485 0.0884,-0.228294 0.0419,-0.293536 -0.0373,-0.06524 -0.10237,-0.09791 -0.19561,-0.09791 h -2.51661 c -0.0933,0 -0.19101,0.02791 -0.29354,0.08384 -0.0933,0.05593 -0.1631,0.126028 -0.2097,0.209912 l -1.70555,2.991684 c -0.0466,0.07456 -0.10262,0.112 -0.16788,0.112 -0.0652,0 -0.12113,-0.03744 -0.16768,-0.112 l -1.71962,-2.991684 c -0.0466,-0.08389 -0.12125,-0.15399 -0.22378,-0.209912 -0.0933,-0.05592 -0.18625,-0.08384 -0.27945,-0.08384 z m -67.38626,2.558419 h 1.481975 c 0.195727,0 0.358885,0.04199 0.48937,0.125863 0.139806,0.07456 0.246919,0.172371 0.321482,0.293536 0.08389,0.11185 0.139926,0.233022 0.167887,0.363507 0.03729,0.121162 0.05589,0.228492 0.05589,0.321696 0,0.177086 -0.03267,0.330726 -0.09791,0.461211 -0.06524,0.130484 -0.1492,0.242358 -0.251725,0.335561 -0.102525,0.08389 -0.214183,0.149232 -0.335348,0.195833 -0.121163,0.03729 -0.237796,0.05589 -0.349641,0.05589 h -1.481975 c -0.0932,0 -0.172404,-0.03267 -0.237646,-0.09791 -0.06524,-0.06524 -0.09791,-0.144441 -0.09791,-0.237646 v -1.481974 c 0,-0.0932 0.03267,-0.172402 0.09791,-0.237644 0.06524,-0.06524 0.144441,-0.09791 0.237646,-0.09791 z m -32.183213,1.705756 c 0.04659,0 0.08859,0.04199 0.125859,0.125861 0.11185,0.270291 0.233024,0.563719 0.363516,0.880611 0.130483,0.307571 0.242358,0.577843 0.335557,0.810852 0.04659,0.08389 0.04659,0.158536 0,0.223779 -0.03725,0.05593 -0.102625,0.08384 -0.195832,0.08384 h -1.244116 c -0.102525,0 -0.172424,-0.02791 -0.209698,-0.08384 -0.03725,-0.06524 -0.03725,-0.139896 0,-0.223779 l 0.698857,-1.691463 c 0.03725,-0.08389 0.07925,-0.125861 0.125857,-0.125861 z" style="color:#000;-inkscape-font-specification:Heavitas;fill:#fff;stroke-linecap:round;stroke-linejoin:round;stroke-miterlimit:128;-inkscape-stroke:none;paint-order:stroke fill markers"/></svg>