<?xml version="1.0" encoding="UTF-8" standalone="no"?>
<svg
   xml:space="preserve"
   width="512"
   height="512"
   viewBox="0 0 135.46666 135.46667"
   version="1.1"
   id="svg3"
   sodipodi:docname="apathybr.svg"
   inkscape:version="1.3 (0e150ed6c4, 2023-07-21)"
   xmlns:inkscape="http://www.inkscape.org/namespaces/inkscape"
   xmlns:sodipodi="http://sodipodi.sourceforge.net/DTD/sodipodi-0.dtd"
   xmlns="http://www.w3.org/2000/svg"
   xmlns:svg="http://www.w3.org/2000/svg"><defs
     id="defs3" /><sodipodi:namedview
     id="namedview3"
     pagecolor="#505050"
     bordercolor="#eeeeee"
     borderopacity="1"
     inkscape:showpageshadow="0"
     inkscape:pageopacity="0"
     inkscape:pagecheckerboard="0"
     inkscape:deskcolor="#505050"
     inkscape:zoom="0.50976562"
     inkscape:cx="255.01916"
     inkscape:cy="256"
     inkscape:window-width="1366"
     inkscape:window-height="705"
     inkscape:window-x="-8"
     inkscape:window-y="-8"
     inkscape:window-maximized="1"
     inkscape:current-layer="svg3" /><path
     id="path1"
     style="fill:#d279b5;fill-opacity:1;stroke:none;stroke-width:33.8667;stroke-miterlimit:128;stroke-dasharray:none;stroke-opacity:1;paint-order:stroke fill markers"
     d="M 87.571915 19.838582 L 87.571915 59.267699 L 0 59.267699 L 0 76.198966 L 87.571915 76.198966 L 87.571915 115.62808 L 127.00103 76.198966 L 135.46666 67.733332 L 127.00103 59.267699 L 87.571915 19.838582 z " /><path
     d="m 39.421883,55.033333 c -1.143528,0 -2.567328,0.582398 -3.386874,1.401981 -0.644862,0.644857 -1.051029,1.651108 -1.234033,2.613277 l -0.394808,-0.91984 c -0.007,-0.01624 -0.01402,-0.03243 -0.02119,-0.04858 -0.408567,-0.919219 -1.119125,-1.618563 -1.797306,-2.079976 -0.738027,-0.515885 -1.777019,-0.943612 -2.835486,-0.943612 h -3.238562 c -1.05324,0 -2.120051,0.4004 -2.869076,0.914156 -0.696871,0.476056 -1.394485,1.229827 -1.78542,2.109432 -0.0079,0.01752 -0.01562,0.03509 -0.02326,0.05271 l -6.709151,15.660026 0.105937,-0.226343 c -0.315241,0.63045 -0.674202,1.623042 -0.459404,2.911967 0.124614,0.747767 0.585558,1.587282 1.160136,2.25981 0.603744,0.677278 1.321892,1.163754 1.923914,1.376661 0.501402,0.182005 1.063598,0.318326 1.648478,0.318326 h 3.978568 c 0.999505,0 2.045633,-0.355378 2.78691,-0.84956 0.02691,-0.01778 0.05361,-0.03587 0.0801,-0.05426 0.450429,-0.315299 0.854205,-0.924433 1.250053,-1.502234 h 0.914156 c 0.346943,0.526649 0.737071,1.02918 1.18184,1.37511 0.134614,0.104695 0.27543,0.201161 0.421679,0.288871 0.741682,0.445008 1.725835,0.742073 2.66392,0.742073 h 3.955315 c 0.297951,0 0.7651,-0.213133 1.173571,-0.327628 0.509024,0.176748 1.034206,0.327628 1.509986,0.327628 h 3.49436 c 1.143024,0 2.564574,-0.582968 3.384289,-1.401981 0.518746,-0.518745 0.874529,-1.276057 1.115695,-2.054655 0.185304,0.617617 0.457525,1.239246 0.90227,1.759582 0.603861,0.67819 1.321185,1.165553 1.923914,1.378728 0.498798,0.180984 1.063082,0.318326 1.647961,0.318326 h 3.978569 c 0.999505,0 2.045459,-0.353541 2.789493,-0.84956 0.02621,-0.01779 0.05222,-0.03588 0.07803,-0.05426 0.452266,-0.316587 0.85655,-0.92503 1.251603,-1.502234 h 0.912089 c 0.348525,0.528799 0.741365,1.030912 1.183907,1.37511 0.134614,0.104695 0.27543,0.201161 0.42168,0.288871 0.741675,0.445001 1.724283,0.742073 2.662369,0.742073 h 3.956865 c 0.438797,0 1.09711,-0.231438 1.728576,-0.482141 0.644595,0.288237 1.328165,0.482141 1.949235,0.482141 h 3.468523 c 1.031425,0 2.548215,-0.549982 3.484541,-1.554427 0.05145,-0.05663 0.08151,-0.142001 0.130742,-0.203088 0.02741,0.03428 0.03624,0.08421 0.06459,0.117305 0.07048,0.0822 0.144087,0.16167 0.220659,0.238229 0.889002,0.888993 2.341028,1.401981 3.410127,1.401981 h 3.447335 c 1.143528,0 2.567328,-0.582398 3.386873,-1.401981 0.03162,-0.03162 0.04713,-0.08808 0.07803,-0.12144 0.03624,0.0412 0.07329,0.08168 0.111104,0.12144 0.889001,0.888993 2.341029,1.401981 3.410128,1.401981 h 3.469039 c 1.143534,0 2.566828,-0.582413 3.386348,-1.401981 0.40975,-0.409751 0.76171,-0.971244 1.00976,-1.572514 0.24801,0.601124 0.59877,1.162951 1.00821,1.572514 0.81945,0.819465 2.24275,1.401981 3.38636,1.401981 h 3.49229 c 1.14357,0 2.56727,-0.582332 3.38687,-1.401981 0.81943,-0.819443 1.4025,-2.243157 1.4025,-3.386874 v -4.650362 l 5.4529,-8.832019 c 0.0255,-0.04126 0.0503,-0.08295 0.0744,-0.125057 0.23086,-0.404008 0.5011,-0.92012 0.62477,-1.783353 0.11456,-0.799606 -0.0743,-2.015576 -0.68161,-3.013253 -0.86586,-1.345159 -2.76958,-2.183846 -3.87522,-2.183846 h -4.16202 c -0.99949,0 -1.86802,0.304195 -2.51354,0.656291 -0.0507,0.02757 -0.10084,0.05617 -0.15038,0.08578 -0.47614,0.285679 -0.88436,0.827591 -1.29501,1.330151 -0.44324,-0.528107 -0.89079,-1.080572 -1.37666,-1.355473 -0.68322,-0.394144 -1.58666,-0.716752 -2.55282,-0.716752 H 99.9825 c -0.396085,0 -0.875085,0.06907 -1.367358,0.222725 -0.383612,-0.102476 -0.774651,-0.245979 -1.13068,-0.245979 h -3.469039 c -1.069016,0 -2.521075,0.512895 -3.410128,1.401981 -0.03782,0.03976 -0.07486,0.08024 -0.111104,0.12144 -0.0309,-0.03337 -0.0464,-0.08982 -0.07803,-0.12144 -0.819492,-0.819492 -2.243254,-1.401981 -3.386873,-1.401981 h -3.447335 c -0.463775,0 -1.006247,0.136422 -1.536857,0.318326 -0.499907,-0.162341 -1.014883,-0.318326 -1.424202,-0.318326 H 68.408227 c -1.044746,0 -2.276995,0.519369 -3.115056,1.228348 -0.107992,-0.08692 -0.212518,-0.188079 -0.320393,-0.261482 C 64.234794,55.484739 63.196673,55.05658 62.138842,55.05658 H 58.90028 c -1.051742,0 -2.115815,0.397812 -2.867008,0.912089 -0.697581,0.475949 -1.397711,1.23101 -1.789038,2.111499 -0.0074,0.01752 -0.01459,0.03509 -0.0217,0.05271 l -0.111104,0.261483 c -0.07461,-0.07997 -0.10637,-0.191725 -0.183451,-0.269234 -0.951732,-0.971858 -2.107505,-1.744542 -3.348116,-2.267562 -1.28737,-0.5489 -2.692211,-0.824239 -4.079855,-0.824239 z m 44.585908,1.401981 0.220658,0.238745 c -0.03246,-0.03787 -0.08887,-0.0497 -0.122989,-0.0863 -0.03855,-0.04244 -0.05796,-0.112741 -0.09767,-0.152446 z"
     style="color:#000;-inkscape-font-specification:Heavitas;fill:#d279b5;stroke-linecap:round;stroke-linejoin:round;stroke-miterlimit:128;-inkscape-stroke:none;paint-order:stroke fill markers"
     id="path2" /><path
     d="m 39.422031,59.266664 c -0.154218,0 -0.285264,0.05406 -0.393216,0.162017 -0.107953,0.107952 -0.162016,0.238998 -0.162016,0.393216 v 15.822869 c 0,0.154217 0.05406,0.285263 0.162016,0.393215 0.107952,0.107952 0.238998,0.162017 0.393216,0.162017 h 3.493053 c 0.154218,0 0.285264,-0.05406 0.393216,-0.162017 0.107952,-0.107952 0.162016,-0.238998 0.162016,-0.393215 v -3.446814 c 0,-0.154218 0.05406,-0.285263 0.162016,-0.393215 0.107952,-0.107953 0.238998,-0.162017 0.393216,-0.162017 h 2.012671 c 1.125789,0 2.105046,-0.153963 2.937822,-0.462399 0.848197,-0.323857 1.549614,-0.756014 2.104797,-1.295776 0.570606,-0.555183 0.994888,-1.20289 1.27248,-1.943134 0.277592,-0.755667 0.416512,-1.565212 0.416512,-2.42883 0,-0.86362 -0.169713,-1.673163 -0.508992,-2.42883 -0.323857,-0.755668 -0.771057,-1.418769 -1.341663,-1.989375 -0.555183,-0.570606 -1.218286,-1.017806 -1.989374,-1.341663 -0.755667,-0.323857 -1.565564,-0.486049 -2.429183,-0.486049 z m 28.985356,0 c -0.154218,0 -0.285263,0.05406 -0.393216,0.162017 -0.107952,0.107952 -0.162016,0.238998 -0.162016,0.393216 v 3.146077 c 0,0.154218 0.05406,0.285264 0.162016,0.393216 0.107953,0.107952 0.238998,0.162016 0.393216,0.162016 h 3.284797 c 0.16964,0 0.300685,0.05406 0.393216,0.162016 0.107952,0.107952 0.162016,0.238998 0.162016,0.393215 v 11.566329 c 0,0.154217 0.05406,0.285263 0.162016,0.393215 0.107953,0.107952 0.238998,0.162017 0.393216,0.162017 h 3.469757 c 0.16964,0 0.300685,-0.05406 0.393216,-0.162017 0.107952,-0.107952 0.162015,-0.238998 0.162015,-0.393215 V 64.078437 c 0,-0.154217 0.05406,-0.285263 0.162017,-0.393215 0.107952,-0.107952 0.238998,-0.162016 0.393216,-0.162016 h 3.238557 c 0.16964,0 0.300685,-0.05406 0.393216,-0.162016 0.107952,-0.107952 0.162016,-0.238998 0.162016,-0.393216 v -3.146077 c 0,-0.154218 -0.05406,-0.285264 -0.162016,-0.393216 -0.09253,-0.107952 -0.223576,-0.162017 -0.393216,-0.162017 z m 15.174804,0 c -0.169639,0 -0.308206,0.05406 -0.416159,0.162017 -0.09253,0.107952 -0.138719,0.238998 -0.138719,0.393216 v 15.822869 c 0,0.154217 0.04619,0.285263 0.138719,0.393215 0.107953,0.107952 0.24652,0.162017 0.416159,0.162017 h 3.446814 c 0.154218,0 0.285264,-0.05406 0.393216,-0.162017 0.107953,-0.107952 0.162016,-0.238998 0.162016,-0.393215 v -4.950493 c 0,-0.154218 0.04619,-0.285263 0.13872,-0.393215 0.107952,-0.107953 0.246872,-0.162017 0.416512,-0.162017 h 4.765533 c 0.154218,0 0.285264,0.05406 0.393216,0.162017 0.107952,0.107952 0.161663,0.238997 0.161663,0.393215 v 4.950493 c 0,0.154217 0.04654,0.285263 0.139072,0.393215 0.107953,0.107952 0.24652,0.162017 0.416159,0.162017 h 3.470111 c 0.154217,0 0.285263,-0.05406 0.393216,-0.162017 0.107952,-0.107952 0.162016,-0.238998 0.162016,-0.393215 V 59.821897 c 0,-0.154218 -0.05406,-0.285264 -0.162016,-0.393216 -0.107953,-0.107952 -0.238999,-0.162017 -0.393216,-0.162017 h -3.470111 c -0.169639,0 -0.308206,0.05406 -0.416159,0.162017 -0.09253,0.107952 -0.139072,0.238998 -0.139072,0.393216 v 5.482428 c 0,0.154217 -0.05371,0.285263 -0.161663,0.393215 -0.107952,0.107953 -0.238998,0.162016 -0.393216,0.162016 h -4.765533 c -0.16964,0 -0.30856,-0.05406 -0.416512,-0.162016 -0.09253,-0.107952 -0.13872,-0.238998 -0.13872,-0.393215 v -5.482428 c 0,-0.154218 -0.05406,-0.285264 -0.162016,-0.393216 -0.107952,-0.107952 -0.238998,-0.162017 -0.393216,-0.162017 z m -57.068151,0.0233 c -0.16964,0 -0.331478,0.05406 -0.485696,0.162017 -0.138796,0.09253 -0.239048,0.208179 -0.300735,0.346975 L 19.01894,75.459809 c -0.06169,0.123374 -0.0846,0.231149 -0.06918,0.323679 0.01542,0.09253 0.05374,0.169866 0.115423,0.231553 0.04626,0.06169 0.115725,0.107876 0.208256,0.13872 0.07711,0.03085 0.154443,0.04624 0.231552,0.04624 h 3.978749 c 0.154218,0 0.30066,-0.04619 0.439456,-0.13872 0.154218,-0.107952 0.262345,-0.231475 0.324032,-0.370271 l 0.647711,-1.387904 c 0.06169,-0.138796 0.16194,-0.254444 0.300736,-0.346975 0.154218,-0.107952 0.316056,-0.162017 0.485696,-0.162017 h 4.880956 c 0.154218,0 0.30066,0.05406 0.439456,0.162017 0.154217,0.09253 0.269867,0.208179 0.346976,0.346975 l 0.624768,1.387904 c 0.07711,0.138796 0.184883,0.262319 0.323679,0.370271 0.154217,0.09253 0.316056,0.13872 0.485695,0.13872 h 3.955806 c 0.246748,0 0.408586,-0.07734 0.485695,-0.231553 0.09253,-0.154217 0.107927,-0.300659 0.04624,-0.439455 L 30.516084,59.798952 C 30.454394,59.660156 30.34627,59.544507 30.192052,59.451977 30.053256,59.344024 29.906814,59.28996 29.752597,59.28996 Z m 32.38593,0 c -0.16964,0 -0.331831,0.05406 -0.486049,0.162017 -0.138796,0.09253 -0.239048,0.208179 -0.300735,0.346975 l -6.708315,15.660853 c -0.06169,0.123374 -0.08496,0.231149 -0.06954,0.323679 0.01542,0.09253 0.05409,0.169866 0.115777,0.231553 0.04627,0.06169 0.115725,0.107876 0.208256,0.13872 0.07711,0.03085 0.15409,0.04624 0.231199,0.04624 h 3.978749 c 0.154218,0 0.301013,-0.04619 0.439809,-0.13872 0.154217,-0.107952 0.261992,-0.231475 0.323679,-0.370271 l 0.647711,-1.387904 c 0.06169,-0.138796 0.16194,-0.254444 0.300736,-0.346975 0.154218,-0.107952 0.316056,-0.162017 0.485696,-0.162017 h 4.880956 c 0.154218,0 0.301013,0.05406 0.439808,0.162017 0.154218,0.09253 0.269868,0.208179 0.346977,0.346975 l 0.624414,1.387904 c 0.07711,0.138796 0.185236,0.262319 0.324032,0.370271 0.154218,0.09253 0.316057,0.13872 0.485696,0.13872 h 3.955453 c 0.246748,0 0.408939,-0.07734 0.486048,-0.231553 0.09253,-0.154217 0.107927,-0.300659 0.04624,-0.439455 l -6.754908,-15.73004 c -0.06169,-0.138796 -0.169461,-0.254445 -0.323679,-0.346975 -0.138796,-0.107953 -0.285238,-0.162017 -0.439456,-0.162017 z m 41.083266,0 c -0.154217,0 -0.254118,0.07698 -0.300383,0.231199 -0.04626,0.138796 -0.03087,0.277717 0.04624,0.416513 0.956147,1.619286 1.912137,3.192184 2.868287,4.71894 0.97157,1.526755 1.92003,3.084611 2.84534,4.673053 0.0771,0.123374 0.13869,0.292735 0.18496,0.50864 0.0617,0.200483 0.0925,0.37807 0.0925,0.532288 v 5.274172 c 0,0.154217 0.0541,0.285263 0.16202,0.393215 0.10795,0.107952 0.23899,0.162017 0.39321,0.162017 h 3.49306 c 0.15421,0 0.28526,-0.05406 0.39321,-0.162017 0.10795,-0.107952 0.16202,-0.238998 0.16202,-0.393215 V 70.3473 c 0,-0.154217 0.0308,-0.331452 0.0925,-0.531935 0.0617,-0.200483 0.13114,-0.370196 0.20825,-0.508992 l 5.78317,-9.368697 c 0.12337,-0.215905 0.14664,-0.377743 0.0695,-0.485695 -0.0617,-0.107953 -0.16982,-0.162017 -0.32404,-0.162017 h -4.1637 c -0.15422,0 -0.31641,0.04619 -0.48605,0.13872 -0.15422,0.09253 -0.26987,0.208179 -0.34698,0.346975 l -2.82204,4.950493 c -0.0771,0.123374 -0.16949,0.18496 -0.27744,0.18496 -0.10796,0 -0.20069,-0.06158 -0.2778,-0.18496 l -2.84534,-4.950494 c -0.0771,-0.138796 -0.20028,-0.254444 -0.36992,-0.346975 -0.15422,-0.09253 -0.30853,-0.13872 -0.46275,-0.13872 z m -55.957688,4.233244 h 2.174334 c 0.323857,0 0.609219,0.06158 0.855967,0.18496 0.246749,0.107952 0.455129,0.254747 0.624769,0.439808 0.169639,0.185061 0.29281,0.400963 0.369919,0.647712 0.09253,0.231326 0.138719,0.470146 0.138719,0.716895 0,0.478075 -0.138567,0.909878 -0.416159,1.295423 -0.26217,0.370122 -0.686452,0.555231 -1.272479,0.555231 h -2.47507 c -0.154218,0 -0.285264,-0.05406 -0.393216,-0.162016 -0.107952,-0.107954 -0.162016,-0.238999 -0.162016,-0.393217 v -2.729567 c 0,-0.154217 0.05406,-0.285263 0.162016,-0.393215 0.107952,-0.107952 0.238998,-0.162016 0.393216,-0.162016 z m -15.915349,2.822046 c 0.07711,0 0.146569,0.06946 0.208256,0.208256 0.185061,0.447231 0.385567,0.933099 0.601472,1.457439 0.215904,0.508918 0.401013,0.956118 0.555231,1.341663 0.07711,0.138796 0.07711,0.26232 0,0.370272 -0.06169,0.09253 -0.169814,0.13872 -0.324032,0.13872 h -2.058911 c -0.16964,0 -0.285288,-0.04619 -0.346975,-0.13872 -0.06169,-0.107952 -0.06169,-0.231476 0,-0.370272 l 1.156702,-2.799102 c 0.06169,-0.138796 0.131148,-0.208256 0.208257,-0.208256 z m 32.38593,0 c 0.07711,0 0.146216,0.06946 0.207903,0.208256 0.185061,0.447231 0.385567,0.933099 0.601471,1.457439 0.215905,0.508918 0.401014,0.956118 0.555232,1.341663 0.07711,0.138796 0.07711,0.26232 0,0.370272 -0.06169,0.09253 -0.169461,0.13872 -0.323679,0.13872 h -2.058911 c -0.169639,0 -0.285289,-0.04619 -0.346976,-0.13872 -0.06169,-0.107952 -0.06169,-0.231476 0,-0.370272 l 1.156704,-2.799102 c 0.06169,-0.138796 0.131147,-0.208256 0.208256,-0.208256 z"
     style="color:#000;-inkscape-font-specification:Heavitas;fill:#fff;stroke-linecap:round;stroke-linejoin:round;stroke-miterlimit:128;-inkscape-stroke:none;paint-order:stroke fill markers"
     id="path3" /></svg>
