<svg xmlns="http://www.w3.org/2000/svg" xml:space="preserve" width="512" height="512" viewBox="0 0 135.46666 135.46667"><path d="M 135.46666,135.46666 V 123.49426 67.733328 L 107.58619,95.613796 11.97239,0 H 0 v 11.97239 l 95.613796,95.6138 -27.880468,27.88047 h 55.760932 z" style="fill:#1fadad;fill-opacity:1;stroke:none;stroke-width:33.8667;stroke-miterlimit:128;stroke-dasharray:none;stroke-opacity:1;paint-order:stroke fill markers"/><path d="m 45.974454,55.033333 c -1.704326,0 -3.408411,0.341848 -4.970756,1.021126 -0.863986,0.375648 -1.555019,1.032244 -2.316137,1.58595 -0.187142,-0.312402 -0.342196,-0.664137 -0.576193,-0.898137 -0.819047,-0.819039 -2.241061,-1.396814 -3.37292,-1.396814 H 31.36501 c -1.057395,0 -2.504331,0.504971 -3.396175,1.396814 -0.03119,0.03275 -0.06186,0.066 -0.09198,0.09974 -0.821715,-0.492003 -1.675843,-0.945822 -2.578137,-1.154452 -0.989008,-0.242243 -2.005876,-0.363285 -3.025138,-0.363285 h -6.746359 c -1.138301,0 -2.557118,0.580487 -3.37292,1.396297 -0.81581,0.815802 -1.396298,2.235136 -1.396297,3.373438 v 15.27917 c -10e-7,1.138302 0.580502,2.557126 1.396297,3.372921 0.819055,0.819054 2.241062,1.396297 3.37292,1.396297 h 7.080188 c 1.026399,0 2.046325,-0.102932 3.041158,-0.324011 0.02209,-0.005 0.04414,-0.01016 0.06615,-0.0155 0.806231,-0.192795 1.548197,-0.62753 2.29495,-1.031462 0.894235,0.871173 2.311132,1.370976 3.355351,1.370976 h 3.373438 c 1.131859,0 2.553873,-0.577258 3.37292,-1.396297 0.234796,-0.234799 0.390667,-0.586538 0.57826,-0.900204 0.760228,0.547257 1.453683,1.192232 2.31407,1.566313 1.562349,0.679282 3.266433,1.021126 4.970756,1.021126 1.704324,0 3.410161,-0.341707 4.972823,-1.021126 0.861902,-0.37474 1.557101,-1.020005 2.318205,-1.56838 0.129694,0.221336 0.213521,0.475461 0.375171,0.664043 0.07048,0.0822 0.144086,0.16167 0.220658,0.238228 0.891827,0.891818 2.339302,1.396297 3.396692,1.396297 h 11.14609 c 1.050849,0 2.310054,-0.522737 3.148645,-1.251603 0.277078,0.14447 0.484784,0.396744 0.771529,0.521415 1.562663,0.67942 3.266432,1.021126 4.970756,1.021126 1.704323,0 3.409642,-0.341706 4.972306,-1.021126 1.482099,-0.64439 2.845734,-1.556405 3.986837,-2.69751 0.123019,-0.12302 0.173141,-0.301482 0.290938,-0.429431 0.127285,0.136527 0.185004,0.326061 0.318327,0.45682 0.0096,0.0099 0.01924,0.01968 0.02894,0.02945 1.161693,1.117857 2.53081,2.012003 4.015775,2.648418 1.57945,0.676908 3.299303,1.013891 5.019849,1.013891 1.550356,0 3.096721,-0.262855 4.548556,-0.798918 0.0176,-0.0064 0.0352,-0.01297 0.0527,-0.01964 1.38112,-0.531199 2.66884,-1.288298 3.78892,-2.247924 0.61675,-0.521614 1.02074,-1.235063 1.52187,-1.869137 0.0382,1.111497 0.57673,2.457512 1.36684,3.247864 h 0.002 c 0.82239,0.822391 2.24106,1.396297 3.37292,1.396297 h 3.37344 c 1.13186,0 2.55379,-0.57716 3.37292,-1.396297 0.81903,-0.819046 1.39629,-2.241062 1.39629,-3.372921 v -4.449341 l 5.24413,-8.494055 c 0.0248,-0.04127 0.049,-0.08296 0.0724,-0.125057 0.22926,-0.401191 0.50017,-0.91355 0.62321,-1.773535 0.11412,-0.797554 -0.0746,-2.01399 -0.68368,-3.011702 -0.86704,-1.34106 -2.76619,-2.174028 -3.85919,-2.174028 h -4.02146 c -0.9941,0 -1.85887,0.304869 -2.49649,0.652674 -0.0507,0.02757 -0.10084,0.05617 -0.15038,0.08578 -0.43306,0.259838 -0.7921,0.76724 -1.1777,1.210778 -0.41604,-0.464285 -0.81667,-0.9854 -1.25988,-1.2361 -0.67789,-0.39035 -1.57373,-0.713135 -2.53317,-0.713135 h -3.97651 c -0.77878,0 -1.88311,0.257055 -2.76365,0.933793 -0.0342,0.02627 -0.0471,0.0629 -0.0801,0.08992 -1.777506,-0.860205 -3.732647,-1.31233 -5.734016,-1.312581 h -0.0021 c -1.719895,2.53e-4 -3.438928,0.335172 -5.017782,1.011825 -1.500952,0.643265 -2.880822,1.559196 -4.044714,2.701127 -0.131371,0.128846 -0.187133,0.316688 -0.312643,0.451135 -0.121656,-0.131129 -0.175521,-0.313522 -0.302824,-0.43925 -1.136747,-1.150993 -2.495437,-2.081225 -3.980635,-2.726965 -1.56266,-0.679416 -3.267981,-1.021126 -4.972306,-1.021126 -1.704327,0 -3.408097,0.34171 -4.970756,1.021126 -1.491702,0.648567 -2.858475,1.580296 -3.998206,2.738334 -1.133661,1.137587 -2.045299,2.492435 -2.687174,3.96875 -0.116228,0.267323 -0.165553,0.557055 -0.262,0.831991 v -3.499528 c 0,-1.131859 -0.577243,-2.554383 -1.396297,-3.373438 -0.819066,-0.819073 -2.235136,-1.396297 -3.373437,-1.396297 h -3.34915 c -1.063247,0 -2.508119,0.507724 -3.396692,1.396297 -0.07657,0.07656 -0.150179,0.156026 -0.220658,0.238228 -0.165134,0.192653 -0.249091,0.453393 -0.380855,0.680062 -0.760025,-0.552609 -1.449685,-1.209251 -2.312521,-1.584399 -1.562658,-0.679415 -3.268497,-1.021126 -4.972823,-1.021126 z m -17.484204,2.070158 0.04858,0.03514 c -0.0089,-0.0065 -0.02,-0.007 -0.02894,-0.01344 -0.008,-0.0057 -0.01163,-0.01605 -0.01964,-0.0217 z m 71.7088,1.359606 c -0.005,0.01481 0.001,0.03364 -0.004,0.04858 -0.007,0.02278 -0.0289,0.05211 -0.0357,0.07441 z m -45.294908,0.283187 0.05891,0.05839 c -0.0099,-0.01011 -0.02518,-0.01317 -0.03514,-0.02325 -0.01008,-0.01 -0.01365,-0.02522 -0.02377,-0.03514 z m -17.886764,0.02894 c -0.005,0.005 -0.0063,0.01255 -0.01137,0.01757 -0.005,0.005 -0.01261,0.0069 -0.01757,0.01189 z" style="color:#000;-inkscape-font-specification:Heavitas;fill:#1fadad;stroke-linecap:round;stroke-linejoin:round;stroke-miterlimit:128;-inkscape-stroke:none;paint-order:stroke fill markers"/><path d="m 45.975226,59.266664 c -1.161661,0 -2.256032,0.223369 -3.283655,0.670161 -1.027622,0.446793 -1.921438,1.057425 -2.680986,1.831865 -0.759547,0.759547 -1.362575,1.653023 -1.809367,2.680645 -0.446792,1.027623 -0.670162,2.122335 -0.670162,3.283996 0,1.161659 0.22337,2.256372 0.670162,3.283994 0.446792,1.027623 1.04982,1.928704 1.809367,2.703143 0.759548,0.759548 1.653364,1.362576 2.680986,1.809368 1.027623,0.446793 2.121994,0.670161 3.283655,0.670161 1.16166,0 2.256372,-0.223368 3.283995,-0.670161 1.027622,-0.446792 1.921097,-1.04982 2.680645,-1.809368 0.77444,-0.774439 1.385072,-1.67552 1.831865,-2.703143 0.446792,-1.027622 0.670502,-2.122335 0.670502,-3.283994 0,-1.161661 -0.22371,-2.256373 -0.670502,-3.283996 -0.446793,-1.027622 -1.057425,-1.921098 -1.831865,-2.680645 -0.759548,-0.77444 -1.653023,-1.385072 -2.680645,-1.831865 -1.027623,-0.446792 -2.122335,-0.670161 -3.283995,-0.670161 z m 31.320326,0 c -1.16166,0 -2.256373,0.223369 -3.283995,0.670161 -1.027622,0.446793 -1.921098,1.057425 -2.680645,1.831865 -0.759547,0.759547 -1.362916,1.653023 -1.809708,2.680645 -0.446793,1.027623 -0.670162,2.122335 -0.670162,3.283996 0,1.161659 0.223369,2.256372 0.670162,3.283994 0.446792,1.027623 1.050161,1.928704 1.809708,2.703143 0.759547,0.759548 1.653023,1.362576 2.680645,1.809368 1.027622,0.446793 2.122335,0.670161 3.283995,0.670161 1.16166,0 2.256373,-0.223368 3.283995,-0.670161 1.027622,-0.446792 1.921098,-1.04982 2.680645,-1.809368 0.77444,-0.774439 1.385073,-1.67552 1.831865,-2.703143 0.446793,-1.027622 0.670162,-2.122335 0.670162,-3.283994 0,-1.161661 -0.223369,-2.256373 -0.670162,-3.283996 -0.446792,-1.027622 -1.057425,-1.921098 -1.831865,-2.680645 -0.759547,-0.77444 -1.653023,-1.385072 -2.680645,-1.831865 -1.027622,-0.446792 -2.122335,-0.670161 -3.283995,-0.670161 z m 18.631234,0.0225 c -1.191446,0 -2.308631,0.223369 -3.351147,0.670162 -1.042515,0.446792 -1.958465,1.057425 -2.747798,1.831865 -0.774439,0.759547 -1.392336,1.653022 -1.854022,2.680645 -0.446792,1.027622 -0.670161,2.122335 -0.670161,3.283995 0,1.16166 0.223369,2.256372 0.670161,3.283995 0.461686,1.027622 1.079583,1.921098 1.854022,2.680645 0.789333,0.759547 1.705283,1.362575 2.747798,1.809367 C 93.618155,75.976631 94.73534,76.2 95.926786,76.2 c 1.087195,0 2.114829,-0.178423 3.082879,-0.535857 0.96805,-0.372326 1.824175,-0.87888 2.568835,-1.519282 0.75954,-0.640402 1.37778,-1.400061 1.85436,-2.278753 0.47658,-0.878692 0.76703,-1.831641 0.87128,-2.859264 0.0447,-0.38722 0.0668,-0.759615 0.0668,-1.117049 0,-0.372327 -0.0149,-0.684907 -0.0447,-0.93809 -0.0149,-0.163823 -0.0816,-0.290717 -0.20077,-0.380076 -0.10425,-0.104251 -0.23115,-0.156121 -0.38008,-0.156121 h -7.684689 c -0.148931,0 -0.275484,0.05187 -0.379736,0.156121 -0.104251,0.104252 -0.156462,0.231145 -0.156462,0.380076 v 2.658148 c 0,0.148931 0.05221,0.275484 0.156462,0.379736 0.104252,0.104251 0.230805,0.156461 0.379736,0.156461 h 2.569178 c 0.148931,0 0.253011,0.05221 0.312583,0.156462 0.05957,0.08936 0.05231,0.193438 -0.02216,0.312583 -0.327648,0.476578 -0.767121,0.819237 -1.318165,1.02774 -0.551045,0.208503 -1.109467,0.312923 -1.675404,0.312923 -0.565937,0 -1.102227,-0.111684 -1.608592,-0.33508 -0.491471,-0.238289 -0.92334,-0.543606 -1.295668,-0.915933 -0.372326,-0.38722 -0.670038,-0.834298 -0.893434,-1.340663 -0.208503,-0.506365 -0.312924,-1.042314 -0.312924,-1.608251 0,-0.551044 0.104421,-1.079729 0.312924,-1.586094 0.223396,-0.521257 0.521108,-0.975601 0.893434,-1.36282 0.372328,-0.38722 0.804197,-0.692537 1.295668,-0.915933 0.506365,-0.238289 1.042655,-0.357238 1.608592,-0.357238 0.789333,0 1.467045,0.171159 2.032982,0.5137 0.58083,0.342541 1.101911,0.796883 1.563596,1.36282 0.104252,0.119145 0.230804,0.193488 0.379735,0.223274 0.148934,0.0149 0.283084,-0.01484 0.402234,-0.08931 l 2.68064,-1.720398 c 0.11915,-0.07447 0.19383,-0.18615 0.22362,-0.335081 0.0447,-0.163824 0.0298,-0.305246 -0.0447,-0.42439 -0.75955,-1.176553 -1.75018,-2.099766 -2.97141,-2.769955 -1.20634,-0.670188 -2.628501,-1.005242 -4.26674,-1.005242 z m -80.400268,0.267929 c -0.148931,0 -0.275484,0.05221 -0.379735,0.156462 -0.104252,0.104251 -0.156462,0.230804 -0.156462,0.379735 v 15.280427 c 0,0.148931 0.05221,0.275484 0.156462,0.379736 0.104251,0.104251 0.230804,0.156121 0.379735,0.156121 h 7.081689 c 0.744654,0 1.452103,-0.07434 2.122292,-0.223274 0.685081,-0.163824 1.288109,-0.431798 1.809367,-0.804125 0.521258,-0.38722 0.930654,-0.893773 1.228515,-1.519283 0.312755,-0.640402 0.469386,-1.444666 0.469386,-2.412716 0,-0.476579 -0.06708,-0.900844 -0.201117,-1.27317 -0.119144,-0.372328 -0.283039,-0.700117 -0.491542,-0.983085 -0.19361,-0.282969 -0.409374,-0.521207 -0.647663,-0.714816 -0.23829,-0.19361 -0.476869,-0.357505 -0.715158,-0.491543 -0.297861,-0.148931 -0.31273,-0.320089 -0.04466,-0.513699 0.38722,-0.282969 0.744746,-0.670233 1.072394,-1.161704 0.342541,-0.491472 0.5137,-1.072367 0.5137,-1.742556 0,-0.834013 -0.15629,-1.533857 -0.469045,-2.099793 C 26.956815,61.388979 26.554682,60.919768 26.048318,60.562335 25.556846,60.2049 24.983555,59.951795 24.32826,59.802864 23.672964,59.63904 22.987989,59.557093 22.273121,59.557093 Z m 41.730325,0 c -0.163825,0 -0.297982,0.05221 -0.402234,0.156462 -0.08936,0.104251 -0.133963,0.230804 -0.133963,0.379735 v 15.280427 c 0,0.148931 0.0446,0.275484 0.133963,0.379736 0.104252,0.104251 0.238409,0.156121 0.402234,0.156121 h 11.147311 c 0.148931,0 0.275825,-0.05187 0.380077,-0.156121 0.104251,-0.104252 0.156121,-0.230805 0.156121,-0.379736 v -3.038223 c 0,-0.148931 -0.05187,-0.275484 -0.156121,-0.379736 -0.104252,-0.104254 -0.231146,-0.156464 -0.380077,-0.156464 h -6.72411 c -0.163824,0 -0.297982,-0.05221 -0.402234,-0.156462 -0.08936,-0.104252 -0.133964,-0.230804 -0.133964,-0.379735 v -11.16981 c 0,-0.148931 -0.05187,-0.275484 -0.156121,-0.379735 C 60.883474,59.6093 60.75658,59.55709 60.607649,59.55709 Z m -25.891543,0.0225 c -0.163824,0 -0.297982,0.05187 -0.402233,0.156121 -0.08936,0.104252 -0.133964,0.230804 -0.133964,0.379735 V 75.37372 c 0,0.148931 0.0446,0.275484 0.133964,0.379736 0.104251,0.104251 0.238409,0.156121 0.402233,0.156121 h 3.373304 c 0.148931,0 0.275484,-0.05187 0.379736,-0.156121 0.104251,-0.104252 0.156461,-0.230805 0.156461,-0.379736 V 60.115444 c 0,-0.148931 -0.05221,-0.275484 -0.156461,-0.379736 -0.104252,-0.104251 -0.230805,-0.156121 -0.379736,-0.156121 z m 73.13996,0 c -0.14894,0 -0.24575,0.07434 -0.29043,0.223273 -0.0447,0.134038 -0.0298,0.268196 0.0447,0.402234 0.92337,1.563773 1.84658,3.08275 2.76995,4.557165 0.93827,1.474414 1.85422,2.978523 2.7478,4.51251 0.0745,0.119144 0.13428,0.283039 0.17896,0.491542 0.0596,0.19361 0.0893,0.364769 0.0893,0.5137 v 5.093703 c 0,0.148931 0.0519,0.275484 0.15612,0.379736 0.10425,0.104251 0.23115,0.156121 0.38008,0.156121 h 3.3733 c 0.14893,0 0.27549,-0.05187 0.37974,-0.156121 0.10425,-0.104252 0.15612,-0.230805 0.15612,-0.379736 v -5.11586 c 0,-0.14893 0.0301,-0.320089 0.0897,-0.5137 0.0596,-0.19361 0.12631,-0.357504 0.20078,-0.491542 l 5.5849,-9.047518 c 0.11915,-0.208504 0.14162,-0.365134 0.0671,-0.469386 -0.0596,-0.104252 -0.16399,-0.156121 -0.31292,-0.156121 h -4.02097 c -0.14893,0 -0.30522,0.0446 -0.46905,0.133964 -0.14893,0.08936 -0.26061,0.201043 -0.33508,0.335081 l -2.72564,4.780779 c -0.0745,0.119145 -0.16367,0.178619 -0.26792,0.178619 -0.10426,0 -0.19381,-0.05947 -0.26827,-0.178619 l -2.7478,-4.780779 c -0.0745,-0.134038 -0.19342,-0.245723 -0.35724,-0.335081 -0.14893,-0.08936 -0.29796,-0.133964 -0.44689,-0.133964 z m -58.530034,3.954156 c 0.551044,0 1.072465,0.118948 1.563937,0.357237 0.491471,0.223397 0.923341,0.528713 1.295668,0.915933 0.372326,0.372328 0.662775,0.819065 0.871278,1.340323 0.208502,0.506365 0.312582,1.03505 0.312582,1.586094 0,0.565937 -0.10408,1.102227 -0.312582,1.608592 -0.208503,0.506364 -0.498952,0.953102 -0.871278,1.340322 -0.372327,0.38722 -0.804197,0.700141 -1.295668,0.93843 -0.491472,0.223397 -1.012893,0.335081 -1.563937,0.335081 -0.551045,0 -1.072125,-0.111684 -1.563597,-0.335081 -0.491471,-0.238289 -0.923341,-0.55121 -1.295667,-0.93843 -0.357435,-0.38722 -0.640618,-0.833958 -0.849121,-1.340322 -0.208504,-0.506365 -0.312583,-1.042655 -0.312583,-1.608592 0,-0.551044 0.104079,-1.079729 0.312583,-1.586094 0.208503,-0.521258 0.491686,-0.967995 0.849121,-1.340323 0.372326,-0.38722 0.804196,-0.692536 1.295667,-0.915933 0.491472,-0.238289 1.012552,-0.357237 1.563597,-0.357237 z m 31.320326,0 c 0.551044,0 1.072124,0.118948 1.563596,0.357237 0.491472,0.223397 0.923341,0.528713 1.295668,0.915933 0.372327,0.372328 0.662775,0.819065 0.871278,1.340323 0.208503,0.506365 0.312923,1.03505 0.312923,1.586094 0,0.565937 -0.10442,1.102227 -0.312923,1.608592 -0.208503,0.506364 -0.498951,0.953102 -0.871278,1.340322 -0.372327,0.38722 -0.804196,0.700141 -1.295668,0.93843 -0.491472,0.223397 -1.012552,0.335081 -1.563596,0.335081 -0.551044,0 -1.072465,-0.111684 -1.563937,-0.335081 -0.491471,-0.238294 -0.923341,-0.551215 -1.295668,-0.938435 -0.357433,-0.38722 -0.640277,-0.833958 -0.84878,-1.340323 -0.208503,-0.506365 -0.312924,-1.042655 -0.312924,-1.608591 0,-0.551044 0.104421,-1.07973 0.312924,-1.586095 0.208503,-0.521257 0.491347,-0.967995 0.84878,-1.340322 0.372327,-0.38722 0.804197,-0.692536 1.295668,-0.915933 0.491472,-0.238289 1.012893,-0.357237 1.563937,-0.357237 z m -57.345833,0.133964 h 2.122291 c 0.19361,0 0.394506,0.09682 0.603009,0.290426 0.223396,0.19361 0.33508,0.424243 0.33508,0.692318 0,0.282969 -0.08921,0.543679 -0.267927,0.781969 -0.178718,0.223396 -0.416955,0.335081 -0.714816,0.335081 h -2.077637 c -0.14893,0 -0.275484,-0.05221 -0.379735,-0.156462 -0.104252,-0.104252 -0.156462,-0.230805 -0.156462,-0.379735 v -1.0274 c 0,-0.148931 0.05221,-0.275824 0.156462,-0.380076 0.104251,-0.104252 0.230805,-0.156121 0.379735,-0.156121 z m 0,5.786021 h 2.345565 c 0.38722,0 0.692536,0.141422 0.915932,0.424391 0.23829,0.268075 0.357579,0.53605 0.357579,0.804125 0,0.297861 -0.119289,0.558573 -0.357579,0.781968 -0.238289,0.223397 -0.491395,0.335082 -0.759471,0.335082 h -2.502026 c -0.14893,0 -0.275484,-0.05221 -0.379735,-0.156462 -0.104252,-0.104252 -0.156462,-0.230805 -0.156462,-0.379736 v -1.273511 c 0,-0.148931 0.05221,-0.275484 0.156462,-0.379736 0.104251,-0.104251 0.230805,-0.156121 0.379735,-0.156121 z" style="color:#000;-inkscape-font-specification:Heavitas;fill:#fff;stroke-linecap:round;stroke-linejoin:round;stroke-miterlimit:128;-inkscape-stroke:none;paint-order:stroke fill markers"/></svg>