<svg xmlns="http://www.w3.org/2000/svg" xml:space="preserve" width="512" height="512" viewBox="0 0 135.46666 135.46667"><path d="M 59.267699 0 L 59.267699 87.571915 L 19.838582 87.571915 L 59.267699 127.00103 L 67.733332 135.46666 L 76.198966 127.00103 L 115.62808 87.571915 L 76.198966 87.571915 L 76.198966 0 L 59.267699 0 z" style="fill:#c35822;fill-opacity:1;stroke:none;stroke-width:33.8667;stroke-miterlimit:128;stroke-dasharray:none;stroke-opacity:1;paint-order:stroke fill markers"/><path d="m 83.765429,48.683849 c -1.429126,0 -2.875079,0.280003 -4.199227,0.847494 -0.315574,0.135246 -0.554586,0.402686 -0.857312,0.566374 -0.808317,-0.70869 -2.049209,-1.228349 -3.077848,-1.228349 h -8.588107 c -0.942936,0 -2.033555,0.460696 -2.841687,1.075903 -0.235122,-0.118797 -0.420853,-0.338905 -0.661975,-0.433565 -1.080668,-0.434597 -2.239985,-0.642338 -3.365686,-0.642338 h -5.247741 c -0.492742,0 -1.044356,0.145369 -1.572514,0.341581 -0.506886,-0.180104 -1.030698,-0.324011 -1.49965,-0.324011 h -2.547131 c -1.017253,0 -2.435402,0.493896 -3.298507,1.357023 -0.0305,0.03277 -0.06047,0.06602 -0.08992,0.09974 -1.616371,-0.876679 -3.381669,-1.474328 -5.201233,-1.474328 H 36.10942 c -1.101872,0 -2.491147,0.566708 -3.281453,1.357023 -0.790312,0.790312 -1.357023,2.179498 -1.357023,3.281453 v 11.542965 c 0,0.217507 0.108784,0.460486 0.150378,0.693498 h -8.52351 c -1.066579,0 -2.380554,0.545743 -3.181718,1.296561 -1.541429,-0.76857 -3.196655,-1.296561 -4.900476,-1.296561 H 10.40815 c -1.1019107,0 -2.491087,0.568703 -3.2814533,1.35909 -0.7902866,0.790286 -1.357023,2.177381 -1.3570231,3.279386 v 11.542965 c 0,1.102382 0.5672023,2.489385 1.3570231,3.279386 v 0.0021 c 0.7903373,0.790337 2.1794924,1.35754 3.2814533,1.35754 h 4.607471 c 1.290855,0 2.584619,-0.19593 3.816304,-0.63717 0.400679,-0.142294 0.715687,-0.457081 1.097608,-0.65009 0.802357,0.7455 2.106466,1.28726 3.168282,1.28726 h 8.589656 c 0.410156,0 0.864575,-0.145719 1.308447,-0.285254 0.443714,0.139441 0.896864,0.285254 1.306897,0.285254 h 2.548682 c 1.10188,0 2.491156,-0.567232 3.281453,-1.35754 0.0015,-0.0015 0.0021,-0.0046 0.0036,-0.0062 0.20766,0.03679 0.446371,0.164331 0.630969,0.164331 0.173525,0 0.421194,-0.138392 0.623218,-0.1757 0.0046,0.0047 0.0067,0.01295 0.01137,0.01757 0.793593,0.793594 2.177448,1.357023 3.279386,1.357023 h 2.549198 c 1.05401,0 2.342021,-0.536478 3.146061,-1.273307 0.330331,0.186106 0.591634,0.484541 0.937928,0.635103 1.311305,0.570132 2.747511,0.857312 4.167704,0.857312 1.420191,0 2.856914,-0.28718 4.168221,-0.857312 1.035405,-0.450175 1.950411,-1.14652 2.802413,-1.898592 0.876717,0.761302 1.824155,1.452543 2.886645,1.907894 1.324147,0.567491 2.770098,0.84801 4.199227,0.84801 1.050719,0 2.100944,-0.122005 3.126941,-0.412378 0.641874,-0.181662 1.238212,-0.508597 1.841748,-0.810286 0.800659,0.57157 1.824921,1.003556 2.726965,1.003556 h 2.515609 c 0.697329,0 1.457551,-0.275044 2.160075,-0.642338 0.01552,0.0087 0.03162,0.03242 0.04702,0.04082 0.129884,0.07085 0.263392,0.134845 0.399976,0.191719 0.51933,0.21638 1.178159,0.409794 1.998328,0.409794 h 3.140376 c 0.08632,0 0.223638,-0.09138 0.318327,-0.09767 0.178004,0.02135 0.323759,0.09767 0.507979,0.09767 h 2.902149 c 0.96416,0 1.968387,-0.3459 2.668054,-0.812353 0.02691,-0.01795 0.05361,-0.03621 0.0801,-0.05478 0.2059,-0.144128 0.374401,-0.495138 0.586011,-0.7028 0.175303,0.181386 0.312716,0.433558 0.496094,0.576192 0.134614,0.104695 0.27543,0.201162 0.42168,0.288872 0.696091,0.41769 1.633767,0.704866 2.531628,0.704866 h 2.88665 c 0.58913,0 1.49035,-0.303508 2.35954,-0.810286 0.10008,0.04639 0.17362,0.137973 0.27492,0.181384 1.32414,0.567493 2.7701,0.84801 4.19923,0.84801 1.05072,0 2.10094,-0.122006 3.12694,-0.412378 0.94088,-0.26629 1.85622,-0.662102 2.69957,-1.189074 0.27448,-0.169289 0.48806,-0.419171 0.74621,-0.6134 0.14248,0.209246 0.24123,0.471569 0.40618,0.636654 0.79142,0.791916 2.17904,1.35909 3.28094,1.35909 h 2.54919 c 1.10183,0 2.49061,-0.56873 3.28094,-1.35909 0.7891,-0.789598 1.35754,-2.176259 1.35754,-3.279386 v -3.068547 l 3.80649,-6.166032 c 0.0255,-0.04057 0.0503,-0.08158 0.0744,-0.12299 0.21465,-0.375647 0.47551,-0.868239 0.59583,-1.708939 0.11153,-0.779231 -0.0733,-1.977394 -0.67386,-2.96261 -0.85323,-1.316707 -2.72605,-2.134753 -3.78323,-2.134753 h -3.03703 c -0.95784,0 -1.78375,0.289999 -2.38331,0.617016 -0.0507,0.02825 -0.10086,0.05754 -0.15038,0.08785 -0.13666,0.082 -0.23714,0.282834 -0.37466,0.38654 -0.1496,-0.107781 -0.27328,-0.32758 -0.41806,-0.409794 -0.64059,-0.369049 -1.50465,-0.681612 -2.42982,-0.681612 h -3.00396 c -0.53103,0 -1.2082,0.188803 -1.87275,0.489892 -0.21809,-0.07678 -0.4135,-0.216335 -0.6351,-0.279053 -1.03942,-0.294173 -2.09889,-0.413928 -3.16208,-0.413928 -1.42913,0 -2.87508,0.282066 -4.19923,0.849561 -1.22904,0.526723 -2.37043,1.273055 -3.33778,2.202966 -0.1659,-0.360659 -0.474268,-0.507345 -0.712619,-0.800985 0.584339,-0.803303 1.025259,-1.845367 1.025259,-2.759521 v -4.9413 c 0.70694,-0.244237 1.38595,-0.616955 1.91203,-1.179773 0.72876,-0.805441 1.25987,-2.080075 1.25987,-3.126941 v -2.294951 c 0,-1.046408 -0.53032,-2.321613 -1.2578,-3.12694 -0.91241,-0.977594 -2.39447,-1.511536 -3.381192,-1.511536 h -8.910051 c -0.712023,0 -1.488378,0.286643 -2.200899,0.667659 -0.339486,-0.133828 -0.650863,-0.342521 -0.999939,-0.441316 -1.039418,-0.294175 -2.09734,-0.411862 -3.16053,-0.411862 z m -17.39222,2.673739 0.04289,0.04496 c -0.0067,-0.0069 -0.01707,-0.0092 -0.02377,-0.01602 -0.0083,-0.0084 -0.01074,-0.02056 -0.01912,-0.02894 z m -23.732401,0.878499 0.03101,0.0083 c -0.0069,-0.0017 -0.01432,-3.78e-4 -0.02119,-0.0021 -0.0037,-8.65e-4 -0.0061,-0.0053 -0.0098,-0.0062 z m 56.726252,15.85588 -0.220658,0.238228 c 0.03954,-0.03954 0.05929,-0.110026 0.09767,-0.152445 0.03418,-0.03656 0.09052,-0.0479 0.12299,-0.08578 z m 5.66787,15.96285 -0.15606,0.285254 c 0.0275,-0.04588 0.0286,-0.139419 0.0548,-0.189653 0.0235,-0.04249 0.0794,-0.05191 0.10128,-0.0956 z m -20.419941,0.681612 c 0.07376,0.09835 0.174536,0.09226 0.254248,0.181384 0.06807,0.08002 0.06543,0.198751 0.138493,0.271818 z m -9.230444,0.437699 -0.03669,0.02326 c 0.0071,-0.0044 0.01202,-0.01111 0.01912,-0.0155 0.0055,-0.0034 0.01208,-0.0044 0.01757,-0.0078 z m 11.195699,1.052649 c 0.04503,0.01801 0.109386,0.01409 0.156063,0.03101 0.02416,0.0086 0.05439,0.0469 0.07803,0.05478 z" style="color:#000;-inkscape-font-specification:Heavitas;fill:#c35822;stroke-linecap:round;stroke-linejoin:round;stroke-miterlimit:128;-inkscape-stroke:none;paint-order:stroke fill markers"/><path d="m 83.765656,52.916667 c -0.900026,0 -1.743699,0.168735 -2.531223,0.506245 -0.787523,0.33751 -1.479438,0.793299 -2.075706,1.367067 -0.585018,0.573767 -1.046293,1.248705 -1.383804,2.024978 -0.33751,0.776273 -0.506245,1.603227 -0.506245,2.480754 0,0.877526 0.168735,1.70448 0.506245,2.480753 0.337511,0.776274 0.798786,1.451211 1.383804,2.024978 0.596268,0.573768 1.288183,1.029299 2.075706,1.36681 0.787524,0.33751 1.631197,0.506244 2.531223,0.506244 0.720022,0 1.378241,-0.08437 1.974509,-0.253122 0.596268,-0.168755 1.136167,-0.40488 1.619932,-0.708639 0.495014,-0.30376 0.939572,-0.669437 1.333334,-1.09695 0.393761,-0.438763 0.753694,-0.922503 1.079954,-1.451269 0.05625,-0.101253 0.06748,-0.196852 0.03373,-0.286855 -0.03375,-0.101252 -0.101141,-0.174388 -0.202395,-0.21939 l -2.396551,-0.945024 c -0.112503,-0.045 -0.224821,-0.045 -0.337324,0 -0.101254,0.045 -0.180134,0.112393 -0.236385,0.202395 -0.292509,0.472514 -0.691882,0.860655 -1.198147,1.164414 -0.495014,0.292509 -1.05189,0.43878 -1.670659,0.43878 -0.427512,0 -0.832629,-0.08986 -1.215142,-0.26986 -0.371261,-0.180006 -0.697497,-0.416388 -0.978757,-0.708897 -0.281258,-0.292509 -0.500664,-0.629977 -0.658169,-1.012489 -0.157504,-0.393762 -0.236127,-0.804367 -0.236127,-1.231879 0,-0.416263 0.07863,-0.821381 0.236127,-1.215142 0.157505,-0.393761 0.376911,-0.736976 0.658169,-1.029484 0.28126,-0.30376 0.607496,-0.545629 0.978757,-0.725635 0.382513,-0.180005 0.78763,-0.26986 1.215142,-0.26986 0.65252,0 1.209395,0.140527 1.670659,0.421784 0.461264,0.270009 0.855149,0.663895 1.18141,1.18141 0.05625,0.09 0.140618,0.157394 0.253122,0.202395 0.112503,0.045 0.224821,0.045 0.337324,0 l 2.39655,-0.945024 c 0.101253,-0.045 0.168644,-0.118138 0.202395,-0.21939 0.03375,-0.101253 0.02251,-0.196852 -0.03373,-0.286855 -0.32626,-0.517516 -0.686192,-0.990024 -1.079954,-1.417537 -0.382512,-0.438762 -0.815837,-0.809927 -1.299602,-1.113686 -0.483764,-0.303759 -1.023664,-0.540142 -1.619932,-0.708897 -0.596267,-0.168755 -1.265718,-0.253123 -2.00824,-0.253123 z m -47.656522,0.185658 c -0.112504,0 -0.208103,0.03944 -0.286854,0.118192 -0.07875,0.07875 -0.118193,0.174352 -0.118193,0.286855 v 11.542945 c 0,0.112503 0.03944,0.208102 0.118193,0.286855 0.07875,0.07875 0.17435,0.117934 0.286854,0.117934 h 4.607187 c 0.877527,0 1.676272,-0.129294 2.396293,-0.388052 0.731272,-0.258758 1.378002,-0.641154 1.940519,-1.147419 0.607519,-0.562517 1.068794,-1.231968 1.383804,-2.008241 0.31501,-0.787524 0.472512,-1.665149 0.472512,-2.632679 0,-0.967528 -0.157502,-1.839409 -0.472512,-2.615683 -0.31501,-0.776273 -0.776285,-1.445724 -1.383804,-2.008241 -1.125034,-1.035031 -2.570509,-1.552466 -4.336812,-1.552466 z m 18.816285,0 c -0.112504,0 -0.208103,0.03944 -0.286856,0.118192 -0.07875,0.07875 -0.118191,0.174352 -0.118191,0.286855 v 11.542945 c 0,0.112503 0.03944,0.208102 0.118191,0.286855 0.07875,0.07875 0.174352,0.117934 0.286856,0.117934 h 2.514485 c 0.112504,0 0.208103,-0.03918 0.286855,-0.117934 0.07875,-0.07875 0.118193,-0.174352 0.118193,-0.286855 v -2.733876 c 0,-0.112504 0.03918,-0.208102 0.117935,-0.286855 0.07875,-0.07875 0.174609,-0.118192 0.287112,-0.118192 h 0.371057 c 0.112504,0 0.230824,0.0337 0.354578,0.101197 0.123753,0.05625 0.219352,0.129387 0.286855,0.21939 0.34876,0.495015 0.69746,0.984499 1.046221,1.468264 0.360011,0.483765 0.719944,0.96176 1.079955,1.434274 0.06751,0.09 0.1631,0.168883 0.286854,0.236385 0.135004,0.05625 0.258811,0.0842 0.371314,0.0842 h 3.138923 c 0.112504,0 0.18564,-0.05042 0.21939,-0.151667 0.03375,-0.112503 0.01677,-0.213848 -0.05072,-0.30385 -0.37126,-0.495015 -0.793097,-1.040659 -1.265611,-1.636927 -0.472514,-0.596267 -0.922559,-1.175606 -1.350072,-1.738123 -0.06751,-0.09 -0.08996,-0.180114 -0.06746,-0.270118 0.03375,-0.101253 0.09565,-0.185619 0.185657,-0.253121 0.270009,-0.168755 0.511879,-0.37693 0.725635,-0.624437 0.213757,-0.258759 0.399467,-0.545556 0.556972,-0.860565 0.157505,-0.315009 0.275567,-0.646991 0.35432,-0.995751 0.09,-0.360011 0.13493,-0.719944 0.13493,-1.079955 0,-0.652519 -0.112318,-1.248835 -0.337325,-1.788852 -0.213756,-0.540015 -0.51753,-1.006779 -0.911292,-1.400541 -0.382511,-0.393762 -0.849533,-0.697536 -1.400799,-0.911292 -0.551266,-0.225006 -1.153069,-0.337582 -1.805589,-0.337582 z m 12.116654,0 c -0.112503,0 -0.208102,0.03944 -0.286855,0.118192 -0.07875,0.07875 -0.118192,0.174352 -0.118192,0.286855 v 11.542945 c 0,0.112503 0.03944,0.208102 0.118192,0.286855 0.07875,0.07875 0.174352,0.117934 0.286855,0.117934 h 8.589679 c 0.112503,0 0.208102,-0.03918 0.286854,-0.117934 0.07875,-0.07875 0.118193,-0.174352 0.118193,-0.286855 v -2.328829 c 0,-0.112504 -0.03945,-0.20836 -0.118193,-0.287112 -0.07875,-0.07875 -0.174351,-0.117935 -0.286854,-0.117935 H 70.38339 c -0.112503,0 -0.208102,-0.03944 -0.286854,-0.118192 -0.07875,-0.07875 -0.118193,-0.174352 -0.118193,-0.286855 v -0.641432 c 0,-0.112504 0.03944,-0.208102 0.118193,-0.286855 0.07875,-0.07875 0.174351,-0.117935 0.286854,-0.117935 h 4.573197 c 0.112504,0 0.208102,-0.03944 0.286855,-0.118192 0.07875,-0.07875 0.118192,-0.174352 0.118192,-0.286855 v -2.328829 c 0,-0.112503 -0.03944,-0.208102 -0.118192,-0.286855 -0.07875,-0.07875 -0.174351,-0.118192 -0.286855,-0.118192 H 70.38339 c -0.112503,0 -0.208102,-0.03944 -0.286854,-0.118192 -0.07875,-0.07875 -0.118193,-0.174351 -0.118193,-0.286855 v -0.708639 c 0,-0.112504 0.03944,-0.20836 0.118193,-0.287113 0.07875,-0.07875 0.174351,-0.117935 0.286854,-0.117935 h 5.248362 c 0.112503,0 0.208102,-0.03944 0.286854,-0.118193 0.07875,-0.07875 0.118193,-0.17435 0.118193,-0.286854 v -2.295096 c 0,-0.112503 -0.03945,-0.208102 -0.118193,-0.286855 -0.07875,-0.07875 -0.174351,-0.118192 -0.286854,-0.118192 z m 23.085632,0 c -0.112504,0 -0.208103,0.03944 -0.286855,0.118192 -0.07875,0.07875 -0.118193,0.174352 -0.118193,0.286855 v 2.295096 c 0,0.112504 0.03944,0.208103 0.118193,0.286854 0.07875,0.07875 0.174351,0.118193 0.286855,0.118193 h 2.396293 c 0.123753,0 0.219353,0.03918 0.286854,0.117935 0.07875,0.07875 0.118194,0.174609 0.118194,0.287113 v 8.437754 c 0,0.112503 0.03944,0.208102 0.118192,0.286855 0.07875,0.07875 0.174352,0.117934 0.286854,0.117934 h 2.531224 c 0.123756,0 0.219349,-0.03918 0.286856,-0.117934 0.07875,-0.07875 0.118195,-0.174352 0.118195,-0.286855 v -8.437754 c 0,-0.112504 0.03946,-0.20836 0.118186,-0.287113 0.07875,-0.07875 0.174352,-0.117935 0.28686,-0.117935 h 2.362562 c 0.123751,0 0.219353,-0.03944 0.286851,-0.118193 0.07875,-0.07875 0.118195,-0.17435 0.118195,-0.286854 v -2.295096 c 0,-0.112503 -0.03946,-0.208102 -0.118195,-0.286855 -0.06746,-0.07875 -0.1631,-0.118192 -0.286851,-0.118192 z m -40.821962,0.01699 c -0.123754,0 -0.22484,0.03918 -0.303593,0.117935 -0.06751,0.07875 -0.101197,0.174351 -0.101197,0.286854 v 11.526208 c 0,0.112503 0.0337,0.208102 0.101197,0.286854 0.07875,0.07875 0.179839,0.117935 0.303593,0.117935 h 2.548217 c 0.112504,0 0.208361,-0.03918 0.287113,-0.117935 0.07875,-0.07875 0.117935,-0.174351 0.117935,-0.286854 V 53.524109 c 0,-0.112502 -0.03918,-0.208102 -0.117935,-0.286854 -0.07875,-0.07875 -0.174609,-0.117935 -0.287113,-0.117935 z m 8.944256,3.088195 h 1.788594 c 0.236257,0 0.433199,0.05067 0.590704,0.151925 0.168756,0.09 0.298307,0.208066 0.38831,0.35432 0.101253,0.135004 0.168644,0.281275 0.202395,0.43878 0.045,0.146253 0.06746,0.275549 0.06746,0.388052 0,0.213756 -0.03944,0.399467 -0.118193,0.556972 -0.07875,0.157505 -0.179838,0.292544 -0.303592,0.405048 -0.123753,0.101252 -0.258792,0.179875 -0.405047,0.236126 -0.146254,0.045 -0.287038,0.06746 -0.422042,0.06746 h -1.788594 c -0.112503,0 -0.208359,-0.03944 -0.287112,-0.118193 -0.07875,-0.07875 -0.117935,-0.174351 -0.117935,-0.286854 v -1.788594 c 0,-0.112503 0.03918,-0.20836 0.117935,-0.287112 0.07875,-0.07875 0.174609,-0.117935 0.287112,-0.117935 z m -18.799547,0.03373 h 1.265869 c 0.315009,0 0.635502,0.03944 0.961762,0.118193 0.33751,0.07875 0.641283,0.23051 0.911292,0.455517 0.281258,0.213756 0.506409,0.523017 0.675164,0.92803 0.180005,0.393761 0.26986,0.911454 0.26986,1.552723 0,0.641269 -0.08986,1.164449 -0.26986,1.569462 -0.168755,0.393761 -0.388161,0.703022 -0.65817,0.928029 -0.270007,0.213757 -0.573781,0.360028 -0.911292,0.43878 -0.33751,0.07875 -0.663747,0.118192 -0.978756,0.118192 h -1.265869 c -0.112503,0 -0.208102,-0.03944 -0.286855,-0.118192 -0.07875,-0.07875 -0.117935,-0.174351 -0.117935,-0.286855 v -5.298835 c 0,-0.112503 0.03918,-0.208102 0.117935,-0.286855 0.07875,-0.07875 0.174352,-0.118192 0.286855,-0.118192 z m 16.031939,13.517196 c -0.877526,0 -1.70448,0.168735 -2.480753,0.506244 -0.776274,0.337511 -1.451212,0.798787 -2.024979,1.383804 -0.573767,0.573768 -1.029557,1.248963 -1.367067,2.025237 -0.33751,0.776273 -0.506244,1.602969 -0.506244,2.480495 0,0.877527 0.168734,1.70448 0.506244,2.480754 0.33751,0.776273 0.7933,1.456956 1.367067,2.041973 0.573767,0.573768 1.248705,1.0293 2.024979,1.36681 0.776273,0.337509 1.603227,0.506244 2.480753,0.506244 0.877526,0 1.70448,-0.168735 2.480753,-0.506244 0.776274,-0.33751 1.451211,-0.793042 2.024979,-1.36681 0.585017,-0.585017 1.046293,-1.2657 1.383804,-2.041973 0.33751,-0.776274 0.506244,-1.603227 0.506244,-2.480754 0,-0.877526 -0.168734,-1.704222 -0.506244,-2.480495 -0.337511,-0.776274 -0.798787,-1.451469 -1.383804,-2.025237 -0.573768,-0.585017 -1.248705,-1.046293 -2.024979,-1.383804 -0.776273,-0.337509 -1.603227,-0.506244 -2.480753,-0.506244 z m 14.057173,0.03373 c -0.900027,0 -1.7437,0.168735 -2.531223,0.506245 -0.787524,0.33751 -1.479438,0.793299 -2.075706,1.367067 -0.585018,0.573767 -1.046295,1.248704 -1.383805,2.024978 -0.33751,0.776273 -0.506245,1.603227 -0.506245,2.480753 0,0.877527 0.168735,1.704481 0.506245,2.480754 0.33751,0.776274 0.798787,1.451211 1.383805,2.024978 0.596268,0.573768 1.288182,1.0293 2.075706,1.366809 0.787523,0.33751 1.631196,0.506246 2.531223,0.506246 0.720022,0 1.378241,-0.08437 1.974509,-0.253123 0.596267,-0.168755 1.136166,-0.40488 1.619931,-0.70864 0.495015,-0.303759 0.939573,-0.669436 1.333334,-1.096949 0.393761,-0.438763 0.753694,-0.922503 1.079954,-1.451269 0.05625,-0.101254 0.06748,-0.196852 0.03373,-0.286855 -0.03375,-0.101252 -0.101141,-0.174389 -0.202394,-0.21939 l -2.396293,-0.945024 c -0.112504,-0.045 -0.225079,-0.045 -0.337582,0 -0.101253,0.045 -0.180134,0.112392 -0.236386,0.202395 -0.292508,0.472514 -0.691881,0.860655 -1.198146,1.164413 -0.495015,0.29251 -1.05189,0.438781 -1.670659,0.438781 -0.427513,0 -0.832373,-0.08986 -1.214884,-0.26986 -0.371264,-0.18001 -0.697501,-0.416393 -0.978759,-0.708902 -0.281258,-0.292509 -0.500664,-0.629978 -0.65817,-1.012489 -0.157504,-0.393763 -0.236385,-0.804367 -0.236385,-1.23188 0,-0.416262 0.07888,-0.82138 0.236385,-1.215141 0.157506,-0.393762 0.376912,-0.736718 0.65817,-1.029227 0.281258,-0.303759 0.607495,-0.545886 0.978757,-0.725891 0.382511,-0.180006 0.78737,-0.26986 1.214884,-0.26986 0.652519,0 1.209395,0.140526 1.670659,0.421784 0.461264,0.270008 0.855149,0.663893 1.181409,1.181409 0.05625,0.09 0.140619,0.157394 0.253122,0.202395 0.112504,0.045 0.225079,0.045 0.337583,0 l 2.396293,-0.945025 c 0.101253,-0.045 0.168644,-0.118136 0.202395,-0.219389 0.03375,-0.101254 0.02252,-0.196853 -0.03373,-0.286855 -0.32626,-0.517511 -0.686193,-0.990019 -1.079955,-1.417532 -0.382512,-0.438764 -0.815837,-0.809928 -1.299602,-1.113687 -0.483764,-0.303759 -1.023663,-0.540142 -1.619931,-0.708897 -0.596268,-0.168756 -1.265719,-0.253122 -2.008241,-0.253122 z m 38.189276,0 c -0.90002,0 -1.74369,0.168735 -2.53121,0.506245 -0.78753,0.33751 -1.47945,0.793299 -2.07571,1.367067 -0.58502,0.573767 -1.04629,1.248704 -1.38381,2.024978 -0.3375,0.776273 -0.50624,1.603227 -0.50624,2.480753 0,0.877527 0.16874,1.704481 0.50624,2.480754 0.33752,0.776274 0.79879,1.451211 1.38381,2.024978 0.59626,0.573768 1.28818,1.0293 2.07571,1.366809 0.78752,0.33751 1.63119,0.506246 2.53121,0.506246 0.72003,0 1.37825,-0.08437 1.97452,-0.253123 0.59626,-0.168755 1.13616,-0.40488 1.61993,-0.70864 0.49501,-0.303759 0.93956,-0.669436 1.33333,-1.096949 0.39376,-0.438763 0.75369,-0.922503 1.07995,-1.451269 0.0563,-0.101254 0.0675,-0.196852 0.0338,-0.286855 -0.0338,-0.101252 -0.10114,-0.174389 -0.2024,-0.21939 l -2.39628,-0.945013 c -0.11251,-0.045 -0.22509,-0.045 -0.33759,0 -0.10125,0.045 -0.18013,0.112392 -0.23639,0.202394 -0.2925,0.472515 -0.69188,0.860656 -1.19814,1.164414 -0.49502,0.29251 -1.05189,0.43878 -1.67065,0.43878 -0.42752,0 -0.83237,-0.08986 -1.21489,-0.26986 -0.37126,-0.180005 -0.6975,-0.416388 -0.97876,-0.708897 -0.28126,-0.292508 -0.50066,-0.629977 -0.65816,-1.012489 -0.15751,-0.393762 -0.23638,-0.804366 -0.23638,-1.231879 0,-0.416263 0.0788,-0.82138 0.23638,-1.215142 0.1575,-0.393762 0.3769,-0.736718 0.65816,-1.029226 0.28126,-0.30376 0.6075,-0.545887 0.97876,-0.725893 0.38252,-0.180005 0.78737,-0.269859 1.21489,-0.269859 0.65252,0 1.20939,0.140526 1.67065,0.421784 0.46126,0.270008 0.85515,0.663894 1.18141,1.181409 0.0563,0.09 0.14062,0.157394 0.25312,0.202396 0.1125,0.045 0.22508,0.045 0.33759,0 l 2.39629,-0.945025 c 0.10125,-0.045 0.16864,-0.118136 0.2024,-0.21939 0.0337,-0.101253 0.0225,-0.196852 -0.0338,-0.286854 -0.32627,-0.517516 -0.6862,-0.990025 -1.07996,-1.417537 -0.38251,-0.438764 -0.81584,-0.809928 -1.2996,-1.113687 -0.48377,-0.303759 -1.02366,-0.540141 -1.61993,-0.708897 -0.59627,-0.168755 -1.26572,-0.253122 -2.00825,-0.253122 z m -97.321022,0.185667 c -0.112499,0 -0.208102,0.03944 -0.286852,0.118192 -0.07875,0.07875 -0.118195,0.174352 -0.118195,0.286855 v 11.542945 c 0,0.112503 0.03946,0.208102 0.118195,0.286855 0.07875,0.07875 0.174353,0.118192 0.286852,0.118192 h 4.606931 c 0.877527,0 1.676272,-0.129552 2.396293,-0.388309 0.731272,-0.258759 1.378259,-0.641155 1.940777,-1.14742 0.607517,-0.562517 1.068794,-1.231968 1.383804,-2.008241 0.315008,-0.787524 0.472512,-1.665149 0.472512,-2.632678 0,-0.967529 -0.157504,-1.83941 -0.472512,-2.615683 -0.31501,-0.776274 -0.776287,-1.445724 -1.383804,-2.008241 -1.125034,-1.035031 -2.570767,-1.552467 -4.33707,-1.552467 z m 12.690365,0 c -0.112503,0 -0.208102,0.03944 -0.286855,0.118192 -0.07875,0.07875 -0.118193,0.174352 -0.118193,0.286855 v 11.542945 c 0,0.112503 0.03944,0.208102 0.118193,0.286855 0.07875,0.07875 0.174352,0.118192 0.286855,0.118192 h 8.589679 c 0.112503,0 0.208103,-0.03944 0.286855,-0.118192 0.07875,-0.07875 0.118192,-0.174352 0.118192,-0.286855 v -2.328828 c 0,-0.112504 -0.03944,-0.208103 -0.118192,-0.286855 -0.07875,-0.07875 -0.174352,-0.118193 -0.286855,-0.118193 h -5.248361 c -0.112503,0 -0.208103,-0.03944 -0.286855,-0.118192 -0.07875,-0.07875 -0.118192,-0.174351 -0.118192,-0.286855 v -0.641175 c 0,-0.112503 0.03944,-0.208359 0.118192,-0.287112 0.07875,-0.07875 0.174352,-0.117935 0.286855,-0.117935 h 4.573197 c 0.112503,0 0.208359,-0.03944 0.287112,-0.118192 0.07875,-0.07875 0.117935,-0.174352 0.117935,-0.286855 v -2.328828 c 0,-0.112504 -0.03918,-0.208103 -0.117935,-0.286855 -0.07875,-0.07875 -0.174609,-0.118193 -0.287112,-0.118193 h -4.573197 c -0.112503,0 -0.208103,-0.03944 -0.286855,-0.118191 -0.07875,-0.07875 -0.118192,-0.174352 -0.118192,-0.286856 v -0.708639 c 0,-0.112504 0.03944,-0.20836 0.118192,-0.287112 0.07875,-0.07875 0.174352,-0.117936 0.286855,-0.117936 h 5.248361 c 0.112503,0 0.208103,-0.03944 0.286855,-0.118192 0.07875,-0.07875 0.118192,-0.174351 0.118192,-0.286854 V 70.38288 c 0,-0.112503 -0.03944,-0.208102 -0.118192,-0.286855 -0.07875,-0.07875 -0.174352,-0.118192 -0.286855,-0.118192 z m 54.136763,0 c -0.112503,0 -0.208102,0.03944 -0.286855,0.118192 -0.07875,0.07875 -0.118192,0.174352 -0.118192,0.286855 v 11.542945 c 0,0.112503 0.03944,0.208102 0.118192,0.286855 0.07875,0.07875 0.174352,0.118192 0.286855,0.118192 h 2.514485 c 0.112504,0 0.208103,-0.03944 0.286856,-0.118192 0.07875,-0.07875 0.117934,-0.174352 0.117934,-0.286855 v -2.733876 c 0,-0.112503 0.03944,-0.208102 0.118193,-0.286854 0.07875,-0.07875 0.174351,-0.118193 0.286854,-0.118193 h 0.371315 c 0.112504,0 0.230566,0.0337 0.35432,0.101197 0.123753,0.05625 0.219353,0.129388 0.286855,0.21939 0.34876,0.495016 0.697718,0.984499 1.046479,1.468264 0.360011,0.483765 0.719943,0.96176 1.079954,1.434274 0.0675,0.09 0.163101,0.168883 0.286855,0.236385 0.135005,0.05625 0.258812,0.08446 0.371315,0.08446 h 3.138923 c 0.112503,0 0.185638,-0.05067 0.21939,-0.151926 0.03375,-0.112503 0.01677,-0.213846 -0.05072,-0.303849 -0.371261,-0.495015 -0.793097,-1.040658 -1.265611,-1.636926 -0.472515,-0.596268 -0.922559,-1.175608 -1.350071,-1.738124 -0.06751,-0.09 -0.08997,-0.180115 -0.06746,-0.270117 0.03375,-0.101253 0.09566,-0.185621 0.185658,-0.253123 0.270008,-0.168755 0.511877,-0.37693 0.725634,-0.624437 0.213756,-0.258757 0.39921,-0.545555 0.556714,-0.860564 0.157505,-0.31501 0.275826,-0.646992 0.354578,-0.995752 0.09,-0.360011 0.13493,-0.719944 0.13493,-1.079955 0,-0.652519 -0.112576,-1.248834 -0.337582,-1.78885 -0.213757,-0.540017 -0.517531,-1.00678 -0.911293,-1.400542 -0.382518,-0.393758 -0.849281,-0.697532 -1.400548,-0.911288 -0.551267,-0.225007 -1.153327,-0.337583 -1.805846,-0.337583 z m -42.931401,0.01699 c -0.112503,0 -0.208102,0.03918 -0.286854,0.117936 -0.07875,0.07875 -0.118193,0.174609 -0.118193,0.287112 v 11.52595 c 0,0.112504 0.03944,0.208102 0.118193,0.286854 0.07875,0.07875 0.174351,0.118193 0.286854,0.118193 h 2.548219 c 0.112503,0 0.208102,-0.03944 0.286854,-0.118193 0.07875,-0.07875 0.118193,-0.17435 0.118193,-0.286854 V 76.4918 c 0,-0.112503 0.05067,-0.174407 0.151925,-0.185657 0.101253,-0.01125 0.179876,0.02819 0.236127,0.118192 l 2.835073,4.573197 c 0.06751,0.09 0.163101,0.134929 0.286855,0.134929 0.123754,0 0.213865,-0.04492 0.270118,-0.134929 l 2.835073,-4.573197 c 0.06751,-0.09 0.151868,-0.129442 0.253121,-0.118192 0.101254,0.01125 0.151926,0.07315 0.151926,0.185657 v 5.434019 c 0,0.112503 0.03918,0.208102 0.117934,0.286855 0.07875,0.07875 0.17461,0.118192 0.287112,0.118192 h 2.548219 c 0.112503,0 0.208102,-0.03944 0.286855,-0.118192 0.07875,-0.07875 0.117935,-0.174352 0.117935,-0.286855 V 70.399875 c 0,-0.112503 -0.03918,-0.208359 -0.117935,-0.287112 -0.07875,-0.07875 -0.174352,-0.117935 -0.286855,-0.117935 h -2.362561 c -0.112504,0 -0.230824,0.0337 -0.354578,0.101197 -0.123753,0.06751 -0.219352,0.146125 -0.286853,0.236128 l -3.240122,4.759112 c -0.05625,0.09 -0.129387,0.13493 -0.219389,0.13493 -0.09,0 -0.168625,-0.04492 -0.236128,-0.13493 l -3.240119,-4.759112 c -0.05625,-0.09 -0.146364,-0.168626 -0.270118,-0.236128 -0.123754,-0.0675 -0.241817,-0.101197 -0.35432,-0.101197 z m 59.131745,0 c -0.123754,0 -0.241817,0.03918 -0.35432,0.117936 -0.101253,0.06751 -0.174388,0.151869 -0.21939,0.253121 l -4.893784,11.424755 c -0.045,0.09 -0.06198,0.168883 -0.05072,0.236385 0.01125,0.06751 0.03946,0.123661 0.08446,0.168662 0.03375,0.045 0.08417,0.0787 0.151667,0.101197 0.05625,0.0225 0.112668,0.03398 0.16892,0.03398 h 2.902538 c 0.112503,0 0.219334,-0.03395 0.320588,-0.101454 0.112502,-0.07875 0.191382,-0.168606 0.236383,-0.26986 l 0.472513,-1.012489 c 0.045,-0.101253 0.118137,-0.18562 0.21939,-0.253122 0.112503,-0.07875 0.230566,-0.118193 0.35432,-0.118193 h 3.560707 c 0.112507,0 0.219336,0.03944 0.320591,0.118193 0.112499,0.06751 0.196866,0.151869 0.25312,0.253122 l 0.45577,1.012489 c 0.05626,0.101254 0.134881,0.191108 0.236128,0.26986 0.112507,0.06751 0.230571,0.101454 0.354322,0.101454 h 2.885807 c 0.18,0 0.29807,-0.05642 0.35431,-0.168919 0.0675,-0.112503 0.0787,-0.219335 0.0338,-0.320587 L 96.354857,70.365885 c -0.04497,-0.101253 -0.123883,-0.18562 -0.236382,-0.253122 -0.101255,-0.07875 -0.208086,-0.117935 -0.320589,-0.117935 z m 19.9637,0 c -0.1125,0 -0.18564,0.05616 -0.21939,0.168664 -0.0338,0.101252 -0.0225,0.202596 0.0337,0.303849 0.69751,1.181286 1.39518,2.328731 2.09269,3.442515 0.70878,1.113784 1.40069,2.249998 2.07571,3.408783 0.0563,0.09 0.10118,0.21381 0.13494,0.371314 0.045,0.146255 0.0675,0.275549 0.0675,0.388053 v 3.84782 c 0,0.112504 0.0395,0.208102 0.11819,0.286854 0.0787,0.07875 0.17435,0.118193 0.28686,0.118193 h 2.54821 c 0.11251,0 0.20811,-0.03944 0.28686,-0.118193 0.0787,-0.07875 0.11819,-0.17435 0.11819,-0.286854 v -3.864553 c 0,-0.112504 0.0225,-0.241799 0.0675,-0.388052 0.045,-0.146255 0.0957,-0.270062 0.15193,-0.371315 l 4.21887,-6.834561 c 0.09,-0.157504 0.10698,-0.275824 0.0507,-0.354577 -0.045,-0.07875 -0.12387,-0.117935 -0.23638,-0.117935 h -3.03746 c -0.11251,0 -0.23083,0.0337 -0.35458,0.101197 -0.11251,0.06751 -0.19687,0.15187 -0.25312,0.253123 l -2.05872,3.611435 c -0.0563,0.09 -0.12389,0.13493 -0.20265,0.13493 -0.0787,0 -0.14614,-0.04493 -0.20239,-0.13493 l -2.0757,-3.611435 c -0.0563,-0.101253 -0.14637,-0.18562 -0.27012,-0.253123 -0.11251,-0.0675 -0.22482,-0.101197 -0.33732,-0.101197 z m -57.916599,2.986999 c 0.416263,0 0.80989,0.08986 1.181151,0.26986 0.371262,0.168755 0.697499,0.399393 0.978757,0.691902 0.281259,0.281258 0.500665,0.618727 0.65817,1.012489 0.157504,0.382512 0.236385,0.781884 0.236385,1.198146 0,0.427514 -0.07888,0.832631 -0.236385,1.215142 -0.157505,0.382512 -0.376911,0.71998 -0.65817,1.012489 -0.281258,0.292509 -0.607495,0.528892 -0.978757,0.708897 -0.371261,0.168756 -0.764888,0.253123 -1.181151,0.253123 -0.416263,0 -0.810148,-0.08437 -1.18141,-0.253123 -0.37126,-0.180005 -0.697497,-0.416388 -0.978756,-0.708897 -0.270008,-0.292509 -0.48367,-0.629977 -0.641175,-1.012489 -0.157505,-0.382511 -0.236384,-0.787628 -0.236384,-1.215142 0,-0.416262 0.07888,-0.815634 0.236384,-1.198146 0.157505,-0.393762 0.371167,-0.731231 0.641175,-1.012489 0.281259,-0.292509 0.607496,-0.523147 0.978756,-0.691902 0.371262,-0.180005 0.765147,-0.26986 1.18141,-0.26986 z m 25.076877,0.101197 h 1.788852 c 0.236257,0 0.4332,0.05067 0.590704,0.151925 0.168755,0.09 0.29805,0.208065 0.388053,0.35432 0.101253,0.135003 0.168901,0.281275 0.202652,0.43878 0.045,0.146254 0.06746,0.275549 0.06746,0.388052 0,0.213756 -0.03944,0.399467 -0.118192,0.556973 -0.07875,0.157503 -0.180096,0.292543 -0.30385,0.405046 -0.123754,0.101253 -0.258793,0.179876 -0.405047,0.236127 -0.146255,0.045 -0.28678,0.06746 -0.421784,0.06746 h -1.788852 c -0.112503,0 -0.208102,-0.03918 -0.286855,-0.117935 -0.07875,-0.07875 -0.118192,-0.174609 -0.118192,-0.287112 v -1.788587 c 0,-0.112503 0.03944,-0.20836 0.118192,-0.287112 0.07875,-0.07875 0.174352,-0.117935 0.286855,-0.117935 z m -66.81013,0.03373 h 1.265611 c 0.315009,0 0.635759,0.03944 0.962019,0.118193 0.337511,0.07875 0.641285,0.230511 0.911292,0.455517 0.281258,0.213756 0.506152,0.523275 0.674907,0.928287 0.180006,0.393762 0.270118,0.911197 0.270118,1.552466 0,0.641269 -0.09011,1.16445 -0.270118,1.569462 -0.168755,0.393762 -0.388162,0.703023 -0.658169,0.928029 -0.270008,0.213757 -0.573782,0.360028 -0.911293,0.43878 -0.337509,0.07875 -0.663747,0.118192 -0.978756,0.118192 h -1.265611 c -0.1125,0 -0.208102,-0.03944 -0.286852,-0.118192 -0.07875,-0.07875 -0.118195,-0.174351 -0.118195,-0.286855 v -5.298835 c 0,-0.112503 0.03946,-0.208102 0.118195,-0.286855 0.07875,-0.07875 0.174352,-0.118192 0.286852,-0.118192 z m 80.850566,2.024979 c 0.05625,0 0.106924,0.05067 0.151925,0.151925 0.135004,0.32626 0.281275,0.680705 0.438779,1.063217 0.157505,0.371261 0.292544,0.697498 0.405048,0.978757 0.05625,0.101253 0.05625,0.191107 0,0.269859 -0.045,0.06751 -0.123881,0.101456 -0.236385,0.101456 h -1.50174 c -0.123753,0 -0.20812,-0.03395 -0.253121,-0.101456 -0.045,-0.07875 -0.045,-0.168606 0,-0.269859 l 0.843569,-2.041974 c 0.045,-0.101253 0.09567,-0.151925 0.151925,-0.151925 z" style="color:#000;-inkscape-font-specification:Heavitas;fill:#fff;stroke-linecap:round;stroke-linejoin:round;stroke-miterlimit:128;-inkscape-stroke:none;paint-order:stroke fill markers"/></svg>