<svg xmlns="http://www.w3.org/2000/svg" xml:space="preserve" width="512" height="512" viewBox="0 0 135.46666 135.46667"><path d="m 67.73333,135.46666 8.465633,-8.46563 39.429117,-39.429119 H 76.198963 V 1e-6 H 59.267696 v 87.57191 H 19.838581 l 39.429115,39.429119 z" style="fill:#2258c3;fill-opacity:1;stroke:none;stroke-width:33.8667;stroke-miterlimit:128;stroke-dasharray:none;stroke-opacity:1;paint-order:stroke fill markers"/><path d="m 67.463065,46.566149 c -1.557699,0 -3.124022,0.306081 -4.560962,0.921908 -0.477266,0.204543 -0.844927,0.590751 -1.292944,0.853695 -0.04707,-0.0531 -0.07209,-0.138744 -0.120923,-0.187586 -0.801544,-0.801544 -2.202113,-1.37511 -3.320211,-1.37511 H 48.35157 c -1.118317,0 -2.52092,0.573867 -3.322278,1.37511 h -2.324406 -0.0016 c -0.801544,-0.801544 -2.202609,-1.37511 -3.320727,-1.37511 h -2.89233 c -0.515886,0 -1.126062,0.125206 -1.716691,0.355534 -0.548777,-0.209437 -1.123837,-0.355534 -1.63866,-0.355534 h -9.818522 c -1.118304,0 -2.518836,0.573832 -3.320211,1.37511 -0.804882,0.804881 -1.37511,2.208678 -1.37511,3.320211 V 64.66582 c 0,0.516651 0.144994,1.098918 0.357601,1.652612 -0.694313,0.154004 -1.422179,0.142287 -2.074292,0.425814 -1.351267,0.587505 -2.594858,1.436036 -3.630786,2.48822 -1.030273,1.034219 -1.858963,2.265764 -2.439644,3.60133 -0.618205,1.42188 -0.9296591,2.978208 -0.9296591,4.523755 0,1.54555 0.3113201,3.101049 0.9296591,4.523238 0.58059,1.335357 1.401667,2.569189 2.422074,3.609599 0.0096,0.0097 0.01925,0.01934 0.02894,0.02894 1.036828,1.036828 2.277044,1.867892 3.619417,2.45153 1.422197,0.618345 2.977694,0.929659 4.523238,0.929659 1.54555,0 3.101051,-0.311322 4.523238,-0.929659 0.605555,-0.263284 1.078224,-0.74579 1.632976,-1.105876 0.09734,0.125206 0.155691,0.301925 0.261999,0.408244 0.80487,0.804871 2.202059,1.375111 3.320211,1.37511 h 2.911967 c 1.118305,10e-7 2.517641,-0.568506 3.322278,-1.373043 v -5.17e-4 -5.17e-4 -5.16e-4 -5.17e-4 c 0.804859,-0.804859 1.375109,-2.208704 1.375109,-3.320211 v -0.49196 h 0.269235 v 0.49196 c 0,1.118305 0.573831,2.518836 1.37511,3.320211 0.801555,0.801556 2.204172,1.375111 3.322277,1.37511 h 2.911967 c 1.118304,10e-7 2.519383,-0.571805 3.320728,-1.373043 v -5.17e-4 -5.17e-4 -5.16e-4 -5.17e-4 c 0.801534,-0.801533 1.374593,-2.202119 1.374593,-3.320211 v -0.49196 h 0.443384 v 0.49196 c 0,0.973439 0.408512,2.236908 1.134814,3.08405 0.07052,0.0815 0.144126,0.160278 0.220658,0.236161 0.871037,0.871036 2.300932,1.375111 3.341915,1.37511 h 2.911967 c 1.118311,10e-7 2.519374,-0.571788 3.320728,-1.373043 v -5.17e-4 -5.17e-4 -5.16e-4 -5.17e-4 c 0.10212,-0.102119 0.157663,-0.272968 0.251664,-0.392741 0.563571,0.358899 1.050103,0.835033 1.663981,1.098124 1.43695,0.615834 3.003269,0.921391 4.560962,0.921391 1.153565,0 2.297185,-0.134673 3.408061,-0.449068 0.834525,-0.236186 1.618186,-0.628672 2.3828,-1.048515 0.880803,0.774321 2.163641,1.24592 3.138826,1.245919 h 2.911967 c 0.297048,0 0.624725,-0.130707 0.945162,-0.205156 0.350998,0.08357 0.68345,0.205156 1.0604,0.205156 h 3.316594 c 0.980238,0 2.000982,-0.350242 2.71508,-0.826306 0.02691,-0.01795 0.05361,-0.03621 0.0801,-0.05478 0.33306,-0.233137 0.61318,-0.73594 0.935343,-1.124996 h 0.160197 c 0.280258,0.355232 0.540166,0.751671 0.859379,0.999939 0.133987,0.104095 0.274111,0.200042 0.419613,0.287321 0.712453,0.42756 1.668586,0.718819 2.584338,0.718819 h 3.296957 c 0.188311,0 0.508454,-0.164861 0.751892,-0.212907 0.350383,0.08416 0.716004,0.212908 1.023193,0.212907 h 9.623187 c 0.68589,10e-7 1.43416,-0.257738 2.12907,-0.609265 0.71928,0.266816 1.4597,0.472024 2.21847,0.609265 0.87107,0.170757 1.75745,0.251664 2.65461,0.251664 1.10953,0 2.19813,-0.110411 3.26337,-0.376721 0.0183,-0.0044 0.0365,-0.0088 0.0548,-0.01344 1.11184,-0.293688 2.20949,-0.785869 3.18378,-1.517737 1.01236,-0.751822 1.86323,-1.775379 2.41174,-2.898531 0.005,-0.011 0.0107,-0.02203 0.016,-0.03307 0.59189,-1.24013 0.81804,-2.564131 0.81804,-3.830257 0,-1.374926 -0.29568,-2.866677 -1.10743,-4.209045 -0.12706,-0.215638 -0.36946,-0.353542 -0.51728,-0.560173 l 0.27699,-0.394808 -0.078,0.107487 c 0.65748,-0.876087 1.03042,-2.241996 0.92397,-3.308842 -6.8e-4,-0.0064 -0.001,-0.01275 -0.002,-0.01912 -0.11673,-1.120188 -0.80311,-2.381317 -1.59783,-3.076298 -0.066,-0.05738 -0.1337,-0.112698 -0.20309,-0.165881 -1.08986,-0.83972 -2.29817,-1.51421 -3.58583,-1.980758 -1.39605,-0.523726 -2.87108,-0.749824 -4.35942,-0.749825 -0.42671,0 -0.84674,0.09557 -1.27124,0.138493 0.93268,-0.973237 1.71951,-2.094988 2.22467,-3.339848 0.003,-0.0065 0.005,-0.01309 0.008,-0.01964 0.5821,-1.455219 0.84181,-3.016477 0.84181,-4.581632 0,-1.565156 -0.25911,-3.125087 -0.84956,-4.580083 -0.5827,-1.435942 -1.49017,-2.756367 -2.62878,-3.81062 -0.003,-0.0026 -0.007,-0.0052 -0.0103,-0.0078 -2.09799,-1.930166 -4.97648,-2.892847 -7.82226,-2.892847 h -5.26531 c -0.53656,0 -1.13821,0.145301 -1.707388,0.371037 -0.569333,-0.225702 -1.170517,-0.371037 -1.706872,-0.371037 h -9.816455 c -0.381747,0 -0.801806,0.144156 -1.214396,0.264067 -0.409698,-0.113947 -0.839955,-0.264067 -1.176156,-0.264067 H 74.734455 c -0.810978,0 -1.702476,0.35879 -2.474784,0.83044 -0.453717,-0.192053 -0.876639,-0.459999 -1.349271,-0.593762 -1.124276,-0.318188 -2.278077,-0.449585 -3.447335,-0.449585 z m 20.774959,1.588017 0.221175,0.238228 c -0.03243,-0.03784 -0.08938,-0.04923 -0.123507,-0.08578 -0.0385,-0.04249 -0.05799,-0.112765 -0.09767,-0.152446 z M 18.326013,70.185379 c -0.01786,0.0081 -0.03077,0.02533 -0.04858,0.03359 -0.01456,0.0069 -0.03253,0.0043 -0.04702,0.01137 z m 6.203239,0 0.0956,0.04496 c -0.01449,-0.007 -0.03197,-0.0044 -0.04651,-0.01137 -0.01782,-0.0083 -0.03122,-0.02547 -0.04909,-0.03359 z m 97.474668,3.176034 0.10542,0.0739 c -0.0207,-0.01506 -0.0474,-0.02023 -0.0682,-0.03514 -0.015,-0.01044 -0.0221,-0.02843 -0.0372,-0.03876 z m -14.95309,12.435416 c 0.0412,0.03381 0.0892,0.06014 0.13074,0.09354 0.007,0.0052 0.0108,0.01658 0.0176,0.0217 z m -5.44515,0.320394 -0.15451,0.28112 c 0.027,-0.04507 0.029,-0.136347 0.0548,-0.185519 0.0233,-0.04208 0.0781,-0.05236 0.0997,-0.0956 z m -22.312847,0.683679 c 0.07373,0.09834 0.17483,0.09228 0.254249,0.181385 0.06839,0.08037 0.06498,0.198282 0.138492,0.271818 z m -3.734138,0.3514 -0.03721,0.02325 c 0.0071,-0.0044 0.01253,-0.01111 0.01964,-0.0155 0.0055,-0.0034 0.0121,-0.0044 0.01757,-0.0078 z m 5.722648,1.154451 c 0.04485,0.01795 0.106182,0.01213 0.152445,0.02894 0.02584,0.0092 0.05634,0.05048 0.08165,0.05891 z" style="color:#000;-inkscape-font-specification:Heavitas;fill:#2258c3;stroke-linecap:round;stroke-linejoin:round;stroke-miterlimit:128;-inkscape-stroke:none;paint-order:stroke fill markers"/><path d="m 67.463456,50.8 c -1.028594,0 -1.993075,0.19284 -2.893096,0.57856 -0.900017,0.385722 -1.690771,0.90662 -2.372212,1.562348 -0.668586,0.655728 -1.195754,1.427077 -1.581477,2.31424 -0.385723,0.887161 -0.57856,1.832242 -0.57856,2.835121 0,1.002878 0.19284,1.947959 0.57856,2.835121 0.385723,0.887161 0.912891,1.658511 1.581477,2.314239 0.681441,0.655728 1.472195,1.176333 2.372212,1.562055 0.900021,0.385721 1.864502,0.578853 2.893096,0.578853 0.822874,0 1.574823,-0.09642 2.256266,-0.28928 0.681444,-0.19286 1.29876,-0.46301 1.851628,-0.810159 0.565728,-0.34715 1.073493,-0.765064 1.523503,-1.253646 0.450008,-0.50144 0.861356,-1.05428 1.234222,-1.658577 0.06429,-0.11572 0.07712,-0.224973 0.03856,-0.327832 -0.03857,-0.11572 -0.1156,-0.199301 -0.231308,-0.250728 l -2.738601,-1.08002 c -0.128574,-0.05143 -0.257231,-0.05143 -0.385807,0 -0.11572,0.05142 -0.205569,0.12844 -0.269856,0.231308 -0.334293,0.540011 -0.790715,0.983595 -1.369297,1.330745 -0.565726,0.334295 -1.20215,0.501459 -1.909307,0.501459 -0.488582,0 -0.951571,-0.102674 -1.388723,-0.308409 -0.424293,-0.205719 -0.797132,-0.475867 -1.118568,-0.81016 -0.321435,-0.334295 -0.572184,-0.719968 -0.752187,-1.15712 -0.18,-0.45001 -0.270152,-0.919267 -0.270152,-1.407849 0,-0.475724 0.09015,-0.938712 0.270152,-1.388722 0.18,-0.450008 0.430752,-0.841957 0.752187,-1.176247 0.321436,-0.347151 0.694275,-0.623571 1.118568,-0.829291 0.437152,-0.205717 0.900141,-0.308701 1.388723,-0.308701 0.74573,0 1.382154,0.1606 1.909307,0.482036 0.527153,0.308577 0.977009,0.758726 1.349873,1.350169 0.06429,0.102868 0.160701,0.17988 0.28928,0.231306 0.128574,0.05143 0.257232,0.05143 0.385807,0 l 2.738595,-1.080018 c 0.11572,-0.05142 0.19274,-0.13502 0.231308,-0.250729 0.03856,-0.11572 0.02575,-0.224972 -0.03856,-0.327831 C 73.956203,54.2008 73.544855,53.660796 73.094847,53.172213 72.657695,52.670773 72.162763,52.246591 71.609895,51.89944 71.057026,51.55229 70.43971,51.28214 69.758268,51.08928 69.076823,50.89642 68.31204,50.8 67.463451,50.8 Z m -44.146252,0.212178 c -0.128574,0 -0.237831,0.04509 -0.327832,0.13508 -0.09,0.09 -0.13478,0.199261 -0.13478,0.32783 v 13.191818 c 0,0.128572 0.04478,0.237829 0.13478,0.327831 0.09,0.09 0.19926,0.13508 0.327832,0.13508 h 9.816686 c 0.128572,0 0.237829,-0.04509 0.327832,-0.13508 0.09,-0.09 0.13508,-0.19926 0.13508,-0.327831 v -2.661494 c 0,-0.128574 -0.04509,-0.23783 -0.13508,-0.327832 -0.09,-0.09 -0.199261,-0.13508 -0.327832,-0.13508 h -5.99778 c -0.128573,0 -0.238121,-0.04509 -0.328125,-0.13508 -0.09,-0.09 -0.13478,-0.199261 -0.13478,-0.32783 v -0.732767 c 0,-0.128572 0.04478,-0.237827 0.13478,-0.327828 0.09,-0.09 0.19956,-0.13508 0.328125,-0.13508 h 5.226465 c 0.128574,0 0.237829,-0.04507 0.32783,-0.13508 0.09,-0.09 0.13508,-0.199261 0.13508,-0.327831 v -2.661495 c 0,-0.128573 -0.04509,-0.237828 -0.13508,-0.327831 -0.09,-0.09 -0.199259,-0.13508 -0.32783,-0.13508 H 27.13611 c -0.128573,0 -0.238121,-0.04509 -0.328125,-0.13508 -0.09,-0.09 -0.13478,-0.199259 -0.13478,-0.327832 v -0.809865 c 0,-0.128573 0.04478,-0.237829 0.13478,-0.327832 0.09,-0.09 0.19956,-0.13508 0.328125,-0.13508 h 5.99778 c 0.128572,0 0.237829,-0.04509 0.327832,-0.13508 0.09,-0.09 0.13508,-0.19926 0.13508,-0.327829 v -2.622944 c 0,-0.128587 -0.04509,-0.237828 -0.13508,-0.32783 -0.09,-0.09 -0.199261,-0.13508 -0.327832,-0.13508 z m 13.172687,0 c -0.141421,0 -0.257253,0.04509 -0.347254,0.13508 -0.07713,0.09 -0.115654,0.199261 -0.115654,0.32783 v 13.191818 c 0,0.128572 0.03849,0.237829 0.115654,0.327831 0.09,0.09 0.205824,0.13508 0.347254,0.13508 h 9.623638 c 0.128574,0 0.23783,-0.04509 0.327832,-0.13508 0.09,-0.09 0.13508,-0.19926 0.13508,-0.327831 v -2.622943 c 0,-0.128574 -0.04509,-0.237829 -0.13508,-0.327831 -0.09,-0.09 -0.199261,-0.13508 -0.327832,-0.13508 h -5.805023 c -0.14144,0 -0.257252,-0.04509 -0.347254,-0.13508 -0.07714,-0.09 -0.115667,-0.199261 -0.115667,-0.327832 v -9.64306 c 0,-0.128574 -0.04509,-0.237828 -0.13508,-0.32783 -0.09,-0.09 -0.19926,-0.13508 -0.327829,-0.13508 z m 11.860777,0 c -0.128572,0 -0.237829,0.04509 -0.327832,0.13508 -0.09,0.09 -0.13508,0.199261 -0.13508,0.32783 v 13.191818 c 0,0.128572 0.04509,0.237829 0.13508,0.327831 0.09,0.09 0.199261,0.13508 0.327832,0.13508 h 9.816686 c 0.128573,0 0.237831,-0.04509 0.327832,-0.13508 0.09,-0.09 0.13508,-0.19926 0.13508,-0.327831 v -2.661494 c 0,-0.128574 -0.04509,-0.23783 -0.13508,-0.327832 -0.09,-0.09 -0.19926,-0.13508 -0.327832,-0.13508 h -5.998072 c -0.128574,0 -0.237831,-0.04509 -0.327831,-0.13508 -0.09,-0.09 -0.134779,-0.199261 -0.134779,-0.32783 v -0.732767 c 0,-0.128572 0.04479,-0.237827 0.134779,-0.327828 0.09,-0.09 0.199261,-0.13508 0.327831,-0.13508 h 5.226759 c 0.128573,0 0.237828,-0.04507 0.327829,-0.13508 0.09,-0.09 0.13508,-0.199261 0.13508,-0.327831 v -2.661495 c 0,-0.128573 -0.04509,-0.237828 -0.13508,-0.327831 -0.09,-0.09 -0.19926,-0.13508 -0.327829,-0.13508 h -5.226759 c -0.128574,0 -0.237831,-0.04509 -0.327831,-0.13508 -0.09,-0.09 -0.134779,-0.199259 -0.134779,-0.327832 v -0.809865 c 0,-0.128573 0.04479,-0.237829 0.134779,-0.327832 0.09,-0.09 0.199261,-0.13508 0.327831,-0.13508 h 5.998072 c 0.128573,0 0.237831,-0.04509 0.327832,-0.13508 0.09,-0.09 0.13508,-0.19926 0.13508,-0.327829 v -2.622944 c 0,-0.128587 -0.04509,-0.237828 -0.13508,-0.32783 -0.09,-0.09 -0.19926,-0.13508 -0.327832,-0.13508 z m 26.383635,0 c -0.128573,0 -0.238124,0.04509 -0.328126,0.13508 -0.09,0.09 -0.13478,0.199261 -0.13478,0.32783 v 2.622944 c 0,0.128573 0.04479,0.237829 0.13478,0.327832 0.09,0.09 0.19956,0.13508 0.328126,0.13508 h 2.738595 c 0.14144,0 0.250688,0.04509 0.327832,0.13508 0.09,0.09 0.13478,0.19926 0.13478,0.327829 v 9.643061 c 0,0.128572 0.04509,0.237829 0.13508,0.327831 0.09,0.09 0.19926,0.13508 0.327832,0.13508 h 2.893095 c 0.141421,0 0.250686,-0.04509 0.32783,-0.13508 0.09,-0.09 0.13508,-0.19926 0.13508,-0.327831 v -9.643061 c 0,-0.128573 0.04478,-0.237829 0.134781,-0.327832 0.09,-0.09 0.199539,-0.13508 0.328125,-0.13508 h 2.700046 c 0.141421,0 0.250686,-0.04509 0.32783,-0.13508 0.09,-0.09 0.134779,-0.19926 0.134779,-0.327829 v -2.622944 c 0,-0.128574 -0.04478,-0.237828 -0.134779,-0.32783 -0.07714,-0.09 -0.1864,-0.13508 -0.32783,-0.13508 z m 12.574411,0 c -0.128574,0 -0.23783,0.04509 -0.327832,0.13508 -0.09,0.09 -0.13508,0.199261 -0.13508,0.32783 v 13.191818 c 0,0.128572 0.04509,0.237829 0.13508,0.327831 0.09,0.09 0.19926,0.13508 0.327832,0.13508 h 9.816692 c 0.12853,0 0.23783,-0.04509 0.32783,-0.13508 0.0899,-0.09 0.13507,-0.19926 0.13507,-0.327831 v -2.661494 c 0,-0.128574 -0.045,-0.23783 -0.13507,-0.327832 -0.0899,-0.09 -0.19926,-0.13508 -0.32783,-0.13508 h -5.998079 c -0.128573,0 -0.237828,-0.04509 -0.327829,-0.13508 -0.09,-0.09 -0.13508,-0.199261 -0.13508,-0.32783 v -0.732767 c 0,-0.128572 0.04507,-0.237827 0.13508,-0.327828 0.09,-0.09 0.19926,-0.13508 0.327829,-0.13508 h 5.226469 c 0.12853,0 0.23812,-0.04507 0.32813,-0.13508 0.09,-0.09 0.13477,-0.199261 0.13477,-0.327831 v -2.661495 c 0,-0.128573 -0.0448,-0.237828 -0.13477,-0.327831 -0.09,-0.09 -0.19956,-0.13508 -0.32813,-0.13508 h -5.226469 c -0.128573,0 -0.237828,-0.04509 -0.327829,-0.13508 -0.09,-0.09 -0.13508,-0.199259 -0.13508,-0.327832 v -0.809865 c 0,-0.128573 0.04507,-0.237829 0.13508,-0.327832 0.09,-0.09 0.19926,-0.13508 0.327829,-0.13508 h 5.998079 c 0.12853,0 0.23783,-0.04509 0.32783,-0.13508 0.0899,-0.09 0.13507,-0.19926 0.13507,-0.327829 v -2.622944 c 0,-0.128587 -0.045,-0.237828 -0.13507,-0.32783 -0.0899,-0.09 -0.19926,-0.13508 -0.32783,-0.13508 z m 13.230376,0 c -0.12854,0 -0.23783,0.04509 -0.32783,0.13508 -0.0899,0.09 -0.13508,0.199261 -0.13508,0.32783 v 13.191818 c 0,0.128572 0.045,0.237829 0.13508,0.327831 0.09,0.09 0.19926,0.13508 0.32783,0.13508 h 5.26501 c 1.00288,0 1.91572,-0.14806 2.7386,-0.44378 0.83574,-0.29572 1.57513,-0.732739 2.218,-1.311323 0.69431,-0.64287 1.22148,-1.40795 1.58148,-2.295111 0.36002,-0.900021 0.54002,-1.903013 0.54002,-3.008749 0,-1.105737 -0.18,-2.102163 -0.54002,-2.989325 -0.36,-0.887161 -0.88717,-1.651948 -1.58148,-2.294817 -1.28574,-1.182884 -2.93799,-1.774526 -4.9566,-1.774526 z m 3.81861,3.587307 h 1.4464 c 0.36,0 0.72658,0.04509 1.09944,0.13508 0.38572,0.09 0.7329,0.263439 1.04147,0.520587 0.32144,0.244292 0.57845,0.598022 0.77131,1.060889 0.20573,0.45001 0.3087,1.041357 0.3087,1.774232 0,0.732872 -0.10297,1.330787 -0.3087,1.793653 -0.19286,0.450009 -0.44361,0.803448 -0.75218,1.060597 -0.30857,0.244289 -0.65575,0.411456 -1.04148,0.501457 -0.38572,0.09 -0.75856,0.13508 -1.11856,0.13508 h -1.4464 c -0.12853,0 -0.23782,-0.04509 -0.32782,-0.13508 -0.0899,-0.09 -0.13509,-0.199261 -0.13509,-0.327832 v -6.055752 c 0,-0.128574 0.045,-0.237828 0.13509,-0.327831 0.0899,-0.09 0.19925,-0.13508 0.32782,-0.13508 z M 21.427319,70.047568 c -1.002879,0 -1.94796,0.19284 -2.835122,0.578562 -0.887163,0.385722 -1.658511,0.91289 -2.314239,1.581474 -0.655728,0.655729 -1.176627,1.427373 -1.562349,2.314535 -0.385721,0.887162 -0.57856,1.83195 -0.57856,2.834828 0,1.002877 0.19284,1.94796 0.57856,2.835121 0.385722,0.88716 0.906621,1.665079 1.562349,2.333661 0.655728,0.655728 1.427076,1.176627 2.314239,1.562348 0.887162,0.385722 1.832243,0.57856 2.835122,0.57856 1.002877,0 1.947958,-0.19284 2.835121,-0.57856 0.887161,-0.385721 1.65851,-0.90662 2.314238,-1.562348 0.668587,-0.668582 1.195755,-1.446501 1.581477,-2.333661 0.385723,-0.887161 0.57856,-1.832244 0.57856,-2.835121 0,-1.002878 -0.19284,-1.947666 -0.57856,-2.834828 -0.385722,-0.887162 -0.91289,-1.658806 -1.581477,-2.314535 C 25.92095,71.53902 25.149601,71.011852 24.26244,70.62613 23.375277,70.240408 22.430196,70.047568 21.427319,70.047568 Z m 47.771816,0.03856 c -1.028593,0 -1.993074,0.19284 -2.893095,0.57856 -0.900017,0.385724 -1.690769,0.906618 -2.372212,1.562348 -0.668588,0.655727 -1.195756,1.427077 -1.581477,2.314239 -0.385721,0.887162 -0.57856,1.832244 -0.57856,2.835121 0,1.002878 0.19284,1.947959 0.57856,2.835123 0.385721,0.887161 0.912889,1.658512 1.581477,2.314238 0.681443,0.655728 1.472195,1.176627 2.372212,1.562348 0.900021,0.385722 1.864502,0.57856 2.893095,0.57856 0.822875,0 1.574824,-0.09642 2.256269,-0.28928 0.681442,-0.19286 1.298757,-0.463009 1.851627,-0.81016 0.565726,-0.34715 1.073492,-0.765064 1.523502,-1.253646 0.45001,-0.501436 0.861652,-1.05428 1.234516,-1.658577 0.06429,-0.11572 0.07712,-0.224971 0.03856,-0.327832 -0.03856,-0.11572 -0.11588,-0.199299 -0.231603,-0.250728 l -2.738601,-1.080018 c -0.128574,-0.05143 -0.25723,-0.05143 -0.385806,0 -0.11572,0.05142 -0.20557,0.12844 -0.269856,0.231306 -0.334293,0.540013 -0.790713,0.983597 -1.369297,1.330749 -0.565727,0.334291 -1.202151,0.501457 -1.909308,0.501457 -0.488581,0 -0.951568,-0.102697 -1.388722,-0.308409 -0.424293,-0.205719 -0.797131,-0.475869 -1.118568,-0.81016 -0.321435,-0.334293 -0.572184,-0.719968 -0.752187,-1.15712 -0.18,-0.450011 -0.269856,-0.919269 -0.269856,-1.407851 0,-0.475723 0.08985,-0.938712 0.269856,-1.388722 0.18,-0.450007 0.430752,-0.841954 0.752187,-1.176247 0.321437,-0.34715 0.694275,-0.62357 1.118568,-0.82929 0.437154,-0.205718 0.900141,-0.308702 1.388722,-0.308702 0.74573,0 1.382154,0.1606 1.909308,0.482037 0.527153,0.308577 0.977009,0.758728 1.349875,1.350169 0.06427,0.102869 0.1607,0.17988 0.289278,0.231305 0.128574,0.05142 0.257232,0.05142 0.385806,0 l 2.738596,-1.080017 c 0.11572,-0.05143 0.19304,-0.13502 0.231601,-0.250729 0.03856,-0.11572 0.02575,-0.224973 -0.03856,-0.327831 -0.372864,-0.591441 -0.784505,-1.131446 -1.234515,-1.620028 -0.437152,-0.501439 -0.932082,-0.925623 -1.484952,-1.272773 -0.552868,-0.34715 -1.170184,-0.617298 -1.851627,-0.81016 -0.681442,-0.19286 -1.446229,-0.28928 -2.294818,-0.28928 z m 46.112945,0.01939 c -0.61715,0 -1.25358,0.07074 -1.9093,0.212179 -0.65574,0.128573 -1.25364,0.366485 -1.79366,0.713637 -0.52715,0.334292 -0.96418,0.790712 -1.31132,1.369296 -0.34716,0.578584 -0.52058,1.311425 -0.52058,2.198588 0,0.6043 0.0898,1.131465 0.26986,1.581475 0.19284,0.437152 0.4436,0.816262 0.75218,1.137698 0.30857,0.321436 0.65575,0.58502 1.04146,0.790737 0.39858,0.20572 0.79709,0.379451 1.19567,0.520883 0.39857,0.128573 0.78425,0.231264 1.15712,0.308407 0.38573,0.06427 0.72006,0.1222 1.00293,0.17362 0.29571,0.06429 0.58497,0.11592 0.86784,0.1545 0.28284,0.03856 0.52732,0.08992 0.73305,0.1542 0.21857,0.06428 0.39201,0.14788 0.52058,0.250728 0.12854,0.09 0.19277,0.218364 0.19277,0.385512 0,0.321435 -0.14776,0.565911 -0.44349,0.733059 -0.29571,0.15428 -0.72647,0.231305 -1.29219,0.231305 -0.59144,0 -1.22788,-0.12836 -1.90932,-0.38551 -0.68144,-0.257147 -1.36921,-0.61088 -2.0635,-1.06089 -0.10275,-0.06429 -0.21868,-0.08368 -0.34725,-0.05798 -0.12854,0.02571 -0.23127,0.09019 -0.30841,0.193061 l -1.48525,2.140614 c -0.0771,0.102869 -0.10903,0.225244 -0.0962,0.366676 0.0134,0.128573 0.0705,0.231263 0.17335,0.308407 0.36,0.295722 0.75224,0.578706 1.17653,0.848712 0.43715,0.257147 0.90641,0.48193 1.40785,0.674791 0.50144,0.19286 1.04144,0.340919 1.62003,0.443779 0.57859,0.11572 1.20216,0.17362 1.87076,0.17362 0.82287,0 1.56884,-0.08358 2.23743,-0.250728 0.68144,-0.18 1.25996,-0.450155 1.73568,-0.810163 0.48858,-0.360008 0.86769,-0.816427 1.13769,-1.369297 0.27001,-0.565725 0.40523,-1.234385 0.40523,-2.005832 0,-0.822873 -0.16716,-1.50437 -0.50146,-2.044383 -0.32144,-0.552867 -0.7265,-0.99616 -1.21509,-1.330451 -0.47573,-0.347151 -0.99005,-0.604464 -1.54292,-0.771612 -0.55288,-0.18 -1.06064,-0.314931 -1.52351,-0.404932 -0.0899,-0.0128 -0.29568,-0.0451 -0.61712,-0.09651 -0.32142,-0.06429 -0.65576,-0.147861 -1.0029,-0.25073 -0.34715,-0.102868 -0.65582,-0.22495 -0.92582,-0.366382 -0.27,-0.14144 -0.40493,-0.30203 -0.40493,-0.482034 0,-0.18 0.0513,-0.321499 0.1542,-0.424356 0.11574,-0.102869 0.2572,-0.1736 0.42435,-0.21218 0.16715,-0.05142 0.34059,-0.0771 0.5206,-0.0771 0.19285,-0.0128 0.36001,-0.0194 0.50145,-0.0194 0.47572,0 0.99662,0.09015 1.56233,0.270152 0.56574,0.167139 1.17648,0.456401 1.83222,0.86784 0.10297,0.07714 0.21839,0.102822 0.34696,0.0771 0.12853,-0.02573 0.23156,-0.08991 0.30871,-0.19276 l 1.50437,-2.140909 c 0.0772,-0.102868 0.10903,-0.218679 0.0962,-0.347255 -0.0134,-0.128573 -0.0707,-0.237826 -0.17362,-0.327829 -0.7843,-0.604292 -1.60701,-1.060713 -2.46845,-1.369292 -0.84858,-0.321436 -1.81307,-0.482036 -2.89309,-0.482037 z m -84.145177,0.19276 c -0.128572,0 -0.238123,0.04509 -0.328124,0.13508 -0.09,0.09 -0.134781,0.19926 -0.134781,0.327832 v 13.191817 c 0,0.128574 0.04479,0.237831 0.134781,0.327832 0.09,0.09 0.19956,0.13508 0.328124,0.13508 h 2.911928 c 0.128574,0 0.238125,-0.04509 0.328126,-0.13508 0.09,-0.09 0.13478,-0.199259 0.13478,-0.327832 v -4.262391 c 0,-0.128573 0.04509,-0.23783 0.13508,-0.327832 0.09,-0.09 0.19926,-0.13508 0.327832,-0.13508 h 5.207333 c 0.128574,0 0.23783,-0.04479 0.327832,-0.134779 0.09,-0.09 0.13508,-0.199261 0.13508,-0.32783 v -2.700041 c 0,-0.128573 -0.04509,-0.238123 -0.13508,-0.328125 -0.09,-0.09 -0.19926,-0.13478 -0.327832,-0.13478 h -5.207333 c -0.128573,0 -0.237829,-0.04509 -0.327832,-0.13508 -0.09,-0.09 -0.13508,-0.19926 -0.13508,-0.32783 v -0.81016 c 0,-0.128572 0.04509,-0.237827 0.13508,-0.32783 0.09,-0.09 0.19926,-0.13508 0.327832,-0.13508 h 5.978649 c 0.128574,0 0.23783,-0.04479 0.327832,-0.13478 0.09,-0.09 0.13508,-0.19926 0.13508,-0.327832 v -2.642351 c 0,-0.128573 -0.04508,-0.23783 -0.13508,-0.327832 -0.09,-0.09 -0.19926,-0.13508 -0.327832,-0.13508 z m 12.574412,0 c -0.128573,0 -0.23783,0.04509 -0.327832,0.13508 -0.09,0.09 -0.13508,0.19926 -0.13508,0.327832 v 13.191817 c 0,0.128574 0.04509,0.237831 0.13508,0.327832 0.09,0.09 0.199261,0.13508 0.327832,0.13508 h 2.912223 c 0.128574,0 0.237829,-0.04509 0.327831,-0.13508 0.09,-0.09 0.13508,-0.199259 0.13508,-0.327832 v -4.262391 c 0,-0.128573 0.04507,-0.23783 0.13508,-0.327832 0.09,-0.09 0.199259,-0.13508 0.327832,-0.13508 h 5.20704 c 0.128573,0 0.238122,-0.04479 0.328127,-0.134779 0.09,-0.09 0.134779,-0.199261 0.134779,-0.32783 v -2.700041 c 0,-0.128573 -0.04478,-0.238123 -0.134779,-0.328125 -0.09,-0.09 -0.19956,-0.13478 -0.328127,-0.13478 h -5.20704 c -0.128574,0 -0.237831,-0.04509 -0.327832,-0.13508 -0.09,-0.09 -0.13508,-0.19926 -0.13508,-0.32783 v -0.81016 c 0,-0.128572 0.04507,-0.237827 0.13508,-0.32783 0.09,-0.09 0.199259,-0.13508 0.327832,-0.13508 h 5.97865 c 0.128574,0 0.237829,-0.04479 0.32783,-0.13478 0.09,-0.09 0.13508,-0.19926 0.13508,-0.327832 v -2.642351 c 0,-0.128573 -0.04509,-0.23783 -0.13508,-0.327832 -0.09,-0.09 -0.19926,-0.13508 -0.32783,-0.13508 z m 55.447601,0 c -0.14144,0 -0.25696,0.04509 -0.34696,0.13508 -0.0771,0.09 -0.116,0.19926 -0.116,0.327832 v 13.191817 c 0,0.128574 0.0389,0.237831 0.116,0.327832 0.0899,0.09 0.20553,0.13508 0.34696,0.13508 h 9.623934 c 0.12853,0 0.23783,-0.04509 0.32783,-0.13508 0.0899,-0.09 0.13507,-0.199259 0.13507,-0.327832 v -2.622936 c 0,-0.128572 -0.045,-0.237828 -0.13507,-0.327832 -0.0899,-0.09 -0.19926,-0.13508 -0.32783,-0.13508 h -5.80532 c -0.14144,0 -0.25696,-0.04509 -0.34696,-0.13508 -0.0772,-0.09 -0.1156,-0.199259 -0.1156,-0.327832 V 70.7612 c 0,-0.128574 -0.045,-0.23783 -0.13508,-0.327832 -0.0899,-0.09 -0.19927,-0.13508 -0.32784,-0.13508 z m -42.699562,0.01941 c -0.14144,0 -0.256957,0.04509 -0.34696,0.13508 -0.07713,0.09 -0.115653,0.19926 -0.115653,0.327832 v 13.172393 c 0,0.128573 0.03849,0.237831 0.115653,0.327832 0.09,0.09 0.205528,0.13508 0.34696,0.13508 h 2.912224 c 0.128573,0 0.237828,-0.04509 0.327829,-0.13508 0.09,-0.09 0.13508,-0.19926 0.13508,-0.327832 V 70.780606 c 0,-0.128573 -0.04509,-0.23783 -0.13508,-0.327832 -0.09,-0.09 -0.199259,-0.13508 -0.327829,-0.13508 z m 21.639207,0 c -0.14144,0 -0.257253,0.04509 -0.347255,0.13508 -0.07714,0.09 -0.115654,0.19926 -0.115654,0.327832 v 13.172393 c 0,0.128573 0.03849,0.237831 0.115654,0.327832 0.09,0.09 0.205823,0.13508 0.347255,0.13508 h 2.912223 c 0.128572,0 0.237829,-0.04509 0.327832,-0.13508 0.09,-0.09 0.13508,-0.19926 0.13508,-0.327832 V 70.780606 c 0,-0.128573 -0.04509,-0.23783 -0.13508,-0.327832 -0.09,-0.09 -0.199261,-0.13508 -0.327832,-0.13508 z m 10.761629,0 c -0.14144,0 -0.276357,0.04509 -0.404933,0.13508 -0.11572,0.07714 -0.199301,0.17356 -0.250728,0.28928 l -5.593141,13.056448 c -0.05144,0.102868 -0.07054,0.193 -0.05768,0.270152 0.0128,0.07714 0.0448,0.14132 0.09622,0.19276 0.03856,0.05143 0.09648,0.09024 0.17362,0.115946 0.06429,0.02573 0.12876,0.03856 0.19304,0.03856 h 3.317154 c 0.128574,0 0.250664,-0.0388 0.366383,-0.115946 0.128574,-0.09 0.218428,-0.192701 0.269857,-0.308408 l 0.540008,-1.15712 c 0.05144,-0.11572 0.13502,-0.212136 0.250731,-0.28928 0.128573,-0.09 0.263796,-0.13508 0.405225,-0.13508 h 4.069345 c 0.128574,0 0.250664,0.04509 0.366382,0.13508 0.128573,0.07714 0.224992,0.17356 0.289281,0.289281 l 0.520882,1.15712 c 0.0643,0.11572 0.15414,0.218407 0.26986,0.308408 0.12854,0.07714 0.2635,0.115946 0.40494,0.115946 h 3.29802 c 0.20572,0 0.34064,-0.06448 0.40493,-0.19304 0.077,-0.128573 0.09,-0.250665 0.0385,-0.36638 L 92.226717,70.742073 c -0.05144,-0.11572 -0.141581,-0.212135 -0.270153,-0.28928 -0.11572,-0.09 -0.237808,-0.13508 -0.366382,-0.13508 z m -67.462871,3.413681 c 0.475723,0 0.925581,0.102697 1.349874,0.308408 0.424295,0.19286 0.797135,0.456447 1.118568,0.790738 0.321436,0.321437 0.572184,0.707112 0.752188,1.157122 0.18,0.437151 0.270152,0.893573 0.270152,1.369298 0,0.488581 -0.09014,0.951568 -0.270152,1.38872 -0.18,0.437153 -0.430752,0.822827 -0.752188,1.157121 -0.321433,0.334291 -0.694273,0.604442 -1.118568,0.81016 -0.424293,0.192859 -0.874151,0.28928 -1.349874,0.28928 -0.475725,0 -0.925877,-0.09641 -1.350171,-0.28928 -0.424293,-0.205718 -0.797133,-0.475869 -1.118568,-0.81016 -0.308579,-0.334294 -0.552762,-0.719968 -0.732765,-1.157121 -0.18,-0.437152 -0.270152,-0.900139 -0.270152,-1.38872 0,-0.475725 0.09015,-0.932147 0.270152,-1.369298 0.18,-0.45001 0.424186,-0.835685 0.732765,-1.157122 0.321435,-0.334291 0.694275,-0.597875 1.118568,-0.790738 0.424294,-0.205718 0.874446,-0.308408 1.350171,-0.308408 z m 68.793619,2.468446 c 0.06428,0 0.1222,0.0579 0.17362,0.173619 0.1543,0.372866 0.321453,0.777943 0.501457,1.215095 0.18,0.424296 0.334335,0.797134 0.462908,1.118569 0.06427,0.11572 0.06427,0.218701 0,0.308702 -0.05144,0.07714 -0.14158,0.115666 -0.270152,0.115666 h -1.716552 c -0.14144,0 -0.237849,-0.03849 -0.28928,-0.115666 -0.05144,-0.09 -0.05144,-0.19298 0,-0.308702 l 0.964364,-2.333664 c 0.05144,-0.11572 0.109338,-0.173619 0.17362,-0.173619 z" style="color:#000;-inkscape-font-specification:Heavitas;display:inline;fill:#fff;stroke-linecap:round;stroke-linejoin:round;stroke-miterlimit:128;-inkscape-stroke:none;paint-order:stroke fill markers"/></svg>