<svg xmlns="http://www.w3.org/2000/svg" xml:space="preserve" width="512" height="512" viewBox="0 0 135.46666 135.46667"><path d="m 67.73333,135.46666 8.465633,-8.46563 39.429117,-39.429119 H 76.198963 V 1e-6 H 59.267696 v 87.57191 H 19.838581 l 39.429115,39.429119 z" style="fill:#c32265;fill-opacity:1;stroke:none;stroke-width:33.8667;stroke-miterlimit:128;stroke-dasharray:none;stroke-opacity:1;paint-order:stroke fill markers"/><path d="m 99.400133,55.033333 c -1.704325,0 -3.40996,0.341846 -4.972306,1.021126 -0.863985,0.375647 -1.555534,1.032243 -2.316655,1.58595 -0.187068,-0.312194 -0.342325,-0.66427 -0.576192,-0.898137 -0.815772,-0.815756 -2.2346,-1.396814 -3.372921,-1.396814 h -3.37292 c -0.449769,0 -0.977288,0.136912 -1.492416,0.309025 -0.520181,-0.175797 -1.053981,-0.330212 -1.478462,-0.330212 H 70.023632 c -0.93605,0 -1.991059,0.445017 -2.816366,1.039213 -0.59662,-0.272068 -1.163238,-0.612298 -1.795239,-0.791166 -1.232186,-0.348734 -2.507013,-0.494027 -3.81062,-0.494027 -1.720544,0 -3.43988,0.334401 -5.019332,1.011308 -0.722599,0.309686 -1.296552,0.86128 -1.953369,1.289327 -0.147541,-0.216689 -0.250123,-0.486802 -0.421679,-0.658358 -0.815802,-0.815809 -2.234619,-1.396297 -3.372921,-1.396297 H 39.462707 c -1.138302,0 -2.557126,0.580503 -3.372921,1.396297 -0.815766,0.815774 -1.396297,2.235118 -1.396297,3.373438 v 7.472412 h -0.84956 v -7.472412 c 0,-1.138301 -0.581005,-2.557636 -1.396814,-3.373438 -0.815803,-0.815809 -2.23462,-1.396297 -3.372921,-1.396297 h -3.349666 c -0.590842,0 -1.279804,0.188775 -1.945101,0.480591 -0.642391,-0.287336 -1.325138,-0.480591 -1.943551,-0.480591 H 10.464994 c -1.1383068,0 -2.557626,0.580478 -3.3734373,1.396297 -0.8190488,0.819049 -1.3962972,2.241599 -1.3962972,3.373438 v 15.27917 c 0,1.131858 0.5739939,2.55061 1.3962972,3.372921 0.8190641,0.819064 2.2415735,1.396297 3.3734373,1.396297 h 11.370882 c 0.615797,0 1.299754,-0.190888 1.943551,-0.478524 0.666289,0.29174 1.357145,0.478524 1.945101,0.478524 h 11.146606 c 0.40672,0 0.856831,-0.147656 1.297078,-0.28112 0.439626,0.133103 0.888359,0.28112 1.294495,0.28112 h 11.371399 c 1.131859,0 2.553866,-0.577243 3.372921,-1.396297 0.163976,-0.163977 0.260653,-0.422017 0.402559,-0.626835 0.662612,0.433348 1.243048,0.988078 1.972489,1.300696 1.579453,0.676909 3.298788,1.013891 5.019332,1.013891 1.283848,0 2.546893,-0.15116 3.765662,-0.496094 1.134168,-0.32099 2.225603,-0.791757 3.226676,-1.418001 0.520696,-0.320965 0.944166,-0.768847 1.412317,-1.162203 0.238262,0.52041 0.524825,1.025049 0.888318,1.388546 0.819055,0.819054 2.241579,1.396297 3.373437,1.396297 h 3.351217 c 1.020169,0 2.534584,-0.545052 3.470589,-1.548743 0.02777,-0.03058 0.04315,-0.07714 0.07028,-0.109037 0.0057,0.0068 0.0082,0.01653 0.01395,0.02326 0.0052,0.0052 0.01032,0.01035 0.0155,0.0155 0.0062,-0.0071 0.01767,-0.0084 0.02377,-0.0155 l -0.01964,0.02119 c 0.06446,0.07467 0.131506,0.147058 0.201021,0.217041 0.891836,0.891827 2.337226,1.396297 3.394625,1.396297 h 3.37292 c 1.131859,0 2.553884,-0.577267 3.372921,-1.396297 0.235396,-0.235396 0.390765,-0.586943 0.578259,-0.900204 0.760229,0.547257 1.454201,1.192232 2.314588,1.566313 1.562346,0.679281 3.268498,1.021643 4.972823,1.021643 1.70432,0 3.40759,-0.342222 4.97024,-1.021643 0.88375,-0.384233 1.59963,-1.043005 2.37711,-1.609721 0.19363,0.331005 0.359,0.696979 0.60565,0.943612 0.81913,0.819136 2.24106,1.396297 3.37292,1.396297 h 3.32797 c 1.13186,0 2.5544,-0.577257 3.37343,-1.396297 0.12966,-0.129662 0.20213,-0.339971 0.31833,-0.496094 0.46743,0.525701 0.97327,0.981558 1.45107,1.242302 0.6376,0.347801 1.50387,0.650089 2.49804,0.650089 h 3.30471 c 1.13186,0 2.55586,-0.577161 3.37499,-1.396297 0.81904,-0.819056 1.39423,-2.234614 1.39423,-3.372921 v -15.27917 c 0,-1.138112 -0.58032,-2.55753 -1.3963,-3.373438 -0.81605,-0.815323 -2.23512,-1.396297 -3.37292,-1.396297 h -3.30471 c -1.1378,0 -2.55697,0.58107 -3.37292,1.396297 -0.12589,0.125876 -0.19578,0.33153 -0.30902,0.482658 -0.49648,-0.553677 -1.05377,-1.006119 -1.59525,-1.26969 -0.62414,-0.320155 -1.40934,-0.609265 -2.34198,-0.609265 h -3.34967 c -1.13831,0 -2.55705,0.580406 -3.37292,1.396297 -0.24915,0.249151 -0.42003,0.618473 -0.61546,0.954981 -0.77508,-0.569672 -1.4843,-1.237179 -2.3673,-1.62109 -1.56266,-0.67942 -3.26644,-1.021126 -4.970757,-1.021126 z m -14.208952,1.687235 0.221176,0.238228 c -0.03246,-0.03787 -0.08938,-0.04919 -0.123507,-0.08578 -0.03859,-0.04252 -0.05789,-0.112672 -0.09767,-0.152446 z m 23.137089,2.025716 0.0584,0.05839 c -0.01,-0.01012 -0.0251,-0.01317 -0.0351,-0.02325 -0.0101,-0.01 -0.0131,-0.02522 -0.0232,-0.03514 z m -17.886763,0.02894 c -0.005,0.005 -0.0069,0.01255 -0.01189,0.01757 -0.005,0.005 -0.01261,0.0069 -0.01757,0.01189 z m -19.203479,0.415995 0.07648,0.0863 c -0.0088,-0.01014 -0.02264,-0.01521 -0.03152,-0.02532 -0.01687,-0.01849 -0.028,-0.04257 -0.04496,-0.06098 z" style="color:#000;-inkscape-font-specification:Heavitas;fill:#c32265;stroke-linecap:round;stroke-linejoin:round;stroke-miterlimit:128;-inkscape-stroke:none;paint-order:stroke fill markers;fill-opacity:1"/><path d="m 99.399477,59.266663 c -1.161659,0 -2.256032,0.223369 -3.283654,0.670161 -1.027622,0.446793 -1.92144,1.057425 -2.680986,1.831865 -0.759547,0.759546 -1.362576,1.653024 -1.809368,2.680645 -0.446792,1.027622 -0.670161,2.122336 -0.670161,3.283995 0,1.161659 0.223369,2.256374 0.670161,3.283995 0.446792,1.027622 1.049821,1.928704 1.809368,2.703143 0.759546,0.759547 1.653364,1.362576 2.680986,1.809368 1.027622,0.446792 2.121995,0.670161 3.283654,0.670161 1.161653,0 2.256373,-0.223369 3.283993,-0.670161 1.02762,-0.446792 1.92144,-1.049821 2.68099,-1.809368 0.77444,-0.774439 1.38507,-1.675521 1.83186,-2.703143 0.44679,-1.027621 0.67016,-2.122336 0.67016,-3.283995 0,-1.161659 -0.22337,-2.256373 -0.67016,-3.283995 -0.44679,-1.027621 -1.05742,-1.921099 -1.83186,-2.680645 -0.75955,-0.77444 -1.65337,-1.385072 -2.68099,-1.831865 -1.02762,-0.446792 -2.12234,-0.670161 -3.283993,-0.670161 z m -37.798325,0.04466 c -1.191446,0 -2.308633,0.223369 -3.351148,0.670161 -1.042514,0.446793 -1.958465,1.050162 -2.747798,1.809708 -0.774439,0.759547 -1.385073,1.653024 -1.831865,2.680646 -0.446791,1.027621 -0.670161,2.122336 -0.670161,3.283995 0,1.161659 0.22337,2.256032 0.670161,3.283654 0.446792,1.027621 1.057426,1.92144 1.831865,2.680986 0.789333,0.759546 1.705284,1.362576 2.747798,1.809367 1.042515,0.446793 2.159702,0.670162 3.351148,0.670162 0.953156,0 1.82416,-0.111686 2.613492,-0.335081 0.789333,-0.223396 1.504388,-0.535976 2.144789,-0.93809 0.655295,-0.402112 1.243456,-0.886193 1.764713,-1.452129 0.521257,-0.58083 0.997734,-1.221201 1.429632,-1.921175 0.07447,-0.134037 0.08933,-0.260591 0.04466,-0.379735 -0.04468,-0.134038 -0.133891,-0.230854 -0.267928,-0.290426 L 66.15832,69.63235 c -0.148931,-0.05957 -0.297957,-0.05957 -0.446888,0 -0.134038,0.05957 -0.238118,0.148783 -0.312583,0.267928 -0.38722,0.625509 -0.915906,1.139326 -1.586094,1.541439 -0.655295,0.38722 -1.392482,0.580852 -2.2116,0.580852 -0.565937,0 -1.102228,-0.119289 -1.608592,-0.357578 -0.491471,-0.238289 -0.923341,-0.55087 -1.295668,-0.93809 -0.372327,-0.387219 -0.662775,-0.833958 -0.871278,-1.340322 -0.208503,-0.521258 -0.312924,-1.064812 -0.312924,-1.630749 0,-0.551043 0.104421,-1.087334 0.312924,-1.608592 0.208503,-0.521257 0.498951,-0.975601 0.871278,-1.36282 0.372327,-0.402113 0.804197,-0.722299 1.295668,-0.960587 0.506364,-0.23829 1.042655,-0.357238 1.608592,-0.357238 0.863797,0 1.600985,0.186027 2.2116,0.558354 0.610616,0.357433 1.131697,0.878856 1.563596,1.563937 0.07447,0.119145 0.18615,0.208356 0.335081,0.267928 0.148931,0.05957 0.297957,0.05957 0.446888,0 l 3.172188,-1.251013 c 0.134037,-0.05957 0.223248,-0.156388 0.267927,-0.290426 0.04468,-0.134037 0.02981,-0.260591 -0.04466,-0.379735 -0.431895,-0.685081 -0.908372,-1.310584 -1.429629,-1.87652 -0.506365,-0.580829 -1.079656,-1.072174 -1.720058,-1.474287 -0.640402,-0.402112 -1.355456,-0.715034 -2.144789,-0.93843 -0.789332,-0.223397 -1.675205,-0.335081 -2.658147,-0.335081 z m -51.135763,0.245771 c -0.14893,0 -0.275484,0.05221 -0.379735,0.156462 -0.104252,0.104252 -0.156121,0.230804 -0.156121,0.379735 v 15.280087 c 0,0.148931 0.05187,0.275825 0.156121,0.380077 0.104251,0.104251 0.230805,0.156121 0.379735,0.156121 h 11.370926 c 0.148931,0 0.275484,-0.05187 0.379736,-0.156121 0.104251,-0.104252 0.156462,-0.231146 0.156462,-0.380077 v -3.08254 c 0,-0.14893 -0.05221,-0.275824 -0.156462,-0.380076 -0.104252,-0.104251 -0.230805,-0.156121 -0.379736,-0.156121 h -6.947384 c -0.148931,0 -0.275825,-0.05221 -0.380076,-0.156462 -0.104252,-0.104251 -0.156121,-0.230804 -0.156121,-0.379735 v -0.849121 c 0,-0.148931 0.05187,-0.275484 0.156121,-0.379735 0.104251,-0.104252 0.231145,-0.156121 0.380076,-0.156121 h 6.05395 c 0.148931,0 0.275483,-0.05221 0.379735,-0.156462 0.104251,-0.104252 0.156462,-0.230805 0.156462,-0.379736 v -3.082878 c 0,-0.148931 -0.05221,-0.275485 -0.156462,-0.379735 -0.104252,-0.104252 -0.230804,-0.156462 -0.379735,-0.156462 h -6.05395 c -0.148931,0 -0.275825,-0.05221 -0.380076,-0.156462 -0.104252,-0.104252 -0.156121,-0.230805 -0.156121,-0.379736 v -0.93843 c 0,-0.148931 0.05187,-0.275484 0.156121,-0.379735 C 14.613106,63.719579 14.74,63.66771 14.888931,63.66771 h 6.947384 c 0.148931,0 0.275484,-0.05221 0.379736,-0.156462 0.104251,-0.104252 0.156462,-0.230805 0.156462,-0.379736 v -3.038223 c 0,-0.148931 -0.05221,-0.275484 -0.156462,-0.379735 -0.104252,-0.104252 -0.230805,-0.156462 -0.379736,-0.156462 z m 15.258271,0 c -0.163824,0 -0.297982,0.05221 -0.402233,0.156462 -0.08936,0.104252 -0.133964,0.230804 -0.133964,0.379735 v 15.280087 c 0,0.148931 0.0446,0.275825 0.133964,0.380077 0.104251,0.104251 0.238409,0.156121 0.402233,0.156121 h 11.147312 c 0.148931,0 0.275484,-0.05187 0.379736,-0.156121 0.104251,-0.104252 0.156462,-0.231146 0.156462,-0.380077 v -3.037882 c 0,-0.148931 -0.05221,-0.275826 -0.156462,-0.380076 -0.104252,-0.104252 -0.230805,-0.156121 -0.379736,-0.156121 h -6.724111 c -0.163823,0 -0.297982,-0.05221 -0.402233,-0.156462 -0.08936,-0.104252 -0.133964,-0.230805 -0.133964,-0.379736 V 60.093286 c 0,-0.148931 -0.05221,-0.275484 -0.156462,-0.379735 -0.104251,-0.104252 -0.230804,-0.156462 -0.379735,-0.156462 z m 13.738648,0 c -0.148931,0 -0.275484,0.05221 -0.379736,0.156462 -0.104251,0.104252 -0.156462,0.230804 -0.156462,0.379735 v 15.280087 c 0,0.148931 0.05221,0.275825 0.156462,0.380077 0.104252,0.104251 0.230805,0.156121 0.379736,0.156121 h 11.370926 c 0.148931,0 0.275484,-0.05187 0.379735,-0.156121 0.104252,-0.104252 0.156462,-0.231146 0.156462,-0.380077 v -3.08254 c 0,-0.14893 -0.05221,-0.275824 -0.156462,-0.380076 -0.104251,-0.104251 -0.230804,-0.156121 -0.379735,-0.156121 h -6.947725 c -0.14893,0 -0.275484,-0.05221 -0.379735,-0.156462 -0.104252,-0.104251 -0.156121,-0.230804 -0.156121,-0.379735 v -0.849121 c 0,-0.148931 0.05187,-0.275484 0.156121,-0.379735 0.104251,-0.104252 0.230805,-0.156121 0.379735,-0.156121 h 6.05429 c 0.148931,0 0.275484,-0.05221 0.379736,-0.156462 0.104251,-0.104252 0.156462,-0.230805 0.156462,-0.379736 v -3.082878 c 0,-0.148931 -0.05221,-0.275485 -0.156462,-0.379735 -0.104252,-0.104252 -0.230805,-0.156462 -0.379736,-0.156462 h -6.05429 c -0.14893,0 -0.275484,-0.05221 -0.379735,-0.156462 -0.104252,-0.104252 -0.156121,-0.230805 -0.156121,-0.379736 v -0.93843 c 0,-0.148931 0.05187,-0.275484 0.156121,-0.379735 0.104251,-0.104252 0.230805,-0.156121 0.379735,-0.156121 h 6.947725 c 0.148931,0 0.275484,-0.05221 0.379735,-0.156462 0.104252,-0.104252 0.156462,-0.230805 0.156462,-0.379736 v -3.038223 c 0,-0.148931 -0.05221,-0.275484 -0.156462,-0.379735 -0.104251,-0.104252 -0.230804,-0.156462 -0.379735,-0.156462 z m 30.560856,0 c -0.148931,0 -0.275826,0.05221 -0.380076,0.156462 -0.104252,0.104252 -0.156122,0.230804 -0.156122,0.379735 v 3.038224 c 0,0.148931 0.05187,0.275484 0.156122,0.379736 0.10425,0.104251 0.231145,0.156462 0.380076,0.156462 h 3.172187 c 0.163824,0 0.290377,0.05187 0.379736,0.15612 0.104251,0.104252 0.156462,0.230805 0.156462,0.379736 v 11.169809 c 0,0.148931 0.05187,0.275825 0.156121,0.380077 0.104251,0.104251 0.230804,0.156121 0.379735,0.156121 h 3.351147 c 0.163824,0 0.290377,-0.05187 0.379736,-0.156121 0.104251,-0.104252 0.156461,-0.231146 0.156461,-0.380077 V 64.203563 c 0,-0.148931 0.05187,-0.275484 0.156122,-0.379735 0.104251,-0.104252 0.231145,-0.156121 0.380076,-0.156121 h 3.127533 c 0.163824,0 0.290377,-0.05221 0.379735,-0.156462 0.104252,-0.104252 0.156121,-0.230805 0.156121,-0.379736 v -3.038223 c 0,-0.148931 -0.05187,-0.275484 -0.156121,-0.379735 -0.08936,-0.104252 -0.215911,-0.156462 -0.379735,-0.156462 z m 40.702586,0 c -0.14893,0 -0.27549,0.05221 -0.37974,0.156462 -0.10425,0.104252 -0.15646,0.230804 -0.15646,0.379735 v 15.280087 c 0,0.148931 0.0522,0.275825 0.15646,0.380077 0.10425,0.104251 0.23081,0.156121 0.37974,0.156121 h 3.32865 c 0.14893,0 0.27548,-0.05187 0.37973,-0.156121 0.10425,-0.104252 0.15647,-0.231146 0.15647,-0.380077 v -7.997283 c 0,-0.148931 0.0446,-0.230879 0.13396,-0.245771 0.10425,-0.02979 0.20107,0.01482 0.29042,0.133964 l 5.83068,8.198738 c 0.0894,0.119145 0.21591,0.223225 0.37974,0.312583 0.16382,0.08936 0.32011,0.133964 0.46904,0.133964 h 3.30649 c 0.14893,0 0.27549,-0.05187 0.37974,-0.156121 0.10425,-0.104252 0.15646,-0.231146 0.15646,-0.380076 v -15.28009 c 0,-0.148931 -0.0522,-0.275484 -0.15646,-0.379735 -0.10425,-0.104252 -0.23081,-0.156462 -0.37974,-0.156462 h -3.30649 c -0.14893,0 -0.27548,0.05221 -0.37973,0.156462 -0.10426,0.104251 -0.15613,0.230804 -0.15613,0.379735 v 7.997622 c 0,0.14893 -0.0522,0.230878 -0.15646,0.245771 -0.0894,0.01489 -0.17891,-0.03731 -0.26827,-0.156462 l -5.80817,-8.198739 c -0.0894,-0.119143 -0.21592,-0.21596 -0.37974,-0.290425 -0.16382,-0.08936 -0.32011,-0.133964 -0.46904,-0.133964 z m -25.936199,0.02216 c -0.163823,0 -0.297981,0.05221 -0.402233,0.156462 -0.08936,0.104252 -0.133964,0.230805 -0.133964,0.379735 v 15.25793 c 0,0.148931 0.0446,0.275825 0.133964,0.380077 0.104252,0.104251 0.23841,0.156121 0.402233,0.156121 h 3.373305 c 0.148931,0 0.275483,-0.05187 0.379735,-0.156121 0.104252,-0.104252 0.156462,-0.231146 0.156462,-0.380077 V 60.115443 c 0,-0.148931 -0.05221,-0.275484 -0.156462,-0.379736 -0.104252,-0.10425 -0.230804,-0.156461 -0.379735,-0.156461 z m 14.609926,3.954157 c 0.551043,0 1.072463,0.119289 1.563933,0.357578 0.49147,0.223396 0.92334,0.528713 1.29567,0.915932 0.37233,0.372328 0.66278,0.819066 0.87128,1.340323 0.2085,0.506365 0.31258,1.035051 0.31258,1.586094 0,0.565936 -0.10408,1.102227 -0.31258,1.608592 -0.2085,0.506364 -0.49895,0.953102 -0.87128,1.340322 -0.37233,0.38722 -0.8042,0.699801 -1.29567,0.93809 -0.49147,0.223396 -1.01289,0.335081 -1.563933,0.335081 -0.551043,0 -1.072126,-0.111685 -1.563596,-0.335081 -0.491471,-0.238295 -0.923342,-0.550876 -1.295668,-0.938096 -0.357434,-0.38722 -0.640619,-0.833958 -0.849121,-1.340322 -0.208503,-0.506365 -0.312583,-1.042656 -0.312583,-1.608592 0,-0.551043 0.10408,-1.079729 0.312583,-1.586094 0.208502,-0.521257 0.491687,-0.967995 0.849121,-1.340323 0.372326,-0.387219 0.804197,-0.692536 1.295668,-0.915932 0.49147,-0.238289 1.012553,-0.357578 1.563596,-0.357578 z" style="color:#000;-inkscape-font-specification:Heavitas;fill:#fff;stroke-linecap:round;stroke-linejoin:round;stroke-miterlimit:128;-inkscape-stroke:none;paint-order:stroke fill markers"/></svg>