<svg xmlns="http://www.w3.org/2000/svg" xml:space="preserve" width="512" height="512" viewBox="0 0 135.46666 135.46667"><path d="M 0 0 L 0 11.972396 L 0 67.733332 L 27.880468 39.852864 L 123.49427 135.46666 L 135.46666 135.46666 L 135.46666 123.49427 L 39.852864 27.880468 L 67.733332 0 L 11.972396 0 L 0 0 z" style="fill:#a822c3;fill-opacity:1;stroke:none;stroke-width:33.8667;stroke-miterlimit:128;stroke-dasharray:none;stroke-opacity:1;paint-order:stroke fill markers"/><path d="M 69.386462 46.566149 C 66.520478 46.566149 63.720914 47.131828 61.130635 48.258036 C 58.609012 49.354396 56.346131 50.896132 54.445255 52.831917 C 52.931379 54.349869 51.73613 56.142361 50.732303 58.060538 C 50.628979 57.399816 50.460616 56.72698 50.101334 56.152127 A 4.2337564 4.2337564 0 0 0 50.066194 56.099417 C 48.186521 53.187765 45.642895 50.813413 42.611352 49.148421 C 39.490246 47.417782 35.8836 46.611107 32.035254 46.611108 C 29.123263 46.611108 26.28791 47.16961 23.666255 48.293176 C 21.122788 49.383233 18.826093 50.909862 16.872872 52.826232 C 14.942781 54.719203 13.393566 56.967938 12.267468 59.474405 A 4.2337564 4.2337564 0 0 0 12.246281 59.521431 C 11.120387 62.110989 10.554911 64.910446 10.554911 67.777257 C 10.554911 70.644068 11.120387 73.443527 12.246281 76.033084 A 4.2337564 4.2337564 0 0 0 12.267468 76.08011 C 13.393566 78.586579 14.942784 80.835311 16.872872 82.728283 A 4.2337564 4.2337564 0 0 0 16.902327 82.757738 C 18.852894 84.634698 21.138057 86.133385 23.666255 87.216898 C 26.287914 88.340467 29.123265 88.900516 32.035254 88.900516 C 34.673685 88.900516 37.246732 88.459422 39.665795 87.56623 A 4.2337564 4.2337564 0 0 0 39.720572 87.545043 C 42.067296 86.642457 44.213195 85.381261 46.078324 83.781448 C 47.988033 82.168581 49.573341 80.219086 50.767443 78.017459 C 50.820083 77.920419 50.843684 77.810965 50.894567 77.713085 C 51.871112 79.516368 53.007579 81.216099 54.435436 82.671955 A 4.2337564 4.2337564 0 0 0 54.462825 82.701411 C 56.363472 84.602058 58.620506 86.117787 61.130635 87.209146 C 63.720917 88.335358 66.52048 88.900516 69.386462 88.900516 C 72.252444 88.900516 75.052838 88.335221 77.642805 87.209146 C 80.152932 86.117787 82.409967 84.60206 84.310615 82.701411 C 85.227617 81.784409 86.042231 80.777162 86.777131 79.712963 L 86.777131 83.013537 C 86.777131 84.300768 87.409962 85.845716 88.330008 86.765762 C 89.250039 87.685784 90.796533 88.318122 92.083784 88.318122 L 104.28149 88.318122 C 107.01346 88.318122 109.62077 87.91453 112.03709 87.048949 L 112.04122 87.046882 C 114.47273 86.185903 116.69632 84.875565 118.59586 83.165982 A 4.2337564 4.2337564 0 0 0 118.64082 83.126708 C 120.69402 81.225593 122.293 78.89879 123.34958 76.295084 A 4.2337564 4.2337564 0 0 0 123.35784 76.275447 C 124.4138 73.635545 124.91227 70.753327 124.91227 67.732299 C 124.91227 64.71127 124.41451 61.839584 123.35009 59.21654 C 122.29351 56.612832 120.69402 54.286031 118.64082 52.384916 A 4.2337564 4.2337564 0 0 0 118.631 52.375097 C 114.83986 48.887261 109.78466 47.148543 104.28149 47.148543 L 92.083784 47.148543 C 90.803052 47.148543 89.253335 47.776007 88.330008 48.699352 C 87.409959 49.619401 86.777131 51.165883 86.777131 52.453128 L 86.777131 55.765588 C 86.044362 54.711829 85.227905 53.720359 84.312682 52.818481 C 82.414813 50.889668 80.157972 49.351072 77.642805 48.257519 C 75.05284 47.131449 72.252446 46.566149 69.386462 46.566149 z M 50.75194 60.074369 L 50.683727 60.357555 C 50.695147 60.315695 50.683164 60.252109 50.693546 60.208727 C 50.703956 60.164637 50.74324 60.117904 50.75194 60.074369 z M 50.972599 62.023604 L 51.425801 62.415828 C 51.352901 62.342928 51.230674 62.307178 51.150366 62.238061 C 51.081056 62.178431 51.044793 62.07775 50.972599 62.023604 z M 69.386462 63.566145 L 69.386978 63.566145 C 69.877831 63.56621 70.243164 63.651603 70.668037 63.8576 A 4.2337564 4.2337564 0 0 0 70.761571 63.902559 C 71.272218 64.13467 71.672871 64.417736 72.054516 64.814648 A 4.2337564 4.2337564 0 0 0 72.11136 64.873042 C 72.43717 65.198853 72.694739 65.574692 72.918029 66.132913 A 4.2337564 4.2337564 0 0 0 72.933532 66.173738 C 73.145006 66.687319 73.24049 67.165009 73.24049 67.732299 C 73.24049 68.343447 73.13958 68.837481 72.933532 69.337886 C 72.709504 69.881951 72.433167 70.303696 72.054516 70.697493 C 71.667604 71.099881 71.238988 71.40206 70.712996 71.663842 C 70.290232 71.849548 69.898279 71.943411 69.386978 71.943411 C 68.875679 71.943411 68.482694 71.849289 68.060444 71.663842 C 67.549614 71.409606 67.135362 71.11005 66.757681 70.724364 C 66.402275 70.332917 66.116859 69.901296 65.884867 69.337886 C 65.678816 68.837476 65.577909 68.343442 65.577909 67.732299 C 65.577909 67.165014 65.673386 66.687324 65.884867 66.173738 A 4.2337564 4.2337564 0 0 0 65.900369 66.132913 C 66.13684 65.541737 66.404511 65.14171 66.720474 64.812581 C 67.101527 64.41674 67.5021 64.134272 68.011868 63.902559 A 4.2337564 4.2337564 0 0 0 68.105403 63.8576 C 68.529585 63.651936 68.895609 63.56621 69.386462 63.566145 z M 104.09184 63.923746 L 104.28149 63.923746 C 104.76215 63.923746 105.27186 63.98343 105.83385 64.119083 A 4.2337564 4.2337564 0 0 0 105.86537 64.126834 C 106.13436 64.189594 106.29655 64.265322 106.53096 64.460664 A 4.2337564 4.2337564 0 0 0 106.67979 64.580037 C 106.72259 64.612557 106.8913 64.748149 107.11904 65.294722 A 4.2337564 4.2337564 0 0 0 107.17744 65.42753 C 107.29311 65.680554 107.50972 66.476032 107.50972 67.777257 C 107.50972 69.078481 107.29835 69.897702 107.15832 70.212768 A 4.2337564 4.2337564 0 0 0 107.13661 70.265478 C 106.90712 70.800953 106.71684 70.999739 106.59969 71.101602 C 106.38403 71.263384 106.1971 71.362835 105.91033 71.429748 C 105.30202 71.571686 104.76394 71.630769 104.28097 71.630769 L 104.09184 71.630769 L 104.09184 63.923746 z" style="color:#000;-inkscape-font-specification:Heavitas;fill:#a822c3;stroke-linecap:round;stroke-linejoin:round;stroke-miterlimit:128;-inkscape-stroke:none;paint-order:stroke fill markers"/><path d="m 69.386919,50.799999 c -2.323319,0 -4.512745,0.446738 -6.567989,1.340322 -2.055245,0.893586 -3.842879,2.11485 -5.361973,3.663731 -1.519093,1.519093 -2.725149,3.306046 -3.618735,5.36129 -0.893584,2.055245 -1.340322,4.24467 -1.340322,6.567991 0,2.323319 0.446738,4.512745 1.340322,6.567989 0.893586,2.055246 2.099642,3.856724 3.618735,5.405605 1.519094,1.519094 3.306728,2.725832 5.361973,3.619416 2.055244,0.893586 4.24467,1.340323 6.567989,1.340323 2.323321,0 4.512064,-0.446737 6.567309,-1.340323 2.055244,-0.893584 3.842879,-2.100322 5.361972,-3.619416 1.548881,-1.548881 2.770145,-3.350359 3.663731,-5.405605 0.893584,-2.055244 1.340322,-4.24467 1.340322,-6.567989 0,-2.323321 -0.446738,-4.512746 -1.340322,-6.567991 -0.893586,-2.055244 -2.11485,-3.842197 -3.663731,-5.36129 -1.519093,-1.548881 -3.306728,-2.770145 -5.361972,-3.663731 -2.055245,-0.893584 -4.243988,-1.340322 -6.567309,-1.340322 z m -37.352459,0.04431 c -2.382893,0 -4.616583,0.446739 -6.701614,1.340323 -2.085031,0.893585 -3.916929,2.114851 -5.495595,3.663732 -1.548881,1.519093 -2.784673,3.306045 -3.708046,5.361289 -0.893584,2.055246 -1.341003,4.24467 -1.341003,6.567991 0,2.32332 0.447419,4.512744 1.341003,6.56799 0.923373,2.055245 2.159165,3.842196 3.708046,5.361291 1.578666,1.519093 3.410564,2.725831 5.495595,3.619415 2.085031,0.893586 4.318721,1.340323 6.701614,1.340323 2.174389,0 4.229656,-0.357527 6.165756,-1.072394 1.9361,-0.744654 3.64905,-1.757079 5.138358,-3.037883 1.519094,-1.280805 2.754887,-2.800123 3.708044,-4.557507 0.953157,-1.757382 1.534052,-3.663964 1.742556,-5.719208 0.08935,-0.774442 0.134304,-1.51855 0.134304,-2.233417 0,-0.744655 -0.02974,-1.370496 -0.08931,-1.876861 -0.02979,-0.327645 -0.163942,-0.580751 -0.402232,-0.759468 -0.208503,-0.208503 -0.461609,-0.312924 -0.75947,-0.312924 H 32.303069 c -0.297861,0 -0.551649,0.10442 -0.760152,0.312924 -0.208503,0.208503 -0.312242,0.461609 -0.312242,0.759471 v 5.316976 c 0,0.297862 0.103739,0.550967 0.312242,0.759471 0.208503,0.208503 0.462291,0.312924 0.760152,0.312924 h 5.137677 c 0.297861,0 0.506702,0.103734 0.625847,0.312242 0.119145,0.178716 0.103935,0.387558 -0.045,0.625847 -0.655296,0.953157 -1.533562,1.638474 -2.63565,2.05548 -1.102088,0.417006 -2.219614,0.625166 -3.351488,0.625166 -1.131874,0 -2.203772,-0.22337 -3.216502,-0.670162 C 27.83501,75.030762 26.971271,74.420129 26.226617,73.675475 25.481963,72.901034 24.885858,72.007559 24.439066,70.994829 24.02206,69.9821 23.8139,68.90952 23.8139,67.777647 c 0,-1.102088 0.20816,-2.159459 0.625166,-3.172189 0.446792,-1.042515 1.042897,-1.950519 1.787551,-2.724959 0.744654,-0.77444 1.608393,-1.385073 2.591336,-1.831866 1.01273,-0.476577 2.084628,-0.715155 3.216502,-0.715155 1.578666,0 2.934089,0.342317 4.065963,1.027399 1.161661,0.68508 2.204504,1.593766 3.127874,2.72564 0.208504,0.238289 0.46161,0.386974 0.759471,0.446547 0.297861,0.02979 0.565495,-0.02968 0.803784,-0.178618 l 5.361972,-3.440117 c 0.238289,-0.148931 0.386975,-0.3723 0.446547,-0.670161 0.08936,-0.327648 0.05962,-0.610491 -0.08931,-0.84878 -1.519093,-2.353106 -3.499677,-4.200215 -5.942142,-5.540592 -2.412678,-1.340377 -5.257682,-2.010484 -8.534159,-2.010483 z m 60.049317,0.536543 c -0.297862,0 -0.550967,0.103734 -0.759471,0.312242 -0.208503,0.208503 -0.312924,0.46161 -0.312924,0.75947 V 83.01342 c 0,0.297862 0.10442,0.550968 0.312924,0.759472 0.208504,0.208502 0.461609,0.312924 0.759471,0.312924 h 12.197213 c 2.32332,0 4.43806,-0.342318 6.34437,-1.027399 1.9361,-0.685082 3.64905,-1.698188 5.13836,-3.038566 1.60845,-1.489306 2.82972,-3.261731 3.66373,-5.316976 0.83401,-2.085031 1.25101,-4.407931 1.25101,-6.969541 0,-2.56161 -0.417,-4.869982 -1.25101,-6.925228 -0.83401,-2.055245 -2.05528,-3.827668 -3.66373,-5.316977 -2.97862,-2.740326 -6.80631,-4.110277 -11.48273,-4.110277 z m -22.696858,7.952627 c 1.102089,0 2.144249,0.238578 3.127193,0.715156 0.982944,0.446793 1.846682,1.057425 2.591335,1.831865 0.744655,0.744655 1.32555,1.63813 1.742557,2.680645 0.417006,1.01273 0.625846,2.070101 0.625846,3.172189 0,1.131873 -0.20884,2.203771 -0.625846,3.216502 -0.417007,1.012728 -0.997902,1.906887 -1.742557,2.681326 -0.744653,0.77444 -1.608391,1.399601 -2.591335,1.876179 -0.982944,0.446793 -2.025104,0.670162 -3.127193,0.670162 -1.102088,0 -2.14493,-0.223369 -3.127874,-0.670162 -0.982942,-0.476578 -1.846681,-1.101739 -2.591336,-1.876179 -0.714867,-0.774439 -1.280553,-1.668598 -1.69756,-2.681326 -0.417006,-1.012731 -0.625848,-2.084629 -0.625848,-3.216502 0,-1.102088 0.208842,-2.159459 0.625848,-3.172189 0.417007,-1.042515 0.982693,-1.93599 1.69756,-2.680645 0.744655,-0.77444 1.608394,-1.385072 2.591336,-1.831865 0.982944,-0.476578 2.025786,-0.715156 3.127874,-0.715156 z m 31.543261,0.357237 h 3.35081 c 0.83401,0 1.68322,0.10442 2.54702,0.312924 0.89358,0.208502 1.69785,0.610295 2.41272,1.206017 0.74465,0.565938 1.34007,1.385412 1.78687,2.457713 0.47657,1.042516 0.71515,2.412466 0.71515,4.110278 0,1.697811 -0.23858,3.082971 -0.71515,4.155272 -0.4468,1.042516 -1.02769,1.86199 -1.74256,2.457713 -0.71487,0.565937 -1.51913,0.9532 -2.41272,1.161704 -0.89358,0.208503 -1.75732,0.312242 -2.59133,0.312242 h -3.35081 c -0.29786,0 -0.55097,-0.103734 -0.75947,-0.312242 -0.208504,-0.208504 -0.312926,-0.462291 -0.312926,-0.760152 V 60.763109 c 0,-0.297861 0.10442,-0.550968 0.312926,-0.759471 0.2085,-0.208502 0.46161,-0.312923 0.75947,-0.312922 z" style="color:#000;-inkscape-font-specification:Heavitas;fill:#fff;stroke-linecap:round;stroke-linejoin:round;stroke-miterlimit:128;-inkscape-stroke:none;paint-order:stroke fill markers"/></svg>