<svg xmlns="http://www.w3.org/2000/svg" xml:space="preserve" width="512" height="512" viewBox="0 0 135.46666 135.46667"><path d="M 135.46666,67.733331 127.00103,59.267698 87.571911,19.838581 V 59.267698 H 1e-6 v 16.931267 h 87.57191 V 115.62808 L 127.00103,76.198965 Z" style="display:inline;fill:gray;fill-opacity:1;stroke:none;stroke-width:33.8667;stroke-miterlimit:128;stroke-dasharray:none;stroke-opacity:1;paint-order:stroke fill markers"/><path d="m 78.974507,40.216666 c -1.953221,0 -3.890812,0.378533 -5.673556,1.142566 -1.166342,0.499861 -2.227197,1.188849 -3.226676,1.959054 -0.239653,-0.50444 -0.514965,-0.999172 -0.869198,-1.353406 -0.837321,-0.837322 -2.28155,-1.42782 -3.447334,-1.42782 H 52.165807 c -1.165787,0 -2.609498,0.590501 -3.446818,1.42782 -0.837321,0.837321 -1.426269,2.28155 -1.426269,3.447335 v 9.757543 h -2.667537 v -9.757543 c 0,-1.165785 -0.590499,-2.610014 -1.42782,-3.447335 -0.837322,-0.837322 -2.28155,-1.42782 -3.447335,-1.42782 h -4.00389 c -1.093788,0 -2.56613,0.519227 -3.474723,1.42782 -0.07657,0.07656 -0.150179,0.156026 -0.220659,0.238228 -0.755038,0.880883 -1.179772,2.184438 -1.179772,3.209107 v 9.757543 h -2.668055 v -9.757543 c 0,-1.165785 -0.588431,-2.610014 -1.425752,-3.447335 -0.837324,-0.837327 -2.28155,-1.42782 -3.447335,-1.42782 h -4.00544 c -0.750517,0 -1.625405,0.31917 -2.427759,0.765845 -0.761783,-0.421866 -1.602929,-0.738456 -2.379183,-0.738456 h -4.031278 c -1.0937881,0 -2.565614,0.51716 -3.474207,1.425752 -0.076747,0.07655 -0.1505269,0.156017 -0.2211751,0.238229 -0.7550395,0.880882 -1.1792562,2.184435 -1.1792562,3.209106 v 18.236096 c 0,1.024671 0.4242107,2.328222 1.1792562,3.209106 0.070607,0.08291 0.144387,0.163072 0.2211751,0.240296 0.908593,0.908593 2.3804189,1.425753 3.474207,1.425753 h 4.031278 c 0.783558,0 1.631995,-0.323017 2.398303,-0.751892 0.266478,0.146788 0.540703,0.271358 0.815454,0.382922 -0.221377,0.150844 -0.435865,0.308224 -0.611849,0.484208 -0.837322,0.837322 -1.42782,2.283617 -1.42782,3.449402 v 3.630786 c 0,1.165785 0.590498,2.610014 1.42782,3.447335 0.837322,0.837327 2.281033,1.425752 3.446818,1.425752 h 0.199471 v 9.757544 c 0,1.165785 0.588432,2.610013 1.425753,3.447335 0.837325,0.837324 2.281555,1.42782 3.447335,1.42782 h 4.005957 c 1.055922,0 2.593643,-0.558164 3.545003,-1.580265 0.255656,-0.280853 0.453676,-0.640599 0.646472,-1.005624 0.221975,0.420268 0.440974,0.854901 0.744141,1.158069 0.837323,0.837318 2.283105,1.42782 3.448885,1.42782 h 3.978568 c 1.16578,0 2.610035,-0.59052 3.447335,-1.42782 0.04605,-0.04605 0.06867,-0.126122 0.113171,-0.1757 0.374459,0.342075 0.740722,0.749793 1.113111,0.952914 0.129547,0.07082 0.262709,0.134812 0.398942,0.191719 0.59898,0.249573 1.332843,0.458887 2.216402,0.458887 h 4.965072 c 0.138719,0 0.346796,-0.140173 0.503845,-0.156063 0.27485,0.04831 0.518472,0.156063 0.804602,0.156063 h 4.594035 c 1.02467,0 2.092807,-0.363056 2.855122,-0.871265 0.02621,-0.01779 0.05222,-0.03588 0.07803,-0.05426 0.560711,-0.392499 1.108091,-1.07883 1.545125,-1.851567 h 1.613338 c 0.0019,0.0038 0.0038,0.0076 0.0057,0.01137 0.386394,0.69551 0.922572,1.281919 1.476912,1.713074 0.133946,0.104626 0.27407,0.201091 0.419613,0.288871 C 68.923301,94.945355 69.93096,95.25 70.89646,95.25 h 4.566646 c 0.356484,0 0.89702,-0.228344 1.390613,-0.38499 0.593856,0.237069 1.223222,0.38499 1.786971,0.38499 h 7.288961 c 1.800502,0 3.561989,-0.269706 5.213118,-0.861446 1.200463,-0.42565 2.300908,-1.068371 3.332096,-1.810226 0.230563,0.457083 0.472803,0.918252 0.798401,1.243852 0.837324,0.837318 2.281555,1.42782 3.447335,1.42782 h 13.589869 c 1.16577,0 2.61,-0.590458 3.44733,-1.42782 0.83733,-0.837318 1.42782,-2.28154 1.42782,-3.447335 v -3.683496 c 0,-1.025432 -0.5001,-2.208578 -1.17977,-3.062345 0.022,-0.171077 0.1111,-0.353088 0.1111,-0.515731 V 79.42771 c 0,-0.18811 -0.0994,-0.396939 -0.12867,-0.595829 0.69021,-0.854387 1.19734,-2.052659 1.19734,-3.087667 v -3.630786 c 0,-1.165795 -0.59049,-2.612084 -1.42782,-3.449402 -0.0419,-0.04189 -0.10092,-0.07464 -0.14573,-0.115238 h 9.36842 c 1.16579,0 2.61001,-0.590456 3.44734,-1.42782 0.83676,-0.837481 1.42782,-2.282043 1.42782,-3.447335 v -3.630786 c 0,-1.165796 -0.59049,-2.610017 -1.42782,-3.447335 -0.83733,-0.837362 -2.28156,-1.425753 -3.44734,-1.425753 h -4.4452 v -9.757543 c 0,-1.165795 -0.58844,-2.612085 -1.42576,-3.449402 -0.83732,-0.837308 -2.28154,-1.425753 -3.44733,-1.425753 h -4.00596 c -1.09379,0 -2.56406,0.517178 -3.47265,1.425753 -0.0773,0.07719 -0.15161,0.157353 -0.22273,0.240295 -0.75506,0.880878 -1.17771,2.184417 -1.17771,3.209107 v 0.339514 l -0.87488,-2.037085 c -0.007,-0.01624 -0.0144,-0.03243 -0.0217,-0.04858 -0.41688,-0.938 -1.14319,-1.657042 -1.84382,-2.132686 -0.75946,-0.533451 -1.82362,-0.968933 -2.90628,-0.968933 h -3.738269 c -1.076555,0 -2.167652,0.405307 -2.941422,0.935343 -0.718948,0.490199 -1.434806,1.264608 -1.835547,2.166276 -0.0073,0.01683 -0.01458,0.03371 -0.0217,0.05064 l -1.341521,3.133142 c -0.02317,-0.04026 -0.0188,-0.09188 -0.04341,-0.131258 -0.01089,-0.01765 -0.02192,-0.03522 -0.03307,-0.05271 -1.267138,-1.962823 -3.013269,-3.591141 -5.058606,-4.716508 -2.151354,-1.19339 -4.615806,-1.732711 -7.1484,-1.732711 z M 70.13887,65.665758 c 1.006634,0.770235 1.988598,1.583257 3.162081,2.086178 0.696577,0.298533 1.421371,0.521196 2.156975,0.702799 -0.0854,0.07169 -0.18853,0.133236 -0.264584,0.20929 -0.837318,0.837324 -1.42782,2.283623 -1.42782,3.449402 v 2.019515 l -1.595768,-3.717086 c -0.007,-0.01624 -0.01402,-0.03243 -0.02119,-0.04858 -0.41754,-0.939469 -1.14629,-1.65925 -1.847949,-2.134753 -0.435803,-0.305292 -0.975853,-0.567166 -1.557011,-0.744658 0.159551,-0.118786 0.328849,-0.232213 0.46147,-0.364835 0.380758,-0.380758 0.687655,-0.908777 0.933793,-1.457276 z m 28.242204,0.105937 h 1.612821 c 0.0021,0.0038 0.0041,0.0076 0.0062,0.01137 0.32062,0.577112 0.75082,1.054734 1.20198,1.455208 h -2.481527 c -0.771766,0 -1.653317,0.273641 -2.412256,0.690914 0.154404,-0.08055 0.310793,-0.160514 0.447518,-0.251664 0.0269,-0.01778 0.05361,-0.03587 0.0801,-0.05426 0.56096,-0.392671 1.108043,-1.078329 1.545125,-1.851567 z m -2.313037,2.282031 c -0.295919,0.182647 -0.569488,0.385005 -0.794784,0.610299 -0.329732,0.329734 -0.576213,0.79804 -0.808219,1.261938 -0.75149,-0.541901 -1.560965,-0.995462 -2.405538,-1.377176 h 1.840714 c 0.745198,0 1.510906,-0.194886 2.167827,-0.495061 z m -44.422094,0.427881 c 0.175692,0.03051 0.352963,0.06718 0.519864,0.06718 h 8.110616 c -0.557873,0.476439 -1.07399,1.103771 -1.391646,1.818493 -0.0079,0.01683 -0.01561,0.03371 -0.02325,0.05064 l -1.933732,4.513936 c -0.08879,-0.278868 -0.0525,-0.584282 -0.164331,-0.855761 -0.531748,-1.330799 -1.329489,-2.570351 -2.345594,-3.593579 -0.80346,-0.822191 -1.752087,-1.4913 -2.771923,-2.000912 z m 2.086695,26.412858 c 0.03043,0.01217 0.07228,0.008 0.103353,0.01964 0.04068,0.01491 0.08919,0.05144 0.128674,0.0646 z" style="color:#000;font-size:26.7011px;font-family:Heavitas;-inkscape-font-specification:Heavitas;text-align:center;letter-spacing:0;word-spacing:0;text-orientation:upright;text-anchor:middle;fill:gray;stroke:none;stroke-width:8.46667;stroke-linecap:butt;stroke-linejoin:miter;stroke-miterlimit:128;-inkscape-stroke:none;paint-order:stroke fill markers"/><path d="m 78.974507,44.449999 c -1.424058,0 -2.75939,0.266964 -4.005441,0.800985 -1.24605,0.534022 -2.340599,1.263893 -3.284037,2.189531 -0.925638,0.907836 -1.664063,1.975689 -2.215885,3.203938 -0.534022,1.22825 -0.801502,2.536886 -0.801502,3.925342 0,1.388455 0.26748,2.696576 0.801502,3.924825 0.551822,1.228249 1.290247,2.296619 2.215885,3.204456 0.943438,0.907836 2.037987,1.628637 3.284037,2.162658 1.246051,0.534022 2.581383,0.800985 4.005441,0.800985 1.299452,0 2.527483,-0.213571 3.684529,-0.640788 1.157047,-0.445018 2.180578,-1.050479 3.070614,-1.81591 0.907836,-0.76543 1.646779,-1.673105 2.216402,-2.723348 0.569623,-1.050242 0.916675,-2.189629 1.04128,-3.417879 0.0534,-0.462818 0.0801,-0.907584 0.0801,-1.334802 0,-0.445018 -0.01763,-0.818766 -0.05323,-1.121379 -0.0178,-0.195807 -0.09789,-0.347431 -0.240296,-0.454235 -0.124605,-0.124605 -0.276228,-0.186552 -0.454235,-0.186552 h -9.184969 c -0.178008,0 -0.329115,0.06195 -0.453719,0.186552 -0.124606,0.124605 -0.187069,0.276228 -0.187069,0.454235 v 3.177067 c 0,0.178008 0.06246,0.329631 0.187069,0.454236 0.124604,0.124605 0.275711,0.186552 0.453719,0.186552 h 3.070613 c 0.178007,0 0.302418,0.06246 0.373621,0.187069 0.0712,0.106804 0.06265,0.231732 -0.02635,0.374137 -0.391616,0.569624 -0.916988,0.978623 -1.575615,1.227832 -0.658626,0.24921 -1.326035,0.374138 -2.002461,0.374138 -0.676428,0 -1.31714,-0.133482 -1.922364,-0.400493 -0.587424,-0.284811 -1.103725,-0.650006 -1.548742,-1.095023 -0.445018,-0.462819 -0.801142,-0.996746 -1.068152,-1.60197 -0.24921,-0.605224 -0.373621,-1.245936 -0.373621,-1.922363 0,-0.658627 0.124411,-1.290784 0.373621,-1.896008 0.26701,-0.623026 0.623134,-1.166023 1.068152,-1.628841 0.445017,-0.462819 0.961318,-0.827496 1.548742,-1.094507 0.605224,-0.284811 1.245936,-0.427364 1.922364,-0.427364 0.943437,0 1.753398,0.205016 2.429825,0.614433 0.694228,0.409416 1.317315,0.951897 1.869137,1.628324 0.124605,0.142407 0.275712,0.231567 0.453719,0.267167 0.178007,0.0178 0.338185,-0.01797 0.480591,-0.10697 l 3.204455,-2.055689 c 0.142408,-0.089 0.231051,-0.222485 0.266651,-0.400492 0.0534,-0.195808 0.03578,-0.365057 -0.05323,-0.507463 -0.907836,-1.406256 -2.091546,-2.509876 -3.551204,-3.310909 -1.441858,-0.801031 -3.141869,-1.201477 -5.099947,-1.201477 z m -59.650105,0.320394 c -0.195808,0 -0.355986,0.06246 -0.480591,0.187069 -0.106804,0.124605 -0.160197,0.275712 -0.160197,0.453719 v 18.263485 c 0,0.178007 0.05339,0.329631 0.160197,0.454235 0.124605,0.124606 0.284783,0.186552 0.480591,0.186552 h 13.323734 c 0.178007,0 0.329114,-0.06195 0.453719,-0.186552 0.124605,-0.124604 0.187069,-0.276228 0.187069,-0.454235 v -3.631303 c 0,-0.178007 -0.06246,-0.329114 -0.187069,-0.453719 -0.124605,-0.124605 -0.275712,-0.187069 -0.453719,-0.187069 h -8.037235 c -0.195809,0 -0.355987,-0.06246 -0.480591,-0.187069 -0.106805,-0.124605 -0.160197,-0.275712 -0.160197,-0.453719 V 45.411181 c 0,-0.178007 -0.06246,-0.329114 -0.187069,-0.453719 -0.124604,-0.124605 -0.275712,-0.187069 -0.453719,-0.187069 z m 16.421219,0 c -0.195807,0 -0.356502,0.06246 -0.481107,0.187069 -0.106804,0.124605 -0.160197,0.275712 -0.160197,0.453719 v 18.263485 c 0,0.178007 0.05339,0.329631 0.160197,0.454235 0.124605,0.124606 0.2853,0.186552 0.481107,0.186552 h 13.323735 c 0.178007,0 0.329114,-0.06195 0.453719,-0.186552 0.124604,-0.124604 0.187068,-0.276228 0.187068,-0.454235 v -3.631303 c 0,-0.178007 -0.06246,-0.329114 -0.187068,-0.453719 -0.124605,-0.124605 -0.275712,-0.187069 -0.453719,-0.187069 H 41.03212 c -0.195808,0 -0.355985,-0.06246 -0.480591,-0.187069 -0.106803,-0.124605 -0.160196,-0.275712 -0.160196,-0.453719 V 45.411181 c 0,-0.178007 -0.06246,-0.329114 -0.187069,-0.453719 -0.124605,-0.124605 -0.275712,-0.187069 -0.453719,-0.187069 z m 16.420703,0 c -0.178006,0 -0.329114,0.06246 -0.453719,0.187069 -0.124605,0.124605 -0.187069,0.275712 -0.187069,0.453719 v 18.263485 c 0,0.178007 0.06246,0.329631 0.187069,0.454235 0.124605,0.124606 0.275713,0.186552 0.453719,0.186552 h 13.590902 c 0.178007,0 0.32963,-0.06195 0.454236,-0.186552 0.124604,-0.124604 0.186552,-0.276228 0.186552,-0.454235 v -3.68453 c 0,-0.178007 -0.06195,-0.329631 -0.186552,-0.454236 -0.124606,-0.124605 -0.276229,-0.186552 -0.454236,-0.186552 H 57.45334 c -0.178007,0 -0.329114,-0.06246 -0.453719,-0.187068 -0.124605,-0.124606 -0.187069,-0.275712 -0.187069,-0.45372 v -1.014925 c 0,-0.178007 0.06246,-0.329114 0.187069,-0.453719 0.124605,-0.124605 0.275712,-0.187068 0.453719,-0.187068 h 7.236251 c 0.178007,0 0.329114,-0.06246 0.453719,-0.187069 0.124605,-0.124605 0.187068,-0.275712 0.187068,-0.453719 v -3.68453 c 0,-0.178007 -0.06246,-0.32963 -0.187068,-0.454236 -0.124605,-0.124605 -0.275712,-0.186551 -0.453719,-0.186551 H 57.45334 c -0.178007,0 -0.329114,-0.06246 -0.453719,-0.187069 -0.124605,-0.124605 -0.187069,-0.276229 -0.187069,-0.454236 v -1.121379 c 0,-0.178007 0.06246,-0.329113 0.187069,-0.453719 0.124605,-0.124605 0.275712,-0.187068 0.453719,-0.187068 h 8.303886 c 0.178007,0 0.32963,-0.06195 0.454236,-0.186552 0.124604,-0.124605 0.186552,-0.276229 0.186552,-0.454236 v -3.631303 c 0,-0.178007 -0.06195,-0.329114 -0.186552,-0.453719 -0.124606,-0.124605 -0.276229,-0.187069 -0.454236,-0.187069 z m 59.490426,0 c -0.19581,0 -0.35599,0.06246 -0.48059,0.187069 -0.10681,0.124605 -0.1602,0.275712 -0.1602,0.453719 v 18.263485 c 0,0.178007 0.0534,0.329631 0.1602,0.454235 0.1246,0.124606 0.28478,0.186552 0.48059,0.186552 h 13.32373 c 0.17801,0 0.32912,-0.06195 0.45372,-0.186552 0.12461,-0.124604 0.18707,-0.276228 0.18707,-0.454235 v -3.631303 c 0,-0.178007 -0.0625,-0.329114 -0.18707,-0.453719 -0.1246,-0.124605 -0.27571,-0.187069 -0.45372,-0.187069 h -8.03723 c -0.19582,0 -0.35599,-0.06246 -0.48059,-0.187069 -0.10681,-0.124605 -0.1602,-0.275712 -0.1602,-0.453719 V 45.411181 c 0,-0.178007 -0.0619,-0.329114 -0.18655,-0.453719 -0.12461,-0.124605 -0.27623,-0.187069 -0.45424,-0.187069 z m -101.170568,0.02687 c -0.195808,0 -0.355986,0.06195 -0.480591,0.186552 -0.1068044,0.124605 -0.1601972,0.276229 -0.1601972,0.454236 v 18.236613 c 0,0.178007 0.053393,0.329631 0.1601972,0.454235 0.124605,0.124606 0.284783,0.186552 0.480591,0.186552 h 4.031795 c 0.178007,0 0.329114,-0.06195 0.453719,-0.186552 0.124604,-0.124604 0.187068,-0.276228 0.187068,-0.454235 V 45.438053 c 0,-0.178007 -0.06246,-0.329631 -0.187068,-0.454236 -0.124605,-0.124605 -0.275712,-0.186552 -0.453719,-0.186552 z m 86.912006,0 c -0.195808,0 -0.382682,0.06195 -0.560689,0.186552 -0.160207,0.106805 -0.276063,0.240286 -0.347266,0.400492 L 88.747037,63.46124 c -0.0712,0.142406 -0.0979,0.266817 -0.0801,0.37362 0.0178,0.106805 0.06264,0.195965 0.133842,0.267168 0.0534,0.0712 0.133492,0.124597 0.240296,0.160197 0.089,0.0356 0.177647,0.05323 0.26665,0.05323 h 4.592484 c 0.178008,0 0.347256,-0.05339 0.507463,-0.160197 0.178007,-0.124604 0.302934,-0.26664 0.374137,-0.426847 l 0.747242,-1.602486 c 0.0712,-0.160207 0.187059,-0.293688 0.347265,-0.400492 0.178007,-0.124605 0.364882,-0.186552 0.560689,-0.186552 h 5.633765 c 0.17801,0 0.34726,0.06195 0.50746,0.186552 0.17801,0.106804 0.31149,0.240285 0.4005,0.400492 l 0.72088,1.602486 c 0.089,0.160207 0.21393,0.302243 0.37414,0.426847 0.17801,0.106805 0.36488,0.160197 0.56069,0.160197 h 4.56561 c 0.28481,0 0.47168,-0.08864 0.56069,-0.26665 0.10681,-0.178007 0.12495,-0.347256 0.0537,-0.507463 L 102.0175,45.384311 c -0.0712,-0.160206 -0.19561,-0.293687 -0.37362,-0.400492 -0.1602,-0.124605 -0.32945,-0.186552 -0.50746,-0.186552 z m 1.842265,8.143689 c 0.089,0 0.169093,0.08009 0.240295,0.240295 0.213609,0.516221 0.445324,1.076843 0.694532,1.682068 0.24921,0.587424 0.46278,1.103725 0.64079,1.548743 0.089,0.160206 0.089,0.302759 0,0.427364 -0.0712,0.106805 -0.19562,0.160197 -0.37362,0.160197 h -2.376602 c -0.195808,0 -0.329289,-0.05339 -0.400493,-0.160197 -0.0712,-0.124605 -0.0712,-0.267158 0,-0.427364 l 1.334802,-3.230811 c 0.0712,-0.160205 0.151293,-0.240295 0.240296,-0.240295 z M 20.56567,71.471606 c -0.178008,0 -0.329115,0.06195 -0.45372,0.186551 -0.124605,0.124606 -0.187068,0.276229 -0.187068,0.454236 v 3.631303 c 0,0.178007 0.06246,0.329114 0.187068,0.453719 0.124605,0.124605 0.275712,0.187069 0.45372,0.187069 h 3.791499 c 0.195808,0 0.347432,0.06246 0.454236,0.187069 0.124605,0.124604 0.187069,0.275712 0.187069,0.453719 v 13.350606 c 0,0.178007 0.06195,0.329114 0.186552,0.453719 0.124604,0.124604 0.276228,0.187069 0.454236,0.187069 h 4.004923 c 0.195808,0 0.346915,-0.06247 0.453719,-0.187069 0.124605,-0.124605 0.187069,-0.275712 0.187069,-0.453719 V 77.025272 c 0,-0.178007 0.06246,-0.329115 0.187068,-0.453719 0.124606,-0.124606 0.275712,-0.187069 0.45372,-0.187069 h 3.738273 c 0.195807,0 0.346914,-0.06246 0.453719,-0.187069 0.124604,-0.124605 0.187068,-0.275712 0.187068,-0.453719 v -3.631303 c 0,-0.178007 -0.06246,-0.32963 -0.187068,-0.454236 -0.106805,-0.124604 -0.257912,-0.186551 -0.453719,-0.186551 z m 17.462499,0 c -0.178007,0 -0.329114,0.06195 -0.453719,0.186551 -0.124605,0.124606 -0.187068,0.276229 -0.187068,0.454236 v 18.263485 c 0,0.178007 0.06246,0.329114 0.187068,0.453719 0.124605,0.124604 0.275712,0.187069 0.453719,0.187069 h 3.978569 c 0.178007,0 0.329631,-0.06247 0.454236,-0.187069 0.124605,-0.124605 0.186552,-0.275712 0.186552,-0.453719 v -4.325834 c 0,-0.178007 0.06246,-0.329114 0.187068,-0.453719 0.124605,-0.124606 0.275712,-0.187069 0.453719,-0.187069 h 0.587561 c 0.178007,0 0.364881,0.05339 0.56069,0.160197 0.195807,0.089 0.347432,0.20486 0.454235,0.347266 0.551823,0.783231 1.103374,1.557425 1.655197,2.322855 0.569623,0.765431 1.139316,1.521999 1.708939,2.269629 0.106804,0.142406 0.257911,0.267333 0.453719,0.374137 0.213609,0.089 0.409554,0.133326 0.587561,0.133326 h 4.966622 c 0.178009,0 0.293349,-0.08009 0.346749,-0.240296 0.0534,-0.178007 0.02671,-0.338185 -0.0801,-0.480591 -0.587423,-0.783232 -1.254831,-1.646585 -2.002461,-2.590022 -0.74763,-0.943438 -1.45936,-1.860184 -2.135787,-2.75022 -0.106803,-0.142406 -0.14257,-0.284958 -0.10697,-0.427364 0.0534,-0.160207 0.151117,-0.293689 0.293522,-0.400493 0.427217,-0.267011 0.810036,-0.596437 1.14825,-0.988053 0.338214,-0.409416 0.631873,-0.863254 0.881083,-1.361674 0.24921,-0.49842 0.436084,-1.023275 0.560689,-1.575098 0.142406,-0.569622 0.213941,-1.139316 0.213941,-1.708939 0,-1.032442 -0.17832,-1.975884 -0.534334,-2.830318 C 52.509206,74.809163 52.028672,74.07022 51.405647,73.447196 50.800422,72.82417 50.06148,72.343636 49.189245,72.005423 48.31701,71.649409 47.365013,71.471606 46.332572,71.471606 Z m 40.612508,0 c -0.178007,0 -0.329114,0.06195 -0.453719,0.186551 -0.124605,0.124606 -0.187069,0.276229 -0.187069,0.454236 v 18.263485 c 0,0.178007 0.06246,0.329114 0.187069,0.453719 0.124605,0.124604 0.275712,0.187069 0.453719,0.187069 h 7.289477 c 1.388456,0 2.652255,-0.2045 3.7915,-0.613916 1.157047,-0.409417 2.180578,-1.014878 3.070614,-1.81591 0.961238,-0.890036 1.69111,-1.949335 2.18953,-3.177584 0.49842,-1.24605 0.747758,-2.634259 0.747758,-4.16512 0,-1.530862 -0.249338,-2.910517 -0.747758,-4.138766 -0.49842,-1.228249 -1.228292,-2.287548 -2.18953,-3.177584 -1.780072,-1.637665 -4.067401,-2.45618 -6.862114,-2.45618 z m 20.079394,0 c -0.178007,0 -0.32963,0.06195 -0.454236,0.186551 -0.124605,0.124606 -0.186552,0.276229 -0.186552,0.454236 v 18.263485 c 0,0.178007 0.06195,0.329114 0.186552,0.453719 0.124606,0.124604 0.276229,0.187069 0.454236,0.187069 h 13.590899 c 0.17801,0 0.32912,-0.06247 0.45372,-0.187069 0.12461,-0.124605 0.18707,-0.275712 0.18707,-0.453719 v -3.68453 c 0,-0.178007 -0.0625,-0.329631 -0.18707,-0.454236 -0.1246,-0.124605 -0.27571,-0.187068 -0.45372,-0.187068 h -8.3044 c -0.17801,0 -0.32911,-0.06195 -0.45372,-0.186552 -0.1246,-0.124605 -0.18707,-0.276229 -0.18707,-0.454236 v -1.014408 c 0,-0.178008 0.0625,-0.329114 0.18707,-0.453719 0.12461,-0.124606 0.27571,-0.187069 0.45372,-0.187069 h 7.23625 c 0.17801,0 0.32911,-0.06246 0.45372,-0.187069 0.12461,-0.124605 0.18707,-0.275712 0.18707,-0.453719 v -3.685046 c 0,-0.178007 -0.0625,-0.329114 -0.18707,-0.453719 -0.12461,-0.124605 -0.27571,-0.187069 -0.45372,-0.187069 h -7.23625 c -0.17801,0 -0.32911,-0.06195 -0.45372,-0.186552 -0.1246,-0.124605 -0.18707,-0.276229 -0.18707,-0.454236 v -1.121378 c 0,-0.178007 0.0625,-0.329115 0.18707,-0.453719 0.12461,-0.124606 0.27571,-0.187069 0.45372,-0.187069 h 8.3044 c 0.17801,0 0.32912,-0.06246 0.45372,-0.187069 0.12461,-0.124605 0.18707,-0.275712 0.18707,-0.453719 v -3.631303 c 0,-0.178007 -0.0625,-0.32963 -0.18707,-0.454236 -0.1246,-0.124604 -0.27571,-0.186551 -0.45372,-0.186551 z m -35.058841,0.02636 c -0.195808,0 -0.382682,0.06246 -0.56069,0.187068 -0.160206,0.106805 -0.275545,0.240286 -0.346748,0.400493 l -7.743714,18.076932 c -0.0712,0.142406 -0.0979,0.266816 -0.0801,0.373621 0.0178,0.106804 0.06264,0.195964 0.133842,0.267167 0.0534,0.0712 0.133491,0.124597 0.240295,0.160197 0.089,0.0356 0.177647,0.05323 0.266651,0.05323 h 4.593001 c 0.178007,0 0.346739,-0.05339 0.506946,-0.160197 0.178007,-0.124606 0.302934,-0.267158 0.374137,-0.427364 l 0.747241,-1.60197 c 0.0712,-0.160206 0.187059,-0.293688 0.347266,-0.400492 0.178007,-0.124605 0.364881,-0.187069 0.560689,-0.187069 h 5.634281 c 0.178008,0 0.34674,0.06246 0.506946,0.187069 0.178007,0.106804 0.311489,0.240286 0.400493,0.400492 l 0.720886,1.60197 c 0.089,0.160206 0.213931,0.302758 0.374137,0.427364 0.178007,0.106804 0.364882,0.160197 0.560689,0.160197 h 4.565613 c 0.284811,0 0.471686,-0.08916 0.560689,-0.267168 0.106803,-0.178007 0.124947,-0.346739 0.05374,-0.506945 L 68.28058,72.08553 c -0.0712,-0.160207 -0.195614,-0.293688 -0.373621,-0.400493 -0.160206,-0.124604 -0.329455,-0.187068 -0.507462,-0.187068 z m -20.372917,4.886523 h 2.830318 c 0.373815,0 0.685617,0.08009 0.934827,0.240295 0.267011,0.142406 0.47151,0.329281 0.613916,0.56069 0.160209,0.213608 0.266994,0.445321 0.320394,0.694531 0.0712,0.23141 0.10697,0.435909 0.10697,0.613916 0,0.338214 -0.06246,0.631873 -0.187069,0.881083 -0.124605,0.24921 -0.284783,0.462781 -0.48059,0.640788 -0.195808,0.160206 -0.409378,0.284616 -0.640788,0.37362 -0.231409,0.0712 -0.454051,0.106971 -0.66766,0.106971 h -2.830318 c -0.178007,0 -0.329114,-0.06246 -0.453719,-0.187069 -0.124605,-0.124605 -0.187068,-0.275712 -0.187068,-0.453719 v -2.830318 c 0,-0.178007 0.06246,-0.329115 0.187068,-0.453719 0.124605,-0.124606 0.275712,-0.187069 0.453719,-0.187069 z m 40.63938,0.05323 h 2.002461 c 0.498421,0 1.00565,0.06246 1.521871,0.187068 0.534022,0.124605 1.014556,0.364872 1.441773,0.720887 0.445018,0.338213 0.801141,0.827818 1.068152,1.468644 0.284811,0.623024 0.427364,1.442056 0.427364,2.456697 0,1.014641 -0.142553,1.842227 -0.427364,2.483053 -0.267011,0.623025 -0.614063,1.11263 -1.041281,1.468644 -0.427216,0.338214 -0.90775,0.56941 -1.441772,0.694015 -0.534021,0.124605 -1.050322,0.187068 -1.548743,0.187068 h -2.002461 c -0.178008,0 -0.329631,-0.06246 -0.454236,-0.187068 -0.124605,-0.124605 -0.186552,-0.275712 -0.186552,-0.45372 v -8.384501 c 0,-0.178007 0.06195,-0.329114 0.186552,-0.453719 0.124605,-0.124605 0.276228,-0.187068 0.454236,-0.187068 z m -18.423682,3.204455 c 0.089,0 0.169092,0.08009 0.240296,0.240296 0.213608,0.51622 0.444804,1.076843 0.694014,1.682067 0.249211,0.587424 0.462781,1.103725 0.640788,1.548743 0.089,0.160207 0.089,0.30276 0,0.427364 -0.0712,0.106805 -0.195614,0.160197 -0.373621,0.160197 h -2.376599 c -0.195808,0 -0.32929,-0.05339 -0.400492,-0.160197 -0.0712,-0.124604 -0.0712,-0.267157 0,-0.427364 l 1.335319,-3.23081 c 0.0712,-0.160207 0.151291,-0.240296 0.240295,-0.240296 z" style="color:#000;font-size:26.7011px;font-family:Heavitas;-inkscape-font-specification:Heavitas;text-align:center;letter-spacing:0;word-spacing:0;text-orientation:upright;text-anchor:middle;display:inline;fill:#fff;stroke:none;stroke-width:8.46667;stroke-linecap:butt;stroke-linejoin:miter;stroke-miterlimit:128;-inkscape-stroke:none;paint-order:stroke fill markers"/></svg>