<svg xmlns="http://www.w3.org/2000/svg" xml:space="preserve" width="512" height="512" viewBox="0 0 135.46666 135.46667"><path d="M 135.46666,0 H 123.49426 67.733328 L 95.613796,27.880468 0,123.49427 v 11.97239 h 11.97239 l 95.6138,-95.613796 27.88047,27.880468 V 11.972396 Z" style="fill:#5269e0;fill-opacity:1;stroke:none;stroke-width:33.8667;stroke-miterlimit:128;stroke-dasharray:none;stroke-opacity:1;paint-order:stroke fill markers"/><path d="m 111.42782,57.150516 c -1.42504,0 -2.86675,0.279465 -4.18734,0.845426 -0.46478,0.199194 -0.8285,0.573534 -1.264,0.834058 -0.0352,-0.03854 -0.0538,-0.102367 -0.0899,-0.138493 -0.79316,-0.793154 -2.18405,-1.35754 -3.27887,-1.35754 h -2.48667 c -0.944733,0 -2.04785,0.464993 -2.859258,1.089856 -0.221924,-0.153604 -0.42414,-0.404456 -0.63872,-0.509529 -0.58577,-0.299988 -1.333449,-0.580327 -2.230355,-0.580327 h -2.519743 c -1.094784,0 -2.486128,0.564242 -3.279386,1.35754 -0.123812,0.123812 -0.192998,0.326911 -0.304375,0.476457 -0.306629,-0.332584 -0.551509,-0.77264 -0.871264,-0.978752 -0.697991,-0.456047 -1.631909,-0.837675 -2.599325,-0.837675 H 82.4668 c -0.845958,0 -1.626394,0.358572 -2.300635,0.730705 -0.791092,-0.441977 -1.630101,-0.748275 -2.285132,-0.748275 H 69.00974 c -0.322163,0 -0.680259,0.135631 -1.030944,0.224793 -0.32273,-0.07642 -0.653101,-0.207223 -0.951364,-0.207223 h -2.535245 c -0.894222,0 -2.036714,0.433443 -2.898531,1.105359 -0.259784,-0.134727 -0.46686,-0.375584 -0.734322,-0.480591 -1.079191,-0.433978 -2.235773,-0.642338 -3.357418,-0.642338 h -5.224487 c -0.461324,0 -0.976766,0.147195 -1.476396,0.322461 -0.500219,-0.175677 -1.017071,-0.322461 -1.47898,-0.322461 h -8.550382 c -0.485252,0 -1.031148,0.147551 -1.554944,0.340031 -0.523723,-0.192432 -1.067689,-0.340031 -1.552877,-0.340031 h -2.521293 c -0.775153,0 -1.720903,0.36147 -2.538863,0.881084 -0.77981,-0.499702 -1.705861,-0.881084 -2.533178,-0.881084 h -2.50424 c -0.512129,0 -1.123576,0.12843 -1.716691,0.363286 -0.556132,-0.217248 -1.14165,-0.363286 -1.659847,-0.363286 h -2.48667 c -0.944708,0 -2.047821,0.464962 -2.859257,1.089856 -0.221919,-0.1536 -0.424148,-0.404459 -0.638721,-0.509529 -0.585783,-0.299986 -1.331411,-0.580327 -2.228288,-0.580327 h -2.521809 c -0.489392,0 -1.038395,0.146057 -1.566313,0.341582 -0.502904,-0.178026 -1.023062,-0.324012 -1.490348,-0.324012 H 7.8615355 c -1.022585,0 -2.4321807,0.494843 -3.2948892,1.35754 -0.076748,0.07655 -0.150527,0.156017 -0.2211752,0.238229 -0.7158091,0.83511 -1.1208618,2.083958 -1.1208618,3.041158 v 11.472684 c 0,0.956948 0.4046432,2.20522 1.1208618,3.040641 0.070648,0.08221 0.1444276,0.16168 0.2211752,0.238229 0.8626955,0.862696 2.2723959,1.35754 3.2948892,1.35754 h 2.5367965 c 0.479065,0 1.012887,-0.147444 1.527555,-0.33383 0.515269,0.186809 1.049484,0.33383 1.529106,0.33383 h 2.504239 c 0.940334,0 2.026372,-0.459604 2.833936,-1.072286 0.181435,0.128699 0.358362,0.360975 0.531234,0.455269 0.597015,0.325663 1.421498,0.617017 2.378666,0.617017 h 2.486153 c 0.51948,0 1.104175,-0.144879 1.658297,-0.361219 0.592003,0.23469 1.20439,0.361219 1.718758,0.361219 h 2.50424 c 0.831779,0 1.755579,-0.381768 2.533178,-0.880567 0.815837,0.518643 1.759648,0.880567 2.538863,0.880567 h 2.521293 c 0.487512,0 1.031896,-0.14547 1.554944,-0.337964 0.522478,0.192072 1.065985,0.337964 1.552877,0.337964 h 8.550382 c 0.463686,0 0.979757,-0.146483 1.47898,-0.321945 0.49864,0.175058 1.013329,0.321945 1.476396,0.321945 h 2.503723 c 0.692707,0 1.449417,-0.271397 2.148706,-0.634587 0.01334,0.0074 0.02757,0.02791 0.04082,0.03514 0.129389,0.07063 0.262379,0.134448 0.398425,0.191203 0.518831,0.216194 1.178726,0.408244 1.998328,0.408244 h 3.124874 c 0.217863,0 0.539034,-0.205763 0.802535,-0.250114 0.413262,0.11602 0.839116,0.250114 1.197343,0.250114 h 2.535245 c 0.851254,0 1.802795,-0.395382 2.587956,-0.914156 0.785077,0.518517 1.734928,0.914156 2.585889,0.914156 h 2.521293 c 0.322733,0 0.738046,-0.148105 1.132747,-0.255799 l -0.220658,-0.0801 c 0.04583,0.01834 0.109238,0.01232 0.156579,0.02945 0.02195,0.0078 0.04876,0.04342 0.07028,0.05064 0.02996,-0.0082 0.05564,-0.01082 0.08578,-0.01964 0.446301,0.144927 0.92155,0.275436 1.429887,0.275436 h 2.888196 c 0.957193,0 1.96469,-0.341356 2.668054,-0.810287 0.02639,-0.01796 0.05257,-0.03622 0.07855,-0.05478 0.202639,-0.141856 0.364687,-0.487099 0.572058,-0.689363 0.171319,0.176208 0.302199,0.422283 0.482141,0.562239 0.134767,0.104889 0.275757,0.201529 0.422197,0.289388 0.701998,0.421222 1.63957,0.7028 2.531112,0.7028 h 2.871142 c 0.2133,0 0.576963,-0.179279 0.863513,-0.243913 0.380547,0.104132 0.767827,0.243913 1.118795,0.243913 h 2.50424 c 0.940354,0 2.026382,-0.459618 2.833935,-1.072286 0.181441,0.128703 0.358356,0.360973 0.531234,0.455269 0.599231,0.326885 1.421474,0.617017 2.378667,0.617017 h 2.48615 c 1.10137,0 2.48932,-0.567403 3.27939,-1.35754 0.03,-0.02996 0.0451,-0.08361 0.0744,-0.115239 0.44068,0.264743 0.80795,0.644067 1.27899,0.845944 1.32059,0.565958 2.76281,0.845943 4.18786,0.845943 1.04743,0 2.09583,-0.122739 3.11919,-0.412378 0.62961,-0.17819 1.21211,-0.501076 1.80454,-0.794784 0.79824,0.562259 1.81031,0.988054 2.7032,0.988054 h 8.5509 c 1.10137,0 2.4889,-0.567603 3.27887,-1.35754 0.79316,-0.793167 1.35754,-2.184085 1.35754,-3.27887 v -2.318721 c 0,-0.714188 -0.29241,-1.49828 -0.67955,-2.216402 1e-4,-0.0105 0.008,-0.02314 0.008,-0.03359 V 66.57423 c 0,-0.02632 -0.0169,-0.05761 -0.0176,-0.08423 0.39278,-0.721991 0.68988,-1.513872 0.68988,-2.233973 v -2.285131 c 0,-1.094784 -0.56425,-2.486129 -1.35754,-3.279387 -0.79329,-0.793281 -2.18456,-1.35754 -3.27938,-1.35754 h -8.5509 c -0.89439,0 -1.91843,0.429589 -2.72077,0.999939 -0.57724,-0.282102 -1.14286,-0.59859 -1.7539,-0.771529 -1.03672,-0.293412 -2.09244,-0.411861 -3.15226,-0.411861 z m -31.662147,1.029395 c -0.01282,0.0085 -0.02025,0.03 -0.03307,0.03876 -0.01218,0.0083 -0.03505,0.0071 -0.04703,0.0155 z m 1.39268,0.511596 0.220658,0.238229 c -0.0325,-0.03792 -0.08877,-0.04918 -0.12299,-0.08578 -0.03834,-0.04238 -0.05817,-0.112949 -0.09767,-0.152446 z m -17.470768,1.127063 0.04289,0.04289 c -0.0073,-0.0075 -0.01798,-0.01007 -0.02532,-0.01757 -0.0073,-0.0074 -0.01021,-0.01796 -0.01757,-0.02532 z m 55.759905,0.763261 0.076,0.0863 c -0.009,-0.0101 -0.0222,-0.01525 -0.031,-0.02532 -0.0169,-0.01858 -0.028,-0.04249 -0.045,-0.06098 z m -59.498178,0.492477 0.06821,0.04082 c -0.0014,0.0067 -0.0023,0.01299 -0.0036,0.01964 -0.02371,-0.01317 -0.04094,-0.04784 -0.0646,-0.06046 z M 94.031469,75.5897 93.872822,75.874954 c 0.02722,-0.04536 0.02883,-0.137958 0.05478,-0.187585 0.02404,-0.04331 0.08158,-0.05309 0.10387,-0.09767 z m -38.705131,0.496094 c 3.47e-4,4.64e-4 0.0017,-4.63e-4 0.0021,0 0.0062,0.0081 0.01138,0.01719 0.01757,0.02532 z m 18.343583,0.183968 c 0.07401,0.09871 0.173734,0.09405 0.253731,0.183452 0.06863,0.08066 0.06664,0.197393 0.14056,0.271301 z m 4.550627,0.232027 -0.220659,0.238229 c 0.03953,-0.03953 0.05929,-0.109514 0.09767,-0.151929 0.03414,-0.03652 0.09057,-0.04847 0.12299,-0.0863 z m 39.037412,0.20929 -0.0372,0.02325 c 0.007,-0.0044 0.0125,-0.01111 0.0196,-0.0155 0.005,-0.0034 0.0121,-0.0044 0.0176,-0.0078 z" style="color:#000;-inkscape-font-specification:Heavitas;fill:#5269e0;stroke-linecap:round;stroke-linejoin:round;stroke-miterlimit:128;-inkscape-stroke:none;paint-order:stroke fill markers"/><path d="m 111.42754,61.383332 c -0.89595,0 -1.7358,0.167969 -2.51976,0.50395 -0.78395,0.33598 -1.47273,0.789447 -2.06629,1.360613 -0.58237,0.571167 -1.04155,1.243302 -1.37753,2.016056 -0.33598,0.772755 -0.50395,1.595704 -0.50395,2.469252 0,0.873549 0.16797,1.696755 0.50395,2.46951 0.33598,0.772754 0.79516,1.444632 1.37753,2.015799 0.59356,0.571167 1.28234,1.02489 2.06629,1.36087 0.78396,0.33598 1.62381,0.50395 2.51976,0.50395 0.71676,0 1.37199,-0.08398 1.96555,-0.251975 0.59357,-0.16799 1.13128,-0.403301 1.61285,-0.705684 0.49277,-0.302382 0.93506,-0.666146 1.32703,-1.091721 0.39198,-0.436773 0.75029,-0.918577 1.07506,-1.444947 0.056,-0.100794 0.0672,-0.19596 0.0336,-0.285554 -0.0336,-0.100794 -0.10068,-0.173598 -0.20148,-0.218395 l -2.38543,-0.940741 c -0.11199,-0.0448 -0.22406,-0.0448 -0.33605,0 -0.10079,0.0448 -0.17932,0.112139 -0.23531,0.201733 -0.29119,0.470373 -0.68875,0.856755 -1.19272,1.159137 -0.49277,0.291183 -1.04712,0.436791 -1.66309,0.436791 -0.42557,0 -0.8286,-0.0897 -1.20937,-0.268893 -0.36958,-0.17919 -0.69434,-0.414245 -0.97432,-0.705428 -0.27999,-0.291182 -0.4984,-0.627379 -0.65519,-1.008156 -0.15679,-0.391977 -0.23531,-0.80072 -0.23531,-1.226296 0,-0.414375 0.0785,-0.8174 0.23531,-1.209377 0.15679,-0.391977 0.3752,-0.733634 0.65519,-1.024818 0.27998,-0.302382 0.60474,-0.543155 0.97432,-0.722344 0.38077,-0.17919 0.7838,-0.268893 1.20937,-0.268893 0.64957,0 1.20392,0.140145 1.66309,0.420128 0.45917,0.268785 0.85127,0.660628 1.17606,1.175798 0.056,0.0896 0.13998,0.156937 0.25197,0.201734 0.11199,0.0448 0.22406,0.0448 0.33605,0 l 2.38543,-0.94074 c 0.1008,-0.0448 0.16789,-0.117602 0.20148,-0.218396 0.0336,-0.100794 0.0224,-0.19596 -0.0336,-0.285555 -0.32477,-0.51517 -0.68308,-0.985536 -1.07506,-1.411111 -0.38077,-0.436774 -0.81188,-0.806513 -1.29345,-1.108895 -0.48157,-0.302382 -1.01928,-0.537437 -1.61284,-0.705427 -0.59357,-0.167991 -1.25999,-0.251975 -1.99914,-0.251975 z m -97.971873,0.184816 c -0.111993,0 -0.207159,0.039 -0.285554,0.1174 -0.0784,0.0784 -0.117656,0.173561 -0.117656,0.285555 v 11.490622 c 0,0.111994 0.03926,0.207159 0.117656,0.285555 0.07839,0.0784 0.173561,0.117657 0.285554,0.117657 h 2.503089 c 0.111993,0 0.207159,-0.03926 0.285554,-0.117657 0.0784,-0.0784 0.117657,-0.173561 0.117657,-0.285555 v -6.014076 c 0,-0.111993 0.03354,-0.173617 0.100738,-0.184816 0.0784,-0.0224 0.1512,0.0114 0.218396,0.100995 l 4.38457,6.165056 c 0.0672,0.0896 0.162361,0.168118 0.285554,0.235314 0.123193,0.0672 0.24072,0.100739 0.352714,0.100739 h 2.486427 c 0.111993,0 0.207159,-0.03926 0.285554,-0.117657 0.0784,-0.0784 0.117656,-0.173561 0.117656,-0.285555 V 61.971103 c 0,-0.111994 -0.03926,-0.207159 -0.117656,-0.285555 -0.07839,-0.0784 -0.173561,-0.1174 -0.285554,-0.1174 h -2.486427 c -0.111994,0 -0.207159,0.039 -0.285555,0.1174 -0.0784,0.0784 -0.117657,0.173561 -0.117657,0.285555 v 6.014076 c 0,0.111993 -0.039,0.173616 -0.117399,0.184815 -0.0672,0.0112 -0.134538,-0.02781 -0.201735,-0.1174 l -4.367651,-6.165312 c -0.0672,-0.08959 -0.162362,-0.162398 -0.285555,-0.218396 -0.123193,-0.06719 -0.24072,-0.100738 -0.352714,-0.100738 z m 14.111112,0 c -0.123193,0 -0.223821,0.039 -0.302217,0.1174 -0.06719,0.0784 -0.100738,0.173561 -0.100738,0.285555 v 11.490622 c 0,0.111994 0.03354,0.207159 0.100738,0.285555 0.07839,0.0784 0.179024,0.117657 0.302217,0.117657 h 2.503088 c 0.111993,0 0.207159,-0.03926 0.285554,-0.117657 0.0784,-0.0784 0.117656,-0.173561 0.117656,-0.285555 V 69.86666 c 0,-0.111993 0.03354,-0.207159 0.100739,-0.285554 0.0784,-0.0784 0.17928,-0.117401 0.302473,-0.117401 h 3.46049 c 0.111994,0 0.207416,0.039 0.285811,0.117401 0.0784,0.0784 0.117401,0.173561 0.117401,0.285554 v 3.595065 c 0,0.111994 0.03354,0.207159 0.100739,0.285555 0.07839,0.0784 0.179279,0.117657 0.302472,0.117657 h 2.520006 c 0.111993,0 0.207159,-0.03926 0.285554,-0.117657 0.0784,-0.0784 0.117401,-0.173561 0.117401,-0.285555 V 61.971103 c 0,-0.111994 -0.039,-0.207159 -0.117401,-0.285555 -0.0784,-0.0784 -0.173561,-0.1174 -0.285554,-0.1174 h -2.520006 c -0.123193,0 -0.224078,0.039 -0.302472,0.1174 -0.0672,0.0784 -0.100739,0.173561 -0.100739,0.285555 v 3.981614 c 0,0.111994 -0.039,0.20716 -0.117401,0.285555 -0.0784,0.0784 -0.173817,0.1174 -0.285811,0.1174 h -3.46049 c -0.123193,0 -0.224077,-0.039 -0.302473,-0.1174 -0.0672,-0.0784 -0.100739,-0.173561 -0.100739,-0.285555 v -3.981614 c 0,-0.111994 -0.03926,-0.207159 -0.117656,-0.285555 -0.0784,-0.0784 -0.173561,-0.1174 -0.285554,-0.1174 z m 13.204205,0 c -0.111993,0 -0.207159,0.039 -0.285554,0.1174 -0.0784,0.0784 -0.117657,0.173561 -0.117657,0.285555 v 11.490622 c 0,0.111994 0.03926,0.207159 0.117657,0.285555 0.0784,0.0784 0.173561,0.117657 0.285554,0.117657 h 8.550745 c 0.111993,0 0.207159,-0.03926 0.285555,-0.117657 0.0784,-0.0784 0.117399,-0.173561 0.117399,-0.285555 v -2.318272 c 0,-0.111993 -0.039,-0.207159 -0.117399,-0.285555 -0.0784,-0.0784 -0.173562,-0.117657 -0.285555,-0.117657 h -5.224572 c -0.111994,0 -0.20716,-0.039 -0.285555,-0.117399 -0.0784,-0.0784 -0.117656,-0.173818 -0.117656,-0.285812 v -0.638268 c 0,-0.111993 0.03926,-0.207159 0.117656,-0.285554 0.0784,-0.0784 0.173561,-0.117657 0.285555,-0.117657 h 4.552467 c 0.111994,0 0.207159,-0.03926 0.285555,-0.117656 0.0784,-0.0784 0.117657,-0.173562 0.117657,-0.285555 v -2.318272 c 0,-0.111994 -0.03926,-0.20716 -0.117657,-0.285555 -0.0784,-0.0784 -0.173561,-0.117656 -0.285555,-0.117656 h -4.552467 c -0.111994,0 -0.20716,-0.039 -0.285555,-0.117401 -0.0784,-0.0784 -0.117656,-0.173561 -0.117656,-0.285555 v -0.705683 c 0,-0.111994 0.03926,-0.207159 0.117656,-0.285554 0.0784,-0.0784 0.173561,-0.117657 0.285555,-0.117657 h 5.224572 c 0.111993,0 0.207159,-0.03926 0.285555,-0.117657 0.0784,-0.0784 0.117399,-0.173562 0.117399,-0.285555 v -2.284692 c 0,-0.111994 -0.039,-0.207159 -0.117399,-0.285555 -0.0784,-0.0784 -0.173562,-0.1174 -0.285555,-0.1174 z m 11.507285,0 c -0.111994,0 -0.207159,0.039 -0.285555,0.1174 -0.0784,0.0784 -0.117656,0.173561 -0.117656,0.285555 v 11.490622 c 0,0.111994 0.03926,0.207159 0.117656,0.285555 0.0784,0.0784 0.173561,0.117657 0.285555,0.117657 h 2.503088 c 0.111993,0 0.207159,-0.03926 0.285555,-0.117657 0.0784,-0.0784 0.117657,-0.173561 0.117657,-0.285555 v -2.721484 c 0,-0.111993 0.03901,-0.207159 0.117399,-0.285554 0.0784,-0.0784 0.173818,-0.117657 0.285812,-0.117657 h 0.369375 c 0.111994,0 0.229777,0.0338 0.35297,0.100995 0.123193,0.05599 0.218358,0.128801 0.285554,0.218396 0.34718,0.492771 0.6943,0.97978 1.04148,1.461352 0.358379,0.481572 0.71668,0.957657 1.075059,1.42803 0.0672,0.0896 0.162362,0.167861 0.285555,0.235057 0.134391,0.056 0.257637,0.08408 0.369631,0.08408 h 3.124695 c 0.111993,0 0.184797,-0.05044 0.218396,-0.151236 0.0336,-0.111994 0.01669,-0.212622 -0.0505,-0.302217 -0.369578,-0.492771 -0.789502,-1.035941 -1.259875,-1.629506 -0.470372,-0.593566 -0.918376,-1.170535 -1.343952,-1.730502 -0.06719,-0.0896 -0.08956,-0.179042 -0.06716,-0.268637 0.0336,-0.100794 0.09522,-0.184779 0.184816,-0.251975 0.268784,-0.167989 0.509557,-0.37522 0.722345,-0.621606 0.212788,-0.257585 0.397657,-0.543082 0.554447,-0.856664 0.156791,-0.313581 0.274319,-0.644058 0.352714,-0.991238 0.0896,-0.358379 0.134318,-0.71668 0.134318,-1.075059 0,-0.649562 -0.112065,-1.243174 -0.336052,-1.780743 C 61.388809,63.667985 61.086412,63.203082 60.694435,62.811105 60.313657,62.419128 59.84901,62.116731 59.300242,61.903944 58.751474,61.679956 58.1524,61.568148 57.502837,61.568148 Z m 16.731856,0 c -0.111994,0 -0.207159,0.039 -0.285555,0.1174 -0.07839,0.0784 -0.117656,0.173561 -0.117656,0.285555 v 2.284692 c 0,0.111993 0.03926,0.207159 0.117656,0.285555 0.0784,0.0784 0.173561,0.117657 0.285555,0.117657 h 2.385431 c 0.123193,0 0.218359,0.03926 0.285555,0.117657 0.0784,0.0784 0.117657,0.17356 0.117657,0.285554 v 8.399507 c 0,0.111994 0.03926,0.207159 0.117657,0.285555 0.0784,0.0784 0.17356,0.117657 0.285554,0.117657 h 2.519749 c 0.123194,0 0.218359,-0.03926 0.285555,-0.117657 0.0784,-0.0784 0.117657,-0.173561 0.117657,-0.285555 v -8.399507 c 0,-0.111994 0.03926,-0.207159 0.117657,-0.285554 0.0784,-0.0784 0.173561,-0.117657 0.285554,-0.117657 h 2.351852 c 0.123193,0 0.218358,-0.03926 0.285554,-0.117657 0.0784,-0.0784 0.117657,-0.173562 0.117657,-0.285555 v -2.284692 c 0,-0.111994 -0.03926,-0.207159 -0.117657,-0.285555 -0.0672,-0.0784 -0.162361,-0.1174 -0.285554,-0.1174 z m 22.863333,0 c -0.111994,0 -0.207159,0.039 -0.285555,0.1174 -0.0784,0.0784 -0.1174,0.173561 -0.1174,0.285555 v 11.490622 c 0,0.111994 0.039,0.207159 0.1174,0.285555 0.0784,0.0784 0.173561,0.117657 0.285555,0.117657 h 2.50309 c 0.11199,0 0.207158,-0.03926 0.285555,-0.117657 0.07839,-0.0784 0.117653,-0.173561 0.117653,-0.285555 v -6.014076 c 0,-0.111993 0.03352,-0.173617 0.10074,-0.184816 0.0784,-0.0224 0.1512,0.0114 0.218392,0.100995 l 4.384575,6.165056 c 0.0672,0.0896 0.16236,0.168118 0.285555,0.235314 0.123188,0.0672 0.240972,0.100739 0.352962,0.100739 h 2.48618 c 0.11199,0 0.20716,-0.03926 0.28555,-0.117657 0.0784,-0.0784 0.11766,-0.173561 0.11766,-0.285555 V 61.971103 c 0,-0.111994 -0.0392,-0.207159 -0.11766,-0.285555 -0.0784,-0.0784 -0.17356,-0.1174 -0.28555,-0.1174 h -2.48618 c -0.11199,0 -0.207154,0.039 -0.285552,0.1174 -0.07839,0.0784 -0.117652,0.173561 -0.117652,0.285555 v 6.014076 c 0,0.111993 -0.0393,0.173616 -0.11766,0.184815 -0.0672,0.0112 -0.13428,-0.02781 -0.20148,-0.1174 l -4.367903,-6.165312 c -0.0672,-0.08959 -0.16236,-0.162398 -0.285555,-0.218396 -0.123195,-0.06719 -0.24072,-0.100738 -0.352717,-0.100738 z m 27.181002,0 c -0.112,0 -0.20716,0.039 -0.28556,0.1174 -0.0784,0.0784 -0.11766,0.173561 -0.11766,0.285555 v 11.490622 c 0,0.111994 0.0392,0.207159 0.11766,0.285555 0.0784,0.0784 0.17356,0.117657 0.28556,0.117657 h 8.55074 c 0.11199,0 0.20716,-0.03926 0.28556,-0.117657 0.0784,-0.0784 0.1174,-0.173561 0.1174,-0.285555 v -2.318272 c 0,-0.111993 -0.039,-0.207159 -0.1174,-0.285555 -0.0784,-0.0784 -0.17357,-0.117657 -0.28556,-0.117657 h -5.22457 c -0.11199,0 -0.20716,-0.039 -0.28555,-0.117399 -0.0784,-0.0784 -0.11766,-0.173818 -0.11766,-0.285812 v -0.638268 c 0,-0.111993 0.0392,-0.207159 0.11766,-0.285554 0.0784,-0.0784 0.17356,-0.117657 0.28555,-0.117657 h 4.55247 c 0.112,0 0.20716,-0.03926 0.28555,-0.117656 0.0784,-0.0784 0.11766,-0.173562 0.11766,-0.285555 v -2.318272 c 0,-0.111994 -0.0393,-0.20716 -0.11766,-0.285555 -0.0784,-0.0784 -0.17355,-0.117656 -0.28555,-0.117656 h -4.55247 c -0.11199,0 -0.20716,-0.039 -0.28555,-0.117401 -0.0784,-0.0784 -0.11766,-0.173561 -0.11766,-0.285555 v -0.705683 c 0,-0.111994 0.0392,-0.207159 0.11766,-0.285554 0.0784,-0.0784 0.17356,-0.117657 0.28555,-0.117657 h 5.22457 c 0.11199,0 0.20716,-0.03926 0.28556,-0.117657 0.0784,-0.0784 0.1174,-0.173562 0.1174,-0.285555 v -2.284692 c 0,-0.111994 -0.039,-0.207159 -0.1174,-0.285555 -0.0784,-0.0784 -0.17357,-0.1174 -0.28556,-0.1174 z M 7.8617225,61.584818 c -0.123195,0 -0.224078,0.03926 -0.302475,0.117656 -0.0672,0.0784 -0.10074,0.173562 -0.10074,0.285555 v 11.473697 c 0,0.111993 0.03353,0.207159 0.10074,0.285555 0.0784,0.0784 0.17928,0.117656 0.302475,0.117656 h 2.5366655 c 0.111994,0 0.207159,-0.03926 0.285554,-0.117656 0.0784,-0.0784 0.117401,-0.173562 0.117401,-0.285555 V 61.988021 c 0,-0.111994 -0.039,-0.20716 -0.117401,-0.285555 -0.0784,-0.0784 -0.17356,-0.117657 -0.285554,-0.117657 z m 56.6295145,0 c -0.123193,0 -0.224077,0.03926 -0.302472,0.117656 -0.0672,0.0784 -0.100739,0.173562 -0.100739,0.285555 v 11.473697 c 0,0.111993 0.03354,0.207159 0.100739,0.285555 0.0784,0.0784 0.179279,0.117656 0.302472,0.117656 h 2.536668 c 0.111993,0 0.207159,-0.03926 0.285554,-0.117656 0.0784,-0.0784 0.117401,-0.173562 0.117401,-0.285555 V 61.988021 c 0,-0.111994 -0.039,-0.20716 -0.117401,-0.285555 -0.0784,-0.0784 -0.173561,-0.117657 -0.285554,-0.117657 z m 17.974813,0 c -0.123193,0 -0.24072,0.03926 -0.352714,0.117656 -0.100794,0.06719 -0.173598,0.151181 -0.218395,0.251975 L 77.02334,73.327416 c -0.0448,0.0896 -0.0617,0.16786 -0.0505,0.235057 0.0112,0.06719 0.03928,0.123357 0.08408,0.168154 0.03359,0.0448 0.08378,0.07834 0.15098,0.100739 0.05599,0.0224 0.112158,0.03358 0.168154,0.03358 h 2.889381 c 0.111994,0 0.218341,-0.03354 0.319135,-0.100739 0.111993,-0.0784 0.190516,-0.168099 0.235313,-0.268893 l 0.47037,-1.0079 c 0.0448,-0.100794 0.117602,-0.184779 0.218396,-0.251975 0.111994,-0.0784 0.229521,-0.117656 0.352714,-0.117656 h 3.544567 c 0.111993,0 0.21834,0.03926 0.319134,0.117656 0.111994,0.0672 0.195979,0.151181 0.251976,0.251975 l 0.453708,1.0079 c 0.05599,0.100794 0.134263,0.190498 0.235057,0.268893 0.111994,0.0672 0.229778,0.100739 0.35297,0.100739 h 2.872464 c 0.179189,0 0.296717,-0.0559 0.352713,-0.167898 0.0672,-0.111993 0.07863,-0.218596 0.03383,-0.319391 L 85.37235,61.954441 c -0.0448,-0.100794 -0.123321,-0.184779 -0.235314,-0.251975 -0.100794,-0.0784 -0.207141,-0.117657 -0.319134,-0.117657 z m -26.87827,3.074197 h 1.780486 c 0.235186,0 0.431236,0.05045 0.588027,0.151236 0.16799,0.0896 0.296699,0.207123 0.386293,0.352714 0.100794,0.134393 0.168136,0.28 0.201734,0.436791 0.0448,0.145592 0.06715,0.274556 0.06715,0.386549 0,0.212788 -0.03926,0.397401 -0.117656,0.554192 -0.0784,0.15679 -0.179023,0.291217 -0.302216,0.40321 -0.123193,0.100795 -0.25762,0.179317 -0.403211,0.235314 -0.145592,0.0448 -0.285738,0.06716 -0.420129,0.06716 h -1.780487 c -0.111994,0 -0.207415,-0.03926 -0.285811,-0.117657 -0.0784,-0.0784 -0.1174,-0.173561 -0.1174,-0.285554 v -1.780743 c 0,-0.111993 0.03901,-0.207159 0.1174,-0.285555 0.0784,-0.0784 0.173817,-0.117656 0.285811,-0.117656 z m 28.037406,2.049636 c 0.05599,0 0.106439,0.05018 0.151236,0.150979 0.134393,0.324782 0.28,0.677621 0.436791,1.058398 0.156791,0.369578 0.291219,0.694337 0.403212,0.97432 0.056,0.100794 0.056,0.190498 0,0.268893 -0.0448,0.06719 -0.12332,0.100739 -0.235314,0.100739 h -1.494932 c -0.123193,0 -0.207178,-0.03354 -0.251975,-0.100739 -0.0448,-0.07839 -0.0448,-0.168099 0,-0.268893 L 83.47395,66.85963 c 0.0448,-0.100794 0.09524,-0.150979 0.151236,-0.150979 z" style="color:#000;-inkscape-font-specification:Heavitas;fill:#fff;stroke-linecap:round;stroke-linejoin:round;stroke-miterlimit:128;-inkscape-stroke:none;paint-order:stroke fill markers"/></svg>