<svg xmlns="http://www.w3.org/2000/svg" xml:space="preserve" width="512" height="512" viewBox="0 0 135.46666 135.46667"><path d="M 135.46666,135.46666 V 123.49426 67.733328 L 107.58619,95.613796 11.97239,0 H 0 v 11.97239 l 95.613796,95.6138 -27.880468,27.88047 h 55.760932 z" style="fill:#e6a21a;fill-opacity:1;stroke:none;stroke-width:33.8667;stroke-miterlimit:128;stroke-dasharray:none;stroke-opacity:1;paint-order:stroke fill markers"/><path d="m 106.92383,58.208984 c -1.26869,0 -2.56292,0.257646 -3.74024,0.769532 -0.22191,0.09648 -0.38441,0.298483 -0.59961,0.412109 -0.78785,-0.560693 -1.7965,-0.986328 -2.681636,-0.986328 h -2.109375 c -0.277855,0 -0.61322,0.122618 -0.931641,0.195312 -0.316446,-0.07313 -0.661993,-0.208984 -0.923828,-0.208984 h -7.373047 c -0.592735,0 -1.252021,0.188978 -1.873047,0.46875 -0.197266,-0.06962 -0.376393,-0.197365 -0.576172,-0.253906 -0.936472,-0.265039 -1.879455,-0.369141 -2.814453,-0.369141 -1.274548,0 -2.573939,0.25267 -3.761719,0.761719 -0.158297,0.06784 -0.276508,0.209024 -0.43164,0.285156 -0.772193,-0.506041 -1.703177,-0.892578 -2.535156,-0.892578 h -7.107422 c -0.763265,0 -1.604802,0.334629 -2.345703,0.771484 -0.101529,-0.04518 -0.178952,-0.147265 -0.28125,-0.1875 -0.986439,-0.396681 -2.040294,-0.583984 -3.054688,-0.583984 h -4.34375 c -0.768043,0 -1.615949,0.337731 -2.359375,0.779297 -0.106201,-0.04752 -0.187867,-0.153207 -0.294922,-0.195313 -0.986432,-0.396678 -2.040288,-0.583984 -3.054687,-0.583984 h -4.34375 c -0.442189,0 -0.933662,0.144883 -1.41211,0.308594 -0.458308,-0.150582 -0.928822,-0.294922 -1.351562,-0.294922 h -2.109375 c -0.645158,0 -1.35413,0.23505 -2.017578,0.560547 -0.663048,-0.325036 -1.370967,-0.560547 -2.015625,-0.560547 h -2.109375 c -0.707468,0 -1.483688,0.28896 -2.191407,0.671875 -0.135481,-0.05589 -0.244784,-0.158937 -0.382812,-0.208985 C 34.637602,58.43411 33.430716,58.25 32.242187,58.25 c -0.754369,0 -1.500583,0.0902 -2.228515,0.244141 -0.556306,0.111501 -1.066338,0.408784 -1.597656,0.640625 -0.732496,-0.421939 -1.554635,-0.744141 -2.302735,-0.744141 h -2.066406 c -0.760306,0 -1.59859,0.331693 -2.337891,0.765625 -0.08809,-0.04991 -0.172195,-0.163193 -0.257812,-0.205078 -0.562204,-0.287223 -1.2837,-0.560547 -2.166016,-0.560547 h -2.09375 c -0.407402,0 -0.860526,0.142663 -1.302734,0.283203 -0.42082,-0.127815 -0.85101,-0.269531 -1.238281,-0.269531 h -2.109375 c -1.0018,0 -2.397914,0.491611 -3.244141,1.33789 -0.076588,0.07657 -0.1502102,0.156061 -0.2207031,0.238282 -0.700938,0.817803 -1.1035156,2.047097 -1.1035157,2.992187 v 9.535156 c 10e-8,0.944779 0.4024258,2.174279 1.1035157,2.992188 0.070493,0.08222 0.1441148,0.161706 0.2207031,0.238281 0.846116,0.846116 2.242341,1.337891 3.244141,1.337891 h 2.109375 c 0.39769,0 0.839556,-0.143007 1.271484,-0.277344 0.431306,0.133972 0.872424,0.277344 1.269531,0.277344 h 2.080078 c 0.744833,0 1.564257,-0.319487 2.294922,-0.738281 0.05308,0.03138 0.108365,0.110422 0.160156,0.138671 0.575797,0.314026 1.381598,0.59961 2.320313,0.59961 h 2.066406 c 0.706496,0 1.480416,-0.287926 2.1875,-0.669922 0.0879,0.03631 0.169126,0.08894 0.257813,0.123047 0.624437,0.240171 1.2658,0.40815 1.912109,0.52539 0.709421,0.138118 1.423191,0.203126 2.134766,0.203125 0.88238,0 1.765837,-0.08648 2.646484,-0.30664 0.01826,-0.0051 0.0365,-0.0103 0.05469,-0.01563 0.837122,-0.221127 1.670063,-0.634521 2.449218,-1.169922 0.467087,0.293054 0.880271,0.687667 1.38086,0.882812 0.01948,0.0073 0.03901,0.01446 0.05859,0.02148 1.077447,0.401758 2.207057,0.574219 3.308594,0.574219 1.101537,0 2.231482,-0.172585 3.308594,-0.574219 0.01958,-0.007 0.03911,-0.01418 0.05859,-0.02148 0.309462,-0.120638 0.554604,-0.388387 0.853515,-0.546875 0.786604,0.553581 1.784423,0.97461 2.66211,0.97461 h 2.080078 c 0.569499,0 1.20773,-0.167421 1.808594,-0.427735 0.02269,0.01127 0.04547,0.02234 0.06836,0.0332 0.496051,0.206688 1.134783,0.394531 1.935547,0.394531 h 2.597656 c 0.174023,0 0.438763,-0.1713 0.644531,-0.199219 0.311248,0.07248 0.630919,0.199219 0.917969,0.199219 h 2.080078 c 0.569499,0 1.207735,-0.167424 1.808594,-0.427735 0.02269,0.01127 0.04547,0.02234 0.06836,0.0332 0.496026,0.206675 1.134797,0.394531 1.935547,0.394531 h 2.597656 c 0.170987,0 0.431064,-0.170377 0.632813,-0.197266 0.30592,0.07018 0.620083,0.197266 0.902344,0.197266 h 7.107422 c 0.823579,0 1.742708,-0.381429 2.511718,-0.878906 0.163399,0.08076 0.288104,0.22922 0.455078,0.300781 1.1885,0.509358 2.487982,0.759765 3.761719,0.759765 0.926393,0 1.864025,-0.107888 2.78711,-0.36914 0.759672,-0.215001 1.491855,-0.556599 2.189453,-0.964844 0.798008,0.660854 1.961745,1.152344 2.939453,1.152344 H 93.3125 c 0.635717,0 1.449193,-0.293009 2.220703,-0.716797 0.753161,0.417693 1.573077,0.716797 2.259766,0.716797 h 2.109375 c 0.886736,0 1.898726,-0.427144 2.687496,-0.990235 0.21229,0.111386 0.37512,0.307287 0.59375,0.402344 1.17732,0.511887 2.47155,0.769531 3.74024,0.769531 1.26869,0 2.56492,-0.257681 3.74219,-0.769531 0.22804,-0.09915 0.39804,-0.303023 0.61914,-0.419922 0.79175,0.575284 1.82083,1.007813 2.71875,1.007813 h 2.08007 c 0.74521,0 1.5638,-0.318934 2.29493,-0.738281 0.0531,0.03136 0.10839,0.110441 0.16015,0.138671 0.57813,0.315321 1.3816,0.59961 2.32032,0.59961 h 2.0664 c 1.08224,0 2.45417,-0.561588 3.23047,-1.337891 0.77672,-0.777468 1.33789,-2.149763 1.33789,-3.230469 v -9.548828 c 0,-1.081523 -0.56205,-2.455156 -1.33984,-3.232422 -0.77551,-0.775035 -2.14609,-1.335937 -3.22852,-1.335937 h -2.0664 c -0.75997,0 -1.59863,0.331855 -2.3379,0.765625 -0.0883,-0.05008 -0.17197,-0.163059 -0.25781,-0.205078 -0.56219,-0.287213 -1.2837,-0.560547 -2.16601,-0.560547 h -2.09375 c -0.89804,0 -1.92823,0.433355 -2.72071,1.009766 -0.2209,-0.117226 -0.38917,-0.322738 -0.61718,-0.421875 -1.17727,-0.511848 -2.4735,-0.769532 -3.74219,-0.769532 z m -79.628908,1.369141 c -0.004,0.0025 -0.0058,0.0072 -0.0098,0.0098 -0.0042,0.0027 -0.0095,0.0032 -0.01367,0.0059 z m 71.873047,0.148437 0.220703,0.240235 c -0.03205,-0.03741 -0.08733,-0.04982 -0.121094,-0.08594 -0.03883,-0.04306 -0.05958,-0.114272 -0.09961,-0.154297 z M 25.519531,74.746101 c 0.0417,0.03426 0.0887,0.062 0.13086,0.0957 0.0064,0.0049 0.01119,0.01474 0.01758,0.01953 z M 96.763672,75.5 96.542969,75.738281 c 0.03947,-0.03947 0.05935,-0.109918 0.09766,-0.152344 0.03415,-0.03649 0.09064,-0.04813 0.123047,-0.08594 z m -58.728516,0.132812 -0.04297,0.0332 c 0.0074,-0.0055 0.01016,-0.01597 0.01758,-0.02148 0.0079,-0.0059 0.01754,-0.0058 0.02539,-0.01172 z m 50.490235,0.181641 -0.03711,0.02344 c 0.0067,-0.0041 0.0109,-0.01151 0.01758,-0.01563 0.006,-0.0038 0.0135,-0.004 0.01953,-0.0078 z" style="color:#000;-inkscape-font-specification:Heavitas;fill:#e6a21a;stroke-linecap:round;stroke-linejoin:round;stroke-miterlimit:128;-inkscape-stroke:none;paint-order:stroke fill markers"/><path d="m 106.9247,62.441665 c -0.72602,0 -1.41021,0.139603 -2.05245,0.418843 -0.64226,0.27924 -1.20067,0.660877 -1.67538,1.144892 -0.4747,0.474708 -0.8518,1.033332 -1.13104,1.675583 -0.27923,0.642251 -0.41884,1.326433 -0.41884,2.052455 0,0.726024 0.13961,1.409992 0.41884,2.052243 0.27924,0.642251 0.65634,1.205415 1.13104,1.689431 0.47471,0.474707 1.03312,0.851805 1.67538,1.131044 0.64224,0.27924 1.32643,0.418842 2.05245,0.418842 0.72603,0 1.4102,-0.139602 2.05246,-0.418842 0.64225,-0.279239 1.20066,-0.656337 1.67536,-1.131044 0.48402,-0.484016 0.86565,-1.04718 1.1449,-1.689431 0.27923,-0.642251 0.41884,-1.326219 0.41884,-2.052243 0,-0.726022 -0.13961,-1.410204 -0.41884,-2.052455 -0.27925,-0.642251 -0.66088,-1.200875 -1.1449,-1.675583 -0.4747,-0.484015 -1.03311,-0.865652 -1.67536,-1.144892 -0.64226,-0.27924 -1.32643,-0.418843 -2.05246,-0.418843 z m -23.623689,0.02791 c -0.744639,0 -1.442866,0.139816 -2.094425,0.419056 -0.65156,0.279239 -1.223803,0.656124 -1.717127,1.130831 -0.484015,0.474707 -0.865652,1.033119 -1.144892,1.67537 -0.279239,0.642251 -0.418842,1.326432 -0.418842,2.052456 0,0.726022 0.139603,1.410204 0.418842,2.052455 0.27924,0.642251 0.660877,1.200662 1.144892,1.675369 0.493324,0.474708 1.065567,0.851805 1.717127,1.131045 0.651559,0.27924 1.349786,0.418842 2.094425,0.418842 0.595711,0 1.140289,-0.0698 1.633614,-0.209421 0.493322,-0.139619 0.94001,-0.335191 1.340251,-0.586506 0.409551,-0.251316 0.777145,-0.55386 1.102924,-0.907564 0.325779,-0.363011 0.623783,-0.763234 0.893717,-1.20071 0.04654,-0.08377 0.05584,-0.162865 0.02791,-0.237329 -0.02791,-0.08377 -0.0839,-0.144281 -0.167667,-0.181514 l -1.982578,-0.781867 c -0.09308,-0.03723 -0.186005,-0.03723 -0.279086,0 -0.08377,0.03724 -0.149033,0.0932 -0.195574,0.167665 -0.242007,0.390935 -0.572431,0.712064 -0.991288,0.96338 -0.409552,0.242008 -0.870284,0.362813 -1.382223,0.362813 -0.353704,0 -0.688878,-0.07434 -1.005349,-0.22327 -0.307169,-0.148924 -0.577082,-0.344496 -0.809781,-0.586504 -0.2327,-0.242007 -0.414226,-0.521213 -0.544538,-0.837684 -0.130311,-0.32578 -0.19536,-0.665494 -0.19536,-1.019198 0,-0.344395 0.06505,-0.67957 0.19536,-1.005349 0.130312,-0.32578 0.311838,-0.609525 0.544538,-0.851533 0.232699,-0.251315 0.502612,-0.451427 0.809776,-0.600355 0.316472,-0.148927 0.651646,-0.223482 1.00535,-0.223482 0.539863,0 1.000595,0.116478 1.382223,0.349178 0.381625,0.223391 0.707297,0.54906 0.977226,0.977228 0.04654,0.07446 0.116555,0.130433 0.209636,0.167664 0.09308,0.03723 0.186005,0.03723 0.279086,0 l 1.982578,-0.78208 c 0.08377,-0.03723 0.13974,-0.09753 0.167663,-0.1813 0.02791,-0.08377 0.01863,-0.163079 -0.02791,-0.237542 -0.269933,-0.428168 -0.567938,-0.819098 -0.893716,-1.172802 -0.31647,-0.363012 -0.674772,-0.670095 -1.075014,-0.921411 -0.400246,-0.251315 -0.846933,-0.446887 -1.340255,-0.586507 -0.493322,-0.139619 -1.047193,-0.209421 -1.661521,-0.209421 z m -51.058932,0.01406 c -0.446783,0 -0.907728,0.05121 -1.382435,0.153604 -0.474708,0.09308 -0.907348,0.265313 -1.298284,0.51663 -0.381627,0.242007 -0.698217,0.572429 -0.949532,0.991288 -0.251316,0.418859 -0.376873,0.949393 -0.376873,1.591644 0,0.437475 0.06505,0.819113 0.19536,1.144892 0.13962,0.316472 0.321146,0.590925 0.544538,0.823624 0.223392,0.2327 0.474719,0.423519 0.753958,0.572447 0.288548,0.148928 0.577046,0.274698 0.865594,0.377086 0.288548,0.09308 0.567753,0.167421 0.837685,0.223269 0.27924,0.04654 0.521275,0.08846 0.72605,0.125695 0.214084,0.04654 0.423488,0.08392 0.628264,0.111848 0.204775,0.02792 0.381762,0.06509 0.53069,0.111634 0.158236,0.04654 0.283793,0.107048 0.376873,0.181512 0.09308,0.06516 0.139756,0.158296 0.139756,0.2793 0,0.232699 -0.107185,0.409473 -0.321268,0.530477 -0.214084,0.111695 -0.525921,0.167451 -0.935473,0.167451 -0.428167,0 -0.888898,-0.09293 -1.382222,-0.279086 -0.493324,-0.18616 -0.991226,-0.44224 -1.493857,-0.76802 -0.07446,-0.04654 -0.15831,-0.06037 -0.25139,-0.04176 -0.09308,0.01862 -0.167421,0.06508 -0.223269,0.139544 l -1.075228,1.549674 c -0.05585,0.07446 -0.07897,0.163064 -0.06967,0.265452 0.0093,0.09308 0.05123,0.167421 0.125696,0.223269 0.260623,0.214084 0.544368,0.418947 0.851532,0.614416 0.316472,0.186159 0.656185,0.3491 1.019198,0.488719 0.363011,0.139621 0.753942,0.246592 1.172801,0.321057 0.418859,0.08377 0.870298,0.125695 1.354313,0.125695 0.595711,0 1.13575,-0.06051 1.619765,-0.181513 0.493324,-0.130312 0.912133,-0.325883 1.256528,-0.586507 0.353704,-0.260623 0.628369,-0.591045 0.823837,-0.991288 0.195468,-0.409553 0.293147,-0.893622 0.293147,-1.452101 0,-0.595711 -0.121017,-1.088861 -0.363025,-1.479796 -0.2327,-0.400244 -0.525951,-0.721373 -0.879654,-0.96338 -0.344396,-0.251316 -0.716741,-0.437595 -1.116985,-0.558599 -0.400243,-0.130312 -0.767835,-0.227991 -1.102923,-0.293147 -0.06516,-0.0093 -0.214051,-0.03264 -0.44675,-0.06988 -0.232701,-0.04654 -0.474735,-0.107048 -0.726051,-0.181512 -0.251316,-0.07446 -0.474765,-0.16285 -0.670233,-0.265238 -0.195468,-0.102389 -0.293147,-0.218653 -0.293147,-0.348965 0,-0.130311 0.03717,-0.232744 0.111635,-0.307208 0.08377,-0.07446 0.186203,-0.12568 0.307207,-0.153604 0.121004,-0.03723 0.246562,-0.05582 0.376873,-0.05582 0.13962,-0.0093 0.260637,-0.01406 0.363025,-0.01406 0.344396,0 0.721494,0.06526 1.131046,0.195573 0.40955,0.121004 0.851697,0.330408 1.326405,0.628264 0.07446,0.05584 0.158098,0.07444 0.251177,0.05582 0.09308,-0.01862 0.167634,-0.06508 0.223482,-0.139543 l 1.089076,-1.549888 c 0.05585,-0.07446 0.07897,-0.158097 0.06967,-0.251177 -0.0093,-0.09308 -0.05101,-0.172387 -0.125482,-0.237543 -0.567787,-0.437475 -1.163582,-0.767897 -1.787217,-0.991288 -0.614327,-0.2327 -1.312341,-0.348965 -2.094212,-0.348965 z m -15.051056,0.139538 c -0.09308,0 -0.172174,0.03263 -0.23733,0.09779 -0.06516,0.06516 -0.09779,0.14425 -0.09779,0.23733 v 9.550075 c 0,0.09308 0.03263,0.172174 0.09779,0.23733 0.06516,0.06516 0.14425,0.09779 0.23733,0.09779 h 2.080364 c 0.09308,0 0.172174,-0.03263 0.237329,-0.09779 0.06516,-0.06516 0.09757,-0.14425 0.09757,-0.23733 v -4.998414 c 0,-0.09308 0.02809,-0.144295 0.08394,-0.153603 0.06516,-0.01862 0.125665,0.0093 0.181513,0.08373 l 3.644099,5.124108 c 0.05585,0.07446 0.134942,0.139726 0.23733,0.195574 0.102388,0.05584 0.200067,0.08373 0.293147,0.08373 h 2.066303 c 0.09308,0 0.172174,-0.03263 0.23733,-0.09779 0.06516,-0.06516 0.09779,-0.14425 0.09779,-0.23733 v -9.55007 c 0,-0.09308 -0.03263,-0.172174 -0.09779,-0.23733 -0.06516,-0.06516 -0.14425,-0.09779 -0.23733,-0.09779 h -2.066303 c -0.09308,0 -0.172174,0.03263 -0.23733,0.09779 -0.06516,0.06516 -0.09779,0.144249 -0.09779,0.23733 v 4.998413 c 0,0.09308 -0.03263,0.144296 -0.09779,0.153603 -0.05585,0.0093 -0.111604,-0.02332 -0.167452,-0.09779 l -3.630031,-5.1239 c -0.05584,-0.07446 -0.135155,-0.134972 -0.237543,-0.181512 -0.102388,-0.05584 -0.200067,-0.08394 -0.293147,-0.08394 z m 32.196325,0 c -0.09308,0 -0.172174,0.03263 -0.237331,0.09779 -0.06516,0.06516 -0.09779,0.14425 -0.09779,0.23733 v 9.550075 c 0,0.09308 0.03263,0.172174 0.09779,0.23733 0.06516,0.06516 0.144251,0.09779 0.237331,0.09779 h 2.080364 c 0.09308,0 0.172174,-0.03263 0.237329,-0.09779 0.06516,-0.06516 0.09779,-0.14425 0.09779,-0.23733 v -2.261877 c 0,-0.09308 0.03241,-0.172174 0.09757,-0.23733 0.06516,-0.06516 0.14425,-0.09779 0.23733,-0.09779 h 0.307208 c 0.09308,0 0.190972,0.02788 0.29336,0.08372 0.102389,0.04654 0.181482,0.107049 0.23733,0.181512 0.288548,0.409553 0.577046,0.814528 0.865593,1.214771 0.297856,0.400244 0.595647,0.795927 0.893503,1.186863 0.05584,0.07446 0.134941,0.139513 0.237329,0.19536 0.111696,0.04654 0.214129,0.06988 0.307208,0.06988 h 2.596993 c 0.09308,0 0.153589,-0.04192 0.181513,-0.125695 0.02792,-0.09308 0.01388,-0.176926 -0.04197,-0.25139 -0.307163,-0.409551 -0.65617,-0.860991 -1.047106,-1.354314 -0.390935,-0.493323 -0.76328,-0.972641 -1.116984,-1.43804 -0.05584,-0.07446 -0.07444,-0.149018 -0.05582,-0.223482 0.02792,-0.08377 0.07914,-0.153573 0.153604,-0.209421 0.223392,-0.13962 0.423502,-0.31164 0.600355,-0.516417 0.176852,-0.214083 0.330499,-0.451578 0.460812,-0.712201 0.130311,-0.260624 0.227991,-0.535077 0.293146,-0.823625 0.07446,-0.297855 0.111635,-0.595859 0.111635,-0.893715 0,-0.539863 -0.09314,-1.033226 -0.2793,-1.480009 -0.176851,-0.446783 -0.428178,-0.832961 -0.753958,-1.158741 -0.316471,-0.325779 -0.702649,-0.577106 -1.158741,-0.753958 -0.456091,-0.18616 -0.953993,-0.2793 -1.493856,-0.2793 z m 10.052643,0 c -0.09308,0 -0.172174,0.03263 -0.23733,0.09779 -0.06516,0.06516 -0.09779,0.14425 -0.09779,0.23733 v 9.550075 c 0,0.09308 0.03263,0.172174 0.09779,0.23733 0.06516,0.06516 0.144249,0.09779 0.23733,0.09779 h 2.080363 c 0.09308,0 0.172174,-0.03263 0.23733,-0.09779 0.06516,-0.06516 0.09779,-0.14425 0.09779,-0.23733 v -2.261877 c 0,-0.09308 0.03241,-0.172174 0.09757,-0.23733 0.06516,-0.06516 0.144251,-0.09779 0.237331,-0.09779 h 0.307208 c 0.09308,0 0.190759,0.02788 0.293147,0.08372 0.102387,0.04654 0.181694,0.107049 0.237542,0.181512 0.288548,0.409553 0.577046,0.814528 0.865594,1.214771 0.297855,0.400244 0.595646,0.795927 0.893502,1.186863 0.05584,0.07446 0.134942,0.139513 0.237329,0.19536 0.111697,0.04654 0.214128,0.06988 0.307209,0.06988 h 2.596993 c 0.09308,0 0.153588,-0.04192 0.181512,-0.125695 0.02792,-0.09308 0.01388,-0.176926 -0.04197,-0.25139 -0.307162,-0.409552 -0.65617,-0.860991 -1.047105,-1.354315 -0.390936,-0.493323 -0.763281,-0.97264 -1.116984,-1.438039 -0.05585,-0.07446 -0.07444,-0.149019 -0.05582,-0.223482 0.02792,-0.08377 0.07914,-0.153573 0.153605,-0.209421 0.223391,-0.139621 0.423503,-0.311641 0.600355,-0.516417 0.176851,-0.214083 0.330287,-0.451578 0.460598,-0.712202 0.130312,-0.260623 0.228204,-0.535076 0.293361,-0.823624 0.07446,-0.297855 0.111634,-0.595859 0.111634,-0.893715 0,-0.539864 -0.09314,-1.033226 -0.279299,-1.480009 -0.176852,-0.446783 -0.42818,-0.832961 -0.75396,-1.158741 -0.316471,-0.32578 -0.702648,-0.577107 -1.15874,-0.753959 -0.456091,-0.18616 -0.953994,-0.279299 -1.493857,-0.279299 z m 10.024734,0 c -0.09308,0 -0.172174,0.03263 -0.237329,0.09779 -0.06516,0.06516 -0.09779,0.14425 -0.09779,0.23733 v 9.550075 c 0,0.09308 0.03263,0.172174 0.09779,0.23733 0.06516,0.06516 0.144249,0.09779 0.237329,0.09779 h 7.106686 c 0.09308,0 0.172174,-0.03263 0.23733,-0.09779 0.06516,-0.06516 0.09757,-0.14425 0.09757,-0.23733 v -1.926761 c 0,-0.09308 -0.03241,-0.172174 -0.09757,-0.237329 -0.06516,-0.06516 -0.14425,-0.09779 -0.23733,-0.09779 H 72.22917 c -0.09308,0 -0.172174,-0.03263 -0.23733,-0.09779 -0.06516,-0.06516 -0.09779,-0.144249 -0.09779,-0.237329 v -0.530478 c 0,-0.09308 0.03263,-0.172174 0.09779,-0.237329 0.06516,-0.06516 0.144251,-0.09779 0.23733,-0.09779 h 3.783642 c 0.09308,0 0.172174,-0.03263 0.23733,-0.09779 0.06516,-0.06516 0.09779,-0.144249 0.09779,-0.237329 v -1.926761 c 0,-0.09308 -0.03263,-0.172173 -0.09779,-0.23733 -0.06516,-0.06516 -0.144249,-0.09779 -0.23733,-0.09779 H 72.22917 c -0.09308,0 -0.172174,-0.03263 -0.23733,-0.09779 -0.06516,-0.06516 -0.09779,-0.14425 -0.09779,-0.23733 v -0.586294 c 0,-0.09308 0.03263,-0.172174 0.09779,-0.23733 0.06516,-0.06516 0.144251,-0.09779 0.23733,-0.09779 h 4.342241 c 0.09308,0 0.172174,-0.03263 0.23733,-0.09779 0.06516,-0.06516 0.09757,-0.14425 0.09757,-0.23733 v -1.898851 c 0,-0.09308 -0.03241,-0.172174 -0.09757,-0.23733 -0.06516,-0.06516 -0.14425,-0.09779 -0.23733,-0.09779 z m 19.099935,0 c -0.09308,0 -0.172173,0.03263 -0.237327,0.09779 -0.06516,0.06516 -0.09779,0.14425 -0.09779,0.23733 v 1.898851 c 0,0.09308 0.03261,0.172174 0.09779,0.23733 0.06516,0.06516 0.144251,0.09779 0.237327,0.09779 h 1.982578 c 0.10239,0 0.181483,0.03263 0.237333,0.09779 0.06516,0.06516 0.09778,0.144251 0.09778,0.23733 v 6.980991 c 0,0.09308 0.03261,0.172174 0.09779,0.23733 0.06516,0.06516 0.144251,0.09779 0.237327,0.09779 h 2.094215 c 0.102386,0 0.181483,-0.03263 0.237327,-0.09779 0.06516,-0.06516 0.09779,-0.14425 0.09779,-0.23733 v -6.980991 c 0,-0.09308 0.03261,-0.172174 0.09778,-0.23733 0.06516,-0.06516 0.144251,-0.09779 0.237332,-0.09779 h 1.954665 c 0.102391,0 0.181484,-0.03263 0.237328,-0.09779 0.06517,-0.06516 0.09779,-0.14425 0.09779,-0.23733 v -1.898851 c 0,-0.09308 -0.03263,-0.172174 -0.09779,-0.23733 -0.05583,-0.06516 -0.134937,-0.09779 -0.237328,-0.09779 z m 25.43882,0 c -0.0931,0 -0.17239,0.03263 -0.23754,0.09779 -0.0652,0.06516 -0.0976,0.14425 -0.0976,0.23733 v 9.550075 c 0,0.09308 0.0324,0.172174 0.0976,0.23733 0.0652,0.06516 0.14446,0.09779 0.23754,0.09779 h 2.08015 c 0.0931,0 0.17239,-0.03263 0.23755,-0.09779 0.0652,-0.06516 0.0976,-0.14425 0.0976,-0.23733 v -4.998414 c 0,-0.09308 0.0281,-0.144295 0.0839,-0.153603 0.0652,-0.01862 0.12546,0.0093 0.18131,0.08373 l 3.6441,5.124108 c 0.0558,0.07446 0.13493,0.139726 0.23733,0.195574 0.10238,0.05584 0.20028,0.08373 0.29336,0.08373 h 2.0663 c 0.0931,0 0.17217,-0.03263 0.23733,-0.09779 0.0652,-0.06516 0.0978,-0.14425 0.0978,-0.23733 v -9.55007 c 0,-0.09308 -0.0326,-0.172174 -0.0978,-0.23733 -0.0652,-0.06516 -0.14425,-0.09779 -0.23733,-0.09779 h -2.0663 c -0.0931,0 -0.17218,0.03263 -0.23733,0.09779 -0.0652,0.06516 -0.0978,0.144249 -0.0978,0.23733 v 4.998413 c 0,0.09308 -0.0326,0.144296 -0.0978,0.153603 -0.0558,0.0093 -0.1116,-0.02332 -0.16745,-0.09779 l -3.63025,-5.123896 c -0.0558,-0.07446 -0.13494,-0.134972 -0.23733,-0.181512 -0.10239,-0.05584 -0.20007,-0.08394 -0.29315,-0.08394 z m -101.461906,0.01406 c -0.102388,0 -0.186021,0.03263 -0.251177,0.09779 -0.05584,0.06515 -0.08394,0.144247 -0.08394,0.237326 v 9.536014 c 0,0.09308 0.02809,0.172174 0.08394,0.23733 0.06516,0.06516 0.148789,0.09779 0.251177,0.09779 h 2.108273 c 0.09308,0 0.172174,-0.03263 0.23733,-0.09779 0.06516,-0.06516 0.09779,-0.14425 0.09779,-0.23733 v -9.536007 c 0,-0.09308 -0.03263,-0.172174 -0.09779,-0.23733 -0.06516,-0.06516 -0.144251,-0.09779 -0.23733,-0.09779 z m 25.82975,0 c -0.09308,0 -0.172174,0.03263 -0.23733,0.09779 -0.06516,0.06516 -0.09779,0.144251 -0.09779,0.23733 v 5.654585 c 0,0.660868 0.106973,1.261202 0.321056,1.801065 0.214084,0.539863 0.516628,1.000595 0.907563,1.382223 0.390935,0.381627 0.86096,0.679418 1.410131,0.893502 0.549171,0.204775 1.159011,0.307208 1.829187,0.307208 0.670174,0 1.279802,-0.102433 1.828973,-0.307208 0.549171,-0.214084 1.019196,-0.511875 1.410131,-0.893502 0.390935,-0.381628 0.688726,-0.84236 0.893502,-1.382223 0.214084,-0.539863 0.321269,-1.140197 0.321269,-1.801065 v -5.654585 c 0,-0.09308 -0.03263,-0.172174 -0.09779,-0.23733 -0.06516,-0.06516 -0.144249,-0.09779 -0.23733,-0.09779 h -2.108272 c -0.09308,0 -0.172174,0.03263 -0.23733,0.09779 -0.06516,0.06516 -0.09779,0.14425 -0.09779,0.23733 v 5.654585 c 0,0.363012 -0.06051,0.665555 -0.181513,0.907563 -0.111696,0.2327 -0.251298,0.418766 -0.418842,0.558385 -0.167544,0.130313 -0.34907,0.223452 -0.544538,0.2793 -0.195467,0.05585 -0.37224,0.08373 -0.530476,0.08373 -0.158236,0 -0.335223,-0.02788 -0.530691,-0.08373 -0.195467,-0.05584 -0.381533,-0.148987 -0.558385,-0.2793 C 41.247515,69.953267 41.10316,69.767201 40.982156,69.534501 40.87046,69.292493 40.814704,68.98995 40.814704,68.626938 v -5.654585 c 0,-0.09308 -0.03263,-0.172174 -0.09779,-0.23733 -0.06516,-0.06516 -0.144249,-0.09779 -0.237329,-0.09779 z m 59.422142,0 c -0.102383,0 -0.186018,0.03263 -0.251174,0.09779 -0.05583,0.06516 -0.08394,0.144251 -0.08394,0.23733 v 9.536014 c 0,0.09308 0.02812,0.172174 0.08394,0.23733 0.06517,0.06516 0.148791,0.09779 0.251174,0.09779 h 2.108278 c 0.09308,0 0.172166,-0.03263 0.237326,-0.09779 0.0652,-0.06516 0.0978,-0.14425 0.0978,-0.23733 v -9.536011 c 0,-0.09308 -0.0326,-0.172174 -0.0978,-0.23733 -0.0652,-0.06516 -0.144248,-0.09779 -0.237326,-0.09779 z m 9.131234,2.471298 c 0.3444,0 0.67007,0.07434 0.97722,0.223268 0.30717,0.139621 0.57708,0.330439 0.80978,0.572447 0.23271,0.232699 0.41423,0.511905 0.54454,0.837684 0.13032,0.316472 0.19557,0.647107 0.19557,0.991503 0,0.353703 -0.0653,0.688665 -0.19557,1.005136 -0.13031,0.316472 -0.31183,0.595677 -0.54454,0.837685 -0.2327,0.242007 -0.50261,0.437579 -0.80978,0.586507 -0.30715,0.139619 -0.63282,0.209421 -0.97722,0.209421 -0.34439,0 -0.67028,-0.06981 -0.97744,-0.209421 -0.30717,-0.148928 -0.57707,-0.3445 -0.80978,-0.586507 -0.22339,-0.242008 -0.40016,-0.521214 -0.53047,-0.837685 -0.13032,-0.316472 -0.19558,-0.651434 -0.19558,-1.005137 0,-0.344396 0.0653,-0.67503 0.19558,-0.991502 0.13031,-0.325779 0.30708,-0.604985 0.53047,-0.837684 0.23271,-0.242008 0.50261,-0.432827 0.80978,-0.572447 0.30716,-0.148928 0.63305,-0.223268 0.97744,-0.223268 z m -54.786969,0.08372 h 1.48001 c 0.195467,0 0.358408,0.04192 0.48872,0.125696 0.13962,0.07446 0.246592,0.172143 0.321056,0.293147 0.08377,0.111696 0.139741,0.232713 0.167664,0.363025 0.03723,0.121004 0.05582,0.227975 0.05582,0.321056 0,0.176851 -0.03263,0.3305 -0.09779,0.460811 -0.06516,0.130312 -0.14879,0.242037 -0.251178,0.335117 -0.102388,0.08377 -0.214113,0.148821 -0.335117,0.195361 -0.121004,0.03723 -0.237481,0.05603 -0.349176,0.05603 h -1.48001 c -0.09308,0 -0.172174,-0.03263 -0.23733,-0.09779 -0.06516,-0.06516 -0.09757,-0.14425 -0.09757,-0.23733 v -1.480009 c 0,-0.09308 0.03241,-0.172174 0.09757,-0.23733 0.06516,-0.06516 0.14425,-0.09779 0.23733,-0.09779 z m 10.052644,0 h 1.480009 c 0.195467,0 0.358409,0.04192 0.48872,0.125696 0.13962,0.07446 0.246592,0.172143 0.321056,0.293147 0.08377,0.111696 0.139741,0.232713 0.167665,0.363025 0.03724,0.121004 0.05582,0.227975 0.05582,0.321056 0,0.176851 -0.03263,0.3305 -0.09779,0.460811 -0.06516,0.130312 -0.149003,0.242037 -0.251391,0.335117 -0.102388,0.08377 -0.2139,0.148821 -0.334903,0.195361 -0.121004,0.03723 -0.237482,0.05603 -0.349178,0.05603 h -1.480006 c -0.09308,0 -0.172174,-0.03263 -0.23733,-0.09779 -0.06516,-0.06516 -0.09757,-0.14425 -0.09757,-0.23733 v -1.480009 c 0,-0.09308 0.03242,-0.172174 0.09757,-0.23733 0.06516,-0.06516 0.14425,-0.09779 0.23733,-0.09779 z" style="color:#000;-inkscape-font-specification:Heavitas;display:inline;fill:#fff;stroke-linecap:round;stroke-linejoin:round;stroke-miterlimit:128;-inkscape-stroke:none;paint-order:stroke fill markers"/></svg>