<svg xmlns="http://www.w3.org/2000/svg" xml:space="preserve" width="512" height="512" viewBox="0 0 135.46666 135.46667"><path d="M 135.46666,0 H 67.733328 L 95.613796,27.880468 0,123.49427 v 11.97239 h 11.97239 l 95.6138,-95.613796 27.88047,27.880468 z" style="fill:#987de8;fill-opacity:1;stroke:none;stroke-width:33.8667;stroke-miterlimit:128;stroke-dasharray:none;stroke-opacity:1;paint-order:stroke fill markers"/><path d="m 43.185477,48.683849 c -1.018332,0 -2.431807,0.490433 -3.298506,1.357024 -0.07679,0.07722 -0.150569,0.157382 -0.221176,0.240295 -0.726004,0.846986 -1.120861,2.091265 -1.120861,3.043225 v 11.615312 c 0,0.390326 0.109068,0.840967 0.238228,1.283125 -0.318824,0.121992 -0.656563,0.147318 -0.927592,0.318327 l 0.185518,0.134876 c -0.02531,-0.01969 -0.0715,-0.0143 -0.09767,-0.03359 -0.03563,-0.02659 -0.06384,-0.07275 -0.09974,-0.09767 -0.02671,0.01696 -0.06591,0.01417 -0.09198,0.03152 -0.02391,-0.01592 -0.05926,-0.01386 -0.08371,-0.02945 -0.02685,0.0185 -0.04139,0.06276 -0.06821,0.08217 -0.03712,0.0268 -0.101481,0.01894 -0.136943,0.04651 l 0.185519,-0.134359 C 36.904534,66.071811 35.985324,65.665758 35.103283,65.665758 H 32.84399 c -0.870114,0 -1.767622,0.403276 -2.509925,0.863514 l 0.201022,0.146244 c -0.03575,-0.0278 -0.09501,-0.04453 -0.132809,-0.07183 -0.02624,-0.01897 -0.0498,-0.0544 -0.07596,-0.07235 -0.01035,0.0064 -0.02488,0.0048 -0.03514,0.01137 -0.707068,-0.480592 -1.683672,-0.87695 -2.677873,-0.87695 h -2.767789 c -0.720996,0 -1.612764,0.380317 -2.427759,0.902788 -0.140255,-0.06833 -0.241666,-0.201976 -0.384473,-0.264067 -1.316205,-0.57226 -2.757994,-0.859379 -4.183724,-0.859379 -1.425729,0 -2.86815,0.287393 -4.183724,0.859379 -1.244661,0.541159 -2.396861,1.325877 -3.35535,2.299085 -0.9519377,0.955895 -1.719181,2.09671 -2.2536095,3.325895 -0.5722651,1.316209 -0.8593791,2.757998 -0.8593791,4.183724 0,1.425726 0.2871145,2.869583 0.8593791,4.185791 0.5341933,1.228644 1.2935387,2.369049 2.2360395,3.330029 0.0098,0.0097 0.01959,0.01934 0.02946,0.02894 0.959835,0.959835 2.108443,1.726979 3.343465,2.263944 1.315574,0.571988 2.757995,0.861446 4.183724,0.861446 1.42573,0 2.867519,-0.289184 4.183724,-0.861446 1.091431,-0.474535 2.0679,-1.192695 2.952791,-1.999878 0.328273,0.631027 0.708519,1.145435 1.054716,1.453142 0.06901,0.06157 0.140016,0.120852 0.212907,0.177766 0.762349,0.592949 1.921814,1.009758 2.939873,1.009758 h 2.189013 c 0.854121,0 1.827944,-0.302707 2.590023,-0.783415 0.762159,0.481187 1.735208,0.783415 2.590023,0.783415 h 2.19108 c 0.886892,0 1.920222,-0.301159 2.687692,-0.81287 0.08625,-0.05736 0.170368,-0.117859 0.252181,-0.181385 0.125385,-0.09751 0.185869,-0.291829 0.306441,-0.408243 0.01105,0.01138 0.01625,0.03174 0.02739,0.04289 0.794056,0.794055 2.184848,1.359607 3.280937,1.359607 h 2.531628 c 0.948445,0 2.056825,-0.466094 2.869076,-1.09399 0.189479,0.135929 0.373949,0.376432 0.554488,0.474906 0.602312,0.328546 1.430841,0.619084 2.3828,0.619084 h 2.514059 c 0.52257,0 1.111722,-0.14308 1.671732,-0.363285 0.560631,0.22067 1.15079,0.363285 1.6738,0.363285 h 8.644433 c 0.466994,0 0.988869,-0.145591 1.493966,-0.324528 0.505143,0.178947 1.027622,0.324528 1.494482,0.324528 h 2.529045 c 0.699583,0 1.46965,-0.277996 2.177645,-0.650606 0.01877,0.01052 0.04033,0.03895 0.05891,0.04909 0.129389,0.07063 0.262379,0.134448 0.398425,0.191203 0.520097,0.216681 1.181016,0.410311 2.001945,0.410311 h 3.157947 c 0.513086,0 1.221031,-0.286826 1.89084,-0.586011 0.685055,0.258691 1.388426,0.447126 2.101681,0.576192 0.800178,0.156288 1.611645,0.230477 2.427759,0.230477 1.011275,0 2.010734,-0.101568 2.995682,-0.347782 0.01829,-0.0044 0.03655,-0.0088 0.05478,-0.01344 0.521215,-0.13768 1.000472,-0.481403 1.507919,-0.718819 0.811842,0.505375 1.741148,0.859379 2.50579,0.859379 h 2.529561 c 0.837412,0 1.776554,-0.387252 2.560564,-0.896586 0.82274,0.529959 1.78387,0.896586 2.56832,0.896586 h 2.54662 c 0.53909,0 1.1493,-0.142059 1.72496,-0.375171 0.60059,0.240748 1.2202,0.375171 1.73994,0.375171 h 2.5647 c 0.478,0 1.0129,-0.145451 1.52911,-0.33228 0.51562,0.186428 1.0503,0.33228 1.52755,0.33228 h 2.56419 c 1.09642,0 2.48758,-0.56379 3.28145,-1.35754 0.57842,-0.578051 0.94896,-1.468185 1.15394,-2.344043 0.4951,-0.09497 0.99589,-0.06496 1.48466,-0.24598 0.013,-0.0051 0.0259,-0.01027 0.0388,-0.0155 1.0672,-0.407474 2.10949,-1.018663 2.98638,-1.871203 h 0.002 c 0.84785,-0.824956 1.5295,-1.864846 1.94561,-2.974496 0.003,-0.0091 0.007,-0.01825 0.01,-0.02739 0.38373,-1.044621 0.56431,-2.154226 0.56431,-3.242179 0,-1.17733 -0.2502,-2.389094 -0.73639,-3.484542 -0.43507,-1.002715 -1.065,-1.943506 -1.84175,-2.726449 -0.80348,-0.820318 -1.78275,-1.474045 -2.81998,-1.912028 -1.08853,-0.464317 -2.27766,-0.695048 -3.43597,-0.695048 h -5.1971 c -0.49013,0 -1.04,0.143796 -1.56838,0.339514 -0.5032,-0.177648 -1.02325,-0.324011 -1.48828,-0.324011 h -2.56418 c -0.51299,0 -1.12555,0.128663 -1.71876,0.363285 -0.58187,-0.238396 -1.20054,-0.378788 -1.74615,-0.378788 h -2.54713 c -0.78466,0 -1.74526,0.365649 -2.56832,0.89607 -0.783979,-0.509375 -1.723099,-0.89607 -2.560564,-0.89607 h -2.529044 c -0.202169,0 -0.452018,0.102708 -0.677995,0.14056 0.629682,-0.770384 1.308459,-1.518378 1.680001,-2.43396 0.0026,-0.0064 0.0052,-0.01274 0.0078,-0.01912 0.539362,-1.348402 0.777214,-2.78863 0.777214,-4.220931 0,-1.432301 -0.237252,-2.874827 -0.784965,-4.224548 -0.539681,-1.329924 -1.38401,-2.557744 -2.439645,-3.535185 -0.0033,-0.0033 -0.0065,-0.0066 -0.0098,-0.0098 -1.944627,-1.789054 -4.625955,-2.679423 -7.230566,-2.679423 h -4.636927 c -0.531114,0 -1.130963,0.142117 -1.699121,0.36897 -0.567663,-0.226412 -1.166654,-0.36897 -1.697054,-0.36897 h -2.511991 c -0.956968,0 -2.081352,0.471709 -2.894397,1.108977 -0.2305,-0.161523 -0.441012,-0.419974 -0.664042,-0.529167 -0.583739,-0.299285 -1.328446,-0.57981 -2.232422,-0.57981 h -2.549198 c -1.096396,0 -2.480495,0.556682 -3.280937,1.357024 -0.13633,0.136328 -0.213125,0.355457 -0.33383,0.521415 -0.317176,-0.353719 -0.572538,-0.804893 -0.910539,-1.023194 -0.703364,-0.459922 -1.6413,-0.837675 -2.605525,-0.837675 H 57.87502 c -1.002612,0 -2.028686,0.381257 -2.740402,0.868681 -0.664156,0.454341 -1.331321,1.177612 -1.704805,2.017965 -0.008,0.01752 -0.01597,0.03509 -0.02377,0.05271 l -2.718697,6.349483 h -0.312126 v -4.665865 c 0,-1.10886 -0.565373,-2.489367 -1.359607,-3.28352 -0.79403,-0.794031 -2.18689,-1.357024 -3.283004,-1.357024 z M 30.156298,66.494132 c -0.0549,0.0366 -0.09812,0.107765 -0.152445,0.148311 -0.02632,0.01941 -0.07218,0.01377 -0.09767,0.03359 z m 63.779052,18.498095 -0.04289,0.03101 c 0.0063,-0.0047 0.0092,-0.01289 0.0155,-0.01757 0.0085,-0.0064 0.01889,-0.007 0.02739,-0.01344 z" style="color:#000;-inkscape-font-specification:Heavitas;fill:#987de8;stroke-linecap:round;stroke-linejoin:round;stroke-miterlimit:128;-inkscape-stroke:none;paint-order:stroke fill markers;fill-opacity:1"/><path d="m 43.186066,52.916661 c -0.124534,0 -0.226517,0.03944 -0.305766,0.118679 -0.06793,0.07925 -0.101576,0.175968 -0.101576,0.28918 v 11.615461 c 0,0.113212 0.03364,0.209414 0.101576,0.288663 0.07925,0.07925 0.181232,0.118679 0.305766,0.118679 h 8.473849 c 0.113212,0 0.209415,-0.03944 0.288663,-0.118679 0.07925,-0.07925 0.119197,-0.175451 0.119197,-0.288663 v -2.309825 c 0,-0.113212 -0.03994,-0.209415 -0.119197,-0.288664 -0.07925,-0.07925 -0.175451,-0.118679 -0.288663,-0.118679 H 46.54845 c -0.124534,0 -0.226518,-0.03944 -0.305767,-0.118678 -0.06793,-0.07925 -0.101575,-0.17545 -0.101575,-0.288662 V 53.32452 c 0,-0.113212 -0.03994,-0.209931 -0.119197,-0.28918 -0.07925,-0.07925 -0.17545,-0.118679 -0.288663,-0.118679 z m 24.199523,0 c -0.113212,0 -0.209933,0.03944 -0.289182,0.118679 -0.07925,0.07925 -0.118678,0.175968 -0.118678,0.28918 v 11.615461 c 0,0.113212 0.03944,0.209414 0.118678,0.288663 0.07925,0.07925 0.17597,0.118679 0.289182,0.118679 h 2.53008 c 0.113212,0 0.209414,-0.03944 0.288663,-0.118679 0.07925,-0.07925 0.118678,-0.175451 0.118678,-0.288663 V 58.86043 c 0,-0.113212 0.03417,-0.175765 0.102095,-0.187086 0.07925,-0.02265 0.152845,0.01152 0.220773,0.102094 l 4.432045,6.232434 c 0.06793,0.09057 0.164129,0.169946 0.288663,0.237875 0.124534,0.06793 0.24386,0.101576 0.357072,0.101576 h 2.512977 c 0.113212,0 0.209415,-0.03944 0.288663,-0.118679 0.07925,-0.07925 0.119197,-0.175451 0.119197,-0.288663 V 53.32452 c 0,-0.113212 -0.03994,-0.209931 -0.119197,-0.28918 -0.07925,-0.07925 -0.175451,-0.118679 -0.288663,-0.118679 h -2.512977 c -0.113212,0 -0.209416,0.03944 -0.288664,0.118679 -0.07925,0.07925 -0.119196,0.175968 -0.119196,0.28918 v 6.079032 c 0,0.113213 -0.03944,0.175767 -0.118679,0.187088 -0.06793,0.01132 -0.135744,-0.02811 -0.203671,-0.118679 l -4.41546,-6.232432 c -0.06793,-0.09057 -0.16413,-0.164168 -0.288663,-0.220774 -0.124534,-0.06793 -0.243342,-0.102094 -0.356554,-0.102094 z m 14.247634,0 c -0.113212,0 -0.209414,0.03944 -0.288663,0.118679 -0.07925,0.07925 -0.119197,0.175968 -0.119197,0.28918 v 11.615461 c 0,0.113212 0.03994,0.209414 0.119197,0.288663 0.07925,0.07925 0.175451,0.118679 0.288663,0.118679 h 4.635716 c 0.883056,0 1.686841,-0.129851 2.411401,-0.39024 0.735879,-0.260389 1.387209,-0.645716 1.953272,-1.155172 0.611346,-0.566062 1.075532,-1.239478 1.392527,-2.020643 0.316995,-0.792487 0.475232,-1.67565 0.475232,-2.649276 0,-0.973627 -0.158237,-1.85101 -0.475232,-2.632175 -0.316995,-0.781165 -0.781181,-1.454581 -1.392527,-2.020643 -1.132125,-1.041554 -2.587239,-1.562513 -4.364673,-1.562513 z m -23.757977,0.0171 c -0.124533,0 -0.243341,0.03944 -0.356554,0.118678 -0.10189,0.06793 -0.175488,0.153087 -0.220772,0.254978 l -4.924379,11.496781 c -0.04529,0.09057 -0.06263,0.16943 -0.05131,0.237357 0.01132,0.06793 0.03971,0.124701 0.08499,0.169986 0.03397,0.04529 0.08495,0.07946 0.152882,0.102095 0.05661,0.02265 0.113379,0.03369 0.169986,0.03369 h 2.920838 c 0.113211,0 0.220457,-0.03364 0.322348,-0.101575 0.113213,-0.07925 0.192591,-0.170189 0.237876,-0.272081 l 0.475751,-1.018872 c 0.04528,-0.101891 0.118881,-0.186531 0.220772,-0.254459 0.113213,-0.07925 0.23202,-0.119196 0.356554,-0.119196 h 3.583164 c 0.113212,0 0.220457,0.03994 0.322349,0.119196 0.113212,0.06793 0.198371,0.152568 0.254977,0.254459 l 0.458648,1.018872 c 0.05661,0.101892 0.135466,0.192832 0.237357,0.272081 0.113212,0.06793 0.232539,0.101575 0.357072,0.101575 h 2.903736 c 0.181139,0 0.299947,-0.05625 0.356553,-0.169466 0.06793,-0.113212 0.07948,-0.220977 0.03421,-0.322868 L 60.813186,53.307418 c -0.04529,-0.101891 -0.124144,-0.187049 -0.237357,-0.254976 -0.101891,-0.07925 -0.209656,-0.118679 -0.322867,-0.118679 z m 27.120362,3.141611 h 1.273331 c 0.316994,0 0.639768,0.03944 0.968084,0.118678 0.339637,0.07925 0.645587,0.232224 0.917297,0.458648 0.283031,0.215104 0.509084,0.526317 0.678903,0.933881 0.18114,0.396243 0.272079,0.917202 0.272079,1.562513 0,0.64531 -0.09094,1.171533 -0.272079,1.579097 -0.169819,0.396243 -0.39061,0.707974 -0.66232,0.934399 -0.271709,0.215103 -0.577141,0.362297 -0.916778,0.441546 -0.339637,0.07925 -0.668192,0.118678 -0.985186,0.118678 h -1.273331 c -0.113213,0 -0.209416,-0.03944 -0.288665,-0.118678 -0.07925,-0.07925 -0.119197,-0.175451 -0.119197,-0.288663 v -5.332757 c 0,-0.113213 0.03994,-0.209415 0.119197,-0.288664 0.07925,-0.07925 0.175452,-0.118678 0.288665,-0.118678 z m -25.948606,2.037745 c 0.05661,0 0.107597,0.051 0.152882,0.152883 0.135856,0.328316 0.283049,0.684738 0.441547,1.069661 0.158497,0.373601 0.294647,0.702156 0.407859,0.985186 0.05661,0.101892 0.05661,0.192314 0,0.271562 -0.04529,0.06793 -0.124662,0.102094 -0.237874,0.102094 h -1.511208 c -0.124534,0 -0.209693,-0.03417 -0.254976,-0.102094 -0.04529,-0.07925 -0.04529,-0.16967 0,-0.271562 L 58.894638,58.266 c 0.04529,-0.101891 0.09575,-0.152883 0.152364,-0.152883 z m -41.19801,11.564669 c -0.883057,0 -1.71471,0.1698 -2.495875,0.509436 -0.781166,0.339638 -1.460881,0.803825 -2.038264,1.392529 -0.577383,0.577383 -1.03579,1.25658 -1.375427,2.037745 -0.339637,0.781165 -0.509436,1.613338 -0.509436,2.496394 0,0.883057 0.169799,1.715229 0.509436,2.496394 0.339637,0.781165 0.798044,1.466143 1.375427,2.054847 0.577383,0.577383 1.257098,1.03579 2.038264,1.375427 0.781165,0.339636 1.612818,0.509436 2.495875,0.509436 0.883056,0 1.715229,-0.1698 2.496394,-0.509436 0.781165,-0.339637 1.460361,-0.798044 2.037745,-1.375427 0.588704,-0.588704 1.052891,-1.273682 1.392529,-2.054847 0.339636,-0.781165 0.509436,-1.613337 0.509436,-2.496394 0,-0.883056 -0.1698,-1.715229 -0.509436,-2.496394 -0.339638,-0.781165 -0.803825,-1.460362 -1.392529,-2.037745 -0.577384,-0.588704 -1.25658,-1.052891 -2.037745,-1.392529 -0.781165,-0.339636 -1.613338,-0.509436 -2.496394,-0.509436 z m 69.591702,0.05079 c -0.543419,0 -1.103808,0.06255 -1.681192,0.187087 -0.577382,0.113212 -1.103605,0.322441 -1.579097,0.628115 -0.464171,0.294352 -0.84898,0.696504 -1.154654,1.20596 -0.305673,0.509455 -0.458648,1.154485 -0.458648,1.935651 0,0.532098 0.07938,0.996285 0.237876,1.392528 0.169818,0.384922 0.390609,0.719258 0.662319,1.002289 0.27171,0.283032 0.577141,0.514865 0.916778,0.696005 0.350958,0.18114 0.702119,0.334115 1.053077,0.458648 0.350958,0.113213 0.690557,0.203635 1.018872,0.271562 0.339637,0.0566 0.634026,0.107598 0.883093,0.152882 0.260389,0.0566 0.514828,0.101817 0.763895,0.135781 0.249067,0.03397 0.464595,0.07918 0.645735,0.135781 0.192461,0.0566 0.344918,0.130203 0.45813,0.220772 0.113213,0.07925 0.169985,0.192794 0.169985,0.33997 0,0.283031 -0.130369,0.498041 -0.390758,0.645217 -0.260388,0.135856 -0.639417,0.203672 -1.137551,0.203672 -0.520776,0 -1.081167,-0.113028 -1.681192,-0.339452 -0.600026,-0.226425 -1.205626,-0.538155 -1.816973,-0.934399 -0.09057,-0.0566 -0.192552,-0.07343 -0.305765,-0.05078 -0.113212,0.02264 -0.203633,0.07941 -0.271561,0.169985 l -1.308055,1.884863 c -0.06793,0.09057 -0.09579,0.198333 -0.08447,0.322867 0.01132,0.113212 0.06179,0.203633 0.152364,0.271561 0.316995,0.260389 0.662375,0.509566 1.035975,0.747312 0.384922,0.226425 0.798118,0.424609 1.239646,0.594429 0.441528,0.169818 0.917277,0.29967 1.426733,0.39024 0.509455,0.10189 1.058282,0.152882 1.646988,0.152882 0.724559,0 1.381151,-0.07361 1.969854,-0.220772 0.600026,-0.158498 1.109942,-0.396114 1.528828,-0.713108 0.430207,-0.316995 0.764025,-0.719147 1.00177,-1.20596 0.237746,-0.498134 0.356554,-1.086392 0.356554,-1.765667 0,-0.724557 -0.147194,-1.324896 -0.441546,-1.800388 -0.283031,-0.486813 -0.639454,-0.877403 -1.069661,-1.171755 -0.418885,-0.305673 -0.872029,-0.532245 -1.358843,-0.679421 -0.486813,-0.158498 -0.933657,-0.277305 -1.341222,-0.356554 -0.07925,-0.01132 -0.260609,-0.0397 -0.543641,-0.08499 -0.283029,-0.0566 -0.577417,-0.130206 -0.88309,-0.220775 -0.305674,-0.09057 -0.577456,-0.197816 -0.815202,-0.32235 -0.237746,-0.124534 -0.356554,-0.265946 -0.356554,-0.424444 0,-0.158496 0.04521,-0.283086 0.135781,-0.373656 0.101891,-0.09057 0.22648,-0.153123 0.373656,-0.187086 0.147175,-0.04529 0.300151,-0.06789 0.458648,-0.06789 0.169818,-0.01132 0.317012,-0.01659 0.441546,-0.01659 0.418885,0 0.877292,0.07886 1.375425,0.237357 0.498135,0.147176 1.035919,0.402134 1.613303,0.764414 0.09057,0.06793 0.192553,0.09053 0.305765,0.06789 0.113212,-0.02265 0.203634,-0.07942 0.271561,-0.169985 l 1.324639,-1.884864 c 0.06793,-0.09057 0.09632,-0.192552 0.085,-0.305765 -0.01132,-0.113212 -0.06231,-0.209414 -0.152883,-0.288662 -0.690597,-0.532099 -1.415004,-0.933733 -2.173527,-1.205442 -0.747203,-0.283025 -1.596718,-0.424956 -2.547703,-0.424956 z m -62.594856,0.169985 c -0.124533,0 -0.214955,0.051 -0.271561,0.152883 -0.04528,0.09057 -0.04002,0.203596 0.01658,0.339452 l 4.076009,11.548088 c 0.02264,0.09057 0.08467,0.180991 0.186569,0.271561 0.101891,0.07925 0.214917,0.118678 0.339451,0.118678 h 2.190628 c 0.124533,0 0.238078,-0.03364 0.33997,-0.101576 0.101891,-0.07925 0.169707,-0.175451 0.203671,-0.288663 l 1.868279,-5.655101 c 0.03397,-0.113213 0.09022,-0.169985 0.169467,-0.169985 0.09057,0 0.153123,0.05677 0.187086,0.169985 l 1.86776,5.655107 c 0.03397,0.113212 0.10178,0.209414 0.203672,0.288663 0.101891,0.06793 0.215436,0.101576 0.33997,0.101576 h 2.190628 c 0.124534,0 0.23756,-0.03364 0.339451,-0.101576 0.101891,-0.07925 0.175488,-0.175451 0.220773,-0.288663 l 4.109696,-11.598875 c 0.03397,-0.101892 0.02818,-0.198094 -0.0171,-0.288663 -0.04528,-0.101892 -0.129925,-0.152883 -0.254459,-0.152883 h -2.751371 c -0.124534,0 -0.237561,0.03944 -0.339452,0.118679 -0.101891,0.06793 -0.175488,0.153086 -0.220773,0.254977 l -1.952753,5.688792 c -0.04528,0.113212 -0.113619,0.169985 -0.204189,0.169985 -0.07925,0 -0.135503,-0.05677 -0.169467,-0.169985 l -1.868281,-5.67169 c -0.03396,-0.113213 -0.101779,-0.204152 -0.20367,-0.272079 -0.101891,-0.07925 -0.214918,-0.118679 -0.339452,-0.118679 h -2.258518 c -0.124533,0 -0.238079,0.03944 -0.33997,0.118679 -0.101891,0.06793 -0.169707,0.158866 -0.203671,0.272079 l -1.868278,5.638004 c -0.03397,0.113213 -0.096,0.169467 -0.18657,0.169467 -0.07925,0 -0.13602,-0.05625 -0.169984,-0.169467 l -1.935651,-5.655106 c -0.03397,-0.101891 -0.10178,-0.18705 -0.203671,-0.254977 -0.101891,-0.07925 -0.209656,-0.118679 -0.322867,-0.118679 z m 20.462966,0 c -0.113213,0 -0.209415,0.03944 -0.288664,0.118679 -0.07925,0.07925 -0.118679,0.175451 -0.118679,0.288663 v 11.615979 c 0,0.113212 0.03944,0.209414 0.118679,0.288663 0.07925,0.07925 0.175451,0.118678 0.288664,0.118678 h 2.530597 c 0.113213,0 0.209416,-0.03944 0.288665,-0.118678 0.07925,-0.07925 0.118678,-0.175451 0.118678,-0.288663 v -6.07955 c 0,-0.113213 0.03417,-0.175766 0.102094,-0.187088 0.07925,-0.02264 0.152846,0.01152 0.220773,0.102094 l 4.432045,6.232433 c 0.06793,0.09057 0.164129,0.169949 0.288663,0.237876 0.124534,0.06793 0.243342,0.101576 0.356554,0.101576 h 2.513495 c 0.113213,0 0.209415,-0.03944 0.288664,-0.118678 0.07925,-0.07925 0.118679,-0.175451 0.118679,-0.288663 V 70.305906 c 0,-0.113212 -0.03944,-0.209415 -0.118679,-0.288663 -0.07925,-0.07925 -0.175451,-0.118679 -0.288664,-0.118679 h -2.513495 c -0.113212,0 -0.209415,0.03944 -0.288664,0.118679 -0.07925,0.07925 -0.118679,0.175451 -0.118679,0.288663 v 6.079551 c 0,0.113212 -0.03994,0.175765 -0.119196,0.187087 -0.06793,0.01132 -0.135744,-0.02863 -0.203671,-0.119197 l -4.414942,-6.231916 c -0.06793,-0.09057 -0.16413,-0.164166 -0.288664,-0.220773 -0.124533,-0.06793 -0.243859,-0.102094 -0.357071,-0.102094 z m 14.196847,0 c -0.113213,0 -0.209416,0.03944 -0.288665,0.118679 -0.07925,0.07925 -0.118678,0.175451 -0.118678,0.288663 v 11.615979 c 0,0.113212 0.03944,0.209414 0.118678,0.288663 0.07925,0.07925 0.175452,0.118678 0.288665,0.118678 h 8.643834 c 0.113211,0 0.209414,-0.03944 0.288663,-0.118678 0.07925,-0.07925 0.118678,-0.175451 0.118678,-0.288663 v -2.34351 c 0,-0.113213 -0.03944,-0.209414 -0.118678,-0.288663 -0.07925,-0.07925 -0.175452,-0.119197 -0.288663,-0.119197 h -5.281451 c -0.113213,0 -0.209415,-0.03944 -0.288664,-0.118678 -0.07925,-0.07925 -0.118678,-0.175452 -0.118678,-0.288664 v -0.645217 c 0,-0.113213 0.03944,-0.209414 0.118678,-0.288663 0.07925,-0.07925 0.175451,-0.119197 0.288664,-0.119197 h 4.602029 c 0.113212,0 0.209414,-0.03944 0.288663,-0.118678 0.07925,-0.07925 0.119197,-0.175451 0.119197,-0.288664 V 74.95924 c 0,-0.113212 -0.03994,-0.209414 -0.119197,-0.288663 -0.07925,-0.07925 -0.175451,-0.119196 -0.288663,-0.119196 h -4.602029 c -0.113213,0 -0.209415,-0.03944 -0.288664,-0.118679 -0.07925,-0.07925 -0.118678,-0.175452 -0.118678,-0.288663 v -0.713108 c 0,-0.113212 0.03944,-0.209414 0.118678,-0.288663 0.07925,-0.07925 0.175451,-0.119197 0.288664,-0.119197 h 5.281451 c 0.113211,0 0.209414,-0.03944 0.288663,-0.118678 0.07925,-0.07925 0.118678,-0.17545 0.118678,-0.288663 v -2.309825 c 0,-0.113212 -0.03944,-0.209414 -0.118678,-0.288663 -0.07925,-0.07925 -0.175452,-0.118679 -0.288663,-0.118679 z m 11.632562,0 c -0.113213,0 -0.209415,0.03944 -0.288664,0.118679 -0.07925,0.07925 -0.118679,0.175451 -0.118679,0.288663 v 11.615979 c 0,0.113212 0.03944,0.209414 0.118679,0.288663 0.07925,0.07925 0.175451,0.118678 0.288664,0.118678 h 2.530597 c 0.113212,0 0.209415,-0.03944 0.288663,-0.118678 0.07925,-0.07925 0.118679,-0.175451 0.118679,-0.288663 V 79.17051 c 0,-0.113213 0.03944,-0.209414 0.118678,-0.288663 0.07925,-0.07925 0.175452,-0.118679 0.288664,-0.118679 h 0.373656 c 0.113212,0 0.232537,0.03417 0.357071,0.102095 0.124534,0.0566 0.220736,0.130203 0.288664,0.220773 0.350958,0.498134 0.701599,0.990189 1.052558,1.477003 0.362279,0.486813 0.724483,0.968342 1.086764,1.443835 0.06793,0.09057 0.164129,0.169429 0.288662,0.237356 0.135856,0.0566 0.260444,0.08499 0.373657,0.08499 h 3.158712 c 0.113213,0 0.18681,-0.051 0.220774,-0.152883 0.03397,-0.113212 0.01714,-0.215196 -0.05079,-0.305766 -0.373602,-0.498133 -0.798358,-1.046962 -1.27385,-1.646988 -0.475492,-0.600025 -0.928118,-1.18302 -1.358324,-1.749081 -0.06793,-0.09057 -0.09053,-0.180991 -0.06789,-0.271562 0.03397,-0.101891 0.096,-0.187049 0.186569,-0.254976 0.271709,-0.16982 0.515105,-0.379049 0.73021,-0.628115 0.215103,-0.260389 0.402245,-0.549514 0.560742,-0.866508 0.158497,-0.316995 0.277306,-0.650813 0.356554,-1.001771 0.09057,-0.36228 0.13578,-0.724484 0.13578,-1.086763 0,-0.656632 -0.113544,-1.256452 -0.33997,-1.799871 -0.215103,-0.543419 -0.520534,-1.013387 -0.916778,-1.40963 -0.384922,-0.396244 -0.85489,-0.702193 -1.409631,-0.917297 -0.55474,-0.226425 -1.16034,-0.339451 -1.816972,-0.339451 z m 23.808764,0 c -0.124533,0 -0.226517,0.03944 -0.305765,0.118679 -0.06793,0.07925 -0.102095,0.175451 -0.102095,0.288663 v 11.615979 c 0,0.113212 0.03417,0.209414 0.102095,0.288663 0.07925,0.07925 0.181232,0.118678 0.305765,0.118678 h 2.530078 c 0.113216,0 0.209423,-0.03944 0.288671,-0.118678 0.07928,-0.07925 0.119193,-0.175451 0.119193,-0.288663 v -3.634463 c 0,-0.113213 0.0336,-0.209416 0.101579,-0.288664 0.07927,-0.07925 0.18123,-0.118678 0.30576,-0.118678 h 3.498162 c 0.11322,0 0.20942,0.03944 0.28867,0.118678 0.0793,0.07925 0.11919,0.175451 0.11919,0.288664 v 3.634463 c 0,0.113212 0.0336,0.209414 0.10158,0.288663 0.0793,0.07925 0.18123,0.118678 0.30576,0.118678 h 2.54719 c 0.11321,0 0.20941,-0.03944 0.28866,-0.118678 0.0793,-0.07925 0.11919,-0.175451 0.11919,-0.288663 V 70.305906 c 0,-0.113212 -0.04,-0.209415 -0.11919,-0.288663 -0.0793,-0.07925 -0.17545,-0.118679 -0.28866,-0.118679 h -2.54719 c -0.12453,0 -0.22651,0.03944 -0.30576,0.118679 -0.0679,0.07925 -0.10158,0.175451 -0.10158,0.288663 v 4.024702 c 0,0.113213 -0.04,0.209934 -0.11919,0.289182 -0.0793,0.07925 -0.17545,0.118679 -0.28867,0.118679 h -3.498162 c -0.12453,0 -0.226511,-0.03944 -0.30576,-0.118679 -0.0679,-0.07925 -0.101579,-0.175969 -0.101579,-0.289182 v -4.024702 c 0,-0.113212 -0.0399,-0.209415 -0.119193,-0.288663 -0.07928,-0.07925 -0.175455,-0.118679 -0.288671,-0.118679 z m 19.291213,0 c -0.11322,0 -0.20942,0.03944 -0.28867,0.118679 -0.0793,0.07925 -0.11868,0.175451 -0.11868,0.288663 v 11.615979 c 0,0.113212 0.0395,0.209414 0.11868,0.288663 0.0793,0.07925 0.17545,0.118678 0.28867,0.118678 h 2.56428 c 0.11321,0 0.20941,-0.03944 0.28866,-0.118678 0.0793,-0.07925 0.1192,-0.175451 0.1192,-0.288663 v -2.530603 c 0,-0.113214 0.0395,-0.209415 0.11868,-0.288664 0.0793,-0.07925 0.17545,-0.118678 0.28866,-0.118678 h 1.47753 c 0.82644,0 1.54507,-0.113028 2.15642,-0.339452 0.62267,-0.237746 1.13785,-0.554739 1.54541,-0.950982 0.41888,-0.407564 0.7301,-0.883313 0.93388,-1.426733 0.20378,-0.554741 0.30576,-1.149298 0.30576,-1.783286 0,-0.63399 -0.12459,-1.228028 -0.37365,-1.782769 -0.23774,-0.554741 -0.56578,-1.041533 -0.98467,-1.460419 -0.40757,-0.418885 -0.89436,-0.74744 -1.46042,-0.985186 -0.55474,-0.237746 -1.14929,-0.356554 -1.78328,-0.356554 z m -5.62091,0.0171 c -0.12453,0 -0.22652,0.03944 -0.30577,0.118678 -0.0679,0.07925 -0.10157,0.175451 -0.10157,0.288663 v 11.598876 c 0,0.113212 0.0336,0.209416 0.10157,0.288665 0.0793,0.07925 0.18124,0.118678 0.30577,0.118678 h 2.56429 c 0.11321,0 0.20941,-0.03944 0.28866,-0.118678 0.0793,-0.07925 0.11867,-0.175453 0.11867,-0.288665 v -11.59887 c 0,-0.113212 -0.0395,-0.209415 -0.11867,-0.288663 -0.0793,-0.07925 -0.17545,-0.118679 -0.28866,-0.118679 z m -90.768288,3.005822 c 0.418886,0 0.815256,0.09042 1.188857,0.271561 0.373602,0.169819 0.702157,0.402172 0.985187,0.696525 0.283031,0.28303 0.503822,0.622628 0.662319,1.018872 0.158498,0.384922 0.237357,0.786555 0.237357,1.205441 0,0.430208 -0.07885,0.837622 -0.237357,1.222544 -0.158497,0.384921 -0.379288,0.724521 -0.662319,1.018873 -0.28303,0.294352 -0.611585,0.532486 -0.985187,0.713625 -0.373601,0.169819 -0.769971,0.254459 -1.188857,0.254459 -0.418886,0 -0.814739,-0.08464 -1.18834,-0.254459 -0.373601,-0.181139 -0.702155,-0.419273 -0.985186,-0.713625 -0.27171,-0.294352 -0.486719,-0.633952 -0.645217,-1.018873 -0.158497,-0.384922 -0.237875,-0.792336 -0.237875,-1.222544 0,-0.418886 0.07938,-0.820519 0.237875,-1.205441 0.158498,-0.396244 0.373507,-0.735842 0.645217,-1.018872 0.283031,-0.294353 0.611585,-0.526706 0.985186,-0.696525 0.373601,-0.181139 0.769454,-0.271561 1.18834,-0.271561 z m 56.634502,0.101577 h 1.800388 c 0.237745,0 0.435931,0.051 0.594429,0.152882 0.169819,0.09057 0.29967,0.209378 0.39024,0.356554 0.10189,0.135855 0.170225,0.283048 0.204189,0.441546 0.04529,0.147176 0.06789,0.277546 0.06789,0.390758 0,0.215103 -0.03994,0.401728 -0.119197,0.560225 -0.07925,0.158497 -0.180714,0.294648 -0.305248,0.40786 -0.124532,0.101891 -0.260683,0.181269 -0.40786,0.237875 -0.147176,0.04529 -0.288588,0.06789 -0.424444,0.06789 h -1.800386 c -0.113212,0 -0.209415,-0.03994 -0.288664,-0.119197 -0.07925,-0.07925 -0.118679,-0.175451 -0.118679,-0.288662 V 73.43092 c 0,-0.113211 0.03944,-0.209414 0.118679,-0.288663 0.07925,-0.07925 0.175452,-0.119197 0.288663,-0.119197 z m 43.134176,0 h 1.5962 c 0.23775,0 0.4475,0.04521 0.62864,0.13578 0.18113,0.07925 0.33359,0.187013 0.45812,0.322868 0.12454,0.135855 0.21548,0.29461 0.27208,0.475751 0.0679,0.169818 0.10158,0.34488 0.10158,0.52602 0,0.350958 -0.10198,0.667952 -0.30577,0.950982 -0.19245,0.27171 -0.50367,0.40786 -0.93387,0.40786 h -1.81698 c -0.11321,0 -0.20941,-0.03994 -0.28866,-0.119197 -0.0793,-0.07925 -0.11868,-0.17545 -0.11868,-0.288663 V 73.43092 c 0,-0.113212 0.0395,-0.209414 0.11868,-0.288663 0.0793,-0.07925 0.17545,-0.119197 0.28866,-0.119197 z" style="color:#000;-inkscape-font-specification:Heavitas;fill:#fff;stroke-linecap:round;stroke-linejoin:round;stroke-miterlimit:128;-inkscape-stroke:none;paint-order:stroke fill markers"/></svg>