<?xml version="1.0" encoding="UTF-8" standalone="no"?>
<svg
   xml:space="preserve"
   width="512"
   height="512"
   viewBox="0 0 135.46666 135.46667"
   version="1.1"
   id="svg3"
   sodipodi:docname="militaryl.svg"
   inkscape:version="1.3 (0e150ed6c4, 2023-07-21)"
   xmlns:inkscape="http://www.inkscape.org/namespaces/inkscape"
   xmlns:sodipodi="http://sodipodi.sourceforge.net/DTD/sodipodi-0.dtd"
   xmlns="http://www.w3.org/2000/svg"
   xmlns:svg="http://www.w3.org/2000/svg"><defs
     id="defs3" /><sodipodi:namedview
     id="namedview3"
     pagecolor="#505050"
     bordercolor="#eeeeee"
     borderopacity="1"
     inkscape:showpageshadow="0"
     inkscape:pageopacity="0"
     inkscape:pagecheckerboard="0"
     inkscape:deskcolor="#505050"
     inkscape:zoom="0.71289062"
     inkscape:cx="256"
     inkscape:cy="256"
     inkscape:window-width="1366"
     inkscape:window-height="705"
     inkscape:window-x="-8"
     inkscape:window-y="-8"
     inkscape:window-maximized="1"
     inkscape:current-layer="svg3" /><path
     d="m 67.73333,135.46666 8.465633,-8.46563 39.429117,-39.429119 H 76.198963 V 10e-7 H 59.267696 v 87.57191 H 19.838581 l 39.429115,39.429119 z"
     style="fill:#223dc3;fill-opacity:1;stroke:none;stroke-width:33.8667;stroke-miterlimit:128;stroke-dasharray:none;stroke-opacity:1;paint-order:stroke fill markers"
     id="path1" /><path
     d="m 42.588098,55.033333 c -0.64233,0 -1.388405,0.235846 -2.101681,0.576192 -0.679463,-0.32346 -1.403576,-0.552938 -2.062406,-0.552938 h -3.492293 c -0.762169,0 -1.667133,0.337224 -2.480469,0.814421 -0.778916,-0.462584 -1.664403,-0.814421 -2.47065,-0.814421 h -3.238562 c -0.999488,0 -1.868108,0.305365 -2.511475,0.656291 -0.576088,0.31422 -1.217203,0.784581 -1.753898,1.500167 -0.0389,0.05116 -0.07664,0.103189 -0.113171,0.156062 l -1.254187,1.841748 -1.253671,-1.841748 0.08992,0.138493 C 19.378779,56.600758 18.636183,56.05344 18.01182,55.712878 17.36849,55.361979 16.499354,55.056587 15.499829,55.056587 h -3.238045 c -1.137104,0 -2.5640932,0.579703 -3.3868736,1.402498 -0.8194911,0.819492 -1.4024984,2.243274 -1.4024984,3.386874 v 15.798518 c 0,1.143692 0.5830982,2.567436 1.4024984,3.386874 0.8227606,0.822768 2.2497336,1.402498 3.3868736,1.402498 h 3.492293 c 1.137104,0 2.563574,-0.579694 3.386357,-1.402498 0.167634,-0.167635 0.267538,-0.432234 0.412377,-0.642855 0.543561,0.204504 1.105593,0.402559 1.56838,0.402559 0.435454,0 1.00189,-0.225404 1.546676,-0.435632 0.15092,0.223426 0.257267,0.49962 0.433565,0.675928 0.822754,0.822754 2.249733,1.402498 3.386873,1.402498 h 3.492294 c 0.806222,0 1.691712,-0.352339 2.47065,-0.814937 0.813322,0.477189 1.718276,0.814937 2.480469,0.814937 h 3.492293 c 0.66523,0 1.395398,-0.235667 2.079976,-0.564823 0.709767,0.335092 1.450189,0.564823 2.084111,0.564823 h 11.544514 c 0.44405,0 0.935205,-0.150363 1.414384,-0.306958 0.510502,0.168147 1.032792,0.306958 1.476396,0.306958 h 3.49436 c 1.137098,0 2.56032,-0.576445 3.386357,-1.402498 0.07154,-0.07154 0.108585,-0.193282 0.176217,-0.273369 0.0676,0.08004 0.104195,0.201866 0.175699,0.273369 0.826025,0.826031 2.249217,1.402498 3.386357,1.402498 h 3.469039 c 0.534688,0 1.208224,-0.144091 1.865002,-0.422196 0.04653,0.01827 0.09757,0.0874 0.142627,0.103353 0.501432,0.182016 1.063612,0.318843 1.648478,0.318843 h 3.978569 c 0.999488,0 2.045599,-0.355864 2.78691,-0.850077 0.0269,-0.01778 0.05361,-0.03587 0.0801,-0.05426 0.447906,-0.313535 0.853311,-0.923802 1.250053,-1.502234 h 0.912089 c 0.348467,0.529095 0.742971,1.030952 1.185458,1.37511 0.134113,0.104643 0.27441,0.201108 0.420129,0.288871 0.741631,0.444966 1.725801,0.74259 2.66392,0.74259 h 3.957381 c 0.201689,0 0.536984,-0.170427 0.796851,-0.222725 0.34947,0.08583 0.706196,0.222725 1.029394,0.222725 H 97.2752 c 1.032774,0 2.256871,-0.512886 3.098,-1.21698 0.23402,0.175515 0.45526,0.460484 0.68161,0.583944 0.12939,0.07063 0.26238,0.134448 0.39843,0.191203 0.57371,0.239052 1.28297,0.441833 2.13837,0.441833 h 4.30103 c 0.70946,0 1.71125,-0.190612 2.59777,-0.803052 0.0905,-0.06249 0.14011,-0.155885 0.22428,-0.224792 0.82855,0.587691 1.87489,1.027844 2.80086,1.027844 h 3.49229 c 1.13711,0 2.56405,-0.579617 3.38688,-1.402498 0.82282,-0.822779 1.40197,-2.24977 1.40198,-3.386874 v -4.650362 l 5.45341,-8.832019 c 0.0248,-0.04127 0.0489,-0.08296 0.0724,-0.125057 0.23132,-0.404831 0.50131,-0.920748 0.62477,-1.783353 0.1145,-0.800045 -0.0734,-2.017765 -0.68368,-3.017387 -0.86636,-1.340181 -2.77295,-2.179712 -3.87108,-2.179712 h -4.16409 c -0.9995,0 -1.87015,0.305345 -2.51354,0.656291 -0.0507,0.02757 -0.10084,0.05617 -0.15038,0.08578 -0.47667,0.285996 -0.88414,0.826946 -1.29501,1.330151 -0.44397,-0.528636 -0.89211,-1.081439 -1.37666,-1.355473 -0.68325,-0.394166 -1.58662,-0.716752 -2.55282,-0.716752 h -4.11706 c -0.66222,0 -1.54146,0.244333 -2.33629,0.713135 -1.23911,-0.474241 -2.55352,-0.736389 -3.86333,-0.736389 h -7.194908 c -1.143691,0 -2.56742,0.582566 -3.386873,1.401981 -0.377765,0.377768 -0.685094,0.899458 -0.927592,1.44539 -0.418953,-0.817284 -1.042484,-1.459084 -1.666048,-1.882572 -0.741122,-0.517285 -1.780438,-0.941545 -2.832385,-0.941545 h -3.240113 c -1.047488,0 -2.116624,0.398141 -2.869075,0.914156 -0.122355,0.08358 -0.19218,0.270498 -0.312643,0.371037 -0.94062,-0.809897 -2.208507,-1.308447 -3.132625,-1.308447 h -12.21481 c -0.445604,0 -0.936119,0.15004 -1.414384,0.306441 -0.446449,-0.136379 -0.900952,-0.283187 -1.314132,-0.283187 h -3.49436 c -1.063172,0 -2.517823,0.510177 -3.410128,1.402498 -0.07657,0.07656 -0.150179,0.156027 -0.220658,0.238229 -0.74112,0.864667 -1.158069,2.149102 -1.158069,3.148645 l -1.386995,-0.02377 c 0,-1.137104 -0.579201,-2.564101 -1.401982,-3.386874 -0.822752,-0.822745 -2.243273,-1.401981 -3.386873,-1.401981 z m 62.441152,0.749825 0.0682,0.02739 c -0.0119,-0.0048 -0.0248,-0.003 -0.0367,-0.0078 -0.0114,-0.0045 -0.0202,-0.01523 -0.0315,-0.01964 z m -26.181351,0.652156 0.220659,0.238745 c -0.03244,-0.03785 -0.08889,-0.04972 -0.12299,-0.0863 -0.03855,-0.04244 -0.05796,-0.112741 -0.09767,-0.152446 z m 29.564091,1.54926 0.0429,0.04496 c -0.007,-0.0068 -0.0167,-0.0092 -0.0233,-0.01602 -0.008,-0.0084 -0.0113,-0.02057 -0.0196,-0.02894 z m -5.50561,0.196887 c -0.005,0.01482 7.1e-4,0.03414 -0.004,0.04909 -0.007,0.02279 -0.0284,0.05158 -0.0351,0.0739 z m -6.633188,19.679935 -0.156063,0.285254 c 0.01953,-0.03256 0.02038,-0.09822 0.03927,-0.132808 0.03228,-0.05657 0.08744,-0.09375 0.116789,-0.152446 z m -25.331787,0.693498 c 0.07299,0.09733 0.173419,0.09286 0.252181,0.181384 0.06839,0.08008 0.06724,0.19798 0.14056,0.271302 z m 3.777548,0.238228 -0.220659,0.238229 c 0.03974,-0.03974 0.05908,-0.109968 0.09767,-0.152446 0.03415,-0.03664 0.09048,-0.04786 0.12299,-0.08578 z"
     style="color:#000;-inkscape-font-specification:Heavitas;fill:#223dc3;stroke-linecap:round;stroke-linejoin:round;stroke-miterlimit:128;-inkscape-stroke:none;paint-order:stroke fill markers"
     id="path2" /><path
     d="m 42.588563,59.266666 c -0.169644,0 -0.308567,0.05407 -0.416521,0.162019 -0.09253,0.107955 -0.138723,0.239003 -0.138723,0.393224 v 15.823199 c 0,0.154221 0.04619,0.285269 0.138723,0.393224 0.107954,0.107955 0.246877,0.161667 0.416521,0.161667 h 11.543625 c 0.154221,0 0.285269,-0.05371 0.393224,-0.161667 0.107954,-0.107955 0.161666,-0.239003 0.161666,-0.393224 v -3.146143 c 0,-0.154221 -0.05371,-0.285269 -0.161666,-0.393224 -0.107955,-0.107955 -0.239003,-0.162019 -0.393224,-0.162019 h -6.963309 c -0.169643,0 -0.308566,-0.05407 -0.416521,-0.16202 -0.09253,-0.107955 -0.138723,-0.239003 -0.138723,-0.393224 V 59.821909 c 0,-0.154221 -0.05371,-0.285269 -0.161666,-0.393224 -0.107955,-0.107954 -0.239356,-0.162019 -0.393577,-0.162019 z m 20.658017,0 c -0.154221,0 -0.285269,0.05407 -0.393224,0.162019 -0.107955,0.107955 -0.16202,0.239003 -0.16202,0.393224 v 3.146144 c 0,0.154221 0.05407,0.285269 0.16202,0.393224 0.107955,0.107954 0.239003,0.162019 0.393224,0.162019 h 3.284865 c 0.169644,0 0.300692,0.05371 0.393225,0.161667 0.107954,0.107954 0.162019,0.239355 0.162019,0.393576 v 11.566569 c 0,0.154221 0.05371,0.285269 0.161667,0.393224 0.107954,0.107955 0.239355,0.161667 0.393576,0.161667 h 3.46983 c 0.169643,0 0.300691,-0.05371 0.393224,-0.161667 0.107954,-0.107955 0.162019,-0.239003 0.162019,-0.393224 V 64.078539 c 0,-0.154221 0.05406,-0.285622 0.162019,-0.393576 0.107955,-0.107955 0.239004,-0.161667 0.393225,-0.161667 h 3.238624 c 0.169644,0 0.300692,-0.05407 0.393225,-0.162019 0.107954,-0.107955 0.162019,-0.239003 0.162019,-0.393224 v -3.146144 c 0,-0.154221 -0.05406,-0.285269 -0.162019,-0.393224 -0.09253,-0.107954 -0.223581,-0.162019 -0.393225,-0.162019 z m 30.581799,0 c -0.154221,0 -0.28527,0.05407 -0.393224,0.162019 -0.107954,0.107955 -0.161666,0.239003 -0.161666,0.393224 v 15.823199 c 0,0.154221 0.05371,0.285269 0.161666,0.393224 0.107954,0.107955 0.239003,0.161667 0.393224,0.161667 h 3.446885 c 0.154221,0 0.28527,-0.05371 0.393224,-0.161667 0.107955,-0.107955 0.16202,-0.239003 0.16202,-0.393224 V 71.89748 c 0,-0.15422 0.05406,-0.285269 0.162019,-0.393223 0.107955,-0.107954 0.239003,-0.16202 0.393224,-0.16202 h 0.509003 c 0.15422,0 0.316062,0.04619 0.485705,0.138723 0.169643,0.07711 0.300691,0.177366 0.393224,0.300742 0.478087,0.678572 0.956087,1.349563 1.434177,2.012713 0.4935,0.66315 0.98726,1.318391 1.48076,1.966119 0.0925,0.123377 0.22358,0.231506 0.39323,0.324039 0.18506,0.07711 0.35478,0.115426 0.509,0.115426 h 4.30252 c 0.15422,0 0.25447,-0.06911 0.30074,-0.207907 0.0463,-0.154221 0.0234,-0.293145 -0.0692,-0.416521 -0.50893,-0.678573 -1.08719,-1.426547 -1.73492,-2.243918 -0.64772,-0.81737 -1.26465,-1.611535 -1.85069,-2.382639 -0.0925,-0.123377 -0.12333,-0.246904 -0.0925,-0.37028 0.0463,-0.138799 0.13077,-0.254451 0.25415,-0.346983 0.37013,-0.231332 0.70169,-0.5167 0.99471,-0.855986 0.29302,-0.354708 0.54759,-0.747852 0.7635,-1.179671 0.21591,-0.431819 0.37775,-0.886903 0.48571,-1.364988 0.12337,-0.493507 0.18531,-0.986906 0.18531,-1.480413 0,-0.894481 -0.15432,-1.711918 -0.46276,-2.452178 -0.29303,-0.74026 -0.70944,-1.380105 -1.24921,-1.919878 -0.52436,-0.539773 -1.1642,-0.95619 -1.91988,-1.249209 -0.75569,-0.308442 -1.581,-0.462762 -2.47548,-0.462762 z m -81.567468,0.0233 c -0.154221,0 -0.285269,0.05371 -0.393223,0.161666 -0.107955,0.107955 -0.16202,0.239003 -0.16202,0.393224 v 15.800255 c 0,0.154221 0.05407,0.285269 0.16202,0.393224 0.107954,0.107955 0.239002,0.161667 0.393223,0.161667 h 3.493127 c 0.154221,0 0.285269,-0.05371 0.393223,-0.161667 0.107955,-0.107955 0.16202,-0.239003 0.16202,-0.393224 v -7.449014 c 0,-0.154221 0.06946,-0.239079 0.20826,-0.254501 0.138799,-0.01542 0.246576,0.03864 0.323686,0.162019 l 3.886351,6.26899 c 0.09253,0.123377 0.223934,0.184963 0.393576,0.184963 0.169644,0 0.292817,-0.06159 0.369927,-0.184963 l 3.88635,-6.26899 c 0.09253,-0.123377 0.208185,-0.177441 0.346984,-0.162019 0.138799,0.01542 0.20826,0.10028 0.20826,0.254501 v 7.449014 c 0,0.154221 0.05407,0.285269 0.162019,0.393224 0.107955,0.107955 0.239003,0.161667 0.393224,0.161667 h 3.493127 c 0.15422,0 0.285269,-0.05371 0.393223,-0.161667 0.107955,-0.107955 0.16202,-0.239003 0.16202,-0.393224 V 59.844853 c 0,-0.154221 -0.05407,-0.285269 -0.16202,-0.393224 -0.107954,-0.107954 -0.239003,-0.161666 -0.393223,-0.161666 h -3.238626 c -0.154221,0 -0.316062,0.04619 -0.485705,0.138722 -0.169643,0.09253 -0.301044,0.20031 -0.393577,0.323686 l -4.441593,6.523492 c -0.07711,0.123376 -0.177013,0.185316 -0.30039,0.185316 -0.123376,0 -0.231506,-0.06194 -0.324038,-0.185316 l -4.441594,-6.523492 c -0.07711,-0.123376 -0.200637,-0.231153 -0.37028,-0.323686 -0.169643,-0.09253 -0.331484,-0.138722 -0.485705,-0.138722 z m 22.67073,0 c -0.169643,0 -0.308566,0.05371 -0.416521,0.161666 -0.09253,0.107955 -0.138723,0.239003 -0.138723,0.393224 v 15.800255 c 0,0.154221 0.04619,0.285269 0.138723,0.393224 0.107955,0.107955 0.246878,0.161667 0.416521,0.161667 h 3.493126 c 0.154221,0 0.285269,-0.05371 0.393224,-0.161667 0.107955,-0.107955 0.161666,-0.239003 0.161666,-0.393224 V 59.844853 c 0,-0.154221 -0.05371,-0.285269 -0.161666,-0.393224 -0.107955,-0.107954 -0.239003,-0.161666 -0.393224,-0.161666 z m 22.091836,0 c -0.169643,0 -0.308213,0.05371 -0.416167,0.161666 -0.09253,0.107955 -0.138723,0.239003 -0.138723,0.393224 v 15.800255 c 0,0.154221 0.04619,0.285269 0.138723,0.393224 0.107954,0.107955 0.246524,0.161667 0.416167,0.161667 h 3.493126 c 0.154222,0 0.285623,-0.05371 0.393578,-0.161667 0.107954,-0.107955 0.161666,-0.239003 0.161666,-0.393224 V 59.844853 c 0,-0.154221 -0.05371,-0.285269 -0.161666,-0.393224 -0.107955,-0.107954 -0.239356,-0.161666 -0.393578,-0.161666 z m 24.752627,0 c -0.169643,0 -0.331484,0.05371 -0.485705,0.161666 -0.138799,0.09253 -0.239054,0.208185 -0.300742,0.346983 l -6.708808,15.66118 c -0.06169,0.123377 -0.08461,0.231506 -0.06919,0.324039 0.01542,0.09253 0.05409,0.169516 0.115779,0.231204 0.04626,0.06169 0.115375,0.107879 0.207907,0.138723 0.07711,0.03085 0.154447,0.04624 0.231558,0.04624 h 3.978831 c 0.154221,0 0.300667,-0.04619 0.439465,-0.138723 0.154221,-0.107955 0.262351,-0.231128 0.324039,-0.369927 l 0.647725,-1.388285 c 0.06169,-0.138799 0.161943,-0.25445 0.300742,-0.346983 0.154221,-0.107955 0.316063,-0.161666 0.485706,-0.161666 h 4.881058 c 0.154221,0 0.300666,0.05371 0.439465,0.161666 0.154221,0.09253 0.269872,0.208184 0.346982,0.346983 l 0.624782,1.388285 c 0.07711,0.138799 0.184887,0.261972 0.323686,0.369927 0.154221,0.09253 0.316062,0.138723 0.485705,0.138723 h 3.955889 c 0.246753,0 0.408594,-0.07698 0.485705,-0.231205 0.09253,-0.154221 0.107929,-0.300666 0.04624,-0.439465 l -6.75469,-15.730719 c -0.06169,-0.138799 -0.169818,-0.25445 -0.324039,-0.346983 -0.138799,-0.107954 -0.285244,-0.161666 -0.439465,-0.161666 z m 25.446596,0 c -0.15422,0 -0.25448,0.07698 -0.30074,0.231204 -0.0463,0.138799 -0.0309,0.277722 0.0462,0.416521 0.95616,1.61932 1.91217,3.192252 2.86834,4.719039 0.97159,1.526786 1.92008,3.084322 2.8454,4.672797 0.0771,0.123377 0.13905,0.293093 0.18532,0.509003 0.0617,0.200487 0.0925,0.377725 0.0925,0.531946 v 5.274635 c 0,0.154221 0.0537,0.285269 0.16166,0.393224 0.10796,0.107955 0.23936,0.161667 0.39358,0.161667 h 3.49313 c 0.15422,0 0.28527,-0.05371 0.39322,-0.161667 0.10796,-0.107955 0.16167,-0.239003 0.16167,-0.393224 v -5.297579 c 0,-0.15422 0.0311,-0.331812 0.0928,-0.532299 0.0617,-0.200487 0.1308,-0.369851 0.20791,-0.50865 l 5.78328,-9.368892 c 0.12337,-0.215909 0.14665,-0.378104 0.0695,-0.486058 -0.0617,-0.107955 -0.16946,-0.161667 -0.32369,-0.161667 h -4.16415 c -0.15422,0 -0.31606,0.04619 -0.4857,0.138723 -0.15422,0.09253 -0.26987,0.208184 -0.34699,0.346983 l -2.82245,4.950596 c -0.0771,0.123377 -0.16949,0.184963 -0.27745,0.184963 -0.10795,0 -0.20068,-0.06158 -0.27779,-0.184963 l -2.84505,-4.950597 c -0.0771,-0.138798 -0.20063,-0.25445 -0.37028,-0.346983 -0.15422,-0.09253 -0.30854,-0.138722 -0.46276,-0.138722 z m -8.836949,4.233333 h 2.452179 c 0.32386,0 0.59383,0.06911 0.80974,0.207907 0.23133,0.123377 0.40857,0.285572 0.53195,0.486059 0.1388,0.185065 0.23118,0.385575 0.27745,0.601484 0.0617,0.200487 0.0928,0.377726 0.0928,0.531947 0,0.293019 -0.0541,0.547594 -0.16202,0.763503 -0.10796,0.21591 -0.24688,0.401022 -0.41652,0.555243 -0.16965,0.138799 -0.35476,0.246576 -0.55525,0.323687 -0.20048,0.06169 -0.39312,0.09248 -0.57819,0.09248 h -2.452173 c -0.154221,0 -0.285269,-0.05406 -0.393224,-0.16202 -0.107954,-0.107954 -0.162019,-0.239002 -0.162019,-0.393223 v -2.451824 c 0,-0.154221 0.05406,-0.285622 0.162019,-0.393576 0.107955,-0.107955 0.239003,-0.161667 0.393224,-0.161667 z m -15.013455,2.822105 c 0.07711,0 0.146573,0.06946 0.208261,0.20826 0.185065,0.447241 0.385574,0.933118 0.601484,1.457469 0.215909,0.50893 0.401023,0.956139 0.555243,1.341691 0.07711,0.138799 0.07711,0.261973 0,0.369927 -0.06169,0.09253 -0.169818,0.139076 -0.324039,0.139076 h -2.058601 c -0.169642,0 -0.285294,-0.04654 -0.346982,-0.139076 -0.06169,-0.107954 -0.06169,-0.231128 0,-0.369927 l 1.156374,-2.79916 c 0.06169,-0.138799 0.13115,-0.20826 0.20826,-0.20826 z"
     style="color:#000;-inkscape-font-specification:Heavitas;fill:#fff;stroke-linecap:round;stroke-linejoin:round;stroke-miterlimit:128;-inkscape-stroke:none;paint-order:stroke fill markers"
     id="path3" /></svg>
