<svg xmlns="http://www.w3.org/2000/svg" xml:space="preserve" width="512" height="512" viewBox="0 0 135.46666 135.46667"><path d="M 135.46666,67.733331 127.00103,59.267698 87.571911,19.838581 V 59.267698 H 10e-7 v 16.931267 h 87.57191 V 115.62808 L 127.00103,76.198965 Z" style="fill:#c32222;fill-opacity:1;stroke:none;stroke-width:33.8667;stroke-miterlimit:128;stroke-dasharray:none;stroke-opacity:1;paint-order:stroke fill markers"/><path d="M 85.179813 46.566149 C 82.313648 46.566149 79.513995 47.13194 76.923986 48.258036 C 74.405429 49.35306 72.145174 50.893859 70.245841 52.826232 C 69.51651 53.556942 68.894576 54.381299 68.281103 55.2111 L 68.281103 52.453128 C 68.281103 51.167644 67.650446 49.620976 66.728743 48.699352 C 65.807156 47.777765 64.259982 47.148544 62.97445 47.148543 L 56.363484 47.148543 C 55.077907 47.148543 53.531 47.779539 52.609191 48.701419 C 51.688138 49.623207 51.056831 51.167729 51.056831 52.453128 L 51.056831 56.525231 L 46.279345 49.783007 A 4.2337564 4.2337564 0 0 0 46.211132 49.689473 C 45.57567 48.842237 44.737354 48.275566 43.937369 47.890616 C 43.156644 47.48584 42.21216 47.148544 41.127205 47.148543 L 34.425805 47.148543 C 33.140321 47.148544 31.593659 47.779701 30.672029 48.701419 C 29.750581 49.623426 29.119152 51.168108 29.119152 52.453128 L 29.119152 83.013537 C 29.119152 84.298511 29.751728 85.844824 30.672029 86.765762 C 31.593597 87.68733 33.140275 88.318122 34.425805 88.318122 L 41.082246 88.318122 C 42.367824 88.318122 43.91422 87.687626 44.836022 86.765762 C 45.756391 85.845217 46.388899 84.299455 46.388899 83.013537 L 46.388899 78.859268 L 51.214961 85.646451 A 4.2337564 4.2337564 0 0 0 51.27749 85.732234 C 51.896837 86.557984 52.659061 87.130785 53.39674 87.533157 C 54.197829 87.970133 55.218941 88.318122 56.363484 88.318122 L 62.97445 88.318122 C 64.259935 88.318122 65.807125 87.68745 66.728743 86.765762 C 67.649404 85.844552 68.281103 84.298557 68.281103 83.013537 L 68.281103 80.275202 C 68.890557 81.106449 69.505326 81.934839 70.228271 82.671955 A 4.2337564 4.2337564 0 0 0 70.257726 82.701411 C 72.158359 84.602049 74.414079 86.117884 76.923986 87.209146 C 79.514168 88.335311 82.313852 88.900516 85.179813 88.900516 C 88.045774 88.900516 90.84546 88.335308 93.435639 87.209146 C 95.94563 86.117849 98.202929 84.601923 100.10345 82.701411 C 102.02652 80.778333 103.56101 78.506928 104.65614 75.988126 C 105.78223 73.398119 106.34751 70.598464 106.34751 67.732299 C 106.34751 64.866134 105.78224 62.068545 104.65614 59.478539 C 103.56364 56.965792 102.02717 54.708711 100.10138 52.81228 C 98.20496 50.886494 95.948294 49.350492 93.435639 48.258036 C 90.845633 47.131942 88.045978 46.566666 85.179813 46.566666 L 85.179813 46.566149 z M 85.179813 63.566662 C 85.671804 63.566662 86.036861 63.652024 86.460871 63.8576 A 4.2337564 4.2337564 0 0 0 86.556473 63.902559 C 87.067111 64.134667 87.466226 64.417741 87.847867 64.814648 A 4.2337564 4.2337564 0 0 0 87.906261 64.873042 C 88.231841 65.198621 88.487525 65.574565 88.710863 66.132913 A 4.2337564 4.2337564 0 0 0 88.726366 66.173738 C 88.937533 66.686572 89.033324 67.16415 89.033324 67.732299 C 89.033324 68.344331 88.931955 68.838619 88.726366 69.337886 C 88.50254 69.881468 88.227161 70.303029 87.847867 70.697493 C 87.460544 71.100308 87.031198 71.402355 86.50583 71.663842 C 86.083951 71.848901 85.690408 71.943411 85.179813 71.943411 C 84.669224 71.943411 84.277149 71.848859 83.855346 71.663842 C 83.34359 71.409132 82.92768 71.110199 82.548965 70.722814 C 82.193625 70.331041 81.908976 69.899551 81.677701 69.337886 C 81.472089 68.838539 81.37126 68.344281 81.37126 67.732299 C 81.37126 67.164201 81.466511 66.686652 81.677701 66.173738 A 4.2337564 4.2337564 0 0 0 81.693204 66.132913 C 81.929586 65.541962 82.199411 65.141709 82.515376 64.812581 C 82.896199 64.416977 83.294777 64.134341 83.804703 63.902559 A 4.2337564 4.2337564 0 0 0 83.900304 63.8576 C 84.324259 63.652045 84.687802 63.566662 85.179813 63.566662 z" style="color:#000;-inkscape-font-specification:Heavitas;fill:#c32222;stroke-linecap:round;stroke-linejoin:round;stroke-miterlimit:128;-inkscape-stroke:none;paint-order:stroke fill markers"/><path d="m 85.180455,50.799999 c -2.3233,0 -4.512529,0.4469 -6.567757,1.340482 -2.055228,0.893576 -3.842496,2.114656 -5.361576,3.66352 -1.519086,1.519084 -2.725294,3.306352 -3.618874,5.36158 -0.893576,2.055225 -1.340476,4.244453 -1.340476,6.567753 0,2.3233 0.4469,4.512526 1.340476,6.567754 0.89358,2.055224 2.099788,3.857364 3.618874,5.406228 1.51908,1.519084 3.306348,2.725465 5.361576,3.619041 2.055228,0.893576 4.244457,1.340308 6.567757,1.340308 2.3233,0 4.51252,-0.446732 6.56775,-1.340308 2.05523,-0.893576 3.84232,-2.099957 5.36141,-3.619041 1.54886,-1.548864 2.77011,-3.351004 3.663685,-5.406228 0.89358,-2.055228 1.34048,-4.244454 1.34048,-6.567754 0,-2.3233 -0.4469,-4.512528 -1.34048,-6.567753 -0.893575,-2.055228 -2.114825,-3.842496 -3.663685,-5.36158 -1.51909,-1.548864 -3.30618,-2.769944 -5.36141,-3.66352 -2.05523,-0.893582 -4.24445,-1.340482 -6.56775,-1.340482 z m -50.755183,0.580844 c -0.29788,0 -0.551132,0.10424 -0.759632,0.31276 -0.20852,0.208482 -0.31276,0.461774 -0.31276,0.759634 v 30.56038 c 0,0.29788 0.10424,0.55096 0.31276,0.75946 0.20852,0.20852 0.461772,0.31276 0.759632,0.31276 h 6.65706 c 0.29784,0 0.551132,-0.10424 0.759638,-0.31276 0.20848,-0.20852 0.31276,-0.461604 0.31276,-0.75946 V 67.018534 c 0,-0.29788 0.0894,-0.461752 0.268079,-0.49154 0.20852,-0.05956 0.402132,0.03 0.580848,0.26808 l 11.661066,16.397143 c 0.17872,0.23828 0.431988,0.446784 0.759632,0.6255 0.32764,0.17872 0.640392,0.26808 0.938252,0.26808 h 6.612405 c 0.29788,0 0.551132,-0.10424 0.759636,-0.31276 0.20852,-0.20848 0.31276,-0.461604 0.31276,-0.759464 V 52.453197 c 0,-0.29788 -0.10424,-0.551132 -0.31276,-0.759634 -0.20852,-0.20852 -0.461776,-0.31276 -0.759636,-0.31276 h -6.612405 c -0.29784,0 -0.551132,0.10424 -0.759636,0.31276 -0.20848,0.208482 -0.31276,0.461774 -0.31276,0.759634 V 68.44811 c 0,0.29788 -0.10424,0.461752 -0.31276,0.491536 -0.17872,0.0296 -0.35732,-0.07448 -0.53602,-0.31276 L 42.824849,52.229745 c -0.17872,-0.23828 -0.43182,-0.431918 -0.759463,-0.58085 -0.327642,-0.17872 -0.640394,-0.26808 -0.938254,-0.26808 z m 50.755183,7.95289 c 1.10208,0 2.14456,0.23824 3.1275,0.714808 0.98293,0.446788 1.84666,1.057412 2.59131,1.83185 0.74465,0.744647 1.32554,1.638279 1.74254,2.680787 0.417,1.01272 0.6255,2.070076 0.6255,3.172156 0,1.131864 -0.20848,2.204088 -0.6255,3.216808 -0.417,1.012722 -0.99789,1.906358 -1.74254,2.68079 -0.74465,0.774436 -1.60838,1.399928 -2.59131,1.876504 -0.98294,0.446784 -2.02542,0.670152 -3.1275,0.670152 -1.10208,0 -2.14457,-0.22336 -3.127503,-0.670152 -0.982938,-0.476576 -1.846834,-1.102068 -2.591482,-1.876504 -0.714864,-0.774432 -1.280712,-1.668068 -1.697716,-2.68079 -0.417,-1.01272 -0.6255,-2.084944 -0.6255,-3.216808 0,-1.10208 0.20852,-2.159436 0.6255,-3.172156 0.417004,-1.042508 0.982852,-1.93614 1.697716,-2.680787 0.744648,-0.774438 1.608544,-1.385062 2.591482,-1.83185 0.982933,-0.476576 2.025423,-0.714808 3.127503,-0.714808 z" style="color:#000;-inkscape-font-specification:Heavitas;display:inline;fill:#fff;stroke-linecap:round;stroke-linejoin:round;stroke-miterlimit:128;-inkscape-stroke:none;paint-order:stroke fill markers"/></svg>