<svg xmlns="http://www.w3.org/2000/svg" xml:space="preserve" width="512" height="512" viewBox="0 0 135.46666 135.46667"><path d="M 135.46666,0 H 123.49426 67.733328 L 95.613796,27.880468 0,123.49427 v 11.97239 h 11.97239 l 95.6138,-95.613796 27.88047,27.880468 V 11.972396 Z" style="fill:#6b248f;fill-opacity:1;stroke:none;stroke-width:33.8667;stroke-miterlimit:128;stroke-dasharray:none;stroke-opacity:1;paint-order:stroke fill markers"/><path d="m 67.138537,35.982299 c -0.946917,0 -1.890369,0.112714 -2.82205,0.310576 -1.153868,0.230377 -2.286859,0.674696 -3.289205,1.316715 -1.118246,0.711986 -2.054145,1.708435 -2.713013,2.806547 -0.850913,1.418183 -1.142566,2.984411 -1.142566,4.455025 0,1.045558 0.154537,2.137126 0.583944,3.210657 0.01815,0.04598 0.0371,0.09163 0.05684,0.136943 0.141618,0.321 0.407852,0.583733 0.591695,0.890385 l -0.595829,0.859379 0.09198,-0.126608 c -0.707314,0.9431 -1.02075,2.301244 -0.929659,3.302641 0.0013,0.0131 0.0027,0.02619 0.0041,0.03927 0.107976,1.078697 0.822751,2.325697 1.671733,3.070097 -0.884307,0.134135 -1.780608,0.202224 -2.60966,0.536918 0.38462,-0.721518 0.673862,-1.509562 0.673861,-2.232422 v -2.755904 c 1e-6,-0.816626 -0.363897,-1.713711 -0.839742,-2.48977 0.0031,-0.06034 0.04134,-0.128675 0.04134,-0.187586 v -2.755904 c 0,-0.07803 -0.04934,-0.167579 -0.05478,-0.248047 0.482807,-0.779272 0.853178,-1.684057 0.853178,-2.507857 v -2.71663 c 1e-6,-1.122445 -0.57583,-2.529294 -1.380795,-3.334163 -0.804698,-0.804699 -2.209416,-1.378728 -3.332096,-1.378728 H 41.830004 c -0.583729,0 -1.23686,0.162789 -1.849499,0.425297 -0.612127,-0.26208 -1.262523,-0.425297 -1.845882,-0.425297 h -2.9962 c -0.939493,0 -2.144586,0.452764 -3.025138,1.171505 -0.824409,-0.674051 -2.002371,-1.171505 -3.007568,-1.171505 h -2.976563 c -0.399131,0 -0.869619,0.135634 -1.328601,0.274919 -0.429164,-0.123477 -0.876444,-0.274919 -1.228349,-0.274919 H 13.025561 c -1.122446,0 -2.529301,0.57377 -3.334163,1.378728 -0.8080055,0.808008 -1.3787272,2.21801 -1.3787272,3.334163 v 2.71663 c 0,1.1163 0.5708255,2.524143 1.3787272,3.332096 0.598063,0.598064 1.516837,0.978733 2.415873,1.181324 v 6.431648 c 0,1.122458 0.574287,2.529301 1.379244,3.334164 0.804676,0.804676 2.210946,1.378727 3.333647,1.378727 h 2.996199 c 0.714402,0 1.626359,-0.348512 2.460832,-0.851628 -0.70303,0.608506 -1.443605,1.199707 -1.906344,1.970939 -0.850379,1.417291 -1.142566,2.985548 -1.142566,4.457093 0,1.046956 0.153611,2.137101 0.582394,3.209106 0.01867,0.04581 0.03813,0.0913 0.05839,0.136426 0.141433,0.320582 0.408081,0.584456 0.591695,0.890901 l -0.597379,0.86093 0.09147,-0.126607 c -0.704995,0.940008 -1.020702,2.301769 -0.929659,3.30264 0.0013,0.01241 0.0027,0.02481 0.0041,0.03721 0.115585,1.155593 0.905544,2.556392 1.836064,3.265434 0.147651,0.118736 0.312082,0.219943 0.464571,0.33383 -0.432922,0.221019 -0.87424,0.448893 -1.181323,0.756026 -0.02787,0.02787 -0.04143,0.07822 -0.06873,0.107487 -0.376397,-0.328982 -0.739592,-0.706308 -1.117244,-0.890385 -0.603801,-0.309547 -1.369899,-0.595829 -2.292884,-0.595829 h -2.996199 c -1.122445,0 -2.528787,0.57378 -3.333647,1.378727 -0.8080162,0.808016 -1.3792438,2.218031 -1.3792438,3.334163 v 13.663766 c 0,1.116299 0.5714028,2.524169 1.3792438,3.332096 h 0.0021 c 0.804768,0.804682 2.209544,1.379244 3.332097,1.379244 h 2.976562 c 1.122028,0 2.52649,-0.574026 3.33158,-1.379244 0.02657,-0.02657 0.0406,-0.07344 0.06666,-0.101286 0.334229,0.296386 0.661972,0.668416 0.986503,0.845427 0.622185,0.33935 1.468242,0.636653 2.446879,0.636653 h 2.955375 c 1.122028,0 2.52855,-0.575559 3.333647,-1.380794 0.116955,-0.116955 0.183193,-0.309441 0.289388,-0.449068 0.570717,0.371341 1.057591,0.867143 1.681551,1.138432 1.453935,0.632146 3.043648,0.949296 4.625041,0.949296 1.581394,0 3.169043,-0.317153 4.622973,-0.949296 1.218963,-0.529987 2.30401,-1.326276 3.285071,-2.224154 0.24403,0.587213 0.58299,1.135449 0.982369,1.53479 0.804747,0.80466 2.211611,1.380794 3.334163,1.380794 h 2.9962 c 1.007089,0 2.503347,-0.543186 3.427698,-1.531172 0.743717,-0.819161 1.285193,-2.1135 1.285193,-3.181718 v -6.449219 c 0.878115,-0.202062 1.799536,-0.597068 2.472717,-1.318266 0.626818,-0.691507 1.033655,-1.693779 1.16582,-2.640665 v 10.40815 c 0,1.116299 0.570887,2.524169 1.378727,3.332096 0.804758,0.804671 2.211604,1.379244 3.334164,1.379244 h 10.167854 c 0.262032,0 0.552317,-0.121522 0.834058,-0.179834 0.407585,0.106403 0.811917,0.181384 1.142566,0.181384 h 3.795117 c 0.978541,0 1.826695,-0.298363 2.446879,-0.636653 0.323958,-0.176691 0.653438,-0.55031 0.98857,-0.847494 0.335288,0.297831 0.664554,0.669922 0.990121,0.847494 0.622162,0.339338 1.468758,0.636653 2.447395,0.636653 h 3.794601 c 0.372487,0 0.824095,-0.06804 1.28726,-0.205155 0.338114,0.07838 0.692482,0.205155 0.99012,0.205155 h 3.015837 c 0.964152,0 2.074944,-0.46932 2.898531,-1.101225 0.307058,0.143448 0.598327,0.317181 0.915707,0.43925 0.77727,0.298953 1.58439,0.512763 2.40657,0.661975 0.89426,0.175964 1.80484,0.257866 2.72852,0.257866 1.13895,0 2.25461,-0.112263 3.34346,-0.384473 0.0183,-0.0045 0.0365,-0.0092 0.0548,-0.01395 1.13531,-0.299896 2.25345,-0.799202 3.24424,-1.543058 0.004,-0.0033 0.005,-0.01009 0.01,-0.01344 10e-4,0.0018 0.002,0.0039 0.004,0.0057 0.004,-0.0031 0.0102,-0.0026 0.0139,-0.0057 l -0.0119,0.0078 c 0.0753,0.09123 0.11726,0.228331 0.19741,0.308508 0.80521,0.805296 2.20902,1.380794 3.33158,1.380794 h 2.9962 c 1.00823,0 2.50476,-0.539567 3.43183,-1.53324 0.7451,-0.822183 1.28106,-2.118041 1.28106,-3.17965 v -6.449219 c 0.87828,-0.202269 1.80202,-0.597515 2.47478,-1.318266 0.74249,-0.819161 1.28106,-2.112103 1.28106,-3.179651 v -2.71663 c 0,-1.068888 -0.53915,-2.364843 -1.28312,-3.183785 -0.92402,-0.988426 -2.42172,-1.529105 -3.42977,-1.529105 h -10.28361 c 1.08827,-1.051038 1.97373,-2.323741 2.54145,-3.72277 0.003,-0.0065 0.005,-0.01308 0.008,-0.01964 0.5948,-1.487026 0.86144,-3.084392 0.86144,-4.68912 0,-1.604728 -0.26594,-3.200932 -0.86919,-4.687569 -0.57087,-1.406776 -1.4597,-2.690273 -2.55644,-3.744474 h 9.31055 c 1.12192,0 2.52948,-0.574371 3.33364,-1.378727 0.80441,-0.804582 1.37925,-2.211314 1.37925,-3.334164 v -2.755904 c 0,-0.818578 -0.36518,-1.715014 -0.84026,-2.48977 0.003,-0.06027 0.0413,-0.128795 0.0413,-0.187586 v -2.755904 c 0,-0.07734 -0.0474,-0.166245 -0.0527,-0.24598 0.48302,-0.779283 0.85163,-1.685668 0.85163,-2.509924 v -2.71663 c 0,-1.124988 -0.57692,-2.52872 -1.37925,-3.332096 v -5.17e-4 -5.17e-4 -5.17e-4 -5.16e-4 c -0.80506,-0.805228 -2.21095,-1.379244 -3.33364,-1.379244 H 111.2852 c -0.39611,0 -0.83155,0.145833 -1.25936,0.273885 -0.42457,-0.121428 -0.86884,-0.273885 -1.21698,-0.273885 H 98.261701 c -0.864065,0 -1.824521,0.397799 -2.621028,0.921907 l 0.185518,0.129191 c -0.05609,-0.04363 -0.147765,-0.07077 -0.208773,-0.113171 -0.01152,0.0077 -0.02372,0.01344 -0.03514,0.02119 -0.02603,-0.01755 -0.04491,-0.06133 -0.0708,-0.07803 -0.715425,-0.470459 -1.673088,-0.861446 -2.66392,-0.861446 h -2.796729 c -1.028496,0 -2.070401,0.391095 -2.800863,0.890901 -0.01602,0.01094 -0.0248,0.03732 -0.04082,0.04858 -0.867456,-0.568618 -1.851254,-0.959114 -2.611727,-0.959114 H 74.050776 c -0.727679,0 -1.519364,0.292262 -2.244307,0.681612 -0.07306,-0.02801 -0.131569,-0.08652 -0.205156,-0.113172 -1.426134,-0.535122 -2.935839,-0.769462 -4.462776,-0.769462 z m -40.234236,1.580266 0.220658,0.238228 c -0.03255,-0.03797 -0.08877,-0.04911 -0.12299,-0.08578 -0.03852,-0.04249 -0.05796,-0.112749 -0.09767,-0.152445 z m 61.025215,0 0.222725,0.238228 c -0.03337,-0.03894 -0.09145,-0.05028 -0.126607,-0.08785 -0.03792,-0.04176 -0.05708,-0.111342 -0.09612,-0.150378 z m 24.212994,0 0.21859,0.236161 c -0.0321,-0.03737 -0.0872,-0.04966 -0.12092,-0.08578 -0.0381,-0.04203 -0.0584,-0.111103 -0.0977,-0.150378 z M 58.679622,56.351598 c 0.03996,0.03283 0.08678,0.05951 0.127124,0.09198 0.0074,0.0057 0.01217,0.01765 0.01964,0.02325 z m 50.726618,20.330025 0.0724,0.02739 c -0.0106,-0.004 -0.0225,-0.0017 -0.0331,-0.0057 -0.014,-0.0051 -0.0252,-0.01668 -0.0393,-0.0217 z" style="color:#000;-inkscape-font-specification:Heavitas;fill:#6b248f;stroke-linecap:round;stroke-linejoin:round;stroke-miterlimit:128;-inkscape-stroke:none;paint-order:stroke fill markers"/><path d="m 67.139114,40.216669 c -0.639224,0 -1.298406,0.07326 -1.977582,0.219765 -0.679176,0.133168 -1.298471,0.379592 -1.857793,0.739156 -0.546003,0.346245 -0.998955,0.818988 -1.358518,1.41826 -0.359565,0.599273 -0.539203,1.35832 -0.539203,2.277206 0,0.625907 0.09307,1.171925 0.279509,1.638027 0.199758,0.452783 0.459472,0.845449 0.779083,1.178379 0.31961,0.332929 0.679193,0.605939 1.078709,0.819013 0.412832,0.213075 0.825593,0.393018 1.238426,0.539506 0.41283,0.13317 0.812603,0.239536 1.198801,0.319439 0.399515,0.0666 0.745496,0.126568 1.038474,0.179835 0.306294,0.06658 0.606198,0.120068 0.899177,0.160014 0.292977,0.03996 0.545891,0.09313 0.758967,0.159721 0.226393,0.06658 0.406029,0.153156 0.539201,0.259693 0.13317,0.09322 0.199953,0.226478 0.199953,0.399601 0,0.33293 -0.15335,0.585844 -0.459647,0.758966 -0.306294,0.159802 -0.752142,0.239579 -1.338098,0.239579 -0.612591,0 -1.272076,-0.132958 -1.977886,-0.399297 -0.70581,-0.266344 -1.418171,-0.632723 -2.137298,-1.098825 -0.106535,-0.06658 -0.226501,-0.08638 -0.359673,-0.05974 -0.133169,0.02664 -0.239534,0.0931 -0.319436,0.199647 l -1.53805,2.217159 c -0.0799,0.106535 -0.113295,0.2333 -0.09997,0.379787 0.01333,0.13317 0.07331,0.239536 0.179835,0.319439 0.372882,0.306294 0.778842,0.599399 1.218309,0.87906 0.452783,0.266344 0.939129,0.499467 1.458498,0.699225 0.519369,0.199758 1.078682,0.352803 1.677956,0.459343 0.599273,0.11986 1.245156,0.179835 1.937651,0.179835 0.8523,0 1.624641,-0.08657 2.317134,-0.259695 0.70581,-0.18644 1.30501,-0.46625 1.797745,-0.839131 0.506052,-0.372882 0.899026,-0.845624 1.178685,-1.418261 0.279661,-0.585957 0.419412,-1.278528 0.419412,-2.07756 0,-0.852296 -0.173141,-1.557858 -0.519389,-2.11718 -0.33293,-0.572638 -0.752492,-1.032086 -1.258544,-1.378333 -0.492734,-0.359563 -1.025456,-0.626078 -1.598096,-0.799201 -0.572639,-0.18644 -1.098562,-0.326191 -1.57798,-0.419413 -0.09322,-0.01333 -0.306248,-0.04671 -0.639178,-0.09997 -0.33293,-0.0666 -0.679217,-0.153157 -1.038779,-0.259695 -0.359565,-0.106535 -0.679258,-0.232995 -0.958919,-0.379484 -0.279662,-0.146495 -0.419413,-0.312832 -0.419413,-0.499271 0,-0.186442 0.05318,-0.332994 0.159721,-0.439532 0.11986,-0.106535 0.266406,-0.179813 0.43953,-0.219765 0.173125,-0.05328 0.353065,-0.07984 0.539506,-0.07984 0.199758,-0.01333 0.372597,-0.02013 0.519084,-0.02013 0.492737,0 1.032259,0.09338 1.618218,0.279812 0.585955,0.173124 1.218544,0.472723 1.89772,0.898874 0.106535,0.0799 0.226194,0.106491 0.359366,0.07984 0.133168,-0.02664 0.239838,-0.09312 0.319742,-0.199647 l 1.558168,-2.217463 c 0.0799,-0.106535 0.113295,-0.226196 0.09997,-0.359368 -0.01332,-0.133168 -0.07331,-0.246638 -0.179836,-0.339859 -0.812349,-0.625894 -1.664767,-1.098638 -2.557017,-1.418251 -0.878934,-0.332928 -1.877601,-0.499271 -2.996243,-0.499271 z M 13.02448,40.416316 c -0.133169,0 -0.246334,0.04668 -0.339556,0.139913 -0.09322,0.09322 -0.139604,0.206383 -0.139604,0.339555 v 2.716734 c 0,0.133169 0.04639,0.246334 0.139604,0.339554 0.09322,0.09322 0.206384,0.139912 0.339556,0.139912 h 2.836828 c 0.146494,0 0.25965,0.04668 0.339553,0.139913 0.09322,0.09322 0.139604,0.206382 0.139604,0.339554 v 9.987881 c 0,0.133167 0.04668,0.246332 0.139913,0.339554 0.09322,0.09322 0.206381,0.139913 0.339553,0.139913 h 2.996546 c 0.146494,0 0.25965,-0.04668 0.339555,-0.139913 0.09322,-0.09322 0.139912,-0.206382 0.139912,-0.339554 v -9.987881 c 0,-0.133168 0.04637,-0.246333 0.139604,-0.339554 0.09322,-0.09322 0.206382,-0.139913 0.339554,-0.139913 h 2.796594 c 0.146495,0 0.259954,-0.04668 0.339859,-0.139912 0.09322,-0.09322 0.139605,-0.206382 0.139605,-0.339554 v -2.716734 c 0,-0.133169 -0.04637,-0.246334 -0.139605,-0.339555 -0.0799,-0.09322 -0.19337,-0.139913 -0.339859,-0.139913 z m 13.104215,0 c -0.146494,0 -0.266451,0.04668 -0.35967,0.139913 -0.0799,0.09322 -0.119795,0.206383 -0.119795,0.339555 v 13.663535 c 0,0.133167 0.03989,0.246332 0.119795,0.339554 0.09322,0.09322 0.213182,0.139913 0.35967,0.139913 h 2.976431 c 0.133167,0 0.246332,-0.04668 0.339553,-0.139913 0.09322,-0.09322 0.139913,-0.206382 0.139913,-0.339554 v -4.274905 c 0,-0.133167 0.03989,-0.246332 0.119795,-0.339553 0.09322,-0.09322 0.213181,-0.139911 0.359671,-0.139911 h 4.114879 c 0.13317,0 0.246335,0.04668 0.339554,0.139911 0.09322,0.09322 0.139912,0.206381 0.139912,0.339553 v 4.274905 c 0,0.133167 0.03989,0.246332 0.119795,0.339554 0.09322,0.09322 0.213182,0.139913 0.359671,0.139913 h 2.996242 c 0.13317,0 0.246335,-0.04668 0.339553,-0.139913 0.09322,-0.09322 0.139913,-0.206382 0.139913,-0.339554 V 40.895784 c 0,-0.133169 -0.04668,-0.246334 -0.139913,-0.339555 -0.09322,-0.09322 -0.206381,-0.139913 -0.339553,-0.139913 h -2.996242 c -0.146492,0 -0.26645,0.04668 -0.359671,0.139913 -0.0799,0.09322 -0.119795,0.206383 -0.119795,0.339555 v 4.734245 c 0,0.13317 -0.04668,0.246333 -0.139912,0.339554 -0.09322,0.09322 -0.206382,0.139912 -0.339554,0.139912 h -4.114879 c -0.146495,0 -0.266453,-0.04668 -0.359671,-0.139912 -0.0799,-0.09322 -0.119795,-0.206383 -0.119795,-0.339554 v -4.734245 c 0,-0.133169 -0.04668,-0.246334 -0.139913,-0.339555 -0.09322,-0.09322 -0.206381,-0.139913 -0.339553,-0.139913 z m 15.700858,0 c -0.133169,0 -0.246334,0.04668 -0.339553,0.139913 -0.09322,0.09322 -0.139605,0.206383 -0.139605,0.339555 v 13.663535 c 0,0.133167 0.04637,0.246332 0.139605,0.339554 0.09322,0.09322 0.206381,0.139913 0.339553,0.139913 h 10.167716 c 0.133169,0 0.246334,-0.04668 0.339554,-0.139913 0.09322,-0.09322 0.139912,-0.206382 0.139912,-0.339554 v -2.756665 c 0,-0.133169 -0.04668,-0.246334 -0.139912,-0.339556 -0.09322,-0.09322 -0.206382,-0.139912 -0.339554,-0.139912 H 45.78502 c -0.133169,0 -0.246637,-0.04668 -0.339859,-0.139913 -0.09322,-0.09322 -0.139604,-0.206382 -0.139604,-0.339554 v -0.758966 c 0,-0.133168 0.04639,-0.246333 0.139604,-0.339554 0.09322,-0.09322 0.206687,-0.139912 0.339859,-0.139912 h 5.413352 c 0.133168,0 0.246333,-0.04668 0.339555,-0.139913 0.09322,-0.09322 0.139913,-0.206382 0.139913,-0.339554 v -2.756664 c 0,-0.133169 -0.04668,-0.246334 -0.139913,-0.339553 -0.09322,-0.09322 -0.206383,-0.139913 -0.339555,-0.139913 H 45.78502 c -0.133169,0 -0.246637,-0.04668 -0.339859,-0.139912 -0.09322,-0.09322 -0.139604,-0.206383 -0.139604,-0.339555 v -0.838825 c 0,-0.133168 0.04639,-0.246333 0.139604,-0.339555 0.09322,-0.09322 0.206687,-0.139913 0.339859,-0.139913 h 6.212249 c 0.133169,0 0.246334,-0.04668 0.339554,-0.139912 0.09322,-0.09322 0.139912,-0.206382 0.139912,-0.339554 V 40.89573 c 0,-0.133169 -0.04668,-0.246334 -0.139912,-0.339555 -0.09322,-0.09322 -0.206382,-0.139912 -0.339554,-0.139912 z m 32.221036,0 c -0.13317,0 -0.246335,0.04668 -0.339554,0.139913 -0.09322,0.09322 -0.139912,0.206383 -0.139912,0.339555 v 2.716734 c 0,0.133169 0.04668,0.246334 0.139912,0.339554 0.09322,0.09322 0.206382,0.139912 0.339554,0.139912 h 2.836524 c 0.146492,0 0.25965,0.04668 0.339553,0.139913 0.09322,0.09322 0.139913,0.206382 0.139913,0.339554 v 9.987881 c 0,0.133167 0.04668,0.246332 0.139912,0.339554 0.09322,0.09322 0.206382,0.139913 0.339554,0.139913 h 2.996241 c 0.146494,0 0.259955,-0.04668 0.339859,-0.139913 0.09322,-0.09322 0.139604,-0.206382 0.139604,-0.339554 v -9.987881 c 0,-0.133168 0.04668,-0.246333 0.139913,-0.339554 0.09322,-0.09322 0.206381,-0.139913 0.339553,-0.139913 h 2.796595 c 0.146493,0 0.259651,-0.04668 0.339554,-0.139912 0.09322,-0.09322 0.139911,-0.206382 0.139911,-0.339554 v -2.716734 c 0,-0.133169 -0.04668,-0.246334 -0.139911,-0.339555 -0.0799,-0.09322 -0.193065,-0.139913 -0.339554,-0.139913 z m 24.210736,0 c -0.13317,0 -0.24633,0.04668 -0.33955,0.139913 -0.0933,0.09322 -0.13992,0.206383 -0.13992,0.339555 v 2.716734 c 0,0.133169 0.0467,0.246334 0.13992,0.339554 0.0933,0.09322 0.20637,0.139912 0.33955,0.139912 h 2.836515 c 0.1465,0 0.25964,0.04668 0.33956,0.139913 0.0932,0.09322 0.1399,0.206382 0.1399,0.339554 v 9.987881 c 0,0.133167 0.0467,0.246332 0.13992,0.339554 0.0932,0.09322 0.20638,0.139913 0.33955,0.139913 h 2.99625 c 0.14648,0 0.25965,-0.04668 0.33956,-0.139913 0.0932,-0.09322 0.13991,-0.206382 0.13991,-0.339554 v -9.987881 c 0,-0.133168 0.0467,-0.246333 0.13991,-0.339554 0.0932,-0.09322 0.20639,-0.139913 0.33956,-0.139913 h 2.79658 c 0.1465,0 0.25966,-0.04668 0.33956,-0.139912 0.0932,-0.09322 0.13989,-0.206382 0.13989,-0.339554 v -2.716734 c 0,-0.133169 -0.0467,-0.246334 -0.13989,-0.339555 -0.08,-0.09322 -0.19306,-0.139913 -0.33956,-0.139913 z m 13.024045,0 c -0.13316,0 -0.24632,0.04668 -0.33954,0.139913 -0.0932,0.09322 -0.13991,0.206383 -0.13991,0.339555 v 13.663535 c 0,0.133167 0.0467,0.246332 0.13991,0.339554 0.0932,0.09322 0.20637,0.139913 0.33954,0.139913 h 10.16773 c 0.13325,0 0.24634,-0.04668 0.33955,-0.139913 0.0932,-0.09322 0.1399,-0.206382 0.1399,-0.339554 v -2.756665 c 0,-0.133169 -0.0468,-0.246334 -0.1399,-0.339556 -0.0932,-0.09322 -0.20638,-0.139912 -0.33955,-0.139912 h -6.21256 c -0.13317,0 -0.24634,-0.04668 -0.33956,-0.139913 -0.0932,-0.09322 -0.13959,-0.206382 -0.13959,-0.339554 v -0.758966 c 0,-0.133168 0.0464,-0.246333 0.13959,-0.339554 0.0932,-0.09322 0.20638,-0.139912 0.33956,-0.139912 h 5.41365 c 0.1331,0 0.24634,-0.04668 0.33956,-0.139913 0.0934,-0.09322 0.13993,-0.206382 0.13993,-0.339554 v -2.756664 c 0,-0.133169 -0.0467,-0.246334 -0.13993,-0.339553 -0.0932,-0.09322 -0.20638,-0.139913 -0.33956,-0.139913 h -5.41365 c -0.13317,0 -0.24634,-0.04668 -0.33956,-0.139912 -0.0932,-0.09322 -0.13959,-0.206383 -0.13959,-0.339555 v -0.838825 c 0,-0.133168 0.0464,-0.246333 0.13959,-0.339555 0.0932,-0.09322 0.20638,-0.139913 0.33956,-0.139913 h 6.21256 c 0.13325,0 0.24634,-0.04668 0.33955,-0.139912 0.0932,-0.09322 0.1399,-0.206382 0.1399,-0.339554 V 40.89573 c 0,-0.133169 -0.0468,-0.246334 -0.1399,-0.339555 -0.0932,-0.09322 -0.20638,-0.139912 -0.33955,-0.139912 z m -21.233995,0.02013 c -0.146494,0 -0.286546,0.04668 -0.419718,0.139913 -0.11986,0.0799 -0.206427,0.179769 -0.259695,0.299624 l -5.792837,13.523624 c -0.05328,0.106535 -0.07337,0.199603 -0.06005,0.279507 0.01332,0.0799 0.04671,0.14638 0.09997,0.199647 0.03993,0.05328 0.09995,0.09346 0.179835,0.120094 0.0666,0.02664 0.133055,0.03992 0.199649,0.03992 H 87.4343 c 0.133167,0 0.259935,-0.03989 0.379789,-0.119795 0.13317,-0.09322 0.226238,-0.199887 0.279507,-0.319741 l 0.559318,-1.198496 c 0.05326,-0.11986 0.139848,-0.219723 0.259695,-0.299625 0.133169,-0.09322 0.272923,-0.139913 0.419413,-0.139913 h 4.21486 c 0.133163,0 0.259935,0.04668 0.379784,0.139913 0.133174,0.0799 0.233046,0.17977 0.299628,0.299625 l 0.539197,1.198496 c 0.06663,0.11986 0.159965,0.226521 0.279814,0.319741 0.133174,0.0799 0.272924,0.119795 0.419412,0.119795 h 3.415968 c 0.21308,0 0.35283,-0.0668 0.41941,-0.199952 0.0799,-0.133168 0.0932,-0.259629 0.0399,-0.379483 L 93.506908,40.875955 c -0.05328,-0.11986 -0.146334,-0.219723 -0.279509,-0.299625 -0.11986,-0.09322 -0.246312,-0.139913 -0.379484,-0.139913 z m 1.378332,6.092462 c 0.0666,0 0.126269,0.05998 0.17953,0.179834 0.159803,0.386198 0.33295,0.80576 0.519389,1.258544 0.186442,0.439466 0.34629,0.825637 0.479462,1.158567 0.0666,0.11986 0.0666,0.226523 0,0.319742 -0.05328,0.0799 -0.146331,0.119795 -0.279509,0.119795 h -1.777933 c -0.146493,0 -0.246355,-0.03989 -0.299624,-0.119795 -0.05328,-0.09322 -0.05328,-0.199888 0,-0.319742 l 0.99885,-2.417111 c 0.05328,-0.11986 0.113243,-0.179834 0.179835,-0.179834 z m -31.052408,13.60348 c -1.03874,0 -2.017615,0.200037 -2.9365,0.599553 -0.918886,0.399516 -1.717819,0.94523 -2.396994,1.637721 -0.679176,0.679177 -1.218701,1.478413 -1.618215,2.397299 -0.399516,0.918885 -0.599249,1.89776 -0.599249,2.9365 0,1.038739 0.199733,2.01731 0.599249,2.936196 0.399514,0.918884 0.939039,1.724618 1.618215,2.41711 0.679175,0.679176 1.478108,1.218699 2.396994,1.618215 0.918885,0.399516 1.89776,0.599248 2.9365,0.599248 1.038739,0 2.017614,-0.199732 2.936499,-0.599248 0.918886,-0.399516 1.717819,-0.939039 2.396994,-1.618215 0.692495,-0.692492 1.238511,-1.498226 1.638027,-2.41711 0.399515,-0.918886 0.599248,-1.897457 0.599248,-2.936196 0,-1.03874 -0.199733,-2.017615 -0.599248,-2.9365 -0.399516,-0.918886 -0.945532,-1.718122 -1.638027,-2.397299 -0.679175,-0.692491 -1.478108,-1.238205 -2.396994,-1.637721 -0.918885,-0.399516 -1.89776,-0.599553 -2.936499,-0.599553 z m -31.182257,0.06005 c -0.639224,0 -1.298404,0.07327 -1.97758,0.219765 -0.679176,0.133168 -1.298472,0.37959 -1.857793,0.739154 -0.546003,0.346246 -0.998652,0.818988 -1.358215,1.418261 -0.359565,0.599272 -0.539506,1.358322 -0.539506,2.277207 0,0.625905 0.09338,1.171925 0.279812,1.638026 0.199758,0.452784 0.459472,0.845755 0.779084,1.178685 0.319612,0.332927 0.678887,0.605937 1.078403,0.819013 0.412834,0.213074 0.825898,0.392712 1.238731,0.539202 0.412833,0.133168 0.812299,0.239838 1.198497,0.319741 0.399516,0.0666 0.745801,0.126269 1.038779,0.17953 0.306296,0.0666 0.605895,0.120068 0.898872,0.16003 0.292979,0.03995 0.545894,0.09313 0.758967,0.159721 0.226393,0.0666 0.406334,0.153156 0.539506,0.259695 0.13317,0.09322 0.199648,0.226477 0.199648,0.3996 0,0.332929 -0.153043,0.585844 -0.459342,0.758968 -0.306295,0.159802 -0.752448,0.239576 -1.338403,0.239576 -0.612589,0 -1.271771,-0.132956 -1.977581,-0.399294 -0.70581,-0.266344 -1.418476,-0.632725 -2.137603,-1.098825 -0.106535,-0.06658 -0.226195,-0.08638 -0.359367,-0.05974 -0.133169,0.02664 -0.239838,0.0931 -0.319741,0.199648 l -1.538051,2.217463 c -0.0799,0.106535 -0.113295,0.232996 -0.09997,0.379483 0.01332,0.13317 0.07331,0.239535 0.179836,0.319436 0.372881,0.306295 0.779148,0.599402 1.218614,0.879062 0.452784,0.266342 0.938822,0.499466 1.458192,0.699224 0.519369,0.199758 1.078682,0.352805 1.677956,0.459342 0.599273,0.11986 1.245158,0.179836 1.937651,0.179836 0.852299,0 1.624642,-0.08657 2.317134,-0.259695 0.705812,-0.186439 1.305011,-0.466249 1.797747,-0.83913 0.506053,-0.372881 0.899023,-0.845624 1.178685,-1.418263 0.279659,-0.585956 0.419412,-1.278526 0.419412,-2.077557 0,-0.852299 -0.173144,-1.557861 -0.519389,-2.117181 -0.332929,-0.572639 -0.752186,-1.032085 -1.258238,-1.378333 -0.492737,-0.359565 -1.02546,-0.626078 -1.5981,-0.799201 -0.572638,-0.18644 -1.098866,-0.326194 -1.578284,-0.419413 -0.09322,-0.01333 -0.306249,-0.04671 -0.639179,-0.09997 -0.332926,-0.0666 -0.679214,-0.153157 -1.038779,-0.259694 -0.359562,-0.106535 -0.678952,-0.232994 -0.958613,-0.379483 -0.27966,-0.146495 -0.419718,-0.312832 -0.419718,-0.499273 0,-0.186442 0.05348,-0.332993 0.16003,-0.439529 0.11986,-0.106535 0.266103,-0.179815 0.439226,-0.219765 0.173125,-0.05328 0.353066,-0.07984 0.539506,-0.07984 0.199758,-0.01332 0.372903,-0.02011 0.519392,-0.02011 0.492734,0 1.031954,0.09336 1.61791,0.279812 0.585955,0.173122 1.218544,0.472721 1.897721,0.898872 0.106535,0.0799 0.226499,0.106492 0.359671,0.07987 0.133167,-0.02664 0.239532,-0.0931 0.319436,-0.199648 l 1.558168,-2.217483 c 0.0799,-0.106535 0.113295,-0.226193 0.09997,-0.359365 -0.01333,-0.13317 -0.07331,-0.24664 -0.179836,-0.339859 -0.812346,-0.625909 -1.664767,-1.098649 -2.557016,-1.418263 -0.878935,-0.33293 -1.877602,-0.49927 -2.996242,-0.49927 z m 8.829314,0.199647 c -0.146492,0 -0.26645,0.04668 -0.359671,0.139913 -0.0799,0.09322 -0.119795,0.206381 -0.119795,0.339553 v 13.663535 c 0,0.133169 0.03987,0.246334 0.119795,0.339553 0.09322,0.09322 0.213182,0.139913 0.359671,0.139913 h 2.976429 c 0.133169,0 0.246334,-0.04668 0.339555,-0.139913 0.09322,-0.09322 0.139912,-0.206381 0.139912,-0.339553 v -4.274902 c 0,-0.133168 0.03989,-0.246333 0.119795,-0.339555 0.09322,-0.09322 0.213183,-0.139912 0.359671,-0.139912 h 4.11488 c 0.133169,0 0.246334,0.04668 0.339554,0.139912 0.09322,0.09322 0.139913,0.206383 0.139913,0.339555 v 4.274902 c 0,0.133169 0.03989,0.246334 0.119795,0.339553 0.09322,0.09322 0.213182,0.139913 0.359671,0.139913 h 2.996243 c 0.133168,0 0.246333,-0.04668 0.339553,-0.139913 0.09322,-0.09322 0.139913,-0.206381 0.139913,-0.339553 V 60.871537 c 0,-0.133167 -0.04668,-0.246332 -0.139913,-0.339553 -0.09322,-0.09322 -0.206381,-0.139913 -0.339553,-0.139913 h -2.996243 c -0.146494,0 -0.266451,0.04668 -0.359671,0.139913 -0.0799,0.09322 -0.119795,0.206381 -0.119795,0.339553 v 4.734247 c 0,0.133168 -0.04668,0.246333 -0.139913,0.339553 -0.09322,0.09322 -0.206382,0.139912 -0.339554,0.139912 h -4.11488 c -0.146493,0 -0.26645,-0.04668 -0.359671,-0.139912 -0.0799,-0.09322 -0.119795,-0.206382 -0.119795,-0.339553 v -4.734247 c 0,-0.133167 -0.04668,-0.246332 -0.139912,-0.339553 -0.09322,-0.09322 -0.206383,-0.139913 -0.339555,-0.139913 z m 48.181588,0 c -0.146494,0 -0.266451,0.04668 -0.359671,0.139913 -0.0799,0.09322 -0.119795,0.206381 -0.119795,0.339553 v 13.663535 c 0,0.133169 0.03989,0.246334 0.119795,0.339553 0.09322,0.09322 0.213181,0.139913 0.359671,0.139913 h 9.967761 c 0.13317,0 0.24634,-0.04668 0.33956,-0.139913 0.0933,-0.09322 0.13991,-0.206381 0.13991,-0.339553 V 71.81835 c 0,-0.133168 -0.0467,-0.246333 -0.13991,-0.339553 -0.0933,-0.09322 -0.20639,-0.139913 -0.33956,-0.139913 h -6.0126 c -0.146494,0 -0.266452,-0.04668 -0.359671,-0.139912 -0.0799,-0.09322 -0.119795,-0.206382 -0.119795,-0.339554 v -9.987884 c 0,-0.133168 -0.04668,-0.246333 -0.139913,-0.339554 -0.09322,-0.09322 -0.206382,-0.139912 -0.339554,-0.139912 z m 12.344941,0 c -0.13316,0 -0.24633,0.04668 -0.33955,0.139913 -0.0933,0.09322 -0.13991,0.206381 -0.13991,0.339553 v 13.663535 c 0,0.133169 0.0467,0.246334 0.13991,0.339553 0.0933,0.09322 0.20638,0.139913 0.33955,0.139913 h 5.453295 c 1.03873,0 1.98452,-0.153351 2.83681,-0.459648 0.86562,-0.306294 1.63117,-0.758941 2.29703,-1.358215 0.71912,-0.665858 1.26515,-1.458295 1.63803,-2.377181 0.37287,-0.932201 0.55932,-1.970754 0.55932,-3.11603 0,-1.145277 -0.18645,-2.177334 -0.55932,-3.096219 -0.37288,-0.918886 -0.91891,-1.711323 -1.63803,-2.377181 -1.33172,-1.225179 -3.04305,-1.83798 -5.13384,-1.83798 z m -28.065916,0.02011 c -0.13317,0 -0.246335,0.04668 -0.339554,0.139912 -0.09322,0.09322 -0.139912,0.206382 -0.139912,0.339554 v 8.090159 c 0,0.945519 0.153042,1.804433 0.459343,2.576828 0.306294,0.772396 0.739153,1.431578 1.298473,1.977581 0.55932,0.546005 1.231797,0.972061 2.01751,1.278355 0.785714,0.292979 1.658227,0.43953 2.617063,0.43953 0.958837,0 1.831048,-0.146557 2.616761,-0.43953 0.785713,-0.306294 1.458188,-0.73235 2.01751,-1.278355 0.55932,-0.546003 0.985376,-1.205185 1.278356,-1.977581 0.306294,-0.772395 0.459648,-1.631309 0.459648,-2.576828 v -8.090161 c 0,-0.133169 -0.04668,-0.246334 -0.139913,-0.339554 -0.09322,-0.09322 -0.206383,-0.139912 -0.339553,-0.139912 h -3.01636 c -0.133169,0 -0.246334,0.04668 -0.339556,0.139912 -0.09322,0.09322 -0.139913,0.206382 -0.139913,0.339554 v 8.09016 c 0,0.519369 -0.08657,0.952226 -0.259695,1.298472 -0.159803,0.33293 -0.359539,0.599139 -0.599248,0.798897 -0.239708,0.18644 -0.499423,0.319697 -0.779085,0.3996 -0.279658,0.0799 -0.532573,0.119795 -0.758966,0.119795 -0.22639,0 -0.479611,-0.03989 -0.759271,-0.119795 -0.279661,-0.0799 -0.54587,-0.21316 -0.798896,-0.3996 -0.239709,-0.199758 -0.446244,-0.465967 -0.619366,-0.798897 -0.159802,-0.346246 -0.239577,-0.779103 -0.239577,-1.298472 v -8.09016 c 0,-0.133169 -0.04668,-0.246334 -0.139912,-0.339554 -0.09322,-0.09322 -0.206383,-0.139912 -0.339555,-0.139912 z m -10.10767,3.535748 c 0.492733,0 0.958678,0.106351 1.398144,0.319436 0.439466,0.199758 0.825638,0.472768 1.158568,0.819015 0.332929,0.33293 0.592643,0.732701 0.779083,1.198801 0.18644,0.452785 0.279812,0.925527 0.279812,1.418262 0,0.506052 -0.09338,0.985291 -0.279812,1.438074 -0.18644,0.452784 -0.446154,0.852251 -0.779083,1.198497 -0.33293,0.346248 -0.719102,0.626055 -1.158568,0.839131 -0.439466,0.199758 -0.905411,0.299624 -1.398144,0.299624 -0.492736,0 -0.958984,-0.09986 -1.39845,-0.299624 -0.439467,-0.213076 -0.825637,-0.492883 -1.158567,-0.839131 -0.319612,-0.346246 -0.572527,-0.745713 -0.758966,-1.198497 -0.186442,-0.452783 -0.279812,-0.932022 -0.279812,-1.438074 0,-0.492735 0.09338,-0.965477 0.279812,-1.418262 0.186439,-0.4661 0.439354,-0.865871 0.758966,-1.198801 0.33293,-0.346247 0.7191,-0.619257 1.158567,-0.819015 0.439466,-0.213074 0.905714,-0.319436 1.39845,-0.319436 z m 42.128751,0.159721 h 1.49813 c 0.37287,0 0.75254,0.04668 1.13874,0.139913 0.39951,0.09322 0.75909,0.272859 1.07871,0.539203 0.33293,0.253025 0.59914,0.619405 0.79889,1.098824 0.21308,0.466102 0.31975,1.078597 0.31975,1.837675 0,0.75908 -0.1066,1.378375 -0.31975,1.857792 -0.19975,0.466102 -0.45947,0.832178 -0.77908,1.098521 -0.31961,0.253026 -0.67888,0.426169 -1.0784,0.519389 -0.39951,0.09322 -0.78599,0.139913 -1.15886,0.139913 h -1.49813 c -0.13317,0 -0.24634,-0.04668 -0.33956,-0.139913 -0.0932,-0.09322 -0.13991,-0.206381 -0.13991,-0.339553 v -6.272301 c 0,-0.133169 0.0467,-0.246334 0.13991,-0.339553 0.0932,-0.09322 0.20639,-0.139913 0.33956,-0.139912 z m -66.139838,16.00048 c -1.038739,0 -2.017617,0.200039 -2.9365,0.599555 -0.918886,0.399514 -1.717819,0.945534 -2.396995,1.638025 -0.679175,0.679178 -1.218395,1.478109 -1.61791,2.396994 -0.399516,0.918886 -0.599249,1.897761 -0.599249,2.936499 0,1.038742 0.199733,2.017314 0.599249,2.936197 0.399515,0.918887 0.938735,1.724617 1.61791,2.417111 0.679176,0.679175 1.478109,1.218699 2.396995,1.618217 0.918883,0.399515 1.897761,0.599244 2.9365,0.599244 1.03874,0 2.017615,-0.199729 2.9365,-0.599244 0.918886,-0.399518 1.717819,-0.939042 2.396993,-1.618217 0.692495,-0.692494 1.238514,-1.498224 1.638027,-2.417111 0.399516,-0.918883 0.599248,-1.897455 0.599248,-2.936197 0,-1.038738 -0.199732,-2.017613 -0.599248,-2.936499 -0.399513,-0.918885 -0.945532,-1.717816 -1.638027,-2.396994 -0.679174,-0.692491 -1.478107,-1.238511 -2.396993,-1.638025 -0.918885,-0.399516 -1.89776,-0.599555 -2.9365,-0.599555 z m 68.616998,0.06005 c -0.63924,0 -1.29841,0.07327 -1.97759,0.219765 -0.67918,0.13317 -1.29847,0.379593 -1.85779,0.739155 -0.546,0.346248 -0.99896,0.81899 -1.358515,1.418264 -0.35956,0.599271 -0.5392,1.358319 -0.5392,2.277205 0,0.625906 0.0931,1.171925 0.2795,1.638026 0.19975,0.452784 0.45947,0.845755 0.779085,1.178684 0.3196,0.33293 0.67919,0.605939 1.0787,0.819013 0.41284,0.213078 0.8256,0.392713 1.23843,0.539203 0.41284,0.133169 0.81261,0.239838 1.19882,0.319739 0.39951,0.0666 0.74548,0.126255 1.03846,0.179534 0.30629,0.0666 0.6062,0.120068 0.89919,0.16003 0.29297,0.03992 0.54588,0.09313 0.75896,0.159722 0.22639,0.0666 0.40603,0.153155 0.53919,0.259697 0.13318,0.09321 0.19997,0.226473 0.19997,0.399596 0,0.332933 -0.15336,0.585848 -0.45966,0.758972 -0.30629,0.159803 -0.75214,0.239879 -1.33809,0.239879 -0.61261,0 -1.27178,-0.133249 -1.97758,-0.399601 -0.70582,-0.26634 -1.41849,-0.632722 -2.13762,-1.098823 -0.10649,-0.0666 -0.22649,-0.08637 -0.35966,-0.05975 -0.13318,0.02666 -0.23954,0.0931 -0.31944,0.199648 l -1.538055,2.217463 c -0.0799,0.106535 -0.11336,0.232998 -0.1,0.379483 0.0132,0.133167 0.0733,0.239538 0.17984,0.319437 0.37289,0.306294 0.77885,0.599403 1.218305,0.87906 0.45278,0.266348 0.93912,0.499467 1.4585,0.699228 0.51937,0.199759 1.07869,0.352803 1.67796,0.459339 0.59928,0.11986 1.24516,0.179834 1.93765,0.179834 0.8523,0 1.62464,-0.08657 2.31714,-0.259693 0.7058,-0.18644 1.305,-0.466246 1.79774,-0.839127 0.50605,-0.372883 0.89903,-0.845624 1.17868,-1.418266 0.27967,-0.585955 0.41943,-1.27822 0.41943,-2.077246 0,-0.852303 -0.17315,-1.55817 -0.51941,-2.117492 -0.33292,-0.572637 -0.75248,-1.032084 -1.25855,-1.378331 -0.49273,-0.359565 -1.02545,-0.626078 -1.59809,-0.799201 -0.57263,-0.186441 -1.09856,-0.326193 -1.57797,-0.419413 -0.0932,-0.01332 -0.30626,-0.04671 -0.63919,-0.09997 -0.33293,-0.0666 -0.6792,-0.153156 -1.03877,-0.259694 -0.35957,-0.106535 -0.67926,-0.232996 -0.95893,-0.379484 -0.27965,-0.146495 -0.4194,-0.312832 -0.4194,-0.499272 0,-0.186441 0.0532,-0.332993 0.15972,-0.43953 0.11986,-0.106535 0.26641,-0.179814 0.43953,-0.219767 0.17312,-0.05328 0.35307,-0.07984 0.5395,-0.07984 0.19975,-0.01332 0.37261,-0.02011 0.51909,-0.02011 0.49274,0 1.03226,0.09336 1.61821,0.279812 0.58597,0.173123 1.21855,0.472723 1.89773,0.898874 0.1066,0.0799 0.22618,0.106481 0.35936,0.07986 0.13317,-0.02664 0.23984,-0.09312 0.31974,-0.199647 l 1.55818,-2.217476 c 0.08,-0.106535 0.11336,-0.226193 0.1,-0.359365 -0.0132,-0.13317 -0.0733,-0.246335 -0.17984,-0.339554 -0.81235,-0.625909 -1.66477,-1.098651 -2.55702,-1.418263 -0.87893,-0.33293 -1.87759,-0.499577 -2.99624,-0.499577 z m -91.309494,0.199648 c -0.133169,0 -0.246334,0.04668 -0.339556,0.139912 -0.09322,0.09322 -0.139603,0.206383 -0.139603,0.339555 v 13.663534 c 0,0.133169 0.04639,0.246334 0.139603,0.339557 0.09322,0.09321 0.206384,0.139896 0.339556,0.139896 h 2.976429 c 0.133168,0 0.246333,-0.04666 0.339554,-0.139896 0.09322,-0.09322 0.139913,-0.206383 0.139913,-0.339557 v -7.151359 c 0,-0.133168 0.03989,-0.206447 0.119795,-0.219765 0.09322,-0.02664 0.179792,0.01333 0.259694,0.119795 l 5.213706,7.33119 c 0.0799,0.106535 0.193064,0.199912 0.339553,0.279812 0.146493,0.0799 0.286546,0.119795 0.419718,0.119795 h 2.956313 c 0.133168,0 0.246333,-0.04666 0.339553,-0.139896 0.09322,-0.09322 0.139912,-0.206383 0.139912,-0.339557 v -13.66354 c 0,-0.133168 -0.04668,-0.246333 -0.139912,-0.339555 -0.09322,-0.09322 -0.206381,-0.139913 -0.339553,-0.139913 h -2.956313 c -0.13317,0 -0.246335,0.04668 -0.339553,0.139913 -0.09322,0.09322 -0.139913,0.206383 -0.139913,0.339555 v 7.151356 c 0,0.13317 -0.04668,0.206449 -0.139912,0.219765 -0.0799,0.01332 -0.159673,-0.03336 -0.239577,-0.139913 L 17.429229,80.74764 c -0.0799,-0.106535 -0.193064,-0.193111 -0.339553,-0.259697 -0.146494,-0.07989 -0.286242,-0.120094 -0.419414,-0.120094 z m 31.122208,0 c -0.133168,0 -0.246333,0.04668 -0.339553,0.139912 -0.09322,0.09322 -0.139604,0.206383 -0.139604,0.339555 v 2.716736 c 0,0.133168 0.04637,0.246333 0.139604,0.339551 0.09322,0.09322 0.206381,0.139913 0.339553,0.139913 h 2.836829 c 0.146493,0 0.259651,0.04668 0.339555,0.139912 0.09322,0.09322 0.139603,0.206385 0.139603,0.339557 v 9.987878 c 0,0.133169 0.04668,0.246334 0.139912,0.339557 0.09322,0.09321 0.206382,0.139896 0.339554,0.139896 h 2.996548 c 0.146494,0 0.25965,-0.04666 0.339554,-0.139896 0.09322,-0.09322 0.139912,-0.206383 0.139912,-0.339557 v -9.987878 c 0,-0.13317 0.04637,-0.246335 0.139604,-0.339557 0.09322,-0.09322 0.206383,-0.139912 0.339555,-0.139912 h 2.796898 c 0.146494,0 0.259651,-0.04668 0.339554,-0.139913 0.09322,-0.09322 0.139603,-0.206381 0.139603,-0.339551 v -2.716736 c 0,-0.133168 -0.04637,-0.246333 -0.139603,-0.339555 -0.0799,-0.09322 -0.193064,-0.139912 -0.339554,-0.139912 z m 19.855972,0 c -0.133168,0 -0.246333,0.04668 -0.339554,0.139912 -0.09322,0.09322 -0.139603,0.206383 -0.139603,0.339555 v 13.663534 c 0,0.133169 0.04639,0.246334 0.139603,0.339557 0.09322,0.09321 0.206383,0.139896 0.339554,0.139896 h 10.167717 c 0.133167,0 0.246332,-0.04666 0.339554,-0.139896 0.09322,-0.09322 0.139913,-0.206383 0.139913,-0.339557 v -2.756667 c 0,-0.133168 -0.04668,-0.246331 -0.139913,-0.33955 -0.09322,-0.09322 -0.206383,-0.139912 -0.339554,-0.139912 h -6.212251 c -0.133168,0 -0.246637,-0.04672 -0.339856,-0.139896 -0.09322,-0.09322 -0.139605,-0.206383 -0.139605,-0.339557 v -0.758967 c 0,-0.13317 0.04637,-0.246335 0.139605,-0.339553 0.09322,-0.09322 0.206684,-0.139912 0.339856,-0.139912 h 5.413355 c 0.13317,0 0.246335,-0.04666 0.339554,-0.139913 0.09322,-0.09322 0.139912,-0.206382 0.139912,-0.339554 v -2.756669 c 0,-0.133168 -0.04668,-0.246333 -0.139912,-0.339553 -0.09322,-0.09322 -0.206382,-0.139912 -0.339554,-0.139912 h -5.413355 c -0.133168,0 -0.246637,-0.04637 -0.339856,-0.139604 -0.09322,-0.09322 -0.139605,-0.206687 -0.139605,-0.339858 V 84.52294 c 0,-0.133169 0.04637,-0.246334 0.139605,-0.339554 0.09322,-0.09322 0.206684,-0.139913 0.339856,-0.139913 h 6.212251 c 0.133167,0 0.246332,-0.04668 0.339554,-0.139912 0.09322,-0.09322 0.139913,-0.206382 0.139913,-0.339554 v -2.716734 c 0,-0.133169 -0.04668,-0.246334 -0.139913,-0.339556 -0.09322,-0.09322 -0.206383,-0.139912 -0.339554,-0.139912 z m 47.242784,0 c -0.13317,0 -0.24633,0.04668 -0.33956,0.139912 -0.0932,0.09322 -0.13989,0.206383 -0.13989,0.339555 v 2.716736 c 0,0.133168 0.0467,0.246333 0.13989,0.339551 0.0932,0.09322 0.20639,0.139913 0.33956,0.139913 h 2.83652 c 0.14649,0 0.25966,0.04668 0.33956,0.139912 0.0932,0.09322 0.1399,0.206385 0.1399,0.339557 v 9.987878 c 0,0.133169 0.0467,0.246334 0.1399,0.339557 0.0932,0.09321 0.20639,0.139896 0.33956,0.139896 h 2.99624 c 0.14649,0 0.25996,-0.04666 0.33986,-0.139896 0.0932,-0.09322 0.1396,-0.206383 0.1396,-0.339557 v -9.987878 c 0,-0.13317 0.0467,-0.246335 0.13991,-0.339557 0.0932,-0.09322 0.20639,-0.139912 0.33956,-0.139912 h 2.79659 c 0.14657,0 0.25966,-0.04668 0.33956,-0.139913 0.0932,-0.09322 0.1399,-0.206381 0.1399,-0.339551 v -2.716736 c 0,-0.133168 -0.0467,-0.246333 -0.1399,-0.339555 -0.0799,-0.09322 -0.19306,-0.139912 -0.33956,-0.139912 z m -35.237088,0.02013 c -0.133167,0 -0.219744,0.06648 -0.259694,0.199648 -0.03993,0.133169 -0.02016,0.253133 0.05974,0.35967 l 5.014058,6.43232 c 0.0799,0.106534 0.119795,0.232995 0.119795,0.379485 0,0.146492 -0.03989,0.272944 -0.119795,0.379483 l -4.874152,6.272294 c -0.0799,0.106535 -0.100013,0.233298 -0.06005,0.379789 0.03996,0.133168 0.126529,0.199648 0.259694,0.199648 h 3.795444 c 0.13317,0 0.272923,-0.03989 0.419412,-0.119795 0.146495,-0.0799 0.259956,-0.17327 0.339859,-0.279812 l 2.396993,-3.495819 c 0.0799,-0.106535 0.172971,-0.159721 0.279508,-0.159721 0.106535,0 0.19991,0.05321 0.279812,0.159721 l 2.396995,3.495819 c 0.07989,0.106535 0.193064,0.199913 0.339554,0.279812 0.146493,0.0799 0.286543,0.119795 0.419715,0.119795 h 3.79514 c 0.133168,0 0.219741,-0.06648 0.259695,-0.199648 0.05326,-0.146494 0.03997,-0.273253 -0.03992,-0.379789 l -4.87385,-6.272301 c -0.07989,-0.106535 -0.120094,-0.232993 -0.120094,-0.379484 0,-0.146492 0.04018,-0.272943 0.120094,-0.379483 l 4.973824,-6.432318 c 0.07989,-0.106535 0.10648,-0.2265 0.07984,-0.359672 -0.02664,-0.133169 -0.119704,-0.199647 -0.279506,-0.199647 h -3.815561 c -0.133168,0 -0.272925,0.0399 -0.419414,0.119795 -0.146494,0.0666 -0.25965,0.153155 -0.339553,0.259695 -0.399514,0.585956 -0.812277,1.198756 -1.238427,1.837979 -0.412833,0.625907 -0.832395,1.238402 -1.258543,1.837676 -0.0799,0.106535 -0.173276,0.159722 -0.279812,0.159722 -0.106535,0 -0.199603,-0.05318 -0.279507,-0.159722 l -2.49697,-3.655537 c -0.07989,-0.106535 -0.193065,-0.199909 -0.339555,-0.279813 -0.146494,-0.0799 -0.286241,-0.119795 -0.419413,-0.119795 z m 16.879541,0 c -0.146492,0 -0.266449,0.04668 -0.359668,0.139913 -0.0799,0.09322 -0.119795,0.206381 -0.119795,0.339553 v 13.643417 c 0,0.133169 0.03989,0.246334 0.119795,0.339557 0.09322,0.09321 0.213181,0.139912 0.359668,0.139912 h 3.016052 c 0.13318,0 0.24664,-0.04666 0.33986,-0.139912 0.0933,-0.09322 0.1396,-0.206384 0.1396,-0.339557 V 80.867417 c 0,-0.133169 -0.0464,-0.246334 -0.1396,-0.339555 -0.0933,-0.09322 -0.20668,-0.139912 -0.33986,-0.139912 z m -57.170921,3.535755 c 0.492735,0 0.958984,0.106351 1.39845,0.319436 0.439466,0.199758 0.825637,0.472767 1.158566,0.819016 0.33293,0.332927 0.592644,0.732699 0.779085,1.198801 0.186439,0.452783 0.279506,0.925525 0.279506,1.418262 0,0.506052 -0.09307,0.98529 -0.279506,1.438075 -0.186441,0.452782 -0.446155,0.852248 -0.779085,1.198493 -0.332929,0.346251 -0.7191,0.626057 -1.158566,0.839134 -0.439466,0.199756 -0.905715,0.29962 -1.39845,0.29962 -0.492737,0 -0.958678,-0.09985 -1.398144,-0.29962 -0.439469,-0.213077 -0.82564,-0.492883 -1.158568,-0.839134 -0.319611,-0.346245 -0.572831,-0.745711 -0.759271,-1.198493 -0.18644,-0.452785 -0.279507,-0.932023 -0.279507,-1.438075 0,-0.492737 0.09307,-0.965479 0.279507,-1.418262 0.18644,-0.466102 0.43966,-0.865874 0.759271,-1.198801 0.332928,-0.346249 0.719099,-0.619258 1.158568,-0.819016 0.439466,-0.213074 0.905407,-0.319436 1.398144,-0.319436 z" style="color:#000;-inkscape-font-specification:Heavitas;display:inline;fill:#fff;stroke-linecap:round;stroke-linejoin:round;stroke-miterlimit:128;-inkscape-stroke:none;paint-order:stroke fill markers"/></svg>