<svg xmlns="http://www.w3.org/2000/svg" xml:space="preserve" width="512" height="512" viewBox="0 0 135.46666 135.46667"><path d="M 2.4999999e-6,135.46666 H 11.972402 67.733334 L 39.852866,107.58619 135.46666,11.972391 V 8.4999991e-7 H 123.49427 L 27.880472,95.613797 2.4999999e-6,67.733329 v 55.760931 z" style="fill:#c32258;fill-opacity:1;stroke:none;stroke-width:33.8667;stroke-miterlimit:128;stroke-dasharray:none;stroke-opacity:1;paint-order:stroke fill markers"/><path d="m 8.8826618,57.150516 c -1.1050731,0 -2.496201,0.56868 -3.2886881,1.361157 -0.7924824,0.792482 -1.3616739,2.182211 -1.3616739,3.287138 v 11.866976 c 0,1.10508 0.5691958,2.496708 1.3616739,3.289205 0.7924701,0.79247 2.183737,1.361157 3.2886881,1.361157 H 11.50214 c 1.105073,0 2.496201,-0.56868 3.288688,-1.361157 0.0232,-0.0232 0.03403,-0.06572 0.05684,-0.08992 L 14.51746,76.484219 c 0.0744,0.09921 0.174138,0.09227 0.254248,0.181901 0.04449,0.05229 0.04276,0.128343 0.0894,0.177767 0.01957,-0.02106 0.03189,-0.05471 0.05116,-0.07648 0.564525,0.576583 1.194669,1.051894 1.732194,1.242302 0.479839,0.173444 1.024297,0.306958 1.590084,0.306958 h 2.984314 c 0.960871,0 1.968454,-0.341974 2.677872,-0.814938 0.02673,-0.01778 0.05326,-0.03587 0.07958,-0.05426 0.238471,-0.166939 0.429553,-0.557828 0.670243,-0.806669 0.203167,0.220714 0.367385,0.511111 0.583944,0.679545 0.134113,0.104643 0.27441,0.201108 0.420129,0.288871 0.703141,0.421888 1.646833,0.707451 2.542481,0.707451 h 2.967261 c 0.147575,0 0.410129,-0.138001 0.595312,-0.168465 0.261397,0.05141 0.532534,0.168465 0.775663,0.168465 h 2.583822 c 0.723012,0 1.512397,-0.2954 2.232422,-0.685747 0.03162,0.01806 0.06439,0.06515 0.0956,0.08217 0.129389,0.07063 0.262379,0.134448 0.398425,0.191203 0.52733,0.21971 1.19278,0.411861 2.009697,0.411861 h 3.228743 c 0.20791,0 0.516106,-0.196225 0.765845,-0.236161 0.393338,0.105417 0.800596,0.236161 1.142566,0.236161 h 8.655802 c 0.333211,0 0.70206,-0.135975 1.062984,-0.22996 0.381029,0.09952 0.775972,0.22996 1.107426,0.22996 h 2.618962 c 0.266528,0 0.562199,-0.124174 0.84956,-0.185518 0.320008,0.06965 0.61527,0.185518 0.954981,0.185518 h 2.984314 c 0.960871,0 1.971213,-0.343296 2.677872,-0.814421 0.0269,-0.01778 0.05361,-0.03587 0.0801,-0.05426 0.237279,-0.166105 0.429374,-0.557181 0.669726,-0.805119 0.20296,0.22074 0.366555,0.508915 0.583944,0.677995 0.134113,0.104643 0.274411,0.201108 0.42013,0.288871 0.705578,0.42335 1.647354,0.706934 2.542997,0.706934 h 2.966744 c 0.224772,0 0.602599,-0.184877 0.906404,-0.255798 0.399573,0.11389 0.80689,0.255798 1.175639,0.255798 h 2.618962 c 1.105081,0 2.496717,-0.56868 3.289205,-1.361157 0.01361,-0.01361 0.01959,-0.03875 0.03307,-0.05271 0.233524,0.04534 0.497419,0.181901 0.703317,0.181901 0.19319,0 0.466158,-0.149512 0.693497,-0.195337 0.0171,0.01788 0.02557,0.04883 0.04289,0.06615 0.79247,0.79247 2.184253,1.361674 3.289205,1.361674 h 2.618961 c 0.558975,0 1.188465,-0.148379 1.77922,-0.394808 0.590778,0.246436 1.218239,0.394808 1.777152,0.394808 h 8.832535 c 0.47906,0 1.01266,-0.146607 1.52704,-0.33228 0.51393,0.185207 1.0466,0.33228 1.52549,0.33228 h 2.58589 c 0.97879,0 2.12646,-0.486148 2.93935,-1.138949 0.20609,0.15142 0.40509,0.410606 0.60152,0.517798 0.60309,0.328973 1.4317,0.621151 2.39261,0.621151 h 2.56832 c 0.93843,0 2.01707,-0.457626 2.82619,-1.066602 0.80887,0.609084 1.8915,1.066602 2.83032,1.066602 h 2.60139 c 0.98859,0 2.46895,-0.536686 3.38274,-1.512053 0.73241,-0.80781 1.26762,-2.088742 1.26762,-3.138826 v -5.16971 c 0.73372,-0.240047 1.44689,-0.612468 1.99626,-1.19941 0.73164,-0.808061 1.26556,-2.087685 1.26556,-3.13676 v -2.361096 c 0,-1.051079 -0.53363,-2.327859 -1.26349,-3.134692 -0.91365,-0.977652 -2.39726,-1.513603 -3.38688,-1.513603 h -9.16016 c -0.36995,0 -0.77894,0.141221 -1.17977,0.255798 -0.40124,-0.114816 -0.80945,-0.255798 -1.17978,-0.255798 h -2.56832 c -0.98703,0 -2.14969,0.490783 -2.96261,1.152384 -0.24745,-0.17772 -0.47319,-0.453062 -0.71313,-0.570507 -0.58964,-0.302063 -1.33972,-0.581877 -2.24017,-0.581877 h -2.60346 c -0.47894,0 -1.01155,0.146567 -1.52549,0.331763 -0.51436,-0.185684 -1.04804,-0.331763 -1.52704,-0.331763 h -8.832535 c -0.563765,0 -1.195492,0.151761 -1.790588,0.402043 -0.586113,-0.242349 -1.211981,-0.384473 -1.765784,-0.384473 h -2.427758 c -0.967459,0 -1.795693,0.295565 -2.392619,0.621151 -0.53576,0.292235 -1.143678,0.737365 -1.654163,1.418001 -0.03841,0.05185 -0.07562,0.104576 -0.111621,0.15813 l -0.06615,0.09767 -0.06666,-0.09767 0.06459,0.09974 -0.0057,0.0093 c -0.54353,-0.849365 -1.2366,-1.373131 -1.808675,-1.685168 -0.597001,-0.32564 -1.42316,-0.621151 -2.390552,-0.621151 h -2.429826 c -1.105073,0 -2.496727,0.568699 -3.289205,1.361157 -0.162334,0.162354 -0.259362,0.420294 -0.399975,0.625285 -0.347668,-0.412642 -0.646765,-0.906156 -1.02371,-1.148767 -0.70086,-0.45773 -1.638924,-0.837675 -2.609143,-0.837675 h -2.429826 c -1.00937,0 -2.033249,0.384795 -2.744019,0.870748 -0.295768,0.202043 -0.492433,0.603069 -0.763777,0.902787 -0.09802,-0.12668 -0.156518,-0.305345 -0.26355,-0.412378 -0.79247,-0.79247 -2.184254,-1.361157 -3.289205,-1.361157 H 55.81468 c -1.026691,0 -2.444768,0.499162 -3.306775,1.361157 -0.07657,0.07656 -0.150179,0.156027 -0.220658,0.238229 -0.250707,0.292503 -0.411397,0.670412 -0.582393,1.035079 -0.229019,-0.482067 -0.490777,-0.955862 -0.82579,-1.290878 -0.792482,-0.792482 -2.184247,-1.361157 -3.289205,-1.361157 h -2.601391 c -0.905119,0 -2.064277,0.438761 -2.930054,1.122929 -0.254145,-0.130405 -0.455483,-0.368222 -0.716752,-0.470772 -1.096183,-0.440937 -2.271786,-0.652157 -3.415812,-0.652157 h -5.394503 c -1.105073,0 -2.496717,0.56868 -3.289205,1.361157 -0.0445,0.0445 -0.06652,0.123963 -0.109554,0.172083 -0.221694,-0.205236 -0.380686,-0.534869 -0.603064,-0.677995 -0.700857,-0.45773 -1.639434,-0.837675 -2.609659,-0.837675 h -2.427759 c -1.009387,0 -2.033023,0.383189 -2.746086,0.870748 -0.396317,0.27073 -0.686803,0.77276 -1.023193,1.209228 -0.650712,-0.526912 -1.299113,-1.073393 -2.054655,-1.392679 -1.100562,-0.469474 -2.304746,-0.704867 -3.47679,-0.704867 z m 35.3342772,2.52336 0.04289,0.04289 c -0.0073,-0.0075 -0.01797,-0.01007 -0.02532,-0.01757 -0.0073,-0.0074 -0.01021,-0.01796 -0.01757,-0.02532 z m -23.718966,0.08578 0.04134,0.04134 c -0.0073,-0.0075 -0.01855,-0.01013 -0.02584,-0.01757 -0.0067,-0.0067 -0.0089,-0.0171 -0.0155,-0.02377 z m -4.191992,1.076937 0.195854,0.09095 c -0.03389,-0.01694 -0.06721,-0.0071 -0.101286,-0.02325 -0.03366,-0.01557 -0.06105,-0.05254 -0.09457,-0.0677 z m 24.080701,0.15968 0.09198,0.05271 c -0.0016,0.0093 -0.0046,0.01814 -0.0062,0.02739 -0.03159,-0.01777 -0.05425,-0.06329 -0.08578,-0.0801 z m -5.076176,14.806331 -0.156063,0.285254 c 0.02752,-0.04587 0.02857,-0.139443 0.05478,-0.189652 0.02354,-0.0425 0.07943,-0.05189 0.101286,-0.0956 z m 42.004154,0 -0.15658,0.285254 c 0.02752,-0.04587 0.02857,-0.139443 0.05478,-0.189652 0.02357,-0.04257 0.07991,-0.05182 0.101803,-0.0956 z m -18.822624,2.176095 c 0.04565,0.01826 0.109303,0.01392 0.15658,0.03101 0.02406,0.0085 0.05449,0.04693 0.07803,0.05478 z" style="color:#000;-inkscape-font-specification:Heavitas;fill:#c32258;stroke-linecap:round;stroke-linejoin:round;stroke-miterlimit:128;-inkscape-stroke:none;paint-order:stroke fill markers"/><path d="m 8.882527,61.383332 c -0.115666,0 -0.213952,0.04055 -0.294918,0.121515 -0.08097,0.08097 -0.121514,0.179252 -0.121514,0.294918 V 73.6669 c 0,0.115665 0.04055,0.213952 0.121514,0.294918 0.08097,0.08097 0.179252,0.121515 0.294918,0.121515 h 2.619845 c 0.115666,0 0.213952,-0.04055 0.294918,-0.121515 0.08097,-0.08097 0.121514,-0.179253 0.121514,-0.294918 v -2.585164 c 0,-0.115666 0.04055,-0.213952 0.121515,-0.294918 0.08097,-0.08097 0.179252,-0.12125 0.294918,-0.12125 h 1.509534 c 0.84436,0 1.578818,-0.11574 2.203413,-0.347071 0.636161,-0.242898 1.162499,-0.566758 1.578896,-0.971588 0.427963,-0.416396 0.745917,-0.902186 0.954115,-1.457381 0.208198,-0.566762 0.31239,-1.173933 0.31239,-1.821661 0,-0.647728 -0.127287,-1.255164 -0.381751,-1.821926 -0.242899,-0.566761 -0.578306,-1.064098 -1.006269,-1.492061 -0.416396,-0.427963 -0.913733,-0.763371 -1.492062,-1.006269 -0.566761,-0.242897 -1.174197,-0.364279 -1.821925,-0.364279 z m 23.647965,0 c -0.115666,0 -0.213952,0.04055 -0.294918,0.121515 -0.08097,0.08097 -0.121515,0.179252 -0.121515,0.294918 V 73.6669 c 0,0.115665 0.04055,0.213952 0.121515,0.294918 0.08097,0.08097 0.179252,0.121515 0.294918,0.121515 h 2.585164 c 0.115666,0 0.213952,-0.04055 0.294918,-0.121515 0.08097,-0.08097 0.121514,-0.179253 0.121514,-0.294918 v -2.810456 c 0,-0.115666 0.04028,-0.214217 0.12125,-0.295183 0.08097,-0.08097 0.179517,-0.12125 0.295183,-0.12125 h 0.381487 c 0.115666,0 0.237312,0.03464 0.364544,0.104042 0.127232,0.05783 0.225518,0.133024 0.294918,0.225557 0.358563,0.508929 0.717066,1.011908 1.075629,1.50927 0.37013,0.497362 0.74018,0.989058 1.110311,1.474854 0.0694,0.09253 0.167685,0.17363 0.294917,0.243029 0.138799,0.05783 0.266087,0.08657 0.381752,0.08657 h 3.227153 c 0.115666,0 0.190857,-0.0521 0.225557,-0.156196 0.0347,-0.115666 0.01724,-0.219593 -0.05215,-0.312126 -0.381697,-0.508929 -0.815391,-1.069909 -1.301187,-1.682938 -0.485795,-0.613028 -0.94849,-1.208651 -1.38802,-1.786979 -0.0694,-0.09253 -0.09249,-0.185178 -0.06936,-0.27771 0.0347,-0.104099 0.09834,-0.190838 0.190876,-0.260237 0.277598,-0.173499 0.526266,-0.387525 0.746031,-0.64199 0.219765,-0.266031 0.410696,-0.56089 0.572628,-0.884753 0.161932,-0.323864 0.283313,-0.665178 0.364279,-1.023741 0.09253,-0.37013 0.138723,-0.740181 0.138723,-1.110311 0,-0.670861 -0.115476,-1.283938 -0.346807,-1.839133 -0.219765,-0.555195 -0.532077,-1.035343 -0.936907,-1.440173 -0.393263,-0.40483 -0.873411,-0.716878 -1.440173,-0.936642 -0.566762,-0.231332 -1.18548,-0.347072 -1.856341,-0.347072 z m 12.457235,0 c -0.127232,0 -0.231425,0.04055 -0.312391,0.121515 -0.0694,0.08097 -0.104042,0.179252 -0.104042,0.294918 V 73.6669 c 0,0.115665 0.03464,0.213952 0.104042,0.294918 0.08097,0.08097 0.185159,0.121515 0.312391,0.121515 h 8.657454 c 0.115666,0 0.213952,-0.04055 0.294918,-0.121515 0.08097,-0.08097 0.121514,-0.179253 0.121514,-0.294918 v -2.359608 c 0,-0.115666 -0.04055,-0.213952 -0.121514,-0.294917 -0.08097,-0.08097 -0.179252,-0.121251 -0.294918,-0.121251 h -5.222217 c -0.127232,0 -0.231424,-0.04055 -0.312391,-0.121514 -0.0694,-0.08097 -0.104041,-0.179252 -0.104041,-0.294918 v -8.674927 c 0,-0.115666 -0.04055,-0.213952 -0.121515,-0.294918 -0.08097,-0.08097 -0.179253,-0.121515 -0.294918,-0.121515 z m 47.104788,0 c -0.115665,0 -0.213951,0.04055 -0.294917,0.121515 -0.08097,0.08097 -0.121515,0.179252 -0.121515,0.294918 V 73.6669 c 0,0.115665 0.04055,0.213952 0.121515,0.294918 0.08097,0.08097 0.179252,0.121515 0.294917,0.121515 h 8.831125 c 0.11566,0 0.21395,-0.04055 0.29492,-0.121515 0.081,-0.08097 0.12151,-0.179253 0.12151,-0.294918 v -2.394288 c 0,-0.115666 -0.0405,-0.213952 -0.12151,-0.294918 -0.081,-0.08097 -0.17926,-0.12125 -0.29492,-0.12125 h -5.395887 c -0.115666,0 -0.213952,-0.04055 -0.294918,-0.121515 -0.08097,-0.08097 -0.12125,-0.179252 -0.12125,-0.294918 V 69.78055 c 0,-0.115666 0.04028,-0.213952 0.12125,-0.294918 0.08097,-0.08097 0.179252,-0.121515 0.294918,-0.121515 h 4.702007 c 0.11567,0 0.21395,-0.04028 0.29492,-0.12125 0.081,-0.08097 0.12151,-0.179252 0.12151,-0.294918 v -2.394288 c 0,-0.115666 -0.0406,-0.214217 -0.12151,-0.295183 -0.081,-0.08097 -0.17925,-0.12125 -0.29492,-0.12125 h -4.702007 c -0.115666,0 -0.213952,-0.04055 -0.294918,-0.121514 -0.08097,-0.08097 -0.12125,-0.179253 -0.12125,-0.294918 v -0.728823 c 0,-0.115666 0.04028,-0.213952 0.12125,-0.294918 0.08097,-0.08097 0.179252,-0.121515 0.294918,-0.121515 h 5.395887 c 0.11566,0 0.21395,-0.04028 0.29492,-0.12125 0.081,-0.08097 0.12151,-0.179252 0.12151,-0.294918 v -2.359607 c 0,-0.115666 -0.0405,-0.213952 -0.12151,-0.294918 -0.081,-0.08097 -0.17926,-0.121515 -0.29492,-0.121515 z m 11.884875,0 c -0.11567,0 -0.21422,0.04055 -0.29519,0.121515 -0.081,0.08097 -0.12125,0.179252 -0.12125,0.294918 V 73.6669 c 0,0.115665 0.0403,0.213952 0.12125,0.294918 0.081,0.08097 0.17952,0.121515 0.29519,0.121515 h 2.58489 c 0.11567,0 0.21396,-0.04055 0.29492,-0.121515 0.081,-0.08097 0.12152,-0.179253 0.12152,-0.294918 v -6.211277 c 0,-0.115666 0.0346,-0.179045 0.10404,-0.190611 0.081,-0.02314 0.15616,0.01151 0.22556,0.104041 l 4.52834,6.367208 c 0.0694,0.09253 0.16768,0.17363 0.29492,0.243029 0.12723,0.0694 0.24887,0.104043 0.36454,0.104043 h 2.56769 c 0.11566,0 0.21395,-0.04055 0.29492,-0.121515 0.081,-0.08097 0.12151,-0.179253 0.12151,-0.294918 V 61.799765 c 0,-0.115666 -0.0405,-0.213952 -0.12151,-0.294918 -0.081,-0.08097 -0.17926,-0.121515 -0.29492,-0.121515 h -2.56769 c -0.11567,0 -0.21395,0.04055 -0.29492,0.121515 -0.081,0.08097 -0.12151,0.179252 -0.12151,0.294918 v 6.211277 c 0,0.115666 -0.0405,0.179045 -0.12152,0.190612 -0.0694,0.01157 -0.13869,-0.02872 -0.20808,-0.12125 l -4.51114,-6.367473 c -0.0694,-0.09253 -0.16768,-0.167724 -0.29491,-0.225557 -0.12724,-0.0694 -0.24861,-0.104042 -0.36428,-0.104042 z m 13.44603,0 c -0.11567,0 -0.21395,0.04055 -0.29492,0.121515 -0.081,0.08097 -0.12151,0.179252 -0.12151,0.294918 v 2.359607 c 0,0.115666 0.0405,0.213952 0.12151,0.294918 0.081,0.08097 0.17925,0.12125 0.29492,0.12125 h 2.46365 c 0.12723,0 0.22551,0.04055 0.29491,0.121515 0.081,0.08097 0.12152,0.179252 0.12152,0.294918 V 73.6669 c 0,0.115665 0.0405,0.213952 0.12151,0.294918 0.081,0.08097 0.17926,0.121515 0.29492,0.121515 h 2.60237 c 0.12724,0 0.22552,-0.04055 0.29492,-0.121515 0.081,-0.08097 0.12152,-0.179253 0.12152,-0.294918 v -8.674927 c 0,-0.115666 0.0405,-0.213952 0.12151,-0.294918 0.081,-0.08097 0.17925,-0.121515 0.29492,-0.121515 h 2.42897 c 0.12723,0 0.22552,-0.04028 0.29492,-0.12125 0.081,-0.08097 0.12151,-0.179252 0.12151,-0.294918 v -2.359607 c 0,-0.115666 -0.0406,-0.213952 -0.12151,-0.294918 -0.0694,-0.08097 -0.16769,-0.121515 -0.29492,-0.121515 z m -93.932134,0.01721 c -0.127232,0 -0.248878,0.04055 -0.364544,0.121515 -0.104099,0.0694 -0.17929,0.156138 -0.225557,0.260237 L 17.869844,73.52818 c -0.04627,0.09253 -0.06372,0.173629 -0.05215,0.243028 0.01157,0.0694 0.04057,0.127138 0.08683,0.173404 0.0347,0.04627 0.0868,0.08091 0.156195,0.104042 0.05783,0.02313 0.115571,0.03468 0.173404,0.03468 h 2.984123 c 0.115666,0 0.225765,-0.03464 0.329864,-0.104042 0.115665,-0.08097 0.196498,-0.173611 0.242764,-0.27771 l 0.485794,-1.040949 c 0.04627,-0.104099 0.121457,-0.190838 0.225557,-0.260237 0.115665,-0.08097 0.237046,-0.121515 0.364279,-0.121515 h 3.661058 c 0.115666,0 0.2255,0.04055 0.329599,0.121515 0.115665,0.0694 0.202404,0.156138 0.260237,0.260237 l 0.468321,1.040949 c 0.05783,0.104099 0.13893,0.196744 0.243029,0.27771 0.115666,0.0694 0.237047,0.104042 0.364279,0.104042 h 2.966917 c 0.185065,0 0.306446,-0.05774 0.364278,-0.173403 0.0694,-0.115666 0.08095,-0.2255 0.03468,-0.329599 L 26.492618,61.782294 c -0.04627,-0.104099 -0.127099,-0.190838 -0.242765,-0.260237 -0.104099,-0.08097 -0.213933,-0.121515 -0.329598,-0.121515 z m 32.322627,0 c -0.127233,0 -0.23116,0.04055 -0.312126,0.121515 -0.0694,0.08097 -0.104307,0.179252 -0.104307,0.294918 V 73.6669 c 0,0.115665 0.03491,0.213952 0.104307,0.294918 0.08097,0.08097 0.184893,0.121515 0.312126,0.121515 h 2.619844 c 0.115666,0 0.213952,-0.04055 0.294918,-0.121515 0.08097,-0.08097 0.121515,-0.179253 0.121515,-0.294918 V 61.816973 c 0,-0.115666 -0.04055,-0.213952 -0.121515,-0.294918 -0.08097,-0.08097 -0.179252,-0.121515 -0.294918,-0.121515 z m 9.681195,0 c -0.127233,0 -0.248614,0.04055 -0.36428,0.121515 -0.104099,0.0694 -0.17929,0.156138 -0.225556,0.260237 l -5.031341,11.745885 c -0.04627,0.09253 -0.06372,0.17363 -0.05215,0.243029 0.01157,0.0694 0.04057,0.127137 0.08683,0.173404 0.0347,0.04626 0.0868,0.08091 0.156196,0.104041 0.05783,0.02314 0.11557,0.03468 0.173403,0.03468 h 2.984124 c 0.115666,0 0.2255,-0.03464 0.329599,-0.104042 0.115665,-0.08097 0.196762,-0.173611 0.243029,-0.27771 l 0.485794,-1.040949 c 0.04626,-0.104099 0.121457,-0.190838 0.225556,-0.260237 0.115666,-0.08097 0.237047,-0.121515 0.364279,-0.121515 h 3.660794 c 0.115665,0 0.225499,0.04055 0.329598,0.121515 0.115666,0.0694 0.202669,0.156138 0.260502,0.260237 l 0.468321,1.040949 c 0.05783,0.104099 0.138666,0.196744 0.242765,0.27771 0.115666,0.0694 0.237311,0.104042 0.364544,0.104042 h 2.966651 c 0.185065,0 0.306711,-0.05774 0.364544,-0.173403 0.0694,-0.115666 0.08095,-0.2255 0.03468,-0.329599 L 68.496704,61.782294 c -0.04627,-0.104099 -0.127099,-0.190838 -0.242764,-0.260237 -0.104099,-0.08097 -0.213933,-0.121515 -0.329599,-0.121515 z m 9.750821,0 c -0.115666,0 -0.213952,0.04055 -0.294919,0.121515 -0.08096,0.08097 -0.121514,0.179252 -0.121514,0.294918 V 73.6669 c 0,0.115665 0.04055,0.213952 0.121514,0.294918 0.08097,0.08097 0.179253,0.121515 0.294919,0.121515 h 2.619845 c 0.115665,0 0.213951,-0.04055 0.294917,-0.121515 0.08097,-0.08097 0.121515,-0.179253 0.121515,-0.294918 v -5.586496 c 0,-0.115666 0.05183,-0.17931 0.15593,-0.190876 0.104099,-0.01157 0.185197,0.02898 0.24303,0.121514 l 2.914762,4.701743 c 0.0694,0.09253 0.167686,0.138722 0.294918,0.138722 0.127233,0 0.219877,-0.04619 0.27771,-0.138722 l 2.914763,-4.701743 c 0.0694,-0.09253 0.156138,-0.133081 0.260237,-0.121514 0.104099,0.01157 0.156195,0.07521 0.156195,0.190876 V 73.6669 c 0,0.115665 0.04028,0.213952 0.12125,0.294918 0.08097,0.08097 0.179252,0.121515 0.294918,0.121515 h 2.619845 c 0.115665,0 0.213952,-0.04055 0.294918,-0.121515 0.08097,-0.08097 0.121514,-0.179253 0.121514,-0.294918 V 61.816973 c 0,-0.115666 -0.04055,-0.213952 -0.121514,-0.294918 -0.08097,-0.08097 -0.179253,-0.121515 -0.294918,-0.121515 h -2.428969 c -0.115666,0 -0.237047,0.03491 -0.364279,0.104307 -0.127232,0.0694 -0.225518,0.150232 -0.294918,0.242764 l -3.331196,4.892619 c -0.05783,0.09253 -0.133024,0.138988 -0.225556,0.138988 -0.09253,0 -0.173365,-0.04646 -0.242765,-0.138988 l -3.331195,-4.892619 c -0.05783,-0.09253 -0.150477,-0.173365 -0.27771,-0.242764 -0.127232,-0.0694 -0.248613,-0.104307 -0.364278,-0.104307 z m -62.910692,3.175 h 1.630784 c 0.242899,0 0.456925,0.04645 0.64199,0.138987 0.185064,0.08097 0.341353,0.1908 0.468585,0.329599 0.127232,0.138799 0.219613,0.300729 0.277446,0.485794 0.0694,0.173498 0.104306,0.352882 0.104306,0.537947 0,0.358563 -0.104192,0.682424 -0.31239,0.971588 -0.196632,0.277598 -0.51485,0.416168 -0.95438,0.416168 h -1.856341 c -0.115666,0 -0.213952,-0.04028 -0.294918,-0.12125 -0.08097,-0.08097 -0.121515,-0.179253 -0.121515,-0.294918 v -2.047482 c 0,-0.115666 0.04055,-0.213952 0.121515,-0.294918 0.08097,-0.08097 0.179252,-0.121515 0.294918,-0.121515 z m 23.613284,0 h 1.838868 c 0.242898,0 0.445377,0.0521 0.607309,0.156195 0.173498,0.09253 0.306692,0.214179 0.399224,0.364544 0.104099,0.138799 0.173385,0.288917 0.208084,0.450849 0.04627,0.150365 0.06936,0.283559 0.06936,0.399224 0,0.219765 -0.04055,0.410431 -0.121514,0.572364 -0.08097,0.161932 -0.184894,0.300766 -0.312126,0.416432 -0.127232,0.104099 -0.266067,0.185197 -0.416433,0.24303 -0.150365,0.04626 -0.295106,0.06936 -0.433905,0.06936 H 35.94852 c -0.115666,0 -0.214217,-0.04055 -0.295183,-0.121515 -0.08097,-0.08097 -0.12125,-0.179252 -0.12125,-0.294918 v -1.839132 c 0,-0.115666 0.04028,-0.213952 0.12125,-0.294918 0.08097,-0.08097 0.179517,-0.121515 0.295184,-0.121515 z M 24.68843,66.692386 c 0.05783,0 0.109929,0.0521 0.156195,0.156195 0.138799,0.335431 0.288917,0.699574 0.450848,1.092837 0.161932,0.381697 0.300768,0.717369 0.416433,1.006533 0.05783,0.104099 0.05783,0.19648 0,0.277445 -0.04627,0.0694 -0.127098,0.104043 -0.242764,0.104043 h -1.544215 c -0.127233,0 -0.213972,-0.03464 -0.260238,-0.104043 -0.04627,-0.08097 -0.04627,-0.173346 0,-0.277445 l 0.867546,-2.09937 c 0.04626,-0.104099 0.09836,-0.156195 0.156195,-0.156195 z m 42.003822,0 c 0.05783,0 0.109929,0.0521 0.156195,0.156195 0.138799,0.335431 0.289181,0.699574 0.451113,1.092837 0.161932,0.381697 0.300767,0.717369 0.416432,1.006533 0.05783,0.104099 0.05783,0.19648 0,0.277445 -0.04626,0.0694 -0.127098,0.104043 -0.242764,0.104043 h -1.544215 c -0.127232,0 -0.213971,-0.03464 -0.260237,-0.104043 -0.04627,-0.08097 -0.04627,-0.173346 0,-0.277445 l 0.867545,-2.09937 c 0.04627,-0.104099 0.0981,-0.156195 0.155931,-0.156195 z" style="color:#000;-inkscape-font-specification:Heavitas;fill:#fff;stroke-linecap:round;stroke-linejoin:round;stroke-miterlimit:128;-inkscape-stroke:none;paint-order:stroke fill markers"/></svg>