<svg xmlns="http://www.w3.org/2000/svg" xml:space="preserve" width="512" height="512" viewBox="0 0 135.46666 135.46667"><path d="M 135.46666,67.733331 127.00103,59.267698 87.571911,19.838581 V 59.267698 H 10e-7 v 16.931267 h 87.57191 V 115.62808 L 127.00103,76.198965 Z" style="fill:#fb3;fill-opacity:1;stroke:none;stroke-width:33.8667;stroke-miterlimit:128;stroke-dasharray:none;stroke-opacity:1;paint-order:stroke fill markers"/><path d="m 52.14462,57.150516 c -1.425045,0 -2.866753,0.279459 -4.187341,0.845426 -1.218593,0.522254 -2.350988,1.266241 -3.312976,2.187464 -0.417368,-0.89546 -1.125175,-1.573933 -1.777153,-1.994194 -0.697991,-0.456047 -1.631909,-0.837675 -2.599324,-0.837675 h -2.351795 c -1.00529,0 -2.026999,0.383664 -2.7342,0.867131 -0.207267,0.14159 -0.336214,0.440849 -0.535367,0.633036 -0.04036,-0.04484 -0.06171,-0.11855 -0.103353,-0.160197 -0.793394,-0.793494 -2.184595,-1.35754 -3.279387,-1.35754 h -8.550899 c -0.831332,0 -1.763554,0.384937 -2.545064,0.888835 -0.104358,-0.04904 -0.181168,-0.15073 -0.286804,-0.195337 -1.082148,-0.461583 -2.266401,-0.693498 -3.417879,-0.693498 h -5.140772 c -1.094785,0 -2.4861059,0.564209 -3.2793862,1.35754 C 7.2499986,59.484529 6.68538,60.875858 6.68538,61.970894 v 11.490254 c 0,1.094785 0.5642415,2.485613 1.3575398,3.27887 0.7898964,0.789897 2.1781252,1.35754 3.2793862,1.35754 h 2.537313 c 1.101344,0 2.485645,-0.564295 3.27887,-1.35754 0.574082,-0.574083 0.939639,-1.448971 1.1467,-2.310453 6.34e-4,-1.23e-4 0.0014,1.24e-4 0.0021,0 0.207632,0.86356 0.573903,1.738181 1.146183,2.310453 0.790135,0.790237 2.178117,1.35754 3.279386,1.35754 h 8.550899 c 0.229733,0 0.485628,-0.113935 0.732255,-0.160197 0.281145,0.05347 0.535286,0.160197 0.830441,0.160197 h 2.888712 c 0.957193,0 1.964185,-0.341363 2.667538,-0.810287 0.02639,-0.01796 0.05257,-0.03622 0.07855,-0.05478 0.202206,-0.141552 0.365111,-0.486111 0.572058,-0.687813 0.171006,0.17579 0.303074,0.421013 0.482658,0.560689 0.1346,0.104872 0.275416,0.201511 0.421679,0.289388 0.699568,0.419767 1.639571,0.7028 2.531112,0.7028 h 2.871143 c 0.58475,0 1.484354,-0.29911 2.351794,-0.802535 0.0967,0.04472 0.16778,0.13377 0.265617,0.1757 1.320583,0.565963 2.762293,0.845426 4.187341,0.845426 1.047426,0 2.095832,-0.122224 3.11919,-0.411861 0.629811,-0.178249 1.212252,-0.501097 1.804541,-0.794784 0.79925,0.563318 1.810152,0.988054 2.703194,0.988054 h 8.550899 c 0.459343,0 0.968504,-0.146321 1.46296,-0.318327 0.493045,0.17121 1.001276,0.318327 1.458825,0.318327 h 2.537313 c 1.101336,0 2.488926,-0.567586 3.27887,-1.35754 0.763166,-0.763165 1.295464,-2.078293 1.332218,-3.160014 h 0.570508 c 0.409933,0.72432 0.768564,1.484106 1.368909,2.070158 0.895785,0.874455 1.979305,1.54702 3.117122,1.990576 0.01958,0.0079 0.03922,0.01565 0.05891,0.02325 1.189604,0.443581 2.442548,0.634587 3.679362,0.634587 1.236814,0 2.489939,-0.19088 3.679879,-0.634587 0.01952,-0.0076 0.03899,-0.01536 0.05839,-0.02325 0.479277,-0.186837 0.862731,-0.572176 1.312581,-0.838192 0.867979,0.81392 2.206275,1.295012 3.197221,1.295012 h 8.382953 c 0.29827,0 0.62811,-0.130295 0.95084,-0.206706 0.3417,0.08151 0.69984,0.206706 0.99839,0.206706 h 8.38295 c 0.4637,0 0.97926,-0.146495 1.47847,-0.321945 0.49864,0.175057 1.01332,0.321945 1.47639,0.321945 h 2.53731 c 1.10137,0 2.4889,-0.567615 3.27887,-1.35754 0.78999,-0.789998 1.35754,-2.177778 1.35754,-3.27887 v -3.046842 l 3.78737,-6.135026 c 0.0253,-0.04058 0.05,-0.08158 0.0739,-0.12299 0.21404,-0.374523 0.47326,-0.86596 0.59376,-1.706873 0.11164,-0.778986 -0.0735,-1.977597 -0.67179,-2.961059 -0.85036,-1.314912 -2.71992,-2.136821 -3.78324,-2.136821 h -3.02307 c -0.95716,0 -1.7821,0.290184 -2.38125,0.617017 -0.0507,0.02774 -0.10085,0.05651 -0.15038,0.0863 -0.13286,0.0797 -0.23165,0.274426 -0.36535,0.374654 -0.14592,-0.104503 -0.26486,-0.319851 -0.40617,-0.399976 -0.64201,-0.369493 -1.50181,-0.677994 -2.4257,-0.677995 h -2.98999 c -0.59693,0 -1.37775,0.224584 -2.1115,0.611333 -0.69856,-0.360443 -1.45299,-0.628903 -2.13889,-0.628903 h -2.51923 c -1.01666,0 -2.43394,0.494428 -3.29695,1.35754 -0.0766,0.07656 -0.15018,0.156027 -0.22066,0.238229 -0.17414,0.203163 -0.26788,0.476276 -0.40411,0.718819 -0.19332,-0.338075 -0.36376,-0.707281 -0.61133,-0.954981 v -5.16e-4 -5.17e-4 -5.17e-4 -5.17e-4 c -0.79337,-0.793456 -2.184629,-1.35754 -3.27939,-1.35754 h -2.519743 c -0.511391,0 -1.122638,0.127417 -1.714624,0.361219 -0.530365,-0.197923 -1.083339,-0.343649 -1.578198,-0.343649 h -2.537313 c -0.793229,10e-7 -1.665683,0.352449 -2.425692,0.812354 -0.760147,-0.460165 -1.634303,-0.812354 -2.427758,-0.812354 h -2.536796 c -0.366963,0 -0.772117,0.142538 -1.169955,0.255799 -0.424946,-0.128127 -0.859887,-0.273369 -1.250053,-0.273369 h -8.550899 c -0.455826,0 -0.964821,0.14692 -1.458825,0.318327 -0.49543,-0.172213 -1.005376,-0.318327 -1.46296,-0.318327 h -8.550899 c -0.894543,0 -1.91731,0.428406 -2.720764,0.999939 -0.577118,-0.282092 -1.142649,-0.598534 -1.753899,-0.771529 -1.036727,-0.293414 -2.092442,-0.411861 -3.152262,-0.411861 z m -29.47882,2.75177 0.03927,0.04082 c -0.006,-0.0062 -0.01569,-0.0073 -0.0217,-0.01343 -0.0077,-0.0077 -0.0099,-0.01969 -0.01757,-0.02739 z m 85.63715,0.511597 c -0.005,0.01417 5e-4,0.03274 -0.004,0.04703 -0.007,0.0232 -0.0283,0.0533 -0.0351,0.07596 z m -48.138664,0.167948 0.07596,0.0863 c -0.0088,-0.01011 -0.02266,-0.01524 -0.03152,-0.02532 -0.01692,-0.01858 -0.02742,-0.04249 -0.04444,-0.06098 z M 49.4807,75.5897 49.32412,75.874954 c 0.02757,-0.04595 0.02853,-0.139375 0.05478,-0.189652 0.02354,-0.0425 0.07995,-0.0519 0.101802,-0.0956 z m -20.361548,0.681613 c 0.07437,0.09916 0.175374,0.09419 0.255799,0.183968 0.06808,0.07992 0.06521,0.195962 0.138493,0.269234 z m 28.855603,0.439766 -0.03721,0.02325 c 0.0071,-0.0044 0.01254,-0.01111 0.01964,-0.0155 0.0055,-0.0034 0.01208,-0.0044 0.01757,-0.0078 z M 31.08389,77.761661 c 0.04583,0.01833 0.10924,0.01232 0.15658,0.02945 0.02444,0.0087 0.05413,0.04836 0.07803,0.05633 z" style="color:#000;-inkscape-font-specification:Heavitas;fill:#fb3;stroke-linecap:round;stroke-linejoin:round;stroke-miterlimit:128;-inkscape-stroke:none;paint-order:stroke fill markers"/><path d="m 52.144331,61.383332 c -0.895948,0 -1.735797,0.167969 -2.519751,0.50395 -0.783954,0.33598 -1.472731,0.789447 -2.066297,1.360613 -0.582365,0.571167 -1.041551,1.243302 -1.377531,2.016056 -0.335981,0.772755 -0.503951,1.595704 -0.503951,2.469252 0,0.873549 0.16797,1.696755 0.503951,2.46951 0.33598,0.772754 0.795166,1.444632 1.377531,2.015799 0.593566,0.571167 1.282343,1.02489 2.066297,1.36087 0.783954,0.33598 1.623803,0.50395 2.519751,0.50395 0.716757,0 1.371993,-0.08398 1.965558,-0.251975 0.593565,-0.16799 1.131017,-0.403301 1.612589,-0.705684 0.492771,-0.302382 0.935313,-0.666146 1.32729,-1.091721 0.391977,-0.436773 0.750278,-0.918577 1.075059,-1.444947 0.056,-0.100794 0.06718,-0.19596 0.03358,-0.285554 -0.0336,-0.100794 -0.100683,-0.173598 -0.201477,-0.218395 l -2.385432,-0.940741 c -0.111993,-0.0448 -0.224058,-0.0448 -0.336051,0 -0.100794,0.0448 -0.179317,0.112139 -0.235314,0.201733 -0.291183,0.470373 -0.688745,0.856755 -1.192716,1.159137 -0.492771,0.291183 -1.047121,0.436791 -1.663086,0.436791 -0.425574,0 -0.828599,-0.0897 -1.209377,-0.268893 -0.369578,-0.17919 -0.694337,-0.414245 -0.974321,-0.705428 -0.279983,-0.291182 -0.498395,-0.627379 -0.655185,-1.008156 -0.156791,-0.391977 -0.235314,-0.80072 -0.235314,-1.226296 0,-0.414375 0.07852,-0.8174 0.235314,-1.209377 0.15679,-0.391977 0.375202,-0.733634 0.655185,-1.024818 0.279984,-0.302382 0.604743,-0.543155 0.974321,-0.722344 0.380778,-0.17919 0.783803,-0.268893 1.209377,-0.268893 0.649563,0 1.203914,0.140145 1.663086,0.420128 0.459174,0.268785 0.851274,0.660628 1.176055,1.175798 0.05599,0.0896 0.139982,0.156937 0.251975,0.201734 0.111993,0.0448 0.224058,0.0448 0.336051,0 l 2.385432,-0.94074 c 0.100794,-0.0448 0.16788,-0.117602 0.201477,-0.218396 0.0336,-0.100794 0.02242,-0.19596 -0.03358,-0.285555 -0.324781,-0.51517 -0.683082,-0.985536 -1.075059,-1.411111 -0.380777,-0.436774 -0.812139,-0.806513 -1.293711,-1.108895 -0.481571,-0.302382 -1.019024,-0.537437 -1.612589,-0.705427 -0.593565,-0.167991 -1.259981,-0.251975 -1.999137,-0.251975 z M 11.32259,61.568148 c -0.111994,0 -0.20716,0.039 -0.285555,0.1174 -0.07839,0.0784 -0.1174,0.173561 -0.1174,0.285555 v 11.490622 c 0,0.111994 0.039,0.207159 0.1174,0.285555 0.0784,0.0784 0.173561,0.117657 0.285555,0.117657 h 2.536668 c 0.111993,0 0.207415,-0.03926 0.28581,-0.117657 0.0784,-0.0784 0.117401,-0.173561 0.117401,-0.285555 v -2.503087 c 0,-0.111994 0.03926,-0.20716 0.117657,-0.285555 0.07839,-0.0784 0.17356,-0.117657 0.285554,-0.117657 h 1.461608 c 0.817553,0 1.528693,-0.111809 2.133457,-0.335796 0.615964,-0.235186 1.125592,-0.548763 1.528768,-0.94074 0.414376,-0.403177 0.722235,-0.873543 0.923823,-1.411112 0.201588,-0.548767 0.302472,-1.136917 0.302472,-1.764081 0,-0.627163 -0.123246,-1.215057 -0.369632,-1.763824 -0.235185,-0.548769 -0.559944,-1.030316 -0.97432,-1.444692 -0.403176,-0.414375 -0.884723,-0.739133 -1.444691,-0.974319 -0.548767,-0.235187 -1.136661,-0.352714 -1.763824,-0.352714 z m 11.389884,0 c -0.111993,0 -0.207159,0.039 -0.285555,0.1174 -0.0784,0.0784 -0.117657,0.173561 -0.117657,0.285555 v 11.490622 c 0,0.111994 0.03926,0.207159 0.117657,0.285555 0.07839,0.0784 0.173562,0.117657 0.285555,0.117657 h 8.550744 c 0.111993,0 0.207159,-0.03926 0.285554,-0.117657 0.0784,-0.0784 0.117657,-0.173561 0.117657,-0.285555 v -2.318272 c 0,-0.111993 -0.03926,-0.207159 -0.117657,-0.285555 -0.07839,-0.0784 -0.173561,-0.117657 -0.285554,-0.117657 h -5.224572 c -0.111993,0 -0.207159,-0.039 -0.285554,-0.117399 -0.0784,-0.0784 -0.117657,-0.173818 -0.117657,-0.285812 v -0.638268 c 0,-0.111993 0.03926,-0.207159 0.117657,-0.285554 0.0784,-0.0784 0.173561,-0.117657 0.285554,-0.117657 h 4.552468 c 0.111993,0 0.207159,-0.03926 0.285555,-0.117656 0.07839,-0.0784 0.117656,-0.173562 0.117656,-0.285555 v -2.318272 c 0,-0.111994 -0.03926,-0.20716 -0.117656,-0.285555 -0.0784,-0.0784 -0.173562,-0.117656 -0.285555,-0.117656 h -4.552468 c -0.111993,0 -0.207159,-0.039 -0.285554,-0.117401 -0.0784,-0.0784 -0.117657,-0.173561 -0.117657,-0.285555 v -0.705683 c 0,-0.111994 0.03926,-0.207159 0.117657,-0.285554 0.0784,-0.0784 0.173561,-0.117657 0.285554,-0.117657 h 5.224572 c 0.111993,0 0.207159,-0.03926 0.285554,-0.117657 0.0784,-0.0784 0.117657,-0.173562 0.117657,-0.285555 v -2.284692 c 0,-0.111994 -0.03926,-0.207159 -0.117657,-0.285555 -0.07839,-0.0784 -0.173561,-0.1174 -0.285554,-0.1174 z m 37.058778,0 c -0.111994,0 -0.207416,0.039 -0.285811,0.1174 -0.0784,0.0784 -0.117401,0.173561 -0.117401,0.285555 v 11.490622 c 0,0.111994 0.039,0.207159 0.117401,0.285555 0.0784,0.0784 0.173817,0.117657 0.285811,0.117657 h 8.550486 c 0.111994,0 0.207416,-0.03926 0.285812,-0.117657 0.0784,-0.0784 0.1174,-0.173561 0.1174,-0.285555 v -2.318272 c 0,-0.111993 -0.039,-0.207159 -0.1174,-0.285555 -0.0784,-0.0784 -0.173818,-0.117657 -0.285812,-0.117657 h -5.224314 c -0.111994,0 -0.207159,-0.039 -0.285555,-0.117399 -0.0784,-0.0784 -0.117657,-0.173818 -0.117657,-0.285812 v -0.638268 c 0,-0.111993 0.03926,-0.207159 0.117657,-0.285554 0.0784,-0.0784 0.173561,-0.117657 0.285555,-0.117657 h 4.552467 c 0.111993,0 0.207159,-0.03926 0.285554,-0.117656 0.0784,-0.0784 0.117657,-0.173562 0.117657,-0.285555 v -2.318272 c 0,-0.111994 -0.03926,-0.20716 -0.117657,-0.285555 -0.0784,-0.0784 -0.173561,-0.117656 -0.285554,-0.117656 h -4.552467 c -0.111994,0 -0.207159,-0.039 -0.285555,-0.117401 -0.0784,-0.0784 -0.117657,-0.173561 -0.117657,-0.285555 v -0.705683 c 0,-0.111994 0.03926,-0.207159 0.117657,-0.285554 0.0784,-0.0784 0.173561,-0.117657 0.285555,-0.117657 h 5.224314 c 0.111994,0 0.207416,-0.03926 0.285812,-0.117657 0.0784,-0.0784 0.1174,-0.173562 0.1174,-0.285555 v -2.284692 c 0,-0.111994 -0.039,-0.207159 -0.1174,-0.285555 -0.0784,-0.0784 -0.173818,-0.1174 -0.285812,-0.1174 z m 11.473705,0 c -0.111994,0 -0.207159,0.039 -0.285555,0.1174 -0.0784,0.0784 -0.117657,0.173561 -0.117657,0.285555 v 11.490622 c 0,0.111994 0.03926,0.207159 0.117657,0.285555 0.0784,0.0784 0.173561,0.117657 0.285555,0.117657 h 2.536667 c 0.111994,0 0.207159,-0.03926 0.285555,-0.117657 0.0784,-0.0784 0.117656,-0.173561 0.117656,-0.285555 V 69.74926 c 0,-0.111993 0.039,-0.207159 0.117401,-0.285555 0.0784,-0.0784 0.17356,-0.117657 0.285554,-0.117657 h 4.535806 c 0.111993,0 0.207159,-0.03926 0.285555,-0.117657 0.0784,-0.07839 0.117656,-0.17356 0.117656,-0.285554 v -2.351851 c 0,-0.111993 -0.03926,-0.20716 -0.117656,-0.285555 -0.0784,-0.0784 -0.173562,-0.117657 -0.285555,-0.117657 H 74.58779 c -0.111994,0 -0.207159,-0.03926 -0.285554,-0.117657 -0.0784,-0.0784 -0.117401,-0.17356 -0.117401,-0.285554 v -0.705427 c 0,-0.111993 0.039,-0.207159 0.117401,-0.285555 0.0784,-0.0784 0.17356,-0.117657 0.285554,-0.117657 h 5.20791 c 0.111993,0 0.20716,-0.03926 0.285554,-0.117657 0.0784,-0.0784 0.117401,-0.17356 0.117401,-0.285554 v -2.30161 c 0,-0.111994 -0.039,-0.207159 -0.117401,-0.285555 -0.07839,-0.0784 -0.173561,-0.1174 -0.285554,-0.1174 z m 24.190623,0 c -0.123195,0 -0.224078,0.039 -0.302475,0.1174 -0.0672,0.0784 -0.10074,0.173561 -0.10074,0.285555 v 11.490622 c 0,0.111994 0.03353,0.207159 0.10074,0.285555 0.0784,0.0784 0.17928,0.117657 0.302475,0.117657 h 8.38258 c 0.112,0 0.20717,-0.03926 0.28556,-0.117657 0.0784,-0.0784 0.11766,-0.173561 0.11766,-0.285555 v -2.284693 c 0,-0.111993 -0.0392,-0.207159 -0.11766,-0.285554 -0.0784,-0.0784 -0.17356,-0.117657 -0.28556,-0.117657 h -5.056413 c -0.123187,0 -0.22407,-0.039 -0.302467,-0.1174 -0.0672,-0.0784 -0.10074,-0.173561 -0.10074,-0.285555 v -8.399763 c 0,-0.111994 -0.0393,-0.207159 -0.11766,-0.285555 -0.07839,-0.0784 -0.173558,-0.1174 -0.285555,-0.1174 z m 10.33123,0 c -0.12319,0 -0.22383,0.039 -0.30222,0.1174 -0.0672,0.0784 -0.10099,0.173561 -0.10099,0.285555 v 11.490622 c 0,0.111994 0.0337,0.207159 0.10099,0.285555 0.0784,0.0784 0.17903,0.117657 0.30222,0.117657 h 8.38284 c 0.11199,0 0.20716,-0.03926 0.28556,-0.117657 0.0784,-0.0784 0.11766,-0.173561 0.11766,-0.285555 v -2.284693 c 0,-0.111993 -0.0392,-0.207159 -0.11766,-0.285554 -0.0784,-0.0784 -0.17357,-0.117657 -0.28556,-0.117657 h -5.05667 c -0.12319,0 -0.22382,-0.039 -0.30222,-0.1174 -0.0672,-0.0784 -0.10074,-0.173561 -0.10074,-0.285555 v -8.399763 c 0,-0.111994 -0.0392,-0.207159 -0.11765,-0.285555 -0.0784,-0.0784 -0.17357,-0.1174 -0.28556,-0.1174 z m -67.851248,0.01667 c -0.123192,0 -0.24072,0.03926 -0.352714,0.117656 -0.100794,0.06719 -0.173598,0.151181 -0.218395,0.251975 l -4.871858,11.372967 c -0.0448,0.0896 -0.06144,0.16786 -0.05024,0.235057 0.0112,0.06719 0.03928,0.123357 0.08408,0.168154 0.0336,0.0448 0.08378,0.07834 0.150981,0.100739 0.05599,0.0224 0.112157,0.03358 0.168154,0.03358 h 2.889381 c 0.111994,0 0.21834,-0.03354 0.319134,-0.100739 0.111994,-0.0784 0.190517,-0.168099 0.235314,-0.268893 l 0.47037,-1.0079 c 0.0448,-0.100794 0.117602,-0.184779 0.218396,-0.251975 0.111993,-0.0784 0.229521,-0.117656 0.352713,-0.117656 h 3.544568 c 0.111994,0 0.21834,0.03926 0.319134,0.117656 0.111993,0.0672 0.195978,0.151181 0.251975,0.251975 l 0.453709,1.0079 c 0.05599,0.100794 0.134263,0.190498 0.235057,0.268893 0.111993,0.0672 0.229521,0.100739 0.352713,0.100739 h 2.87272 c 0.179189,0 0.296717,-0.0559 0.352714,-0.167898 0.06719,-0.111993 0.07838,-0.218596 0.03358,-0.319391 l -4.905181,-11.42321 c -0.0448,-0.100794 -0.12332,-0.184778 -0.235313,-0.251974 -0.100794,-0.0784 -0.207141,-0.117657 -0.319134,-0.117657 z m 44.299149,0 c -0.111993,0 -0.207159,0.03926 -0.285554,0.117656 -0.0784,0.0784 -0.117657,0.173562 -0.117657,0.285555 v 6.80358 c 0,0.795153 0.128708,1.517474 0.386293,2.167037 0.257585,0.649561 0.621605,1.203912 1.091977,1.663085 0.470373,0.459173 1.035904,0.817731 1.696666,1.075316 0.660761,0.246385 1.394262,0.369375 2.200615,0.369375 0.806353,0 1.540111,-0.12299 2.200872,-0.369375 0.660762,-0.257585 1.226294,-0.616143 1.696666,-1.075316 0.470372,-0.459173 0.828674,-1.013524 1.075058,-1.663085 0.257588,-0.649563 0.386295,-1.371884 0.386295,-2.167037 v -6.80358 c 0,-0.111994 -0.039,-0.20716 -0.117405,-0.285555 -0.07839,-0.0784 -0.173557,-0.117657 -0.285555,-0.117657 h -2.536663 c -0.111993,0 -0.207159,0.03926 -0.285554,0.117657 -0.0784,0.0784 -0.117657,0.173561 -0.117657,0.285555 v 6.80358 c 0,0.436775 -0.0728,0.800795 -0.218396,1.091977 -0.134392,0.279983 -0.302362,0.503858 -0.50395,0.671848 -0.201588,0.156791 -0.42,0.268856 -0.655186,0.336052 -0.235187,0.0672 -0.448136,0.100739 -0.638525,0.100739 -0.190388,0 -0.403081,-0.03354 -0.638268,-0.100739 -0.235186,-0.0672 -0.459061,-0.179261 -0.671848,-0.336052 -0.201588,-0.16799 -0.375276,-0.391865 -0.520868,-0.671848 -0.134392,-0.291182 -0.201478,-0.655202 -0.201478,-1.091977 v -6.80358 c 0,-0.111994 -0.03926,-0.20716 -0.117656,-0.285555 -0.0784,-0.0784 -0.173561,-0.117657 -0.285554,-0.117657 z m 30.322099,0 c -0.11199,0 -0.1848,0.05616 -0.21839,0.168154 -0.0336,0.100794 -0.0224,0.201422 0.0336,0.302217 0.69435,1.17593 1.38885,2.318432 2.0832,3.427167 0.70557,1.108734 1.39434,2.239799 2.06631,3.393331 0.056,0.08959 0.10071,0.21284 0.13431,0.369632 0.0448,0.145591 0.0671,0.274299 0.0671,0.386293 v 3.830122 c 0,0.111993 0.0392,0.207159 0.11766,0.285555 0.0784,0.0784 0.17356,0.117656 0.28555,0.117656 h 2.53668 c 0.11199,0 0.20716,-0.03926 0.28556,-0.117656 0.0784,-0.0784 0.11765,-0.173562 0.11765,-0.285555 v -3.847041 c 0,-0.111993 0.0224,-0.240701 0.0672,-0.386294 0.0448,-0.14559 0.0952,-0.268837 0.15124,-0.369631 l 4.19975,-6.80358 c 0.0896,-0.156791 0.10649,-0.274319 0.0505,-0.352714 -0.0448,-0.0784 -0.12332,-0.117657 -0.23532,-0.117657 h -3.02369 c -0.112,0 -0.22978,0.03354 -0.35297,0.100739 -0.112,0.06719 -0.19598,0.151181 -0.25198,0.251975 l -2.04939,3.595066 c -0.056,0.08959 -0.12334,0.134317 -0.20173,0.134317 -0.0784,0 -0.14548,-0.04472 -0.20148,-0.134317 l -2.06633,-3.595071 c -0.056,-0.100794 -0.14544,-0.184779 -0.26864,-0.251975 -0.11199,-0.06719 -0.22405,-0.100739 -0.33604,-0.100739 z m -97.87113,3.074197 h 1.579265 c 0.235186,0 0.442161,0.04498 0.621351,0.134574 0.179189,0.0784 0.330516,0.184743 0.453708,0.319135 0.123193,0.134392 0.21264,0.291181 0.268638,0.47037 0.06719,0.16799 0.100994,0.341423 0.100994,0.520612 0,0.347179 -0.100884,0.660757 -0.302472,0.94074 -0.190389,0.268785 -0.498248,0.403212 -0.923823,0.403212 H 14.66568 c -0.111994,0 -0.207159,-0.03926 -0.285554,-0.117657 -0.0784,-0.0784 -0.117657,-0.173561 -0.117657,-0.285555 v -1.982219 c 0,-0.111994 0.03926,-0.20716 0.117657,-0.285555 0.07839,-0.0784 0.17356,-0.117657 0.285554,-0.117657 z m 24.409018,2.049631 c 0.05599,0 0.10644,0.05018 0.151236,0.150979 0.134393,0.324782 0.280001,0.677621 0.436792,1.058398 0.156791,0.369578 0.291218,0.694337 0.403211,0.97432 0.05599,0.100794 0.05599,0.190498 0,0.268893 -0.0448,0.06719 -0.12332,0.100739 -0.235314,0.100739 h -1.494931 c -0.123194,0 -0.207178,-0.03354 -0.251975,-0.100739 -0.0448,-0.07839 -0.0448,-0.168099 0,-0.268893 l 0.839745,-2.032718 c 0.0448,-0.100794 0.09524,-0.150979 0.151236,-0.150979 z" style="color:#000;-inkscape-font-specification:Heavitas;fill:#fff;stroke-linecap:round;stroke-linejoin:round;stroke-miterlimit:128;-inkscape-stroke:none;paint-order:stroke fill markers"/></svg>