<svg xmlns="http://www.w3.org/2000/svg" xml:space="preserve" width="512" height="512" viewBox="0 0 135.46666 135.46667"><path d="m 1e-6,67.73333 8.46563,8.465633 39.429119,39.429117 V 76.198963 h 87.57191 V 59.267696 H 47.89475 V 19.838581 L 8.465631,59.267696 Z" style="fill:#98301b;fill-opacity:1;stroke:none;stroke-width:33.8667;stroke-miterlimit:128;stroke-dasharray:none;stroke-opacity:1;paint-order:stroke fill markers"/><path d="m 52.687739,57.150516 c -1.414724,0 -2.845637,0.285782 -4.150651,0.853178 -0.05589,0.0243 -0.09487,0.07859 -0.150378,0.10387 -0.761181,-0.445381 -1.593504,-0.740523 -2.249992,-0.740524 h -2.781225 c -1.077445,10e-7 -2.053688,0.410606 -2.708879,0.857312 -0.398601,0.27058 -0.707824,0.709114 -1.033529,1.117245 -0.349972,-0.425471 -0.692718,-0.866271 -1.093473,-1.126546 -0.698769,-0.461274 -1.644205,-0.848011 -2.619478,-0.848011 h -2.730066 c -0.188558,0 -0.504516,0.18508 -0.746208,0.240296 -0.373183,-0.100386 -0.7534,-0.240296 -1.097607,-0.240296 h -8.527645 c -0.935921,0 -2.01525,0.456544 -2.82205,1.064535 -0.228656,-0.114955 -0.40803,-0.329635 -0.642338,-0.42168 -1.078144,-0.43415 -2.233585,-0.642855 -3.355867,-0.642855 h -5.208985 c -1.1011333,0 -2.4864643,0.564649 -3.279386,1.35754 -0.792962,0.792962 -1.3570231,2.184832 -1.3570231,3.279387 v 11.458731 c 0,1.095338 0.5647608,2.484764 1.3570231,3.27732 v 0.0021 c 0.7929747,0.792975 2.1784295,1.35754 3.279386,1.35754 h 2.496489 c 0.690938,0 1.444643,-0.269554 2.142505,-0.63097 0.01129,0.0063 0.02391,0.02333 0.03514,0.02946 0.129389,0.07063 0.262379,0.134448 0.398425,0.191203 0.518215,0.215885 1.176288,0.410311 1.995744,0.410311 h 3.117639 c 0.20663,0 0.513422,-0.196587 0.76171,-0.236162 0.367803,0.09767 0.742314,0.236162 1.081588,0.236162 h 8.527645 c 1.10115,0 2.487655,-0.567926 3.277319,-1.35754 0.114502,-0.114502 0.179078,-0.304375 0.283187,-0.441317 0.235219,0.273085 0.436781,0.606999 0.693498,0.806669 0.133987,0.104095 0.27411,0.200042 0.419612,0.287321 0.644728,0.386851 1.557184,0.704867 2.514059,0.704867 h 2.228287 c 0.956877,0 1.962884,-0.343599 2.665988,-0.812354 0.02691,-0.01795 0.05361,-0.03621 0.0801,-0.05478 0.539946,-0.377974 1.112715,-0.940731 1.523421,-1.680001 0.06087,-0.10875 0.116907,-0.220135 0.167949,-0.333829 l 0.01344,-0.02946 c 0.0091,0.0092 0.01822,0.0183 0.02739,0.02739 0.950757,0.950757 2.090693,1.713374 3.316593,2.246374 1.305739,0.567713 2.736756,0.853178 4.150651,0.853178 1.413897,0 2.846463,-0.285465 4.152202,-0.853178 0.384474,-0.167163 0.674925,-0.494366 1.039213,-0.705383 0.861082,0.846694 2.254973,1.342037 3.269051,1.342037 h 8.361763 c 0.830243,0 1.752263,-0.379738 2.529045,-0.876949 0.233872,0.113689 0.418433,0.326599 0.658358,0.420129 0.01941,0.0072 0.03888,0.01427 0.05839,0.02119 1.186953,0.442593 2.438113,0.634587 3.673677,0.634587 1.235566,0 2.486906,-0.191868 3.674195,-0.634587 0.01952,-0.0069 0.03898,-0.01398 0.05839,-0.02119 0.980437,-0.382203 1.872861,-1.010723 2.687691,-1.717208 0.172988,0.280257 0.309931,0.604993 0.521415,0.816488 0.789721,0.789721 2.176348,1.35754 3.27732,1.35754 h 2.513541 c 0.766643,0 1.777804,-0.404116 2.648418,-0.999939 0.844861,0.597935 1.890359,0.999939 2.730582,0.999939 h 2.529562 c 1.089091,0 2.449851,-0.559657 3.24373,-1.335836 0.36193,0.209225 0.6518,0.533212 1.03353,0.699182 1.30543,0.567581 2.73623,0.853178 4.15013,0.853178 1.4139,0 2.8449,-0.285463 4.15065,-0.853178 0.39393,-0.171275 0.69344,-0.503607 1.06609,-0.720886 0.7895,0.789393 2.17637,1.35754 3.27732,1.35754 h 2.49649 c 0.93749,0 2.01927,-0.458591 2.82618,-1.068152 0.17954,0.126995 0.35399,0.357849 0.52503,0.451135 v -0.0021 c 0.59685,0.325606 1.42234,0.619084 2.37918,0.619084 h 2.48047 c 1.1012,0 2.4877,-0.567992 3.27732,-1.35754 0.7932,-0.793094 1.35754,-2.18506 1.35754,-3.279387 V 62.003967 c 0,-1.09458 -0.56446,-2.486347 -1.35754,-3.279387 -0.78947,-0.789367 -2.17625,-1.35754 -3.27732,-1.35754 h -2.48047 c -0.94656,10e-7 -2.04343,0.464839 -2.8515,1.084172 -0.2199,-0.151845 -0.42029,-0.399618 -0.63304,-0.503845 -0.58368,-0.299246 -1.32582,-0.580327 -2.22828,-0.580327 h -2.51406 c -1.10112,0 -2.48769,0.567969 -3.27732,1.35754 -0.002,0.0015 -0.002,0.0041 -0.004,0.0057 -0.37235,-0.218286 -0.66896,-0.555255 -1.06298,-0.726571 -1.30502,-0.567398 -2.73542,-0.853178 -4.15014,-0.853178 -1.41473,0 -2.84594,0.285914 -4.15065,0.853178 -0.38614,0.167886 -0.67531,0.500095 -1.04076,0.713135 -0.794759,-0.773257 -2.150201,-1.332219 -3.236497,-1.332219 h -2.529045 c -0.334172,0 -0.73287,0.131258 -1.117244,0.232544 -0.386085,-0.103238 -0.795114,-0.250113 -1.11156,-0.250114 h -8.847522 c -0.339899,0 -0.715731,0.138684 -1.084172,0.236678 -0.342639,-0.08532 -0.693193,-0.219108 -1.009757,-0.219108 h -2.529045 c -0.791226,0 -1.66323,0.350836 -2.422074,0.808736 -0.758647,-0.457681 -1.628655,-0.808736 -2.419491,-0.808736 h -2.531628 c -1.10115,0 -2.484374,0.564616 -3.277319,1.35754 -0.251674,0.251674 -0.424245,0.625416 -0.619084,0.968933 -0.197392,-0.351017 -0.376818,-0.730794 -0.632519,-0.986503 -0.789696,-0.789695 -2.176296,-1.357539 -3.27732,-1.35754 h -2.514058 c -1.016157,0 -2.41459,0.49602 -3.275252,1.345655 -0.36326,-0.211432 -0.649275,-0.542158 -1.033012,-0.709001 -1.305014,-0.567396 -2.737476,-0.853178 -4.152202,-0.853178 z m 42.903841,1.574064 0.219108,0.238229 c -0.03193,-0.03723 -0.08788,-0.04777 -0.12144,-0.08372 -0.03876,-0.0429 -0.0577,-0.114535 -0.09767,-0.154513 z m -45.597216,0.783415 0.111104,0.187069 c -0.01582,-0.02847 -0.06297,-0.04563 -0.0801,-0.0739 -0.01684,-0.02952 -0.01347,-0.0851 -0.03101,-0.113171 z m -20.810616,0.189136 c -0.03542,0.06376 -0.01973,0.15244 -0.05116,0.219108 -0.02495,0.04873 -0.0946,0.06687 -0.116788,0.116788 z m -7.027478,0.150378 0.04289,0.04289 c -0.0073,-0.0075 -0.01798,-0.01007 -0.02532,-0.01757 -0.0073,-0.0074 -0.01021,-0.01796 -0.01757,-0.02532 z m 37.968741,0.390674 0.05839,0.05684 c -0.01057,-0.01078 -0.02607,-0.01459 -0.03669,-0.02532 -0.0091,-0.0089 -0.01262,-0.02261 -0.0217,-0.03152 z m 52.810729,0 0.0584,0.05684 c -0.0106,-0.01077 -0.0266,-0.0146 -0.0372,-0.02532 -0.009,-0.0089 -0.0121,-0.0226 -0.0212,-0.03152 z m -67.715245,0.02945 c -0.004,0.004 -0.0058,0.0095 -0.0098,0.01344 -0.0056,0.0057 -0.01352,0.0083 -0.01912,0.01395 z m 52.810729,0 c -0.004,0.004 -0.0058,0.0095 -0.0098,0.01344 -0.0056,0.0057 -0.01404,0.0083 -0.01964,0.01395 z m -42.418082,0.730188 0.09405,0.04496 c -0.01377,-0.0067 -0.03113,-0.0032 -0.04496,-0.0098 -0.01814,-0.0084 -0.0309,-0.02687 -0.04909,-0.03514 z m 46.958888,0 c -0.0182,0.0083 -0.0305,0.02671 -0.0486,0.03514 -0.0138,0.0066 -0.0313,0.0031 -0.045,0.0098 z m 5.84977,0 0.0956,0.04496 c -0.0145,-0.007 -0.0319,-0.0044 -0.0465,-0.01137 -0.0178,-0.0083 -0.0313,-0.02548 -0.0491,-0.03359 z M 85.332258,72.490148 v 0.0155 l -0.0083,0.0217 c 0.0045,-0.01128 0.0017,-0.02384 0.0062,-0.03514 2.83e-4,-7.2e-4 0.0018,-0.0013 0.0021,-0.0021 z m 7.329785,4.013708 -0.220658,0.238229 c 0.03951,-0.03951 0.05931,-0.110056 0.09767,-0.152446 0.03415,-0.03653 0.09056,-0.04794 0.12299,-0.08578 z" style="color:#000;-inkscape-font-specification:Heavitas;fill:#98301b;stroke-linecap:round;stroke-linejoin:round;stroke-miterlimit:128;-inkscape-stroke:none;paint-order:stroke fill markers"/><path d="m 52.687987,61.383332 c -0.871227,0 -1.692245,0.16778 -2.462946,0.502867 -0.770701,0.335087 -1.440794,0.793053 -2.010443,1.373871 -0.569649,0.569649 -1.022166,1.239742 -1.357254,2.010443 -0.335088,0.770702 -0.502611,1.591719 -0.502611,2.462948 0,0.871226 0.167523,1.691989 0.502611,2.46269 0.335088,0.770701 0.787605,1.446498 1.357254,2.027316 0.569649,0.569649 1.239742,1.022166 2.010443,1.357253 0.770701,0.335088 1.591719,0.502612 2.462946,0.502612 0.871228,0 1.692246,-0.167524 2.462947,-0.502612 0.770701,-0.335087 1.440794,-0.787604 2.010443,-1.357253 0.580819,-0.580818 1.038784,-1.256615 1.373871,-2.027316 0.335088,-0.770701 0.502611,-1.591464 0.502611,-2.46269 0,-0.871229 -0.167523,-1.692246 -0.502611,-2.462948 -0.335087,-0.770701 -0.793052,-1.440794 -1.373871,-2.010443 -0.569649,-0.580818 -1.239742,-1.038784 -2.010443,-1.373871 -0.770701,-0.335087 -1.591719,-0.502867 -2.462947,-0.502867 z m 52.809673,0 c -0.87122,0 -1.69199,0.16778 -2.46269,0.502867 -0.7707,0.335087 -1.44105,0.793053 -2.0107,1.373871 -0.56965,0.569649 -1.02191,1.239742 -1.356999,2.010443 -0.335085,0.770702 -0.502613,1.591719 -0.502613,2.462948 0,0.871226 0.167528,1.691989 0.502613,2.46269 0.335089,0.770701 0.787349,1.446498 1.356999,2.027316 0.56965,0.569649 1.24,1.022166 2.0107,1.357253 0.7707,0.335088 1.59147,0.502612 2.46269,0.502612 0.87123,0 1.69225,-0.167524 2.46295,-0.502612 0.7707,-0.335087 1.44079,-0.787604 2.01044,-1.357253 0.58082,-0.580818 1.03879,-1.256615 1.37387,-2.027316 0.33509,-0.770701 0.50287,-1.591464 0.50287,-2.46269 0,-0.871229 -0.16778,-1.692246 -0.50287,-2.462948 -0.33508,-0.770701 -0.79305,-1.440794 -1.37387,-2.010443 -0.56965,-0.580818 -1.23974,-1.038784 -2.01044,-1.373871 -0.7707,-0.335087 -1.59172,-0.502867 -2.46295,-0.502867 z m -94.729102,0.217815 c -0.111698,0 -0.206865,0.03916 -0.285053,0.117345 -0.07819,0.07819 -0.117089,0.1731 -0.117089,0.284796 v 11.460089 c 0,0.111696 0.03893,0.206608 0.117089,0.284796 0.07819,0.07819 0.173355,0.117343 0.285053,0.117343 h 2.49618 c 0.111697,0 0.206865,-0.03916 0.285052,-0.117343 0.07819,-0.07819 0.11709,-0.1731 0.11709,-0.284796 v -2.714252 c 0,-0.111695 0.03915,-0.206609 0.117345,-0.284796 0.07819,-0.07819 0.173093,-0.117344 0.28479,-0.117344 h 0.368655 c 0.11169,0 0.228908,0.03345 0.351773,0.100471 0.122865,0.05585 0.217777,0.128459 0.284797,0.217815 0.34626,0.491462 0.692708,0.977433 1.038968,1.457725 0.357427,0.480292 0.714772,0.955112 1.0722,1.424235 0.06705,0.08936 0.161932,0.167415 0.284797,0.234432 0.13404,0.05584 0.256958,0.08385 0.368648,0.08385 h 3.116137 c 0.111697,0 0.184305,-0.05031 0.217815,-0.150834 0.03353,-0.111696 0.01695,-0.212312 -0.0501,-0.301668 -0.368595,-0.491459 -0.787403,-1.033186 -1.256528,-1.625174 -0.469124,-0.591988 -0.915937,-1.167168 -1.340384,-1.725648 -0.06697,-0.08936 -0.08931,-0.178566 -0.06697,-0.267922 0.03353,-0.100526 0.09471,-0.184289 0.184065,-0.251306 0.268072,-0.167544 0.508462,-0.374224 0.720682,-0.619955 0.212228,-0.2569 0.396352,-0.541894 0.55272,-0.854643 0.156375,-0.312748 0.273592,-0.642091 0.35178,-0.988348 0.08936,-0.357427 0.134212,-0.715031 0.134212,-1.072458 0,-0.647836 -0.111765,-1.239616 -0.335152,-1.775756 -0.212228,-0.53614 -0.513817,-0.999808 -0.904755,-1.390743 -0.37977,-0.390936 -0.84318,-0.692529 -1.390485,-0.904751 -0.547312,-0.223392 -1.145047,-0.33516 -1.792882,-0.33516 z m 12.029422,0 c -0.11169,0 -0.20661,0.03916 -0.28479,0.117345 -0.0782,0.07819 -0.11709,0.1731 -0.11709,0.284796 v 11.460089 c 0,0.111696 0.03892,0.206608 0.11709,0.284796 0.07818,0.07819 0.1731,0.117343 0.28479,0.117343 h 8.528025 c 0.111696,0 0.206608,-0.03916 0.284796,-0.117343 0.07819,-0.07819 0.117344,-0.1731 0.117344,-0.284796 v -2.312112 c 0,-0.111696 -0.03916,-0.206609 -0.117344,-0.284796 -0.07819,-0.07819 -0.1731,-0.117344 -0.284796,-0.117344 h -5.21043 c -0.111698,0 -0.206865,-0.03916 -0.285053,-0.117344 -0.07819,-0.07819 -0.11709,-0.1731 -0.11709,-0.284796 v -0.636572 c 0,-0.111696 0.03892,-0.206609 0.11709,-0.284796 0.07819,-0.07819 0.173355,-0.117344 0.285053,-0.117344 h 4.540367 c 0.111696,0 0.206608,-0.03916 0.284795,-0.117344 0.07819,-0.07819 0.117344,-0.1731 0.117344,-0.284796 v -2.312111 c 0,-0.111696 -0.03916,-0.20661 -0.117344,-0.284796 -0.07819,-0.07819 -0.173099,-0.117345 -0.284795,-0.117345 h -4.540367 c -0.111698,0 -0.206865,-0.0389 -0.285053,-0.117088 -0.07819,-0.07819 -0.11709,-0.173356 -0.11709,-0.285052 v -0.703552 c 0,-0.111696 0.03892,-0.206609 0.11709,-0.284796 0.07819,-0.07819 0.173355,-0.117344 0.285053,-0.117344 h 5.21043 c 0.111696,0 0.206608,-0.03916 0.284796,-0.117344 0.07819,-0.07819 0.117344,-0.1731 0.117344,-0.284795 v -2.278622 c 0,-0.111696 -0.03916,-0.20661 -0.117344,-0.284796 -0.07819,-0.07819 -0.1731,-0.117345 -0.284796,-0.117345 z m 10.371016,0 c -0.145204,0 -0.240117,0.05031 -0.284795,0.150835 -0.05584,0.100526 -0.05584,0.212294 0,0.335159 l 5.059854,11.409726 c 0.05584,0.100526 0.134162,0.189992 0.234688,0.268179 0.111696,0.06702 0.223208,0.10047 0.334904,0.10047 h 2.228513 c 0.111696,0 0.21776,-0.03345 0.318286,-0.10047 0.111696,-0.07819 0.195458,-0.167653 0.251306,-0.268179 L 46.421714,62.02016 c 0.04468,-0.08936 0.03923,-0.178821 -0.01662,-0.268178 -0.05585,-0.100526 -0.145314,-0.150835 -0.268179,-0.150835 h -2.781233 c -0.111696,0 -0.223463,0.03916 -0.335159,0.117345 -0.100526,0.06702 -0.178584,0.150779 -0.234432,0.251305 l -2.932067,6.735394 c -0.05585,0.100526 -0.128459,0.150835 -0.217815,0.150835 -0.08936,0 -0.161967,-0.05031 -0.217815,-0.150835 l -2.948685,-6.735394 c -0.05585,-0.100526 -0.139609,-0.184288 -0.251305,-0.251305 -0.100526,-0.07819 -0.20659,-0.117345 -0.318286,-0.117345 z m 27.979778,0 c -0.122866,0 -0.223227,0.03916 -0.301413,0.117345 -0.06702,0.07819 -0.100472,0.1731 -0.100472,0.284796 v 11.460089 c 0,0.111696 0.03345,0.206608 0.100472,0.284796 0.07819,0.07819 0.178547,0.117343 0.301413,0.117343 h 8.36057 c 0.111696,0 0.206609,-0.03916 0.284796,-0.117343 0.07819,-0.07819 0.117344,-0.1731 0.117344,-0.284796 v -2.278622 c 0,-0.111696 -0.03916,-0.206609 -0.117344,-0.284796 -0.07819,-0.07819 -0.1731,-0.117344 -0.284796,-0.117344 h -5.042982 c -0.122865,0 -0.223481,-0.03916 -0.301668,-0.117344 -0.06702,-0.07819 -0.100471,-0.1731 -0.100471,-0.284796 v -8.377187 c 0,-0.111696 -0.03916,-0.20661 -0.117344,-0.284796 -0.07819,-0.07819 -0.1731,-0.117345 -0.284796,-0.117345 z m 22.316841,0 c -0.111696,0 -0.206609,0.03916 -0.284796,0.117345 -0.07819,0.07819 -0.117088,0.1731 -0.117088,0.284796 v 2.278622 c 0,0.111695 0.0389,0.206608 0.117088,0.284795 0.07819,0.07819 0.1731,0.117344 0.284796,0.117344 h 2.379349 c 0.122865,0 0.217777,0.03916 0.284795,0.117344 0.07819,0.07819 0.117088,0.1731 0.117088,0.284796 v 8.377188 c 0,0.111696 0.03916,0.206608 0.117344,0.284796 0.07819,0.07819 0.1731,0.117343 0.284796,0.117343 h 2.51331 c 0.122865,0 0.217778,-0.03916 0.284796,-0.117343 0.07819,-0.07819 0.117344,-0.1731 0.117344,-0.284796 v -8.377188 c 0,-0.111696 0.0389,-0.206609 0.117088,-0.284796 0.07819,-0.07819 0.1731,-0.117344 0.284796,-0.117344 h 2.345603 c 0.122865,0 0.218032,-0.03916 0.285052,-0.117344 0.07819,-0.07819 0.11709,-0.1731 0.11709,-0.284795 v -2.278622 c 0,-0.111696 -0.03893,-0.20661 -0.11709,-0.284796 -0.06705,-0.07819 -0.162187,-0.117345 -0.285052,-0.117345 z m 30.526585,0 c -0.1117,0 -0.20661,0.03916 -0.2848,0.117345 -0.0782,0.07819 -0.11735,0.1731 -0.11735,0.284796 v 11.460089 c 0,0.111696 0.0391,0.206608 0.11735,0.284796 0.0782,0.07819 0.1731,0.117343 0.2848,0.117343 h 2.49643 c 0.1117,0 0.20661,-0.03916 0.2848,-0.117343 0.0782,-0.07819 0.11734,-0.1731 0.11734,-0.284796 v -5.998095 c 0,-0.111696 0.0335,-0.173155 0.10047,-0.184325 0.0782,-0.02234 0.1508,0.01112 0.21782,0.100471 l 4.37292,6.148929 c 0.067,0.08936 0.16192,0.167671 0.2848,0.234689 0.12285,0.06702 0.24007,0.10047 0.35177,0.10047 h 2.47982 c 0.11169,0 0.2066,-0.03916 0.28479,-0.117343 0.0782,-0.07819 0.11709,-0.1731 0.11709,-0.284796 V 62.003288 c 0,-0.111696 -0.0389,-0.20661 -0.11709,-0.284796 -0.0782,-0.07819 -0.1731,-0.117345 -0.28479,-0.117345 h -2.47982 c -0.1117,0 -0.20661,0.03916 -0.2848,0.117345 -0.0782,0.07819 -0.11734,0.1731 -0.11734,0.284796 v 5.998095 c 0,0.111695 -0.0389,0.173155 -0.11709,0.184325 -0.067,0.01117 -0.13418,-0.02798 -0.2012,-0.117345 l -4.35604,-6.148673 c -0.0671,-0.08936 -0.16194,-0.161967 -0.2848,-0.217815 -0.12287,-0.06702 -0.24034,-0.100728 -0.35204,-0.100728 z m -42.52252,0.01687 c -0.111696,0 -0.206864,0.03916 -0.285051,0.117345 -0.07819,0.07819 -0.117089,0.1731 -0.117089,0.284796 v 6.785501 c 0,0.79304 0.128367,1.513442 0.385267,2.161278 0.256901,0.647836 0.619953,1.200714 1.089075,1.658667 0.469123,0.457952 1.033152,0.815302 1.692157,1.072202 0.659006,0.245731 1.390559,0.368649 2.194769,0.368649 0.80421,0 1.536018,-0.122918 2.195023,-0.368649 0.659006,-0.2569 1.223035,-0.61425 1.692158,-1.072202 0.469122,-0.457953 0.826471,-1.010831 1.072202,-1.658667 0.2569,-0.647836 0.385266,-1.368238 0.385266,-2.161278 v -6.785504 c 0,-0.111696 -0.0389,-0.206608 -0.117088,-0.284796 -0.07819,-0.07819 -0.173355,-0.117344 -0.285051,-0.117344 H 78.84139 c -0.111696,0 -0.206608,0.03916 -0.284795,0.117344 -0.07819,0.07819 -0.117088,0.1731 -0.117088,0.284796 v 6.785502 c 0,0.435614 -0.07261,0.798667 -0.217816,1.089076 -0.134035,0.27924 -0.301558,0.502518 -0.50261,0.670062 -0.201053,0.156375 -0.418884,0.268142 -0.653446,0.335159 -0.234561,0.06702 -0.446944,0.100471 -0.636827,0.100471 -0.189884,0 -0.402011,-0.03345 -0.636572,-0.100471 -0.234562,-0.06702 -0.458097,-0.178784 -0.670319,-0.335159 -0.201052,-0.167544 -0.374023,-0.390822 -0.519228,-0.670062 -0.134035,-0.290409 -0.201198,-0.653462 -0.201198,-1.089076 v -6.785502 c 0,-0.111696 -0.0389,-0.206608 -0.117088,-0.284796 -0.07819,-0.07819 -0.1731,-0.117344 -0.284796,-0.117344 z m 23.070756,0 c -0.122865,0 -0.223477,0.03916 -0.301665,0.117345 -0.06705,0.07819 -0.100477,0.1731 -0.100477,0.284796 v 11.443215 c 0,0.111696 0.03345,0.20661 0.100477,0.284796 0.07819,0.07819 0.1788,0.117345 0.301665,0.117345 h 2.52993 c 0.111697,0 0.20661,-0.03916 0.284797,-0.117345 0.07819,-0.07819 0.117338,-0.1731 0.117338,-0.284796 V 62.02016 c 0,-0.111696 -0.03915,-0.206608 -0.117338,-0.284796 -0.07819,-0.07819 -0.1731,-0.117344 -0.284797,-0.117344 z m -41.852449,2.965558 c 0.413275,0 0.804078,0.08921 1.172674,0.267922 0.368596,0.167544 0.692491,0.396527 0.971731,0.686936 0.27924,0.27924 0.497071,0.614542 0.653445,1.005478 0.156375,0.379766 0.234688,0.776271 0.234688,1.189546 0,0.424444 -0.07831,0.826398 -0.234688,1.206164 -0.156374,0.379766 -0.374205,0.714812 -0.653445,1.005221 -0.27924,0.290409 -0.603135,0.525096 -0.971731,0.703809 -0.368596,0.167544 -0.759399,0.251305 -1.172674,0.251305 -0.413274,0 -0.804332,-0.08376 -1.172928,-0.251305 -0.368597,-0.178713 -0.692493,-0.4134 -0.971732,-0.703809 -0.26807,-0.290409 -0.480198,-0.625455 -0.636572,-1.005221 -0.156374,-0.379766 -0.234689,-0.78172 -0.234689,-1.206164 0,-0.413275 0.07831,-0.80978 0.234689,-1.189546 0.156374,-0.390936 0.368502,-0.726238 0.636572,-1.005478 0.279239,-0.290409 0.603135,-0.519392 0.971732,-0.686936 0.368596,-0.178713 0.759654,-0.267922 1.172928,-0.267922 z m 52.809673,0 c 0.41328,0 0.80434,0.08921 1.17293,0.267922 0.3686,0.167544 0.69249,0.396527 0.97173,0.686936 0.27924,0.27924 0.49707,0.614542 0.65345,1.005478 0.15637,0.379766 0.23443,0.776271 0.23443,1.189546 0,0.424444 -0.0781,0.826398 -0.23443,1.206164 -0.15638,0.379766 -0.37421,0.714812 -0.65345,1.005221 -0.27924,0.290409 -0.60313,0.525096 -0.97173,0.703809 -0.36859,0.167544 -0.75965,0.251305 -1.17293,0.251305 -0.41327,0 -0.80408,-0.08376 -1.17267,-0.251305 -0.3686,-0.178713 -0.69249,-0.4134 -0.97173,-0.703809 -0.26807,-0.290409 -0.48046,-0.625455 -0.63683,-1.005221 -0.15638,-0.379766 -0.23443,-0.78172 -0.23443,-1.206164 0,-0.413275 0.0781,-0.80978 0.23443,-1.189546 0.15637,-0.390936 0.36876,-0.726238 0.63683,-1.005478 0.27924,-0.290409 0.60313,-0.519392 0.97173,-0.686936 0.36859,-0.178713 0.7594,-0.267922 1.17267,-0.267922 z m -91.428645,0.100471 h 1.776015 c 0.234563,0 0.430088,0.05031 0.586463,0.150834 0.167542,0.08936 0.295912,0.206572 0.385267,0.351777 0.100523,0.134035 0.167438,0.279255 0.20094,0.43563 0.0447,0.145205 0.06727,0.273571 0.06727,0.385267 0,0.212222 -0.03915,0.396599 -0.117337,0.552974 -0.0782,0.156374 -0.178808,0.290444 -0.301673,0.40214 -0.122865,0.100526 -0.256942,0.178584 -0.402142,0.234432 -0.145208,0.04468 -0.284723,0.06724 -0.418755,0.06724 h -1.776015 c -0.111698,0 -0.206603,-0.03916 -0.28479,-0.117344 -0.07819,-0.07819 -0.117345,-0.173099 -0.117345,-0.284795 V 65.08619 c 0,-0.111696 0.03915,-0.20661 0.117345,-0.284796 0.07819,-0.07819 0.173092,-0.117345 0.28479,-0.117345 z" style="color:#000;-inkscape-font-specification:Heavitas;fill:#fff;stroke-linecap:round;stroke-linejoin:round;stroke-miterlimit:128;-inkscape-stroke:none;paint-order:stroke fill markers"/></svg>