<svg xmlns="http://www.w3.org/2000/svg" xml:space="preserve" width="512" height="512" viewBox="0 0 135.46666 135.46667"><path d="M 135.46666,67.733332 127.00103,59.267699 87.57191,19.838581 V 59.267699 H 10e-7 V 76.198966 H 87.57191 v 39.429114 l 39.42912,-39.429114 z" style="fill:#e89c30;fill-opacity:1;stroke:none;stroke-width:33.8667;stroke-miterlimit:128;stroke-dasharray:none;stroke-opacity:1;paint-order:stroke fill markers"/><path d="m 97.448831,57.150516 c -1.413741,6.9e-5 -2.844526,0.28552 -4.150134,0.853178 -0.38614,0.167887 -0.675308,0.500092 -1.040764,0.713135 -0.797999,-0.776378 -2.156481,-1.332219 -3.236494,-1.332219 h -2.529045 c -0.33469,0 -0.736443,0.130171 -1.123446,0.232544 -0.384209,-0.102533 -0.790584,-0.250113 -1.105359,-0.250114 h -8.847521 c -0.707403,10e-7 -1.480234,0.283543 -2.189531,0.660425 -0.332908,-0.13059 -0.638336,-0.335232 -0.980302,-0.432015 -1.034854,-0.292885 -2.088706,-0.411861 -3.146578,-0.411861 -1.422684,0 -2.860769,0.280734 -4.179589,0.845943 -0.308219,0.132094 -0.542229,0.393041 -0.838192,0.552421 -0.80856,-0.700728 -2.037159,-1.214913 -3.058211,-1.214913 H 52.49602 c -1.101142,10e-7 -2.487609,0.567861 -3.277319,1.35754 h -0.0021 c -0.250423,0.250423 -0.42075,0.623321 -0.61495,0.964799 -0.194585,-0.34199 -0.368942,-0.71465 -0.619084,-0.964799 -0.789771,-0.789771 -2.176354,-1.357539 -3.277319,-1.35754 h -2.514058 c -0.44683,10e-7 -0.975004,0.132167 -1.491899,0.310576 -0.48118,-0.163087 -0.975827,-0.310576 -1.422135,-0.310576 h -8.529195 c -0.860988,10e-7 -1.824086,0.402184 -2.613278,0.931726 -0.258858,-0.116427 -0.474835,-0.313331 -0.742073,-0.41031 -1.285237,-0.48229 -2.634738,-0.687296 -3.982703,-0.687297 -0.843841,0 -1.681418,0.0991 -2.503723,0.273368 -1.04338,0.208705 -2.075379,0.610664 -2.988448,1.195276 -1.031246,0.656264 -1.892535,1.577924 -2.493904,2.580204 -0.793255,1.322094 -1.056784,2.765675 -1.056783,4.088123 0,0.944618 0.137561,1.946645 0.536918,2.94504 0.01883,0.04599 0.03847,0.09164 0.05891,0.136942 0.07194,0.163073 0.218576,0.294662 0.302824,0.454753 l -0.242363,0.349849 0.08992,-0.127124 c -0.692187,0.922917 -1.0009,2.263219 -0.912089,3.240113 0.0011,0.0131 0.0024,0.02619 0.0036,0.03927 0.113212,1.13211 0.886862,2.509064 1.80299,3.209106 0.419273,0.336413 0.851973,0.656745 1.308447,0.947229 0.04193,0.02606 0.08431,0.05139 0.127125,0.07596 0.590435,0.347316 1.209812,0.642802 1.849499,0.888835 0.692096,0.266191 1.407622,0.457309 2.134753,0.589628 0.799235,0.157065 1.60637,0.22841 2.417941,0.22841 1.001523,0 1.99367,-0.09934 2.970878,-0.343648 0.01829,-0.0044 0.03655,-0.0088 0.05478,-0.01344 0.495422,-0.130866 0.94986,-0.462155 1.433504,-0.683679 0.765689,0.467756 1.647508,0.824239 2.443262,0.824239 h 8.529195 c 0.445901,0 0.942359,-0.146439 1.425752,-0.310576 0.516769,0.177821 1.044193,0.310576 1.488282,0.310576 h 8.361246 c 0.303282,0 0.641264,-0.133431 0.971,-0.212907 0.330384,0.07977 0.668676,0.212907 0.972551,0.212907 h 8.527128 c 1.005616,0 2.218934,-0.507031 3.031339,-1.19941 0.305243,0.165505 0.547325,0.436179 0.865581,0.572575 1.31882,0.565209 2.756905,0.843359 4.179589,0.843359 1.045541,0 2.091515,-0.120691 3.112989,-0.409794 0.936327,-0.264998 1.847232,-0.660303 2.687691,-1.185458 0.09833,-0.06065 0.171368,-0.155163 0.267684,-0.219108 0.0595,0.0695 0.09149,0.17779 0.153995,0.240296 0.796242,0.796242 2.182731,1.35754 3.27732,1.35754 h 2.514058 c 0.763146,0 1.775338,-0.404157 2.648417,-1.002006 0.847401,0.599727 1.894066,1.002006 2.730066,1.002006 h 2.529562 c 1.08263,0 2.447086,-0.556463 3.244246,-1.335836 0.361872,0.209143 0.651503,0.533308 1.033012,0.699182 1.305761,0.567722 2.736738,0.853178 4.150651,0.853178 1.413911,0 2.844702,-0.285608 4.150132,-0.853178 0.3936,-0.171131 0.694,-0.503741 1.0666,-0.720886 0.79283,0.792736 2.18267,1.35754 3.27732,1.35754 h 2.49597 c 0.9322,0 2.01657,-0.45692 2.82619,-1.068152 0.17926,0.126615 0.35575,0.358532 0.52555,0.451135 0.59875,0.326593 1.42174,0.617017 2.37866,0.617017 h 2.48047 c 1.09455,0 2.48437,-0.564579 3.27732,-1.35754 0.78992,-0.789815 1.35754,-2.178506 1.35754,-3.279387 V 62.003967 c 0,-1.102144 -0.56676,-2.488212 -1.35547,-3.27732 l -0.002,-0.0021 c -0.78945,-0.789353 -2.1763,-1.35754 -3.27732,-1.35754 h -2.48047 c -0.94739,10e-7 -2.04185,0.464586 -2.8515,1.086239 -0.22112,-0.152581 -0.4231,-0.403616 -0.63666,-0.507979 -0.5853,-0.29929 -1.32965,-0.578259 -2.22467,-0.57826 h -2.51354 c -1.1012,10e-7 -2.48757,0.56783 -3.27732,1.35754 -0.002,0.0015 -0.002,0.0041 -0.004,0.0057 -0.37233,-0.218237 -0.66854,-0.555298 -1.06247,-0.726571 -1.30527,-0.567506 -2.736391,-0.853109 -4.150132,-0.853178 z m -9.907922,1.574064 0.220658,0.238229 c -0.03243,-0.03784 -0.08883,-0.04925 -0.12299,-0.08578 -0.03836,-0.0424 -0.05815,-0.112931 -0.09767,-0.152446 z m 17.345711,1.513603 0.0589,0.05684 c -0.0106,-0.01078 -0.0266,-0.01459 -0.0372,-0.02532 -0.009,-0.0089 -0.0126,-0.02261 -0.0217,-0.03152 z m -14.904,0.02739 c -0.005,0.005 -0.0069,0.01254 -0.01188,0.01757 -0.005,0.0051 -0.0126,0.0069 -0.01757,0.01189 z m -68.513646,0.293006 c -0.03302,0.0076 -0.06639,0.04216 -0.09974,0.05064 -0.0639,0.01719 -0.130042,0.01 -0.19327,0.02945 z m 4.396114,0.217041 0.08423,0.02532 c -0.01395,-0.0044 -0.03098,-0.0034 -0.04496,-0.0078 -0.01423,-0.0043 -0.02499,-0.01335 -0.03927,-0.01757 z m 68.65834,0.222208 c -0.01819,0.0083 -0.03044,0.02671 -0.04858,0.03514 -0.01382,0.0066 -0.0312,0.0031 -0.04496,0.0098 z m 5.849772,0 0.0956,0.04496 c -0.0144,-0.007 -0.0325,-0.0044 -0.047,-0.01137 -0.0178,-0.0083 -0.0308,-0.02548 -0.0486,-0.03359 z M 18.058846,73.213101 c 0.03358,0.02177 0.0717,0.03277 0.10542,0.05426 -0.01363,-0.0082 -0.03363,-0.0092 -0.04703,-0.01757 z m 66.552526,3.290755 -0.220659,0.238229 c 0.03951,-0.03951 0.05931,-0.110056 0.09767,-0.152446 0.03421,-0.0366 0.09049,-0.04786 0.12299,-0.08578 z m -54.759964,0.03307 -0.04289,0.03359 c 0.0075,-0.0055 0.01013,-0.01618 0.01757,-0.0217 0.0078,-0.0059 0.01754,-0.006 0.02532,-0.01189 z" style="color:#000;-inkscape-font-specification:Heavitas;fill:#e89c30;stroke-linecap:round;stroke-linejoin:round;stroke-miterlimit:128;-inkscape-stroke:none;paint-order:stroke fill markers"/><path d="m 97.449118,61.383332 c -0.871245,0 -1.692285,0.167526 -2.463,0.502621 -0.770715,0.335094 -1.44108,0.793069 -2.010735,1.373899 -0.569663,0.56966 -1.021935,1.239767 -1.357027,2.010484 -0.335095,0.770717 -0.502625,1.591751 -0.502625,2.462996 0,0.871245 0.16753,1.692279 0.502625,2.462996 0.335092,0.770717 0.787364,1.446527 1.357027,2.027357 0.569655,0.569661 1.24002,1.021932 2.010735,1.357026 0.770715,0.335094 1.591755,0.502621 2.463,0.502621 0.871245,0 1.692015,-0.167527 2.462738,-0.502621 0.770714,-0.335094 1.441084,-0.787365 2.010744,-1.357026 0.58083,-0.58083 1.0388,-1.25664 1.37389,-2.027357 0.3351,-0.770717 0.50262,-1.591751 0.50262,-2.462996 0,-0.871245 -0.16752,-1.692279 -0.50262,-2.462996 -0.33509,-0.770717 -0.79306,-1.440824 -1.37389,-2.010484 -0.56966,-0.58083 -1.24003,-1.038805 -2.010744,-1.373899 -0.770723,-0.335095 -1.591493,-0.502621 -2.462738,-0.502621 z m -28.349002,0.03349 c -0.893585,0 -1.731474,0.167527 -2.51336,0.502621 -0.781887,0.335094 -1.468849,0.787621 -2.060849,1.357281 -0.58083,0.56966 -1.038805,1.239767 -1.373899,2.010484 -0.335094,0.770716 -0.502621,1.59175 -0.502621,2.462996 0,0.871244 0.167527,1.692279 0.502621,2.462996 0.335094,0.770717 0.793069,1.440823 1.373899,2.010484 0.592,0.569661 1.278962,1.021931 2.060849,1.357026 0.781886,0.335094 1.619775,0.502621 2.51336,0.502621 0.714867,0 1.368119,-0.08376 1.960119,-0.251311 0.592001,-0.167547 1.128291,-0.401982 1.608592,-0.703567 0.491472,-0.301585 0.932591,-0.664645 1.323534,-1.089098 0.390944,-0.435622 0.748556,-0.9159 1.072481,-1.44088 0.05585,-0.100529 0.067,-0.195443 0.0335,-0.284802 -0.03351,-0.100528 -0.100674,-0.17314 -0.201203,-0.217819 l -2.37914,-0.938261 c -0.111698,-0.04468 -0.223469,-0.04468 -0.335166,0 -0.100529,0.04468 -0.178588,0.111588 -0.234437,0.200946 -0.290416,0.469133 -0.686929,0.854495 -1.189571,1.15608 -0.491471,0.290416 -1.044361,0.435639 -1.658701,0.435639 -0.424452,0 -0.826669,-0.08921 -1.206443,-0.267928 -0.368604,-0.178717 -0.692505,-0.413408 -0.971751,-0.703822 -0.279245,-0.290416 -0.497081,-0.625469 -0.653458,-1.005243 -0.156377,-0.390943 -0.234437,-0.798609 -0.234437,-1.223061 0,-0.413283 0.07806,-0.815501 0.234437,-1.206444 0.156377,-0.390943 0.374213,-0.7317 0.653458,-1.022116 0.279246,-0.301584 0.603147,-0.541723 0.971751,-0.720439 0.379774,-0.178718 0.781991,-0.267929 1.206443,-0.267929 0.647849,0 1.200739,0.13952 1.658701,0.418766 0.457963,0.268075 0.848773,0.659141 1.172697,1.172953 0.05585,0.08936 0.139613,0.156267 0.251311,0.200946 0.111697,0.04468 0.223468,0.04468 0.335166,0 l 2.37914,-0.93826 c 0.100529,-0.04468 0.167693,-0.117291 0.201203,-0.21782 0.0335,-0.100528 0.02236,-0.195443 -0.0335,-0.284802 C 74.740917,64.371248 74.383305,63.902123 73.992361,63.47767 73.612588,63.042047 73.18262,62.67354 72.702318,62.371955 72.222016,62.07037 71.685726,61.83568 71.093726,61.668133 70.501727,61.500585 69.837323,61.416822 69.100116,61.416822 Z m -45.69019,0.01687 c -0.536151,0 -1.08904,0.06146 -1.6587,0.184328 -0.56966,0.111698 -1.089096,0.318127 -1.558227,0.619712 -0.457963,0.290415 -0.837878,0.686929 -1.139463,1.18957 -0.301584,0.502641 -0.452256,1.13955 -0.452256,1.910267 0,0.524981 0.07806,0.982955 0.234437,1.373899 0.167548,0.379773 0.385383,0.709123 0.653459,0.988368 0.268075,0.279245 0.569674,0.508233 0.904768,0.68695 0.346265,0.178716 0.692725,0.329644 1.038989,0.452512 0.346265,0.111698 0.681318,0.200909 1.005242,0.267928 0.335094,0.05585 0.625542,0.106159 0.871278,0.150838 0.256906,0.05585 0.508196,0.100454 0.753932,0.133963 0.245735,0.0335 0.457867,0.07837 0.636584,0.13422 0.189887,0.05585 0.340815,0.128462 0.452513,0.21782 0.111697,0.07819 0.167455,0.189703 0.167455,0.33491 0,0.279245 -0.12837,0.491633 -0.385275,0.636841 -0.256905,0.134038 -0.631116,0.200946 -1.122588,0.200946 -0.513811,0 -1.066701,-0.11177 -1.658701,-0.335166 -0.591999,-0.223397 -1.18975,-0.530444 -1.79292,-0.921386 -0.08936,-0.05585 -0.18972,-0.0727 -0.301419,-0.05036 -0.111698,0.02234 -0.201165,0.07835 -0.268184,0.167711 l -1.290043,1.859646 c -0.06702,0.08936 -0.09502,0.195425 -0.08385,0.318292 0.01117,0.111698 0.06148,0.201165 0.150837,0.268184 0.312755,0.256906 0.653512,0.502492 1.022116,0.737058 0.379773,0.223396 0.787438,0.41893 1.223061,0.586477 0.435622,0.167547 0.904749,0.296171 1.40739,0.38553 0.502641,0.100528 1.044379,0.150582 1.625209,0.150582 0.714868,0 1.362672,-0.07261 1.943502,-0.21782 0.592,-0.156377 1.09458,-0.390812 1.507863,-0.703567 0.424453,-0.312755 0.754058,-0.709268 0.988624,-1.18957 0.234567,-0.491472 0.351784,-1.072368 0.351784,-1.742556 0,-0.714868 -0.145224,-1.306915 -0.435639,-1.776047 -0.279246,-0.480302 -0.631154,-0.865664 -1.055607,-1.156079 -0.413282,-0.301585 -0.860106,-0.524868 -1.340408,-0.670076 -0.480302,-0.156377 -0.921421,-0.273595 -1.323534,-0.351784 -0.07819,-0.01117 -0.256867,-0.03917 -0.536112,-0.08386 -0.279245,-0.05584 -0.569693,-0.12846 -0.871278,-0.217818 -0.301585,-0.08936 -0.569729,-0.195426 -0.804296,-0.318293 -0.234566,-0.122868 -0.351783,-0.262644 -0.351783,-0.419021 0,-0.156378 0.0446,-0.279043 0.133964,-0.368402 0.100528,-0.08936 0.223449,-0.150819 0.368656,-0.184329 0.145209,-0.04468 0.296136,-0.06698 0.452512,-0.06698 0.167548,-0.01117 0.312772,-0.01688 0.43564,-0.01688 0.413282,0 0.865554,0.07806 1.357025,0.234437 0.491472,0.145207 1.022058,0.396753 1.591719,0.754186 0.08936,0.06702 0.189976,0.08932 0.301675,0.06698 0.111698,-0.02234 0.20091,-0.07835 0.267928,-0.167711 L 28.134717,63.6285 c 0.06702,-0.08936 0.09502,-0.189977 0.08385,-0.301675 -0.01117,-0.111698 -0.06148,-0.206613 -0.150837,-0.284801 -0.681354,-0.524976 -1.396321,-0.921489 -2.1447,-1.189565 -0.737207,-0.279245 -1.57484,-0.418766 -2.513104,-0.418767 z m 7.338625,0.167455 c -0.111698,0 -0.206869,0.03916 -0.285057,0.117346 -0.07819,0.07819 -0.117091,0.173104 -0.117091,0.284802 v 11.460321 c 0,0.111698 0.0389,0.206613 0.117091,0.284801 0.07819,0.07819 0.173359,0.117091 0.285057,0.117091 h 8.527938 c 0.111699,0 0.206869,-0.0389 0.285057,-0.117091 0.07819,-0.07819 0.117091,-0.173103 0.117091,-0.284801 v -2.312161 c 0,-0.111697 -0.0389,-0.206868 -0.117091,-0.285057 -0.07819,-0.07819 -0.173358,-0.11709 -0.285057,-0.11709 h -5.210537 c -0.111699,0 -0.206613,-0.03916 -0.284802,-0.117346 -0.07819,-0.07819 -0.117347,-0.173103 -0.117347,-0.284802 v -0.63684 c 0,-0.111699 0.03916,-0.206613 0.117347,-0.284802 0.07819,-0.07819 0.173103,-0.117091 0.284802,-0.117091 h 4.540462 c 0.111698,0 0.206612,-0.03916 0.284801,-0.117346 0.07819,-0.07819 0.117347,-0.173104 0.117347,-0.284802 v -2.312158 c 0,-0.111699 -0.03916,-0.206613 -0.117347,-0.284802 -0.07819,-0.07819 -0.173103,-0.117344 -0.284801,-0.117344 h -4.540462 c -0.111699,0 -0.206613,-0.03916 -0.284802,-0.117346 -0.07819,-0.07819 -0.117347,-0.173103 -0.117347,-0.284802 V 65.08626 c 0,-0.111699 0.03916,-0.206869 0.117347,-0.285057 0.07819,-0.07819 0.173103,-0.117091 0.284802,-0.117091 h 5.210537 c 0.111699,0 0.206869,-0.03916 0.285057,-0.117347 0.07819,-0.07819 0.117091,-0.173103 0.117091,-0.284802 v -2.278667 c 0,-0.111698 -0.0389,-0.206612 -0.117091,-0.284801 -0.07819,-0.07819 -0.173358,-0.117346 -0.285057,-0.117346 z m 11.443447,0 c -0.122868,0 -0.223486,0.03916 -0.301675,0.117346 -0.06702,0.07819 -0.100473,0.173104 -0.100473,0.284802 v 11.460321 c 0,0.111698 0.03346,0.206613 0.100473,0.284801 0.07819,0.07819 0.178807,0.117091 0.301675,0.117091 h 8.360483 c 0.111699,0 0.206613,-0.0389 0.284802,-0.117091 0.07819,-0.07819 0.117346,-0.173103 0.117346,-0.284801 v -2.278669 c 0,-0.111697 -0.03916,-0.206612 -0.117346,-0.2848 C 50.759093,70.821957 50.66418,70.7828 50.552481,70.7828 h -5.043082 c -0.122869,0 -0.223486,-0.03916 -0.301675,-0.117346 -0.06702,-0.07819 -0.100473,-0.173103 -0.100473,-0.284802 v -8.377358 c 0,-0.111698 -0.03916,-0.206613 -0.117347,-0.284802 -0.07819,-0.07819 -0.173104,-0.117343 -0.284801,-0.117343 z m 10.303985,0 c -0.111697,0 -0.206613,0.03916 -0.284802,0.117346 -0.07819,0.07819 -0.11709,0.173104 -0.11709,0.284802 v 11.460321 c 0,0.111698 0.0389,0.206613 0.11709,0.284801 0.07819,0.07819 0.173105,0.117091 0.284802,0.117091 h 8.528195 c 0.111698,0 0.206613,-0.0389 0.284801,-0.117091 0.07819,-0.07819 0.117347,-0.173103 0.117347,-0.284801 v -2.312161 c 0,-0.111697 -0.03916,-0.206868 -0.117347,-0.285057 -0.07819,-0.07819 -0.173103,-0.11709 -0.284801,-0.11709 h -5.210539 c -0.111697,0 -0.206868,-0.03916 -0.285057,-0.117346 -0.07819,-0.07819 -0.11709,-0.173103 -0.11709,-0.284802 v -0.63684 c 0,-0.111699 0.0389,-0.206613 0.11709,-0.284802 0.07819,-0.07819 0.17336,-0.117091 0.285057,-0.117091 h 4.540462 c 0.111699,0 0.206614,-0.03916 0.284803,-0.117346 0.07819,-0.07819 0.117346,-0.173104 0.117346,-0.284802 v -2.312158 c 0,-0.111699 -0.03916,-0.206613 -0.117346,-0.284802 -0.07819,-0.07819 -0.173104,-0.117344 -0.284803,-0.117344 h -4.540462 c -0.111697,0 -0.206868,-0.03916 -0.285057,-0.117346 -0.07819,-0.07819 -0.11709,-0.173103 -0.11709,-0.284802 V 65.08626 c 0,-0.111699 0.0389,-0.206869 0.11709,-0.285057 0.07819,-0.07819 0.17336,-0.117091 0.285057,-0.117091 h 5.210539 c 0.111698,0 0.206613,-0.03916 0.284801,-0.117347 0.07819,-0.07819 0.117347,-0.173103 0.117347,-0.284802 v -2.278667 c 0,-0.111698 -0.03916,-0.206612 -0.117347,-0.284801 -0.07819,-0.07819 -0.173103,-0.117346 -0.284801,-0.117346 z m 22.920642,0 c -0.111698,0 -0.206613,0.03916 -0.284802,0.117346 -0.07819,0.07819 -0.117346,0.173104 -0.117346,0.284802 v 2.278671 c 0,0.111698 0.03916,0.206613 0.117346,0.284802 0.07819,0.07819 0.173104,0.117345 0.284802,0.117345 h 2.37914 c 0.122868,0 0.217783,0.0389 0.284802,0.117091 0.07819,0.07819 0.117346,0.17336 0.117346,0.285057 v 8.377358 c 0,0.111698 0.0389,0.206613 0.117091,0.284801 0.07819,0.07819 0.173359,0.117091 0.285057,0.117091 h 2.513105 c 0.122868,0 0.217783,-0.0389 0.284801,-0.117091 0.07819,-0.07819 0.117347,-0.173103 0.117347,-0.284801 V 65.08626 c 0,-0.111698 0.03916,-0.206868 0.117346,-0.285057 0.07819,-0.07819 0.173104,-0.11709 0.284802,-0.11709 h 2.345649 c 0.12287,0 0.217785,-0.03916 0.284805,-0.117347 0.07819,-0.07819 0.117345,-0.173103 0.117345,-0.284802 v -2.278667 c 0,-0.111698 -0.03915,-0.206613 -0.117345,-0.284802 -0.06702,-0.07819 -0.161935,-0.117345 -0.284805,-0.117345 z m 30.526935,0 c -0.11169,0 -0.20661,0.03916 -0.2848,0.117346 -0.0782,0.07819 -0.11734,0.173104 -0.11734,0.284802 v 11.460321 c 0,0.111698 0.0391,0.206613 0.11734,0.284801 0.0782,0.07819 0.17311,0.117091 0.2848,0.117091 h 2.49649 c 0.1117,0 0.20661,-0.0389 0.2848,-0.117091 0.0782,-0.07819 0.11735,-0.173103 0.11735,-0.284801 V 67.4654 c 0,-0.111697 0.0334,-0.173158 0.10047,-0.184328 0.0782,-0.02234 0.1508,0.01111 0.21782,0.100474 l 4.37301,6.149053 c 0.067,0.08936 0.16192,0.167419 0.2848,0.234437 0.12287,0.06702 0.24034,0.100473 0.35204,0.100473 h 2.47961 c 0.1117,0 0.20661,-0.0389 0.2848,-0.117091 0.0782,-0.07819 0.11735,-0.173103 0.11735,-0.284801 V 62.003299 c 0,-0.111698 -0.0392,-0.206612 -0.11735,-0.284801 -0.0782,-0.07819 -0.1731,-0.117346 -0.2848,-0.117346 h -2.47961 c -0.1117,0 -0.20687,0.03916 -0.28506,0.117346 -0.0782,0.07819 -0.11709,0.173103 -0.11709,0.284801 v 5.998216 c 0,0.111698 -0.0392,0.173159 -0.11735,0.184328 -0.0671,0.01117 -0.13418,-0.02798 -0.20119,-0.117346 l -4.35614,-6.149053 c -0.067,-0.08936 -0.16194,-0.16197 -0.2848,-0.217819 -0.12287,-0.06702 -0.24009,-0.100473 -0.35178,-0.100473 z m -19.452144,0.01687 c -0.12287,0 -0.223485,0.0389 -0.301675,0.117091 -0.06702,0.07819 -0.100475,0.173103 -0.100475,0.284802 v 11.443702 c 0,0.111698 0.03345,0.206613 0.100475,0.284801 0.07819,0.07819 0.178805,0.117091 0.301675,0.117091 h 2.52998 c 0.111695,0 0.20661,-0.0389 0.2848,-0.117091 0.07819,-0.07819 0.117345,-0.173103 0.117345,-0.284801 V 62.019918 c 0,-0.1117 -0.03915,-0.206614 -0.117345,-0.284803 -0.07819,-0.07819 -0.173105,-0.11709 -0.2848,-0.11709 z m 10.957702,2.965361 c 0.41328,0 0.80409,0.08947 1.172693,0.268184 0.368602,0.167547 0.692505,0.396535 0.971752,0.68695 0.27924,0.279245 0.497087,0.614298 0.653457,1.005242 0.15638,0.379774 0.23469,0.776287 0.23469,1.18957 0,0.424452 -0.0783,0.826671 -0.23469,1.206444 -0.15637,0.379773 -0.374217,0.714826 -0.653457,1.005242 -0.279247,0.290415 -0.60315,0.52485 -0.971752,0.703567 -0.368603,0.167547 -0.759413,0.251566 -1.172693,0.251566 -0.413287,0 -0.804352,-0.08402 -1.172955,-0.251566 -0.368602,-0.178717 -0.692505,-0.413152 -0.971752,-0.703567 -0.268073,-0.290416 -0.480203,-0.625469 -0.636585,-1.005242 -0.156375,-0.379773 -0.23469,-0.781992 -0.23469,-1.206444 0,-0.413283 0.07831,-0.809796 0.23469,-1.18957 0.156382,-0.390944 0.368512,-0.725997 0.636585,-1.005242 0.279247,-0.290415 0.60315,-0.519403 0.971752,-0.68695 0.368603,-0.178716 0.759668,-0.268184 1.172955,-0.268184 z" style="color:#000;-inkscape-font-specification:Heavitas;fill:#fff;stroke-linecap:round;stroke-linejoin:round;stroke-miterlimit:128;-inkscape-stroke:none;paint-order:stroke fill markers"/></svg>