<svg xmlns="http://www.w3.org/2000/svg" xml:space="preserve" width="512" height="512" viewBox="0 0 135.46666 135.46667"><path d="M 135.46666,67.733332 127.00103,59.267699 87.57191,19.838581 V 59.267699 H 10e-7 V 76.198966 H 87.57191 v 39.429114 l 39.42912,-39.429114 z" style="fill:#eb8b47;fill-opacity:1;stroke:none;stroke-width:33.8667;stroke-miterlimit:128;stroke-dasharray:none;stroke-opacity:1;paint-order:stroke fill markers"/><path d="m 33.224609,42.333984 c -1.04304,0 -2.087807,0.122139 -3.123047,0.341797 -1.262454,0.250696 -2.495307,0.732883 -3.58789,1.433594 -1.202863,0.765892 -2.2058,1.835183 -2.919922,3.025391 -0.90627,1.510443 -1.228516,3.195238 -1.228516,4.810546 0,1.142893 0.168461,2.318605 0.626953,3.464844 l 0.02734,0.06836 0.0293,0.06836 c 0.20989,0.475755 0.580249,0.870574 0.873047,1.310547 l -0.939453,1.353515 0.0918,-0.126953 c -0.717029,0.955987 -1.038742,2.333705 -0.945313,3.361328 l 0.002,0.01953 0.002,0.01953 c 0.117224,1.171344 0.914881,2.582042 1.857422,3.304687 0.535957,0.432659 1.09615,0.847943 1.697266,1.230469 l 0.0625,0.03906 0.06445,0.03711 c 0.7352,0.432473 1.509617,0.802526 2.3125,1.111328 l -2.796968,0.263676 h -3.462891 c -1.061885,0 -2.518423,0.510834 -3.408203,1.400391 l -0.107422,0.107422 c -0.02745,-0.02938 -0.04033,-0.0794 -0.06836,-0.107422 -0.821811,-0.821713 -2.251325,-1.400391 -3.386719,-1.400391 H 11.45703 c -1.061885,0 -2.5136497,0.50607 -3.4082029,1.400391 L 7.9335937,68.986328 7.828125,69.109375 c -0.7480277,0.872858 -1.1582031,2.157428 -1.1582031,3.148437 v 15.789063 c 0,0.991087 0.4184824,2.283435 1.1582031,3.146484 l 0.1054687,0.123047 0.1152344,0.115235 c 0.8949302,0.89503 2.3470679,1.40039 3.4082029,1.40039 h 3.439453 c 1.135761,0 2.563068,-0.578899 3.384766,-1.40039 h 0.002 c 0.02776,-0.02777 0.04113,-0.07825 0.06836,-0.107422 l 0.107422,0.107422 c 0.890161,0.890259 2.34706,1.40039 3.408203,1.40039 h 3.462891 c 1.135761,0 2.572622,-0.588443 3.384766,-1.40039 0.307458,-0.307492 0.538002,-0.752243 0.761718,-1.1875 0.873553,0.674686 1.713155,1.40424 2.728516,1.845703 1.597134,0.694402 3.339032,1.042968 5.082031,1.042968 1.743001,0 3.484898,-0.348565 5.082032,-1.042968 0.930155,-0.404417 1.68514,-1.090657 2.498046,-1.691407 0.147353,0.270402 0.254384,0.569924 0.447266,0.794922 l 0.105469,0.123047 0.113281,0.115235 c 0.899936,0.900136 2.349008,1.40039 3.410156,1.40039 h 11.519532 c 0.429845,0 0.904269,-0.149163 1.36914,-0.296875 0.46698,0.148694 0.944952,0.296875 1.376953,0.296875 h 6.300782 c 1.611296,0 3.200599,-0.241397 4.697265,-0.777344 1.076444,-0.381596 2.000211,-1.069733 2.929688,-1.734375 0.157277,0.300778 0.281789,0.627525 0.492187,0.873047 l 0.107422,0.123047 0.115234,0.115235 c 0.889936,0.889919 2.347043,1.40039 3.408204,1.40039 h 3.484375 c 0.673129,0 1.410209,-0.241506 2.101562,-0.578125 0.691163,0.336279 1.427194,0.578125 2.099609,0.578125 h 3.439454 c 1.135766,0 2.560238,-0.574125 3.386718,-1.40039 0.161285,-0.161285 0.258013,-0.41884 0.398438,-0.621094 0.501832,0.61016 1.070216,1.079484 1.597656,1.367187 0.648698,0.353877 1.520901,0.654297 2.511724,0.654297 h 3.41601 c 1.13548,0 2.56476,-0.578512 3.38672,-1.40039 0.31382,-0.313903 0.55117,-0.766829 0.77735,-1.212891 0.90778,0.693833 1.79341,1.427088 2.84765,1.878906 1.61383,0.691639 3.37065,1.035156 5.13086,1.035156 1.58725,0 3.16755,-0.268896 4.65039,-0.816406 l 0.0273,-0.0098 0.0254,-0.0098 c 1.41248,-0.543262 2.73177,-1.317479 3.8789,-2.300781 1.17487,-0.99429 2.16291,-2.207692 2.89453,-3.556641 0.75842,-1.398335 1.22472,-2.951855 1.38672,-4.535156 0.0592,-0.527055 0.0957,-1.05732 0.0957,-1.591797 0,-0.469677 -0.0215,-0.911229 -0.0723,-1.378906 -0.0836,-0.848361 -0.59137,-1.809826 -1.24414,-2.603516 0.13694,-0.982021 0.057,-2.23567 -0.57422,-3.246094 l -0.0156,-0.02539 -0.0176,-0.02734 c -1.14491,-1.77348 -2.73168,-3.251347 -4.57813,-4.267578 -1.95575,-1.084714 -4.18978,-1.570313 -6.45703,-1.570313 -1.75902,0 -3.51596,0.343055 -5.13086,1.035157 l 0.0684,-1.703125 c 0.82672,-0.826701 1.40039,-2.251839 1.40039,-3.386719 v -3.183594 c 0,-0.907597 -0.42615,-1.929726 -0.99609,-2.753906 0.01,-0.111442 0.0742,-0.232532 0.0742,-0.339844 v -3.185547 c 0,-0.128704 -0.0737,-0.273777 -0.0879,-0.408203 0.57869,-0.826659 1.00976,-1.861691 1.00976,-2.777344 v -3.138672 c 0,-1.135074 -0.57342,-2.559829 -1.40039,-3.386718 -0.82236,-0.822563 -2.24227,-1.402344 -3.38672,-1.402344 H 95.640625 c -1.144958,0 -2.564812,0.580521 -3.386719,1.402344 -0.122131,0.122128 -0.190451,0.321128 -0.300781,0.466797 -0.565647,-0.367519 -1.05844,-0.857619 -1.675781,-1.09961 C 88.995633,42.814689 87.615252,42.5625 86.246094,42.5625 h -7.179688 c -1.144941,0 -2.572465,0.590126 -3.384765,1.402344 h -0.002 c -0.375358,0.375442 -0.676764,0.894563 -0.917968,1.433593 -0.415394,-0.804205 -1.031777,-1.444152 -1.65625,-1.86914 -0.743027,-0.518788 -1.783801,-0.941406 -2.833985,-0.941406 H 67.04097 c -1.046238,0 -2.116068,0.395802 -2.869141,0.912109 -0.704647,0.481537 -1.398362,1.239077 -1.785156,2.109375 l -0.01172,0.02539 -0.439453,1.023437 C 61.767047,45.677354 61.353618,44.633023 60.6855,43.964843 59.863249,43.142362 58.443262,42.5625 57.298828,42.5625 h -3.460937 c -1.070248,0 -2.510595,0.502874 -3.410157,1.402344 l -0.107422,0.107422 c -0.02748,-0.02942 -0.04029,-0.07935 -0.06836,-0.107422 C 49.429657,43.142357 48.01161,42.5625 46.867187,42.5625 h -3.439453 c -1.070247,0 -2.522999,0.517231 -3.408203,1.402344 l -0.115234,0.115234 -0.03906,0.04492 c -0.58034,-0.304496 -1.103757,-0.725048 -1.71875,-0.947266 -1.562457,-0.58593 -3.223488,-0.84375 -4.921875,-0.84375 z m 60.400391,3.177735 0.04297,0.04297 c -0.0073,-0.0075 -0.01807,-0.0101 -0.02539,-0.01758 -0.0073,-0.0074 -0.01023,-0.01805 -0.01758,-0.02539 z M 26.720703,61.451172 c 0.03313,0.02147 0.07031,0.03148 0.103516,0.05273 -0.01312,-0.0079 -0.03201,-0.0076 -0.04492,-0.01563 z m 100.126957,14.113284 0.45312,0.392578 c -0.0709,-0.07089 -0.19372,-0.108523 -0.27344,-0.175781 -0.0688,-0.06028 -0.10801,-0.163045 -0.17968,-0.216797 z m 0.66601,1.03125 -0.0664,0.283203 c 0.0113,-0.0415 -3.4e-4,-0.108762 0.01,-0.152344 0.0101,-0.04218 0.0483,-0.0894 0.0566,-0.130859 z" style="color:#000;-inkscape-font-specification:Aptly;fill:#eb8b47;stroke-linecap:round;stroke-miterlimit:128;-inkscape-stroke:none;paint-order:stroke fill markers"/><path d="m 33.223811,46.566666 c -0.738646,0 -1.50032,0.08445 -2.285131,0.253731 -0.784811,0.153884 -1.499808,0.438207 -2.146123,0.853695 -0.630927,0.4001 -1.153926,0.946179 -1.569413,1.63866 -0.415488,0.692477 -0.623734,1.570079 -0.623734,2.63188 0,0.723258 0.107541,1.354314 0.322977,1.892908 0.230826,0.52321 0.531399,0.976963 0.900721,1.361674 0.369322,0.38471 0.784782,0.700495 1.246435,0.946712 0.477042,0.246213 0.954397,0.453426 1.431437,0.622701 0.477044,0.153882 0.938145,0.276637 1.384412,0.36897 0.461652,0.07694 0.861898,0.147212 1.200443,0.208773 0.353935,0.07694 0.700152,0.137812 1.038697,0.183968 0.338548,0.04616 0.631251,0.108061 0.877465,0.185001 0.261604,0.07694 0.468816,0.176608 0.622701,0.299724 0.153884,0.107738 0.230994,0.261936 0.230994,0.461987 0,0.38471 -0.176785,0.677415 -0.530717,0.877466 -0.353933,0.184661 -0.870102,0.276986 -1.547192,0.276986 -0.707869,0 -1.469545,-0.154217 -2.285132,-0.461988 -0.815585,-0.307768 -1.638123,-0.731611 -2.4691,-1.270206 -0.123112,-0.07694 -0.26211,-0.09901 -0.415995,-0.06821 -0.153884,0.03076 -0.27664,0.106849 -0.36897,0.22996 l -1.777152,2.562117 c -0.09233,0.1231 -0.131146,0.269459 -0.115756,0.438733 0.0154,0.153883 0.08463,0.27664 0.20774,0.36897 0.430875,0.353935 0.899847,0.693319 1.407666,1.016475 0.523206,0.30777 1.085019,0.576876 1.685168,0.807703 0.600148,0.230828 1.246936,0.40761 1.939417,0.530717 0.692481,0.1385 1.437909,0.207739 2.238106,0.207739 0.984863,0 1.877672,-0.09966 2.677873,-0.299723 0.815585,-0.215439 1.508538,-0.538572 2.077909,-0.96945 0.58476,-0.430877 1.038518,-0.977473 1.361674,-1.639176 0.323157,-0.67709 0.484725,-1.477066 0.484725,-2.400371 0,-0.98486 -0.199863,-1.800565 -0.599964,-2.446879 -0.384709,-0.661702 -0.869414,-1.192568 -1.454174,-1.592667 -0.569373,-0.415488 -1.184698,-0.723408 -1.846399,-0.923458 -0.661705,-0.215437 -1.270194,-0.377006 -1.824178,-0.484725 -0.107712,-0.0155 -0.353746,-0.05372 -0.738457,-0.115239 -0.384711,-0.07694 -0.784439,-0.176606 -1.199926,-0.299723 -0.41549,-0.1231 -0.785301,-0.269459 -1.10846,-0.438733 -0.323156,-0.169266 -0.484725,-0.362303 -0.484725,-0.577742 0,-0.215437 0.06188,-0.383836 0.185002,-0.506946 0.1385,-0.1231 0.307413,-0.208599 0.507462,-0.254765 0.200047,-0.06156 0.408297,-0.09198 0.623735,-0.09198 0.230827,-0.0155 0.43069,-0.02325 0.599963,-0.02325 0.569373,0 1.193079,0.10753 1.87017,0.322977 0.677093,0.20005 1.407307,0.546266 2.192115,1.038697 0.1231,0.09234 0.26211,0.123777 0.415995,0.09302 0.153884,-0.03076 0.276639,-0.10789 0.36897,-0.230993 l 1.800407,-2.562118 c 0.09234,-0.1231 0.131159,-0.261594 0.115755,-0.415478 -0.0155,-0.153884 -0.08463,-0.284507 -0.20774,-0.392225 -0.938698,-0.723255 -1.923832,-1.269853 -2.954858,-1.639176 -1.015637,-0.384712 -2.17021,-0.576709 -3.462838,-0.576709 z m 10.202995,0.22996 c -0.169268,0 -0.307242,0.05404 -0.414962,0.161747 -0.09234,0.107737 -0.139009,0.238856 -0.139009,0.392741 v 15.788184 c 0,0.153884 0.04667,0.285021 0.139009,0.392741 0.107737,0.107712 0.245688,0.161747 0.414962,0.161747 h 3.439583 c 0.153883,0 0.285022,-0.05404 0.392741,-0.161747 0.107738,-0.107737 0.161231,-0.238856 0.161231,-0.392741 v -4.939234 c 0,-0.153883 0.04565,-0.285021 0.137976,-0.39274 0.107738,-0.107737 0.246723,-0.161231 0.415995,-0.161231 h 4.754749 c 0.153883,0 0.285021,0.05352 0.39274,0.161231 0.107713,0.107712 0.161231,0.238856 0.161231,0.39274 v 4.939234 c 0,0.153884 0.04565,0.285021 0.137976,0.392741 0.107712,0.107737 0.247237,0.161747 0.416512,0.161747 h 3.461804 c 0.1539,0 0.285023,-0.05404 0.392741,-0.161747 0.107737,-0.107737 0.161231,-0.238856 0.161231,-0.392741 V 47.351114 c 0,-0.153883 -0.05352,-0.285021 -0.161231,-0.392741 -0.107713,-0.107737 -0.238859,-0.161747 -0.392741,-0.161747 H 53.83754 c -0.169268,0 -0.308792,0.05404 -0.416512,0.161747 -0.09234,0.107737 -0.137976,0.238856 -0.137976,0.392741 v 5.470984 c 0,0.153884 -0.05352,0.283989 -0.161231,0.391707 -0.107736,0.107737 -0.238857,0.161231 -0.39274,0.161231 h -4.754749 c -0.169268,0 -0.308275,-0.05352 -0.415995,-0.161231 -0.09234,-0.107712 -0.137976,-0.237822 -0.137976,-0.391707 v -5.470984 c 0,-0.153883 -0.05352,-0.285021 -0.161231,-0.392741 -0.107712,-0.107737 -0.238857,-0.161747 -0.392741,-0.161747 z m 35.639168,0 c -0.153883,0 -0.283987,0.05404 -0.391707,0.161747 -0.107713,0.107737 -0.161231,0.238856 -0.161231,0.392741 v 15.788184 c 0,0.153884 0.05354,0.285021 0.161231,0.392741 0.107737,0.107712 0.237823,0.161747 0.391707,0.161747 h 3.439583 c 0.153884,0 0.285022,-0.05404 0.392741,-0.161747 0.107737,-0.107737 0.161747,-0.238856 0.161747,-0.392741 v -3.73879 c 0,-0.1539 0.05352,-0.285022 0.161231,-0.392741 0.107713,-0.107713 0.238856,-0.161747 0.392741,-0.161747 h 0.507979 c 0.153884,0 0.31545,0.04616 0.484725,0.138493 0.169266,0.07694 0.299376,0.17713 0.391707,0.30024 0.477043,0.67709 0.954396,1.346442 1.431437,2.008146 0.492429,0.661703 0.985,1.31584 1.47743,1.962154 0.09234,0.1231 0.223467,0.230648 0.392741,0.322978 0.18466,0.07694 0.35306,0.115755 0.506945,0.115755 h 4.294312 c 0.153883,0 0.253557,-0.06923 0.299723,-0.207739 0.04616,-0.153882 0.02258,-0.292889 -0.06976,-0.415996 -0.507817,-0.677091 -1.084846,-1.423552 -1.731161,-2.239139 -0.646314,-0.815589 -1.261638,-1.607693 -1.846398,-2.377116 -0.09234,-0.1231 -0.122781,-0.24638 -0.09198,-0.369487 0.04616,-0.1385 0.130622,-0.253901 0.253731,-0.346232 0.369323,-0.230825 0.700324,-0.51515 0.992704,-0.853695 0.292382,-0.353934 0.546274,-0.746314 0.761711,-1.177189 0.215438,-0.430876 0.377005,-0.884632 0.484725,-1.361674 0.123099,-0.492429 0.185001,-0.984995 0.185001,-1.477429 0,-0.892529 -0.154232,-1.708231 -0.461987,-2.446879 -0.29238,-0.738642 -0.707839,-1.377566 -1.246436,-1.916162 -0.523207,-0.538594 -1.162127,-0.953541 -1.916162,-1.245919 -0.754034,-0.307769 -1.576571,-0.462504 -2.4691,-0.462504 z m 16.574182,0 c -0.15388,0 -0.285021,0.05404 -0.392741,0.161747 -0.10774,0.107737 -0.161747,0.238856 -0.161747,0.392741 v 15.788184 c 0,0.153884 0.054,0.285021 0.161747,0.392741 0.10771,0.107712 0.238861,0.161747 0.392741,0.161747 h 11.748634 c 0.15388,0 0.28502,-0.05404 0.39274,-0.161747 0.10774,-0.107737 0.16123,-0.238856 0.16123,-0.392741 v -3.184819 c 0,-0.153883 -0.0535,-0.285022 -0.16123,-0.392741 -0.10771,-0.107737 -0.23886,-0.16123 -0.39274,-0.16123 h -7.17837 c -0.15388,0 -0.285021,-0.05404 -0.392741,-0.161747 -0.10773,-0.107737 -0.161748,-0.238856 -0.161748,-0.392741 v -0.876949 c 0,-0.153882 0.054,-0.285021 0.161748,-0.392741 0.10774,-0.107737 0.238861,-0.161231 0.392741,-0.161231 h 6.25543 c 0.15388,0 0.28451,-0.05404 0.39223,-0.161747 0.10774,-0.107712 0.16174,-0.238857 0.16174,-0.392741 v -3.184818 c 0,-0.153884 -0.054,-0.285021 -0.16174,-0.392741 -0.10774,-0.107713 -0.23835,-0.161231 -0.39223,-0.161231 h -6.25543 c -0.15388,0 -0.285021,-0.05405 -0.392741,-0.161747 -0.10773,-0.107738 -0.161748,-0.238857 -0.161748,-0.392741 V 51.5984 c 0,-0.153884 0.054,-0.285022 0.161748,-0.392741 0.10774,-0.107737 0.238861,-0.161747 0.392741,-0.161747 h 7.17837 c 0.15388,0 0.28502,-0.05354 0.39274,-0.16123 0.10774,-0.107737 0.16123,-0.238856 0.16123,-0.392741 v -3.138827 c 0,-0.153883 -0.0535,-0.285021 -0.16123,-0.392741 -0.10771,-0.107737 -0.23886,-0.161747 -0.39274,-0.161747 z m -28.599804,0.02377 c -0.169269,0 -0.330841,0.05354 -0.484725,0.161231 -0.138499,0.09234 -0.238171,0.208253 -0.299724,0.346749 l -6.694165,15.625919 c -0.06156,0.1231 -0.08465,0.23168 -0.06925,0.324011 0.0155,0.09234 0.05372,0.168922 0.115238,0.230477 0.04616,0.06156 0.115405,0.108247 0.20774,0.13901 0.07694,0.03076 0.154058,0.04599 0.230993,0.04599 h 3.970301 c 0.153883,0 0.300235,-0.0467 0.438732,-0.13901 0.153882,-0.107737 0.261423,-0.230991 0.322978,-0.369486 l 0.645956,-1.384412 c 0.06156,-0.1385 0.161223,-0.2539 0.299723,-0.346232 0.153884,-0.107712 0.316487,-0.161747 0.485758,-0.161747 h 4.869987 c 0.153882,0 0.300237,0.05404 0.438733,0.161747 0.1539,0.09234 0.269291,0.207735 0.346232,0.346232 l 0.622701,1.384412 c 0.07694,0.1385 0.185003,0.261766 0.323495,0.369486 0.153884,0.09234 0.314934,0.13901 0.484208,0.13901 h 3.948079 c 0.246214,0 0.407264,-0.0771 0.484208,-0.230994 0.09234,-0.153884 0.107569,-0.300238 0.04599,-0.438733 L 71.0339,47.328374 c -0.06156,-0.1385 -0.169093,-0.254421 -0.322978,-0.346749 -0.138499,-0.107737 -0.284851,-0.161231 -0.438732,-0.161231 z m 16.573665,4.223515 h 2.446879 c 0.323157,0 0.592264,0.06923 0.807702,0.207739 0.230826,0.1231 0.40761,0.285709 0.530717,0.485759 0.1385,0.184663 0.230819,0.384523 0.276986,0.599963 0.06156,0.20005 0.09302,0.376834 0.09302,0.530717 0,0.292382 -0.05404,0.546275 -0.161748,0.761711 -0.107712,0.21544 -0.246721,0.400088 -0.415995,0.553971 -0.169266,0.1385 -0.353922,0.246036 -0.553971,0.322978 -0.200052,0.06156 -0.392047,0.0925 -0.576709,0.0925 h -2.446879 c -0.153884,0 -0.285021,-0.05406 -0.392741,-0.161748 -0.107738,-0.107736 -0.161231,-0.238854 -0.161231,-0.39274 V 51.5984 c 0,-0.1539 0.05352,-0.285022 0.161231,-0.392741 0.107709,-0.107718 0.238856,-0.161747 0.392741,-0.161747 z m -14.980998,2.816882 c 0.07694,0 0.146184,0.06923 0.207739,0.20774 0.184663,0.446264 0.384525,0.930452 0.599964,1.453658 0.215437,0.507819 0.4006,0.953709 0.554488,1.338419 0.07694,0.1385 0.07694,0.262284 0,0.370004 -0.06156,0.09234 -0.16961,0.137976 -0.323495,0.137976 h -2.054138 c -0.169267,0 -0.284678,-0.04565 -0.346232,-0.137976 -0.06156,-0.107738 -0.06156,-0.231508 0,-0.370004 l 1.154452,-2.792077 c 0.06156,-0.1385 0.130283,-0.20774 0.207222,-0.20774 z m -31.34589,17.542082 c -1.200298,0 -2.331788,0.231329 -3.393591,0.692981 -1.061802,0.461653 -1.985044,1.092707 -2.769857,1.892908 -0.78481,0.784809 -1.408516,1.708053 -1.87017,2.769856 -0.461654,1.061801 -0.691947,2.192776 -0.691947,3.393075 0,1.200297 0.230293,2.330754 0.691947,3.392558 0.461654,1.0618 1.08536,1.993428 1.87017,2.793627 0.784813,0.78481 1.708055,1.408 2.769857,1.869654 1.061803,0.461651 2.193293,0.692464 3.393591,0.692464 1.2003,0 2.33179,-0.230813 3.393592,-0.692464 1.061801,-0.461654 1.984527,-1.084844 2.76934,-1.869654 0.800199,-0.800199 1.431253,-1.731827 1.892907,-2.793627 0.461653,-1.061804 0.691948,-2.192261 0.691948,-3.392558 0,-1.200299 -0.230295,-2.331274 -0.691948,-3.393075 -0.461654,-1.061803 -1.092708,-1.985047 -1.892907,-2.769856 -0.784813,-0.800201 -1.707539,-1.431255 -2.76934,-1.892908 -1.061802,-0.461652 -2.193292,-0.692981 -3.393592,-0.692981 z m 78.550241,0.02377 c -1.23108,0 -2.38513,0.230293 -3.46232,0.691947 -1.07719,0.461654 -2.02352,1.092194 -2.8391,1.892391 -0.8002,0.784813 -1.43912,1.709087 -1.91616,2.770891 -0.46165,1.061802 -0.69195,2.19226 -0.69195,3.392557 0,1.200299 0.2303,2.33179 0.69195,3.393592 0.47704,1.061802 1.11596,1.985045 1.91616,2.769856 0.81558,0.78481 1.76191,1.407999 2.8391,1.869654 1.07719,0.46165 2.23124,0.692464 3.46232,0.692464 1.12336,0 2.18457,-0.184648 3.18482,-0.553971 1.00025,-0.38471 1.88571,-0.90771 2.65514,-1.569414 0.78481,-0.661703 1.4227,-1.446978 1.91512,-2.354895 0.49243,-0.907919 0.793,-1.893057 0.90072,-2.954858 0.0461,-0.4001 0.0698,-0.784096 0.0698,-1.153418 0,-0.384712 -0.0154,-0.708365 -0.046,-0.969967 -0.0155,-0.169268 -0.0857,-0.299376 -0.20878,-0.391707 -0.10775,-0.107713 -0.23781,-0.161747 -0.3917,-0.161747 h -7.94112 c -0.15388,0 -0.28398,0.05404 -0.39171,0.161747 -0.10775,0.107737 -0.16123,0.23782 -0.16123,0.391707 v 2.74712 c 0,0.153882 0.0536,0.285022 0.16123,0.39274 0.10775,0.107738 0.23783,0.161231 0.39171,0.161231 h 2.65513 c 0.15389,0 0.26195,0.05405 0.3235,0.161747 0.0616,0.09234 0.0532,0.199871 -0.0238,0.322978 -0.33855,0.492428 -0.7923,0.845994 -1.36168,1.061434 -0.56936,0.215436 -1.1464,0.322977 -1.73116,0.322977 -0.58476,0 -1.13922,-0.114888 -1.66243,-0.345715 -0.50782,-0.246215 -0.95371,-0.562001 -1.33842,-0.946712 -0.38471,-0.400099 -0.69264,-0.861204 -0.92346,-1.384412 -0.21544,-0.523205 -0.32297,-1.077669 -0.32297,-1.662431 0,-0.569372 0.10752,-1.115971 0.32297,-1.639176 0.23082,-0.538595 0.53875,-1.007566 0.92346,-1.407666 0.38471,-0.400099 0.8306,-0.714853 1.33842,-0.945679 0.52321,-0.246214 1.07767,-0.370003 1.66243,-0.370003 0.81559,0 1.51536,0.177305 2.10013,0.531234 0.60015,0.353932 1.1394,0.823422 1.61644,1.408183 0.10775,0.123099 0.23784,0.199181 0.39171,0.22996 0.1539,0.0155 0.29288,-0.0151 0.41599,-0.09198 l 2.76986,-1.777153 c 0.12313,-0.07694 0.20022,-0.192349 0.23099,-0.346232 0.0461,-0.169267 0.0309,-0.315627 -0.046,-0.438733 -0.78481,-1.215688 -1.80876,-2.169358 -3.07061,-2.861841 -1.24646,-0.69248 -2.71578,-1.038696 -4.40852,-1.038696 z M 11.457182,71.703633 c -0.169274,0 -0.307759,0.05354 -0.415479,0.16123 -0.09233,0.107738 -0.137976,0.238853 -0.137976,0.392741 v 15.7887 c 0,0.153883 0.04565,0.283988 0.137976,0.391708 0.107725,0.107737 0.246205,0.16123 0.415479,0.16123 h 3.439583 c 0.153885,0 0.284505,-0.05354 0.392224,-0.16123 0.107725,-0.107737 0.161747,-0.237823 0.161747,-0.391708 v -4.940267 c 0,-0.153883 0.04565,-0.283987 0.137976,-0.391707 0.107725,-0.107738 0.246723,-0.161747 0.415996,-0.161747 h 4.754748 c 0.153885,0 0.284504,0.05404 0.392224,0.161747 0.107725,0.107737 0.161747,0.237821 0.161747,0.391707 v 4.940267 c 0,0.153883 0.04668,0.283988 0.13901,0.391708 0.107725,0.107737 0.24569,0.16123 0.414962,0.16123 h 3.463354 c 0.153885,0 0.283473,-0.05354 0.391191,-0.16123 0.107725,-0.107737 0.161747,-0.237823 0.161747,-0.391708 v -15.7887 c 0,-0.153884 -0.05402,-0.285022 -0.161747,-0.392741 -0.107725,-0.107712 -0.237307,-0.16123 -0.391191,-0.16123 h -3.463354 c -0.169274,0 -0.307243,0.05354 -0.414962,0.16123 -0.09233,0.107738 -0.13901,0.238853 -0.13901,0.392741 v 5.46995 c 0,0.153882 -0.05402,0.285021 -0.161747,0.392741 -0.107725,0.107738 -0.238339,0.161747 -0.392224,0.161747 h -4.754748 c -0.169272,0 -0.308278,-0.05405 -0.415996,-0.161747 -0.09232,-0.107737 -0.137976,-0.238856 -0.137976,-0.392741 v -5.46995 c 0,-0.153884 -0.05402,-0.285022 -0.161747,-0.392741 -0.107725,-0.107712 -0.238339,-0.16123 -0.392224,-0.16123 z m 37.4866,0 c -0.169266,0 -0.308276,0.05354 -0.415995,0.16123 -0.09234,0.107738 -0.137976,0.238853 -0.137976,0.392741 v 15.7887 c 0,0.153883 0.04563,0.283988 0.137976,0.391708 0.107713,0.107737 0.246724,0.16123 0.415995,0.16123 h 11.51816 c 0.1539,0 0.284504,-0.05354 0.392224,-0.16123 0.107712,-0.107737 0.161747,-0.237823 0.161747,-0.391708 v -3.13986 c 0,-0.153884 -0.05405,-0.285025 -0.161747,-0.392741 -0.107713,-0.107737 -0.238338,-0.161747 -0.392224,-0.161747 h -6.947896 c -0.169266,0 -0.308278,-0.05352 -0.415996,-0.16123 -0.09234,-0.107737 -0.137976,-0.237823 -0.137976,-0.391708 V 72.257604 c 0,-0.153882 -0.05404,-0.285022 -0.161747,-0.392741 -0.107712,-0.107737 -0.23834,-0.16123 -0.392224,-0.16123 z m 14.265279,0 c -0.153884,0 -0.285021,0.05354 -0.392741,0.16123 -0.107713,0.107738 -0.16123,0.238853 -0.16123,0.392741 v 15.7887 c 0,0.153883 0.05352,0.283988 0.16123,0.391708 0.107737,0.107737 0.238856,0.16123 0.392741,0.16123 h 6.301424 c 1.200296,0 2.292976,-0.176787 3.277836,-0.530717 1.000249,-0.353936 1.88468,-0.876931 2.654102,-1.569413 0.830977,-0.769421 1.462032,-1.685317 1.892907,-2.747119 0.430879,-1.07719 0.645956,-2.276891 0.645956,-3.600297 0,-1.323406 -0.215077,-2.516274 -0.645956,-3.578076 -0.430875,-1.061784 -1.06193,-1.977179 -1.892907,-2.746603 -1.538844,-1.415723 -3.515954,-2.123384 -5.931938,-2.123384 z m 25.73693,0 c -0.153883,0 -0.285021,0.05354 -0.392741,0.16123 -0.107737,0.107738 -0.16123,0.238853 -0.16123,0.392741 v 15.7887 c 0,0.153883 0.05352,0.283988 0.16123,0.391708 0.107738,0.107737 0.238856,0.16123 0.392741,0.16123 h 3.439583 c 0.153884,0 0.285021,-0.05354 0.392741,-0.16123 0.107737,-0.107737 0.161231,-0.237823 0.161231,-0.391708 v -8.264611 c 0,-0.153884 0.04565,-0.237827 0.137976,-0.253215 0.107712,-0.03076 0.208427,0.01585 0.300756,0.13901 l 6.024439,8.4708 c 0.0923,0.1231 0.222954,0.230646 0.392224,0.322978 0.16927,0.09234 0.330839,0.137976 0.484729,0.137976 h 3.41632 c 0.15388,0 0.28451,-0.05352 0.39223,-0.16123 0.10771,-0.107738 0.16175,-0.237821 0.16175,-0.391708 v -15.7887 c 0,-0.153882 -0.054,-0.285022 -0.16175,-0.392741 -0.10774,-0.107712 -0.23835,-0.16123 -0.39223,-0.16123 h -3.41632 c -0.15388,0 -0.284508,0.05354 -0.392228,0.16123 -0.10774,0.107738 -0.161747,0.238856 -0.161747,0.392741 v 8.263578 c 0,0.153883 -0.05402,0.237825 -0.161748,0.253215 -0.0923,0.0155 -0.184655,-0.03812 -0.276985,-0.161231 l -6.001701,-8.471317 c -0.09234,-0.1231 -0.223468,-0.223298 -0.392741,-0.30024 -0.169269,-0.09234 -0.330323,-0.137976 -0.484208,-0.137976 z m -7.686869,0.02222 c -0.169267,0 -0.307243,0.05404 -0.414962,0.161747 -0.09234,0.107738 -0.13901,0.238859 -0.13901,0.392741 v 15.765962 c 0,0.153883 0.0467,0.283988 0.13901,0.391708 0.107738,0.107736 0.24569,0.16123 0.414962,0.16123 h 3.485575 c 0.153884,0 0.285025,-0.05352 0.392741,-0.16123 0.107737,-0.107738 0.161747,-0.237823 0.161747,-0.391708 V 72.280342 c 0,-0.153882 -0.05404,-0.285022 -0.161747,-0.392741 -0.107738,-0.107737 -0.238857,-0.161747 -0.392741,-0.161747 z m -43.971993,4.086055 c 0.569375,0 1.107586,0.123794 1.615406,0.370003 0.507819,0.230827 0.954743,0.545579 1.339453,0.945679 0.384711,0.38471 0.684249,0.846851 0.899686,1.385445 0.215438,0.523209 0.322978,1.069288 0.322978,1.63866 0,0.584759 -0.10753,1.138706 -0.322978,1.661914 -0.215437,0.523207 -0.514975,0.985343 -0.899686,1.385445 -0.38471,0.4001 -0.831634,0.72272 -1.339453,0.968933 -0.50782,0.230827 -1.046031,0.345715 -1.615406,0.345715 -0.569372,0 -1.107586,-0.114886 -1.615405,-0.345715 -0.507816,-0.246213 -0.954742,-0.568833 -1.339453,-0.968933 -0.369324,-0.400102 -0.662027,-0.862238 -0.877466,-1.385445 -0.215438,-0.523208 -0.322978,-1.077155 -0.322978,-1.661914 0,-0.569372 0.107532,-1.115451 0.322978,-1.63866 0.215439,-0.538594 0.508142,-1.000735 0.877466,-1.385445 0.384711,-0.4001 0.831637,-0.714852 1.339453,-0.945679 0.507819,-0.246214 1.046033,-0.370003 1.615405,-0.370003 z m 30.492196,0.185002 h 1.73116 c 0.430876,0 0.869417,0.05352 1.315682,0.16123 0.461654,0.107738 0.877111,0.315966 1.246435,0.623735 0.38471,0.292379 0.692631,0.715189 0.923458,1.269173 0.246215,0.538595 0.36897,1.246244 0.36897,2.123384 0,0.877143 -0.12275,1.593171 -0.36897,2.147156 -0.230827,0.538595 -0.531398,0.960889 -0.90072,1.268657 -0.369324,0.292381 -0.784781,0.49276 -1.246435,0.60048 -0.461654,0.107737 -0.907544,0.16123 -1.33842,0.16123 h -1.73116 c -0.153883,0 -0.285023,-0.05354 -0.392741,-0.16123 -0.107713,-0.107738 -0.161231,-0.237823 -0.161231,-0.391708 v -7.248136 c 0,-0.153883 0.05352,-0.285021 0.161231,-0.392741 0.107737,-0.107737 0.238856,-0.16123 0.392741,-0.16123 z" style="color:#000;-inkscape-font-specification:Aptly;display:inline;fill:#fff;stroke-linecap:round;stroke-miterlimit:128;-inkscape-stroke:none;paint-order:stroke fill markers"/></svg>