<svg xmlns="http://www.w3.org/2000/svg" xml:space="preserve" width="512" height="512" viewBox="0 0 135.46666 135.46667"><path d="M 135.46666,0 H 123.49426 67.733328 L 95.613796,27.880468 0,123.49427 v 11.97239 h 11.97239 l 95.6138,-95.613796 27.88047,27.880468 V 11.972396 Z" style="fill:#c3a822;fill-opacity:1;stroke:none;stroke-width:33.8667;stroke-miterlimit:128;stroke-dasharray:none;stroke-opacity:1;paint-order:stroke fill markers"/><path d="m 33.027441,57.150516 c -1.413912,0 -2.84521,0.285596 -4.150651,0.853178 -0.730509,0.317613 -1.322224,0.875316 -1.968355,1.349788 -0.83536,-0.574314 -1.69761,-1.118645 -2.652552,-1.465026 -1.283658,-0.481121 -2.631117,-0.689367 -3.978568,-0.689364 -0.843855,0 -1.683475,0.101161 -2.50579,0.275435 -1.04469,0.208996 -2.074773,0.611598 -2.986381,1.195276 -1.031247,0.656266 -1.892536,1.577921 -2.493905,2.580204 -0.792936,1.321555 -1.056783,2.765675 -1.056783,4.088123 0,0.944618 0.137556,1.946637 0.536918,2.94504 0.01883,0.04599 0.03847,0.09164 0.05891,0.136942 0.07167,0.162459 0.218416,0.293136 0.302308,0.452686 l -0.243913,0.351916 0.09198,-0.127124 c -0.695483,0.927208 -1.000384,2.268877 -0.912089,3.240113 0.0012,0.01241 0.0024,0.02481 0.0036,0.03721 0.112883,1.136006 0.891721,2.514806 1.802991,3.211173 0.417778,0.335304 0.850214,0.655626 1.308447,0.947229 0.04193,0.02606 0.08431,0.05139 0.127124,0.07596 0.590453,0.347327 1.209828,0.642807 1.8495,0.888835 0.697097,0.268114 1.416266,0.457518 2.146122,0.589628 0.79362,0.154977 1.598331,0.22841 2.406571,0.22841 1.001561,0 1.993475,-0.09931 2.970878,-0.343648 0.0176,-0.0044 0.03517,-0.0088 0.05271,-0.01344 1.022465,-0.270083 2.045221,-0.725789 2.956926,-1.41025 0.126026,-0.09364 0.180377,-0.258695 0.300757,-0.361218 0.621605,0.442966 1.186726,0.972832 1.882572,1.275374 1.305436,0.567578 2.736736,0.853178 4.150651,0.853178 1.413916,0 2.844387,-0.285465 4.150134,-0.853178 1.185985,-0.515645 2.276966,-1.265427 3.209107,-2.174027 0.04051,0.08934 0.08412,0.17724 0.130741,0.263549 0.354056,0.637416 0.84312,1.170136 1.337903,1.554944 0.134154,0.104113 0.274451,0.20006 0.420129,0.287321 0.647031,0.388202 1.556687,0.704867 2.513542,0.704867 h 2.228804 c 0.956816,0 1.962938,-0.343644 2.665987,-0.812354 0.02691,-0.01795 0.05361,-0.03621 0.0801,-0.05478 0.352383,-0.246657 0.667407,-0.693813 0.993738,-1.09554 0.136618,0.197084 0.230193,0.448261 0.387056,0.605131 0.789652,0.789653 2.178624,1.35754 3.279387,1.35754 h 8.527128 c 0.462454,0 0.976434,-0.147874 1.474328,-0.322461 0.497977,0.174609 1.012572,0.322461 1.474845,0.322461 h 2.495972 c 0.690525,0 1.444814,-0.269744 2.142505,-0.63097 0.01125,0.0062 0.02395,0.02336 0.03514,0.02946 0.130063,0.07069 0.263744,0.134514 0.400492,0.191203 0.516751,0.215313 1.177101,0.410311 1.996261,0.410311 h 3.115055 c 0.20662,0 0.513423,-0.196588 0.761711,-0.236162 0.367806,0.09767 0.74291,0.236162 1.082104,0.236162 h 8.527645 c 0.46966,0 0.992323,-0.146353 1.497583,-0.326079 0.542614,0.196479 1.098784,0.326079 1.56838,0.326079 h 2.531628 c 1.094355,0 2.465855,-0.564215 3.257682,-1.345655 0.379009,0.217356 0.68737,0.547211 1.087789,0.71882 1.318819,0.565205 2.758972,0.843359 4.181654,0.843359 1.27943,0 2.57007,-0.217622 3.7791,-0.664042 0.0176,-0.0063 0.0352,-0.01263 0.0527,-0.01912 0.5206,-0.200227 0.95254,-0.577737 1.43971,-0.855762 0.79638,0.767572 2.1416,1.3224 3.22254,1.3224 h 2.49804 c 0.93735,0 2.01708,-0.45856 2.82411,-1.068152 0.17972,0.127252 0.35408,0.357608 0.52555,0.451135 v -0.0021 c 0.59701,0.325698 1.42228,0.619084 2.37919,0.619084 h 2.48046 c 1.10073,0 2.48833,-0.568606 3.27732,-1.35754 l 0.002,-0.0021 c 0.78774,-0.78875 1.35548,-2.175183 1.35548,-3.27732 V 62.003967 c 0,-1.102089 -0.56744,-2.488382 -1.35548,-3.27732 -0.79498,-0.795907 -2.18432,-1.359606 -3.27887,-1.359607 h -2.48046 c -0.94154,0 -2.04075,0.464599 -2.85151,1.086239 -0.22123,-0.152691 -0.42343,-0.403533 -0.63717,-0.507979 -0.58543,-0.299366 -1.32926,-0.578259 -2.22415,-0.57826 h -2.51406 c -1.01648,10e-7 -2.2488,0.514027 -3.06028,1.219047 -0.0682,-0.03957 -0.12272,-0.101082 -0.19172,-0.139009 -1.61266,-0.892514 -3.44108,-1.281059 -5.24206,-1.281059 -1.422679,0 -2.86283,0.280734 -4.181654,0.845943 -0.399736,0.171317 -0.704087,0.50455 -1.082104,0.722437 C 94.526867,57.95015 93.150795,57.38461 92.054845,57.38461 h -2.531628 c -0.456274,0 -0.99601,0.131095 -1.523422,0.316777 C 87.479867,57.511699 86.93853,57.36704 86.457254,57.36704 h -8.527645 c -0.930019,10e-7 -2.010474,0.455315 -2.819983,1.064535 -0.228519,-0.114938 -0.408721,-0.329619 -0.642854,-0.42168 -1.078778,-0.434399 -2.234164,-0.642855 -3.355351,-0.642855 h -5.211052 c -0.460499,10e-7 -0.975379,0.145571 -1.474328,0.320394 -0.498892,-0.174802 -1.014218,-0.320394 -1.474845,-0.320394 h -8.527128 c -0.371766,10e-7 -0.786523,0.142904 -1.191659,0.259933 -0.274581,-0.06892 -0.582924,-0.259932 -0.820105,-0.259933 h -2.781226 c -1.077249,10e-7 -2.061955,0.416761 -2.720764,0.869198 -0.392382,0.268322 -0.69882,0.701274 -1.021643,1.105359 C 45.539843,58.917503 45.198067,58.478589 44.798815,58.218668 44.09665,57.754061 43.147761,57.36704 42.17572,57.36704 h -2.732133 c -0.548591,10e-7 -1.384986,0.254693 -2.178162,0.697632 -0.03254,-0.01453 -0.05519,-0.04678 -0.08785,-0.06098 -1.305752,-0.567717 -2.736221,-0.853178 -4.150134,-0.853178 z m 2.431376,2.544548 c -0.03576,0.06437 -0.02102,0.153838 -0.05271,0.221175 -0.02473,0.04835 -0.09322,0.06726 -0.115238,0.116788 z M 14.925704,73.213101 c 0.0211,0.0095 0.03927,0.02446 0.05891,0.03669 z m 92.656356,2.538863 -0.0331,0.02739 c 0.005,-0.0042 0.007,-0.01128 0.0114,-0.0155 0.006,-0.0053 0.0154,-0.0066 0.0217,-0.01189 z" style="color:#000;-inkscape-font-specification:Heavitas;fill:#c3a822;stroke-linecap:round;stroke-linejoin:round;stroke-miterlimit:128;-inkscape-stroke:none;paint-order:stroke fill markers"/><path d="m 33.027,61.383333 c -0.871243,0 -1.692022,0.167527 -2.462738,0.502621 -0.770718,0.335094 -1.44108,0.79307 -2.010741,1.3739 -0.569659,0.569659 -1.02193,1.239766 -1.357024,2.010482 -0.335094,0.770718 -0.502622,1.591752 -0.502622,2.462997 0,0.871245 0.167528,1.692278 0.502622,2.462995 0.335094,0.770718 0.787365,1.446271 1.357024,2.027101 0.569661,0.569661 1.240023,1.022187 2.010741,1.357281 0.770716,0.335093 1.591495,0.502621 2.462738,0.502621 0.871246,0 1.69228,-0.167528 2.462997,-0.502621 0.770716,-0.335094 1.441079,-0.78762 2.010739,-1.357281 0.58083,-0.58083 1.038804,-1.256383 1.373899,-2.027101 0.335094,-0.770717 0.50262,-1.59175 0.50262,-2.462995 0,-0.871245 -0.167526,-1.692279 -0.50262,-2.462997 -0.335095,-0.770716 -0.793069,-1.440823 -1.373899,-2.010482 -0.56966,-0.58083 -1.240023,-1.038806 -2.010739,-1.3739 C 34.71928,61.55086 33.898246,61.383333 33.027,61.383333 Z m 67.55522,0.01662 c -0.893593,0 -1.731483,0.167526 -2.513373,0.502621 -0.78188,0.335094 -1.46884,0.793068 -2.06084,1.373898 -0.58083,0.569661 -1.04426,1.240023 -1.39052,2.010739 -0.33509,0.770717 -0.50262,1.591495 -0.50262,2.46274 0,0.871245 0.16753,1.69228 0.50262,2.462997 0.34626,0.770716 0.80969,1.440823 1.39052,2.010482 0.592,0.569661 1.27896,1.022187 2.06084,1.357281 0.78189,0.335094 1.61978,0.502621 2.513373,0.502621 0.81539,0 1.58612,-0.13407 2.31215,-0.402148 0.72604,-0.279244 1.36814,-0.658903 1.92663,-1.139205 0.56966,-0.480301 1.03334,-1.050046 1.39077,-1.709065 0.35744,-0.659019 0.57527,-1.373986 0.65346,-2.144703 0.0335,-0.290414 0.0501,-0.569455 0.0501,-0.83753 0,-0.279246 -0.0111,-0.513936 -0.0335,-0.703823 -0.0111,-0.122865 -0.0612,-0.217783 -0.15058,-0.284802 -0.0782,-0.07819 -0.17336,-0.117345 -0.28506,-0.117345 h -5.76352 c -0.1117,0 -0.20661,0.03916 -0.2848,0.117345 -0.0782,0.07819 -0.11734,0.173103 -0.11734,0.284802 v 1.993866 c 0,0.111705 0.0392,0.206613 0.11734,0.2848 0.0782,0.07819 0.1731,0.117345 0.2848,0.117345 h 1.92689 c 0.11169,0 0.18975,0.03889 0.23443,0.11709 0.0447,0.06702 0.0392,0.145335 -0.0166,0.234693 -0.24573,0.357434 -0.57534,0.614427 -0.98862,0.770804 -0.41329,0.156378 -0.8321,0.234438 -1.25655,0.234438 -0.42446,0 -0.826673,-0.08376 -1.206453,-0.25131 -0.3686,-0.178718 -0.6925,-0.407705 -0.97175,-0.686951 -0.27924,-0.290415 -0.50253,-0.625468 -0.67007,-1.005241 -0.15638,-0.379773 -0.2347,-0.78199 -0.2347,-1.206444 0,-0.413283 0.0783,-0.809796 0.2347,-1.18957 0.16754,-0.390942 0.39083,-0.731443 0.67007,-1.021858 0.27925,-0.290415 0.60315,-0.519402 0.97175,-0.686951 0.37978,-0.178716 0.781993,-0.268183 1.206453,-0.268183 0.592,0 1.10028,0.12837 1.52473,0.385275 0.43562,0.256905 0.82644,0.597661 1.1727,1.022115 0.0782,0.08935 0.1731,0.145109 0.2848,0.167455 0.1117,0.0111 0.21232,-0.0111 0.30168,-0.06697 l 2.01048,-1.290043 c 0.0894,-0.05584 0.14536,-0.139605 0.16771,-0.25131 0.0335,-0.122865 0.0221,-0.228935 -0.0337,-0.318293 -0.56966,-0.882415 -1.31238,-1.57508 -2.22831,-2.077721 -0.90475,-0.502641 -1.97137,-0.753932 -3.20005,-0.753932 z m -80.30558,0.03349 c -0.536151,0 -1.089041,0.06146 -1.6587,0.184327 -0.569661,0.111705 -1.088839,0.318383 -1.557972,0.619968 -0.457962,0.290415 -0.837877,0.68693 -1.139461,1.189571 -0.301585,0.50264 -0.452257,1.139293 -0.452257,1.910009 0,0.524982 0.07806,0.982956 0.234438,1.373899 0.167547,0.379773 0.385383,0.709379 0.653458,0.988625 0.268075,0.279244 0.569674,0.508233 0.904768,0.686949 0.346265,0.178717 0.692469,0.329389 1.038734,0.452255 0.346262,0.111705 0.681316,0.201165 1.005241,0.268185 0.335094,0.05584 0.625542,0.106155 0.871278,0.150837 0.256905,0.05585 0.508195,0.100455 0.753931,0.133965 0.245736,0.03351 0.458124,0.07812 0.63684,0.133965 0.189886,0.05585 0.340558,0.12846 0.452257,0.21782 0.111705,0.0782 0.167711,0.189958 0.167711,0.335166 0,0.279244 -0.128625,0.491377 -0.38553,0.636585 -0.256907,0.13404 -0.631118,0.201201 -1.122588,0.201201 -0.513811,0 -1.066701,-0.111765 -1.658701,-0.335166 -0.591999,-0.223397 -1.189494,-0.530699 -1.792663,-0.921642 -0.08935,-0.05585 -0.189978,-0.07245 -0.301676,-0.05012 -0.111705,0.02234 -0.20091,0.07809 -0.267928,0.167455 l -1.290298,1.859902 c -0.06702,0.08935 -0.09477,0.195425 -0.0836,0.318293 0.0111,0.111705 0.06148,0.20091 0.150837,0.267928 0.312754,0.256905 0.653256,0.502748 1.021859,0.737313 0.379773,0.223397 0.787439,0.418929 1.223061,0.586476 0.435623,0.167547 0.904749,0.295917 1.40739,0.385275 0.502641,0.10053 1.044379,0.150837 1.625209,0.150837 0.714867,0 1.362927,-0.07262 1.943757,-0.21782 0.592,-0.156376 1.094579,-0.391067 1.507862,-0.703822 0.424454,-0.312754 0.753803,-0.709269 0.98837,-1.18957 0.234565,-0.491471 0.352038,-1.072111 0.352038,-1.742299 0,-0.714869 -0.14523,-1.306916 -0.435639,-1.776046 -0.279245,-0.480302 -0.631154,-0.865665 -1.055606,-1.15608 -0.413282,-0.301584 -0.860105,-0.525125 -1.340407,-0.670332 -0.480303,-0.156377 -0.921421,-0.273594 -1.323535,-0.351783 -0.0782,-0.0111 -0.256866,-0.03918 -0.536112,-0.08385 -0.279244,-0.05585 -0.569692,-0.128205 -0.871278,-0.217564 -0.301584,-0.08935 -0.56973,-0.195681 -0.804295,-0.318549 -0.234566,-0.122865 -0.351783,-0.262388 -0.351783,-0.418766 0,-0.156376 0.04461,-0.279298 0.133965,-0.368656 0.10053,-0.08935 0.22345,-0.150819 0.368658,-0.184328 0.145215,-0.04469 0.295878,-0.06697 0.452256,-0.06697 0.167547,-0.0111 0.312771,-0.01662 0.435639,-0.01662 0.413283,0 0.865809,0.07806 1.35728,0.234438 0.491472,0.1452 1.022058,0.396497 1.591719,0.753932 0.08935,0.06702 0.18972,0.08933 0.301419,0.06697 0.111705,-0.02233 0.201165,-0.07809 0.268183,-0.167456 l 1.306917,-1.8599 c 0.06702,-0.08935 0.09477,-0.189722 0.08359,-0.301419 -0.0111,-0.111705 -0.06123,-0.206613 -0.150582,-0.284802 -0.681358,-0.524981 -1.396325,-0.921495 -2.144702,-1.189571 -0.737208,-0.279246 -1.575098,-0.419022 -2.513362,-0.41902 z m 19.167597,0.16771 c -0.145215,0 -0.240123,0.05005 -0.284802,0.150582 -0.05585,0.10053 -0.05585,0.212298 0,0.335166 l 5.0597,11.409954 c 0.05584,0.10053 0.13416,0.189995 0.234693,0.268183 0.111705,0.06702 0.223467,0.10047 0.335166,0.10047 h 2.228302 c 0.111705,0 0.217766,-0.03345 0.318294,-0.10047 0.111705,-0.07819 0.195461,-0.167655 0.25131,-0.268183 l 5.110319,-11.476936 c 0.04469,-0.08935 0.03897,-0.178826 -0.01687,-0.268184 -0.05585,-0.10053 -0.145065,-0.150582 -0.267928,-0.150582 h -2.781288 c -0.111705,0 -0.223467,0.03889 -0.335166,0.11709 -0.10053,0.06702 -0.178843,0.150782 -0.234693,0.25131 l -2.931869,6.735528 c -0.05584,0.10053 -0.12846,0.150839 -0.217819,0.150839 -0.08935,0 -0.16197,-0.05031 -0.21782,-0.150839 l -2.949003,-6.735523 c -0.05584,-0.10053 -0.13962,-0.184291 -0.251311,-0.25131 -0.10053,-0.0782 -0.206594,-0.11709 -0.318293,-0.11709 z m 14.978664,0 c -0.11169,0 -0.206613,0.03889 -0.2848,0.11709 -0.07819,0.0782 -0.117345,0.173103 -0.117345,0.284801 v 11.460324 c 0,0.11169 0.03916,0.206612 0.117345,0.284801 0.0782,0.0782 0.173103,0.117345 0.2848,0.117345 h 8.528193 c 0.11169,0 0.206613,-0.03916 0.284802,-0.117345 0.0782,-0.07819 0.117345,-0.173104 0.117345,-0.284801 v -2.312159 c 0,-0.111704 -0.03916,-0.206612 -0.117345,-0.284801 -0.07819,-0.07819 -0.173104,-0.117345 -0.284802,-0.117345 h -5.210792 c -0.111705,0 -0.206613,-0.03889 -0.284802,-0.11709 -0.0782,-0.07819 -0.117345,-0.173358 -0.117345,-0.285057 v -0.636585 c 0,-0.111705 0.03916,-0.206613 0.117345,-0.284802 0.07819,-0.0782 0.173103,-0.117345 0.284802,-0.117345 h 4.54046 c 0.111705,0 0.206613,-0.03916 0.284802,-0.117345 0.0782,-0.0782 0.117345,-0.173105 0.117345,-0.284802 v -2.312158 c 0,-0.111705 -0.03916,-0.206613 -0.117345,-0.284802 -0.07819,-0.07819 -0.173103,-0.117345 -0.284802,-0.117345 h -4.54046 c -0.111705,0 -0.206613,-0.0389 -0.284802,-0.11709 -0.0782,-0.0782 -0.117345,-0.173104 -0.117345,-0.284802 v -0.703822 c 0,-0.111705 0.03916,-0.206613 0.117345,-0.284802 0.07819,-0.0782 0.173103,-0.117345 0.284802,-0.117345 h 5.210792 c 0.11169,0 0.206613,-0.03916 0.284802,-0.117345 0.0782,-0.0782 0.117345,-0.173103 0.117345,-0.284802 v -2.278678 c 0,-0.111705 -0.03916,-0.206613 -0.117345,-0.284802 -0.07819,-0.07819 -0.173104,-0.11709 -0.284802,-0.11709 z m 11.476936,0 c -0.111705,0 -0.206613,0.03889 -0.2848,0.11709 -0.0782,0.0782 -0.117345,0.173103 -0.117345,0.284801 v 11.460324 c 0,0.11169 0.03916,0.206612 0.117345,0.284801 0.07818,0.0782 0.173103,0.117345 0.2848,0.117345 h 2.496487 c 0.111705,0 0.206613,-0.03916 0.284802,-0.117345 0.07818,-0.07819 0.117345,-0.173104 0.117345,-0.284801 v -2.714307 c 0,-0.111705 0.03917,-0.206613 0.117345,-0.284802 0.0782,-0.0782 0.173104,-0.117345 0.284802,-0.117345 h 0.368658 c 0.11169,0 0.228915,0.0337 0.351783,0.100725 0.122865,0.05585 0.217782,0.12846 0.284802,0.21782 0.346263,0.491471 0.692467,0.977195 1.038731,1.457498 0.357434,0.480302 0.714791,0.955131 1.072224,1.424262 0.06702,0.08935 0.162189,0.167419 0.285057,0.234438 0.13404,0.05585 0.256704,0.08385 0.368402,0.08385 h 3.116455 c 0.111704,0 0.184309,-0.05031 0.217817,-0.150837 0.03351,-0.11169 0.01665,-0.212061 -0.05037,-0.301419 -0.368603,-0.491472 -0.78742,-1.033209 -1.256551,-1.625209 -0.469132,-0.592001 -0.915955,-1.167447 -1.340409,-1.725937 -0.06702,-0.08935 -0.08932,-0.178571 -0.06697,-0.267929 0.03351,-0.10053 0.09496,-0.184291 0.184327,-0.25131 0.268075,-0.167547 0.508215,-0.374232 0.720441,-0.619968 0.212226,-0.256905 0.396607,-0.541649 0.552985,-0.854404 0.156377,-0.312754 0.273594,-0.64236 0.351783,-0.988624 0.08935,-0.357434 0.133965,-0.714791 0.133965,-1.072224 0,-0.647848 -0.11151,-1.239895 -0.334909,-1.776046 -0.212226,-0.536151 -0.513825,-0.999828 -0.904769,-1.390771 -0.379773,-0.390944 -0.843451,-0.692543 -1.390772,-0.90477 -0.54732,-0.223397 -1.144815,-0.33491 -1.792663,-0.33491 z m 12.029921,0 c -0.11169,0 -0.206611,0.03889 -0.2848,0.11709 -0.0782,0.0782 -0.117345,0.173103 -0.117345,0.284801 v 11.460324 c 0,0.11169 0.03915,0.206612 0.117345,0.284801 0.07819,0.0782 0.173103,0.117345 0.2848,0.117345 h 8.528189 c 0.11171,0 0.20662,-0.03916 0.28481,-0.117345 0.0782,-0.07819 0.11734,-0.173104 0.11734,-0.284801 v -2.312159 c 0,-0.111704 -0.0392,-0.206612 -0.11734,-0.284801 -0.0782,-0.07819 -0.17311,-0.117345 -0.28481,-0.117345 h -5.210788 c -0.111705,0 -0.206613,-0.03889 -0.284802,-0.11709 -0.07819,-0.07819 -0.117345,-0.173358 -0.117345,-0.285057 v -0.636585 c 0,-0.111705 0.03916,-0.206612 0.117345,-0.284801 0.0782,-0.07819 0.173103,-0.117345 0.284802,-0.117345 h 4.540458 c 0.11171,0 0.20687,-0.03916 0.28506,-0.117345 0.0782,-0.07819 0.11709,-0.173103 0.11709,-0.284802 V 66.59388 c 0,-0.111705 -0.0389,-0.206613 -0.11709,-0.284802 -0.0782,-0.0782 -0.17336,-0.117345 -0.28506,-0.117345 h -4.540458 c -0.111705,0 -0.206613,-0.0389 -0.284802,-0.117089 -0.07819,-0.07819 -0.117345,-0.173103 -0.117345,-0.284802 V 65.08601 c 0,-0.111705 0.03916,-0.206613 0.117345,-0.2848 0.0782,-0.0782 0.173103,-0.117345 0.284802,-0.117345 h 5.210788 c 0.11171,0 0.20662,-0.03916 0.28481,-0.117345 0.0782,-0.0782 0.11734,-0.173105 0.11734,-0.284802 V 62.00305 c 0,-0.111705 -0.0392,-0.206613 -0.11734,-0.2848 -0.0782,-0.0782 -0.17311,-0.11709 -0.28481,-0.11709 z m 31.147162,0 c -0.11171,0 -0.20662,0.03889 -0.28481,0.11709 -0.0782,0.0782 -0.11734,0.173103 -0.11734,0.284801 v 11.460324 c 0,0.11169 0.0392,0.206612 0.11734,0.284801 0.0782,0.0782 0.17311,0.117345 0.28481,0.117345 h 2.49648 c 0.1117,0 0.20662,-0.03916 0.2848,-0.117345 0.0782,-0.07819 0.11709,-0.173104 0.11709,-0.284801 v -5.998217 c 0,-0.111705 0.0337,-0.17316 0.10073,-0.184329 0.0782,-0.02234 0.1508,0.0114 0.21782,0.100725 l 4.373,6.148796 c 0.0671,0.08936 0.16194,0.167674 0.28481,0.234692 0.12285,0.06702 0.24009,0.10047 0.35178,0.10047 h 2.47962 c 0.11175,0 0.20661,-0.03916 0.2848,-0.117345 0.0781,-0.0782 0.1173,-0.173102 0.1173,-0.284801 V 62.003046 c 0,-0.111705 -0.0392,-0.206613 -0.1173,-0.284802 -0.0781,-0.07819 -0.1731,-0.11709 -0.2848,-0.11709 h -2.47962 c -0.11175,0 -0.20661,0.0389 -0.28479,0.11709 -0.0782,0.0782 -0.1173,0.173103 -0.1173,0.284802 v 5.998214 c 0,0.111705 -0.0392,0.17316 -0.1173,0.184329 -0.0671,0.0111 -0.13395,-0.02773 -0.20096,-0.11709 l -4.35638,-6.149053 c -0.067,-0.08935 -0.16194,-0.161971 -0.28481,-0.217819 -0.12286,-0.06702 -0.24008,-0.10047 -0.35178,-0.10047 z m -19.552883,0.01662 c -0.12286,0 -0.22348,0.03917 -0.30167,0.117345 -0.067,0.0782 -0.10047,0.173103 -0.10047,0.284801 v 11.443445 c 0,0.111705 0.0334,0.206613 0.10047,0.284802 0.0782,0.07819 0.17881,0.117345 0.30167,0.117345 h 2.52998 c 0.11171,0 0.20661,-0.03917 0.2848,-0.117345 0.0782,-0.0782 0.11735,-0.173103 0.11735,-0.284802 V 62.019922 c 0,-0.111705 -0.0392,-0.206613 -0.11735,-0.284802 -0.0782,-0.0782 -0.1731,-0.117345 -0.2848,-0.117345 z M 33.027,64.58339 c 0.413283,0 0.804349,0.08946 1.172953,0.268183 0.368604,0.167547 0.692507,0.396534 0.971751,0.686949 0.279246,0.279246 0.497081,0.614299 0.653459,1.005243 0.156378,0.379773 0.234436,0.776287 0.234436,1.189569 0,0.424453 -0.07806,0.826414 -0.234436,1.206188 -0.156378,0.379773 -0.374213,0.715082 -0.653459,1.005498 -0.279244,0.290415 -0.603147,0.52485 -0.971751,0.703566 -0.368604,0.167549 -0.75967,0.251312 -1.172953,0.251312 -0.413281,0 -0.804093,-0.08376 -1.172697,-0.251312 -0.368602,-0.178716 -0.692505,-0.413151 -0.97175,-0.703566 -0.268074,-0.290416 -0.480462,-0.625725 -0.63684,-1.005498 -0.156378,-0.379774 -0.234437,-0.781735 -0.234437,-1.206188 0,-0.413282 0.07806,-0.809796 0.234437,-1.189569 0.156378,-0.390944 0.368766,-0.725997 0.63684,-1.005243 0.279245,-0.290415 0.603148,-0.519402 0.97175,-0.686949 0.368604,-0.178717 0.759416,-0.268183 1.172697,-0.268183 z m 36.173619,0.10047 h 1.776047 c 0.234566,0 0.429844,0.05031 0.58622,0.150837 0.167547,0.08935 0.296172,0.206575 0.38553,0.351783 0.10053,0.13404 0.167438,0.279262 0.200946,0.435639 0.04469,0.1452 0.06697,0.273832 0.06697,0.38553 0,0.212227 -0.03916,0.396352 -0.117345,0.55273 -0.07819,0.156378 -0.178551,0.290449 -0.301419,0.402148 -0.122865,0.10053 -0.256939,0.178844 -0.402148,0.234693 -0.145215,0.04469 -0.284727,0.06697 -0.418765,0.06697 h -1.776047 c -0.111705,0 -0.206613,-0.03915 -0.284802,-0.117345 -0.0782,-0.07819 -0.117345,-0.173106 -0.117345,-0.284803 v -1.776046 c 0,-0.111705 0.03916,-0.206613 0.117345,-0.284802 0.07819,-0.0782 0.173105,-0.117345 0.284802,-0.117345 z" style="color:#000;-inkscape-font-specification:Heavitas;display:inline;fill:#fff;stroke-linecap:round;stroke-linejoin:round;stroke-miterlimit:128;-inkscape-stroke:none;paint-order:stroke fill markers"/></svg>