<svg xmlns="http://www.w3.org/2000/svg" xml:space="preserve" width="512" height="512" viewBox="0 0 135.46666 135.46667"><path d="M 135.46666,67.733331 127.00103,59.267698 87.571911,19.838581 V 59.267698 H 10e-7 v 16.931267 h 87.57191 V 115.62808 L 127.00103,76.198965 Z" style="fill:#ad1f7e;fill-opacity:1;stroke:none;stroke-width:33.8667;stroke-miterlimit:128;stroke-dasharray:none;stroke-opacity:1;paint-order:stroke fill markers"/><path d="m 30.381091,55.033333 c -1.022801,0 -2.046294,0.121156 -3.058728,0.335896 -1.239643,0.246223 -2.449955,0.718456 -3.523299,1.406116 -1.186718,0.754831 -2.175742,1.810325 -2.878894,2.982247 -0.894834,1.49139 -1.209228,3.150722 -1.209229,4.734595 1e-6,1.123083 0.163463,2.282184 0.615467,3.412194 0.01867,0.04581 0.03813,0.0913 0.05839,0.136426 0.195059,0.442133 0.543484,0.809924 0.812354,1.222665 l -0.867131,1.248502 0.09198,-0.127124 c -0.716252,0.954997 -1.033996,2.332775 -0.941545,3.349667 0.0013,0.01293 0.0027,0.02584 0.0041,0.03876 0.116985,1.169878 0.911267,2.581448 1.857251,3.302641 0.524308,0.422429 1.071473,0.824239 1.652095,1.193725 0.04193,0.02606 0.08431,0.05139 0.127124,0.07597 0.719425,0.423191 1.477141,0.785172 2.263945,1.087788 0.840632,0.32332 1.715214,0.556461 2.61121,0.71882 0.96819,0.190747 1.958284,0.281119 2.966744,0.281119 1.24357,0 2.454759,-0.124056 3.628719,-0.417545 0.01829,-0.0045 0.03655,-0.0092 0.05478,-0.01395 0.839151,-0.221662 1.60471,-0.696814 2.380733,-1.13068 0.833745,0.736525 2.112461,1.27124 3.1781,1.27124 h 3.386357 c 1.137298,0 2.556055,-0.580987 3.373437,-1.398364 0.802398,-0.802398 1.363664,-2.180444 1.384412,-3.306775 0.837226,-0.102391 1.688612,-0.120769 2.492354,-0.409794 v 0.343648 c 0,0.996189 0.41443,2.273749 1.152385,3.134692 0.07048,0.0822 0.144086,0.16167 0.220658,0.238229 0.888658,0.888658 2.335792,1.398364 3.398242,1.398364 h 3.386874 c 0.653213,0 1.367158,-0.224985 2.039152,-0.542602 0.672395,0.318055 1.389054,0.542602 2.042769,0.542602 h 3.341915 c 0.998282,0 2.154866,-0.490476 2.989998,-1.152384 0.209655,0.152153 0.40954,0.413414 0.611332,0.523482 0.129422,0.0701 0.262411,0.133403 0.398426,0.189652 0.5648,0.235333 1.266243,0.43925 2.121317,0.43925 h 4.171838 c 0.292187,0 0.705734,-0.250935 1.068152,-0.331763 0.552497,0.197608 1.11955,0.331763 1.60197,0.331763 h 3.386356 c 1.137299,0 2.557605,-0.580981 3.374988,-1.398364 0.03202,-0.03202 0.04728,-0.08917 0.07855,-0.12299 0.03147,0.03405 0.04787,0.09076 0.0801,0.12299 0.817383,0.817383 2.237688,1.398364 3.374987,1.398364 h 3.363102 c 1.024999,0 2.538093,-0.548579 3.472657,-1.55081 0.164764,-0.181462 0.278302,-0.428294 0.418062,-0.650089 0.155274,0.105259 0.293832,0.226728 0.453202,0.328145 0.04176,0.02606 0.08397,0.05138 0.126608,0.07597 0.719422,0.423187 1.477147,0.785172 2.263944,1.087788 0.840632,0.323323 1.715202,0.556461 2.611212,0.71882 0.96879,0.191009 1.95969,0.281119 2.96881,0.281119 1.24357,0 2.45269,-0.124058 3.62665,-0.417545 0.0183,-0.0045 0.0366,-0.0092 0.0548,-0.01395 1.22214,-0.32283 2.41446,-0.857378 3.46697,-1.648478 1.09157,-0.81014 2.00497,-1.906911 2.59777,-3.12074 0.006,-0.01169 0.0118,-0.0234 0.0176,-0.03514 0.63619,-1.332956 0.88264,-2.765311 0.88264,-4.156335 0,-1.508436 -0.32308,-3.110597 -1.18959,-4.541325 -0.21851,-0.371256 -0.61198,-0.617898 -0.8847,-0.960665 l 0.63303,-0.90072 -0.078,0.105937 c 0.66524,-0.887182 1.04673,-2.269047 0.93741,-3.363619 v -5.17e-4 -5.17e-4 -5.17e-4 -5.16e-4 c -0.11644,-1.164322 -0.81957,-2.439543 -1.62522,-3.144511 -0.0666,-0.05811 -0.13504,-0.114122 -0.20516,-0.167949 -1.21779,-0.938294 -2.55985,-1.686167 -3.98787,-2.202966 -1.53403,-0.57602 -3.1657,-0.829923 -4.83019,-0.829923 -1.0228,0 -2.0463,0.121155 -3.05873,0.335896 -0.68027,0.135116 -1.289,0.500967 -1.933735,0.77153 -0.8505,-0.521565 -1.78604,-0.883151 -2.521293,-0.883151 H 85.420108 c -0.432205,0 -0.907769,0.150567 -1.373043,0.299207 -0.432339,-0.129033 -0.872961,-0.277503 -1.273824,-0.277503 h -3.386356 c -1.062451,0 -2.508034,0.509707 -3.396692,1.398365 -0.07727,0.07652 -0.151571,0.155988 -0.222726,0.238228 -0.04354,0.05079 -0.05845,0.126273 -0.09973,0.179834 -0.557464,-0.362693 -1.04326,-0.845577 -1.652096,-1.084171 -1.262639,-0.508929 -2.618997,-0.75396 -3.958931,-0.75396 h -6.974768 c -0.659394,0 -1.381357,0.229906 -2.058272,0.552938 -0.667202,-0.312382 -1.376386,-0.531234 -2.023649,-0.531234 h -3.386874 c -1.06245,0 -2.509584,0.509707 -3.398242,1.398365 -0.03119,0.03275 -0.06186,0.066 -0.09198,0.09973 -0.367499,-0.211499 -0.659212,-0.545397 -1.046964,-0.709 -1.265873,-0.540341 -2.647677,-0.810804 -4.009575,-0.810804 h -6.86108 c -1.137298,0 -2.557603,0.57943 -3.374987,1.396814 -0.01985,0.01985 -0.02953,0.05543 -0.04909,0.07597 -0.532702,-0.273805 -1.008229,-0.663664 -1.570447,-0.867131 -1.534024,-0.576022 -3.165174,-0.829923 -4.829679,-0.829923 z m 70.255659,1.621089 0.22066,0.238229 c -0.0325,-0.0379 -0.0889,-0.04916 -0.12299,-0.08578 -0.0386,-0.04246 -0.058,-0.112731 -0.0977,-0.152446 z m -2.43551,0.113172 c -0.0032,0.002 -0.0046,0.0058 -0.0078,0.0078 -0.0042,0.0027 -0.0098,0.003 -0.01395,0.0057 z M 95.605533,76.98238 c 0.04104,0.03371 0.08933,0.06017 0.130741,0.09353 0.0068,0.0052 0.01076,0.0166 0.01757,0.0217 z m -57.466776,1.359607 -0.04289,0.03307 c 0.0075,-0.0055 0.01011,-0.01617 0.01757,-0.0217 0.0077,-0.0058 0.01767,-0.0055 0.02532,-0.01137 z" style="color:#000;-inkscape-font-specification:Heavitas;fill:#ad1f7e;stroke-linecap:round;stroke-linejoin:round;stroke-miterlimit:128;-inkscape-stroke:none;paint-order:stroke fill markers"/><path d="m 26.298656,70.278944 q 1.211128,0.78499 2.399828,1.233556 1.1887,0.448566 2.220402,0.448566 0.986845,0 1.502696,-0.269139 0.515851,-0.291568 0.515851,-0.852276 0,-0.291568 -0.224283,-0.448566 -0.224283,-0.179426 -0.605564,-0.291568 -0.358853,-0.112141 -0.852276,-0.179426 -0.493422,-0.06728 -1.009273,-0.179426 -0.493423,-0.08971 -1.166272,-0.201855 -0.650421,-0.13457 -1.345698,-0.358853 -0.695277,-0.246711 -1.390555,-0.605564 -0.672849,-0.358853 -1.211128,-0.91956 -0.538279,-0.560708 -0.874704,-1.32327 -0.313996,-0.784991 -0.313996,-1.839121 0,-1.547553 0.605564,-2.556826 0.605564,-1.009274 1.525125,-1.59241 0.941988,-0.605564 2.085832,-0.829847 1.143843,-0.246711 2.220402,-0.246711 1.883977,0 3.364245,0.560708 1.502696,0.538279 2.870822,1.592409 0.179427,0.156998 0.201855,0.381281 0.02243,0.224283 -0.112142,0.403709 l -1.749407,2.489542 q -0.13457,0.179426 -0.358853,0.224283 -0.224283,0.04486 -0.403709,-0.08971 -1.143844,-0.717706 -2.130689,-1.009274 -0.986845,-0.313996 -1.816692,-0.313996 -0.246712,0 -0.583136,0.02243 -0.313996,0 -0.605564,0.08971 -0.291568,0.06728 -0.493423,0.246712 -0.179426,0.179426 -0.179426,0.493422 0,0.313997 0.470994,0.560708 0.470994,0.246711 1.076559,0.426138 0.605564,0.179426 1.166271,0.291567 0.560708,0.08971 0.717706,0.112142 0.807419,0.156998 1.771836,0.470994 0.964417,0.291568 1.794264,0.897132 0.852275,0.583136 1.412983,1.547553 0.583135,0.941989 0.583135,2.3774 0,1.345698 -0.470994,2.332543 -0.470994,0.964417 -1.32327,1.59241 -0.829847,0.627992 -2.018547,0.941988 -1.166271,0.291568 -2.601683,0.291568 -1.166271,0 -2.175545,-0.201855 -1.009273,-0.179426 -1.883977,-0.51585 -0.874704,-0.336425 -1.637266,-0.784991 -0.740134,-0.470994 -1.368126,-0.986845 -0.179427,-0.13457 -0.201855,-0.358853 -0.02243,-0.246711 0.112141,-0.426138 l 1.72698,-2.489541 q 0.134569,-0.179427 0.358852,-0.224283 0.224283,-0.04486 0.40371,0.06728 z m 20.320047,1.211128 h -1.951262 q -0.224283,0 -0.381281,0.156998 -0.156998,0.156998 -0.156998,0.381281 v 3.341817 q 0,0.224283 -0.156998,0.381281 -0.156999,0.156998 -0.381282,0.156998 h -3.386673 q -0.224283,0 -0.381281,-0.156998 Q 39.66593,75.594451 39.66593,75.370168 V 60.02921 q 0,-0.224283 0.156998,-0.381281 0.156998,-0.156998 0.381281,-0.156998 h 6.86306 q 1.255985,0 2.354972,0.470994 1.121415,0.470995 1.928833,1.300842 0.829848,0.829847 1.300842,1.928834 0.493423,1.098986 0.493423,2.354971 0,1.255985 -0.40371,2.354972 -0.403709,1.076558 -1.233556,1.883977 -0.807419,0.784991 -2.040976,1.255985 -1.211128,0.448566 -2.848394,0.448566 z m 0.156998,-7.872334 h -2.10826 q -0.224283,0 -0.381281,0.156999 -0.156998,0.156998 -0.156998,0.381281 v 2.646539 q 0,0.224283 0.156998,0.381281 0.156998,0.156998 0.381281,0.156998 h 2.399828 q 0.852275,0 1.233557,-0.538279 0.403709,-0.560707 0.403709,-1.255985 0,-0.358853 -0.13457,-0.695277 -0.112141,-0.358853 -0.358853,-0.627992 -0.246711,-0.26914 -0.605564,-0.426138 -0.358853,-0.179427 -0.829847,-0.179427 z m 12.223413,12.290709 h -3.386673 q -0.246712,0 -0.40371,-0.156998 -0.13457,-0.156998 -0.13457,-0.381281 V 60.051639 q 0,-0.224283 0.13457,-0.381282 0.156998,-0.156998 0.40371,-0.156998 h 3.386673 q 0.224283,0 0.381281,0.156998 0.156998,0.156999 0.156998,0.381282 v 15.318529 q 0,0.224283 -0.156998,0.381281 -0.156998,0.156998 -0.381281,0.156998 z m 7.423769,0 h -3.341817 q -0.224283,0 -0.381281,-0.156998 -0.156998,-0.156998 -0.156998,-0.381281 V 60.02921 q 0,-0.224283 0.156998,-0.381281 0.156998,-0.156998 0.381281,-0.156998 h 6.975202 q 1.300841,0 2.399828,0.448566 1.098987,0.426138 1.861549,1.211128 0.784991,0.784991 1.211128,1.861549 0.448566,1.076559 0.448566,2.3774 0,0.717706 -0.179426,1.435411 -0.156998,0.695278 -0.470994,1.32327 -0.313997,0.627993 -0.740134,1.143844 -0.426138,0.493422 -0.964417,0.829847 -0.179427,0.134569 -0.246712,0.336424 -0.04486,0.179427 0.08971,0.358853 0.852275,1.121415 1.794264,2.310115 0.941988,1.1887 1.682122,2.175545 0.13457,0.179427 0.06728,0.40371 -0.06728,0.201854 -0.291568,0.201854 H 72.5458 q -0.224283,0 -0.493422,-0.112141 -0.246712,-0.13457 -0.381281,-0.313996 -0.717706,-0.941989 -1.435412,-1.906406 -0.695277,-0.964417 -1.390554,-1.951262 -0.13457,-0.179427 -0.381281,-0.291568 -0.246712,-0.13457 -0.470995,-0.13457 h -0.493422 q -0.224283,0 -0.381282,0.156998 -0.156998,0.156998 -0.156998,0.381281 v 3.633385 q 0,0.224283 -0.156998,0.381281 -0.156998,0.156998 -0.381281,0.156998 z m 1.076559,-8.83675 h 2.377399 q 0.26914,0 0.560708,-0.08971 0.291568,-0.112142 0.538279,-0.313997 0.246712,-0.224283 0.40371,-0.538279 0.156998,-0.313996 0.156998,-0.740134 0,-0.224283 -0.08971,-0.515851 -0.06728,-0.313996 -0.26914,-0.583136 -0.179426,-0.291567 -0.515851,-0.470994 -0.313996,-0.201855 -0.784991,-0.201855 h -2.377399 q -0.224283,0 -0.381282,0.156999 -0.156998,0.156998 -0.156998,0.381281 v 2.3774 q 0,0.224283 0.156998,0.381281 0.156999,0.156998 0.381282,0.156998 z m 15.273657,8.83675 h -3.386673 q -0.246712,0 -0.40371,-0.156998 -0.13457,-0.156998 -0.13457,-0.381281 V 60.051639 q 0,-0.224283 0.13457,-0.381282 0.156998,-0.156998 0.40371,-0.156998 h 3.386673 q 0.224283,0 0.381281,0.156998 0.156998,0.156999 0.156998,0.381282 v 15.318529 q 0,0.224283 -0.156998,0.381281 -0.156998,0.156998 -0.381281,0.156998 z M 97.261797,63.617738 h -3.139962 q -0.224283,0 -0.381281,0.156999 -0.156998,0.156998 -0.156998,0.381281 v 11.21415 q 0,0.224283 -0.156998,0.381281 -0.13457,0.156998 -0.381282,0.156998 h -3.364245 q -0.224283,0 -0.381281,-0.156998 -0.156998,-0.156998 -0.156998,-0.381281 v -11.21415 q 0,-0.224283 -0.156998,-0.381281 -0.13457,-0.156999 -0.381281,-0.156999 h -3.184819 q -0.224283,0 -0.381281,-0.156998 -0.156998,-0.156998 -0.156998,-0.381281 V 60.02921 q 0,-0.224283 0.156998,-0.381281 0.156998,-0.156998 0.381281,-0.156998 h 11.842143 q 0.246711,0 0.381281,0.156998 0.156998,0.156998 0.156998,0.381281 v 3.050249 q 0,0.224283 -0.156998,0.381281 -0.13457,0.156998 -0.381281,0.156998 z m 3.431523,6.661206 q 1.21112,0.78499 2.39982,1.233556 1.1887,0.448566 2.22041,0.448566 0.98684,0 1.50269,-0.269139 0.51585,-0.291568 0.51585,-0.852276 0,-0.291568 -0.22428,-0.448566 -0.22428,-0.179426 -0.60556,-0.291568 -0.35886,-0.112141 -0.85228,-0.179426 -0.49342,-0.06728 -1.00927,-0.179426 -0.49342,-0.08971 -1.16627,-0.201855 -0.65042,-0.13457 -1.3457,-0.358853 -0.69528,-0.246711 -1.39056,-0.605564 -0.67285,-0.358853 -1.211125,-0.91956 -0.538279,-0.560708 -0.874704,-1.32327 -0.313996,-0.784991 -0.313996,-1.839121 0,-1.547553 0.605564,-2.556826 0.605564,-1.009274 1.525121,-1.59241 0.94199,-0.605564 2.08584,-0.829847 1.14384,-0.246711 2.2204,-0.246711 1.88397,0 3.36424,0.560708 1.5027,0.538279 2.87083,1.592409 0.17942,0.156998 0.20185,0.381281 0.0224,0.224283 -0.11214,0.403709 l -1.74941,2.489542 q -0.13457,0.179426 -0.35885,0.224283 -0.22428,0.04486 -0.40371,-0.08971 -1.14384,-0.717706 -2.13069,-1.009274 -0.98685,-0.313996 -1.81669,-0.313996 -0.24671,0 -0.58314,0.02243 -0.31399,0 -0.60556,0.08971 -0.29157,0.06728 -0.49342,0.246712 -0.17943,0.179426 -0.17943,0.493422 0,0.313997 0.47099,0.560708 0.471,0.246711 1.07656,0.426138 0.60557,0.179426 1.16627,0.291567 0.56071,0.08971 0.71771,0.112142 0.80742,0.156998 1.77183,0.470994 0.96442,0.291568 1.79427,0.897132 0.85227,0.583136 1.41298,1.547553 0.58314,0.941989 0.58314,2.3774 0,1.345698 -0.471,2.332543 -0.47099,0.964417 -1.32327,1.59241 -0.82984,0.627992 -2.01854,0.941988 -1.16628,0.291568 -2.60169,0.291568 -1.16627,0 -2.17554,-0.201855 -1.00928,-0.179426 -1.88398,-0.51585 -0.8747,-0.336425 -1.637265,-0.784991 -0.740134,-0.470994 -1.368126,-0.986845 -0.179427,-0.13457 -0.201855,-0.358853 -0.02243,-0.246711 0.112141,-0.426138 l 1.72698,-2.489541 q 0.134565,-0.179427 0.358855,-0.224283 0.22428,-0.04486 0.40371,0.06728 z" style="color:#000;-inkscape-font-specification:Heavitas;fill:#fff;stroke-linecap:round;stroke-linejoin:round;stroke-miterlimit:128;-inkscape-stroke:none;paint-order:stroke fill markers"/></svg>