<svg xmlns="http://www.w3.org/2000/svg" xml:space="preserve" width="512" height="512" viewBox="0 0 135.46666 135.46667"><path d="m 67.733332,1e-6 -8.465633,8.46563 -39.429118,39.42912 H 59.267699 V 135.46666 H 76.198966 V 47.894751 H 115.62808 L 76.198966,8.465631 Z" style="fill:#c3223d;fill-opacity:1;stroke:none;stroke-width:33.8667;stroke-miterlimit:128;stroke-dasharray:none;stroke-opacity:1;paint-order:stroke fill markers"/><path d="m 91.93754,55.033333 c -1.722666,0 -3.441244,0.336163 -5.021399,1.013374 -0.983986,0.421709 -1.798931,1.128541 -2.652552,1.771469 C 84.047911,57.412668 83.837,56.989552 83.54477,56.697314 82.722077,55.874636 81.298938,55.302567 80.17185,55.302567 h -3.310393 c -1.127144,0 -2.550175,0.572002 -3.37292,1.394747 -0.127228,0.127225 -0.198267,0.335335 -0.312643,0.488342 -0.496433,-0.555368 -1.053275,-1.007134 -1.595768,-1.271757 -0.628246,-0.322563 -1.416475,-0.611332 -2.345593,-0.611332 h -3.355868 c -0.623261,0 -1.315428,0.20027 -1.968355,0.496094 -0.653359,-0.296255 -1.345132,-0.496094 -1.968872,-0.496094 H 50.554536 c -1.127115,0 -2.550242,0.572092 -3.37292,1.394747 -0.09588,0.09588 -0.147398,0.25591 -0.236162,0.366902 -0.523931,-0.330755 -0.973176,-0.787232 -1.540991,-1.009757 -1.262043,-0.508668 -2.616826,-0.751892 -3.953247,-0.751892 h -6.957198 c -0.448592,0 -0.9475,0.14731 -1.433504,0.308508 -0.487116,-0.154362 -0.989919,-0.308508 -1.384928,-0.308508 H 19.865454 c -0.813676,0 -1.712865,0.360445 -2.498039,0.836125 -0.148406,-0.05965 -0.26971,-0.178106 -0.420129,-0.232544 -1.531613,-0.575106 -3.161449,-0.827857 -4.822445,-0.827857 -1.020619,0 -2.041646,0.121505 -3.0525267,0.335897 -1.2356035,0.245425 -2.442308,0.718359 -3.5134805,1.404049 -1.1860791,0.754149 -2.1764778,1.805868 -2.8788941,2.976562 -0.8932202,1.488703 -1.2071614,3.146876 -1.2071614,4.728394 0,1.123281 0.1642045,2.279644 0.6149495,3.40651 0.018832,0.04599 0.038472,0.09164 0.058911,0.136942 0.1936941,0.439039 0.5414735,0.804084 0.8082194,1.214397 l -0.8609294,1.240234 0.091467,-0.126607 c -0.720102,0.960084 -1.0331246,2.334565 -0.9410278,3.347599 0.00115,0.01292 0.00235,0.02584 0.00362,0.03876 0.1164029,1.163444 0.909699,2.578136 1.8536336,3.299024 0.5242346,0.422572 1.0714424,0.823703 1.6520955,1.193209 0.041241,0.02621 0.082933,0.05171 0.125057,0.07648 0.7171411,0.421847 1.4738957,0.783446 2.2598104,1.085721 0.8438873,0.324571 1.7222954,0.556946 2.6194783,0.71882 0.9620524,0.188687 1.9459414,0.279052 2.9491744,0.279052 1.241446,0 2.449615,-0.124702 3.620967,-0.417545 0.01829,-0.0045 0.03655,-0.0092 0.05478,-0.01395 1.217249,-0.321536 2.405744,-0.852205 3.456637,-1.640727 0.155978,-0.115556 0.223424,-0.317958 0.371553,-0.444934 0.176551,0.28405 0.314961,0.613649 0.531234,0.829924 0.817785,0.817785 2.236048,1.396297 3.372921,1.396297 h 3.35535 c 1.024565,0 2.535665,-0.546083 3.470589,-1.548743 0.01627,-0.01792 0.02528,-0.04621 0.04134,-0.06459 0.0063,0.0072 0.0092,0.01871 0.0155,0.02584 0.0181,-0.02016 0.04854,-0.0265 0.06615,-0.04703 l -0.05633,0.06046 c 0.0448,0.05012 0.06672,0.131317 0.113171,0.177767 0.817776,0.817775 2.236059,1.396297 3.372921,1.396297 h 3.334164 c 0.995183,0 2.147212,-0.487133 2.982246,-1.146183 0.207422,0.15005 0.406121,0.408448 0.605648,0.517281 0.129378,0.0708 0.262368,0.134796 0.398425,0.191719 0.568891,0.237028 1.270807,0.437183 2.121318,0.437183 h 4.159953 c 0.277445,0 0.672719,-0.241892 1.015442,-0.314193 0.48842,0.16339 0.98867,0.314193 1.443322,0.314193 h 11.386902 c 0.627209,0 1.318238,-0.20085 1.968872,-0.496094 0.650599,0.295202 1.341729,0.496094 1.968872,0.496094 h 3.33158 c 1.136876,0 2.557233,-0.57855 3.374987,-1.396297 0.130979,-0.130979 0.205143,-0.343578 0.322461,-0.501778 0.466566,0.526915 0.971752,0.983148 1.457276,1.247986 0.641826,0.350103 1.507283,0.650089 2.495971,0.650089 h 3.310393 c 1.136891,0 2.555179,-0.57858 3.37292,-1.396297 0.284144,-0.284153 0.487006,-0.697561 0.699182,-1.089856 0.858485,0.641923 1.683951,1.340186 2.672189,1.763717 1.580155,0.677211 3.298733,1.013891 5.021399,1.013891 1.552708,0 3.102311,-0.262628 4.55476,-0.798918 0.01762,-0.0071 0.03519,-0.01435 0.05271,-0.0217 1.381969,-0.531524 2.671994,-1.289837 3.7946,-2.252059 0.29685,-0.251236 0.46171,-0.619429 0.73277,-0.898136 0.22234,0.856334 0.58889,1.711991 1.16014,2.283065 0.81772,0.817697 2.23608,1.396297 3.37292,1.396297 h 3.35535 c 1.02455,0 2.53627,-0.54623 3.47111,-1.548743 0.01,-0.01094 0.0154,-0.02765 0.0253,-0.03876 0.004,0.0045 0.008,0.009 0.0114,0.01344 0.0236,-0.02593 0.0636,-0.0339 0.0863,-0.06046 l -0.0703,0.07596 c 0.0487,0.05539 0.0988,0.109495 0.15037,0.162264 0.88235,0.882248 2.33218,1.396297 3.39411,1.396297 h 3.3321 c 1.13388,0 2.54837,-0.576077 3.36723,-1.390613 0.89296,0.888247 2.32965,1.390613 3.38894,1.390613 h 3.35536 c 1.1369,0 2.5523,-0.573648 3.37498,-1.396297 0.82278,-0.822768 1.39423,-2.245933 1.39423,-3.372921 V 60.072302 c 0,-1.126226 -0.57275,-2.551787 -1.39629,-3.374988 -0.82778,-0.827018 -2.24632,-1.394747 -3.37292,-1.394747 h -3.35536 c -1.05048,0 -2.49108,0.495984 -3.38894,1.389062 -0.82379,-0.819437 -2.24312,-1.389062 -3.36723,-1.389062 h -3.3321 c -0.44417,0 -0.96975,0.137301 -1.48415,0.308508 -0.48501,-0.153126 -0.98529,-0.308508 -1.37872,-0.308508 h -11.81065 c -1.04519,0 -2.304948,0.520338 -3.144512,1.247986 -1.906255,-1.045789 -4.075708,-1.51722 -6.273518,-1.51722 z m -56.886967,1.663981 0.220659,0.238228 c -0.03258,-0.03802 -0.08875,-0.04907 -0.12299,-0.08578 -0.03857,-0.04247 -0.05793,-0.112711 -0.09767,-0.152445 z m 81.490637,0.0021 0.21859,0.236161 c -0.0323,-0.03762 -0.087,-0.04944 -0.12093,-0.08578 -0.0382,-0.04209 -0.0583,-0.11098 -0.0977,-0.150378 z m -67.845992,1.4981 0.04289,0.04289 c -0.0073,-0.0075 -0.01801,-0.0101 -0.02532,-0.01757 -0.0073,-0.0074 -0.01022,-0.01797 -0.01757,-0.02532 z M 5.7521036,73.847688 c 0.03315,0.02149 0.070121,0.03146 0.1033529,0.05271 -0.013005,-0.0078 -0.03217,-0.0075 -0.044958,-0.0155 z" style="color:#000;-inkscape-font-specification:Heavitas;fill:#c3223d;stroke-linecap:round;stroke-linejoin:round;stroke-miterlimit:128;-inkscape-stroke:none;paint-order:stroke fill markers"/><path d="m 91.938056,59.266666 c -1.193003,0 -2.311471,0.223899 -3.35535,0.671277 -1.043879,0.447377 -1.960889,1.058543 -2.751254,1.833996 -0.775454,0.760543 -1.394444,1.655623 -1.856734,2.684591 -0.447377,1.028967 -0.671277,2.124475 -0.671277,3.287655 0,1.163181 0.2239,2.25972 0.671277,3.288688 0.46229,1.028967 1.08128,1.923532 1.856734,2.684074 0.790365,0.760541 1.707375,1.364398 2.751254,1.811775 1.043879,0.447378 2.162347,0.671277 3.35535,0.671277 1.088619,0 2.117831,-0.179015 3.08715,-0.536918 0.969319,-0.372814 1.826824,-0.879596 2.572453,-1.520837 0.760539,-0.641241 1.379018,-1.40219 1.856218,-2.282032 0.477204,-0.879842 0.767903,-1.834423 0.872293,-2.863391 0.0447,-0.387727 0.0677,-0.759858 0.0677,-1.117761 0,-0.372814 -0.0156,-0.686482 -0.0455,-0.939994 -0.0149,-0.164039 -0.0817,-0.290347 -0.20103,-0.379822 -0.10438,-0.104389 -0.231214,-0.157096 -0.380334,-0.157096 h -7.695138 c -0.149125,0 -0.275437,0.05271 -0.379821,0.157096 -0.10439,0.104388 -0.157097,0.230695 -0.157097,0.379822 v 2.66237 c 0,0.149125 0.05271,0.275433 0.157097,0.379821 0.104384,0.104388 0.230696,0.157097 0.379821,0.157097 h 2.57297 c 0.14913,0 0.252992,0.05168 0.312642,0.156062 0.05965,0.08948 0.05235,0.193859 -0.02222,0.31316 -0.328079,0.477202 -0.768051,0.820619 -1.319816,1.029394 -0.551764,0.208777 -1.110737,0.312643 -1.677417,0.312643 -0.566674,0 -1.10373,-0.111691 -1.610754,-0.33538 -0.492119,-0.238601 -0.924781,-0.544443 -1.297595,-0.917257 -0.37281,-0.387727 -0.67083,-0.83501 -0.894519,-1.342037 C 87.926384,68.847911 87.822,68.310863 87.822,67.744185 c 0,-0.551766 0.104384,-1.08099 0.313159,-1.588017 0.223689,-0.521941 0.521709,-0.976532 0.894519,-1.364258 0.372814,-0.387728 0.805476,-0.693568 1.297595,-0.917257 0.507024,-0.2386 1.04408,-0.357601 1.610754,-0.357601 0.79037,0 1.468861,0.171192 2.035535,0.514181 0.581594,0.34299 1.103501,0.798097 1.565796,1.364774 0.104385,0.119301 0.231209,0.193418 0.380338,0.223243 0.149125,0.01492 0.28326,-0.01483 0.40256,-0.0894 l 2.684074,-1.722375 c 0.119295,-0.07456 0.193934,-0.186254 0.223759,-0.33538 0.0447,-0.164038 0.03011,-0.305479 -0.04444,-0.42478 -0.760544,-1.178094 -1.752705,-2.102926 -2.975529,-2.773991 -1.207924,-0.671067 -2.631707,-1.006657 -4.272091,-1.006657 z m -79.812181,0.04496 c -0.715804,0 -1.454311,0.08195 -2.2148522,0.24598 -0.7605412,0.149126 -1.453648,0.4247 -2.0799763,0.82734 -0.6114164,0.387728 -1.1187146,0.917467 -1.5213542,1.588533 -0.4026396,0.671067 -0.6040975,1.520748 -0.6040975,2.549716 0,0.70089 0.1049002,1.312572 0.313676,1.834513 0.2236887,0.507026 0.5143955,0.947001 0.8722981,1.319816 0.3579007,0.372815 0.7602997,0.678655 1.2076782,0.917257 0.4622896,0.2386 0.9247049,0.439543 1.3869955,0.60358 0.4622895,0.149126 0.9095724,0.268643 1.3420364,0.358118 0.447378,0.07456 0.83516,0.141887 1.163237,0.201538 0.34299,0.07456 0.67858,0.134063 1.006657,0.178801 0.328077,0.04474 0.611475,0.104237 0.850077,0.1788 0.253513,0.07456 0.454972,0.171638 0.604098,0.290938 0.149125,0.104389 0.223242,0.253654 0.223242,0.447518 0,0.372815 -0.171191,0.655698 -0.514181,0.849561 -0.342989,0.178952 -0.842463,0.268717 -1.498616,0.268717 -0.68598,0 -1.424486,-0.149267 -2.214852,-0.447518 C 9.6575736,71.226581 8.8600846,70.816357 8.0548054,70.294416 7.9355045,70.219857 7.8013719,70.197934 7.652246,70.227754 7.5031201,70.257574 7.3836032,70.331695 7.2941283,70.450996 l -1.7223754,2.483053 c -0.08948,0.1193 -0.1265341,0.261259 -0.1116211,0.425297 0.01492,0.149125 0.081722,0.268126 0.2010213,0.357601 0.4175526,0.342989 0.872659,0.671272 1.3647745,0.984436 0.5070275,0.298251 1.0508681,0.559208 1.6324585,0.782897 0.5815904,0.223688 1.2078887,0.39488 1.8789549,0.514181 0.671066,0.134213 1.394439,0.201538 2.169894,0.201538 0.954405,0 1.81922,-0.09707 2.594673,-0.290938 0.790366,-0.208775 1.462065,-0.521925 2.013831,-0.939478 0.566677,-0.417551 1.006134,-0.946776 1.319299,-1.588017 0.313164,-0.656153 0.470256,-1.431718 0.470256,-2.326472 0,-0.954406 -0.19415,-1.744587 -0.581877,-2.370915 -0.372815,-0.641241 -0.842539,-1.155848 -1.409216,-1.543575 -0.551766,-0.40264 -1.148315,-0.701173 -1.789555,-0.895036 -0.641242,-0.208777 -1.230481,-0.36535 -1.767334,-0.469739 -0.104388,-0.01492 -0.342904,-0.05198 -0.715719,-0.111621 -0.372813,-0.07456 -0.760597,-0.171121 -1.163236,-0.290421 -0.40264,-0.119301 -0.760156,-0.26126 -1.07332,-0.425297 -0.313164,-0.164039 -0.469738,-0.350363 -0.469738,-0.559139 0,-0.208776 0.0595,-0.373177 0.1788,-0.492477 0.134213,-0.119301 0.298096,-0.201243 0.49196,-0.24598 0.193862,-0.05965 0.395321,-0.0894 0.604097,-0.0894 0.223689,-0.01492 0.417322,-0.02222 0.58136,-0.02222 0.551765,0 1.15614,0.104384 1.812292,0.313159 0.656154,0.193864 1.363877,0.529455 2.124419,1.006657 0.1193,0.08948 0.253949,0.119222 0.403076,0.0894 0.149125,-0.02983 0.268642,-0.104458 0.358117,-0.223759 l 1.74408,-2.483053 c 0.08948,-0.119301 0.12705,-0.253434 0.112138,-0.402559 -0.01492,-0.149126 -0.08224,-0.275951 -0.201538,-0.380339 -0.909667,-0.700891 -1.863732,-1.230114 -2.862875,-1.588017 -0.98423,-0.372814 -2.102693,-0.559139 -3.35535,-0.559139 z m 7.739579,0.223759 c -0.149126,0 -0.275951,0.05168 -0.380339,0.156063 -0.104388,0.104388 -0.156579,0.231213 -0.156579,0.380339 v 3.042191 c 0,0.149126 0.05219,0.27595 0.156579,0.380339 0.104388,0.104387 0.231213,0.156579 0.380339,0.156579 h 3.17655 c 0.164039,0 0.290863,0.05219 0.380339,0.15658 0.104388,0.104387 0.156579,0.231213 0.156579,0.380339 v 11.18433 c 0,0.149125 0.05219,0.27595 0.15658,0.380338 0.104388,0.104388 0.231214,0.15658 0.380338,0.15658 h 3.354834 c 0.164038,0 0.290864,-0.05219 0.380339,-0.15658 0.104389,-0.104388 0.156579,-0.231213 0.156579,-0.380338 v -11.18433 c 0,-0.149126 0.05271,-0.275951 0.157097,-0.380339 0.104388,-0.104389 0.230696,-0.15658 0.379822,-0.15658 h 3.131591 c 0.164039,0 0.290864,-0.05219 0.380339,-0.156579 0.104388,-0.104389 0.156579,-0.231213 0.156579,-0.380339 v -3.042191 c 0,-0.149126 -0.05219,-0.275951 -0.156579,-0.380339 -0.08948,-0.104388 -0.2163,-0.156063 -0.380339,-0.156063 z m 14.629081,0 c -0.149126,0 -0.275951,0.05168 -0.380339,0.156063 -0.104388,0.104388 -0.156062,0.231213 -0.156062,0.380339 v 15.300358 c 0,0.149125 0.05168,0.27595 0.156062,0.380338 0.104388,0.104388 0.231213,0.15658 0.380339,0.15658 h 3.33313 c 0.149126,0 0.27595,-0.05219 0.380338,-0.15658 0.104388,-0.104388 0.15658,-0.231213 0.15658,-0.380338 v -3.623552 c 0,-0.149126 0.05219,-0.27595 0.156579,-0.380338 0.104388,-0.104388 0.231213,-0.15658 0.380339,-0.15658 h 0.49196 c 0.149125,0 0.3057,0.04488 0.469738,0.134359 0.164038,0.07456 0.290863,0.171638 0.380339,0.290938 0.462289,0.656154 0.924705,1.304376 1.386995,1.945618 0.477203,0.64124 0.954235,1.275364 1.431437,1.901692 0.08948,0.1193 0.216301,0.223685 0.380339,0.31316 0.178952,0.07456 0.343351,0.111621 0.492476,0.111621 h 4.159953 c 0.149125,0 0.246202,-0.06681 0.290938,-0.201022 0.04473,-0.149124 0.02281,-0.283258 -0.06666,-0.402559 -0.492116,-0.656153 -1.051606,-1.379526 -1.677934,-2.169893 -0.626328,-0.790367 -1.222876,-1.558624 -1.789555,-2.304252 -0.08948,-0.119301 -0.119222,-0.238301 -0.0894,-0.357601 0.04473,-0.134214 0.126679,-0.245904 0.24598,-0.33538 0.357902,-0.223688 0.678359,-0.49978 0.961698,-0.827857 0.283339,-0.342989 0.52968,-0.723464 0.738457,-1.141015 0.208775,-0.417552 0.36535,-0.857526 0.469738,-1.319816 0.119301,-0.477203 0.178801,-0.954235 0.178801,-1.431438 0,-0.864929 -0.149266,-1.655111 -0.447518,-2.370914 -0.283339,-0.715805 -0.685738,-1.334795 -1.207678,-1.856735 -0.507028,-0.52194 -1.126018,-0.924856 -1.856735,-1.208194 -0.730716,-0.298253 -1.528722,-0.447002 -2.393652,-0.447002 z m 16.061035,0 c -0.149126,0 -0.27595,0.05168 -0.380339,0.156063 -0.104388,0.104388 -0.156579,0.231213 -0.156579,0.380339 v 15.300358 c 0,0.149125 0.05219,0.27595 0.156579,0.380338 0.104389,0.104388 0.231213,0.15658 0.380339,0.15658 h 11.385868 c 0.149125,0 0.275951,-0.05219 0.380339,-0.15658 0.104387,-0.104388 0.156579,-0.231213 0.156579,-0.380338 v -3.086634 c 0,-0.149125 -0.05219,-0.27595 -0.156579,-0.380338 -0.104388,-0.104388 -0.231214,-0.15658 -0.380339,-0.15658 h -6.956681 c -0.149125,0 -0.275951,-0.05219 -0.380339,-0.156579 -0.104388,-0.104388 -0.156579,-0.231213 -0.156579,-0.380339 v -0.850077 c 0,-0.149126 0.05219,-0.275951 0.156579,-0.380339 0.104388,-0.104388 0.231214,-0.156579 0.380339,-0.156579 h 6.062162 c 0.149126,0 0.275434,-0.05219 0.379822,-0.15658 0.104388,-0.104388 0.157096,-0.231213 0.157096,-0.380338 v -3.086634 c 0,-0.149126 -0.05271,-0.27595 -0.157096,-0.380338 -0.104388,-0.104387 -0.230696,-0.15658 -0.379822,-0.15658 h -6.062162 c -0.149125,0 -0.275951,-0.05219 -0.380339,-0.156579 C 54.50003,65.40324 54.447839,65.276416 54.447839,65.12729 v -0.939477 c 0,-0.149126 0.05219,-0.275951 0.156579,-0.380339 0.104388,-0.104389 0.231214,-0.15658 0.380339,-0.15658 h 6.956681 c 0.149125,0 0.275951,-0.05219 0.380339,-0.156579 0.104387,-0.104389 0.156579,-0.231213 0.156579,-0.380339 v -3.042191 c 0,-0.149126 -0.05219,-0.275951 -0.156579,-0.380339 -0.104388,-0.104388 -0.231214,-0.156063 -0.380339,-0.156063 z m 15.322579,0 c -0.149126,0 -0.275951,0.05168 -0.380339,0.156063 -0.104389,0.104388 -0.156063,0.231213 -0.156063,0.380339 v 15.300358 c 0,0.149125 0.05168,0.27595 0.156063,0.380338 0.104388,0.104388 0.231213,0.15658 0.380339,0.15658 h 3.333129 c 0.149127,0 0.275951,-0.05219 0.380339,-0.15658 0.104388,-0.104388 0.15658,-0.231213 0.15658,-0.380338 v -8.00778 c 0,-0.149126 0.04436,-0.231585 0.133842,-0.246497 0.104386,-0.02983 0.201462,0.01557 0.290938,0.134876 l 5.838403,8.208801 c 0.08948,0.119302 0.216304,0.2242 0.380339,0.313676 0.164039,0.08948 0.320614,0.133842 0.469738,0.133842 h 3.310393 c 0.149124,0 0.275948,-0.05219 0.380338,-0.15658 0.104385,-0.104388 0.15658,-0.231213 0.15658,-0.380338 v -15.30036 c 0,-0.149126 -0.0522,-0.275951 -0.15658,-0.380339 -0.10439,-0.104388 -0.231214,-0.156063 -0.380338,-0.156063 h -3.310393 c -0.149124,0 -0.275953,0.05168 -0.380338,0.156063 -0.10439,0.104388 -0.15658,0.231213 -0.15658,0.380339 v 8.008296 c 0,0.149126 -0.05218,0.231067 -0.156579,0.24598 -0.08948,0.01492 -0.178726,-0.03728 -0.268201,-0.156579 l -5.816182,-8.209318 c -0.08947,-0.1193 -0.2163,-0.216376 -0.380339,-0.290939 -0.164038,-0.08948 -0.320612,-0.133842 -0.469739,-0.133842 z m 35.477421,0 c -0.14912,0 -0.27595,0.05168 -0.38034,0.156063 -0.10439,0.104388 -0.15658,0.231213 -0.15658,0.380339 v 3.042191 c 0,0.149126 0.0522,0.27595 0.15658,0.380339 0.10439,0.104387 0.23122,0.156579 0.38034,0.156579 h 3.17603 c 0.16404,0 0.29087,0.05219 0.38034,0.15658 0.10439,0.104387 0.15658,0.231213 0.15658,0.380339 v 11.18433 c 0,0.149125 0.0522,0.27595 0.15658,0.380338 0.10439,0.104388 0.23121,0.15658 0.38034,0.15658 h 3.35535 c 0.16404,0 0.29086,-0.05219 0.38034,-0.15658 0.10438,-0.104388 0.15658,-0.231213 0.15658,-0.380338 v -11.18433 c 0,-0.149126 0.0521,-0.275951 0.15658,-0.380339 0.10439,-0.104389 0.23122,-0.15658 0.38034,-0.15658 h 3.13159 c 0.16403,0 0.29087,-0.05219 0.38034,-0.156579 0.1044,-0.104389 0.15658,-0.231213 0.15658,-0.380339 v -3.042191 c 0,-0.149126 -0.0522,-0.275951 -0.15658,-0.380339 -0.0895,-0.104388 -0.21631,-0.156063 -0.38034,-0.156063 z m 14.67352,0 c -0.16405,0 -0.29764,0.05168 -0.40204,0.156063 -0.0895,0.104388 -0.13488,0.231213 -0.13488,0.380339 v 15.300358 c 0,0.149125 0.0454,0.27595 0.13488,0.380338 0.1044,0.104388 0.23799,0.15658 0.40204,0.15658 h 3.33313 c 0.14913,0 0.27596,-0.05219 0.38034,-0.15658 0.1044,-0.104388 0.15658,-0.231213 0.15658,-0.380338 v -4.786788 c 0,-0.149126 0.0448,-0.275951 0.13436,-0.380339 0.10439,-0.104388 0.23852,-0.156579 0.40256,-0.156579 h 4.60799 c 0.14913,0 0.27595,0.05219 0.38033,0.156579 0.10439,0.104388 0.15658,0.231213 0.15658,0.380339 v 4.786788 c 0,0.149125 0.0444,0.27595 0.13385,0.380338 0.10439,0.104388 0.23903,0.15658 0.40307,0.15658 h 3.35484 c 0.14912,0 0.27646,-0.05219 0.38085,-0.15658 0.10439,-0.104388 0.15606,-0.231213 0.15606,-0.380338 v -15.30036 c 0,-0.149126 -0.0516,-0.275951 -0.15606,-0.380339 -0.10439,-0.104388 -0.23173,-0.156063 -0.38085,-0.156063 h -3.35484 c -0.16404,0 -0.29868,0.05168 -0.40307,0.156063 -0.0895,0.104388 -0.13385,0.231213 -0.13385,0.380339 v 5.302002 c 0,0.149125 -0.0521,0.275434 -0.15658,0.379821 -0.10438,0.104388 -0.2312,0.15658 -0.38033,0.15658 h -4.60799 c -0.16404,0 -0.29817,-0.05219 -0.40256,-0.15658 -0.0895,-0.104387 -0.13436,-0.230696 -0.13436,-0.379821 v -5.302002 c 0,-0.149126 -0.0522,-0.275951 -0.15658,-0.380339 -0.10438,-0.104388 -0.23121,-0.156063 -0.38034,-0.156063 z m -77.127589,4.115511 h 2.370915 c 0.313163,0 0.574121,0.06733 0.782898,0.201538 0.223688,0.119301 0.395396,0.275875 0.514697,0.469739 0.134213,0.178951 0.223463,0.372584 0.268201,0.58136 0.05965,0.193864 0.0894,0.365573 0.0894,0.514697 0,0.283339 -0.05168,0.529163 -0.156063,0.73794 -0.104388,0.208776 -0.239038,0.387792 -0.403076,0.536918 -0.164039,0.134214 -0.343055,0.238596 -0.536918,0.313159 -0.193864,0.05965 -0.380189,0.08992 -0.559139,0.08992 h -2.370915 c -0.149126,0 -0.275951,-0.05271 -0.380339,-0.157096 -0.104387,-0.104388 -0.156579,-0.230697 -0.156579,-0.379822 v -2.371431 c 0,-0.149126 0.05219,-0.275951 0.156579,-0.380339 0.104388,-0.104389 0.231213,-0.15658 0.380339,-0.15658 z" style="color:#000;-inkscape-font-specification:Heavitas;fill:#fff;stroke-linecap:round;stroke-linejoin:round;stroke-miterlimit:128;-inkscape-stroke:none;paint-order:stroke fill markers"/></svg>