<svg xmlns="http://www.w3.org/2000/svg" xml:space="preserve" width="512" height="512" viewBox="0 0 135.46666 135.46667"><path d="M 0 0 L 0 11.972396 L 0 67.733332 L 27.880468 39.852864 L 123.49427 135.46666 L 135.46666 135.46666 L 135.46666 123.49427 L 39.852864 27.880468 L 67.733332 0 L 11.972396 0 L 0 0 z" style="fill:#c3223d;fill-opacity:1;stroke:none;stroke-width:33.8667;stroke-miterlimit:128;stroke-dasharray:none;stroke-opacity:1;paint-order:stroke fill markers"/><path d="m 48.818208,57.150516 c -1.413911,0 -2.844379,0.285458 -4.150134,0.853178 -0.860207,0.374003 -1.581222,0.999235 -2.318721,1.588017 -0.731765,-0.650515 -1.530848,-1.23678 -2.409673,-1.581816 -1.076719,-0.432981 -2.230699,-0.642855 -3.351733,-0.642855 h -5.211051 c -0.336843,0 -0.709246,0.138281 -1.074353,0.234611 C 29.944568,57.511511 29.5604,57.36704 29.265397,57.36704 h -8.845455 c -0.616869,0 -1.298295,0.204722 -1.939417,0.500228 -1.248835,-0.450083 -2.551988,-0.666108 -3.857645,-0.666109 -0.842562,0 -1.682399,0.09889 -2.50579,0.273368 -1.043355,0.208709 -2.072909,0.612301 -2.9843142,1.195276 -1.0317694,0.656315 -1.89645,1.577574 -2.4980387,2.580204 -0.7929321,1.321563 -1.054716,2.765692 -1.054716,4.088123 0,0.944618 0.1375709,1.946656 0.5369181,2.94504 0.018147,0.04598 0.037098,0.09163 0.056844,0.136942 0.071854,0.162866 0.2186879,0.294807 0.3028239,0.454753 l -0.2423625,0.349849 0.091984,-0.129191 c -0.6929213,0.923482 -1.0008944,2.267841 -0.9120891,3.244247 6.344e-4,0.01241 0.00132,0.02481 0.00207,0.03721 0.1132894,1.132367 0.8887987,2.509175 1.804541,3.209106 0.4192553,0.336397 0.8519658,0.65674 1.3084472,0.947229 0.041929,0.02606 0.08431,0.05139 0.1271241,0.07596 0.5904361,0.347314 1.2098187,0.642804 1.8494999,0.888835 0.697114,0.268122 1.416798,0.457519 2.146639,0.589628 0.793598,0.15497 1.597805,0.22841 2.406054,0.22841 1.001522,0 1.991603,-0.09934 2.968811,-0.343648 0.01829,-0.0044 0.03655,-0.0088 0.05478,-0.01344 0.820359,-0.216698 1.610396,-0.655516 2.375049,-1.132748 0.80659,0.738951 2.099529,1.273308 3.146578,1.273308 h 2.511475 c 0.7476,0 1.73437,-0.390764 2.597774,-0.964799 0.796583,0.548765 1.789807,0.964799 2.66392,0.964799 h 2.495971 c 0.687373,0 1.442936,-0.271151 2.142505,-0.633037 0.01168,0.0065 0.02403,0.02518 0.03566,0.03152 0.129895,0.07068 0.263403,0.134498 0.399976,0.191203 0.522676,0.217786 1.183422,0.410311 1.99626,0.410311 h 3.117123 c 0.688269,0 1.670327,-0.186221 2.542997,-0.789099 0.0543,-0.03751 0.08288,-0.09494 0.134875,-0.134876 0.154051,0.07575 0.268731,0.219024 0.425814,0.287321 1.305758,0.567721 2.736226,0.853178 4.150134,0.853178 1.41391,0 2.844894,-0.285457 4.150651,-0.853178 0.393703,-0.171176 0.693477,-0.50369 1.066085,-0.720886 0.796267,0.796267 2.182746,1.35754 3.277319,1.35754 h 2.496489 c 0.9323,0 2.015153,-0.455465 2.826184,-1.068152 0.178902,0.126145 0.35595,0.358908 0.525032,0.451135 0.596634,0.325442 1.422239,0.617017 2.379183,0.617017 h 2.480469 c 1.094565,0 2.484296,-0.564507 3.277319,-1.35754 0.03003,-0.03003 0.04505,-0.08356 0.07441,-0.115239 0.440806,0.26492 0.81007,0.644092 1.281059,0.845944 1.31852,0.565081 2.756908,0.843359 4.17959,0.843359 1.27944,0 2.570089,-0.217638 3.779097,-0.664042 0.01761,-0.0063 0.03518,-0.01263 0.05271,-0.01912 0.55637,-0.213988 1.021698,-0.611381 1.539441,-0.914157 0.0059,0.006 0.0075,0.01731 0.01344,0.02326 0.793,0.793001 2.182746,1.35754 3.277319,1.35754 h 2.531629 c 1.090307,0 2.470877,-0.56162 3.265433,-1.349789 0.204087,0.03556 0.439446,0.160197 0.621151,0.160197 0.169044,0 0.41081,-0.135921 0.607198,-0.171566 9.51e-4,9.54e-4 0.0011,0.0027 0.0021,0.0036 0.793234,0.792483 2.183245,1.35754 3.27732,1.35754 h 2.529561 c 0.284925,0 0.602808,-0.128953 0.912089,-0.199471 0.342,0.08051 0.663256,0.199471 1.030947,0.199471 h 2.88303 c 0.9569,0 1.96283,-0.343565 2.66598,-0.812354 0.0269,-0.01795 0.0536,-0.03621 0.0801,-0.05478 0.19835,-0.138844 0.36011,-0.480027 0.56431,-0.677995 0.16832,0.17192 0.29996,0.416871 0.4749,0.552938 0.13399,0.104096 0.27412,0.200042 0.41962,0.287321 0.6992,0.419521 1.6383,0.704867 2.52956,0.704867 h 2.86494 c 0.21293,0 0.57553,-0.179722 0.86145,-0.243913 0.37981,0.103606 0.7686,0.243913 1.11724,0.243913 h 2.49597 c 0.93255,0 2.01653,-0.456547 2.82619,-1.068152 0.17841,0.12598 0.35445,0.356791 0.52348,0.449068 0.59671,0.325508 1.42381,0.619084 2.38073,0.619084 h 2.47892 c 1.09413,0 2.48406,-0.565031 3.27732,-1.35754 0.7932,-0.793094 1.35909,-2.178506 1.35909,-3.279387 V 62.003967 c 0,-1.102152 -0.56878,-2.488177 -1.35754,-3.27732 l -0.002,-0.0021 c -0.78958,-0.789481 -2.17622,-1.35754 -3.27732,-1.35754 h -2.4784 c -0.94739,10e-7 -2.04548,0.466139 -2.85357,1.086239 -0.22115,-0.152609 -0.42304,-0.403595 -0.63665,-0.507979 -0.58526,-0.299257 -1.32973,-0.578259 -2.22468,-0.57826 h -2.51147 c -1.1012,0 -2.48964,0.567829 -3.27939,1.35754 -0.12048,0.12046 -0.18772,0.319446 -0.29662,0.464571 -0.30406,-0.328516 -0.54383,-0.763649 -0.86144,-0.968416 -0.69775,-0.456112 -1.63218,-0.836125 -2.59985,-0.836125 h -2.34559 c -1.0066,0 -2.02709,0.38338 -2.73627,0.869198 -0.29021,0.198521 -0.48273,0.593243 -0.74982,0.886767 -0.0951,-0.122029 -0.15282,-0.294932 -0.25632,-0.398425 -0.78978,-0.789784 -2.177825,-1.35754 -3.278866,-1.35754 h -2.34611 c -0.963432,0 -1.786087,0.294321 -2.378666,0.617534 -0.52921,0.288671 -1.133169,0.728173 -1.644344,1.409733 -0.03075,0.04182 -0.06073,0.0842 -0.08992,0.127124 -0.515666,-0.721158 -1.12839,-1.252045 -1.650546,-1.536857 -0.594832,-0.324459 -1.415808,-0.617534 -2.379182,-0.617534 h -2.345594 c -1.050294,0 -2.332661,0.534664 -3.136759,1.267623 -0.10019,-0.05967 -0.181127,-0.149054 -0.283187,-0.205155 -1.61213,-0.892224 -3.440497,-1.281059 -5.242057,-1.281059 -0.188213,0 -0.364486,0.101291 -0.552938,0.111104 l -0.0057,-0.0739 c -0.04827,0.03414 -0.09583,0.06929 -0.142627,0.10542 -1.185865,0.0784 -2.381657,0.233309 -3.478341,0.703316 -0.468656,0.200852 -0.831644,0.582999 -1.26969,0.847494 -0.034,-0.03715 -0.05088,-0.09998 -0.08578,-0.134876 -0.789733,-0.789733 -2.176286,-1.35754 -3.277319,-1.35754 h -2.480469 c -0.946952,10e-7 -2.043359,0.464401 -2.851505,1.084172 -0.220905,-0.152408 -0.423224,-0.401606 -0.636654,-0.505912 -0.585321,-0.299295 -1.329705,-0.578259 -2.22467,-0.57826 h -2.514059 c -1.101142,0 -2.484354,0.564606 -3.277319,1.35754 -0.0015,0.0015 -0.0021,0.0041 -0.0036,0.0057 -0.372348,-0.218287 -0.668439,-0.555254 -1.062468,-0.726571 -1.305754,-0.56772 -2.736738,-0.853178 -4.150651,-0.853178 z m -30.255517,0.716752 0.07183,0.02739 c -0.01071,-0.0041 -0.02235,-0.0021 -0.03307,-0.0062 -0.01405,-0.0051 -0.02469,-0.01615 -0.03876,-0.02119 z m -5.881295,2.691309 c -0.03282,0.0076 -0.06605,0.04221 -0.09922,0.05064 -0.0635,0.01711 -0.130554,0.01015 -0.19327,0.02945 z M 9.2697183,73.213101 c 0.033562,0.02175 0.071726,0.03278 0.1054199,0.05426 -0.013633,-0.0082 -0.033626,-0.0092 -0.047026,-0.01757 z m 107.6228917,2.378666 -0.15813,0.287321 c 0.0275,-0.04578 0.0286,-0.139518 0.0548,-0.189652 0.0241,-0.04341 0.081,-0.05298 0.10336,-0.09767 z m -33.060519,0.160197 -0.03152,0.02739 c 0.0057,-0.0048 0.0083,-0.01275 0.01395,-0.01757 0.0051,-0.0044 0.01245,-0.0054 0.01757,-0.0098 z m 12.736174,0.519349 c 0.0738,0.09837 0.172742,0.0909 0.252181,0.179834 0.06906,0.08133 0.06632,0.201245 0.140559,0.275435 z m -66.953019,0.232543 -0.220658,0.238229 c 0.03974,-0.03974 0.05914,-0.109869 0.09767,-0.152446 0.03418,-0.03657 0.09051,-0.04789 0.12299,-0.08578 z m -8.550899,0.03307 -0.04496,0.03359 c 0.0067,-0.0049 0.0093,-0.01467 0.01602,-0.01964 0.009,-0.0068 0.01995,-0.0072 0.02894,-0.01395 z m 77.468656,1.226799 c 0.04596,0.01837 0.110946,0.01381 0.158646,0.03101 0.02293,0.0081 0.05145,0.04523 0.0739,0.05271 z" style="color:#000;-inkscape-font-specification:Heavitas;fill:#c3223d;stroke-linecap:round;stroke-linejoin:round;stroke-miterlimit:128;-inkscape-stroke:none;paint-order:stroke fill markers"/><path d="m 48.818492,61.383332 c -0.871245,0 -1.692279,0.167527 -2.462996,0.502622 -0.770717,0.335094 -1.440823,0.793068 -2.010483,1.373897 -0.569661,0.569661 -1.022187,1.239768 -1.357282,2.010485 -0.335093,0.770716 -0.50262,1.59175 -0.50262,2.462995 0,0.871245 0.167527,1.692279 0.50262,2.462996 0.335095,0.770717 0.787621,1.446527 1.357282,2.027357 0.56966,0.56966 1.239766,1.021931 2.010483,1.357025 0.770717,0.335095 1.591751,0.502621 2.462996,0.502621 0.871245,0 1.692279,-0.167526 2.462996,-0.502621 0.770716,-0.335094 1.440823,-0.787365 2.010483,-1.357025 0.58083,-0.58083 1.038805,-1.25664 1.373899,-2.027357 0.335095,-0.770717 0.502621,-1.591751 0.502621,-2.462996 0,-0.871245 -0.167526,-1.692279 -0.502621,-2.462995 -0.335094,-0.770717 -0.793069,-1.440824 -1.373899,-2.010485 -0.56966,-0.580829 -1.239767,-1.038803 -2.010483,-1.373897 -0.770717,-0.335095 -1.591751,-0.502622 -2.462996,-0.502622 z m 28.013829,0.01662 c -0.893584,0 -1.731218,0.167783 -2.513104,0.502877 -0.781887,0.335094 -1.468849,0.793068 -2.060848,1.373899 -0.58083,0.569659 -1.044508,1.239766 -1.390772,2.010483 -0.335095,0.770717 -0.502621,1.591751 -0.502621,2.462996 0,0.871245 0.167526,1.692023 0.502621,2.46274 0.346264,0.770717 0.809942,1.441079 1.390772,2.010739 0.591999,0.569661 1.278961,1.021931 2.060848,1.357025 0.781886,0.335095 1.61952,0.502621 2.513104,0.502621 0.815396,0 1.586121,-0.134072 2.312158,-0.402148 0.726038,-0.279245 1.368393,-0.658903 1.926885,-1.139205 0.56966,-0.480302 1.033082,-1.050046 1.390516,-1.709065 0.357433,-0.659018 0.575269,-1.373731 0.653458,-2.144447 0.03351,-0.290416 0.05036,-0.569711 0.05036,-0.837787 0,-0.279246 -0.01115,-0.513936 -0.0335,-0.703823 -0.01117,-0.122868 -0.06148,-0.217783 -0.150838,-0.284801 -0.07819,-0.07819 -0.173104,-0.117091 -0.284801,-0.117091 h -5.763777 c -0.111698,0 -0.206613,0.0389 -0.284801,0.117091 -0.07819,0.07819 -0.117347,0.173103 -0.117347,0.284801 v 1.993866 c 0,0.111698 0.03916,0.206613 0.117347,0.284802 0.07819,0.07819 0.173103,0.117346 0.284801,0.117346 h 1.926884 c 0.111698,0 0.189758,0.03916 0.234437,0.117347 0.04468,0.06702 0.03923,0.145078 -0.01662,0.234437 -0.245735,0.357433 -0.575341,0.614427 -0.988624,0.770804 -0.413282,0.156377 -0.832099,0.234437 -1.256552,0.234437 -0.424453,0 -0.82667,-0.08376 -1.206444,-0.25131 -0.368595,-0.178717 -0.692498,-0.407704 -0.971742,-0.686949 -0.279246,-0.290415 -0.502529,-0.625469 -0.670076,-1.005242 -0.156377,-0.379773 -0.234693,-0.781735 -0.234693,-1.206188 0,-0.413283 0.07832,-0.809796 0.234693,-1.18957 0.167547,-0.390944 0.39083,-0.7317 0.670076,-1.022116 0.279244,-0.290415 0.603147,-0.519402 0.97175,-0.686949 0.379774,-0.178717 0.781991,-0.268184 1.206444,-0.268184 0.592,0 1.100283,0.128625 1.524736,0.385531 0.435623,0.256905 0.826433,0.597406 1.172697,1.021859 0.07819,0.08936 0.173104,0.145371 0.284802,0.16771 0.111697,0.01117 0.212316,-0.01113 0.301674,-0.06698 l 2.010484,-1.290299 c 0.08936,-0.05585 0.145371,-0.139612 0.16771,-0.25131 0.03351,-0.122869 0.02236,-0.228934 -0.0335,-0.318293 -0.56966,-0.882415 -1.312634,-1.574824 -2.228558,-2.077465 -0.904754,-0.502642 -1.971376,-0.754187 -3.200054,-0.754187 z m -62.210201,0.03374 c -0.536151,0 -1.08904,0.06121 -1.658701,0.184072 -0.56966,0.111698 -1.089095,0.318383 -1.558227,0.619967 -0.457963,0.290416 -0.837875,0.68693 -1.139465,1.189571 -0.3015825,0.502641 -0.45225,1.139294 -0.45225,1.91001 0,0.524981 0.07806,0.982955 0.234435,1.373899 0.16755,0.379773 0.38538,0.709379 0.65346,0.988624 0.268072,0.279245 0.569672,0.508232 0.904767,0.68695 0.346263,0.178716 0.692724,0.329644 1.038988,0.452512 0.346264,0.111697 0.681317,0.200909 1.005242,0.267928 0.335094,0.05584 0.625541,0.106158 0.871277,0.150837 0.256906,0.05585 0.508196,0.100455 0.753932,0.133964 0.245736,0.03351 0.457868,0.07811 0.636585,0.133964 0.189887,0.05585 0.340814,0.128461 0.452512,0.21782 0.111698,0.07819 0.167455,0.189958 0.167455,0.335166 0,0.279245 -0.128369,0.491632 -0.385275,0.63684 -0.256905,0.134038 -0.631116,0.200946 -1.122587,0.200946 -0.513812,0 -1.066701,-0.111769 -1.658701,-0.335166 -0.591999,-0.223396 -1.18975,-0.530442 -1.79292,-0.921386 -0.08936,-0.05585 -0.18972,-0.0727 -0.301418,-0.05036 -0.111699,0.02234 -0.201165,0.07835 -0.268185,0.167711 l -1.2900445,1.859646 c -0.06705,0.08936 -0.095025,0.195424 -0.08385,0.318292 0.011175,0.111698 0.0615,0.201165 0.1508325,0.268184 0.312757,0.256905 0.653512,0.502492 1.022115,0.737058 0.379775,0.223396 0.78744,0.418929 1.223063,0.586476 0.435622,0.167548 0.904748,0.295916 1.407389,0.385275 0.502642,0.100528 1.044379,0.150837 1.625209,0.150837 0.714868,0 1.362672,-0.07261 1.943503,-0.21782 0.591999,-0.156377 1.094579,-0.390812 1.507862,-0.703566 0.424452,-0.312755 0.754058,-0.709268 0.988624,-1.189571 0.234565,-0.491471 0.351784,-1.072367 0.351784,-1.742554 0,-0.714869 -0.145224,-1.306915 -0.43564,-1.776047 -0.279245,-0.480302 -0.631153,-0.865665 -1.055605,-1.156079 -0.413283,-0.301585 -0.860106,-0.524869 -1.340408,-0.670077 -0.480302,-0.156377 -0.921422,-0.27385 -1.323535,-0.352039 -0.07819,-0.01117 -0.256867,-0.03892 -0.536111,-0.0836 -0.279246,-0.05585 -0.569693,-0.12846 -0.871278,-0.217819 -0.301585,-0.08936 -0.56973,-0.195424 -0.804296,-0.318292 -0.234566,-0.122868 -0.351783,-0.262644 -0.351783,-0.419022 0,-0.156377 0.0446,-0.279298 0.133963,-0.368657 0.100529,-0.08936 0.22345,-0.150563 0.368658,-0.184072 0.145207,-0.04468 0.296134,-0.06724 0.452511,-0.06724 0.167548,-0.01117 0.312772,-0.01662 0.435639,-0.01662 0.413283,0 0.865554,0.07806 1.357025,0.234437 0.491472,0.145208 1.022058,0.396753 1.591719,0.754188 0.08936,0.06702 0.189976,0.08932 0.301675,0.06698 0.111698,-0.02234 0.200909,-0.07835 0.267928,-0.16771 l 1.306916,-1.859647 c 0.06702,-0.08935 0.09503,-0.189971 0.08386,-0.30167 -0.01117,-0.111698 -0.06148,-0.206613 -0.150838,-0.284801 -0.681358,-0.524981 -1.396326,-0.921495 -2.144703,-1.18957 -0.737207,-0.279245 -1.574841,-0.418765 -2.513104,-0.418766 z m 5.797014,0.167455 c -0.111699,0 -0.206613,0.03916 -0.284802,0.117346 -0.07819,0.07819 -0.117347,0.173104 -0.117347,0.284801 v 2.278668 c 0,0.111698 0.03916,0.206613 0.117347,0.284801 0.07819,0.07819 0.173103,0.117346 0.284802,0.117346 h 2.37914 c 0.122868,0 0.218038,0.0389 0.285057,0.117091 0.07819,0.07819 0.117091,0.173104 0.117091,0.284802 v 8.377355 c 0,0.111699 0.03916,0.206869 0.117346,0.285058 0.07819,0.07819 0.173103,0.11709 0.284802,0.11709 h 2.513359 c 0.122868,0 0.217783,-0.0389 0.284802,-0.11709 0.07819,-0.07819 0.11709,-0.173359 0.11709,-0.285058 v -8.377353 c 0,-0.111698 0.03916,-0.206613 0.117347,-0.284802 0.07819,-0.07819 0.173104,-0.11709 0.284802,-0.11709 h 2.345648 c 0.122869,0 0.217783,-0.03916 0.284802,-0.117347 0.07819,-0.07819 0.117347,-0.173103 0.117347,-0.284801 v -2.278668 c 0,-0.111697 -0.03916,-0.206613 -0.117347,-0.284801 -0.06702,-0.07819 -0.161933,-0.117346 -0.284802,-0.117346 z m 10.957697,0 c -0.111698,0 -0.206613,0.03916 -0.284801,0.117346 -0.07819,0.07819 -0.117346,0.173104 -0.117346,0.284801 v 11.460063 c 0,0.111699 0.03916,0.206869 0.117346,0.285058 0.07819,0.07819 0.173103,0.11709 0.284801,0.11709 h 2.496487 c 0.111698,0 0.206613,-0.0389 0.284802,-0.11709 0.07819,-0.07819 0.117346,-0.173359 0.117346,-0.285058 v -2.71405 c 0,-0.111698 0.0389,-0.206613 0.117091,-0.284802 0.07819,-0.07819 0.173103,-0.117346 0.284801,-0.117346 h 0.368657 c 0.111698,0 0.229171,0.03345 0.352039,0.100473 0.122868,0.05585 0.217783,0.128461 0.284801,0.217819 0.346264,0.491472 0.69247,0.977453 1.038733,1.457755 0.357435,0.480301 0.714791,0.954875 1.072224,1.424007 0.06702,0.08936 0.161933,0.167673 0.284801,0.234693 0.134038,0.05585 0.256959,0.0836 0.368658,0.0836 h 3.116454 c 0.111698,0 0.184309,-0.05006 0.217818,-0.150581 0.03351,-0.111698 0.01665,-0.212317 -0.05036,-0.301675 -0.368604,-0.491472 -0.78742,-1.033209 -1.256552,-1.625209 -0.469132,-0.592 -0.915955,-1.167192 -1.340407,-1.725682 -0.06702,-0.08936 -0.08932,-0.178826 -0.06698,-0.268184 0.03351,-0.100528 0.09497,-0.184291 0.184329,-0.25131 0.268075,-0.167548 0.508214,-0.374232 0.72044,-0.619968 0.212226,-0.256905 0.396608,-0.541649 0.552986,-0.854404 0.156376,-0.312755 0.273594,-0.64236 0.351783,-0.988624 0.08936,-0.357434 0.133964,-0.71479 0.133964,-1.072224 0,-0.647849 -0.11177,-1.239895 -0.335166,-1.776047 -0.212227,-0.53615 -0.513826,-0.999573 -0.904768,-1.390516 -0.379775,-0.390943 -0.843197,-0.692543 -1.390517,-0.904769 -0.54732,-0.223395 -1.144816,-0.335165 -1.792664,-0.335165 z m 25.936363,0 c -0.111697,0 -0.206868,0.03916 -0.285057,0.117346 -0.07819,0.07819 -0.117091,0.173104 -0.117091,0.284801 v 11.460063 c 0,0.111699 0.0389,0.206869 0.117091,0.285058 0.07819,0.07819 0.17336,0.11709 0.285057,0.11709 h 2.496231 c 0.111699,0 0.206869,-0.0389 0.285057,-0.11709 0.07819,-0.07819 0.117091,-0.173359 0.117091,-0.285058 v -5.997958 c 0,-0.111698 0.03371,-0.173158 0.100729,-0.184328 0.07819,-0.02234 0.150801,0.01112 0.217819,0.100473 l 4.372751,6.149053 c 0.06702,0.08936 0.162189,0.167418 0.285057,0.234437 0.122868,0.06702 0.240086,0.100473 0.351783,0.100473 h 2.479614 c 0.111698,0 0.206613,-0.0389 0.284802,-0.11709 0.07819,-0.07819 0.117346,-0.17336 0.117346,-0.285058 v -11.46006 c 0,-0.111697 -0.03916,-0.206613 -0.117346,-0.284801 -0.07819,-0.07819 -0.173104,-0.117346 -0.284802,-0.117346 h -2.479614 c -0.111697,0 -0.206612,0.03916 -0.284801,0.117346 -0.07819,0.07819 -0.117346,0.173104 -0.117346,0.284801 v 5.998216 c 0,0.111698 -0.03916,0.173158 -0.117347,0.184329 -0.06702,0.01117 -0.133927,-0.02799 -0.200946,-0.117347 l -4.356388,-6.149053 c -0.06702,-0.08936 -0.161934,-0.161971 -0.284801,-0.217819 -0.122868,-0.06702 -0.240086,-0.100473 -0.351784,-0.100473 z m 57.418426,0 c -0.11169,0 -0.20661,0.03916 -0.2848,0.117346 -0.0782,0.07819 -0.11734,0.173104 -0.11734,0.284801 v 11.460063 c 0,0.111699 0.0391,0.206869 0.11734,0.285058 0.0782,0.07819 0.17311,0.11709 0.2848,0.11709 h 2.49649 c 0.1117,0 0.20661,-0.0389 0.2848,-0.11709 0.0782,-0.07819 0.11709,-0.173359 0.11709,-0.285058 v -5.997958 c 0,-0.111698 0.0337,-0.173158 0.10073,-0.184328 0.0782,-0.02234 0.1508,0.01112 0.21782,0.100473 l 4.37301,6.149053 c 0.067,0.08936 0.16193,0.167418 0.28481,0.234437 0.12286,0.06702 0.24008,0.100473 0.35178,0.100473 h 2.47961 c 0.11169,0 0.20661,-0.0389 0.2848,-0.11709 0.0782,-0.07819 0.11735,-0.17336 0.11735,-0.285058 v -11.46006 c 0,-0.111697 -0.0392,-0.206613 -0.11735,-0.284801 -0.0782,-0.07819 -0.17311,-0.117346 -0.2848,-0.117346 h -2.47961 c -0.1117,0 -0.20661,0.03916 -0.28481,0.117346 -0.0782,0.07819 -0.11734,0.173104 -0.11734,0.284801 v 5.998216 c 0,0.111698 -0.0391,0.173158 -0.11735,0.184329 -0.067,0.01117 -0.13393,-0.02799 -0.20095,-0.117347 l -4.35639,-6.149053 c -0.067,-0.08936 -0.16193,-0.161971 -0.2848,-0.217819 -0.12287,-0.06702 -0.24008,-0.100473 -0.35178,-0.100473 z m -29.237142,0.01662 c -0.111697,0 -0.206613,0.03916 -0.284801,0.117346 -0.07819,0.07819 -0.117347,0.173103 -0.117347,0.284801 V 73.46336 c 0,0.111698 0.03916,0.206868 0.117347,0.285057 0.07819,0.07819 0.173104,0.11709 0.284801,0.11709 h 2.529978 c 0.111698,0 0.206613,-0.0389 0.284802,-0.11709 0.07819,-0.07819 0.117346,-0.173359 0.117346,-0.285057 v -5.394864 c 0,-0.111698 0.05031,-0.173159 0.150837,-0.184329 0.100529,-0.01117 0.178589,0.02799 0.234437,0.117346 l 2.81478,4.540462 c 0.06702,0.08936 0.162189,0.133964 0.285057,0.133964 0.122868,0 0.212081,-0.0446 0.267926,-0.133964 l 2.814779,-4.540462 c 0.06705,-0.08936 0.150788,-0.128516 0.25131,-0.117346 0.10053,0.01117 0.15084,0.07263 0.15084,0.184329 v 5.394865 c 0,0.111698 0.03915,0.206869 0.117345,0.285058 0.07819,0.07819 0.173108,0.11709 0.284805,0.11709 h 2.529975 c 0.111697,0 0.206617,-0.0389 0.284805,-0.11709 0.07819,-0.07819 0.117345,-0.17336 0.117345,-0.285058 V 62.019919 c 0,-0.111699 -0.03915,-0.206613 -0.117345,-0.284802 -0.07819,-0.07819 -0.173108,-0.117346 -0.284805,-0.117346 h -2.345647 c -0.111698,0 -0.228915,0.03371 -0.351788,0.100729 -0.122865,0.06702 -0.218032,0.145078 -0.285052,0.234437 l -3.216675,4.724789 c -0.05588,0.08936 -0.12846,0.13422 -0.217818,0.13422 -0.08936,0 -0.167674,-0.04487 -0.234692,-0.13422 l -3.216928,-4.724791 c -0.05585,-0.08936 -0.14506,-0.167418 -0.267928,-0.234437 -0.122868,-0.06702 -0.240341,-0.100728 -0.35204,-0.100728 z m 19.854542,0 c -0.12286,0 -0.24033,0.03916 -0.35203,0.117346 -0.10053,0.06702 -0.17315,0.150782 -0.21782,0.25131 l -4.858758,11.342974 c -0.0447,0.08936 -0.0615,0.167674 -0.05033,0.234693 0.01117,0.06702 0.03915,0.122776 0.08386,0.167455 0.03352,0.04468 0.08382,0.07813 0.150838,0.100473 0.0559,0.02234 0.1116,0.0335 0.16745,0.0335 h 2.88177 c 0.11169,0 0.21776,-0.03345 0.31829,-0.100473 0.1117,-0.07819 0.19001,-0.1674 0.23469,-0.267927 l 0.46913,-1.005498 c 0.0447,-0.100528 0.11729,-0.184292 0.21782,-0.251311 0.1117,-0.07819 0.22892,-0.117091 0.35178,-0.117091 h 3.53523 c 0.11169,0 0.21776,0.0389 0.31829,0.117091 0.1117,0.06702 0.19571,0.150783 0.25156,0.251311 l 0.45226,1.005498 c 0.0559,0.100527 0.13416,0.189738 0.23469,0.267927 0.1117,0.06702 0.22892,0.100473 0.35179,0.100473 h 2.86488 c 0.17871,0 0.29619,-0.05575 0.35204,-0.167455 0.0671,-0.111698 0.0782,-0.217764 0.0335,-0.318292 l -4.8925,-11.393345 c -0.0447,-0.100528 -0.12273,-0.184292 -0.23443,-0.25131 -0.10053,-0.07819 -0.2066,-0.117346 -0.31829,-0.117346 z m -56.530528,2.965616 c 0.413283,0 0.804093,0.08947 1.172697,0.268184 0.368604,0.167547 0.692506,0.396534 0.971751,0.686949 0.279245,0.279245 0.497081,0.614299 0.653458,1.005242 0.156377,0.379773 0.234692,0.776288 0.234692,1.18957 0,0.424453 -0.07832,0.82667 -0.234692,1.206444 -0.156377,0.379773 -0.374213,0.714827 -0.653458,1.005242 -0.279245,0.290415 -0.603147,0.524849 -0.971751,0.703567 -0.368604,0.167547 -0.759414,0.25131 -1.172697,0.25131 -0.413283,0 -0.804349,-0.08376 -1.172952,-0.25131 -0.368604,-0.178718 -0.692506,-0.413152 -0.971751,-0.703567 -0.268076,-0.290415 -0.480208,-0.625469 -0.636585,-1.005242 -0.156377,-0.379774 -0.234693,-0.781991 -0.234693,-1.206444 0,-0.413282 0.07832,-0.809797 0.234693,-1.18957 0.156377,-0.390943 0.368509,-0.725997 0.636585,-1.005242 0.279245,-0.290415 0.603147,-0.519402 0.971751,-0.686949 0.368603,-0.178717 0.759669,-0.268184 1.172952,-0.268184 z m -14.141134,0.100732 h 1.776046 c 0.234566,0 0.4301,0.05006 0.586477,0.150582 0.167547,0.08936 0.295916,0.206832 0.385274,0.352039 0.100528,0.134037 0.167692,0.279261 0.201202,0.435638 0.04468,0.145208 0.06698,0.273577 0.06698,0.385275 0,0.212227 -0.03916,0.396608 -0.117347,0.552986 -0.07819,0.156377 -0.178551,0.290193 -0.301419,0.401892 -0.122868,0.100528 -0.25694,0.178843 -0.402147,0.234693 -0.145208,0.04468 -0.284984,0.06698 -0.419022,0.06698 h -1.776046 c -0.111698,0 -0.206613,-0.03916 -0.284802,-0.117346 -0.07819,-0.07819 -0.11709,-0.173103 -0.11709,-0.284802 v -1.776044 c 0,-0.111698 0.0389,-0.206613 0.11709,-0.284802 0.07819,-0.07819 0.173104,-0.117091 0.284802,-0.117091 z m 71.827492,2.043974 c 0.0559,0 0.10616,0.05031 0.15084,0.150838 0.13404,0.323924 0.27926,0.675832 0.43564,1.055606 0.15637,0.368603 0.29045,0.692506 0.40215,0.971751 0.0559,0.100528 0.0559,0.189739 0,0.267928 -0.0447,0.06702 -0.12274,0.100473 -0.23444,0.100473 h -1.49125 c -0.12287,0 -0.20663,-0.03345 -0.25131,-0.100473 -0.0447,-0.07819 -0.0447,-0.1674 0,-0.267928 l 0.83779,-2.027357 c 0.0447,-0.100528 0.0947,-0.150838 0.15058,-0.150838 z" style="color:#000;-inkscape-font-specification:Heavitas;fill:#fff;stroke-linecap:round;stroke-linejoin:round;stroke-miterlimit:128;-inkscape-stroke:none;paint-order:stroke fill markers"/></svg>