<svg xmlns="http://www.w3.org/2000/svg" xml:space="preserve" width="512" height="512" viewBox="0 0 135.46666 135.46667"><path d="m 67.733329,135.46666 8.465633,-8.46563 39.429118,-39.42912 H 76.198962 V 1e-6 H 59.267695 V 87.57191 H 19.838581 l 39.429114,39.42912 z" style="fill:#ad1f1f;fill-opacity:1;stroke:none;stroke-width:33.8667;stroke-miterlimit:128;stroke-dasharray:none;stroke-opacity:1;paint-order:stroke fill markers" transform="translate(-0.02258018)"/><path d="m 89.993989,55.033333 c -1.704303,0 -3.409662,0.341715 -4.972306,1.021126 -1.42078,0.617731 -2.700954,1.525533 -3.807003,2.607593 -0.112098,-0.12594 -0.154633,-0.300064 -0.273368,-0.419613 -0.935518,-0.956078 -2.085909,-1.689208 -3.302641,-2.166276 -1.26031,-0.508563 -2.613109,-0.751892 -3.95118,-0.751892 h -6.949447 c -1.138321,0 -2.557141,0.580526 -3.37292,1.396297 -0.09986,0.09986 -0.153803,0.266605 -0.24598,0.382923 -0.531383,-0.337918 -0.987672,-0.80126 -1.564246,-1.027328 -1.260315,-0.508569 -2.61517,-0.751892 -3.953247,-0.751892 h -6.947379 c -0.626674,0 -1.315401,0.199733 -1.964738,0.494027 -0.649382,-0.294339 -1.340081,-0.494027 -1.966805,-0.494027 H 35.353397 c -0.442508,0 -0.930693,0.149708 -1.406116,0.304891 -0.47869,-0.150092 -0.973332,-0.304891 -1.365291,-0.304891 H 20.787361 c -1.138321,0 -2.554377,0.577238 -3.373437,1.396297 -0.819034,0.819043 -1.396297,2.241578 -1.396297,3.373438 v 3.037023 c 0,1.131879 0.577242,2.553866 1.396297,3.372921 0.699988,0.699995 1.821843,1.145726 2.847888,1.283126 v 7.5861 c 0,1.13189 0.577247,2.553863 1.396297,3.372921 0.815796,0.815795 2.234593,1.396297 3.372921,1.396297 h 3.351733 c 1.025761,0 2.537399,-0.548029 3.470589,-1.548743 0.0054,-0.006 0.0086,-0.01517 0.01395,-0.02119 0.0021,0.0023 0.0036,0.0055 0.0057,0.0078 0.02849,-0.03095 0.07656,-0.04049 0.103869,-0.07235 l -0.08992,0.0956 c 0.0362,0.03964 0.05426,0.105416 0.09147,0.142627 0.815803,0.81581 2.236666,1.396297 3.374988,1.396297 h 11.369332 c 0.626724,0 1.317423,-0.199687 1.966805,-0.494027 0.649337,0.294295 1.338064,0.494027 1.964738,0.494027 h 3.330029 c 0.994793,0 2.145046,-0.486282 2.97863,-1.142566 0.206007,0.14872 0.403778,0.405809 0.601513,0.513664 0.129379,0.0708 0.262369,0.134796 0.398426,0.191719 0.563009,0.234574 1.262624,0.437183 2.11925,0.437183 h 4.154268 c 0.282544,0 0.684056,-0.243248 1.033012,-0.318327 0.496055,0.168629 1.006501,0.318327 1.469161,0.318327 h 3.330029 c 0.994794,0 2.144519,-0.486267 2.978113,-1.142566 0.206009,0.148721 0.404294,0.405808 0.602031,0.513664 0.129378,0.0708 0.262368,0.134796 0.398425,0.191719 0.561244,0.233839 1.262107,0.437183 2.118734,0.437183 h 4.156335 c 0.710056,0 1.710152,-0.190646 2.59364,-0.802535 0.324627,-0.224832 0.563473,-0.520991 0.805119,-0.808736 0.454876,0.266237 0.816667,0.670635 1.300696,0.881083 1.562644,0.679411 3.268003,1.021126 4.972306,1.021126 1.704302,0 3.410176,-0.34171 4.972823,-1.021126 0.883945,-0.384323 1.598092,-1.043269 2.375049,-1.609721 0.193786,0.331486 0.359583,0.697596 0.605648,0.943612 0.815946,0.816017 2.234551,1.396297 3.372921,1.396297 h 3.32796 c 0.99498,0 2.14508,-0.487664 2.97863,-1.144116 0.20625,0.1489 0.40368,0.407308 0.60151,0.515214 0.12938,0.0708 0.26237,0.134796 0.39843,0.191719 0.56298,0.234552 1.2647,0.437183 2.12132,0.437183 h 4.15427 c 0.71005,0 1.71224,-0.190678 2.5957,-0.802535 0.88345,-0.611858 1.46556,-1.556741 1.71101,-2.292883 0.0135,-0.04028 0.0264,-0.08077 0.0388,-0.12144 0.35837,-1.194009 0.065,-3.091449 -0.73433,-4.157886 l -0.002,-0.0021 c -0.47773,-0.636956 -1.02169,-1.336878 -1.60559,-2.076359 0.12427,-0.210547 0.28957,-0.397243 0.39843,-0.614949 0.35489,-0.709788 0.61768,-1.466317 0.7953,-2.236556 0.19192,-0.784189 0.29869,-1.594418 0.29869,-2.406055 0,-1.336815 -0.2445,-2.692959 -0.76378,-3.955314 -0.47682,-1.192005 -1.19489,-2.31205 -2.11098,-3.234428 -0.93553,-0.956097 -2.08644,-1.688693 -3.30316,-2.165759 -1.26028,-0.508546 -2.61465,-0.751892 -3.95273,-0.751892 h -6.94738 c -1.13837,0 -2.556975,0.58028 -3.372921,1.396297 -0.249089,0.249065 -0.41799,0.618597 -0.6134,0.954981 -0.77516,-0.569925 -1.48383,-1.236974 -2.367297,-1.62109 -1.562647,-0.679415 -3.268521,-1.021126 -4.972823,-1.021126 z m -54.039078,1.687235 0.220658,0.238228 c -0.03246,-0.03787 -0.08887,-0.04919 -0.12299,-0.08578 -0.03859,-0.04252 -0.05789,-0.112673 -0.09767,-0.152446 z m 28.885058,1.496033 0.04289,0.04341 c -0.0073,-0.0075 -0.01801,-0.01009 -0.02532,-0.01757 -0.0073,-0.0074 -0.01023,-0.0185 -0.01757,-0.02584 z m 34.083707,0.529683 0.05684,0.05839 c -0.0089,-0.0091 -0.02259,-0.01265 -0.03152,-0.0217 -0.01073,-0.0106 -0.01455,-0.02613 -0.02532,-0.03669 z m -17.886763,0.02894 c -0.005,0.005 -0.0063,0.01255 -0.01137,0.01757 -0.005,0.005 -0.01261,0.0069 -0.01757,0.01189 z" style="color:#000;-inkscape-font-specification:Heavitas;fill:#ad1f1f;stroke-linecap:round;stroke-linejoin:round;stroke-miterlimit:128;-inkscape-stroke:none;paint-order:stroke fill markers"/><path d="m 89.9942,59.266666 c -1.161636,0 -2.256328,0.223364 -3.28393,0.670148 -1.0276,0.446783 -1.92106,1.057404 -2.68059,1.831828 -0.759532,0.759531 -1.362549,1.653331 -1.809331,2.680932 -0.446784,1.027601 -0.670148,2.122293 -0.670148,3.283929 0,1.161636 0.223364,2.255987 0.670148,3.283588 0.446782,1.0276 1.049799,1.928664 1.809331,2.703089 0.75953,0.75953 1.65299,1.362888 2.68059,1.809671 1.027602,0.446784 2.122294,0.670148 3.28393,0.670148 1.161635,0 2.256329,-0.223364 3.283926,-0.670148 1.027604,-0.446783 1.921061,-1.050141 2.680595,-1.809671 0.774422,-0.774425 1.385046,-1.675489 1.831827,-2.703089 0.446781,-1.027601 0.670149,-2.121952 0.670149,-3.283588 0,-1.161636 -0.223368,-2.256328 -0.670149,-3.283929 C 97.343767,63.421973 96.733143,62.528173 95.958721,61.768642 95.199187,60.994218 94.30573,60.383597 93.278126,59.936814 92.250529,59.49003 91.155835,59.266666 89.9942,59.266666 Z m -69.206567,0.29042 c -0.148928,0 -0.27582,0.05221 -0.380069,0.156459 -0.104249,0.10425 -0.156118,0.2308 -0.156118,0.379728 v 3.038162 c 0,0.148928 0.05187,0.275479 0.156118,0.379727 0.104249,0.10425 0.231141,0.156459 0.380069,0.156459 h 3.172124 c 0.16382,0 0.290371,0.05221 0.379727,0.156459 0.10425,0.104249 0.156459,0.230801 0.156459,0.379728 v 11.169585 c 0,0.148926 0.05187,0.275478 0.156118,0.379727 0.104249,0.104249 0.2308,0.156459 0.379727,0.156459 h 3.35108 c 0.163821,0 0.290372,-0.05221 0.379728,-0.156459 0.104249,-0.104249 0.156459,-0.230801 0.156459,-0.379727 V 64.203808 c 0,-0.148927 0.05187,-0.275479 0.156118,-0.379728 0.104249,-0.104249 0.231141,-0.156459 0.380068,-0.156459 h 3.12747 c 0.163821,0 0.290371,-0.05221 0.379728,-0.156459 0.104249,-0.104248 0.156118,-0.230799 0.156118,-0.379727 v -3.038162 c 0,-0.148928 -0.05187,-0.275478 -0.156118,-0.379728 -0.08936,-0.104249 -0.215907,-0.156459 -0.379728,-0.156459 z m 14.564977,0 c -0.148928,0 -0.275479,0.05221 -0.379727,0.156459 -0.10425,0.10425 -0.156459,0.2308 -0.156459,0.379728 v 15.28012 c 0,0.148926 0.05221,0.275478 0.156459,0.379727 0.104248,0.104249 0.230799,0.156459 0.379727,0.156459 h 11.370697 c 0.148928,0 0.275479,-0.05221 0.379728,-0.156459 0.104249,-0.104249 0.156459,-0.230801 0.156459,-0.379727 v -3.082817 c 0,-0.148928 -0.05221,-0.275478 -0.156459,-0.379727 -0.104249,-0.10425 -0.2308,-0.156459 -0.379728,-0.156459 h -6.947585 c -0.148928,0 -0.275478,-0.05221 -0.379728,-0.156459 -0.104248,-0.104249 -0.156458,-0.230801 -0.156458,-0.379727 V 70.36944 c 0,-0.148926 0.05221,-0.275478 0.156458,-0.379727 0.10425,-0.104249 0.2308,-0.156459 0.379728,-0.156459 h 6.053828 c 0.148928,0 0.27582,-0.05221 0.380068,-0.156459 0.10425,-0.104249 0.156118,-0.230799 0.156118,-0.379727 v -3.082817 c 0,-0.148927 -0.05187,-0.275478 -0.156118,-0.379727 -0.104248,-0.10425 -0.23114,-0.156459 -0.380068,-0.156459 h -6.053828 c -0.148928,0 -0.275478,-0.05221 -0.379728,-0.156459 -0.104248,-0.104249 -0.156458,-0.2308 -0.156458,-0.379727 v -0.938071 c 0,-0.148927 0.05221,-0.275479 0.156458,-0.379728 0.10425,-0.104249 0.2308,-0.156459 0.379728,-0.156459 h 6.947585 c 0.148928,0 0.275479,-0.05221 0.379728,-0.156459 0.104249,-0.104248 0.156459,-0.230799 0.156459,-0.379727 v -3.038162 c 0,-0.148928 -0.05221,-0.275478 -0.156459,-0.379728 -0.104249,-0.104249 -0.2308,-0.156459 -0.379728,-0.156459 z m 15.302277,0 c -0.148928,0 -0.275478,0.05221 -0.379728,0.156459 -0.104249,0.10425 -0.156458,0.2308 -0.156458,0.379728 v 15.28012 c 0,0.148926 0.05221,0.275478 0.156458,0.379727 0.10425,0.104249 0.2308,0.156459 0.379728,0.156459 h 3.328582 c 0.148928,0 0.275478,-0.05221 0.379728,-0.156459 0.104249,-0.104249 0.156459,-0.230801 0.156459,-0.379727 V 71.75439 c 0,-0.148928 0.05221,-0.275478 0.156458,-0.379728 0.10425,-0.104249 0.2308,-0.156458 0.379728,-0.156458 h 0.491533 c 0.148928,0 0.305214,0.0446 0.469035,0.133961 0.16382,0.07446 0.290371,0.171278 0.379728,0.29042 0.461675,0.655281 0.923273,1.303244 1.38495,1.943633 0.476567,0.640389 0.953375,1.273484 1.429943,1.898979 0.08936,0.119143 0.215908,0.223221 0.379728,0.312577 0.178714,0.07446 0.342605,0.111805 0.491533,0.111805 h 4.154848 c 0.148928,0 0.245742,-0.06708 0.29042,-0.201112 0.04468,-0.148928 0.02255,-0.283084 -0.06681,-0.402226 -0.491461,-0.655281 -1.050215,-1.377585 -1.67571,-2.166902 -0.625497,-0.789316 -1.220909,-1.556225 -1.786834,-2.300863 -0.08936,-0.119142 -0.119434,-0.238429 -0.08965,-0.357572 0.04468,-0.134034 0.126624,-0.245717 0.245766,-0.335073 0.357427,-0.223392 0.677606,-0.498625 0.960568,-0.826266 0.282963,-0.342534 0.528801,-0.722526 0.737299,-1.139524 0.208499,-0.416998 0.364787,-0.856122 0.469036,-1.317799 0.119142,-0.476567 0.178956,-0.953375 0.178956,-1.429943 0,-0.863781 -0.149023,-1.653162 -0.446879,-2.368015 -0.282962,-0.714853 -0.685087,-1.332738 -1.206334,-1.853985 -0.506354,-0.521246 -1.12458,-0.923371 -1.854326,-1.206334 -0.729745,-0.297855 -1.526391,-0.446879 -2.390171,-0.446879 z m 16.084229,0 c -0.148928,0 -0.275478,0.05221 -0.379728,0.156459 -0.104248,0.10425 -0.156458,0.2308 -0.156458,0.379728 v 15.28012 c 0,0.148926 0.05221,0.275478 0.156458,0.379727 0.10425,0.104249 0.2308,0.156459 0.379728,0.156459 h 3.328582 c 0.148928,0 0.275479,-0.05221 0.379728,-0.156459 0.10425,-0.104249 0.156459,-0.230801 0.156459,-0.379727 V 71.75439 c 0,-0.148928 0.05221,-0.275478 0.156458,-0.379728 0.10425,-0.104249 0.230801,-0.156458 0.379728,-0.156458 h 0.491533 c 0.148928,0 0.305215,0.0446 0.469035,0.133961 0.163821,0.07446 0.290372,0.171278 0.379728,0.29042 0.461676,0.655281 0.923274,1.303244 1.38495,1.943633 0.476568,0.640389 0.953375,1.273484 1.429944,1.898979 0.08936,0.119143 0.215907,0.223221 0.379727,0.312577 0.178714,0.07446 0.342264,0.111805 0.491192,0.111805 h 4.155189 c 0.148928,0 0.245742,-0.06708 0.29042,-0.201112 0.04468,-0.148928 0.02255,-0.283084 -0.06681,-0.402226 -0.491461,-0.655281 -1.050215,-1.377585 -1.67571,-2.166902 -0.625497,-0.789316 -1.22125,-1.556225 -1.787175,-2.300863 -0.08936,-0.119142 -0.119093,-0.238429 -0.08931,-0.357572 0.04468,-0.134034 0.126625,-0.245717 0.245767,-0.335073 0.357427,-0.223392 0.677605,-0.498625 0.960568,-0.826266 0.282963,-0.342534 0.528801,-0.722526 0.737298,-1.139524 0.208499,-0.416998 0.364787,-0.856122 0.469036,-1.317799 0.119142,-0.476567 0.178615,-0.953375 0.178615,-1.429943 0,-0.863781 -0.148682,-1.653162 -0.446538,-2.368015 -0.282962,-0.714853 -0.685086,-1.332738 -1.206334,-1.853985 -0.506354,-0.521246 -1.12458,-0.923371 -1.854325,-1.206334 -0.729746,-0.297855 -1.526391,-0.446879 -2.390172,-0.446879 z m 34.581124,0 c -0.14892,0 -0.27548,0.05221 -0.37972,0.156459 -0.10426,0.10425 -0.15647,0.2308 -0.15647,0.379728 v 15.28012 c 0,0.148926 0.0522,0.275478 0.15647,0.379727 0.10424,0.104249 0.2308,0.156459 0.37972,0.156459 h 3.32859 c 0.14893,0 0.27547,-0.05221 0.37972,-0.156459 0.10425,-0.104249 0.15646,-0.230801 0.15646,-0.379727 V 71.75439 c 0,-0.148928 0.0518,-0.275478 0.15612,-0.379728 0.10425,-0.104249 0.23114,-0.156458 0.38007,-0.156458 h 0.49119 c 0.14893,0 0.30555,0.0446 0.46938,0.133961 0.16382,0.07446 0.29037,0.171278 0.37973,0.29042 0.46167,0.655281 0.92327,1.303244 1.38494,1.943633 0.47657,0.640389 0.95304,1.273484 1.42961,1.898979 0.0893,0.119143 0.2159,0.223221 0.37972,0.312577 0.17872,0.07446 0.34261,0.111805 0.49154,0.111805 h 4.15518 c 0.14893,0 0.24574,-0.06708 0.29043,-0.201112 0.0447,-0.148928 0.0222,-0.283084 -0.0671,-0.402226 -0.49147,-0.655281 -1.04988,-1.377585 -1.67538,-2.166902 -0.62549,-0.789316 -1.22124,-1.556225 -1.78717,-2.300863 -0.0893,-0.119142 -0.11909,-0.238429 -0.0893,-0.357572 0.0447,-0.134034 0.12662,-0.245717 0.24577,-0.335073 0.35742,-0.223392 0.6776,-0.498625 0.96056,-0.826266 0.28297,-0.342534 0.5288,-0.722526 0.7373,-1.139524 0.2085,-0.416998 0.36478,-0.856122 0.46904,-1.317799 0.11914,-0.476567 0.17861,-0.953375 0.17861,-1.429943 0,-0.863781 -0.14902,-1.653162 -0.44687,-2.368015 -0.28297,-0.714853 -0.68475,-1.332738 -1.206,-1.853985 -0.50635,-0.521246 -1.12458,-0.923371 -1.85432,-1.206334 -0.72976,-0.297855 -1.52639,-0.446879 -2.39018,-0.446879 z M 89.9942,63.53366 c 0.551032,0 1.072444,0.118946 1.563905,0.357231 0.491464,0.22339 0.923324,0.528701 1.295641,0.915914 0.372323,0.372318 0.662761,0.819049 0.87126,1.340295 0.2085,0.506354 0.312575,1.035371 0.312575,1.586403 0,0.565925 -0.104075,1.101865 -0.312575,1.608218 -0.208499,0.506354 -0.498937,0.953084 -0.87126,1.340296 -0.372317,0.387213 -0.804177,0.700128 -1.295641,0.938411 -0.491461,0.223392 -1.012873,0.335075 -1.563905,0.335075 -0.551033,0 -1.072104,-0.111683 -1.563565,-0.335075 -0.491461,-0.238283 -0.923323,-0.551198 -1.295642,-0.938411 -0.357427,-0.387212 -0.640605,-0.833942 -0.849104,-1.340296 -0.208499,-0.506353 -0.312576,-1.042293 -0.312576,-1.608218 0,-0.551032 0.104077,-1.080049 0.312576,-1.586403 0.208499,-0.521246 0.491677,-0.967977 0.849104,-1.340295 0.372319,-0.387213 0.804181,-0.692524 1.295642,-0.915914 0.491461,-0.238285 1.012532,-0.357231 1.563565,-0.357231 z m -34.938358,0.133961 h 2.368015 c 0.312748,0 0.573454,0.06708 0.781953,0.201113 0.223392,0.119142 0.394547,0.275429 0.513689,0.469035 0.134035,0.178714 0.223244,0.372342 0.267923,0.58084 0.05957,0.193606 0.08931,0.364762 0.08931,0.51369 0,0.282962 -0.05187,0.5288 -0.156118,0.737298 -0.104249,0.208499 -0.238404,0.387259 -0.402225,0.536187 -0.163821,0.134035 -0.342581,0.238114 -0.536186,0.312576 -0.193607,0.05957 -0.37963,0.08965 -0.558343,0.08965 h -2.368015 c -0.148928,0 -0.275478,-0.05221 -0.379728,-0.156459 -0.104248,-0.104249 -0.156458,-0.2308 -0.156458,-0.379728 v -2.368014 c 0,-0.148927 0.05221,-0.275479 0.156458,-0.379728 0.10425,-0.104249 0.2308,-0.156459 0.379728,-0.156459 z m 16.084229,0 h 2.368015 c 0.312748,0 0.573113,0.06708 0.781612,0.201113 0.223392,0.119142 0.394888,0.275429 0.51403,0.469035 0.134035,0.178714 0.223244,0.372342 0.267923,0.58084 0.05957,0.193606 0.08931,0.364762 0.08931,0.51369 0,0.282962 -0.05187,0.5288 -0.156117,0.737298 -0.10425,0.208499 -0.238405,0.387259 -0.402226,0.536187 -0.16382,0.134035 -0.34258,0.238114 -0.536186,0.312576 -0.193606,0.05957 -0.37963,0.08965 -0.558343,0.08965 h -2.368015 c -0.148927,0 -0.275478,-0.05221 -0.379728,-0.156459 -0.104248,-0.104249 -0.156458,-0.2308 -0.156458,-0.379728 v -2.368014 c 0,-0.148927 0.05221,-0.275479 0.156458,-0.379728 0.10425,-0.104249 0.230801,-0.156459 0.379728,-0.156459 z m 34.581129,0 h 2.36767 c 0.31275,0 0.57345,0.06708 0.78195,0.201113 0.2234,0.119142 0.39455,0.275429 0.51369,0.469035 0.13404,0.178714 0.22359,0.372342 0.26827,0.58084 0.0596,0.193606 0.0893,0.364762 0.0893,0.51369 0,0.282962 -0.0522,0.5288 -0.15646,0.737298 -0.10424,0.208499 -0.23806,0.387259 -0.40188,0.536187 -0.16383,0.134035 -0.34258,0.238114 -0.53619,0.312576 -0.19361,0.05957 -0.37997,0.08965 -0.55869,0.08965 h -2.36767 c -0.14893,0 -0.27582,-0.05221 -0.38006,-0.156459 -0.10426,-0.104249 -0.15612,-0.2308 -0.15612,-0.379728 v -2.368014 c 0,-0.148927 0.0519,-0.275479 0.15612,-0.379728 0.10424,-0.104249 0.23113,-0.156459 0.38006,-0.156459 z" style="color:#000;-inkscape-font-specification:Heavitas;fill:#fff;stroke-linecap:round;stroke-linejoin:round;stroke-miterlimit:128;-inkscape-stroke:none;paint-order:stroke fill markers"/></svg>