<?xml version="1.0" encoding="UTF-8" standalone="no"?>
<svg
   xml:space="preserve"
   width="512"
   height="512"
   viewBox="0 0 135.46666 135.46667"
   version="1.1"
   id="svg3"
   sodipodi:docname="tradetl.svg"
   inkscape:version="1.3 (0e150ed6c4, 2023-07-21)"
   xmlns:inkscape="http://www.inkscape.org/namespaces/inkscape"
   xmlns:sodipodi="http://sodipodi.sourceforge.net/DTD/sodipodi-0.dtd"
   xmlns="http://www.w3.org/2000/svg"
   xmlns:svg="http://www.w3.org/2000/svg"><defs
     id="defs3" /><sodipodi:namedview
     id="namedview3"
     pagecolor="#505050"
     bordercolor="#eeeeee"
     borderopacity="1"
     inkscape:showpageshadow="0"
     inkscape:pageopacity="0"
     inkscape:pagecheckerboard="0"
     inkscape:deskcolor="#505050"
     inkscape:zoom="0.95117188"
     inkscape:cx="256"
     inkscape:cy="256"
     inkscape:window-width="1366"
     inkscape:window-height="705"
     inkscape:window-x="-8"
     inkscape:window-y="-8"
     inkscape:window-maximized="1"
     inkscape:current-layer="svg3" /><path
     id="path1"
     style="fill:#c3223d;fill-opacity:1;stroke:none;stroke-width:33.8667;stroke-miterlimit:128;stroke-dasharray:none;stroke-opacity:1;paint-order:stroke fill markers"
     d="M 67.733332 0 L 59.267699 8.465633 L 19.838582 47.89475 L 59.267699 47.89475 L 59.267699 135.46666 L 76.198966 135.46666 L 76.198966 47.89475 L 115.62808 47.89475 L 76.198966 8.465633 L 67.733332 0 z " /><path
     d="m 13.08809,51.857299 c -1.195054,0 -2.671988,0.599793 -3.5351848,1.46296 -0.8599743,0.859975 -1.4629599,2.333756 -1.4629598,3.535185 v 4.324283 c -10e-8,1.201442 0.6029779,2.675209 1.4629598,3.535185 0.8599828,0.859988 2.3337558,1.46296 3.5351848,1.46296 h 1.046448 v 12.433349 c 0,1.194928 0.598144,2.671944 1.461409,3.535185 0.86324,0.863235 2.333233,1.460893 3.534668,1.460893 h 4.771802 c 1.094266,0 2.660374,-0.568705 3.630786,-1.613338 0.793516,-0.8691 1.35697,-2.225596 1.361157,-3.368787 0.0043,1.199089 0.604012,2.664346 1.460893,3.521232 0.859982,0.859989 2.332209,1.460893 3.533634,1.460893 h 4.739762 c 1.201442,0 2.673665,-0.600928 3.533635,-1.460893 0.216542,-0.216542 0.352828,-0.546174 0.531234,-0.826306 4.91e-4,-7.69e-4 0.0016,-7.5e-4 0.0021,-0.0015 0.566709,0.751596 1.251787,1.264517 1.890323,1.612821 0.129379,0.0708 0.262369,0.134797 0.398426,0.19172 0.63712,0.265463 1.408407,0.484208 2.328023,0.484208 h 5.916435 c 0.166359,0 0.408964,-0.162942 0.599446,-0.185519 0.323409,0.06549 0.619353,0.185519 0.959115,0.185519 h 5.470467 c 1.057572,0 2.160207,-0.371538 2.953308,-0.900204 0.02691,-0.01795 0.05361,-0.03621 0.0801,-0.05478 0.695808,-0.487071 1.435185,-1.246467 1.88464,-2.257743 l -0.03152,0.07028 0.07648,-0.164331 h 2.798796 l 0.05064,0.111621 c 0.04891,0.10831 0.102354,0.214513 0.160197,0.318327 0.404128,0.727443 0.963662,1.339654 1.548742,1.794722 0.134099,0.10482 0.274397,0.201458 0.42013,0.289388 0.79953,0.479729 1.84414,0.792717 2.845821,0.792717 h 5.439461 c 0.460304,0 1.128237,-0.238693 1.767334,-0.484208 0.66486,0.294109 1.37184,0.484208 2.017448,0.484208 h 8.683708 c 2.0677,0 4.072458,-0.306745 5.943306,-0.978235 1.683798,-0.59764 3.22288,-1.519873 4.5899,-2.654618 0.24828,0.819783 0.61599,1.617823 1.16789,2.169893 v 0.0021 c 0.86319,0.863177 2.33374,1.460893 3.53518,1.460893 h 16.18971 c 1.20145,0 2.6719,-0.597556 3.53519,-1.460893 0.86332,-0.863249 1.46296,-2.340257 1.46296,-3.535185 v -4.388362 c 0,-1.181825 -0.59094,-2.631716 -1.43764,-3.498495 0.0463,-0.257291 0.16381,-0.522886 0.16381,-0.765328 v -4.388879 c 0,-0.272989 -0.12728,-0.570189 -0.18552,-0.860929 0.86085,-0.863927 1.45935,-2.336735 1.45935,-3.529501 v -4.324283 c 0,-1.195586 -0.60028,-2.672296 -1.46296,-3.535185 -0.86655,-0.866596 -2.34019,-1.46296 -3.53519,-1.46296 h -16.18971 c -1.19507,0 -2.66878,0.596605 -3.53518,1.46296 -0.55849,0.558516 -0.92697,1.369891 -1.17357,2.199349 -2.87646,-2.414269 -6.596147,-3.662309 -10.527526,-3.662309 h -8.683708 c -1.19506,0 -2.668726,0.596536 -3.535185,1.46296 -0.863221,0.863233 -1.460891,2.340211 -1.460892,3.535185 v 6.343798 l -3.455087,-8.047054 c -0.007,-0.01624 -0.01402,-0.03243 -0.02119,-0.04857 -0.433649,-0.975725 -1.191943,-1.719297 -1.925981,-2.212785 -0.786818,-0.552095 -1.877936,-1.000456 -2.992065,-1.000456 h -4.452958 c -1.108755,0 -2.230423,0.409499 -3.035474,0.957048 -0.754537,0.509553 -1.498752,1.317018 -1.916162,2.256193 -0.0072,0.01752 -0.01424,0.03509 -0.02119,0.05271 l -3.207039,7.488431 c -0.141705,-1.078768 -0.368981,-2.141577 -0.783415,-3.146578 -0.596016,-1.493933 -1.485681,-2.874968 -2.621029,-4.017842 -1.151446,-1.179766 -2.567943,-2.086089 -4.095874,-2.683557 -1.570088,-0.634648 -3.262555,-0.939478 -4.964555,-0.939478 h -9.892419 c -0.637326,0 -1.338873,0.188587 -2.000395,0.478524 -0.700817,-0.306127 -1.421461,-0.478524 -2.005562,-0.478524 z m 20.327958,1.46296 0.220658,0.238228 c -0.03256,-0.03799 -0.08885,-0.04903 -0.12299,-0.08578 -0.03878,-0.04248 -0.05774,-0.112517 -0.09767,-0.152445 z m 22.637377,14.11025 -0.02222,0.08888 c 0.0035,-0.01404 0.0022,-0.02884 0.0057,-0.04289 0.0036,-0.01591 0.01208,-0.03034 0.01654,-0.04599 z M 82.939639,80.95113 82.78306,81.234317 c 0.01961,-0.03269 0.0203,-0.09624 0.03927,-0.130741 0.0322,-0.05669 0.08794,-0.0937 0.117305,-0.152446 z m -32.14274,0.709001 c 0.09123,0.121624 0.21112,0.182813 0.310575,0.290938 0.04242,0.04652 0.03793,0.118018 0.08217,0.162264 z m 2.099613,1.581815 c 0.02935,0.01174 0.06981,0.0083 0.09974,0.01964 0.04245,0.01557 0.09313,0.05292 0.134358,0.06666 z"
     style="color:#000;-inkscape-font-specification:Heavitas;fill:#c3223d;stroke-linecap:round;stroke-linejoin:round;stroke-miterlimit:128;-inkscape-stroke:none;paint-order:stroke fill markers"
     id="path2" /><path
     d="m 13.087263,56.091666 c -0.212054,0 -0.392245,0.07386 -0.540682,0.222292 -0.148439,0.148439 -0.222778,0.32863 -0.222778,0.540684 v 4.325945 c 0,0.212054 0.07434,0.392245 0.222778,0.540682 0.148437,0.148438 0.328628,0.222777 0.540682,0.222777 h 4.516689 c 0.233258,0 0.41345,0.07434 0.540682,0.222777 0.148438,0.148437 0.222776,0.328629 0.222776,0.540683 v 15.90403 c 0,0.212052 0.07385,0.392239 0.222292,0.540677 0.148439,0.148438 0.329116,0.222777 0.541168,0.222777 h 4.771015 c 0.233258,0 0.413449,-0.07434 0.540683,-0.222777 0.148436,-0.148438 0.222776,-0.328625 0.222776,-0.540677 v -15.90403 c 0,-0.212054 0.07434,-0.392246 0.222777,-0.540683 0.148438,-0.148437 0.328629,-0.222777 0.540682,-0.222777 h 4.453109 c 0.233258,0 0.413449,-0.07434 0.540682,-0.222777 0.148438,-0.148437 0.222777,-0.328628 0.222777,-0.540682 v -4.325945 c 0,-0.212054 -0.07434,-0.392245 -0.222777,-0.540684 -0.127233,-0.148437 -0.307424,-0.222292 -0.540682,-0.222292 z m 20.802204,0 c -0.212055,0 -0.392246,0.07386 -0.540683,0.222292 -0.148438,0.148439 -0.222777,0.32863 -0.222777,0.540684 v 21.756894 c 0,0.212052 0.07434,0.392239 0.222777,0.540677 0.148437,0.148438 0.328628,0.222777 0.540683,0.222777 h 4.739465 c 0.212054,0 0.392245,-0.07434 0.540683,-0.222777 0.148438,-0.148438 0.222776,-0.328625 0.222776,-0.540677 v -5.15299 c 0,-0.212053 0.07434,-0.392244 0.222777,-0.540683 0.148438,-0.148436 0.328629,-0.222775 0.540683,-0.222775 h 0.699878 c 0.212054,0 0.434586,0.064 0.667845,0.191228 0.233259,0.106027 0.41345,0.243878 0.540683,0.413521 0.657366,0.933035 1.31462,1.855163 1.971986,2.766993 0.678572,0.911832 1.357481,1.813275 2.036054,2.703896 0.127232,0.169648 0.307423,0.317838 0.540682,0.445074 0.254465,0.106026 0.48734,0.15919 0.699392,0.15919 h 5.916447 c 0.212053,0 0.349904,-0.09551 0.41352,-0.286357 0.06362,-0.212053 0.0321,-0.403074 -0.09513,-0.572715 -0.699777,-0.933033 -1.495367,-1.961499 -2.385993,-3.085382 -0.890625,-1.123888 -1.738898,-2.215863 -2.544702,-3.276131 -0.127232,-0.169643 -0.169573,-0.339007 -0.127163,-0.50865 0.06362,-0.190848 0.180297,-0.349869 0.34994,-0.477101 0.508929,-0.318081 0.964821,-0.710462 1.367723,-1.17698 0.402901,-0.487723 0.752942,-1.028783 1.049817,-1.622533 0.296875,-0.593749 0.519407,-1.219006 0.667845,-1.876372 0.169643,-0.678572 0.25481,-1.356996 0.25481,-2.035568 0,-1.229911 -0.21219,-2.353886 -0.636297,-3.371744 -0.402902,-1.017857 -0.975474,-1.898129 -1.717663,-2.640317 -0.720982,-0.742187 -1.601254,-1.314759 -2.640317,-1.717662 -1.039062,-0.424107 -2.173379,-0.635812 -3.40329,-0.635812 z m 48.38041,0 c -0.212052,0 -0.392729,0.07386 -0.541167,0.222292 -0.148437,0.148439 -0.222291,0.32863 -0.222291,0.540684 v 21.756894 c 0,0.212052 0.07385,0.392239 0.222291,0.540677 0.148438,0.148438 0.329115,0.222777 0.541167,0.222777 h 8.683442 c 1.654016,0 3.159544,-0.243698 4.516689,-0.731424 1.378347,-0.487726 2.597838,-1.208975 3.6581,-2.163218 1.145092,-1.060269 2.014532,-2.32209 2.608282,-3.78526 0.59376,-1.484377 0.89062,-3.138097 0.89062,-4.961758 0,-1.823662 -0.29686,-3.467039 -0.89062,-4.93021 -0.59375,-1.46317 -1.46319,-2.724994 -2.608282,-3.785264 -2.120534,-1.950893 -4.84555,-2.92619 -8.174789,-2.92619 z m 23.919613,0 c -0.21205,0 -0.39272,0.07386 -0.54116,0.222292 -0.14843,0.148439 -0.22229,0.32863 -0.22229,0.540684 v 21.756894 c 0,0.212052 0.0739,0.392239 0.22229,0.540677 0.14844,0.148438 0.32911,0.222777 0.54116,0.222777 h 16.18991 c 0.21205,0 0.39273,-0.07434 0.54116,-0.222777 0.14845,-0.148438 0.2223,-0.328625 0.2223,-0.540677 v -4.389531 c 0,-0.212053 -0.0739,-0.392244 -0.2223,-0.540682 -0.14843,-0.148438 -0.32911,-0.222777 -0.54116,-0.222777 h -9.89196 c -0.21206,0 -0.39226,-0.07434 -0.54069,-0.222776 -0.14844,-0.148438 -0.22278,-0.328629 -0.22278,-0.540682 V 71.48656 c 0,-0.212054 0.0743,-0.392246 0.22278,-0.540683 0.14843,-0.148437 0.32863,-0.222776 0.54069,-0.222776 h 8.61985 c 0.21206,0 0.39225,-0.07434 0.54068,-0.222778 0.14845,-0.148437 0.22278,-0.328628 0.22278,-0.540682 v -4.389528 c 0,-0.212052 -0.0743,-0.392244 -0.22278,-0.540682 -0.14843,-0.148437 -0.32862,-0.222777 -0.54068,-0.222777 h -8.61985 c -0.21206,0 -0.39226,-0.07385 -0.54069,-0.22229 -0.14844,-0.148438 -0.22278,-0.32863 -0.22278,-0.540683 v -1.336175 c 0,-0.212054 0.0743,-0.392246 0.22278,-0.540683 0.14843,-0.148437 0.32863,-0.222777 0.54069,-0.222777 h 9.89196 c 0.21205,0 0.39273,-0.07434 0.54116,-0.222777 0.14845,-0.148437 0.2223,-0.328628 0.2223,-0.540682 v -4.325945 c 0,-0.212054 -0.0739,-0.392245 -0.2223,-0.540684 -0.14843,-0.148437 -0.32911,-0.222292 -0.54116,-0.222292 z m -41.764078,0.03155 c -0.233259,0 -0.455791,0.07434 -0.667844,0.222776 -0.190849,0.127232 -0.328699,0.286254 -0.41352,0.477102 l -9.224609,21.534113 c -0.08482,0.169641 -0.116334,0.317838 -0.09513,0.445066 0.0212,0.127236 0.07389,0.233571 0.15871,0.318395 0.06362,0.08482 0.159126,0.148329 0.286359,0.19074 0.106027,0.04241 0.211879,0.06359 0.317905,0.06359 h 5.471378 c 0.212054,0 0.413415,-0.06353 0.604264,-0.190746 0.212053,-0.148439 0.360246,-0.318285 0.445068,-0.509135 l 0.890621,-1.908403 c 0.08482,-0.19085 0.222673,-0.349869 0.413521,-0.477104 0.212053,-0.148439 0.435071,-0.222778 0.668331,-0.222778 h 6.711452 c 0.212053,0 0.413416,0.07434 0.604263,0.222778 0.212054,0.127235 0.371075,0.286254 0.477101,0.477104 l 0.85859,1.908403 c 0.106026,0.19085 0.254705,0.360696 0.445553,0.509135 0.212054,0.127235 0.434585,0.190746 0.667845,0.190746 h 5.439344 c 0.339286,0 0.561817,-0.105854 0.667845,-0.317906 0.127232,-0.212053 0.148402,-0.413903 0.06359,-0.604753 L 69.928337,56.823093 c -0.08482,-0.190848 -0.233499,-0.34987 -0.445552,-0.477101 -0.190849,-0.148438 -0.392211,-0.222777 -0.604264,-0.222777 z m -24.269561,5.820833 h 3.371743 c 0.445312,0 0.816038,0.09551 1.112913,0.286357 0.31808,0.169643 0.562269,0.392176 0.731911,0.667846 0.190849,0.254463 0.317872,0.530164 0.381488,0.82704 0.08482,0.27567 0.127162,0.519858 0.127162,0.731912 0,0.402902 -0.07386,0.752456 -0.222291,1.049331 -0.148439,0.296875 -0.339458,0.551406 -0.572716,0.76346 -0.23326,0.190849 -0.48779,0.339526 -0.763459,0.445553 -0.275671,0.08482 -0.540544,0.127162 -0.795008,0.127162 h -3.371743 c -0.212054,0 -0.392245,-0.07434 -0.540683,-0.222776 -0.148437,-0.148439 -0.222777,-0.32863 -0.222777,-0.540683 v -3.371744 c 0,-0.212054 0.07434,-0.392247 0.222777,-0.540684 0.148438,-0.148436 0.328629,-0.222776 0.540683,-0.222776 z m 48.41196,0.06359 h 2.385508 c 0.593747,0 1.197832,0.07434 1.812793,0.222777 0.636158,0.148438 1.208728,0.434481 1.717657,0.858588 0.530138,0.402903 0.954518,0.986302 1.272596,1.749696 0.339289,0.742188 0.508647,1.717483 0.508647,2.92619 0,1.208705 -0.169358,2.194828 -0.508647,2.958222 -0.318078,0.742187 -0.73163,1.325588 -1.240558,1.749696 -0.508929,0.402902 -1.081507,0.678603 -1.717664,0.827041 -0.636164,0.148436 -1.251077,0.22229 -1.844824,0.22229 h -2.385508 c -0.212054,0 -0.392245,-0.07385 -0.540682,-0.22229 -0.148439,-0.148438 -0.222777,-0.329114 -0.222777,-0.541168 v -9.987593 c 0,-0.212054 0.07434,-0.392245 0.222777,-0.540684 0.148437,-0.148436 0.328628,-0.222776 0.540682,-0.222776 z m -21.947636,3.817297 c 0.106028,0 0.201538,0.09502 0.286359,0.285873 0.254464,0.614954 0.530164,1.283037 0.82704,2.00402 0.296876,0.699776 0.55092,1.314691 0.762974,1.844824 0.106027,0.190848 0.106027,0.360697 0,0.509135 -0.08482,0.127232 -0.233014,0.190744 -0.445068,0.190744 h -2.83106 c -0.23326,0 -0.392281,-0.06352 -0.477103,-0.190744 -0.08482,-0.148438 -0.08482,-0.318287 0,-0.509135 l 1.590501,-3.848844 c 0.08482,-0.190849 0.180331,-0.285873 0.286357,-0.285873 z"
     style="color:#000;-inkscape-font-specification:Heavitas;fill:#fff;stroke-linecap:round;stroke-linejoin:round;stroke-miterlimit:128;-inkscape-stroke:none;paint-order:stroke fill markers"
     id="path3" /></svg>
