<svg xmlns="http://www.w3.org/2000/svg" xml:space="preserve" width="512" height="512" viewBox="0 0 135.46666 135.46667"><path d="M 47.89475 19.838582 L 8.465633 59.267699 L 0 67.733332 L 8.465633 76.198966 L 47.89475 115.62808 L 47.89475 76.198966 L 135.46666 76.198966 L 135.46666 59.267699 L 47.89475 59.267699 L 47.89475 19.838582 z" style="fill:#c32222;fill-opacity:1;stroke:none;stroke-width:33.8667;stroke-miterlimit:128;stroke-dasharray:none;stroke-opacity:1;paint-order:stroke fill markers"/><path d="m 62.578092,57.150516 c -1.423855,0 -2.864185,0.27991 -4.183724,0.845426 -0.470186,0.201508 -0.833932,0.58406 -1.273308,0.849561 -0.03466,-0.03792 -0.05223,-0.100809 -0.08785,-0.136426 -0.793093,-0.793092 -2.184604,-1.357539 -3.279387,-1.35754 h -2.482536 c -0.943756,0 -2.046134,0.464319 -2.857189,1.087789 -0.222015,-0.153424 -0.424211,-0.404693 -0.638721,-0.509529 -0.585543,-0.299415 -1.329638,-0.57826 -2.224671,-0.57826 h -2.517675 c -1.094934,0 -2.484324,0.564616 -3.27732,1.35754 -0.122411,0.122413 -0.190479,0.3234 -0.300756,0.470773 -0.306166,-0.33167 -0.549285,-0.770719 -0.869198,-0.976685 -0.697635,-0.45523 -1.630844,-0.836124 -2.597257,-0.836125 h -2.349728 c -0.697619,0 -1.290834,0.329599 -1.896525,0.601514 -0.676279,-0.347346 -1.395802,-0.617017 -1.963187,-0.617017 h -2.782776 c -1.078627,0 -2.066513,0.418226 -2.722832,0.869198 -0.393256,0.269086 -0.700464,0.70411 -1.02371,1.109493 -0.350467,-0.427335 -0.695715,-0.867805 -1.097607,-1.12913 -0.701958,-0.463912 -1.651527,-0.84956 -2.623096,-0.849561 h -2.7342 c -1.084521,10e-7 -3.233601,0.978034 -4.036963,2.547132 -0.592269,1.256114 -0.534924,2.970884 -0.101802,3.923791 l 5.050854,11.390519 c 0.05089,0.11562 0.106929,0.228905 0.167949,0.339514 0.354053,0.637323 0.843002,1.167956 1.337903,1.552877 0.134099,0.10482 0.274396,0.201458 0.420129,0.289388 0.644888,0.386954 1.556495,0.7028 2.513542,0.7028 h 2.232421 c 0.760846,0 1.47318,-0.320113 2.119251,-0.644405 0.160679,0.07825 0.325804,0.286018 0.472322,0.337963 0.478464,0.17315 1.019728,0.306442 1.5844,0.306442 h 2.886645 c 0.956908,0 1.96265,-0.341348 2.665987,-0.810287 0.02691,-0.01795 0.05361,-0.03621 0.0801,-0.05478 0.201067,-0.140745 0.362644,-0.48348 0.568441,-0.683679 0.169676,0.173805 0.301173,0.418613 0.478523,0.556555 0.133932,0.104803 0.274057,0.20144 0.419613,0.289388 0.699401,0.419661 1.64026,0.7028 2.531628,0.7028 h 2.869076 c 0.212656,0 0.573952,-0.177853 0.859379,-0.241846 0.38045,0.10409 0.767879,0.241846 1.118795,0.241846 h 2.500105 c 0.939027,0 2.02306,-0.458979 2.830319,-1.070219 0.180642,0.127986 0.357081,0.359337 0.529166,0.453202 0.596857,0.325577 1.421626,0.617017 2.378666,0.617017 h 2.482536 c 1.101243,0 2.48958,-0.567743 3.279387,-1.35754 0.03055,-0.03055 0.0461,-0.0845 0.07596,-0.116789 0.442142,0.265922 0.812671,0.644985 1.285193,0.847494 1.319541,0.565519 2.759869,0.845426 4.183724,0.845426 1.280511,0 2.571212,-0.217293 3.781164,-0.664042 0.01831,-0.0069 0.03657,-0.014 0.05478,-0.02119 1.124821,-0.432623 2.183899,-1.059067 3.111438,-1.845882 0.858232,0.790461 1.845033,1.44406 2.906283,1.857768 0.01941,0.0072 0.03888,0.01427 0.05839,0.02119 1.188726,0.443255 2.442069,0.634587 3.677812,0.634587 1.235742,0 2.486682,-0.191206 3.675744,-0.634587 0.01952,-0.0069 0.03898,-0.01398 0.0584,-0.02119 0.124805,-0.04865 0.218793,-0.164981 0.342098,-0.219108 0.175481,0.0876 0.354458,0.310981 0.513663,0.367419 0.480657,0.173826 1.019831,0.306442 1.583883,0.306442 h 2.884578 c 0.957161,0 1.964956,-0.341572 2.668055,-0.810287 0.02622,-0.01797 0.05223,-0.03623 0.07803,-0.05478 0.200971,-0.140678 0.362737,-0.483603 0.568441,-0.683679 0.169907,0.174342 0.300182,0.417844 0.478523,0.556555 0.134767,0.104889 0.275757,0.201529 0.422197,0.289388 0.699412,0.41967 1.637687,0.7028 2.529044,0.7028 h 2.869076 c 0.142404,0 0.3981,-0.133648 0.576192,-0.162264 0.252656,0.0484 0.515177,0.162264 0.750342,0.162264 h 2.499589 c 0.691853,0 1.447989,-0.268553 2.146639,-0.63097 0.012,0.0066 0.0253,0.02503 0.0372,0.03152 0.12939,0.07063 0.26238,0.134448 0.39842,0.191203 0.51839,0.215979 1.1782,0.408244 1.99781,0.408244 h 3.11919 c 0.21148,0 0.52447,-0.200257 0.77928,-0.241846 0.3798,0.103757 0.76691,0.241846 1.11725,0.241846 h 4.58008 c 1.28489,0 2.57663,-0.192491 3.80494,-0.63252 1.22003,-0.433281 2.37007,-1.109821 3.33778,-1.980758 0.0151,-0.01281 0.0301,-0.02573 0.045,-0.03876 1.04873,-0.971045 1.88584,-2.19178 2.42156,-3.51193 0.003,-0.0065 0.006,-0.01308 0.008,-0.01964 0.53515,-1.337829 0.7736,-2.768153 0.7736,-4.189408 0,-1.421255 -0.23774,-2.851903 -0.78135,-4.191476 -0.53572,-1.320151 -1.37336,-2.54037 -2.42208,-3.511413 -0.003,-0.0026 -0.007,-0.0052 -0.01,-0.0078 -1.93097,-1.776494 -4.59514,-2.66237 -7.17786,-2.66237 h -4.58008 c -0.94084,0 -2.03881,0.461961 -2.84944,1.082105 -0.23863,-0.121157 -0.42694,-0.345135 -0.67179,-0.441317 -1.0795,-0.434696 -2.23538,-0.640787 -3.35742,-0.640788 h -5.217255 c -1.094973,0 -2.485872,0.564624 -3.278869,1.35754 -0.01119,0.01119 -0.0163,0.03147 -0.02739,0.04289 C 92.678516,58.595262 92.550315,58.318467 92.371105,58.203165 91.673489,57.747949 90.739773,57.36704 89.773331,57.36704 H 87.42567 c -1.00452,10e-7 -2.025157,0.384251 -2.732133,0.867131 -0.144433,0.09855 -0.231197,0.317841 -0.373103,0.441833 -0.798659,-0.758998 -2.129621,-1.308964 -3.203422,-1.308964 h -2.533179 c -0.792113,10e-7 -1.664257,0.352016 -2.423625,0.810804 -0.759477,-0.459016 -1.633334,-0.810804 -2.425691,-0.810804 h -2.533179 c -1.042629,10e-7 -2.309939,0.529754 -3.115572,1.254187 -0.09228,-0.05462 -0.165545,-0.138052 -0.259416,-0.189652 -1.614136,-0.893335 -3.44567,-1.281059 -5.248258,-1.281059 z m -31.640446,1.046965 c -0.01281,0.0085 -0.02078,0.03001 -0.03359,0.03876 -0.01157,0.0079 -0.03305,0.006 -0.04444,0.01395 z m 76.626844,1.634525 0.0429,0.04496 c -0.007,-0.0069 -0.0166,-0.0087 -0.0233,-0.0155 -0.008,-0.0084 -0.0112,-0.02106 -0.0196,-0.02946 z M 45.193107,75.5897 45.037044,75.874954 c 0.0275,-0.04583 0.02859,-0.139456 0.05478,-0.189652 0.02357,-0.04256 0.0794,-0.05183 0.101286,-0.0956 z m 53.701631,0.08217 c 0.0078,0.01036 0.01541,0.02066 0.02325,0.03101 l -0.0956,0.174149 c 0.0275,-0.04581 0.0286,-0.139484 0.05478,-0.189652 0.004,-0.0072 0.01365,-0.0083 0.01757,-0.0155 z m -29.310872,0.07803 -0.03101,0.02739 c 0.0057,-0.0048 0.0078,-0.01275 0.01344,-0.01757 0.0051,-0.0044 0.01244,-0.0054 0.01757,-0.0098 z m 29.621447,0.335897 c 3.48e-4,4.64e-4 0.0011,-4.63e-4 0.0015,0 0.0062,0.0081 0.01138,0.0172 0.01757,0.02532 z m -74.355667,0.185519 c 0.07507,0.100074 0.174907,0.09365 0.255798,0.183968 0.06807,0.07992 0.06525,0.195975 0.138493,0.269234 z m 53.786897,0 c 0.07447,0.0993 0.174061,0.09221 0.254248,0.181901 0.06888,0.08105 0.06414,0.196953 0.138493,0.271301 z" style="color:#000;-inkscape-font-specification:Heavitas;fill:#c32222;stroke-linecap:round;stroke-linejoin:round;stroke-miterlimit:128;-inkscape-stroke:none;paint-order:stroke fill markers"/><path d="m 62.578667,61.383334 c -0.894755,0 -1.733486,0.167746 -2.516397,0.503279 -0.782911,0.335533 -1.470772,0.794107 -2.063548,1.375698 -0.581591,0.570407 -1.045876,1.241648 -1.392594,2.013374 -0.335533,0.771727 -0.50328,1.59358 -0.50328,2.465967 0,0.872386 0.167747,1.694496 0.50328,2.466223 0.346718,0.771726 0.811003,1.442967 1.392594,2.013373 0.592776,0.570407 1.280637,1.02327 2.063548,1.358803 0.782911,0.335534 1.621642,0.50328 2.516397,0.50328 0.816464,0 1.588199,-0.134249 2.315188,-0.402675 0.726988,-0.279611 1.370186,-0.659767 1.929408,-1.140698 0.570407,-0.480931 1.034436,-1.051422 1.392338,-1.711304 0.357903,-0.659882 0.576024,-1.375787 0.654315,-2.147513 0.03355,-0.290796 0.05043,-0.570202 0.05043,-0.838629 0,-0.279611 -0.01117,-0.514609 -0.03354,-0.704744 -0.01118,-0.123029 -0.06156,-0.218068 -0.151035,-0.285175 -0.07829,-0.07829 -0.17333,-0.1175 -0.285174,-0.1175 h -5.771326 c -0.111843,0 -0.206883,0.03921 -0.285174,0.1175 -0.07829,0.07829 -0.117244,0.17333 -0.117244,0.285175 v 1.996478 c 0,0.111844 0.03896,0.206884 0.117244,0.285175 0.07829,0.07829 0.173331,0.1175 0.285174,0.1175 h 1.929409 c 0.111845,0 0.190263,0.03921 0.235,0.1175 0.04474,0.06711 0.03903,0.145269 -0.0169,0.234744 -0.246058,0.357902 -0.576095,0.615233 -0.989919,0.771815 -0.413825,0.156582 -0.83319,0.234744 -1.258199,0.234744 -0.425008,0 -0.827497,-0.08387 -1.207768,-0.25164 -0.369086,-0.178951 -0.693668,-0.408238 -0.973279,-0.687849 -0.27961,-0.290795 -0.503187,-0.626288 -0.670953,-1.006559 -0.156583,-0.380271 -0.234745,-0.783015 -0.234745,-1.208024 0,-0.413825 0.07816,-0.810857 0.234745,-1.191129 0.167766,-0.391456 0.391343,-0.732403 0.670953,-1.023199 0.279611,-0.290795 0.604193,-0.520082 0.97328,-0.687848 0.380271,-0.178952 0.78276,-0.268536 1.207768,-0.268536 0.592776,0 1.101725,0.128538 1.526734,0.38578 0.436193,0.257242 0.827515,0.598445 1.174233,1.023454 0.07829,0.08948 0.173586,0.145306 0.285431,0.167674 0.111844,0.01119 0.212338,-0.01114 0.301814,-0.06707 l 2.013374,-1.291734 c 0.08948,-0.05592 0.145305,-0.139795 0.167674,-0.251639 0.03355,-0.12303 0.02239,-0.229235 -0.03354,-0.31871 -0.570406,-0.883571 -1.314099,-1.577143 -2.231222,-2.080443 -0.90594,-0.5033 -1.974214,-0.754919 -3.204503,-0.754919 z M 16.79509,61.584799 c -0.145399,0 -0.240438,0.05012 -0.285176,0.150779 -0.05592,0.10066 -0.05592,0.212576 0,0.335605 l 5.066585,11.424903 c 0.05592,0.10066 0.134341,0.190244 0.235001,0.268535 0.111844,0.06711 0.223505,0.100605 0.335348,0.100605 h 2.231479 c 0.111845,0 0.21805,-0.0335 0.318709,-0.100605 0.111844,-0.07829 0.195717,-0.167875 0.25164,-0.268535 l 5.116759,-11.491973 c 0.04474,-0.08948 0.03928,-0.179059 -0.01664,-0.268535 -0.05592,-0.10066 -0.145506,-0.150779 -0.268535,-0.150779 h -2.784935 c -0.111844,0 -0.223504,0.03896 -0.335348,0.117244 -0.100661,0.06711 -0.179079,0.15098 -0.235001,0.25164 l -2.935967,6.744354 c -0.05592,0.100659 -0.128629,0.151034 -0.218105,0.151034 -0.08948,0 -0.162182,-0.05038 -0.218104,-0.151034 l -2.952607,-6.744354 c -0.05592,-0.10066 -0.139795,-0.184533 -0.25164,-0.25164 -0.10066,-0.07829 -0.206864,-0.117244 -0.318709,-0.117244 z m 26.238878,0 c -0.111845,0 -0.206884,0.03896 -0.285175,0.117244 -0.07829,0.07829 -0.1175,0.173586 -0.1175,0.285431 v 11.475077 c 0,0.111844 0.03921,0.206884 0.1175,0.285175 0.07829,0.07829 0.17333,0.1175 0.285175,0.1175 h 2.499758 c 0.111844,0 0.206882,-0.03921 0.285173,-0.1175 0.07829,-0.07829 0.117245,-0.173331 0.117245,-0.285175 v -6.006074 c 0,-0.111844 0.03376,-0.173385 0.100861,-0.18457 0.07829,-0.02237 0.150998,0.01138 0.218105,0.100861 l 4.378735,6.156853 c 0.0671,0.08948 0.162146,0.167893 0.285175,0.235 0.123028,0.06711 0.2404,0.100605 0.352244,0.100605 h 2.482862 c 0.111845,0 0.206883,-0.03921 0.285174,-0.1175 0.07829,-0.07829 0.117501,-0.173331 0.117501,-0.285175 V 61.987474 c 0,-0.111845 -0.03921,-0.20714 -0.117501,-0.285431 -0.07829,-0.07829 -0.173329,-0.117244 -0.285174,-0.117244 h -2.482862 c -0.111844,0 -0.206884,0.03896 -0.285175,0.117244 -0.07829,0.07829 -0.1175,0.173586 -0.1175,0.285431 v 6.005818 c 0,0.111844 -0.03921,0.173385 -0.1175,0.184569 -0.06711,0.01118 -0.134102,-0.02777 -0.201209,-0.117243 l -4.362096,-6.15711 c -0.06711,-0.08948 -0.162146,-0.162183 -0.285175,-0.218105 -0.123028,-0.06711 -0.2404,-0.100604 -0.352245,-0.100604 z m 53.131558,0 c -0.11184,0 -0.20688,0.03896 -0.285172,0.117244 -0.07829,0.07829 -0.117248,0.173586 -0.117248,0.285431 v 11.475077 c 0,0.111844 0.03893,0.206884 0.117248,0.285175 0.07829,0.07829 0.173332,0.1175 0.285172,0.1175 h 2.499757 c 0.111848,0 0.206888,-0.03921 0.28518,-0.1175 0.07828,-0.07829 0.117495,-0.173331 0.117495,-0.285175 v -2.717862 c 0,-0.111845 0.03922,-0.206883 0.117503,-0.285175 0.07829,-0.07829 0.173332,-0.1175 0.285172,-0.1175 h 0.369142 c 0.11184,0 0.229215,0.03376 0.352245,0.100861 0.12303,0.05592 0.21807,0.12863 0.28517,0.218105 0.34672,0.492115 0.69338,0.978476 1.04009,1.459407 0.35791,0.480931 0.71599,0.956383 1.07389,1.426129 0.0671,0.08948 0.16214,0.167639 0.28517,0.234745 0.13422,0.05592 0.2573,0.08397 0.36915,0.08397 h 3.12028 c 0.11184,0 0.18455,-0.05038 0.2181,-0.151035 0.0335,-0.111845 0.0169,-0.212339 -0.0502,-0.301814 -0.36909,-0.492115 -0.78871,-1.034563 -1.25845,-1.627338 -0.46975,-0.592776 -0.9169,-1.168978 -1.34191,-1.728199 -0.0671,-0.08948 -0.0897,-0.178804 -0.0674,-0.26828 0.0335,-0.100659 0.0951,-0.184533 0.18457,-0.251639 0.26842,-0.167767 0.50888,-0.374722 0.72138,-0.62078 0.2125,-0.257242 0.39713,-0.542359 0.55371,-0.855523 0.15658,-0.313165 0.27396,-0.643202 0.35224,-0.98992 0.0895,-0.357902 0.1344,-0.715726 0.1344,-1.073628 0,-0.648698 -0.11191,-1.241521 -0.3356,-1.778374 -0.21251,-0.536853 -0.5145,-1.001138 -0.90596,-1.392594 -0.38027,-0.391456 -0.84456,-0.69345 -1.3926,-0.905954 -0.54803,-0.223689 -1.14631,-0.335349 -1.79501,-0.335349 z m 12.096114,0 c -0.11184,0 -0.20688,0.03896 -0.28518,0.117244 -0.0783,0.07829 -0.1175,0.173586 -0.1175,0.285431 v 11.475077 c 0,0.111844 0.0392,0.206884 0.1175,0.285175 0.0783,0.07829 0.17334,0.1175 0.28518,0.1175 h 4.57994 c 0.87239,0 1.66646,-0.128537 2.38226,-0.385779 0.72699,-0.257243 1.37019,-0.637655 1.92941,-1.140955 0.60396,-0.559221 1.06253,-1.224752 1.3757,-1.996478 0.31317,-0.782911 0.46974,-1.65514 0.46974,-2.617002 0,-0.961862 -0.15657,-1.828635 -0.46974,-2.600362 -0.31317,-0.771726 -0.77174,-1.437256 -1.3757,-1.996478 -1.11844,-1.028968 -2.55571,-1.543373 -4.31167,-1.543373 z m -74.622819,0.01664 c -0.123028,0 -0.240399,0.03921 -0.352244,0.117501 -0.10066,0.06711 -0.173367,0.150979 -0.218105,0.25164 l -4.865119,11.357833 c -0.04474,0.08947 -0.06161,0.167637 -0.05043,0.234744 0.01118,0.06711 0.03923,0.123192 0.08396,0.16793 0.03356,0.04474 0.08393,0.07824 0.151035,0.100605 0.05592,0.02237 0.111753,0.03354 0.167675,0.03354 h 2.885536 c 0.111845,0 0.21805,-0.03349 0.318711,-0.100604 0.111844,-0.07829 0.190262,-0.167876 0.235,-0.268536 l 0.469744,-1.006559 c 0.04474,-0.10066 0.117445,-0.184533 0.218105,-0.25164 0.111844,-0.07829 0.229216,-0.1175 0.352244,-0.1175 h 3.539852 c 0.111844,0 0.218049,0.03921 0.318709,0.1175 0.111844,0.06711 0.195973,0.15098 0.251896,0.25164 l 0.452849,1.006559 c 0.05592,0.10066 0.13434,0.190244 0.235,0.268536 0.111845,0.06711 0.229216,0.100604 0.352244,0.100604 h 2.868642 c 0.178951,0 0.296578,-0.05583 0.3525,-0.167675 0.06711,-0.111843 0.07827,-0.218049 0.03354,-0.318709 L 36.541258,61.970586 c -0.04474,-0.10066 -0.122899,-0.184533 -0.234744,-0.251639 -0.10066,-0.07829 -0.206865,-0.1175 -0.31871,-0.1175 z m 37.563178,0 c -0.111845,0 -0.206883,0.03921 -0.285175,0.117501 -0.07829,0.07829 -0.117499,0.17333 -0.117499,0.285174 v 6.794528 c 0,0.794096 0.128537,1.515455 0.385778,2.164153 0.257243,0.648697 0.620778,1.202311 1.090524,1.660873 0.469747,0.458562 1.034527,0.816642 1.694409,1.073884 0.659882,0.246058 1.392408,0.368885 2.197688,0.368885 0.805279,0 1.538061,-0.122827 2.197942,-0.368885 0.659882,-0.257242 1.224662,-0.615322 1.694409,-1.073884 0.469747,-0.458562 0.827571,-1.012176 1.073628,-1.660873 0.257243,-0.648698 0.38578,-1.370057 0.38578,-2.164153 v -6.794528 c 0,-0.111844 -0.03896,-0.206883 -0.117244,-0.285174 -0.07829,-0.07829 -0.173331,-0.117504 -0.285175,-0.117504 h -2.533292 c -0.111845,0 -0.206883,0.03921 -0.285175,0.117501 -0.07829,0.07829 -0.1175,0.17333 -0.1175,0.285174 v 6.794528 c 0,0.436194 -0.07271,0.799728 -0.218105,1.090524 -0.134213,0.279611 -0.301959,0.503187 -0.503279,0.670954 -0.20132,0.156583 -0.419442,0.268498 -0.654315,0.335605 -0.234873,0.06711 -0.44754,0.100604 -0.637674,0.100604 -0.190136,0 -0.402546,-0.03349 -0.63742,-0.100604 -0.234873,-0.06711 -0.458449,-0.179022 -0.670954,-0.335605 -0.201319,-0.167767 -0.374777,-0.391343 -0.520174,-0.670954 -0.134214,-0.290796 -0.20121,-0.65433 -0.20121,-1.090524 v -6.794528 c 0,-0.111844 -0.03921,-0.206883 -0.1175,-0.285174 -0.07829,-0.07829 -0.17333,-0.117501 -0.285174,-0.117501 z m 16.222953,0 c -0.123029,0 -0.2404,0.03921 -0.352245,0.117501 -0.10066,0.06711 -0.173367,0.150979 -0.218105,0.25164 l -4.865375,11.35783 c -0.04474,0.08948 -0.06136,0.167637 -0.05017,0.234744 0.01118,0.06711 0.03897,0.123192 0.08371,0.16793 0.03355,0.04474 0.08393,0.07824 0.151035,0.100605 0.05592,0.02237 0.112008,0.03354 0.167931,0.03354 h 2.885536 c 0.111845,0 0.21805,-0.0335 0.31871,-0.100604 0.111844,-0.07829 0.190262,-0.167876 0.235,-0.268536 l 0.469745,-1.006559 c 0.04474,-0.10066 0.117444,-0.184533 0.218105,-0.25164 0.111844,-0.07829 0.229215,-0.1175 0.352244,-0.1175 h 3.539851 c 0.111845,0 0.218049,0.03921 0.318709,0.1175 0.111845,0.06711 0.195719,0.15098 0.251641,0.25164 l 0.453105,1.006559 c 0.05592,0.10066 0.134083,0.190244 0.234744,0.268536 0.111844,0.06711 0.229215,0.100604 0.352245,0.100604 h 2.8689 c 0.17895,0 0.296317,-0.05583 0.352245,-0.167675 0.06713,-0.111843 0.07827,-0.218049 0.03353,-0.318709 L 90.327384,61.970579 c -0.04474,-0.100661 -0.123156,-0.184534 -0.235,-0.25164 -0.100661,-0.07829 -0.206866,-0.117501 -0.31871,-0.117501 z m 12.045681,3.070107 h 1.778377 c 0.23487,0 0.43066,0.05038 0.58724,0.151035 0.16777,0.08948 0.2963,0.206847 0.38578,0.352245 0.10066,0.134213 0.16765,0.279627 0.20121,0.436209 0.0448,0.145397 0.067,0.274191 0.067,0.386036 0,0.212504 -0.0389,0.396871 -0.11724,0.553453 -0.0783,0.156582 -0.17905,0.29083 -0.30207,0.402675 -0.12303,0.10066 -0.25728,0.179078 -0.40268,0.235 -0.1454,0.04474 -0.2851,0.06707 -0.41931,0.06707 h -1.778372 c -0.111847,0 -0.206887,-0.03921 -0.28518,-0.1175 -0.07829,-0.07829 -0.117495,-0.173331 -0.117495,-0.285175 v -1.778373 c 0,-0.111844 0.03923,-0.206883 0.117495,-0.285175 0.07829,-0.07829 0.173333,-0.1175 0.28518,-0.1175 z m 12.112747,0.03354 h 1.2582 c 0.31317,0 0.63204,0.03921 0.95639,0.1175 0.33553,0.07829 0.63753,0.229416 0.90595,0.453106 0.27961,0.212504 0.50319,0.519953 0.67095,0.922593 0.17896,0.391455 0.26854,0.90586 0.26854,1.543373 0,0.637513 -0.0896,1.157628 -0.26854,1.560268 -0.16776,0.391456 -0.38588,0.699161 -0.65431,0.92285 -0.26843,0.212504 -0.57042,0.357919 -0.90595,0.43621 -0.33553,0.07829 -0.65986,0.117244 -0.97303,0.117244 h -1.2582 c -0.11184,0 -0.20688,-0.03896 -0.28517,-0.117244 -0.0783,-0.07829 -0.1175,-0.17333 -0.1175,-0.285175 v -5.268052 c 0,-0.111844 0.0392,-0.206884 0.1175,-0.285175 0.0783,-0.07829 0.17333,-0.1175 0.28517,-0.1175 z m -76.786965,2.013367 c 0.05592,0 0.106298,0.05038 0.151035,0.151036 0.134214,0.324348 0.279628,0.676462 0.43621,1.056733 0.156583,0.369086 0.29083,0.693413 0.402675,0.973024 0.05592,0.10066 0.05592,0.190243 0,0.268535 -0.04474,0.06711 -0.1229,0.100604 -0.234745,0.100604 h -1.493198 c -0.123029,0 -0.206902,-0.0335 -0.251641,-0.100604 -0.04474,-0.07829 -0.04474,-0.167875 0,-0.268535 l 0.838885,-2.029757 c 0.04474,-0.10066 0.09486,-0.151036 0.150779,-0.151036 z m 53.786131,0 c 0.05592,0 0.106297,0.05038 0.151035,0.151036 0.134213,0.324348 0.279627,0.676462 0.436209,1.056733 0.156582,0.369086 0.290831,0.693413 0.402675,0.973024 0.05592,0.10066 0.05592,0.190243 0,0.268535 -0.04474,0.06711 -0.123156,0.100604 -0.235,0.100604 h -1.493199 c -0.123029,0 -0.206902,-0.0335 -0.25164,-0.100604 -0.04474,-0.07829 -0.04474,-0.167875 0,-0.268535 l 0.838884,-2.029757 c 0.04474,-0.10066 0.09511,-0.151036 0.151036,-0.151036 z" style="color:#000;-inkscape-font-specification:Heavitas;fill:#fff;stroke-linecap:round;stroke-linejoin:round;stroke-miterlimit:128;-inkscape-stroke:none;paint-order:stroke fill markers"/></svg>