<svg xmlns="http://www.w3.org/2000/svg" xml:space="preserve" width="512" height="512" viewBox="0 0 135.46666 135.46667"><path d="m 67.73333,135.46666 8.465633,-8.46563 39.429117,-39.429119 H 76.198963 V 1e-6 H 59.267696 v 87.57191 H 19.838581 l 39.429115,39.429119 z" style="fill:#a8c322;fill-opacity:1;stroke:none;stroke-width:33.8667;stroke-miterlimit:128;stroke-dasharray:none;stroke-opacity:1;paint-order:stroke fill markers"/><path d="m 90.640461,55.033333 c -1.70433,0 -3.409654,0.341715 -4.972306,1.021126 -1.491709,0.648568 -2.858478,1.580299 -3.998206,2.738334 -0.143463,0.143959 -0.203899,0.351518 -0.340031,0.502295 -0.232858,-0.258842 -0.426318,-0.552715 -0.681612,-0.789099 -0.0033,-0.0033 -0.0065,-0.0066 -0.0098,-0.0098 -2.301791,-2.117644 -5.442255,-3.171899 -8.607227,-3.171899 h -6.097819 c -1.131851,0 -2.552661,0.573979 -3.374987,1.396297 -0.02401,0.02401 -0.03483,0.06697 -0.0584,0.09198 -0.542615,-0.280875 -1.027893,-0.677122 -1.601452,-0.8847 -1.529822,-0.574432 -3.158306,-0.828374 -4.818311,-0.828374 -1.020104,0 -2.039633,0.121837 -3.048909,0.335897 -1.092491,0.216999 -2.133085,0.677963 -3.105754,1.240235 -0.826355,-0.774009 -2.169937,-1.330152 -3.271118,-1.330152 h -3.374988 c -0.544449,0 -1.18255,0.141436 -1.800923,0.390674 -0.411177,-0.14466 -0.858879,-0.411861 -1.191659,-0.411861 h -3.6189 c -0.990143,0 -2.076006,0.396076 -2.865459,0.951363 -0.215008,0.15058 -0.348113,0.449558 -0.552421,0.65009 -0.213298,-0.22631 -0.419193,-0.464531 -0.652673,-0.63252 -0.793345,-0.568814 -1.897094,-0.968933 -2.900081,-0.968933 h -2.970878 c -1.004377,0 -2.108651,0.400414 -2.902149,0.970483 -0.19228,0.138539 -0.357812,0.342144 -0.537435,0.521416 -0.185747,-0.183218 -0.365639,-0.382228 -0.556555,-0.519349 -0.737965,-0.53312 -1.810152,-0.97255 -2.884578,-0.97255 h -3.640605 c -1.31356,0 -3.344477,1.091612 -4.058667,2.377116 -0.02978,0.05397 -0.05838,0.108591 -0.08578,0.163814 -0.752529,1.505123 -0.458018,3.108929 -0.09974,3.96875 l -0.08423,-0.220658 5.36143,15.19132 -0.113171,-0.382922 c 0.312091,1.248177 0.999527,2.017024 1.538924,2.496488 0.06904,0.06087 0.140047,0.119463 0.212907,0.1757 0.793691,0.617316 1.983591,1.048515 3.046842,1.048515 h 2.880961 c 0.932157,0 1.999804,-0.31308 2.795178,-0.843359 0.08608,-0.05754 0.170029,-0.11821 0.251665,-0.181901 0.151103,-0.117524 0.213608,-0.376224 0.359151,-0.523483 0.146031,0.148037 0.209792,0.405305 0.361735,0.523483 0.08163,0.06369 0.16558,0.124365 0.251664,0.181901 0.798067,0.532057 1.862977,0.843359 2.795178,0.843359 h 2.880961 c 0.93216,0 1.99653,-0.311246 2.794662,-0.843359 0.08626,-0.05752 0.170376,-0.1182 0.252181,-0.181901 0.577896,-0.449489 1.054659,-1.146608 1.409733,-1.86707 0.188352,0.450387 0.40168,0.901058 0.70745,1.257805 0.07048,0.0822 0.144086,0.16167 0.220658,0.238228 0.888599,0.888598 2.331374,1.396297 3.394625,1.396297 h 3.374988 c 1.081615,0 2.386153,-0.544454 3.216341,-1.296562 0.40799,0.199291 0.799968,0.425464 1.226799,0.589628 0.84242,0.324008 1.720377,0.556965 2.617411,0.71882 0.961686,0.188607 1.945447,0.279569 2.947107,0.279569 1.239831,0 2.446573,-0.125373 3.61735,-0.418062 0.01812,-0.0045 0.0362,-0.0092 0.05426,-0.01395 0.847594,-0.22389 1.622198,-0.699499 2.404505,-1.140499 0.833931,0.745003 2.122064,1.281059 3.195153,1.281059 h 6.097819 c 1.574121,0 3.127777,-0.236344 4.593518,-0.761711 1.461014,-0.518546 2.82751,-1.319667 3.980636,-2.357478 0.01439,-0.01351 0.02869,-0.02712 0.04289,-0.04082 0.253729,-0.234935 0.446421,-0.526289 0.677995,-0.783414 0.130416,0.145841 0.189029,0.344988 0.326078,0.484724 0.0098,0.0099 0.01959,0.01969 0.02946,0.02946 1.14065,1.14065 2.503483,2.054355 3.98632,2.69906 1.562662,0.67942 3.267981,1.021643 4.972306,1.021643 1.704326,0 3.408097,-0.342227 4.970756,-1.021643 0.895835,-0.389492 1.622464,-1.054472 2.408122,-1.630908 0.196648,0.340176 0.367604,0.713341 0.619083,0.964799 0.815875,0.815881 2.235128,1.396297 3.373438,1.396297 h 3.37292 c 1.1383,0 2.55705,-0.580416 3.37292,-1.396297 0.14612,-0.146115 0.23063,-0.380955 0.35967,-0.560689 0.50253,0.177322 1.02185,0.371036 1.44901,0.371036 0.40251,0 0.92881,-0.220352 1.43143,-0.402042 0.13508,0.191358 0.22508,0.437474 0.37931,0.591695 0.81588,0.815881 2.23461,1.396297 3.37292,1.396297 h 3.37292 c 1.1383,0 2.55705,-0.580416 3.37292,-1.396297 0.81906,-0.819062 1.39681,-2.241058 1.39681,-3.372921 V 60.115193 c 0,-1.132431 -0.57831,-2.554186 -1.39681,-3.372921 -0.81587,-0.815881 -2.23462,-1.396814 -3.37292,-1.396814 h -3.12694 c -0.99409,0 -1.8562,0.301639 -2.49597,0.650607 -0.57633,0.314372 -1.2124,0.786266 -1.74046,1.490348 -0.0389,0.05184 -0.0767,0.10456 -0.11318,0.15813 l -1.09192,1.601452 -1.08986,-1.601452 0.0899,0.136942 c -0.56164,-0.898189 -1.29702,-1.445722 -1.91978,-1.78542 -0.63758,-0.34776 -1.50183,-0.650607 -2.49597,-0.650607 h -3.12694 c -1.13831,0 -2.557563,0.580933 -3.373438,1.396814 -0.250607,0.250611 -0.420816,0.6239 -0.617016,0.962732 -0.786594,-0.583245 -1.511003,-1.259593 -2.410189,-1.650545 -1.56265,-0.679407 -3.266425,-1.021126 -4.970756,-1.021126 z m -41.115319,1.796789 c -0.004,0.0025 -0.0053,0.0072 -0.0093,0.0098 -0.0042,0.0027 -0.0098,0.003 -0.01395,0.0057 z m 50.043456,1.916162 0.0584,0.05839 c -0.0099,-0.01011 -0.02518,-0.01317 -0.03514,-0.02325 -0.01008,-0.01 -0.01314,-0.02522 -0.02326,-0.03514 z M 46.937703,76.992199 c 0.03994,0.03281 0.08631,0.0595 0.126607,0.09198 0.0075,0.0057 0.01217,0.01764 0.01964,0.02325 z m 16.880623,1.355473 -0.04289,0.031 c 0.0063,-0.0047 0.0092,-0.01288 0.0155,-0.01757 0.0084,-0.0063 0.01903,-0.0071 0.02739,-0.01344 z" style="color:#000;-inkscape-font-specification:Heavitas;fill:#a8c322;stroke-linecap:round;stroke-linejoin:round;stroke-miterlimit:128;-inkscape-stroke:none;paint-order:stroke fill markers"/><path d="m 90.640121,59.266665 c -1.161656,0 -2.256374,0.223372 -3.283993,0.670161 -1.027623,0.446792 -1.921099,1.057426 -2.680646,1.831866 -0.759547,0.759543 -1.362576,1.653025 -1.809368,2.680644 -0.446789,1.027623 -0.670161,2.122335 -0.670161,3.283996 0,1.161656 0.223372,2.256374 0.670161,3.283993 0.446792,1.027623 1.049821,1.928365 1.809368,2.702803 0.759547,0.759547 1.653023,1.362919 2.680646,1.809708 1.027619,0.446792 2.122337,0.670162 3.283993,0.670162 1.161657,0 2.256373,-0.22337 3.283996,-0.670162 1.027619,-0.446789 1.921101,-1.050161 2.680644,-1.809708 0.77444,-0.774438 1.385074,-1.67518 1.831866,-2.702803 0.446789,-1.027619 0.670161,-2.122337 0.670161,-3.283993 0,-1.161661 -0.223372,-2.256373 -0.670161,-3.283996 -0.446792,-1.027619 -1.057426,-1.921101 -1.831866,-2.680644 -0.759543,-0.77444 -1.653025,-1.385074 -2.680644,-1.831866 -1.027623,-0.446789 -2.122339,-0.670161 -3.283996,-0.670161 z m -34.559323,0.06681 c -0.714868,0 -1.452054,0.08195 -2.211601,0.245773 -0.759544,0.148928 -1.452128,0.424512 -2.077637,0.826621 -0.610614,0.387221 -1.116828,0.915909 -1.518941,1.586094 -0.402113,0.670189 -0.603349,1.519063 -0.603349,2.546682 0,0.699973 0.10442,1.310609 0.312924,1.831864 0.223396,0.506364 0.513846,0.94584 0.871276,1.318167 0.357434,0.372326 0.75957,0.677642 1.206359,0.915933 0.461685,0.238287 0.923293,0.439185 1.384978,0.603007 0.461684,0.148932 0.908423,0.268221 1.340323,0.357579 0.446792,0.07447 0.834056,0.141544 1.161703,0.201118 0.34254,0.07446 0.677596,0.133938 1.005241,0.178617 0.327649,0.04468 0.610492,0.104153 0.848782,0.178619 0.253179,0.07447 0.454417,0.171282 0.603349,0.290426 0.148931,0.104253 0.223273,0.253279 0.223273,0.446888 0,0.372327 -0.171158,0.655171 -0.5137,0.84878 -0.342538,0.178717 -0.84149,0.268269 -1.496784,0.268269 -0.685079,0 -1.422269,-0.149026 -2.211599,-0.446888 -0.789334,-0.297859 -1.585995,-0.707599 -2.390221,-1.228855 -0.119142,-0.07447 -0.253302,-0.0966 -0.402232,-0.06681 -0.148932,0.02978 -0.26822,0.104129 -0.357579,0.223273 l -1.720058,2.47987 c -0.08936,0.119144 -0.1267,0.260566 -0.111806,0.42439 0.01489,0.14893 0.08197,0.267878 0.201116,0.357237 0.417006,0.342541 0.871352,0.670331 1.36282,0.983086 0.506364,0.297859 1.049922,0.558574 1.630748,0.781967 0.58083,0.223396 1.206333,0.394556 1.876521,0.5137 0.670185,0.134037 1.392507,0.201117 2.166945,0.201117 0.953156,0 1.816897,-0.09682 2.591336,-0.290427 0.789331,-0.2085 1.459441,-0.521424 2.010484,-0.93843 0.565936,-0.417006 1.00541,-0.945692 1.318165,-1.586094 0.312754,-0.655294 0.469045,-1.429482 0.469045,-2.323067 0,-0.953153 -0.193633,-1.742553 -0.580851,-2.368062 -0.372327,-0.6404 -0.841201,-1.154219 -1.407135,-1.541439 -0.551043,-0.40211 -1.146809,-0.700166 -1.787211,-0.893775 -0.6404,-0.208504 -1.228902,-0.364794 -1.765053,-0.469045 -0.104251,-0.01489 -0.342489,-0.05189 -0.714816,-0.111466 -0.372326,-0.07447 -0.75959,-0.171284 -1.161704,-0.290425 -0.402113,-0.119146 -0.759299,-0.260908 -1.072053,-0.424732 -0.312755,-0.163823 -0.469385,-0.349851 -0.469385,-0.558355 0,-0.208502 0.05981,-0.372398 0.178959,-0.491541 0.134038,-0.119145 0.297592,-0.201093 0.491201,-0.245773 0.19361,-0.05957 0.394848,-0.08931 0.60335,-0.08931 0.223396,-0.01489 0.417028,-0.02216 0.580852,-0.02216 0.551044,0 1.154072,0.10408 1.809368,0.312584 0.655293,0.19361 1.362747,0.528665 2.12229,1.005241 0.119145,0.08936 0.253303,0.119096 0.402234,0.08931 0.14893,-0.02979 0.267878,-0.104129 0.357236,-0.223274 l 1.742557,-2.479526 c 0.08936,-0.119143 0.1267,-0.253303 0.111806,-0.402232 -0.01489,-0.148932 -0.08197,-0.275484 -0.201116,-0.379736 -0.908475,-0.699972 -1.861429,-1.22866 -2.859263,-1.586094 -0.982943,-0.372325 -2.100132,-0.558695 -3.351147,-0.558695 z m -39.876302,0.223616 c -0.163824,0 -0.282772,0.06674 -0.357238,0.200775 -0.05957,0.119145 -0.05231,0.268172 0.02216,0.446888 l 5.361631,15.191119 c 0.02979,0.119142 0.111734,0.238092 0.245772,0.357237 0.134037,0.104251 0.283064,0.156461 0.446888,0.156461 h 2.881762 c 0.163823,0 0.312509,-0.0446 0.446546,-0.133963 0.134038,-0.104252 0.22359,-0.230806 0.26827,-0.379735 l 2.457371,-7.439267 c 0.04468,-0.148932 0.119022,-0.223274 0.223274,-0.223274 0.119144,0 0.201092,0.07434 0.245771,0.223274 l 2.457372,7.439267 c 0.04468,0.148929 0.13389,0.275483 0.267928,0.379735 0.134037,0.08936 0.283063,0.133963 0.446888,0.133963 h 2.881762 c 0.163822,0 0.31285,-0.0446 0.446888,-0.133963 0.134034,-0.104252 0.230854,-0.230806 0.290425,-0.379735 l 5.406286,-15.25793 c 0.04468,-0.134037 0.03707,-0.260932 -0.0225,-0.380077 -0.05957,-0.134038 -0.171255,-0.200775 -0.33508,-0.200775 h -3.619076 c -0.163821,0 -0.312508,0.05187 -0.446546,0.15612 -0.134038,0.08936 -0.230854,0.201045 -0.290426,0.335082 l -2.569178,7.483921 c -0.05957,0.148932 -0.148785,0.223274 -0.267929,0.223274 -0.104251,0 -0.178935,-0.07434 -0.223614,-0.223274 L 30.412528,60.07079 c -0.04468,-0.14893 -0.13389,-0.26822 -0.267928,-0.357579 -0.134037,-0.104251 -0.283064,-0.15612 -0.446888,-0.15612 h -2.971071 c -0.163824,0 -0.31285,0.05187 -0.446888,0.15612 -0.134037,0.08936 -0.223249,0.208649 -0.267928,0.357579 l -2.457372,7.416771 c -0.04468,0.148928 -0.126626,0.223272 -0.245771,0.223272 -0.104251,0 -0.178935,-0.07434 -0.223614,-0.223272 l -2.546681,-7.439268 c -0.04468,-0.134037 -0.13389,-0.245723 -0.267928,-0.335082 -0.134037,-0.104251 -0.275459,-0.15612 -0.42439,-0.15612 z m 49.728287,0 c -0.148932,0 -0.275827,0.05187 -0.380078,0.15612 -0.104251,0.104253 -0.15612,0.231147 -0.15612,0.380078 v 15.280086 c 0,0.14893 0.05187,0.275484 0.15612,0.379735 0.104251,0.104251 0.231146,0.156461 0.380078,0.156461 h 6.098602 c 1.16166,0 2.219033,-0.17116 3.172189,-0.513698 0.968047,-0.342541 1.824526,-0.849097 2.569178,-1.519282 0.804223,-0.744655 1.414861,-1.630869 1.831865,-2.658488 0.417006,-1.042515 0.625507,-2.20397 0.625507,-3.484771 0,-1.280802 -0.208501,-2.434993 -0.625507,-3.462615 -0.417004,-1.027619 -1.027642,-1.913835 -1.831865,-2.658488 -1.489305,-1.37016 -3.403158,-2.055138 -5.741367,-2.055138 z m -22.652543,0.02216 c -0.163824,0 -0.297983,0.05221 -0.402234,0.156461 -0.08936,0.104251 -0.133964,0.230805 -0.133964,0.379735 v 15.25793 c 0,0.14893 0.04461,0.275484 0.133964,0.379735 0.104251,0.104251 0.23841,0.156461 0.402234,0.156461 h 3.373303 c 0.148931,0 0.275485,-0.05221 0.379736,-0.156461 0.104252,-0.104251 0.156462,-0.230805 0.156462,-0.379735 v -15.25793 c 0,-0.14893 -0.05221,-0.275484 -0.156462,-0.379735 -0.104251,-0.104251 -0.230805,-0.156461 -0.379736,-0.156461 z m 58.73081,0 c -0.14893,0 -0.27549,0.05221 -0.37974,0.156461 -0.10425,0.104251 -0.15646,0.230805 -0.15646,0.379735 v 15.25793 c 0,0.14893 0.0522,0.275484 0.15646,0.379735 0.10425,0.104251 0.23081,0.156461 0.37974,0.156461 h 3.3733 c 0.14893,0 0.27549,-0.05221 0.37974,-0.156461 0.10425,-0.104251 0.15646,-0.230805 0.15646,-0.379735 v -7.193155 c 0,-0.148932 0.0671,-0.230878 0.20112,-0.245772 0.13403,-0.01489 0.23811,0.03698 0.31258,0.15612 l 3.75304,6.054292 c 0.0894,0.119143 0.21591,0.178617 0.37973,0.178617 0.16383,0 0.28312,-0.05947 0.35758,-0.178617 l 3.75304,-6.054292 c 0.0894,-0.119143 0.20105,-0.171013 0.33508,-0.15612 0.13404,0.01489 0.20112,0.09684 0.20112,0.245772 v 7.193155 c 0,0.14893 0.0522,0.275484 0.15646,0.379735 0.10425,0.104251 0.23081,0.156461 0.37974,0.156461 h 3.3733 c 0.14893,0 0.27549,-0.05221 0.37974,-0.156461 0.10425,-0.104251 0.15612,-0.230805 0.15612,-0.379735 v -15.25793 c 0,-0.14893 -0.0519,-0.275484 -0.15612,-0.379735 -0.10425,-0.104251 -0.23081,-0.156461 -0.37974,-0.156461 h -3.12753 c -0.14893,0 -0.30556,0.0446 -0.46939,0.133962 -0.16382,0.08936 -0.29037,0.193781 -0.37973,0.312924 l -4.28924,6.299722 c -0.0745,0.119142 -0.17128,0.178618 -0.29043,0.178618 -0.11914,0 -0.22322,-0.05948 -0.31258,-0.178618 l -4.28924,-6.299724 c -0.0745,-0.119143 -0.19375,-0.223565 -0.35757,-0.312924 -0.16383,-0.08936 -0.32012,-0.133962 -0.46905,-0.133962 z m -11.370929,3.954156 c 0.551044,0 1.072466,0.119288 1.563938,0.357577 0.491471,0.223396 0.923342,0.528714 1.295668,0.915933 0.372325,0.372326 0.662776,0.819065 0.871277,1.340323 0.208503,0.506362 0.312583,1.03505 0.312583,1.586094 0,0.565934 -0.10408,1.101886 -0.312583,1.60825 -0.208501,0.506364 -0.498952,0.953444 -0.871277,1.340663 -0.372326,0.387221 -0.804197,0.699801 -1.295668,0.938089 -0.491472,0.223397 -1.012894,0.335081 -1.563938,0.335081 -0.551043,0 -1.072127,-0.111684 -1.563595,-0.335081 -0.491471,-0.238288 -0.923342,-0.550868 -1.295668,-0.938089 -0.357434,-0.387219 -0.640618,-0.834299 -0.849122,-1.340663 -0.2085,-0.506364 -0.312582,-1.042316 -0.312582,-1.60825 0,-0.551044 0.104082,-1.079732 0.312582,-1.586094 0.208504,-0.521258 0.491688,-0.967997 0.849122,-1.340323 0.372326,-0.387219 0.804197,-0.692537 1.295668,-0.915933 0.491468,-0.238289 1.012552,-0.357577 1.563595,-0.357577 z m -20.284138,0.178617 h 1.675402 c 0.417007,0 0.841272,0.05221 1.273171,0.156463 0.446789,0.104251 0.848925,0.305487 1.206359,0.60335 0.372325,0.282967 0.670379,0.692364 0.893775,1.228515 0.238289,0.521256 0.357237,1.206236 0.357237,2.055138 0,0.848905 -0.118948,1.541486 -0.357237,2.077637 -0.223396,0.521256 -0.513844,0.930996 -0.871278,1.228855 -0.357434,0.28297 -0.759566,0.476602 -1.206359,0.580853 -0.446789,0.104251 -0.878661,0.156121 -1.295668,0.156121 h -1.675402 c -0.148932,0 -0.275484,-0.05187 -0.379736,-0.156121 C 69.871996,71.538584 69.819785,71.41203 69.819785,71.2631 v -7.014878 c 0,-0.14893 0.05221,-0.275484 0.156462,-0.379735 0.104252,-0.104253 0.230804,-0.156463 0.379736,-0.156463 z" style="color:#000;-inkscape-font-specification:Heavitas;fill:#fff;stroke-linecap:round;stroke-linejoin:round;stroke-miterlimit:128;-inkscape-stroke:none;paint-order:stroke fill markers"/></svg>