<svg xmlns="http://www.w3.org/2000/svg" xml:space="preserve" width="512" height="512" viewBox="0 0 135.46666 135.46667"><path d="M 0 0 L 0 11.972396 L 0 67.733332 L 27.880468 39.852864 L 123.49427 135.46666 L 135.46666 135.46666 L 135.46666 123.49427 L 39.852864 27.880468 L 67.733332 0 L 11.972396 0 L 0 0 z" style="fill:#22c322;fill-opacity:1;stroke:none;stroke-width:33.8667;stroke-miterlimit:128;stroke-dasharray:none;stroke-opacity:1;paint-order:stroke fill markers"/><path d="M 99.652314 46.566149 C 97.906577 46.566149 96.137153 46.769437 94.357547 47.15061 C 92.361215 47.547083 90.460432 48.298114 88.763573 49.386649 C 87.79245 50.003669 86.929405 50.765045 86.148229 51.611319 C 85.973053 50.499327 85.507081 49.327858 84.747798 48.568611 C 83.825296 47.646109 82.27721 47.015734 80.990404 47.015734 L 58.160274 47.015734 C 57.407758 47.015734 56.603317 47.273073 55.84982 47.636885 C 55.129294 47.304001 54.377966 47.060693 53.808601 47.060693 L 45.734159 47.060693 C 44.58819 47.060693 43.567986 47.408163 42.765865 47.845658 A 4.2337564 4.2337564 0 0 0 42.613419 47.931441 C 41.781141 48.430796 40.956214 49.21145 40.418204 50.179882 L 38.095865 54.254052 L 35.75389 50.177815 C 35.752965 50.176115 35.750655 50.175381 35.749755 50.173681 C 35.176275 49.14456 34.300968 48.39575 33.458939 47.915938 C 32.63179 47.429655 31.563019 47.060693 30.437418 47.060693 L 22.452893 47.060693 C 21.597347 47.060693 20.430708 47.336365 19.502169 48.050813 C 18.599691 48.745209 18.09017 49.695739 17.849556 50.455318 C 17.424784 51.787427 17.650448 53.509254 18.2578 54.603385 A 4.2337564 4.2337564 0 0 0 18.314644 54.701053 C 20.186637 57.87138 22.058906 60.954356 23.933423 63.947517 A 4.2337564 4.2337564 0 0 0 23.950993 63.972839 C 25.772249 66.834805 27.547712 69.758401 29.285034 72.736128 A 4.2337564 4.2337564 0 0 0 29.343945 72.96092 L 29.343945 83.007852 C 29.343945 84.294062 29.976024 85.841655 30.898372 86.763695 C 31.820901 87.686267 33.367445 88.316572 34.654215 88.316572 L 41.427962 88.316572 C 42.714739 88.316572 44.262017 87.685544 45.183805 86.763695 C 46.105562 85.841982 46.738232 84.294628 46.738232 83.007852 L 46.738232 72.923713 C 46.775962 72.812289 46.797283 72.761352 46.781123 72.790905 L 52.849487 62.961014 L 52.849487 83.007852 C 52.849487 84.294062 53.482188 85.841669 54.40443 86.763695 C 55.327026 87.685522 56.873968 88.316572 58.160274 88.316572 L 80.990404 88.316572 C 82.277182 88.316572 83.825279 87.686232 84.747798 86.763695 C 85.350322 86.161171 85.742619 85.292348 86.001985 84.402599 C 86.392297 84.67464 86.743588 84.972434 87.152302 85.232523 A 4.2337564 4.2337564 0 0 0 87.277359 85.310554 C 88.505078 86.032746 89.809458 86.65484 91.179446 87.181758 C 92.603224 87.729363 94.107653 88.13593 95.675813 88.417858 C 97.317757 88.743394 99.032546 88.900516 100.81813 88.900516 C 103.01866 88.900516 105.09524 88.679377 107.04669 88.191515 A 4.2337564 4.2337564 0 0 0 107.10147 88.176012 C 109.11444 87.644284 110.98018 86.800894 112.58589 85.591674 C 114.24728 84.362952 115.59994 82.731708 116.50762 80.873099 A 4.2337564 4.2337564 0 0 0 116.52519 80.837959 C 117.47538 78.847098 117.88066 76.637602 117.88066 74.349466 C 117.88066 71.876757 117.36347 69.472414 116.09575 67.406221 C 115.2082 65.897443 114.02064 64.605161 112.6541 63.537206 L 115.76554 59.10957 L 115.68751 59.21654 C 116.44263 58.209674 116.86256 56.692127 116.73809 55.447261 C 116.60676 54.133719 115.83542 52.729295 114.9103 51.919828 A 4.2337564 4.2337564 0 0 0 114.70514 51.751879 C 112.57631 50.111643 110.27902 48.830949 107.84975 47.955212 C 105.32726 47.004221 102.57328 46.566149 99.652314 46.566149 z M 57.880704 49.146354 L 58.111181 49.507572 C 58.083741 49.459552 58.015994 49.441211 57.986124 49.3944 C 57.937784 49.315771 57.934683 49.221878 57.880704 49.146354 z M 112.04484 63.005973 L 112.15026 63.07987 C 112.13606 63.06948 112.11753 63.066965 112.10323 63.056615 C 112.08193 63.041845 112.06624 63.020613 112.04484 63.005973 z M 84.505952 68.103336 C 85.005054 68.931757 85.432784 69.811029 86.10172 70.50784 C 86.203683 70.61405 86.345881 70.670554 86.451053 70.773457 L 84.804642 73.148506 C 84.781742 73.124446 84.771078 73.083936 84.747798 73.060656 C 84.579624 72.892482 84.317521 72.797108 84.113211 72.650345 C 84.345193 72.037165 84.505952 71.39561 84.505952 70.80653 L 84.505952 68.103336 z M 84.00004 82.95876 C 84.04061 82.99208 84.089972 83.019651 84.130781 83.052811 C 84.137681 83.058111 84.141431 83.068818 84.148351 83.073998 L 84.00004 82.95876 z" style="color:#000;-inkscape-font-specification:Heavitas;fill:#22c322;stroke-linecap:round;stroke-linejoin:round;stroke-miterlimit:128;paint-order:stroke fill markers;stroke-width:1.00012499;stroke-dasharray:none;stroke:none"/><path d="m 99.65157,50.800011 c -1.43541,0 -2.91579,0.16438 -4.44092,0.493319 -1.52511,0.299044 -2.91559,0.852386 -4.17158,1.659804 -1.22607,0.777511 -2.24285,1.839073 -3.05027,3.184768 -0.80742,1.345693 -1.21114,3.050163 -1.21114,5.113562 0,1.405503 0.20933,2.631608 0.62799,3.67826 0.44856,1.016745 1.03176,1.899007 1.74946,2.646614 0.71771,0.747608 1.52516,1.360662 2.42229,1.839129 0.92703,0.47847 1.85408,0.882196 2.78111,1.211144 0.92703,0.299044 1.82405,0.538224 2.69127,0.717651 0.89714,0.14952 1.67473,0.28404 2.33263,0.403656 0.6878,0.14952 1.36056,0.269112 2.01846,0.358826 0.65789,0.08972 1.22616,0.209474 1.70463,0.358996 0.50837,0.14952 0.9121,0.34375 1.21114,0.582986 0.29904,0.20933 0.44849,0.508391 0.44849,0.897147 0,0.74761 -0.34385,1.31588 -1.03164,1.704635 -0.6878,0.358852 -1.68965,0.538324 -3.00544,0.538324 -1.3756,0 -2.85582,-0.299062 -4.44075,-0.89715 -1.58493,-0.598085 -3.1849,-1.420465 -4.79974,-2.467116 -0.23923,-0.14952 -0.50827,-0.19448 -0.80731,-0.13466 -0.29904,0.0598 -0.5384,0.209426 -0.71782,0.44866 l -3.45393,4.979065 c -0.17942,0.239236 -0.25424,0.52337 -0.22433,0.852318 0.0299,0.299043 0.1646,0.538225 0.40383,0.717651 0.83732,0.6878 1.74943,1.345634 2.73628,1.973625 1.01674,0.598086 2.10816,1.121404 3.27443,1.569968 1.16627,0.448565 2.42222,0.792581 3.76792,1.031815 1.3457,0.26914 2.79605,0.403658 4.35108,0.403658 1.91387,0 3.64837,-0.1944 5.2034,-0.583156 1.58492,-0.41866 2.93062,-1.046639 4.03708,-1.883961 1.13636,-0.837322 2.01863,-1.898883 2.64661,-3.184768 0.628,-1.315792 0.94199,-2.870813 0.94199,-4.665072 0,-1.913877 -0.3888,-3.498926 -1.16632,-4.754908 -0.7476,-1.285885 -1.68957,-2.317593 -2.82594,-3.095104 -1.10646,-0.807418 -2.30271,-1.405371 -3.58859,-1.794127 -1.28589,-0.41866 -2.46704,-0.732822 -3.5436,-0.942152 -0.20933,-0.0299 -0.68786,-0.10454 -1.43547,-0.22416 -0.74761,-0.14952 -1.52503,-0.343919 -2.33245,-0.583155 -0.80742,-0.239234 -1.52513,-0.52337 -2.15312,-0.852316 -0.62799,-0.328948 -0.94198,-0.702648 -0.94198,-1.121309 0,-0.41866 0.11958,-0.747748 0.35882,-0.986984 0.26914,-0.239234 0.59806,-0.403608 0.98681,-0.49332 0.38876,-0.11962 0.79249,-0.1795 1.21115,-0.1795 0.44856,-0.0299 0.83736,-0.04484 1.16631,-0.04484 1.10646,0 2.31747,0.209326 3.63325,0.627986 1.31579,0.388758 2.7363,1.061692 4.26142,2.018629 0.23923,0.17942 0.50844,0.239136 0.80748,0.17932 0.29905,-0.05982 0.53823,-0.209256 0.71766,-0.44849 l 3.49876,-4.979065 c 0.17942,-0.239236 0.25423,-0.508442 0.22433,-0.807486 -0.0299,-0.299044 -0.16442,-0.553152 -0.40366,-0.762483 -1.82417,-1.405504 -3.73813,-2.467235 -5.74172,-3.184939 -1.97369,-0.747607 -4.2164,-1.121307 -6.72836,-1.121307 z m -41.492335,0.448488 c -0.29904,0 -0.55332,0.104659 -0.76266,0.313993 -0.209319,0.20933 -0.313979,0.46361 -0.313979,0.762654 v 30.681883 c 0,0.299041 0.1046,0.553151 0.313979,0.762481 0.20934,0.20933 0.46362,0.313994 0.76266,0.313994 H 80.99111 c 0.29904,0 0.55332,-0.10466 0.76265,-0.313994 0.20933,-0.20933 0.314,-0.46344 0.314,-0.762481 V 76.81682 c 0,-0.299044 -0.10466,-0.553324 -0.314,-0.762654 -0.20933,-0.20933 -0.46361,-0.313994 -0.76265,-0.313994 H 67.040723 c -0.299044,0 -0.553152,-0.10466 -0.762484,-0.313994 -0.20933,-0.209329 -0.313992,-0.463439 -0.313992,-0.762481 v -1.704635 c 0,-0.299044 0.10466,-0.553152 0.313992,-0.762484 0.209332,-0.20933 0.46344,-0.313994 0.762484,-0.313994 H 79.19681 c 0.29904,0 0.55332,-0.10466 0.76265,-0.313992 0.20933,-0.209332 0.314,-0.463611 0.314,-0.762655 V 64.61573 c 0,-0.299044 -0.10466,-0.553154 -0.314,-0.762484 -0.20933,-0.20933 -0.46361,-0.313994 -0.76265,-0.313994 H 67.040723 c -0.299044,0 -0.553152,-0.10466 -0.762484,-0.313993 -0.20933,-0.20933 -0.313992,-0.46361 -0.313992,-0.762654 v -1.883961 c 0,-0.299044 0.10466,-0.553152 0.313992,-0.762482 0.209332,-0.209332 0.46344,-0.313994 0.762484,-0.313994 H 80.99111 c 0.29904,0 0.55332,-0.10466 0.76265,-0.313993 0.20933,-0.20933 0.314,-0.463612 0.314,-0.762654 v -6.100375 c 0,-0.299044 -0.10466,-0.553324 -0.314,-0.762654 -0.20933,-0.20933 -0.46361,-0.313993 -0.76265,-0.313993 z m -35.705782,0.04484 c -0.29904,0 -0.49344,0.14962 -0.58316,0.44866 -0.0896,0.26914 -0.0598,0.538176 0.0896,0.807316 1.854059,3.139954 3.708138,6.190289 5.562217,9.150817 1.883979,2.960529 3.723119,5.980837 5.517398,9.060984 0.1496,0.239234 0.269099,0.568151 0.358819,0.986811 0.1196,0.388756 0.1794,0.732772 0.1794,1.031816 v 10.227295 c 0,0.299041 0.1046,0.553151 0.314,0.762481 0.20932,0.20933 0.4636,0.313994 0.76266,0.313994 h 6.773356 c 0.29904,0 0.55316,-0.10466 0.76248,-0.313994 0.20934,-0.20933 0.314,-0.46344 0.314,-0.762481 V 72.73474 c 0,-0.299044 0.0598,-0.642888 0.1796,-1.031646 0.1196,-0.388756 0.25412,-0.717673 0.40366,-0.986811 L 54.301577,52.549314 c 0.23924,-0.418662 0.2842,-0.732652 0.1346,-0.941982 -0.1196,-0.20933 -0.32894,-0.313994 -0.62798,-0.313994 h -8.074176 c -0.29904,0 -0.613019,0.08974 -0.941979,0.269162 -0.29904,0.17942 -0.52346,0.40368 -0.67298,0.67282 l -5.472397,9.599307 c -0.1496,0.239234 -0.32898,0.358824 -0.53832,0.358824 -0.20932,0 -0.3888,-0.1196 -0.53832,-0.358824 L 32.052808,52.23532 c -0.1496,-0.26914 -0.38888,-0.493394 -0.71782,-0.67282 -0.299039,-0.17942 -0.598119,-0.269162 -0.897159,-0.269162 z" style="color:#000;-inkscape-font-specification:Heavitas;display:inline;fill:#fff;stroke-linecap:round;stroke-linejoin:round;stroke-miterlimit:128;-inkscape-stroke:none;paint-order:stroke fill markers"/></svg>