<svg xmlns="http://www.w3.org/2000/svg" xml:space="preserve" id="svg1" width="4608" height="3072" version="1.1" viewBox="0 0 1219.2 812.8"><defs id="defs1"><style id="style1">.cls-1{fill:#0283c0}.cls-2{fill:#fff}.cls-3{fill:#ef483f}</style></defs><path id="rect1" d="M 0 0 L 0 812.8 L 1219.2 812.8 L 1219.2 0 L 0 0 z" style="fill:#d00000;fill-rule:evenodd;stroke:none;stroke-width:8.46667;stroke-linecap:round;stroke-linejoin:round;fill-opacity:1"/><path id="path1" d="M 1219.2,0 V 406.4 H 0 V 0 Z" style="fill:#20a020;fill-opacity:1;fill-rule:evenodd;stroke:none;stroke-width:8.46668;stroke-linecap:round;stroke-linejoin:round"/><path id="path3" d="M 608.62301 137.58381 C 606.74659 137.58381 604.86342 138.3142 603.28501 139.89261 C 571.13876 172.03887 559.52648 221.08232 572.06048 262.86701 A 2.1168782 2.1168782 0 0 1 568.73647 265.14865 C 548.01292 249.07465 522.14085 240.09734 494.39265 240.09734 C 494.33215 240.09734 494.14122 240.13106 493.70662 240.14656 A 2.1168782 2.1168782 0 0 1 493.61126 240.14861 C 493.06177 240.14361 492.67795 240.09734 492.43916 240.09734 C 489.98061 240.09734 488.13857 240.8831 486.85762 242.16414 C 485.57667 243.44519 484.79338 245.28754 484.79338 247.74619 C 484.79338 284.25259 500.12699 314.92363 523.22634 338.02299 A 2.1168782 2.1168782 0 0 1 521.31439 341.59567 C 511.55111 339.643 501.92028 337.73227 492.43916 337.73227 C 489.98055 337.73227 488.13854 338.51559 486.85762 339.79651 C 485.5767 341.07744 484.79338 342.91995 484.79338 345.37857 C 484.79338 379.89933 500.16858 412.60015 523.22634 435.65793 A 2.1168782 2.1168782 0 0 1 521.31439 439.23061 C 511.55103 437.27796 501.92021 435.36516 492.43916 435.36516 C 489.98061 435.36516 488.13857 436.15041 486.85762 437.43145 C 485.57667 438.71249 484.79338 440.55486 484.79338 443.0135 C 484.79338 504.44039 530.89044 556.29469 590.40994 565.89459 A 2.1168782 2.1168782 0 0 1 592.1891 567.98446 L 592.1891 657.80698 C 592.1891 663.19458 593.94991 667.4771 596.93951 670.46671 C 599.92913 673.45632 604.21165 675.21661 609.59924 675.21661 C 610.94602 675.21661 612.22621 675.10438 613.43341 674.89052 C 621.88296 673.39374 627.0099 667.23527 627.0099 657.80698 L 627.0099 567.98446 A 2.1168782 2.1168782 0 0 1 628.78906 565.89459 C 688.30858 556.29469 734.40613 504.44039 734.40613 443.0135 C 734.40613 440.55486 733.62284 438.71249 732.34189 437.43145 C 731.06094 436.15041 729.2184 435.36516 726.75983 435.36516 C 717.27881 435.36516 707.64798 437.27796 697.88461 439.23061 A 2.1168782 2.1168782 0 0 1 695.97265 435.65793 C 719.03041 412.60015 734.40613 379.89933 734.40613 345.37857 C 734.40613 342.91995 733.62281 341.07744 732.34189 339.79651 C 731.06096 338.51559 729.21846 337.73227 726.75983 337.73227 C 717.27874 337.73227 707.6479 339.643 697.88461 341.59567 A 2.1168782 2.1168782 0 0 1 695.97265 338.02299 C 719.07199 314.92363 734.40613 284.25259 734.40613 247.74619 C 734.40613 245.28754 733.62284 243.44519 732.34189 242.16414 C 731.06094 240.8831 729.2184 240.09734 726.75983 240.09734 C 726.52104 240.09734 726.13723 240.14361 725.58774 240.14861 A 2.1168782 2.1168782 0 0 1 725.49442 240.14656 C 725.05983 240.13116 724.8689 240.09734 724.8084 240.09734 C 697.06019 240.09734 671.1866 249.07465 650.46304 265.14865 A 2.1168782 2.1168782 0 0 1 647.13903 262.86701 C 659.67303 221.08232 648.06023 172.03887 615.91398 139.89261 C 614.33557 138.3142 612.4524 137.58381 610.57599 137.58381 C 610.52189 137.58381 610.27287 137.62143 609.82638 137.66943 A 2.1168782 2.1168782 0 0 1 609.37313 137.66943 C 608.92664 137.62143 608.67711 137.58381 608.62301 137.58381 z M 366.45096 204.78842 C 365.04364 204.78842 363.63146 205.33608 362.44759 206.5199 C 338.33798 230.6296 329.62885 267.41218 339.02931 298.7507 A 1.5876589 1.5876589 0 0 1 336.53592 300.46167 C 320.99324 288.40616 301.58954 281.67331 280.77844 281.67331 C 280.7328 281.67331 280.5896 281.69862 280.26367 281.71023 A 1.5876589 1.5876589 0 0 1 280.1924 281.71125 C 279.78024 281.70728 279.49267 281.6728 279.31358 281.6728 C 277.46961 281.6728 276.0879 282.26199 275.12717 283.22277 C 274.16644 284.18356 273.57874 285.5652 273.57874 287.40918 C 273.57874 314.78898 285.07926 337.79277 302.40371 355.1173 A 1.5876589 1.5876589 0 0 1 300.96962 357.79629 C 293.64719 356.3318 286.42438 354.89887 279.31358 354.89887 C 277.46961 354.89887 276.0879 355.48661 275.12717 356.44731 C 274.16654 357.40799 273.57874 358.78975 273.57874 360.63372 C 273.57874 386.52431 285.11042 411.05003 302.40371 428.34337 A 1.5876589 1.5876589 0 0 1 300.96962 431.02288 C 293.64709 429.55839 286.42438 428.12341 279.31358 428.12341 C 277.46961 428.12341 276.0879 428.71261 275.12717 429.67338 C 274.16644 430.63417 273.57874 432.01632 273.57874 433.86031 C 273.57874 479.93049 308.15179 518.82093 352.79141 526.02086 A 1.5876589 1.5876589 0 0 1 354.12604 527.58827 L 354.12604 594.9549 C 354.12604 598.9956 355.44632 602.20737 357.68846 604.44958 C 359.9306 606.69178 363.14287 608.012 367.18364 608.012 C 368.19379 608.012 369.15365 607.92837 370.05901 607.76794 C 376.3962 606.64535 380.24125 602.02612 380.24125 594.9549 L 380.24125 527.58827 A 1.5876589 1.5876589 0 0 1 381.57588 526.02086 C 426.2155 518.82093 460.78906 479.93049 460.78906 433.86031 C 460.78906 432.01632 460.20126 430.63417 459.24063 429.67338 C 458.2798 428.71261 456.89758 428.12341 455.0537 428.12341 C 447.94291 428.12341 440.7201 429.55839 433.39767 431.02288 A 1.5876589 1.5876589 0 0 1 431.96357 428.34337 C 449.257 411.05003 460.78906 386.52431 460.78906 360.63372 C 460.78906 358.78975 460.20126 357.40799 459.24063 356.44731 C 458.2798 355.48661 456.89768 354.89887 455.0537 354.89887 C 447.94281 354.89887 440.7201 356.3318 433.39767 357.79629 A 1.5876589 1.5876589 0 0 1 431.96357 355.1173 C 449.28815 337.79277 460.78906 314.78898 460.78906 287.40918 C 460.78906 285.5652 460.20126 284.18356 459.24063 283.22277 C 458.2798 282.26199 456.89758 281.6728 455.0537 281.6728 C 454.87461 281.6728 454.58694 281.70758 454.17489 281.71125 A 1.5876589 1.5876589 0 0 1 454.10465 281.71023 C 453.77871 281.69872 453.63572 281.67331 453.59038 281.67331 C 432.77916 281.67331 413.37405 288.40616 397.83136 300.46167 A 1.5876589 1.5876589 0 0 1 395.33797 298.7507 C 404.73854 267.41218 396.02887 230.6296 371.91919 206.5199 C 370.73541 205.33608 369.32313 204.78842 367.91582 204.78842 C 367.87514 204.78842 367.68873 204.81649 367.35387 204.85251 A 1.5876589 1.5876589 0 0 1 367.01393 204.85251 C 366.67907 204.81649 366.49164 204.78842 366.45096 204.78842 z M 851.28267 204.78842 C 849.87535 204.78842 848.46317 205.33608 847.2793 206.5199 C 823.16969 230.6296 814.46056 267.41218 823.86102 298.7507 A 1.5876589 1.5876589 0 0 1 821.36763 300.46167 C 805.82495 288.40616 786.42125 281.67331 765.61015 281.67331 C 765.56451 281.67331 765.42131 281.69862 765.09538 281.71023 A 1.5876589 1.5876589 0 0 1 765.02411 281.71125 C 764.61195 281.70728 764.32438 281.6728 764.14529 281.6728 C 762.30132 281.6728 760.91961 282.26199 759.95888 283.22277 C 758.99815 284.18356 758.41045 285.5652 758.41045 287.40918 C 758.41045 314.78898 769.91097 337.79277 787.23542 355.1173 A 1.5876589 1.5876589 0 0 1 785.80133 357.79629 C 778.4789 356.3318 771.25609 354.89887 764.14529 354.89887 C 762.30132 354.89887 760.91961 355.48661 759.95888 356.44731 C 758.99825 357.40799 758.41045 358.78975 758.41045 360.63372 C 758.41045 386.52431 769.94213 411.05003 787.23542 428.34337 A 1.5876589 1.5876589 0 0 1 785.80133 431.02288 C 778.4788 429.55839 771.25609 428.12341 764.14529 428.12341 C 762.30132 428.12341 760.91961 428.71261 759.95888 429.67338 C 758.99815 430.63417 758.41045 432.01632 758.41045 433.86031 C 758.41045 479.93049 792.9835 518.82093 837.62312 526.02086 A 1.5876589 1.5876589 0 0 1 838.95775 527.58827 L 838.95775 594.9549 C 838.95775 598.9956 840.27803 602.20737 842.52017 604.44958 C 844.76231 606.69178 847.97458 608.012 852.01535 608.012 C 853.0255 608.012 853.98536 607.92837 854.89072 607.76794 C 861.22791 606.64535 865.07296 602.02612 865.07296 594.9549 L 865.07296 527.58827 A 1.5876589 1.5876589 0 0 1 866.40759 526.02086 C 911.04721 518.82093 945.62077 479.93049 945.62077 433.86031 C 945.62077 432.01632 945.03297 430.63417 944.07234 429.67338 C 943.11151 428.71261 941.72929 428.12341 939.88541 428.12341 C 932.77462 428.12341 925.55181 429.55839 918.22938 431.02288 A 1.5876589 1.5876589 0 0 1 916.79528 428.34337 C 934.08871 411.05003 945.62077 386.52431 945.62077 360.63372 C 945.62077 358.78975 945.03297 357.40799 944.07234 356.44731 C 943.11151 355.48661 941.72939 354.89887 939.88541 354.89887 C 932.77452 354.89887 925.55181 356.3318 918.22938 357.79629 A 1.5876589 1.5876589 0 0 1 916.79528 355.1173 C 934.11986 337.79277 945.62077 314.78898 945.62077 287.40918 C 945.62077 285.5652 945.03297 284.18356 944.07234 283.22277 C 943.11151 282.26199 941.72929 281.6728 939.88541 281.6728 C 939.70632 281.6728 939.41865 281.70758 939.0066 281.71125 A 1.5876589 1.5876589 0 0 1 938.93636 281.71023 C 938.61042 281.69872 938.46743 281.67331 938.42209 281.67331 C 917.61087 281.67331 898.20576 288.40616 882.66307 300.46167 A 1.5876589 1.5876589 0 0 1 880.16968 298.7507 C 889.57025 267.41218 880.86058 230.6296 856.7509 206.5199 C 855.56712 205.33608 854.15484 204.78842 852.74753 204.78842 C 852.70685 204.78842 852.52044 204.81649 852.18558 204.85251 A 1.5876589 1.5876589 0 0 1 851.84564 204.85251 C 851.51078 204.81649 851.32335 204.78842 851.28267 204.78842 z M 580.72453 368.68763 C 590.48782 370.6403 600.11815 372.55308 609.59924 372.55308 C 619.08036 372.55308 628.71118 370.6403 638.47447 368.68763 A 2.1168782 2.1168782 0 0 1 640.38694 372.2598 C 637.49942 375.1473 634.60897 378.27789 631.81056 381.58783 C 629.01212 384.8978 626.3064 388.38767 623.78331 391.99208 C 621.26021 395.59651 618.9208 399.31596 616.8574 403.08389 C 615.82572 404.96783 614.86131 406.86402 613.97844 408.76388 C 613.09561 410.66364 612.29386 412.56598 611.58196 414.46437 A 2.1168782 2.1168782 0 0 1 607.61704 414.46437 C 606.19324 410.6676 604.40705 406.85187 602.34365 403.08389 C 600.28025 399.31596 597.94084 395.59651 595.41774 391.99208 C 590.37165 384.78339 584.58744 378.03465 578.81257 372.2598 A 2.1168782 2.1168782 0 0 1 580.72453 368.68763 z M 345.52761 378.11616 C 352.85014 379.58067 360.07285 381.01512 367.18364 381.01512 C 374.29454 381.01512 381.51715 379.58067 388.83968 378.11616 A 1.5876589 1.5876589 0 0 1 390.27377 380.79516 C 388.10813 382.96078 385.94039 385.30886 383.84162 387.79131 C 381.74275 390.27379 379.71348 392.89119 377.82118 395.5945 C 375.92882 398.29782 374.17426 401.08753 372.62675 403.91349 C 371.85304 405.32645 371.12984 406.74832 370.46766 408.17322 C 369.80557 409.59804 369.20403 411.02505 368.67004 412.44885 A 1.5876589 1.5876589 0 0 1 365.69674 412.44885 C 364.62885 409.60126 363.28908 406.73948 361.74156 403.91349 C 360.19395 401.08753 358.43953 398.29782 356.54713 395.5945 C 352.76264 390.18798 348.4246 385.12629 344.09351 380.79516 A 1.5876589 1.5876589 0 0 1 345.52761 378.11616 z M 830.35881 378.11616 C 837.68134 379.58067 844.90456 381.01512 852.01535 381.01512 C 859.12625 381.01512 866.34886 379.58067 873.67139 378.11616 A 1.5876589 1.5876589 0 0 1 875.10548 380.79516 C 872.93984 382.96078 870.7721 385.30886 868.67333 387.79131 C 866.57446 390.27379 864.54519 392.89119 862.65289 395.5945 C 860.76053 398.29782 859.00597 401.08753 857.45846 403.91349 C 856.68475 405.32645 855.96155 406.74832 855.29937 408.17322 C 854.63728 409.59804 854.03574 411.02505 853.50175 412.44885 A 1.5876589 1.5876589 0 0 1 850.52845 412.44885 C 849.46056 409.60126 848.12079 406.73948 846.57327 403.91349 C 845.02566 401.08753 843.27124 398.29782 841.37884 395.5945 C 837.59435 390.18798 833.25631 385.12629 828.92522 380.79516 A 1.5876589 1.5876589 0 0 1 830.35881 378.11616 z M 345.52761 451.34223 C 352.85014 452.80673 360.07285 454.23965 367.18364 454.23965 C 374.29444 454.23965 381.51715 452.80673 388.83968 451.34223 A 1.5876589 1.5876589 0 0 1 390.27377 454.02123 C 388.10823 456.18681 385.94049 458.53486 383.84162 461.01739 C 381.74275 463.49991 379.71348 466.11579 377.82118 468.81903 C 375.92892 471.5223 374.17436 474.31355 372.62675 477.13956 C 371.85294 478.55261 371.12984 479.9745 370.46766 481.39929 C 369.80567 482.82401 369.20403 484.25103 368.67004 485.67492 A 1.5876589 1.5876589 0 0 1 365.69674 485.67492 C 364.62885 482.82734 363.28908 479.96553 361.74156 477.13956 C 360.19395 474.31355 358.43953 471.5223 356.54713 468.81903 C 352.76264 463.41253 348.4246 458.35237 344.09351 454.02123 A 1.5876589 1.5876589 0 0 1 345.52761 451.34223 z M 830.35881 451.34223 C 837.68134 452.80673 844.90456 454.23965 852.01535 454.23965 C 859.12615 454.23965 866.34886 452.80673 873.67139 451.34223 A 1.5876589 1.5876589 0 0 1 875.10548 454.02123 C 872.93994 456.18681 870.7722 458.53486 868.67333 461.01739 C 866.57446 463.49991 864.54519 466.11579 862.65289 468.81903 C 860.76063 471.5223 859.00607 474.31355 857.45846 477.13956 C 856.68465 478.55261 855.96155 479.9745 855.29937 481.39929 C 854.63738 482.82401 854.03574 484.25103 853.50175 485.67492 A 1.5876589 1.5876589 0 0 1 850.52845 485.67492 C 849.46056 482.82734 848.12079 479.96553 846.57327 477.13956 C 845.02566 474.31355 843.27124 471.5223 841.37884 468.81903 C 837.59435 463.41253 833.25631 458.35237 828.92522 454.02123 A 1.5876589 1.5876589 0 0 1 830.35881 451.34223 z M 580.72453 466.32257 C 590.48789 468.27525 600.11822 470.18596 609.59924 470.18596 C 619.08029 470.18596 628.71111 468.27525 638.47447 466.32257 A 2.1168782 2.1168782 0 0 1 640.38694 469.89422 C 637.49951 472.78165 634.60904 475.91222 631.81056 479.22226 C 629.01205 482.53229 626.30635 486.02064 623.78331 489.62497 C 621.26027 493.22931 618.92084 496.95082 616.8574 500.71883 C 615.82565 502.6029 614.86125 504.49857 613.97844 506.3983 C 613.09567 508.29792 612.29391 510.20079 611.58196 512.09931 A 2.1168782 2.1168782 0 0 1 607.61704 512.09931 C 606.19324 508.30254 604.40705 504.48681 602.34365 500.71883 C 600.28021 496.95082 597.94078 493.22931 595.41774 489.62497 C 590.37165 482.41627 584.58744 475.66908 578.81257 469.89422 A 2.1168782 2.1168782 0 0 1 580.72453 466.32257 z" style="color:#000;fill:#ffd000;stroke-width:.992187;stroke-linecap:round;stroke-linejoin:round;-inkscape-stroke:none" transform="matrix(1.007875,0,0,1.007875,-4.8003531,-3.2006117)"/></svg>