<svg xmlns="http://www.w3.org/2000/svg" xml:space="preserve" id="svg1" width="4608" height="3072" version="1.1" viewBox="0 0 1219.2 812.8"><defs id="defs1"><style id="style1">.cls-1{fill:#0283c0}.cls-2{fill:#fff}.cls-3{fill:#ef483f}</style></defs><path id="rect1" d="M 0 0 L 0 812.8 L 1219.2 812.8 L 1219.2 0 L 0 0 z" style="fill:#000;fill-rule:evenodd;stroke:none;stroke-width:8.46667;stroke-linecap:round;stroke-linejoin:round;fill-opacity:1"/><path id="path1" d="M 0,0 V 812.79994 L 1219.1999,0 Z" style="fill:#800020;stroke-width:4.23333;stroke-linecap:round;stroke-linejoin:round;stroke-miterlimit:128;fill-opacity:1"/><path id="path3" d="M 1474.4922 2302.3379 A 1152 1152 0 0 0 2432 2816 A 1152 1152 0 0 0 3244.5117 2476.5117 L 2972.9922 2204.9922 A 768.00001 768.00001 0 0 1 2432 2432 A 768.00001 768.00001 0 0 1 1795.25 2088.5 L 1474.4922 2302.3379 z" style="fill:#800020;stroke-width:3.78;stroke-miterlimit:128;fill-opacity:1" transform="matrix(0.26458333,0,0,0.26458333,-33.866659,-33.866662)"/><path id="path5" d="M 1474.4922 2302.3379 L 1795.25 2088.5 A 768.00001 768.00001 0 0 1 1664 1664 A 768.00001 768.00001 0 0 1 2432 895.99999 A 768.00001 768.00001 0 0 1 2975.0586 1120.9414 L 3246.5879 849.4121 A 1152 1152 0 0 0 2432 511.99999 A 1152 1152 0 0 0 1280 1664 A 1152 1152 0 0 0 1474.4922 2302.3379 z" style="fill:#000;stroke-width:3.78;stroke-miterlimit:128;fill-opacity:1" transform="matrix(0.26458333,0,0,0.26458333,-33.866659,-33.866662)"/></svg>