<svg xmlns="http://www.w3.org/2000/svg" xml:space="preserve" id="svg1" width="4608" height="3072" version="1.1" viewBox="0 0 1219.2 812.8"><defs id="defs1"><style id="style1">.cls-1{fill:#0283c0}.cls-2{fill:#fff}.cls-3{fill:#ef483f}</style></defs><path id="rect1" d="M 0 0 L 0 812.8 L 1219.2 812.8 L 1219.2 0 L 0 0 z" style="fill:#000;fill-rule:evenodd;stroke:none;stroke-width:8.46667;stroke-linecap:round;stroke-linejoin:round;fill-opacity:1"/><path id="rect2" d="M 406.39998,0 V 406.4 H 1219.2 V 0 Z" style="fill:#ff8000;stroke-width:4.23333;stroke-linecap:round;stroke-linejoin:round;stroke-miterlimit:128;fill-opacity:1"/><path id="path2" d="m 406.39998,406.39997 v 406.4 H 1219.2 v -406.4 z" style="fill:#fff;stroke-width:4.23333;stroke-linecap:round;stroke-linejoin:round;stroke-miterlimit:128;fill-opacity:1"/><path id="_72731584-7" d="m 739.89089,487.9115 c 1.44772,0.0352 1.67333,1.79834 0.01,5.1664 -3.41232,6.90919 0.29831,13.766 11.50009,21.25383 5.2895,3.5358 6.75109,5.31068 3.77445,4.58317 -2.6719,-0.65314 -6.60518,-1.18709 -8.74011,-1.18709 -2.13495,0 -6.81043,-2.06768 -10.39064,-4.59475 -7.61275,-5.37338 -8.67793,-14.85098 -2.38164,-21.196 2.72155,-2.74256 4.95052,-4.05662 6.22794,-4.02556 z m 59.34513,27.98651 c 20.79442,-0.12006 38.5904,11.87531 46.92562,31.63042 5.80388,13.75565 9.74491,16.30016 21.91303,14.14442 3.4504,-0.61125 6.11193,-0.36818 8.15441,0.83684 1.69662,-2.19192 4.138,-5.21177 6.94912,-8.58563 -3.77295,-3.02179 -7.17806,-6.5219 -5.23084,-7.95118 0.15091,-2.65764 -2.4979,-6.54173 1.56958,-5.36137 5.91944,0.82729 10.31125,0.65279 14.60209,0.61296 8.02629,-9.00297 15.60662,-16.71516 16.67725,-15.43644 2.27638,2.71887 -3.32505,10.79544 -3.32505,10.79544 -1.28925,1.8584 -2.42758,3.53427 -3.56874,5.2135 1.30136,0.20197 2.6635,0.46706 4.12387,0.82609 2.68294,0.66032 8.58391,2.0784 10.2461,-0.0248 1.75871,-3.36163 2.6172,-2.93511 4.47741,-2.87564 8.77279,0.28198 13.06929,1.11243 17.61739,2.99461 l -0.088,-0.30483 c 4.59719,-3.93347 6.34489,-5.15983 13.17461,-2.99378 6.54713,2.07406 17.55268,5.02217 25.3983,12.46912 0.4928,0.46796 -0.537,1.68423 -1.21432,1.64475 -3.0701,-0.17815 -11.74583,-4.75964 -14.73176,-5.50262 l -0.20329,0.0636 c 0.68585,0.27349 1.36209,0.59089 2.02727,0.96158 12.64701,7.04328 15.38564,12.08366 22.1377,20.99359 6.03779,7.96681 -3.56911,1.334 -17.52073,-4.62614 -3.5568,-1.51926 -9.22028,-5.30623 -11.08864,-4.13544 5.62099,5.93456 9.19971,21.59113 5.19035,28.56064 -4.66242,12.03298 -8.59498,21.80375 -12.7012,29.90966 3.18556,5.59217 2.71378,13.92169 -2.00329,27.83452 4.36439,2.75595 6.71128,4.11368 9.07299,8.03131 20.70542,-1.42899 59.85075,2.50764 75.06995,1.62988 14.9875,-0.86316 21.7798,17.15435 44.3532,23.83207 12.5771,3.7198 4.7543,12.72363 -5.4961,9.72896 -2.2824,-0.84605 -4.4112,-0.27852 -7.3796,-3.90002 -3.9589,-4.82553 -21.4942,-16.55275 -28.2475,-17.4513 -21.7,-0.56039 -50.07982,6.61144 -72.65848,8.6922 19.60818,1.43324 41.35838,2.18493 63.03038,6.05281 3.6444,-0.0221 7.3881,-1.09004 13.6835,5.4952 v 0.003 c 14.4487,15.11627 14.1693,22.79653 26.4242,31.10916 11.1058,7.53052 1.2783,14.05362 -7.5372,8.23948 -2.0329,-1.34117 -4.2299,-1.2634 -6.3156,-5.46628 -9.6421,-14.55627 -12.9959,-24.4309 -23.2397,-27.14553 -27.4374,-7.26931 -64.77944,6.09858 -88.36675,3.80087 -8.3148,-0.80867 -13.139,-0.47611 -18.13699,-1.56463 -49.70798,20.99753 -84.9977,-9.24969 -119.21235,-52.64467 -7.57243,-2.04884 -10.8277,-8.28552 -18.47402,-7.79009 -1.04813,3.9251 -3.99985,12.14484 -4.44108,11.491 -2.98686,-0.40015 -5.27944,-0.95603 -7.27626,-1.53571 -18.4986,17.6008 -44.13553,32.18926 -67.34175,37.65927 -9.38502,5.64144 -19.2286,9.50142 -28.88285,9.3985 -35.55042,1.04958 -31.8381,1.10134 -65.71184,-6.79051 -8.74487,-2.03669 -17.77286,0.26195 -27.0299,11.03997 -5.13732,5.98006 -12.27211,18.6825 -18.91513,22.90517 -5.95153,3.78068 -23.20853,11.28165 -17.83296,-3.88927 -0.0636,-2.48505 1.28304,-5.32279 4.01236,-8.42121 3.38387,-3.84295 13.06495,-3.2493 16.80198,-6.74592 13.08584,-12.24508 20.68655,-26.53676 36.2359,-36.34494 9.62144,-6.06965 5.75181,15.55374 28.80105,14.77225 6.71524,-0.22823 11.43554,-1.53896 15.29353,-3.29943 -10.62704,-3.39831 -14.32355,-5.53549 -34.10789,-18.2394 -7.56146,-4.85603 -16.83498,-5.71945 -29.15212,1.32921 -6.83179,3.90977 -17.78958,13.48643 -25.45783,15.23486 -6.86786,1.56286 -25.62949,2.83902 -15.50832,-9.65375 0.76789,-2.36336 2.98368,-4.58398 6.58812,-6.58896 4.46896,-2.48374 13.39428,1.32669 18.08078,-0.71539 16.41342,-7.14586 28.34006,-18.06125 46.26225,-22.08488 11.08837,-2.48969 0.23694,16.58915 22.21953,23.58919 17.08798,5.44215 20.15331,-4.21459 32.19217,-4.35767 3.44008,-2.61187 6.95368,-5.1062 10.54264,-7.51003 5.94818,-7.32332 12.30865,-14.48476 19.09687,-21.709 -19.88804,14.27597 -53.66749,18.34581 -76.42056,6.39565 -11.73294,-6.16175 -19.13915,-17.46777 -23.39918,-30.0534 -3.87717,-11.45501 -1.59395,-26.47014 4.03714,-37.1628 7.62895,-14.49329 26.23696,-24.24933 42.54149,-23.49172 15.81326,0.73281 33.37173,9.41894 35.96413,26.43345 2.16319,14.20226 -10.98633,24.73526 -23.30172,24.5326 -7.44605,-0.12133 -9.41646,-4.41058 -0.48492,-4.46588 6.76481,-0.0441 14.68224,-5.62311 16.16837,-12.24772 3.85412,-17.17559 -15.52842,-25.15382 -27.66432,-25.45781 -13.87045,-0.34813 -24.36851,5.7521 -32.24504,16.22453 -5.84156,7.76852 -8.74067,22.38125 -5.18129,31.43547 5.18895,13.19415 12.13452,26.9647 37.53868,29.08437 21.52779,1.79608 45.4295,-9.34731 61.85647,-19.42401 14.85319,-16.02721 47.38365,-24.38154 80.48661,-18.17248 21.92964,-2.87455 51.41734,5.51015 78.72702,14.43359 5.43377,-4.51293 12.73328,-7.24341 20.72429,-7.18541 9.97805,-9.4788 18.95353,-17.05013 28.80765,-23.41489 -6.84745,-4.65169 -14.11966,-9.74751 -20.3294,-11.3076 -3.87851,-0.97506 -5.58462,-1.78794 -6.34196,-2.50226 -7.37872,12.39746 -6.43841,13.25298 -9.94703,14.52279 -1.07846,3.52762 -6.14847,5.23858 -20.5095,8.42784 -23.28914,5.17202 -50.59579,1.77996 -82.03308,-10.18908 -13.3747,-5.09203 -23.85693,-7.79861 -30.21945,-7.80661 -23.15455,-0.0248 -37.97975,-6.54433 -42.92728,-18.87715 l -2.5609,-6.38324 6.96648,6.2395 6.9673,6.23869 24.16663,-1.25235 c 28.2922,-1.46659 34.37692,-0.2271 51.66988,10.5286 6.75273,4.19999 15.27665,8.73384 18.94239,10.07507 9.34579,3.41945 28.74898,4.9587 39.74601,3.15322 9.01829,-1.48058 8.84348,-1.55672 -6.13213,-2.68648 -20.12043,-1.51786 -32.95563,-6.37959 -43.69721,-16.55002 -21.85098,-20.6891 -18.71151,-19.15397 -41.5502,-20.30959 -22.18814,-1.12289 -27.34043,-3.52457 -32.0418,-14.93665 l -1.86368,-4.52536 7.41339,4.11645 c 6.66054,3.69775 10.03694,4.06459 33.22397,3.6092 29.56087,-0.58063 32.8906,0.59342 43.5799,15.36375 6.43278,8.88876 21.32577,20.17427 24.06833,18.23858 0.89118,-0.62913 -0.63455,-2.85221 -3.3903,-4.94006 -2.75569,-2.08777 -7.25313,-8.25056 -9.99495,-13.69504 -6.71816,-13.34049 -10.76517,-17.4065 -20.79616,-20.89778 l -8.49061,-2.95496 z" style="fill:#ff8000;fill-opacity:1;fill-rule:evenodd;stroke:none;stroke-width:.264583;stroke-miterlimit:4;stroke-dasharray:none"/><path id="path4" d="M 406.4 0 L 355.96225 155.23083 L 192.74276 155.23083 L 324.79051 251.16917 L 274.35276 406.4 L 406.4 310.46219 L 406.4 0 z" style="fill:#ff8000;fill-opacity:1;stroke-width:4.23331;stroke-linecap:round;stroke-linejoin:round;stroke-miterlimit:128"/><path id="path5" d="M 406.4 0 L 406.4 310.46219 L 538.44724 406.4 L 488.00949 251.16917 L 620.05724 155.23083 L 456.83775 155.23083 L 406.4 0 z" style="fill:#000;fill-opacity:1;stroke-width:4.23331;stroke-linecap:round;stroke-linejoin:round;stroke-miterlimit:128"/></svg>