<svg version="1.1" id="Layer_1" xmlns="http://www.w3.org/2000/svg" xmlns:xlink="http://www.w3.org/1999/xlink" x="0px" y="0px"
	 width="100%" viewBox="0 0 1280 777" enable-background="new 0 0 1280 777" xml:space="preserve">
<path fill="#D20001" opacity="1.000000" stroke="none" 
	d="
M850.000000,778.000000 
	C566.700989,778.000000 283.902008,778.000000 1.051510,778.000000 
	C1.051510,519.065796 1.051510,260.131592 1.051510,1.098680 
	C427.549042,1.098680 854.098145,1.098680 1280.823608,1.098680 
	C1280.823608,259.999908 1280.823608,518.999939 1280.823608,778.000000 
	C1137.464722,778.000000 993.982361,778.000000 850.000000,778.000000 
M603.919250,576.088684 
	C612.699036,573.174988 621.568237,570.501465 630.231567,567.275208 
	C637.794983,564.458618 644.883301,562.081543 653.247803,565.308105 
	C664.886047,569.797485 676.950073,573.203735 688.888977,576.888550 
	C704.843811,581.812805 720.919312,586.353821 736.820923,591.440857 
	C752.577393,596.481384 768.172302,602.025452 783.864014,607.271118 
	C786.362366,608.106323 788.997009,608.534058 792.010986,609.256165 
	C791.605408,605.386047 791.132568,602.454956 791.019287,599.510071 
	C790.604614,588.733215 790.286133,577.952454 789.975708,567.171875 
	C789.622009,554.888672 789.248413,542.605408 789.003723,530.319763 
	C788.603149,510.205505 788.299744,490.089294 787.954529,469.973907 
	C787.945984,469.474213 788.067444,468.918304 787.892578,468.483368 
	C784.140015,459.149017 789.202454,451.800873 793.896301,444.843170 
	C802.839050,431.587341 812.372314,418.726807 821.777893,405.787537 
	C826.969299,398.645691 832.389465,391.669769 837.726440,384.634155 
	C840.014526,381.617859 842.490540,378.734924 844.641541,375.625610 
	C849.408691,368.734558 853.901733,361.652069 858.733704,354.808044 
	C864.308472,346.912201 870.127747,339.188995 876.017944,331.149109 
	C867.256897,328.022400 859.203552,324.758453 850.914001,322.286499 
	C840.071777,319.053375 828.982910,316.653625 818.110657,313.513000 
	C806.736633,310.227478 795.513428,306.423767 784.188660,302.963104 
	C767.059814,297.728851 749.875183,292.674744 732.784363,287.320618 
	C730.609131,286.639191 728.336670,284.995697 726.982117,283.155426 
	C701.040344,247.910278 675.237122,212.563156 649.382141,177.254074 
	C645.809875,172.375610 642.114990,167.586929 638.120239,162.283173 
	C636.643677,164.230011 635.708679,165.360367 634.883423,166.565872 
	C607.625305,206.385788 580.404846,246.231552 553.050171,285.984924 
	C551.651855,288.016998 549.360046,290.006348 547.069458,290.767670 
	C503.907410,305.113861 460.680847,319.265747 417.474182,333.477844 
	C413.290894,334.853851 409.150146,336.359192 404.655731,337.920532 
	C405.424072,339.181274 405.780457,339.911011 406.265747,340.541595 
	C434.183014,376.816772 462.010498,413.161957 490.127747,449.281494 
	C495.365540,456.009949 500.069550,462.355988 498.686798,471.570160 
	C498.128967,475.287598 498.992279,479.199341 498.995117,483.022797 
	C499.026062,524.853394 499.014709,566.683960 499.014832,608.514587 
	C499.014832,610.307007 499.014801,612.099426 499.014801,614.364502 
	C500.849762,613.872314 502.143158,613.658081 503.333435,613.184631 
	C510.810577,610.210449 518.173035,606.920044 525.750000,604.231812 
	C535.113037,600.909790 544.710815,598.252502 554.094543,594.984680 
	C569.407959,589.651917 584.637451,584.077393 599.877014,578.535156 
	C601.077271,578.098694 602.079895,577.118652 603.919250,576.088684 
z"/>
<path fill="#FECC02" opacity="1.000000" stroke="none" 
	d="
M603.546753,576.239929 
	C602.079895,577.118652 601.077271,578.098694 599.877014,578.535156 
	C584.637451,584.077393 569.407959,589.651917 554.094543,594.984680 
	C544.710815,598.252502 535.113037,600.909790 525.750000,604.231812 
	C518.173035,606.920044 510.810577,610.210449 503.333435,613.184631 
	C502.143158,613.658081 500.849762,613.872314 499.014801,614.364502 
	C499.014801,612.099426 499.014832,610.307007 499.014832,608.514587 
	C499.014709,566.683960 499.026062,524.853394 498.995117,483.022797 
	C498.992279,479.199341 498.128967,475.287598 498.686798,471.570160 
	C500.069550,462.355988 495.365540,456.009949 490.127747,449.281494 
	C462.010498,413.161957 434.183014,376.816772 406.265747,340.541595 
	C405.780457,339.911011 405.424072,339.181274 404.655731,337.920532 
	C409.150146,336.359192 413.290894,334.853851 417.474182,333.477844 
	C460.680847,319.265747 503.907410,305.113861 547.069458,290.767670 
	C549.360046,290.006348 551.651855,288.016998 553.050171,285.984924 
	C580.404846,246.231552 607.625305,206.385788 634.883423,166.565872 
	C635.708679,165.360367 636.643677,164.230011 638.120239,162.283173 
	C642.114990,167.586929 645.809875,172.375610 649.382141,177.254074 
	C675.237122,212.563156 701.040344,247.910278 726.982117,283.155426 
	C728.336670,284.995697 730.609131,286.639191 732.784363,287.320618 
	C749.875183,292.674744 767.059814,297.728851 784.188660,302.963104 
	C795.513428,306.423767 806.736633,310.227478 818.110657,313.513000 
	C828.982910,316.653625 840.071777,319.053375 850.914001,322.286499 
	C859.203552,324.758453 867.256897,328.022400 876.017944,331.149109 
	C870.127747,339.188995 864.308472,346.912201 858.733704,354.808044 
	C853.901733,361.652069 849.408691,368.734558 844.641541,375.625610 
	C842.490540,378.734924 840.014526,381.617859 837.726440,384.634155 
	C832.389465,391.669769 826.969299,398.645691 821.777893,405.787537 
	C812.372314,418.726807 802.839050,431.587341 793.896301,444.843170 
	C789.202454,451.800873 784.140015,459.149017 787.892578,468.483368 
	C788.067444,468.918304 787.945984,469.474213 787.954529,469.973907 
	C788.299744,490.089294 788.603149,510.205505 789.003723,530.319763 
	C789.248413,542.605408 789.622009,554.888672 789.975708,567.171875 
	C790.286133,577.952454 790.604614,588.733215 791.019287,599.510071 
	C791.132568,602.454956 791.605408,605.386047 792.010986,609.256165 
	C788.997009,608.534058 786.362366,608.106323 783.864014,607.271118 
	C768.172302,602.025452 752.577393,596.481384 736.820923,591.440857 
	C720.919312,586.353821 704.843811,581.812805 688.888977,576.888550 
	C676.950073,573.203735 664.886047,569.797485 653.247803,565.308105 
	C644.883301,562.081543 637.794983,564.458618 630.231567,567.275208 
	C621.568237,570.501465 612.699036,573.174988 603.546753,576.239929 
M579.403870,482.081329 
	C579.498962,481.153351 579.960388,480.059204 579.627441,479.325439 
	C577.957947,475.645721 579.362915,473.764771 582.709534,471.932312 
	C588.114990,468.972504 593.362122,465.642639 598.326355,461.993347 
	C600.664673,460.274323 602.127930,460.681335 604.168945,462.014313 
	C609.356201,465.402039 614.322021,469.363434 619.934204,471.821960 
	C636.886108,479.248047 654.420410,481.660187 672.608154,476.300140 
	C676.767700,475.074310 680.588623,475.723969 682.469421,480.812714 
	C683.936157,484.781311 686.069519,488.520325 688.111633,492.249054 
	C688.717773,493.355865 689.970886,494.799194 691.008667,494.868164 
	C698.580688,495.371552 706.934082,494.450439 711.588623,485.647980 
	C712.329407,484.247040 712.343018,481.832550 711.636230,480.412506 
	C709.465820,476.051971 706.569275,472.054565 704.369324,467.706421 
	C702.788696,464.582123 702.046326,461.476013 705.771301,458.609528 
	C713.225647,452.873138 719.006470,445.427063 723.164734,437.133911 
	C729.188354,425.120728 732.924805,412.482422 731.137878,398.593018 
	C729.966248,389.486267 728.260315,380.711975 723.376160,372.839172 
	C720.147156,367.634094 716.694946,362.567566 713.368774,357.478912 
	C729.711243,344.756714 745.965027,332.103516 762.707275,319.070038 
	C761.361084,317.566650 760.425903,316.522278 759.728699,315.743652 
	C752.623413,319.968781 746.199341,323.539581 740.033752,327.511566 
	C729.902039,334.038605 719.877625,340.737854 709.938599,347.554932 
	C706.814148,349.697998 704.501465,349.973816 701.512512,347.184753 
	C698.664734,344.527405 695.181946,342.525848 691.859131,340.424347 
	C691.234802,340.029449 690.049500,340.521515 688.975220,340.617493 
	C691.621277,344.993652 694.071655,348.684113 696.074707,352.603180 
	C696.602783,353.636353 696.252563,356.162903 695.454590,356.673340 
	C682.599609,364.896515 669.606995,372.904480 656.038757,381.338470 
	C650.853821,372.092102 645.768250,363.023010 640.581238,353.772888 
	C649.017944,349.088867 656.963501,344.677521 664.860962,340.292908 
	C662.011108,333.763702 661.975708,334.239716 655.840393,333.783508 
	C649.498230,333.311890 643.059021,332.350281 637.015930,330.467651 
	C634.318726,329.627350 632.467957,328.473175 629.979553,330.429504 
	C628.689941,331.443359 627.095154,332.065216 625.651245,332.887115 
	C614.411194,339.285034 603.174377,345.688538 591.737366,352.203796 
	C596.141541,359.536102 600.289246,366.441437 604.511230,373.470367 
	C611.585754,369.637573 618.080139,366.119019 624.917175,362.414856 
	C629.912537,372.752136 634.633545,382.521606 639.325073,392.230072 
	C625.681152,400.867676 612.688843,409.092743 599.352051,417.535919 
	C594.304077,410.323395 589.682373,403.719910 584.910706,396.902191 
	C563.451904,405.160065 542.047607,413.363281 520.699402,421.709900 
	C519.610779,422.135498 518.395325,423.728638 518.270996,424.888733 
	C517.410461,432.921661 518.722839,440.440216 524.012268,446.961792 
	C525.896606,449.285065 527.536255,449.747223 530.353699,448.324402 
	C540.443420,443.229095 550.674561,438.413025 560.866028,433.520203 
	C565.304260,431.389404 569.776184,429.328796 574.054932,427.319763 
	C577.498352,432.876129 580.661194,437.979797 583.632751,442.774750 
	C583.058289,445.121613 582.481506,447.285858 582.004211,449.471832 
	C581.236450,452.988708 579.002380,455.373901 575.527954,454.848602 
	C571.920349,454.303162 568.496826,452.539856 564.437256,451.114014 
	C545.793945,464.744690 530.700745,483.361542 514.747253,501.936737 
	C531.996887,508.867157 541.366028,523.246887 552.005798,537.024719 
	C554.221741,533.248108 556.452026,529.688782 558.446716,526.002014 
	C564.231567,515.310181 570.070312,504.642426 575.561279,493.799805 
	C577.270508,490.424896 577.937805,486.522339 579.403870,482.081329 
z"/>
<path fill="#030202" opacity="1.000000" stroke="none" 
	d="
M579.242920,482.471313 
	C577.937805,486.522339 577.270508,490.424896 575.561279,493.799805 
	C570.070312,504.642426 564.231567,515.310181 558.446716,526.002014 
	C556.452026,529.688782 554.221741,533.248108 552.005798,537.024719 
	C541.366028,523.246887 531.996887,508.867157 514.747253,501.936737 
	C530.700745,483.361542 545.793945,464.744690 564.437256,451.114014 
	C568.496826,452.539856 571.920349,454.303162 575.527954,454.848602 
	C579.002380,455.373901 581.236450,452.988708 582.004211,449.471832 
	C582.481506,447.285858 583.058289,445.121613 583.632751,442.774750 
	C580.661194,437.979797 577.498352,432.876129 574.054932,427.319763 
	C569.776184,429.328796 565.304260,431.389404 560.866028,433.520203 
	C550.674561,438.413025 540.443420,443.229095 530.353699,448.324402 
	C527.536255,449.747223 525.896606,449.285065 524.012268,446.961792 
	C518.722839,440.440216 517.410461,432.921661 518.270996,424.888733 
	C518.395325,423.728638 519.610779,422.135498 520.699402,421.709900 
	C542.047607,413.363281 563.451904,405.160065 584.910706,396.902191 
	C589.682373,403.719910 594.304077,410.323395 599.352051,417.535919 
	C612.688843,409.092743 625.681152,400.867676 639.325073,392.230072 
	C634.633545,382.521606 629.912537,372.752136 624.917175,362.414856 
	C618.080139,366.119019 611.585754,369.637573 604.511230,373.470367 
	C600.289246,366.441437 596.141541,359.536102 591.737366,352.203796 
	C603.174377,345.688538 614.411194,339.285034 625.651245,332.887115 
	C627.095154,332.065216 628.689941,331.443359 629.979553,330.429504 
	C632.467957,328.473175 634.318726,329.627350 637.015930,330.467651 
	C643.059021,332.350281 649.498230,333.311890 655.840393,333.783508 
	C661.975708,334.239716 662.011108,333.763702 664.860962,340.292908 
	C656.963501,344.677521 649.017944,349.088867 640.581238,353.772888 
	C645.768250,363.023010 650.853821,372.092102 656.038757,381.338470 
	C669.606995,372.904480 682.599609,364.896515 695.454590,356.673340 
	C696.252563,356.162903 696.602783,353.636353 696.074707,352.603180 
	C694.071655,348.684113 691.621277,344.993652 688.975220,340.617493 
	C690.049500,340.521515 691.234802,340.029449 691.859131,340.424347 
	C695.181946,342.525848 698.664734,344.527405 701.512512,347.184753 
	C704.501465,349.973816 706.814148,349.697998 709.938599,347.554932 
	C719.877625,340.737854 729.902039,334.038605 740.033752,327.511566 
	C746.199341,323.539581 752.623413,319.968781 759.728699,315.743652 
	C760.425903,316.522278 761.361084,317.566650 762.707275,319.070038 
	C745.965027,332.103516 729.711243,344.756714 713.368774,357.478912 
	C716.694946,362.567566 720.147156,367.634094 723.376160,372.839172 
	C728.260315,380.711975 729.966248,389.486267 731.137878,398.593018 
	C732.924805,412.482422 729.188354,425.120728 723.164734,437.133911 
	C719.006470,445.427063 713.225647,452.873138 705.771301,458.609528 
	C702.046326,461.476013 702.788696,464.582123 704.369324,467.706421 
	C706.569275,472.054565 709.465820,476.051971 711.636230,480.412506 
	C712.343018,481.832550 712.329407,484.247040 711.588623,485.647980 
	C706.934082,494.450439 698.580688,495.371552 691.008667,494.868164 
	C689.970886,494.799194 688.717773,493.355865 688.111633,492.249054 
	C686.069519,488.520325 683.936157,484.781311 682.469421,480.812714 
	C680.588623,475.723969 676.767700,475.074310 672.608154,476.300140 
	C654.420410,481.660187 636.886108,479.248047 619.934204,471.821960 
	C614.322021,469.363434 609.356201,465.402039 604.168945,462.014313 
	C602.127930,460.681335 600.664673,460.274323 598.326355,461.993347 
	C593.362122,465.642639 588.114990,468.972504 582.709534,471.932312 
	C579.362915,473.764771 577.957947,475.645721 579.627441,479.325439 
	C579.960388,480.059204 579.498962,481.153351 579.242920,482.471313 
M687.469238,428.008575 
	C702.966980,412.312286 706.630615,383.266083 700.727234,367.282745 
	C688.573425,376.712769 676.461914,386.110016 664.247009,395.587463 
	C666.257385,399.135712 668.114380,402.388092 669.947571,405.653839 
	C674.012939,412.895874 677.997009,420.185028 682.175110,427.361298 
	C683.180481,429.088104 684.554443,431.535553 687.469238,428.008575 
M631.498413,442.090607 
	C642.146912,446.675934 652.917542,447.452362 664.376038,443.871857 
	C658.353638,431.747559 652.731079,420.428284 647.001343,408.893250 
	C636.761719,416.918060 626.671326,424.825928 615.641663,433.469849 
	C621.390076,436.700226 626.059509,439.324280 631.498413,442.090607 
z"/>
<path fill="#FECC02" opacity="1.000000" stroke="none" 
	d="
M687.222778,428.278259 
	C684.554443,431.535553 683.180481,429.088104 682.175110,427.361298 
	C677.997009,420.185028 674.012939,412.895874 669.947571,405.653839 
	C668.114380,402.388092 666.257385,399.135712 664.247009,395.587463 
	C676.461914,386.110016 688.573425,376.712769 700.727234,367.282745 
	C706.630615,383.266083 702.966980,412.312286 687.222778,428.278259 
z"/>
<path fill="#FECC02" opacity="1.000000" stroke="none" 
	d="
M631.113647,442.019470 
	C626.059509,439.324280 621.390076,436.700226 615.641663,433.469849 
	C626.671326,424.825928 636.761719,416.918060 647.001343,408.893250 
	C652.731079,420.428284 658.353638,431.747559 664.376038,443.871857 
	C652.917542,447.452362 642.146912,446.675934 631.113647,442.019470 
z"/>
</svg>