<svg version="1.1" id="Layer_1" xmlns="http://www.w3.org/2000/svg" xmlns:xlink="http://www.w3.org/1999/xlink" x="0px" y="0px"
	 width="100%" viewBox="0 0 1920 1280" enable-background="new 0 0 1920 1280" xml:space="preserve">
<path fill="#0D8A00" opacity="1.000000" stroke="none" 
	d="
M1.000006,1152.000000 
	C1.000000,768.386047 1.000000,384.772125 1.000000,1.000000 
	C576.368225,1.000000 1151.736450,1.000000 1727.349365,1.265458 
	C1726.356689,2.375354 1725.127319,3.231693 1723.881104,4.062521 
	C1526.656616,135.541031 1329.424316,267.007446 1132.207153,398.496826 
	C764.759094,643.483276 397.322327,888.486816 29.862720,1133.456055 
	C20.349152,1139.798340 10.625643,1145.825806 1.000006,1152.000000 
M510.537140,304.009399 
	C525.366211,293.257874 540.195251,282.506348 555.024353,271.754822 
	C554.867493,271.314728 554.710632,270.874634 554.553772,270.434540 
	C552.089050,270.434540 549.624329,270.434631 547.159607,270.434540 
	C495.164246,270.432068 443.168640,270.365631 391.173828,270.533295 
	C386.356049,270.548798 384.373688,269.031952 382.893555,264.419342 
	C366.779449,214.201538 350.406128,164.066864 334.083038,113.916214 
	C333.573303,112.350151 332.843567,110.855690 331.857025,108.452324 
	C330.942535,110.856033 330.420410,112.069992 330.013245,113.321335 
	C313.692291,163.476318 297.268036,213.598404 281.235291,263.845428 
	C279.519562,269.222534 277.143951,270.558319 271.890198,270.540344 
	C220.395370,270.364166 168.899704,270.429504 117.404282,270.455170 
	C114.723923,270.456512 112.043701,270.719940 107.829521,270.942230 
	C154.778717,305.067108 200.399094,338.226105 246.098129,371.442261 
	C228.630981,425.252808 211.248489,478.802551 193.865997,532.352295 
	C194.259689,532.657166 194.653381,532.962036 195.047073,533.266846 
	C240.637192,500.165527 286.227295,467.064178 331.987335,433.839417 
	C377.878784,467.171844 423.637268,500.407684 469.395782,533.643494 
	C469.706451,533.437622 470.017151,533.231812 470.327820,533.025940 
	C452.845428,479.197144 435.363037,425.368347 417.848694,371.441193 
	C448.766052,348.970428 479.377472,326.722046 510.537140,304.009399 
z"/>
<path fill="#000000" opacity="1.000000" stroke="none" 
	d="
M1921.000000,130.000015 
	C1921.000000,513.613953 1921.000000,897.227966 1921.000000,1281.000000 
	C1346.298462,1281.000000 771.596863,1281.000000 196.294556,1280.659912 
	C198.182999,1278.421753 200.575760,1276.379395 203.174850,1274.646240 
	C480.076599,1090.005493 756.992432,905.385803 1033.910645,720.769714 
	C1322.055298,528.669128 1610.200928,336.570038 1898.361572,144.493469 
	C1905.815918,139.524673 1913.449829,134.825150 1921.000000,130.000015 
M1591.922119,1065.502808 
	C1587.268188,1055.036255 1582.677490,1044.541138 1577.940918,1034.112061 
	C1573.914185,1025.245850 1575.634644,1016.830200 1580.170898,1008.901245 
	C1584.233887,1001.799622 1586.552856,1001.276611 1594.248413,1004.078003 
	C1595.028198,1004.361816 1595.782837,1004.718445 1596.569580,1004.979431 
	C1654.892944,1024.320190 1713.195435,1043.724365 1771.571045,1062.905884 
	C1779.272095,1065.436401 1787.288452,1067.139893 1795.268921,1068.642456 
	C1801.071289,1069.734863 1803.005615,1067.438232 1802.956299,1061.542725 
	C1802.770142,1039.259033 1806.012939,1017.427185 1812.141479,996.037292 
	C1815.791870,983.296814 1815.958008,983.249634 1802.763550,981.742920 
	C1764.234131,977.343079 1725.693726,973.041138 1687.162720,968.654968 
	C1680.905396,967.942688 1675.063354,968.650269 1669.252441,971.451538 
	C1665.941040,973.047852 1661.857056,974.123718 1658.250610,973.831604 
	C1645.159302,972.770935 1632.112549,971.115356 1619.068604,969.524780 
	C1609.205688,968.322144 1599.372314,966.876587 1589.765747,965.571716 
	C1589.461792,964.809326 1589.260986,964.514404 1589.232300,964.203613 
	C1588.107056,951.999390 1586.640259,950.228699 1574.996826,946.400024 
	C1574.033936,946.083435 1573.061768,944.837341 1572.696899,943.809143 
	C1569.659668,935.251892 1563.161255,931.823425 1554.622192,931.517334 
	C1547.805542,931.273010 1540.980347,931.192627 1534.158569,931.176819 
	C1476.500244,931.043335 1418.842041,930.941528 1361.183716,930.830566 
	C1359.700439,930.827698 1358.217163,930.830200 1356.204224,930.830200 
	C1356.204224,926.582275 1356.204224,922.671753 1356.204224,918.833862 
	C1351.571899,918.833862 1347.475098,918.833862 1342.881226,918.833862 
	C1342.881226,923.771667 1342.881226,928.372803 1342.881226,933.133850 
	C1336.057983,933.804016 1329.947754,934.095337 1324.413574,929.781250 
	C1322.441162,928.243591 1319.679688,927.174072 1317.186035,926.958069 
	C1311.393188,926.456482 1305.544434,926.555603 1299.717773,926.528564 
	C1298.479614,926.522827 1296.385010,926.693665 1296.141846,927.335327 
	C1294.809448,930.851135 1291.987915,929.980957 1289.488281,929.982788 
	C1257.989868,930.005859 1226.491455,929.976562 1194.993042,930.028137 
	C1191.528320,930.033813 1187.241577,928.795715 1186.637329,935.023193 
	C1157.655640,935.023193 1128.935913,935.023193 1099.541382,935.023193 
	C1102.104736,944.805115 1096.196167,948.612122 1089.509521,952.103821 
	C1080.843750,956.628967 1071.743408,959.925598 1061.973877,960.060425 
	C1042.329956,960.331604 1022.677734,960.106628 1003.031433,959.877747 
	C1001.643188,959.861572 999.735901,958.451416 998.984192,957.158081 
	C993.820007,948.273621 988.682190,939.359863 983.965393,930.233521 
	C979.726440,922.031738 979.114807,921.478394 968.997986,923.138123 
	C968.997986,924.831604 969.018250,926.617676 968.994629,928.403137 
	C968.888916,936.397339 968.654968,944.391907 968.697754,952.385132 
	C968.726135,957.698669 967.293030,961.513489 961.376221,961.183167 
	C961.376221,968.420227 961.376221,975.172607 961.376221,982.313538 
	C1032.812256,982.313538 1103.870850,982.313538 1175.251709,982.313538 
	C1175.251709,987.658997 1175.251709,992.597656 1175.251709,997.835632 
	C1177.042236,997.835632 1178.511108,997.835632 1179.979980,997.835632 
	C1204.978760,997.835632 1229.984009,998.179626 1254.973999,997.712524 
	C1271.142090,997.410278 1286.500366,998.677734 1301.419434,1006.237244 
	C1313.006470,1012.108459 1325.483521,1012.346619 1336.572998,1003.226501 
	C1338.538452,1001.610046 1341.239624,1000.032654 1343.648438,999.957520 
	C1354.725830,999.611877 1365.819824,999.805237 1377.515625,999.805237 
	C1376.424927,1008.088745 1375.823730,1015.572815 1374.410645,1022.900330 
	C1366.679688,1062.984863 1346.609497,1095.099487 1312.469482,1118.054077 
	C1306.614136,1121.990967 1306.158813,1123.871582 1309.714966,1130.002075 
	C1317.720825,1143.802856 1325.952637,1157.472412 1334.051880,1171.219360 
	C1336.035522,1174.586304 1338.937744,1175.353882 1342.116943,1173.639160 
	C1345.902832,1171.597168 1349.673584,1169.340088 1352.961426,1166.590698 
	C1390.800903,1134.950073 1417.846313,1095.885986 1431.787842,1048.462891 
	C1436.107422,1033.769409 1437.562866,1018.234009 1440.359863,1002.917603 
	C1440.737305,1002.917603 1442.126221,1002.917603 1443.943604,1002.917603 
	C1443.943604,1013.710327 1443.943604,1024.296753 1443.943604,1035.170654 
	C1446.003418,1035.170654 1447.642944,1035.170654 1449.282349,1035.170654 
	C1473.114502,1035.170410 1496.946777,1035.133301 1520.778442,1035.244263 
	C1522.555420,1035.252563 1524.965088,1035.775879 1525.999146,1036.984741 
	C1533.139038,1045.332275 1540.095703,1053.844238 1546.858887,1062.500610 
	C1548.428345,1064.509521 1549.525269,1067.190796 1549.974976,1069.716675 
	C1551.518433,1078.388428 1552.725098,1087.121582 1553.969482,1095.844360 
	C1554.999023,1103.060303 1557.079224,1104.625122 1563.896118,1102.794678 
	C1575.446655,1099.692993 1586.977173,1096.515503 1598.505005,1093.329712 
	C1603.448120,1091.963745 1604.242676,1089.870361 1601.871826,1085.296143 
	C1598.589355,1078.963135 1595.406738,1072.578125 1591.922119,1065.502808 
z"/>
<path fill="#008081" opacity="1.000000" stroke="none" 
	d="
M1921.000000,129.531357 
	C1913.449829,134.825150 1905.815918,139.524673 1898.361572,144.493469 
	C1610.200928,336.570038 1322.055298,528.669128 1033.910645,720.769714 
	C756.992432,905.385803 480.076599,1090.005493 203.174850,1274.646240 
	C200.575760,1276.379395 198.182999,1278.421753 195.846924,1280.659912 
	C131.087860,1281.000000 66.175713,1281.000000 1.000000,1281.000000 
	C1.000000,1238.312744 1.000000,1195.625000 1.000006,1152.468628 
	C10.625643,1145.825806 20.349152,1139.798340 29.862720,1133.456055 
	C397.322327,888.486816 764.759094,643.483276 1132.207153,398.496826 
	C1329.424316,267.007446 1526.656616,135.541031 1723.881104,4.062521 
	C1725.127319,3.231693 1726.356689,2.375354 1727.796875,1.265458 
	C1792.245850,1.000000 1856.491699,1.000000 1921.000000,1.000000 
	C1921.000000,43.687202 1921.000000,86.374947 1921.000000,129.531357 
z"/>
<path fill="#FECF00" opacity="1.000000" stroke="none" 
	d="
M510.263000,304.241516 
	C479.377472,326.722046 448.766052,348.970428 417.848694,371.441193 
	C435.363037,425.368347 452.845428,479.197144 470.327820,533.025940 
	C470.017151,533.231812 469.706451,533.437622 469.395782,533.643494 
	C423.637268,500.407684 377.878784,467.171844 331.987335,433.839417 
	C286.227295,467.064178 240.637192,500.165527 195.047073,533.266846 
	C194.653381,532.962036 194.259689,532.657166 193.865997,532.352295 
	C211.248489,478.802551 228.630981,425.252808 246.098129,371.442261 
	C200.399094,338.226105 154.778717,305.067108 107.829521,270.942230 
	C112.043701,270.719940 114.723923,270.456512 117.404282,270.455170 
	C168.899704,270.429504 220.395370,270.364166 271.890198,270.540344 
	C277.143951,270.558319 279.519562,269.222534 281.235291,263.845428 
	C297.268036,213.598404 313.692291,163.476318 330.013245,113.321335 
	C330.420410,112.069992 330.942535,110.856033 331.857025,108.452324 
	C332.843567,110.855690 333.573303,112.350151 334.083038,113.916214 
	C350.406128,164.066864 366.779449,214.201538 382.893555,264.419342 
	C384.373688,269.031952 386.356049,270.548798 391.173828,270.533295 
	C443.168640,270.365631 495.164246,270.432068 547.159607,270.434540 
	C549.624329,270.434631 552.089050,270.434540 554.553772,270.434540 
	C554.710632,270.874634 554.867493,271.314728 555.024353,271.754822 
	C540.195251,282.506348 525.366211,293.257874 510.263000,304.241516 
z"/>
<path fill="#FEFEFE" opacity="1.000000" stroke="none" 
	d="
M1592.051758,1065.859131 
	C1595.406738,1072.578125 1598.589355,1078.963135 1601.871826,1085.296143 
	C1604.242676,1089.870361 1603.448120,1091.963745 1598.505005,1093.329712 
	C1586.977173,1096.515503 1575.446655,1099.692993 1563.896118,1102.794678 
	C1557.079224,1104.625122 1554.999023,1103.060303 1553.969482,1095.844360 
	C1552.725098,1087.121582 1551.518433,1078.388428 1549.974976,1069.716675 
	C1549.525269,1067.190796 1548.428345,1064.509521 1546.858887,1062.500610 
	C1540.095703,1053.844238 1533.139038,1045.332275 1525.999146,1036.984741 
	C1524.965088,1035.775879 1522.555420,1035.252563 1520.778442,1035.244263 
	C1496.946777,1035.133301 1473.114502,1035.170410 1449.282349,1035.170654 
	C1447.642944,1035.170654 1446.003418,1035.170654 1443.943604,1035.170654 
	C1443.943604,1024.296753 1443.943604,1013.710327 1443.943604,1002.917603 
	C1442.126221,1002.917603 1440.737305,1002.917603 1440.359863,1002.917603 
	C1437.562866,1018.234009 1436.107422,1033.769409 1431.787842,1048.462891 
	C1417.846313,1095.885986 1390.800903,1134.950073 1352.961426,1166.590698 
	C1349.673584,1169.340088 1345.902832,1171.597168 1342.116943,1173.639160 
	C1338.937744,1175.353882 1336.035522,1174.586304 1334.051880,1171.219360 
	C1325.952637,1157.472412 1317.720825,1143.802856 1309.714966,1130.002075 
	C1306.158813,1123.871582 1306.614136,1121.990967 1312.469482,1118.054077 
	C1346.609497,1095.099487 1366.679688,1062.984863 1374.410645,1022.900330 
	C1375.823730,1015.572815 1376.424927,1008.088745 1377.515625,999.805237 
	C1365.819824,999.805237 1354.725830,999.611877 1343.648438,999.957520 
	C1341.239624,1000.032654 1338.538452,1001.610046 1336.572998,1003.226501 
	C1325.483521,1012.346619 1313.006470,1012.108459 1301.419434,1006.237244 
	C1286.500366,998.677734 1271.142090,997.410278 1254.973999,997.712524 
	C1229.984009,998.179626 1204.978760,997.835632 1179.979980,997.835632 
	C1178.511108,997.835632 1177.042236,997.835632 1175.251709,997.835632 
	C1175.251709,992.597656 1175.251709,987.658997 1175.251709,982.313538 
	C1103.870850,982.313538 1032.812256,982.313538 961.376221,982.313538 
	C961.376221,975.172607 961.376221,968.420227 961.376221,961.183167 
	C967.293030,961.513489 968.726135,957.698669 968.697754,952.385132 
	C968.654968,944.391907 968.888916,936.397339 968.994629,928.403137 
	C969.018250,926.617676 968.997986,924.831604 968.997986,923.138123 
	C979.114807,921.478394 979.726440,922.031738 983.965393,930.233521 
	C988.682190,939.359863 993.820007,948.273621 998.984192,957.158081 
	C999.735901,958.451416 1001.643188,959.861572 1003.031433,959.877747 
	C1022.677734,960.106628 1042.329956,960.331604 1061.973877,960.060425 
	C1071.743408,959.925598 1080.843750,956.628967 1089.509521,952.103821 
	C1096.196167,948.612122 1102.104736,944.805115 1099.541382,935.023193 
	C1128.935913,935.023193 1157.655640,935.023193 1186.637329,935.023193 
	C1187.241577,928.795715 1191.528320,930.033813 1194.993042,930.028137 
	C1226.491455,929.976562 1257.989868,930.005859 1289.488281,929.982788 
	C1291.987915,929.980957 1294.809448,930.851135 1296.141846,927.335327 
	C1296.385010,926.693665 1298.479614,926.522827 1299.717773,926.528564 
	C1305.544434,926.555603 1311.393188,926.456482 1317.186035,926.958069 
	C1319.679688,927.174072 1322.441162,928.243591 1324.413574,929.781250 
	C1329.947754,934.095337 1336.057983,933.804016 1342.881226,933.133850 
	C1342.881226,928.372803 1342.881226,923.771667 1342.881226,918.833862 
	C1347.475098,918.833862 1351.571899,918.833862 1356.204224,918.833862 
	C1356.204224,922.671753 1356.204224,926.582275 1356.204224,930.830200 
	C1358.217163,930.830200 1359.700439,930.827698 1361.183716,930.830566 
	C1418.842041,930.941528 1476.500244,931.043335 1534.158569,931.176819 
	C1540.980347,931.192627 1547.805542,931.273010 1554.622192,931.517334 
	C1563.161255,931.823425 1569.659668,935.251892 1572.696899,943.809143 
	C1573.061768,944.837341 1574.033936,946.083435 1574.996826,946.400024 
	C1586.640259,950.228699 1588.107056,951.999390 1589.232300,964.203613 
	C1589.260986,964.514404 1589.461792,964.809326 1589.765747,965.571716 
	C1599.372314,966.876587 1609.205688,968.322144 1619.068604,969.524780 
	C1632.112549,971.115356 1645.159302,972.770935 1658.250610,973.831604 
	C1661.857056,974.123718 1665.941040,973.047852 1669.252441,971.451538 
	C1675.063354,968.650269 1680.905396,967.942688 1687.162720,968.654968 
	C1725.693726,973.041138 1764.234131,977.343079 1802.763550,981.742920 
	C1815.958008,983.249634 1815.791870,983.296814 1812.141479,996.037292 
	C1806.012939,1017.427185 1802.770142,1039.259033 1802.956299,1061.542725 
	C1803.005615,1067.438232 1801.071289,1069.734863 1795.268921,1068.642456 
	C1787.288452,1067.139893 1779.272095,1065.436401 1771.571045,1062.905884 
	C1713.195435,1043.724365 1654.892944,1024.320190 1596.569580,1004.979431 
	C1595.782837,1004.718445 1595.028198,1004.361816 1594.248413,1004.078003 
	C1586.552856,1001.276611 1584.233887,1001.799622 1580.170898,1008.901245 
	C1575.634644,1016.830200 1573.914185,1025.245850 1577.940918,1034.112061 
	C1582.677490,1044.541138 1587.268188,1055.036255 1592.051758,1065.859131 
M1466.046875,1028.833496 
	C1484.241211,1028.833496 1502.435425,1028.833496 1520.294189,1028.833496 
	C1520.294189,1019.827698 1520.294189,1011.281982 1520.294189,1002.986816 
	C1501.890381,1002.986816 1484.032104,1002.986816 1466.598877,1002.986816 
	C1465.606079,1010.919250 1464.615112,1018.306030 1463.833862,1025.714844 
	C1463.730469,1026.694946 1464.695435,1027.787476 1466.046875,1028.833496 
z"/>
<path fill="#020202" opacity="1.000000" stroke="none" 
	d="
M1465.606201,1028.830688 
	C1464.695435,1027.787476 1463.730469,1026.694946 1463.833862,1025.714844 
	C1464.615112,1018.306030 1465.606079,1010.919250 1466.598877,1002.986816 
	C1484.032104,1002.986816 1501.890381,1002.986816 1520.294189,1002.986816 
	C1520.294189,1011.281982 1520.294189,1019.827698 1520.294189,1028.833496 
	C1502.435425,1028.833496 1484.241211,1028.833496 1465.606201,1028.830688 
z"/>
</svg>