<svg xmlns="http://www.w3.org/2000/svg" xml:space="preserve" id="svg1" width="4608" height="3072" version="1.1" viewBox="0 0 1219.2 812.8"><defs id="defs1"><style id="style1">.cls-1{fill:#0283c0}.cls-2{fill:#fff}.cls-3{fill:#ef483f}</style></defs><path id="rect1" d="M 0 0 L 0 812.8 L 1219.2 812.8 L 1219.2 0 L 0 0 z" style="fill:#d00000;fill-rule:evenodd;stroke:none;stroke-width:8.46667;stroke-linecap:round;stroke-linejoin:round;fill-opacity:1"/><path id="rect1616-6-1-1-2-8" d="m 727.34719,101.60001 c -7.07423,1.67594 -11.33319,8.78877 -4.00019,21.73249 -14.7923,-18.11921 -26.82547,-2.09048 1.20749,19.32626 -31.05426,-12.50375 -10.72337,13.10812 3.57149,13.14983 -5.37472,0.23642 -8.52936,1.03908 -10.04925,2.14203 -8.65914,-13.46282 -13.85057,-21.25842 -11.73564,1.68858 -2.57238,-39.93688 -21.07676,-35.58955 -15.14992,-10.94885 -9.65081,-35.2001 -28.97555,-36.33572 -20.00388,-11.18468 -16.84183,-19.48979 -18.60191,-14.43213 -25.94085,-9.26319 -8.68347,16.00603 10.4223,16.76494 22.10079,18.20976 -36.32408,10.03854 3.05486,19.2809 21.20771,15.37265 -14.12923,3.38918 -29.92909,17.37545 9.87092,13.31214 -17.28661,16.02172 13.77945,3.03839 26.18102,4.37576 0.5662,-0.0408 1.12986,-0.14107 1.6915,-0.29185 -0.64465,2.17678 1.39411,5.8528 5.81252,10.09364 -6.47943,-6.43757 -32.39711,-17.10353 -16.42438,4.18797 -8.72164,-8.40366 -48.2366,-0.90849 -16.15289,6.8191 -23.9735,3.44785 -22.75171,13.47324 -20.00388,17.82109 6.16464,8.76287 15.79641,-0.13169 20.07375,-10.12276 -3.40743,32.82857 17.27271,10.20981 19.43981,-4.12829 0.0574,-0.60182 0.11408,-1.20274 0.18777,-1.8516 -0.0197,0.59539 -0.0921,1.21841 -0.18777,1.8516 -2.40745,25.26549 9.39566,9.54786 15.04366,-8.26967 -4.7315,20.91904 -0.0127,14.35066 8.17507,4.68871 2.94022,6.32923 18.27577,16.50225 28.96793,19.20108 -5.74733,-1.30868 -12.51603,-1.1761 -16.03136,0.37775 -5.3669,-4.65688 -12.92491,-8.83325 -7.49599,0.84574 -3.67653,-5.95067 -13.41153,-11.18604 -8.15759,-0.99932 -3.43242,-5.95071 -19.00926,-8.30975 -6.35693,1.65219 -15.66121,-6.57285 -19.496,2.27424 -8.37814,4.11374 -7.16988,0.0344 -9.12941,3.50896 -8.14086,6.85914 4.85252,3.96402 6.82058,-1.99032 9.05503,-4.26005 -3.8843,12.87705 7.51486,3.54861 9.57397,-0.71618 -0.1193,4.81751 -0.35172,10.0684 10.01722,-0.82828 -1.85264,3.73877 3.78377,3.25452 7.56005,-1.47313 -0.35393,2.20235 0.52162,2.6227 2.62384,1.49059 3.02971,2.49852 8.84527,5.57642 18.65156,9.24061 -22.61699,6.69315 10.9946,8.82962 21.51123,15.52479 0.52549,0.21431 1.07534,0.37527 1.64563,0.4891 -1.54605,1.66469 -1.35504,5.86183 0.71692,11.61993 -2.94125,-8.63993 -21.4177,-29.6852 -16.57939,-3.52856 -4.07552,-11.39533 -42.81511,-22.19341 -17.50668,-1.04882 -23.01397,-7.53678 -26.37961,1.98719 -25.85205,7.10078 1.62464,10.58382 14.21174,6.88351 22.48945,-0.17249 -17.66227,27.90854 10.94321,16.80002 19.25857,4.91144 0.31795,-0.51178 0.63512,-1.02282 0.9884,-1.56922 -0.2815,0.52264 -0.6227,1.04637 -0.9884,1.56922 -13.40579,21.57876 4.16513,12.72639 17.15439,-0.73584 -15.21864,18.70047 -4.34523,11.61653 9.69989,5.95226 1.89985,7.84667 9.7322,20.52867 16.96005,26.70579 -8.55301,-6.97016 -22.5474,-10.98619 -16.7941,0.27148 9e-5,0.83085 0.0771,1.86225 0.25401,3.14498 -1.24795,-6.87929 -8.39854,-15.29898 -7.23034,-3.90119 -1.02063,-6.79045 -14.66168,-14.65923 -6.52287,-0.77661 -12.17909,-11.82283 -18.98304,-4.98177 -9.30395,0.77951 -6.68824,-2.57888 -9.78288,-0.0569 -10.08709,3.42229 3.06905,5.45783 7.07802,0.62997 9.98811,-0.66961 -8.32352,10.57495 5.69904,6.04134 9.17511,2.82038 -1.87201,4.44199 -4.00727,9.24611 9.63001,2.8764 -3.09154,2.80641 2.33343,4.40809 7.57752,1.38144 -1.46571,2.48253 0.0756,2.93732 4.42016,1.83416 1.27007,1.46884 2.67263,3.03151 4.25275,4.7171 -23.24138,-4.03397 5.91904,12.78613 12.36014,23.448 0.37545,0.42514 0.79659,0.81321 1.25696,1.16818 -2.12596,0.80596 -3.82375,4.65054 -4.53078,10.7276 1.21116,-9.04462 -5.97286,-36.09221 -13.2823,-10.51361 1.42164,-12.01614 -28.47717,-38.87074 -15.2169,-8.70421 -17.26243,-16.95817 -24.51703,-9.91793 -26.32077,-5.10286 -3.25605,10.2022 9.66763,12.46951 20.22441,9.81925 -28.24807,17.1703 2.32759,19.90353 15.06842,12.93948 0.51224,-0.31721 1.02308,-0.63405 1.58231,-0.96657 -0.48437,0.34303 -1.02254,0.66061 -1.58231,0.96657 -21.61808,13.38743 -1.93629,13.24946 15.69361,6.94939 -27.61805,12.58238 -0.11036,6.93106 17.59256,11.3084 -4.20768,2.65414 -7.85071,13.99062 -5.43475,32.98048 -3.98984,-25.02596 -22.75016,-21.96103 -9.78723,15.90907 -6.86008,-22.00331 -8.66126,-12.81673 -11.4882,2.931 -1.82743,-0.43698 -5.04854,0.0281 -10.10309,1.86617 13.18677,-5.50808 22.12681,-36.94216 -1.75263,-13.51156 17.66573,-30.50664 0.39566,-40.70652 -6.30744,-18.31166 1.80142,-14.76064 -4.86384,-19.70051 -12.04133,-18.54165 -9.45448,8.94882 2.32995,14.55376 6.43406,19.74405 -25.58092,-11.35539 -9.29227,14.53391 -1.02187,19.8845 -9.91868,-1.50371 -20.70326,-3.35269 -0.90616,20.82777 -7.23797,-4.78832 -7.70943,6.93507 1.06845,15.93966 -6.5037,-1.90231 -5.85632,2.56888 0.48402,13.22769 17.94507,3.58122 42.34372,25.93137 23.82794,-0.20596 12.06064,14.29627 29.00076,24.29736 17.0685,1.87708 -0.33047,-0.5467 -0.6366,-1.09241 -0.88285,-1.63327 0.3164,0.56943 0.59949,1.10083 0.88285,1.63327 7.50443,12.41493 35.3001,25.39935 19.54243,-3.62099 7.7879,7.59118 20.09949,12.12181 22.42758,1.66967 0.868,-5.0671 -1.85301,-14.79448 -25.31928,-8.8061 26.66468,-19.41318 -12.71097,-11.21668 -17.53869,-0.11789 6.57495,-25.77644 -13.26619,-6.00853 -16.77809,2.41642 2.45191,-5.60712 2.92249,-9.78167 1.49134,-11.54569 0.57693,-0.0756 1.13656,-0.19952 1.67548,-0.37847 10.94049,-5.98035 44.61987,-5.87544 22.50035,-14.0589 38.32006,-11.47553 18.35462,-18.34802 4.00311,-16.07209 18.2671,-3.33603 51.08866,-26.93939 13.68407,-22.31257 10.23136,-5.80291 27.58526,-13.81415 13.41767,-25.2749 -8.76354,-1.966 -12.33162,-5.96368 -20.40128,18.48127 -0.42169,-8.18514 -2.35665,-13.04748 -4.70036,-14.82824 9.82767,-5.60893 12.2616,-8.96382 5.93768,-10.52233 12.12475,-3.37473 17.6256,-13.74342 8.95678,-13.23937 29.29704,-10.95754 19.04526,-14.77503 9.71516,-18.45576 9.84448,-0.47157 36.97034,-14.66744 9.13871,-17.6981 6.163,-2.42496 19.17304,-1.35206 15.51242,-13.83326 -5.61906,-4.60547 -13.8693,-3.68275 -19.75206,9.97864 5.49428,-22.72044 -14.57286,-22.57696 -14.6812,12.65854 -8.82833,-32.24004 -16.94476,-0.58413 -8.32427,10.79747 -3.44167,-4.12602 -5.99119,-6.14575 -7.79077,-6.68592 5.49399,-15.02941 8.56726,-23.8728 -8.45165,-8.30098 30.29042,-26.22033 15.62143,-38.28924 -0.44034,-18.66392 13.16745,-17.16497 14.74573,-29.78709 10.80548,-32.58091 3.49452,-2.07899 4.51835,-5.18531 1.19946,-5.01334 14.13236,-5.18427 9.21047,-7.05231 4.73167,-8.85196 4.73903,-0.19706 17.8367,-6.9465 4.45219,-8.48948 2.97326,-1.14832 9.23054,-0.59256 7.50691,-6.61023 -2.69001,-2.23343 -6.66334,-1.81427 -9.53612,4.74259 2.71337,-10.91734 -6.9441,-10.90898 -7.10369,6.04761 -4.1503,-15.54217 -8.1526,-0.3329 -4.03878,5.17054 -7.28867,-8.85124 -6.33012,2.1444 -2.31307,7.87157 -7.26587,-9.48058 -5.73513,1.17902 -3.23813,8.03895 -1.7684,1.6824 -3.67505,3.98318 -5.65676,7.01199 4.31566,-20.32371 1.82139,-23.15702 -3.80368,-24.91532 1.95032,-5.33232 0.36665,-9.18906 -4.47619,-6.43043 21.36844,-22.80912 10.48471,-21.68186 0.48764,-20.84164 8.60945,-4.78826 26.59121,-29.53614 0.30861,-19.90852 4.44175,-4.90558 16.57398,-9.71355 7.73837,-19.27166 -7.08411,-1.63398 -14.06453,2.85112 -13.25319,17.69881 -5.1921,-22.79114 -23.1055,-13.76279 -7.5171,17.85166 -22.26103,-24.96769 -15.44025,6.99111 -2.65078,13.36455 -4.92065,-2.17036 -8.10354,-2.84878 -9.95609,-2.53433 -1.76863,-15.90101 -2.95212,-25.18735 -11.26693,-3.68941 15.46401,-36.92312 -3.04991,-41.22957 -8.70274,-16.52481 2.44924,-12.50635 1.9894,-21.80177 0.2249,-27.49115 1.56944,-1.72355 1.36452,-2.66025 -0.84064,-2.85894 5.52129,-2.48744 7.38112,-7.81983 3.29418,-6.94938 13.13641,-7.34394 7.98091,-8.41378 3.27381,-9.4859 4.64859,-0.94054 16.51555,-9.66726 3.05474,-9.08414 2.75465,-1.60192 9.02143,-2.03823 6.36858,-7.70926 -3.00929,-1.78204 -6.86628,-0.74334 -8.66709,6.18371 0.95444,-11.20784 -8.58087,-9.67886 -6.05925,7.09059 -6.55404,-14.69435 -8.10311,0.95484 -3.17119,5.74191 -8.59601,-7.5932 -5.91252,3.11403 -1.0408,8.13721 -6.58367,-6.23848 -6.32374,-1.80964 -4.26585,3.47616 -2.23406,1.93983 -4.22491,6.54809 -5.11816,14.06181 -4.87996,-18.9519 -8.26721,-21.31994 -13.50866,-20.76374 1.73358,-9.38489 -2.44351,-16.23077 -6.57528,-10.09874 8.99757,-29.90801 -0.25254,-24.07421 -8.83594,-18.89028 5.58355,-8.10628 10.68414,-38.25039 -8.58119,-17.97467 1.79714,-6.36409 10.52866,-16.04985 -1.64056,-20.69751 z m -234.95528,6.13348 c -12.18176,4.61479 -3.47648,14.32422 -1.69659,20.69313 -19.21031,-20.32766 -14.19152,9.83006 -8.62995,17.95137 -8.56934,-5.20707 -17.80341,-11.06592 -8.88691,18.86628 -4.11516,-6.14321 -8.31116,0.69164 -6.60294,10.08127 -5.2396,-0.57011 -8.63359,1.78864 -13.5647,20.72661 -0.88992,-7.66286 -2.93007,-12.29715 -5.21204,-14.17462 1.29375,-3.49026 -0.0419,-5.69886 -6.81838,0.4993 9.0121,-14.37489 0.87887,-19.57116 -2.72356,-8.91309 1.1159,-7.06889 -2.00681,-9.55707 -5.47842,-9.12054 -4.69847,4.14479 0.87449,7.03913 2.76067,9.60454 -12.11088,-5.89196 -4.71564,6.83299 -0.82828,9.54631 -4.74502,-0.89022 -9.90035,-1.96116 -0.7875,10.00194 -3.40016,-2.42487 -3.82505,3.20587 0.24454,7.68451 -0.37019,-0.12253 -0.68976,-0.19624 -0.96584,-0.22783 -6.55977,-5.71153 -12.94094,3.97867 -1.93677,30.45417 -8.25647,-21.52019 -9.4647,-12.23793 -11.27638,3.65812 -1.85169,-0.31949 -5.03681,0.3503 -9.96336,2.50739 12.80667,-6.33889 19.7142,-38.27933 -2.6144,-13.37183 15.67401,-31.57225 -2.21524,-40.64833 -7.46906,-17.8713 0.85156,-14.84546 -6.11665,-19.35005 -13.20515,-17.7352 -8.86148,9.53422 3.25827,14.37522 7.68669,19.29276 -26.2564,-9.69853 -8.34168,15.09775 0.25473,19.90926 -9.99474,-0.86723 -20.87493,-2.02364 0.43162,20.84307 -4.83542,-2.7717 -6.43036,1.08113 -4.49439,6.4188 -5.62983,1.74309 -8.13195,4.56908 -3.87137,24.9044 -3.07744,-4.73136 -5.98307,-7.73009 -8.45164,-9.27191 3.45841,-5.00234 8.69163,-22.33213 -0.83919,-11.60682 4.42247,-5.42144 6.1772,-16.31917 -1.73518,-8.01859 4.50274,-5.19137 1.61517,-20.65022 -3.65301,-5.44931 1.07244,-16.92343 -8.55916,-17.6304 -6.64588,-6.54545 -2.38891,-6.74717 -6.32119,-7.4531 -9.16638,-5.4202 -2.15616,5.87707 4.12556,5.77533 7.00762,7.13572 -13.46134,0.57047 -0.88891,8.24996 3.82332,8.78936 -4.59772,1.47084 -9.64277,2.97829 4.07589,9.17147 -4.14664,-0.51766 -1.83594,4.63625 3.87864,6.64226 -2.748,0.48731 -2.22766,1.87083 1.12161,4.28913 -7.4442,-2.26915 -8.70617,11.91321 7.33222,32.93828 -16.00855,-19.6686 -30.70982,-7.63955 -0.49057,18.66245 -16.97653,-15.6176 -13.92738,-6.76558 -8.47421,8.27843 -1.80105,0.53509 -4.35583,2.54772 -7.80895,6.66481 8.65128,-11.35829 0.6205,-43.03541 -8.29516,-10.8193 -0.0127,-35.23568 -20.07969,-35.43376 -14.64701,-12.69857 -5.8457,-13.67721 -14.09287,-14.62206 -19.72436,-10.03178 -3.69447,12.47128 9.31815,11.43318 15.47454,13.87475 -27.83971,2.95552 -0.7525,17.2247 9.09068,17.72284 -9.34004,3.65554 -19.60229,7.44538 9.66495,18.48196 -8.66743,-0.52744 -3.19447,9.85595 8.92109,13.26338 -6.32824,1.54146 -3.90288,4.90271 5.91004,10.53837 -2.34872,1.77417 -4.29797,6.63141 -4.74185,14.81583 -8.0034,-24.4666 -11.58225,-20.47889 -20.35106,-18.53655 -14.1986,11.42244 3.13439,19.48004 13.34998,25.31054 -37.39191,-4.72776 -4.63506,18.96511 13.62293,22.35042 -14.34529,-2.31464 -34.32865,4.50336 3.96017,16.08229 -22.14163,8.12373 11.53754,8.10946 22.46178,14.11932 0.5384,0.18038 1.09733,0.30566 1.67404,0.38283 -1.43602,1.76012 -0.97672,5.93626 1.46002,11.55006 -3.48905,-8.4344 -23.2766,-28.25565 -16.77154,-2.46156 -4.79762,-11.11173 -44.15067,-19.41448 -17.5387,0.0705 -23.44995,-6.0517 -26.19754,3.66826 -25.34328,8.73768 2.29974,10.45838 14.62422,5.9616 22.43267,-1.60852 -15.83562,28.97653 11.99214,16.069 19.5315,3.67484 0.28503,-0.53211 0.56973,-1.06347 0.88796,-1.63253 -0.24795,0.54068 -0.55564,1.08622 -0.88796,1.63253 -11.9915,22.38615 4.97526,12.43071 17.07434,-1.83268 -18.58653,26.08728 5.87249,3.80351 23.82721,0.27074 6.36919,-10.64165 7.02922,-15.11172 0.52039,-13.22698 8.80224,-8.98084 8.36162,-20.70478 1.11069,-15.936 19.86256,-24.12694 9.07406,-22.3076 -0.84867,-20.83068 8.28486,-5.32827 24.64286,-31.17371 -0.96874,-19.88743 4.11817,-5.17918 15.91812,-10.75227 6.48792,-19.72657 -7.17431,-1.17823 -13.85298,3.74345 -12.09154,18.5089 -6.64241,-22.41288 -23.93992,-12.2593 -6.35693,18.29492 -23.81588,-23.49498 -14.96082,7.96354 -1.78903,13.50719 -5.0499,-1.85175 -8.27018,-2.32603 -10.09874,-1.89383 -2.78426,-15.75549 -4.55973,-24.94643 -11.47944,-2.96156 13.06546,-37.83499 -5.68664,-40.95111 -9.74428,-15.93599 2.46748,-18.98392 -1.1453,-30.33006 -5.34598,-32.99506 17.71479,-4.32969 45.20715,1.39661 17.62313,-11.26036 17.61106,6.34702 37.29066,6.53824 15.71909,-6.90353 -0.56141,-0.30856 -1.10061,-0.62888 -1.58596,-0.97458 0.56063,0.33539 1.07267,0.65473 1.58596,0.97458 12.7259,6.99385 43.29333,4.34041 15.0968,-12.9031 10.54956,2.67876 23.47974,0.44701 20.25134,-9.76394 -1.79068,-4.81992 -9.0263,-11.87996 -26.33459,5.03155 13.34197,-30.13063 -16.62925,-3.35649 -15.2402,8.66343 -7.24008,-25.59824 -14.49805,1.42936 -13.3114,10.47722 -0.69062,-6.0795 -2.37763,-9.92876 -4.50168,-10.73997 0.46151,-0.35381 0.88388,-0.74026 1.26062,-1.16453 6.46994,-10.64444 35.67567,-27.38574 12.42345,-23.41452 6.87452,-7.29377 10.71917,-12.50317 12.44674,-16.07356 3.89705,2.31858 5.5283,2.33581 4.82192,-0.47309 4.17307,4.38273 9.83047,4.37645 7.65976,0.81226 11.27721,9.95745 10.5891,4.74691 10.05143,-0.0423 2.42214,4.07033 14.58867,12.37555 9.59945,-0.11649 2.42337,2.06762 4.90247,7.82951 9.39202,3.46013 0.6935,-3.42317 -1.56162,-6.71504 -8.70713,-6.12838 10.91595,-2.79558 6.32717,-11.27666 -8.70348,-3.37207 11.73847,-11.02026 -3.57493,-7.32171 -6.47701,-1.09612 4.3484,-10.60337 -4.89444,-4.54427 -8.03969,1.7024 4.8792,-10.8043 -3.63977,-4.56925 -8.5237,0.85303 -0.72006,-4.72297 -11.19094,-1.05211 -18.11734,4.56135 7.24465,-6.15765 15.11113,-18.81845 17.03213,-26.65994 14.02981,5.70219 24.88388,12.81552 9.71589,-5.92606 12.95396,13.49853 30.50226,22.39862 17.14785,0.77588 -0.36265,-0.52192 -0.70063,-1.04412 -0.97966,-1.56557 0.35039,0.54514 0.66423,1.05486 0.97966,1.56557 8.27785,11.91316 36.86549,23.10746 19.27603,-4.8532 8.25857,7.07828 20.83541,10.81228 22.48872,0.23289 0.54142,-5.11214 -2.79809,-14.64528 -25.83239,-7.17064 25.36563,-21.07623 -13.40321,-10.38209 -17.50959,1.00222 4.90917,-26.14349 -13.62421,-5.14851 -16.58885,3.48343 2.0876,-5.75261 2.28914,-9.94896 0.74748,-11.61774 0.5711,-0.11227 1.12133,-0.27167 1.64782,-0.48473 10.53474,-6.66675 44.15222,-8.71237 21.55344,-15.46654 8.06267,-2.98789 13.43718,-5.58834 16.78757,-7.80315 3.62162,2.58952 5.21243,2.71694 4.75641,-0.12083 3.77627,4.72764 9.41196,5.2119 7.55932,1.47313 10.36893,10.89668 10.13724,5.64578 10.01795,0.82828 2.0591,4.26477 13.45754,13.5925 9.57325,0.71546 2.23444,2.26971 4.2025,8.22478 9.05502,4.26076 0.98854,-3.35017 -0.97024,-6.82544 -8.14014,-6.85987 11.11786,-1.83951 7.28307,-10.68657 -8.37812,-4.11373 12.65233,-9.96193 -2.92453,-7.60289 -6.35695,-1.65219 5.25394,-10.18672 -4.48178,-4.95135 -8.15832,0.99932 4.87922,-8.69893 -0.73565,-6.20247 -5.81905,-2.22791 -2.10591,-2.77941 -10.79865,-3.39809 -17.93173,-1.79412 10.69905,-2.66985 26.06148,-12.80114 29.0196,-19.12246 8.16149,9.68373 12.86215,16.26374 8.18743,-4.66763 5.60027,17.83452 17.36315,33.58579 15.02111,8.30317 -0.0934,-0.63087 -0.16461,-1.25121 -0.18269,-1.84434 0.0717,0.64636 0.12719,1.2447 0.18269,1.84434 2.12221,14.3435 22.74791,37.03129 19.42889,4.18798 4.25025,10.00259 13.85774,18.92355 20.04609,10.17734 2.7596,-4.34042 4.00895,-14.36239 -19.95511,-17.87494 32.10454,-7.64095 -7.39032,-15.24286 -16.1347,-6.86279 16.03035,-21.24829 -9.91588,-10.65243 -16.41272,-4.23236 4.42991,-4.22893 6.47823,-7.89911 5.83942,-10.07764 0.56124,0.15231 1.12469,0.25379 1.69078,0.29624 12.40516,-1.30391 43.43653,11.76318 26.1934,-4.30517 39.78887,4.17074 24.02661,-9.85791 9.9066,-13.2852 18.1422,3.95723 57.54594,-5.17933 21.2492,-15.31588 11.68235,-1.41329 30.78961,-2.11994 22.14953,-18.14935 -7.3249,-5.18873 -9.07099,-10.25094 -25.96559,9.19331 9.03979,-25.12674 -10.28828,-24.04384 -20.03445,11.13009 5.9936,-24.62461 -12.49844,-29.02171 -15.17903,10.9081 2.17709,-22.94115 -3.03573,-15.15995 -11.73128,-1.72061 -1.51692,-1.10702 -4.66872,-1.91802 -10.0427,-2.16896 14.29493,-0.003 34.69445,-25.55951 3.60644,-13.13965 28.09089,-21.34098 16.10125,-37.40256 1.25989,-19.32335 7.36803,-12.92387 3.12843,-20.04836 -3.94125,-21.7434 z m 230.58535,57.73205 c 4.2693,2.1339 10.12836,3.82683 15.36902,4.00018 -6.45098,0.0585 -9.89357,0.82884 -11.21306,2.01248 -1.431,-1.99206 -2.82262,-4.00896 -4.15596,-6.01266 z m -226.38791,6.1444 c -1.33889,2.00029 -2.73616,4.01411 -4.17269,6.00247 -1.31613,-1.18729 -4.7561,-1.9671 -11.20724,-2.04304 5.24136,-0.15921 11.1048,-1.83692 15.37993,-3.95943 z m 254.33978,19.34154 c 2.74256,1.95137 5.66158,3.75459 8.13866,5.38671 -5.54685,-1.06492 -9.53595,-1.38057 -12.2939,-1.15217 1.34345,-1.45963 2.72549,-2.89662 4.15524,-4.23454 z m -282.3615,6.0687 c 1.42644,1.34205 2.80452,2.78334 4.14431,4.24693 -2.75733,-0.23595 -6.74673,0.0687 -12.29683,1.11869 2.48152,-1.62543 5.40467,-3.42167 8.15252,-5.36562 z m -29.97381,7.55496 c 0.24718,3.15541 0.69681,6.59032 1.41857,10.32946 -0.82146,-3.63535 -1.9266,-6.62596 -3.15882,-8.99607 0.56644,-0.40551 1.14931,-0.85302 1.74025,-1.33339 z m 361.85807,33.45576 c 2.87581,3.80435 7.37257,7.91816 11.99112,10.39642 -5.81662,-2.81203 -9.23444,-3.63651 -10.94013,-3.15518 -0.39668,-2.42308 -0.74733,-4.85101 -1.05099,-7.24124 z m -381.53367,5.93551 c -0.31016,2.38942 -0.66739,4.81704 -1.07066,7.23907 -1.70417,-0.48631 -5.12397,0.3287 -10.94886,3.12533 4.62544,-2.46589 9.13343,-6.5677 12.01952,-10.3644 z m 401.41163,27.86743 c 0.95152,1.61985 1.89391,3.19475 2.73884,4.64432 -2.20393,-1.67382 -4.128,-2.99018 -5.84961,-4.05331 1.05454,-0.24785 2.09223,-0.44294 3.11077,-0.59101 z m -421.38131,5.88238 c 1.01807,0.15084 2.05554,0.34833 3.10932,0.599 -1.72449,1.05849 -3.65277,2.36943 -5.86127,4.03732 0.84877,-1.44715 1.79614,-3.01922 2.75195,-4.63632 z m 442.63562,54.46551 c 0.88265,4.68376 3.07919,10.36369 6.11382,14.63244 -3.9592,-5.09885 -6.65399,-7.35282 -8.39633,-7.67796 0.72334,-2.34687 1.49044,-4.67831 2.28251,-6.95448 z m -464.05295,5.82416 c 0.78591,2.27836 1.54657,4.6114 2.26357,6.96028 -1.74318,0.31986 -4.44379,2.56644 -8.41743,7.6554 3.04615,-4.26051 5.25851,-9.93433 6.15386,-14.61568 z m 435.97298,93.20243 c -0.46269,2.36488 -0.97436,4.76465 -1.5321,7.15611 -1.66959,-0.594 -5.13449,5.1e-4 -11.12644,2.41933 4.77405,-2.16547 9.53499,-5.97079 12.65854,-9.57544 z m -408.16233,5.89986 c 3.11378,3.61307 7.86491,7.4313 12.63307,9.60964 -5.98541,-2.435 -9.4487,-3.03941 -11.1199,-2.4499 -0.55124,-2.39295 -1.05689,-4.79365 -1.51317,-7.15974 z M 756.762,453.65047 c -0.41733,0.006 -0.84238,0.0604 -1.26788,0.16157 -4.22176,4.62772 1.63236,6.90335 3.78548,9.25009 -12.67884,-4.55018 -3.94734,7.30269 0.21107,9.5798 -4.81348,-0.37277 -10.0539,-0.88047 0.30132,10.02814 -3.643,-2.04359 -3.45529,3.60014 1.07575,7.61316 -3.18874,-0.68422 -2.72008,1.43871 0.69945,6.33145 0.41381,-0.2468 0.88941,-0.6006 1.3858,-0.99495 -2.11186,3.56039 -4.5271,8.82515 -7.2427,16.25626 -7.23997,-23.6364 -9.18846,11.59798 -16.13615,22.67574 -0.22084,0.55278 -0.38465,1.12974 -0.4993,1.72861 -1.76432,-1.60518 -6.17639,-1.36828 -12.21384,0.85376 9.06028,-3.15832 31.02813,-22.70261 3.56277,-17.40112 11.94801,-4.37118 22.96008,-45.05522 0.94764,-18.35168 7.72179,-24.17873 -2.32446,-27.61985 -7.6976,-27.02169 -11.11633,1.79618 -7.11278,14.95095 0.38138,23.56081 -29.50444,-18.25479 -17.57335,11.60774 -4.99804,20.21786 0.54237,0.32934 1.08381,0.65782 1.66309,1.02406 -0.55351,-0.291 -1.1086,-0.6444 -1.66309,-1.02406 -22.80757,-13.84866 -13.34226,4.48041 0.93016,17.96885 -25.23273,-20.10566 -6.06603,3.79649 -2.10345,22.5382 -0.92389,0.1355 -1.75097,0.30261 -2.38148,0.50585 1.43162,5.79188 2.72283,7.54312 4.30953,4.69891 0.0364,6.04615 4.16359,9.90763 5.02571,5.82634 1.39136,14.96386 4.46367,10.69495 7.35625,6.83657 -1.02599,4.62206 2.14682,18.98997 7.07749,6.47485 0.34848,3.16299 -1.79615,9.05615 4.47328,8.93856 2.85334,-2.02151 3.46769,-5.9615 -2.14347,-10.41608 9.87467,5.42054 12.34589,-3.89741 -4.03223,-8.40506 7.62271,-0.006 8.57076,-1.74678 6.78127,-3.30948 4.37734,0.84023 7.02865,-1.0214 4.49221,-5.37143 24.17766,22.18508 22.89637,10.79253 21.92391,0.32607 5.11219,8.97758 31.29852,27.59706 20.93986,0.14629 5.19856,4.61002 10.36297,17.27834 20.33651,7.93634 1.65546,-7.43655 -3.12385,-14.7097 -18.73162,-13.72775 12.26616,-2.893 15.685,-9.20709 11.66067,-12.44237 9.05198,1.17453 6.33522,-2.44258 3.86919,-5.83944 4.11762,2.34983 18.80468,3.5902 8.29444,-4.82409 3.1296,0.60672 8.13195,4.40055 9.88039,-1.60999 -1.0872,-3.31956 -4.67407,-5.07499 -10.60168,-1.0488 8.11707,-7.8029 -0.065,-12.92455 -9.23916,1.34794 4.77088,-15.36363 -6.72523,-4.61149 -6.17571,2.23301 -1.45313,-11.36509 -6.50367,-1.54557 -6.15532,5.43695 -1.02693,-11.113 -4.9233,-3.23695 -6.68736,3.66611 -3.97212,1.05835 -8.54525,2.78392 -13.68626,5.36343 26.06015,-23.54472 -7.48941,-16.11494 -14.07854,-2.65878 2.23882,-5.17472 2.92445,-8.51582 2.57726,-10.45393 16.70662,-1.99423 26.46141,-3.31579 3.77893,-11.83608 38.96857,15.87356 43.3338,-3.56167 17.30215,-9.26464 37.72967,7.03066 47.65805,-10.66629 19.74841,-13.73283 26.15871,-6.9463 22.1794,-10.92265 20.65093,-20.20913 -11.16694,-15.51932 -20.63845,2.14279 -27.35649,12.48967 7.14425,-38.84092 -19.64471,-5.95382 -24.26391,12.94896 1.96025,-8.924 0.5819,-20.14721 -3.94051,-19.2018 3.2664,-4.24823 4.45498,-7.97317 -3.39755,-4.11301 6.14741,-3.35089 11.8982,-12.77815 1.42947,-8.07826 6.13459,-3.10757 9.31561,-18.50977 -1.31812,-6.42389 7.4015,-15.26348 -1.24779,-19.55111 -3.6741,-8.56665 0.30046,-6.25466 -2.24479,-8.67244 -5.16621,-8.63722 z m -296.08122,6.37149 c -2.19773,0.24155 -4.57821,4.86036 -3.12679,14.28816 -6.60544,-14.6714 -8.10019,0.98297 -3.15153,5.75283 -8.62254,-7.5632 -5.90099,3.13471 -1.01169,8.14086 -8.46177,-7.96221 -5.63605,1.52619 -2.18934,7.9123 -5.61941,-3.79686 -7.51871,8.76837 -5.39474,18.56422 -4.56797,-18.91516 -31.26721,-51.8738 -24.22824,-13.01373 -6.68997,-10.365 -16.11333,-28.05303 -27.32228,-12.56393 -1.55363,9.28232 -5.54346,13.24828 20.59634,20.26517 -27.91785,2.99119 -18.03729,20.71404 19.71128,13.78523 -26.04699,5.63269 -21.73479,25.07956 17.27668,9.31123 -22.70559,8.45909 -12.95439,9.80767 3.7469,11.847 -0.35247,1.93716 0.32407,5.28039 2.54889,10.4612 -6.55269,-13.4739 -40.0821,-20.99479 -14.08583,2.62022 -10.02874,-5.0659 -17.89273,-6.865 -23.33738,-6.77253 -1.82295,-6.74222 -8.82701,-19.54166 -8.30898,-6.28632 -0.56817,-6.96814 -6.8605,-16.04473 -6.81401,-4.58756 -0.3507,-6.85753 -13.15528,-16.01936 -6.41516,-1.40911 -10.96278,-12.9546 -18.40441,-6.81055 -9.33597,-0.13239 -6.40337,-3.2189 -9.73039,-1.01136 -10.37387,2.42152 2.51979,5.73113 6.98288,1.31803 10.00631,0.30861 -9.31939,9.71214 5.07995,6.56816 8.85487,3.70177 -2.29811,4.2381 -4.89407,8.81082 9.30176,3.80223 -3.35164,2.49131 1.89032,4.61484 7.40575,2.11437 -0.45186,0.618 -0.67118,1.11042 -0.67907,1.49425 -5.20067,3.00159 -2.14955,9.91234 10.83384,13.01154 -15.60503,-1.02408 -20.40404,6.23653 -18.76873,13.67751 9.9482,9.3689 15.14731,-3.28576 20.35834,-7.88174 -10.43301,27.42265 15.80336,8.8742 20.93986,-0.0896 -1.00083,10.4638 -2.31304,21.85263 21.92464,-0.26711 -4.60629,7.85092 7.73154,7.66096 16.67548,-2.04668 -1.61848,6.91455 3.03924,5.97674 13.86239,-1.27737 2.71456,-18.98148 24.76168,-45.80867 -1.60561,-24.91532 14.30924,-13.45015 23.82378,-31.75408 0.97676,-17.9652 -0.55509,0.37781 -1.11071,0.72968 -1.66457,1.01897 0.57971,-0.36432 1.12179,-0.69138 1.66457,-1.01897 12.59906,-8.57495 24.61281,-38.40814 -4.94202,-20.23242 7.51747,-8.5896 11.55685,-21.73321 0.44544,-23.55934 -5.37152,-0.61268 -15.42663,2.80107 -7.77039,27.00057 -21.94,-26.76287 -11.03797,13.95046 0.89814,18.35387 -27.45087,-5.37562 -5.53621,14.22854 3.51546,17.41132 -6.03164,-2.23842 -10.44314,-2.48716 -12.21165,-0.88651 -0.1131,-0.5992 -0.27559,-1.17743 -0.49492,-1.7308 -6.91767,-11.09648 -8.77031,-46.33547 -16.07428,-22.7187 -3.26883,-9.02061 -6.10047,-14.83321 -8.4946,-18.30002 4.1631,-3.34316 5.03339,-5.09451 1.93605,-5.36269 5.51258,-2.50669 7.35401,-7.84575 3.27016,-6.96105 13.1106,-7.38964 7.95119,-8.44108 3.24034,-9.49681 4.64527,-0.95674 16.48138,-9.72511 3.0227,-9.09505 2.74903,-1.61152 9.01435,-2.06935 6.34165,-7.73108 -3.01549,-1.77154 -6.86874,-0.71864 -8.64525,6.21426 0.4004,-4.90484 -1.19836,-7.36507 -2.9077,-7.1772 z m 129.2828,45.73363 c -0.61567,0.006 -1.2424,0.13014 -1.85745,0.3581 -3.62706,5.10543 2.46093,6.6542 4.88379,8.72241 -13.1388,-2.97873 -3.02847,7.7271 1.37633,9.48298 -4.82333,0.21382 -10.08811,0.34589 1.519,9.91824 -3.86479,-1.58661 -2.99172,3.99161 1.99429,7.42539 -3.2484,-0.29244 -2.52469,1.75869 1.46512,6.20045 4.53197,-3.51364 14.78547,-19.65965 2.52414,-11.65123 5.69395,-4.0716 10.25497,-14.12652 0.43597,-8.1918 5.71084,-3.82858 6.99321,-19.50173 -2.09033,-6.21572 5.48844,-16.04804 -3.61909,-19.25521 -4.69018,-8.0579 -0.43014,-5.79844 -2.89277,-8.01538 -5.56068,-7.99092 z m 45.38865,6.75797 c -2.1936,-0.0596 -5.69131,3.58429 -7.43704,12.42273 -1.21099,-16.03919 -7.95235,-1.82556 -4.92455,4.34008 -5.5305,-10.03981 -6.61795,0.94344 -3.72653,7.31113 -6.6068,-13.05458 -5.81473,6.04529 -3.6501,11.3499 5.6804,-1.85554 7.33398,-3.27063 4.3743,-4.63851 6.03815,-0.48545 9.58896,-4.88079 5.44713,-5.43549 14.84729,-2.49733 10.35493,-5.23852 6.28487,-7.8308 4.6943,0.67764 18.81279,-3.54853 5.94207,-7.52583 3.13432,-0.58197 9.18225,1.11484 8.59867,-5.11671 -2.23186,-2.68978 -6.21442,-3.0078 -10.24794,2.90844 2.19453,-4.79611 1.27465,-7.7323 -0.66088,-7.78494 z m 118.26043,26.93798 c -3.97536,3.0468 -8.26133,7.7941 -10.82658,12.65491 2.90631,-6.12043 3.74279,-9.70801 3.22068,-11.49037 2.54476,-0.43714 5.09486,-0.82516 7.6059,-1.16454 z m -288.6733,6.0607 c 2.51029,0.34618 5.05994,0.74233 7.60371,1.18637 -0.52644,1.78124 0.30012,5.37107 3.18938,11.49838 -2.55221,-4.86796 -6.82584,-9.62725 -10.79309,-12.68475 z m 267.2334,16.82032 c 0.0874,0.0955 0.17969,0.17563 0.26785,0.2693 -0.0727,10e-4 -0.14361,5.7e-4 -0.2169,0.003 -0.0201,-0.0945 -0.0283,-0.17457 -0.051,-0.27222 z m 4.41216,3.88592 c 0.67415,0.47996 1.34577,0.91605 2.01465,1.30283 -1.75525,-0.26472 -3.56278,-0.21571 -5.00025,0.35955 1.31899,-0.60107 2.29573,-1.15547 2.9856,-1.66238 z m -251.08271,11.77277 c -2.81015,-0.10058 -3.58809,1.22589 1.29408,5.37289 -5.52107,-4.30227 -16.47321,-5.82986 -7.99674,1.89601 -5.29219,-4.38702 -20.71816,-1.18963 -5.3838,3.75638 -16.97391,-0.72383 -17.48546,8.9021 -6.42099,6.76597 -6.70965,2.52197 -7.33573,6.46046 -5.24115,9.25808 5.93109,2.03134 5.701,-4.23477 7.0047,-7.13861 0.84689,13.42074 8.28151,0.71881 8.72604,-3.9951 1.56742,4.55795 3.1802,9.56088 9.10305,-4.25567 -0.43366,4.14851 4.68141,1.7369 6.57384,-4.00673 0.63617,3.19286 2.40287,1.92142 5.54538,-3.15301 -2.61939,-1.8828 -9.59137,-4.37092 -13.20441,-4.50021 z" style="display:inline;fill:#e08040;fill-opacity:1;fill-rule:evenodd;stroke-width:5.02962;stroke-linecap:square;paint-order:fill markers stroke"/><path id="rect9930" d="m 631.09437,326.01113 c -25.20163,3.7206 -19.68168,6.83822 -42.62941,17.74466 -5.00518,1.10036 -8.20746,3.49561 -11.08787,5.9144 -0.007,3.2175 -0.518,10.58756 16.44038,4.42453 4.69849,-2.5321 12.29304,-7.89759 15.48401,-7.59644 4.37167,0.41338 7.24741,2.37777 11.08787,3.47033 12.27761,5.0006 17.67963,5.3428 34.98276,18.92522 4.26458,-0.71641 9.13479,-1.32827 14.14553,-3.29128 9.33608,1.27876 9.83809,3.0852 28.4839,7.20268 -3.34994,-37.5767 2.22034,-33.01342 -5.92606,-40.1162 -19.7453,-5.32247 -40.51895,-5.46377 -60.98111,-6.6779 z m -55.18679,0.30277 c -1.59466,0.007 -3.20701,0.0749 -4.83137,0.20744 -14.70124,1.38835 -27.56521,6.21558 -41.55732,10.3382 -6.60834,9.54892 -5.1471,23.29824 -5.87147,36.24192 26.001,-8.98882 44.08287,-7.5519 49.41432,-1.66967 10.1781,10.4797 38.42289,15.27286 41.57406,13.98102 4.64297,-1.27477 1.36258,-5.24086 -16.68567,-11.51874 10.73607,3.01786 24.80672,11.01177 31.03061,11.01217 15.98991,0.64647 -12.5588,-14.31736 -23.36794,-21.41806 8.62484,5.10327 19.92031,10.81843 28.21897,16.13979 8.93427,5.7289 15.52741,1.05492 11.97802,-1.33267 -14.39327,-9.1652 -22.25888,-15.74017 -33.38808,-23.61031 22.75744,15.07635 34.35185,21.97309 40.75817,23.66489 5.42476,1.4326 8.16846,-1.95883 6.9581,-3.56204 -20.47862,-17.49419 -48.91283,-27.99481 -51.90642,-26.17373 -10.24244,7.36348 -19.88055,8.60398 -27.50788,8.7697 -6.41023,-0.53941 -5.45155,-5.16063 -4.52788,-7.69032 0.74187,-3.49328 17.53083,-12.18575 28.73283,-16.3756 -7.558,-4.16026 -17.85845,-7.05557 -29.02105,-7.00399 z m 117.75313,1.92731 c -1.30195,-0.0631 -2.242,1.57373 -2.29777,2.96812 3.19253,1.21491 5.86622,3.10411 7.16409,5.39691 2.665,3.51979 -0.42775,24.94868 0.67616,37.37225 -3.68664,0.86768 -7.94896,-0.53632 -12.03042,-1.68639 0.73043,4.5899 7.49226,8.37466 12.90892,10.0849 9.99816,2.83516 18.6608,-2.95454 17.77524,-13.93007 -1.17149,-12.9183 -7.0016,-38.45136 -8.38104,-38.65398 -5.15494,-0.82026 -10.43501,-1.31599 -15.81518,-1.55174 z m -175.65402,0.69218 c -0.26054,0.009 -0.51018,0.0246 -0.74604,0.0503 -5.44915,1.34016 -9.44292,5.69237 -12.01368,9.32579 -4.58575,6.40999 -1.47561,27.55691 -3.22723,41.43648 -0.50381,2.64897 10.5751,3.81738 16.44039,3.32258 4.14218,-1.88408 6.46786,-4.89751 8.84759,-8.03385 -2.44744,0.42275 -6.08886,1.46491 -6.83221,-1.01826 -2.16365,-9.95625 -0.38421,-28.82692 2.01465,-35.22584 0.99408,-2.21769 2.40628,-5.63209 4.30006,-5.69169 1.08332,0.10552 1.9406,1.23485 2.43317,2.09107 0.68334,-1.23674 0.64581,-2.56918 -0.0677,-3.71051 -0.82739,-0.9248 -7.24093,-2.66805 -11.14901,-2.54598 z m 58.12798,46.44765 c -0.57346,2.21013 -1.40803,5.73277 0.43016,6.34383 2.72958,0.90631 4.72302,-0.33549 5.83069,-2.71848 -2.33508,-0.7637 -4.86276,-2.15913 -6.26085,-3.62535 z m 7.24051,5.05628 c -0.11943,3.23278 -1.41491,5.36595 1.62455,6.17716 3.90023,0.77002 3.81304,-2.27424 4.80299,-3.8881 -2.48091,-0.25672 -4.55528,-1.13302 -6.42754,-2.28906 z m 7.93999,2.44917 c -0.54122,1.69794 -1.28835,4.83791 1.97972,5.42677 3.75514,0 4.04789,-1.01826 4.96166,-3.84736 -2.29918,-0.18803 -4.98859,-0.22349 -6.94138,-1.57941 z m 8.56954,1.98627 c -0.2827,1.25987 0.0974,3.27626 2.33201,4.18215 3.04417,0.74204 3.94304,-1.23028 4.73094,-3.13625 -2.46963,0.0273 -3.36417,0.0211 -7.06295,-1.0459 z m -66.64075,139.87137 c -6.92258,0.0379 -14.52839,2.55292 -25.17371,8.30318 -5.32337,3.24875 -8.61754,12.95964 -8.49168,26.10242 -7.7225,11.87298 -6.26995,25.89895 4.36776,29.88572 6.74637,2.5009 33.4158,2.1265 57.51733,-3.37134 -24.17108,19.03972 -73.28972,20.10329 -95.46239,57.22401 -3.99563,21.98494 -13.26039,26.02935 -28.75248,40.59002 10.0132,7.45922 24.04793,-3.38764 34.45435,-14.75982 -5.11141,19.41671 -29.85885,29.65685 -39.91239,42.48168 27.54078,-0.50787 31.64565,-3.19243 71.4423,-62.20388 54.55571,-19.60243 78.42472,-28.23111 105.54075,-63.25996 27.11541,35.02723 50.98242,43.65792 105.53711,63.25996 39.79668,59.01144 43.90227,61.69651 71.44303,62.20388 -10.05353,-12.82483 -34.79813,-23.06497 -39.90948,-42.48168 10.40638,11.37218 24.43823,22.21904 34.45144,14.75982 -15.49205,-14.56067 -24.75688,-18.60508 -28.75248,-40.59002 -22.17268,-37.12072 -71.28764,-38.18429 -95.45876,-57.22401 24.10155,5.49784 50.76658,5.87224 57.51296,3.37134 10.63769,-3.98677 12.091,-18.01274 4.36849,-29.88572 0.12577,-13.14278 -3.1683,-22.85367 -8.49168,-26.10242 -30.96825,-16.728 -36.23833,-6.06443 -73.66658,13.21897 -12.69434,-4.45564 -19.69749,-0.006 -27.03405,1.62016 -7.33657,-1.62824 -14.3426,-6.0758 -27.03697,-1.62016 -24.56228,-12.65472 -35.27706,-21.59639 -48.49287,-21.52215 z" style="display:inline;fill:#ffff80;fill-opacity:1;fill-rule:evenodd;stroke:none;stroke-width:5.08001;stroke-linecap:square;stroke-miterlimit:4;stroke-dasharray:none;stroke-opacity:1;paint-order:stroke fill markers"/></svg>