<svg xmlns="http://www.w3.org/2000/svg" xml:space="preserve" id="svg1" width="4608" height="3072" version="1.1" viewBox="0 0 1219.2 812.8"><defs id="defs1"><style id="style1">.cls-1{fill:#0283c0}.cls-2{fill:#fff}.cls-3{fill:#ef483f}</style></defs><path id="rect1" d="M 0 0 L 0 812.8 L 1219.2 812.8 L 1219.2 0 L 0 0 z" style="fill:#000;fill-rule:evenodd;stroke:none;stroke-width:8.46667;stroke-linecap:round;stroke-linejoin:round;fill-opacity:1"/><path id="path7" d="m 603.26077,135.46666 v 34.9324 h -34.93241 v 12.67911 h 34.93241 v 45.54087 h 12.6784 v -45.54087 h 34.93521 v -12.67911 h -34.93521 v -34.9324 z m -34.99342,97.93876 v 67.12454 h 12.70506 v -67.12454 z m 17.48865,0 v 67.12454 h 12.70575 v -67.12454 z m 17.49145,0 v 67.12454 h 12.70504 v -67.12454 z m 17.48864,0 v 67.12454 h 12.70505 v -67.12454 z m 17.49144,0 v 67.12454 h 12.70506 v -67.12454 z m -69.96018,102.52603 v 179.43299 l 12.70506,-27.11681 V 335.93145 Z m 17.48865,0 v 142.1067 l 12.70575,-27.11823 V 335.93145 Z m 17.49145,0 v 104.77408 l 12.70504,-27.11612 v -77.65796 z m 17.48864,0 v 67.44778 l 12.70505,-27.11613 v -40.33165 z m 17.49144,0 v 30.11586 l 12.70506,-27.11681 v -2.99905 z m 12.70506,48.8295 -12.70506,27.11613 v 149.20213 h 12.70506 V 433.77137 Z m -17.49145,37.33191 -12.70505,27.11613 v 111.87022 h 12.70505 z m -17.48865,37.3256 -12.70504,27.11683 v 74.54392 h 12.70504 z m -17.49074,37.33052 -12.70575,27.11823 v 37.212 h 12.70575 z m -17.48934,37.3277 -12.65176,27.00253 h 12.65176 z m -12.70506,61.72037 v 70.92713 h 12.70506 v -70.92713 z m 17.48865,0 v 70.92713 h 12.70575 v -70.92713 z m 17.49145,0 v 70.92713 h 12.70504 v -70.92713 z m 17.48864,0 v 70.92713 h 12.70505 v -70.92713 z m 17.49144,0 v 70.92713 h 12.70506 v -70.92713 z m -34.96676,75.71072 v 5.82557 h 12.6784 v -5.82557 z" style="color:#000;display:inline;fill:#d00000;stroke-width:1;stroke-linecap:round;stroke-linejoin:round;-inkscape-stroke:none;fill-opacity:1"/><path id="path8" d="m 568.26735,305.31354 v 10.52361 h 82.66313 v -10.52361 z m 117.37816,12.88245 -17.44657,10.82093 c 6.54962,17.86869 7.51584,30.12748 4.40986,38.56532 -2.95671,8.03229 -9.62186,12.03977 -16.89263,13.86063 v 49.93249 l 58.33427,-0.0974 c 7.35127,-47.58967 -1.79888,-86.15709 -28.40493,-113.0819 z m -117.37816,2.42756 v 10.52362 h 82.66313 v -10.52362 z m 82.66313,29.58435 -82.66313,176.42694 v 23.28687 l 82.66313,-176.43185 z m -82.68697,215.6549 v 10.1611 h 80.82598 v -10.1611 z m 0,14.99237 v 10.15548 h 80.82598 v -10.15548 z" style="color:#000;fill:#ffd000;stroke-width:1;stroke-linecap:round;stroke-linejoin:round;-inkscape-stroke:none;fill-opacity:1"/></svg>