<svg xmlns="http://www.w3.org/2000/svg" xml:space="preserve" width="3072" height="2048" viewBox="0 0 812.8 541.867"><path fill="#e00000" d="M0 0h812.8v541.867H0Z" paint-order="stroke fill markers"/><path d="M406.697 67.733c-6.682.002-13.42.197-17.968.585-37.43 3.194-74.776 17.516-104.746 40.168-19.125 14.455-37.78 34.82-50.012 54.597-17.113 27.669-26.985 56.975-30.102 89.384-1.116 11.597-.793 33.466.652 44.171 5.14 38.05 19.52 71.972 43.04 101.52 6.598 8.288 23.368 25.068 31.714 31.732 30.768 24.569 68.507 39.888 107.983 43.84v-.001c8.201.821 37.196.31 45.017-.795 40.91-5.77 76.458-21.604 106.512-47.443 7.415-6.374 20.397-19.762 25.94-26.745 24.111-30.394 38.593-64.584 43.52-102.749 1.32-10.243 1.78-31.423.904-41.812-3.398-40.29-18.548-78.315-43.936-110.27-6.853-8.626-24.789-26.398-33.195-32.893-19.423-15.01-37.633-24.923-59.729-32.52-14.66-5.04-32.329-8.794-47.96-10.191-4.326-.387-10.955-.579-17.634-.578zm1.28 38.315c5.697-.021 10.971.13 14.378.475 57.157 5.845 106.118 39.559 131.654 90.655 8.376 16.761 13.021 31.554 16.079 51.201.819 5.259 1.053 10.311 1.053 22.659 0 17.008-.529 22.32-3.607 36.194-9.126 41.135-34.618 78.146-69.939 101.531-20.405 13.513-41.293 21.611-66.202 25.672-8.328 1.358-33.75 2.01-41.97 1.077-44.03-4.997-83.061-26.02-110.655-59.598-16.22-19.734-28.053-43.978-33.535-68.682-3.048-13.746-3.599-19.217-3.61-35.9-.01-16.235.359-20.417 2.936-33.252 7.422-36.974 27.921-70.942 57.279-94.918 23.425-19.131 50.059-30.931 80.713-35.752 5.233-.824 15.93-1.327 25.426-1.362zm-1.006 12.267-2.647.007c-5.053.012-16.808 1.215-23.833 2.439-9.557 1.663-19.644 4.494-28.835 8.083-9.024 3.527-21.243 9.659-21.045 10.564.076.35 4.269 7.792 9.316 16.531v-.001l9.178 15.895 5.689-2.85c7.426-3.718 15.881-6.86 24.01-8.92 6.497-1.649 19.726-3.492 25.063-3.493h2.779l.163-19.128zm75.984 21.188c-.6 0-18.004 29.355-18.839 31.78-.21.61 1.231 1.854 4.725 4.063 12.895 8.155 26.659 22.165 34.463 35.073 1.068 1.765 2.254 3.1 2.636 2.964.967-.343 31.566-17.968 32.127-18.505.567-.546-7.549-12.806-12.9-19.475-5.448-6.794-16.373-17.675-23.159-23.072-6.123-4.871-17.943-12.828-19.053-12.828zm-76.882 29.536.155 19.219.155 19.219 5.296.384c8.228.596 17.482 3.224 24.41 6.93 1.887 1.01 2.097 1.02 2.687.128 1.584-2.397 18.033-31.262 18.048-31.67.027-.756-6.428-4.083-12.984-6.696-10.343-4.118-20.6-6.303-34.081-7.254zm-50.378 14.086c-.093-.123-2.76 1.519-5.929 3.641-11.094 7.447-20.1 16.448-27.652 27.653-2.014 2.987-3.425 5.64-3.148 5.916.276.276 7.48 4.563 16.008 9.52 8.525 4.958 15.77 9.025 16.094 9.034.324.01 1.518-1.493 2.648-3.338 2.655-4.323 12.863-14.534 17.185-17.187 1.845-1.133 3.368-2.266 3.383-2.518.021-.347-17.722-31.58-18.589-32.721zm-81.329 11.641-2.638 4.884c-10.362 19.184-16.283 40.861-17.772 65.06l-.407 6.622h38.144l.726-8.681c1.28-15.318 5.01-29.1 11.326-41.86 1.862-3.762 3.209-7.01 2.993-7.218-.217-.208-6.487-3.888-13.928-8.173-7.441-4.287-14.639-8.433-15.989-9.214zm132.386 25.462c-12.973-.1-25.992 4.773-35.99 14.633-20.122 19.847-20.24 52.09-.265 72.067 7.09 7.09 15.734 11.776 25.588 13.87 20.441 4.343 42.197-4.913 53.258-22.66 12.573-20.174 9.786-45.915-6.787-62.725-9.874-10.013-22.828-15.085-35.804-15.185zm87.246.342c-.287.08-7.718 4.303-16.512 9.377l-15.99 9.232 1.716 3.397c3.611 7.156 6.431 17.94 6.431 24.59 0 1.86.177 3.558.392 3.773.216.216 8.904.393 19.3.393h18.908l-.202-3.973c-.56-11.02-3.227-23.733-6.91-32.932-2.669-6.673-6.464-14.044-7.133-13.857zm-87.615 13.023c.252 0 2.788 5.25 5.637 11.66 2.845 6.413 5.526 11.845 5.95 12.072.424.226 6.467.98 13.423 1.675 6.958.694 12.718 1.325 12.799 1.402.08.077-4.355 4.193-9.857 9.147-5.499 4.95-10.004 9.058-10.004 9.12 0 .062 1.202 5.757 2.671 12.65 1.466 6.894 2.595 12.757 2.501 13.024-.093.267-5.204-2.418-11.35-5.959-6.15-3.544-11.417-6.447-11.704-6.449-.288-.003-5.454 2.81-11.475 6.249-6.021 3.44-11.151 6.368-11.394 6.508-.71.41-.574-.427 2.207-13.48 1.457-6.834 2.648-12.495 2.648-12.574 0-.079-4.502-4.184-10.004-9.123-5.5-4.936-10.003-9.029-10.003-9.088 0-.06 5.894-.714 13.093-1.455 7.201-.74 13.328-1.557 13.616-1.814.288-.257 2.836-5.667 5.656-12.016 2.823-6.351 5.339-11.549 5.59-11.549zm-102.072 37.134.253 1.626c.14.895.397 3.909.573 6.698.81 12.855 5.558 29.01 11.777 40.059l1.55 2.755 12.771-7.379c7.024-4.056 14.408-8.323 16.408-9.478l3.636-2.099-1.434-2.83c-3.705-7.31-6.083-15.803-6.64-23.696l-.375-5.345-19.26-.156zm216.762.016-.725 8.68c-1.274 15.246-4.871 28.615-11.123 41.344-1.828 3.723-3.34 6.98-3.358 7.24-.019.26 7.248 4.688 16.149 9.841 14.797 8.567 16.25 9.282 16.967 8.356 1.266-1.638 5.724-10.695 8.268-16.809 6.625-15.922 10.468-33.191 11.577-52.031l.39-6.621h-19.072zm-59.498 32.397c-.256.016-1.392 1.538-2.524 3.384-2.663 4.337-12.872 14.538-17.196 17.186-1.85 1.133-3.307 2.38-3.236 2.77.071.392 4.234 7.864 9.25 16.605 5.015 8.738 9.23 15.904 9.36 15.915.797.072 12.344-8.265 16.533-11.94 8.85-7.759 21.466-23.965 19.836-25.482-1.009-.939-31.461-18.472-32.023-18.438zm-87.05 23.012-9.283 16.11c-5.102 8.856-9.323 16.32-9.374 16.58-.165.844 12.094 6.565 18.616 8.69 7.903 2.574 16.858 4.38 24.703 4.984 3.308.254 6.354.5 6.763.546.588.067.711-3.938.588-19.19l-.155-19.274-5.344-.377c-7.894-.556-16.386-2.937-23.69-6.638zm-67.1 2.347c-.133-.211-31.88 17.921-32.685 18.669-.534.495 8.233 13.58 13.462 20.093 5.146 6.407 15.557 16.826 21.967 21.97 2.749 2.209 8.314 6.236 12.354 8.948 4.044 2.71 7.535 4.744 7.758 4.515.592-.606 18.732-32.115 18.698-32.479-.016-.168-2.333-1.762-5.149-3.542-6.533-4.131-13.777-10.184-20.137-16.831-6.376-6.664-9.936-11.334-16.268-21.343zM463.696 370.3l-7.178 3.461c-13.598 6.558-26.429 10.027-41.749 11.284l-8.68.711v38.003h2.322c1.274 0 5.712-.285 9.856-.634 14.649-1.232 30.156-4.815 43.431-10.041 8.31-3.27 20.638-9.534 20.458-10.39-.077-.365-4.261-7.805-9.3-16.529z"/></svg>
