<?xml version="1.0" encoding="UTF-8"?>
<svg version="1.1" xmlns="http://www.w3.org/2000/svg" width="1333" height="889">
<path d="M0 0 C439.89 0 879.78 0 1333 0 C1333 293.37 1333 586.74 1333 889 C893.11 889 453.22 889 0 889 C0 595.63 0 302.26 0 0 Z " fill="#DD0000" transform="translate(0,0)"/>
<path d="M0 0 C1.03882324 0.1654834 2.07764648 0.3309668 3.14794922 0.50146484 C15.39901708 2.45470677 27.24147043 5.03364025 39 9 C40.40572266 9.47397217 40.40572266 9.47397217 41.83984375 9.95751953 C99.7523088 29.71968714 150.88146593 63.94431609 188 113 C188.4522998 113.59006836 188.90459961 114.18013672 189.37060547 114.78808594 C220.52641881 155.51073582 239.45942085 203.49712954 247 254 C247.12004395 254.78681152 247.24008789 255.57362305 247.36376953 256.38427734 C249.09431603 268.28146215 249.17826873 280.1900785 249.1875 292.1875 C249.18858765 292.94259857 249.18967529 293.69769714 249.1907959 294.47567749 C249.18818707 310.47411873 248.46916321 326.18712491 245.875 342 C245.76806824 342.65787506 245.66113647 343.31575012 245.55096436 343.99356079 C243.36413004 357.2914518 240.10520192 370.16455073 236 383 C235.71898437 383.88187988 235.43796875 384.76375977 235.1484375 385.67236328 C223.91539097 420.36226807 207.04568313 452.68779934 184 481 C183.37327393 481.77102051 183.37327393 481.77102051 182.73388672 482.55761719 C167.62297035 501.04479914 151.07275664 517.62844647 132 532 C131.34467285 532.50112305 130.6893457 533.00224609 130.01416016 533.51855469 C88.00350634 565.52762156 39.08167827 584.12339617 -13 591 C-13.83321777 591.11859375 -14.66643555 591.2371875 -15.52490234 591.359375 C-72.05356385 599.31815575 -131.27476322 587.18700259 -182 562 C-182.8353125 561.59313965 -183.670625 561.1862793 -184.53125 560.76708984 C-207.63781255 549.45913065 -229.52743233 534.42245344 -248.171875 516.6796875 C-250.48480012 514.488159 -252.82851162 512.38125188 -255.25 510.3125 C-262.40925709 504.10278648 -268.91960733 497.25948023 -275 490 C-275.44827148 489.47083984 -275.89654297 488.94167969 -276.35839844 488.39648438 C-293.46697376 468.13195826 -307.69061138 445.98252289 -319 422 C-319.49064941 420.96286865 -319.49064941 420.96286865 -319.99121094 419.90478516 C-330.55641738 397.367396 -337.86888307 374.3234288 -342.6875 349.9375 C-342.89012451 348.92204102 -343.09274902 347.90658203 -343.30151367 346.86035156 C-346.51397606 329.93629024 -347.37715937 313.26189346 -347.3125 296.0625 C-347.31034485 295.02919556 -347.3081897 293.99589111 -347.30596924 292.93127441 C-347.14557032 244.91729435 -336.18918089 199.5261791 -313.97509766 156.87646484 C-312.99613756 154.99256717 -312.03477552 153.10036612 -311.07421875 151.20703125 C-295.27658087 120.4272971 -271.33757098 91.3638322 -245 69 C-244.16210938 68.27296875 -243.32421875 67.5459375 -242.4609375 66.796875 C-175.77207956 9.84495775 -86.19994953 -14.49088995 0 0 Z " fill="#DD0000" transform="translate(839,150)"/>
<path d="M0 0 C3.24010121 0.01068059 6.4796425 0.00006479 9.71972656 -0.01269531 C28.27002456 -0.02654349 46.41004343 1.44474299 64.69628906 4.57324219 C65.98599609 4.79343018 67.27570313 5.01361816 68.60449219 5.24047852 C78.48963632 6.98180952 87.96237579 9.19218782 97.50878906 12.26074219 C98.57468262 12.59170898 99.64057617 12.92267578 100.73876953 13.26367188 C159.57422594 31.58302125 217.56947895 65.54027305 256.34472656 114.53808594 C258.60469469 117.38140324 260.95768366 120.12820255 263.32128906 122.88574219 C295.4465329 161.50544118 317.17346955 208.66571559 327.91381836 257.55712891 C328.34343228 259.50934251 328.78671881 261.45856454 329.23852539 263.40576172 C331.31745255 272.60391626 332.66208829 281.77383545 333.69628906 291.13574219 C333.78250519 291.9128656 333.86872131 292.68998901 333.95755005 293.49066162 C337.63228824 327.3843628 335.7927438 361.47890898 329.13378906 394.88574219 C328.92264969 395.95291977 328.92264969 395.95291977 328.70724487 397.04165649 C326.63633815 407.34939336 323.80127628 417.2809303 320.50878906 427.26074219 C320.1882959 428.25396484 319.86780273 429.2471875 319.53759766 430.27050781 C307.23906417 468.05967893 288.76529512 503.46626471 263.50878906 534.26074219 C263.07791992 534.78635742 262.64705078 535.31197266 262.203125 535.85351562 C249.48078815 551.30141421 235.95946989 566.65004154 220.23144531 579.09667969 C217.38812801 581.35664782 214.6413287 583.70963678 211.88378906 586.07324219 C192.31181738 602.36640418 170.24505613 614.96242523 147.50878906 626.26074219 C146.68717285 626.67066406 145.86555664 627.08058594 145.01904297 627.50292969 C117.41050418 641.08781235 86.8635431 649.58954078 56.57128906 654.38574219 C54.9823584 654.64194336 54.9823584 654.64194336 53.36132812 654.90332031 C21.92843518 659.7302742 -13.16757034 659.75793739 -44.49121094 654.26074219 C-45.65749023 654.06206543 -46.82376953 653.86338867 -48.02539062 653.65869141 C-75.28157427 648.90718903 -101.09595201 641.21404163 -126.49121094 630.26074219 C-127.27109375 629.92606934 -128.05097656 629.59139648 -128.85449219 629.24658203 C-146.17080107 621.7155477 -163.15663101 612.28369086 -178.49121094 601.26074219 C-179.18633789 600.76493652 -179.88146484 600.26913086 -180.59765625 599.75830078 C-190.79687627 592.46128053 -200.65301572 584.91083776 -210.02001953 576.56884766 C-211.34092729 575.39436645 -212.67503027 574.23476543 -214.01074219 573.07714844 C-224.90215053 563.52233084 -235.48891899 553.27896564 -244.44042969 541.86621094 C-246.60867311 539.1115093 -248.88795663 536.47666842 -251.17871094 533.82324219 C-262.90954921 519.72437755 -272.68500421 504.3141621 -281.49121094 488.26074219 C-281.94061035 487.45620605 -282.39000977 486.65166992 -282.85302734 485.82275391 C-298.26336402 458.14537377 -309.25411979 428.29354187 -315.49121094 397.26074219 C-315.678125 396.33583984 -315.86503906 395.4109375 -316.05761719 394.45800781 C-318.4364537 382.505602 -320.22758791 370.5861503 -321.28637695 358.44482422 C-321.42227563 356.99577829 -321.57884868 355.54851418 -321.7565918 354.10400391 C-322.75233679 345.72055943 -322.6894192 337.31487397 -322.67871094 328.88574219 C-322.67843903 328.08361298 -322.67816711 327.28148376 -322.67788696 326.45504761 C-322.66010948 315.05370677 -322.37599307 303.81077306 -320.79882812 292.50195312 C-320.47831256 290.16676833 -320.20551508 287.82894771 -319.93652344 285.48730469 C-312.2130873 221.83295429 -284.41965297 160.58792416 -241.79492188 112.72753906 C-240.63304408 111.42031775 -239.48678093 110.09925585 -238.34277344 108.77636719 C-227.71742202 96.6447399 -216.24141002 85.14392723 -203.49121094 75.26074219 C-202.30667433 74.30126753 -201.12454199 73.33881993 -199.94433594 72.37402344 C-168.2578275 46.53267845 -131.58180844 26.42719149 -92.49121094 14.26074219 C-91.72083496 14.02049316 -90.95045898 13.78024414 -90.15673828 13.53271484 C-78.32328036 9.92246763 -66.32561758 7.30387084 -54.17871094 5.01074219 C-53.52337372 4.88586426 -52.8680365 4.76098633 -52.19284058 4.63232422 C-34.67835235 1.32317444 -17.82021008 -0.06963112 0 0 Z M-122.49121094 59.26074219 C-123.4731543 59.73382813 -124.45509766 60.20691406 -125.46679688 60.69433594 C-139.93304328 67.75290774 -153.3691155 75.95174493 -166.49121094 85.26074219 C-167.23516113 85.78700195 -167.97911133 86.31326172 -168.74560547 86.85546875 C-177.23719501 92.91402074 -185.11178723 99.39473599 -192.66699219 106.58496094 C-194.95788429 108.75544654 -197.27809905 110.83971169 -199.67871094 112.88574219 C-207.23777393 119.46022135 -213.9866969 126.60909694 -220.22558594 134.44042969 C-221.72406488 136.30577761 -223.25529003 138.1453304 -224.81933594 139.95605469 C-236.26678361 153.21293764 -245.86874909 168.03733346 -254.49121094 183.26074219 C-255.02343262 184.18959229 -255.02343262 184.18959229 -255.56640625 185.13720703 C-280.84305082 229.62636843 -291.63486627 279.25312122 -291.86621094 330.01074219 C-291.87826569 331.48154236 -291.87826569 331.48154236 -291.89056396 332.98205566 C-292.00765001 351.81911099 -290.15265763 370.29212277 -286.05371094 388.69824219 C-285.72632935 390.20100708 -285.72632935 390.20100708 -285.39233398 391.73413086 C-284.95976135 393.70280361 -284.52230713 395.67041249 -284.07910156 397.63671875 C-283.57645207 399.88027221 -283.09943416 402.12690734 -282.63183594 404.37792969 C-269.86754469 461.33556895 -233.77214813 516.55693901 -189.49121094 554.26074219 C-188.65203125 554.9890625 -187.81285156 555.71738281 -186.94824219 556.46777344 C-127.0901229 607.57422287 -48.32413547 632.67591092 29.99316406 626.75292969 C51.77357903 624.79357547 73.75662682 621.28882994 94.50878906 614.26074219 C95.49862793 613.93509277 96.4884668 613.60944336 97.50830078 613.27392578 C138.10934623 599.83610006 174.46826493 579.35094634 206.05957031 550.48730469 C207.64427441 549.0466646 209.24502746 547.62340149 210.86425781 546.22167969 C223.15753607 535.51269014 233.72916778 523.26184343 243.50878906 510.26074219 C243.95818848 509.67357422 244.40758789 509.08640625 244.87060547 508.48144531 C273.97461326 470.44697753 293.76391083 424.20442033 301.19628906 376.88574219 C301.51436523 374.98308594 301.51436523 374.98308594 301.83886719 373.04199219 C304.28742385 357.74816821 304.74448866 342.4145509 304.75878906 326.94824219 C304.75979614 326.17681885 304.76080322 325.40539551 304.76184082 324.6105957 C304.7043044 258.64678707 281.16878101 193.44108886 239.50878906 142.26074219 C239.09097168 141.74672852 238.6731543 141.23271484 238.24267578 140.703125 C223.64352563 122.84205434 207.70004439 106.55381601 189.29589844 92.61523438 C188.11109765 91.71724602 186.93004389 90.81429082 185.75292969 89.90625 C162.56091495 72.02960823 136.48878348 58.62589433 109.18164062 48.27539062 C106.99913464 47.4468836 104.82668021 46.59910969 102.65722656 45.73730469 C81.14489191 37.51969753 58.22250788 34.23028428 35.50878906 31.26074219 C34.64543945 31.14657959 33.78208984 31.03241699 32.89257812 30.91479492 C-19.45529973 24.8185169 -75.49949936 36.55705437 -122.49121094 59.26074219 Z " fill="#010100" transform="translate(783.4912109375,115.7392578125)"/>
<path d="M0 0 C11.59125 -0.061875 23.1825 -0.12375 35.125 -0.1875 C40.57217529 -0.22846802 40.57217529 -0.22846802 46.12939453 -0.27026367 C50.63647461 -0.28381348 50.63647461 -0.28381348 52.76046753 -0.28633118 C54.21321385 -0.2908746 55.66595041 -0.30129045 57.11862183 -0.31672668 C78.15956227 -0.52872 98.26918892 4.4873608 114.1875 19.08984375 C123.06373678 28.44432604 127.42650225 39.68259033 127.26953125 52.42578125 C126.3648741 64.42232176 121.24438315 73.85318534 112.75 82.21484375 C102.00198286 91.42490449 89.58333111 95.98867749 76 99 C75.25353714 99.17764389 74.50707428 99.35528778 73.73799133 99.53831482 C70.42398624 100.09712851 67.27648649 100.11949642 63.91479492 100.11352539 C63.21042706 100.11364593 62.50605921 100.11376646 61.78034687 100.11389065 C59.51368804 100.11314778 57.24711275 100.10554824 54.98046875 100.09765625 C53.57572469 100.09618489 52.17098007 100.09516537 50.76623535 100.09460449 C45.57331518 100.08937411 40.38040676 100.07541285 35.1875 100.0625 C23.575625 100.041875 11.96375 100.02125 0 100 C0 67 0 34 0 0 Z " fill="#030300" transform="translate(167,688)"/>
<path d="M0 0 C1.70957343 0.30373453 3.4192051 0.6071415 5.12890625 0.91015625 C69.71564582 12.97057936 127.28221974 44.8069916 175 89.3125 C176.04148193 90.28098877 176.04148193 90.28098877 177.10400391 91.26904297 C181.1311409 95.06850418 184.86449456 99.0127489 188.46777344 103.21606445 C190.296295 105.34496934 192.20978289 107.38658937 194.125 109.4375 C200.56070329 116.58342522 206.2762521 124.28176699 212 132 C212.51498047 132.69013184 213.02996094 133.38026367 213.56054688 134.09130859 C221.49418798 144.78436606 228.27373156 155.9531427 234.68505859 167.61669922 C235.81996939 169.67369871 236.97604249 171.71589644 238.14453125 173.75390625 C277.82585563 244.79236679 287.08683843 335.67201403 265.13671875 413.81640625 C259.39752392 433.43091697 252.99994604 452.62752506 244 471 C243.49388184 472.0533252 243.49388184 472.0533252 242.97753906 473.12792969 C228.21253352 503.8535461 209.10121231 533.42629153 184.62939453 557.33984375 C182.92768105 559.07368427 181.36755257 560.88429224 179.8125 562.75 C175.00013953 568.31261712 169.50855779 573.14618892 164 578 C163.48663086 578.4527832 162.97326172 578.90556641 162.44433594 579.37207031 C122.11918409 614.70434171 74.59852569 638.06630134 23 652 C22.24879883 652.20463867 21.49759766 652.40927734 20.72363281 652.62011719 C11.5221166 655.08273689 2.21831137 656.70691842 -7.1875 658.1875 C-8.24437012 658.35467529 -9.30124023 658.52185059 -10.39013672 658.6940918 C-25.94731353 661.03236655 -41.42585223 661.23966631 -57.125 661.25 C-58.18770111 661.25100708 -59.25040222 661.25201416 -60.3453064 661.25305176 C-82.79052705 661.23869047 -104.67396603 659.90932077 -126.56396484 654.58886719 C-129.23145801 653.94404924 -131.90623483 653.3359609 -134.58203125 652.7265625 C-166.23046019 645.34828891 -195.89009449 633.22303252 -224 617 C-224.79245117 616.54512207 -225.58490234 616.09024414 -226.40136719 615.62158203 C-246.55563735 603.95937538 -264.83388764 589.68358448 -282 574 C-283.36898437 572.78763672 -283.36898437 572.78763672 -284.765625 571.55078125 C-297.30137731 560.33899208 -308.60205331 548.07486408 -318.73681641 534.65722656 C-319.97485861 533.0329841 -321.23782168 531.43215785 -322.51171875 529.8359375 C-343.9129207 502.88425731 -359.49273405 471.84192588 -371.06738281 439.57470703 C-371.83949511 437.44311114 -372.63649124 435.32653172 -373.4609375 433.21484375 C-386.29915766 399.56562339 -390.10162932 362.44613966 -390.25 326.6875 C-390.2554483 325.89351807 -390.26089661 325.09953613 -390.26651001 324.28149414 C-390.32563 312.71852119 -389.4922906 301.46209714 -388 290 C-387.81945068 288.51777954 -387.81945068 288.51777954 -387.63525391 287.00561523 C-378.0431074 209.49294 -340.22492928 132.43910912 -280.390625 81.0546875 C-278.59628661 79.5124947 -276.81757791 77.95208625 -275.046875 76.3828125 C-259.24820016 62.4622358 -242.15596821 50.63297846 -224 40 C-223.13568359 39.49227051 -222.27136719 38.98454102 -221.38085938 38.46142578 C-188.68442857 19.45769369 -153.0261199 7.28079911 -116 0 C-114.86014648 -0.2259082 -113.72029297 -0.45181641 -112.54589844 -0.68457031 C-76.39032815 -7.45009956 -36.07503154 -6.98246367 0 0 Z M-114 4 C-115.72404053 4.32145996 -115.72404053 4.32145996 -117.48291016 4.64941406 C-143.42815356 9.52812823 -167.89602792 17.27626454 -192 28 C-192.77633789 28.33999023 -193.55267578 28.67998047 -194.35253906 29.03027344 C-211.03234488 36.36819605 -227.14750744 45.43732818 -242 56 C-242.5578418 56.39477539 -243.11568359 56.78955078 -243.69042969 57.19628906 C-268.40458837 74.75740669 -292.30057134 95.01522299 -311 119 C-311.90186092 120.09239966 -312.80701284 121.18208784 -313.71484375 122.26953125 C-343.67847719 158.41478819 -365.61927744 202.58493288 -376.34863281 248.23681641 C-377.00017733 251.00075224 -377.68180264 253.75600231 -378.3671875 256.51171875 C-384.05487598 279.85757534 -386.22171673 303.44681822 -386.1875 327.4375 C-386.18689575 328.22546967 -386.1862915 329.01343933 -386.18566895 329.82528687 C-385.99727609 420.75585749 -347.3433547 503.91375388 -283.54785156 567.63745117 C-278.30569791 572.80040012 -272.79972127 577.47242468 -267 582 C-265.813181 582.96247715 -264.62841129 583.92748479 -263.4453125 584.89453125 C-218.48349421 621.54471513 -165.0385938 644.50941415 -108 654 C-107.03336426 654.16661133 -106.06672852 654.33322266 -105.07080078 654.50488281 C-89.48535859 657.08597953 -73.94530439 657.28453406 -58.1875 657.3125 C-57.19674469 657.31617584 -56.20598938 657.31985168 -55.18521118 657.32363892 C-37.03839924 657.35877184 -19.16369684 656.09832965 -1.25 653.125 C-0.29480469 652.97675781 0.66039062 652.82851563 1.64453125 652.67578125 C16.77135112 650.22439937 31.31241152 646.20893024 45.8125 641.3125 C46.59681396 641.04955139 47.38112793 640.78660278 48.18920898 640.51568604 C59.67676874 636.65157724 70.88914693 632.49824518 81.76220703 627.10644531 C84.12952751 625.93595694 86.5141881 624.80699817 88.90234375 623.6796875 C114.97212537 611.20448405 139.51713671 594.61507605 160.79296875 575.0234375 C162.72130517 573.25551137 164.68847978 571.56153954 166.6875 569.875 C176.16026975 561.59595326 185.12559537 552.53783965 192.90625 542.65234375 C195.13671932 539.82680519 197.46926946 537.10753308 199.8125 534.375 C230.67003509 497.27929038 253.39718283 450.89559771 263.41455078 403.72509766 C264.01766465 400.91777615 264.66225021 398.12187475 265.30859375 395.32421875 C283.8520485 312.38427871 266.12394097 223.47853717 221 152 C203.60978767 125.03719372 181.97060226 98.14445143 156.72265625 78.1640625 C153.87933895 75.90409437 151.13253964 73.5511054 148.375 71.1875 C135.49865856 60.46827762 121.4457442 51.44058495 107 43 C106.23381348 42.5477002 105.46762695 42.09540039 104.67822266 41.62939453 C40.77098988 4.16286493 -41.21716708 -10.35770041 -114 4 Z " fill="#D9BF00" transform="translate(847,116)"/>
<path d="M0 0 C12.33375 -0.0825 24.6675 -0.165 37.375 -0.25 C41.23106934 -0.28641602 45.08713867 -0.32283203 49.06005859 -0.36035156 C53.86645508 -0.37841797 53.86645508 -0.37841797 56.13540649 -0.3817749 C57.67882946 -0.38781081 59.22223686 -0.40164935 60.76553345 -0.42230225 C78.15216892 -0.64279901 97.11844247 1.11664076 110.53125 13.390625 C115.42407248 18.75190921 117.40734247 24.58497537 117.2734375 31.7890625 C116.46627101 38.31558013 113.08854588 43.90788971 108.29296875 48.3046875 C90.78613107 61.24841417 71.38044075 60.40674761 50.625 60.1875 C48.13542476 60.1724264 45.64584069 60.15874273 43.15625 60.14648438 C37.10376719 60.11626226 31.05252843 60.05750115 25 60 C25 73.53 25 87.06 25 101 C16.75 101 8.5 101 0 101 C0 67.67 0 34.34 0 0 Z " fill="#040300" transform="translate(167,492)"/>
<path d="M0 0 C1.03882324 0.1654834 2.07764648 0.3309668 3.14794922 0.50146484 C15.39901708 2.45470677 27.24147043 5.03364025 39 9 C40.40572266 9.47397217 40.40572266 9.47397217 41.83984375 9.95751953 C99.7523088 29.71968714 150.88146593 63.94431609 188 113 C188.4522998 113.59006836 188.90459961 114.18013672 189.37060547 114.78808594 C220.52641881 155.51073582 239.45942085 203.49712954 247 254 C247.12004395 254.78681152 247.24008789 255.57362305 247.36376953 256.38427734 C249.09431603 268.28146215 249.17826873 280.1900785 249.1875 292.1875 C249.18858765 292.94259857 249.18967529 293.69769714 249.1907959 294.47567749 C249.18818707 310.47411873 248.46916321 326.18712491 245.875 342 C245.76806824 342.65787506 245.66113647 343.31575012 245.55096436 343.99356079 C243.36413004 357.2914518 240.10520192 370.16455073 236 383 C235.71898437 383.88187988 235.43796875 384.76375977 235.1484375 385.67236328 C223.91539097 420.36226807 207.04568313 452.68779934 184 481 C183.37327393 481.77102051 183.37327393 481.77102051 182.73388672 482.55761719 C167.62297035 501.04479914 151.07275664 517.62844647 132 532 C131.34467285 532.50112305 130.6893457 533.00224609 130.01416016 533.51855469 C88.00350634 565.52762156 39.08167827 584.12339617 -13 591 C-13.83321777 591.11859375 -14.66643555 591.2371875 -15.52490234 591.359375 C-72.05356385 599.31815575 -131.27476322 587.18700259 -182 562 C-182.8353125 561.59313965 -183.670625 561.1862793 -184.53125 560.76708984 C-207.63781255 549.45913065 -229.52743233 534.42245344 -248.171875 516.6796875 C-250.48480012 514.488159 -252.82851162 512.38125188 -255.25 510.3125 C-262.40925709 504.10278648 -268.91960733 497.25948023 -275 490 C-275.44827148 489.47083984 -275.89654297 488.94167969 -276.35839844 488.39648438 C-293.46697376 468.13195826 -307.69061138 445.98252289 -319 422 C-319.49064941 420.96286865 -319.49064941 420.96286865 -319.99121094 419.90478516 C-330.55641738 397.367396 -337.86888307 374.3234288 -342.6875 349.9375 C-342.89012451 348.92204102 -343.09274902 347.90658203 -343.30151367 346.86035156 C-346.51397606 329.93629024 -347.37715937 313.26189346 -347.3125 296.0625 C-347.31034485 295.02919556 -347.3081897 293.99589111 -347.30596924 292.93127441 C-347.14557032 244.91729435 -336.18918089 199.5261791 -313.97509766 156.87646484 C-312.99613756 154.99256717 -312.03477552 153.10036612 -311.07421875 151.20703125 C-295.27658087 120.4272971 -271.33757098 91.3638322 -245 69 C-244.16210938 68.27296875 -243.32421875 67.5459375 -242.4609375 66.796875 C-175.77207956 9.84495775 -86.19994953 -14.49088995 0 0 Z M-114 7 C-114.82258301 7.18820313 -115.64516602 7.37640625 -116.49267578 7.5703125 C-157.52307821 17.02613791 -197.21242164 35.42619657 -230 62 C-230.9178125 62.72574219 -231.835625 63.45148438 -232.78125 64.19921875 C-249.23369297 77.36590084 -265.13224973 92.29603798 -278 109 C-279.00319572 110.26358527 -280.00715842 111.52656184 -281.01171875 112.7890625 C-308.53314995 147.70123321 -327.91567603 188.46747506 -337 232 C-337.15162598 232.70721191 -337.30325195 233.41442383 -337.45947266 234.14306641 C-341.62443872 253.60294713 -343.21110621 272.46514087 -343.1875 292.3125 C-343.18689575 293.24685883 -343.1862915 294.18121765 -343.18566895 295.14389038 C-343.06744151 362.44485647 -320.90647418 427.66207174 -278 480 C-277.54399414 480.55751953 -277.08798828 481.11503906 -276.61816406 481.68945312 C-264.21814133 496.72937324 -250.50096755 511.13883271 -235 523 C-233.45803617 524.27047276 -231.91637648 525.54131472 -230.375 526.8125 C-186.22290032 561.81534198 -132.88220697 582.43983518 -77 588 C-75.73506714 588.14139404 -75.73506714 588.14139404 -74.44458008 588.28564453 C-66.16081116 589.15239733 -57.88252534 589.24334308 -49.5625 589.25 C-48.41690613 589.25101212 -48.41690613 589.25101212 -47.24816895 589.25204468 C17.42128928 589.16213729 82.64056014 566.72473365 133 526 C134.51787109 524.79923828 134.51787109 524.79923828 136.06640625 523.57421875 C151.76028491 511.00572133 166.64079 496.87310304 179 481 C180.06632618 479.6837749 181.13415176 478.3687637 182.203125 477.0546875 C202.09628308 452.36481462 216.48646691 424.43966689 228 395 C228.27424805 394.30583984 228.54849609 393.61167969 228.83105469 392.89648438 C235.32425854 376.29982028 238.79001501 359.03502237 241.59765625 341.49658203 C241.93550557 339.40019421 242.29351133 337.30706858 242.65625 335.21484375 C254.87140913 262.73224508 234.12236771 184.49257156 192 125 C186.1284667 116.7966627 180.12766418 108.78528543 173.23046875 101.40625 C171.34778363 99.37519215 169.53222994 97.31036784 167.72265625 95.21484375 C158.4214217 84.55399742 148.22724135 74.61003012 137 66 C135.71424583 64.98643512 134.42913876 63.97204904 133.14453125 62.95703125 C105.18675796 41.03293554 74.58339892 25.38888574 41 14 C39.76507812 13.57847656 38.53015625 13.15695313 37.2578125 12.72265625 C-11.07041351 -2.90556229 -64.66362206 -4.57738594 -114 7 Z " fill="#D8BF00" transform="translate(839,150)"/>
<path d="M0 0 C10.89 0 21.78 0 33 0 C34.93875 3.898125 36.8775 7.79625 38.875 11.8125 C43.10641847 20.2921387 47.38841507 28.73642279 51.83959961 37.10302734 C54.6830635 42.46261767 57.47011764 47.84927179 60.234375 53.25 C60.80489845 54.36436935 60.80489845 54.36436935 61.38694763 55.50125122 C62.17326493 57.0372991 62.95955505 58.57336089 63.74581909 60.10943604 C64.33570114 61.2618277 64.33570114 61.2618277 64.9375 62.4375 C65.32777374 63.20012146 65.71804749 63.96274292 66.12014771 64.74847412 C71.24733236 74.7583557 76.45181489 84.70861918 82.00366211 94.49194336 C85 99.80447616 85 99.80447616 85 102 C76.42 102 67.84 102 59 102 C56.586875 97.483125 56.586875 97.483125 54.125 92.875 C53.6211377 91.93769043 53.11727539 91.00038086 52.59814453 90.03466797 C51.99655518 88.89989014 51.99655518 88.89989014 51.3828125 87.7421875 C50.97434082 86.9776123 50.56586914 86.21303711 50.14501953 85.42529297 C48.86521143 82.71450115 47.94796103 79.84388308 47 77 C24.89 77 2.78 77 -20 77 C-20.66 78.98 -21.32 80.96 -22 83 C-22.75526049 84.59973512 -23.5492048 86.18184489 -24.3828125 87.7421875 C-24.82753906 88.58007812 -25.27226562 89.41796875 -25.73046875 90.28125 C-26.19066406 91.1371875 -26.65085938 91.993125 -27.125 92.875 C-27.59292969 93.75414062 -28.06085938 94.63328125 -28.54296875 95.5390625 C-29.69119108 97.6949085 -30.84503492 99.8477588 -32 102 C-38.27 102 -44.54 102 -51 102 C-49.42697068 97.28091204 -47.66372418 93.04874599 -45.4375 88.64453125 C-44.91635117 87.60237709 -44.91635117 87.60237709 -44.38467407 86.53916931 C-43.26064347 84.29481329 -42.13056679 82.05356964 -41 79.8125 C-40.22040422 78.26015951 -39.44094518 76.70775035 -38.66162109 75.15527344 C-34.35068109 66.58243904 -29.9809901 58.04531111 -25.46679688 49.57739258 C-21.89300181 42.85826212 -18.51002456 36.04862089 -15.12597656 29.23242188 C-10.83955162 20.62285744 -6.3768543 12.11096031 -1.85693359 3.62207031 C-1.22315982 2.42241421 -0.60676914 1.21353829 0 0 Z " fill="#040400" transform="translate(203,296)"/>
<path d="M0 0 C8.25 0 16.5 0 25 0 C25 18.81 25 37.62 25 57 C31.12350719 51.70758834 31.12350719 51.70758834 36.8125 46.125 C39.76591108 43.12571069 42.83967436 40.44364659 46.125 37.8125 C50.65984662 34.17326982 54.9476849 30.34791823 59.1875 26.375 C59.79158691 25.80894043 60.39567383 25.24288086 61.01806641 24.65966797 C61.60378418 24.11068848 62.18950195 23.56170898 62.79296875 22.99609375 C66.44987474 19.56912877 70.19167764 16.25755969 74 13 C75.18626543 11.98315167 76.37245589 10.96621588 77.55859375 9.94921875 C79.48525426 8.29748237 81.41245202 6.64640318 83.34179688 4.99780273 C86.23704077 2.57154669 86.23704077 2.57154669 89 0 C90.70772358 -0.08713831 92.41898649 -0.10700007 94.12890625 -0.09765625 C95.68061523 -0.09282227 95.68061523 -0.09282227 97.26367188 -0.08789062 C98.35228516 -0.07951172 99.44089844 -0.07113281 100.5625 -0.0625 C102.2012207 -0.05573242 102.2012207 -0.05573242 103.87304688 -0.04882812 C106.58208495 -0.03699826 109.29101599 -0.02051543 112 0 C108.62067548 4.0635441 105.23541662 7.88441699 101.25 11.375 C100.39148438 12.13296875 99.53296875 12.8909375 98.6484375 13.671875 C97.77445312 14.44015625 96.90046875 15.2084375 96 16 C94.28985022 17.53965146 92.58148489 19.08128752 90.875 20.625 C86.61835815 24.4573247 82.32388073 28.24377959 78 32 C79.31519205 35.56230739 80.8873659 38.58428707 82.984375 41.74609375 C83.8820459 43.10903564 83.8820459 43.10903564 84.79785156 44.49951172 C85.76416504 45.95381592 85.76416504 45.95381592 86.75 47.4375 C88.11564257 49.51102151 89.48019969 51.58525827 90.84375 53.66015625 C91.88402344 55.24207764 91.88402344 55.24207764 92.9453125 56.85595703 C96.6792377 62.56953696 100.32685876 68.33758887 103.97802734 74.10424805 C106.73208288 78.44949177 109.50111636 82.78260126 112.3203125 87.0859375 C112.8369043 87.87564941 113.35349609 88.66536133 113.88574219 89.47900391 C114.85380923 90.95522679 115.82561511 92.42900696 116.80175781 93.89990234 C120 98.77995782 120 98.77995782 120 101 C111.10515175 102.51203697 101.73332497 103.80038063 93 101 C86.43135046 95.68750655 83.06101836 87.59970817 79.52294922 80.10791016 C77.38291717 75.74070785 74.7820474 71.77216403 72.0625 67.75 C71.19084031 66.41397731 70.32097755 65.07678011 69.453125 63.73828125 C66.00310013 58.46922667 62.51441854 53.22631296 59 48 C55.55220914 49.50006391 53.17639467 51.50409262 50.4375 54.0625 C46.03207353 58.10459233 41.49689459 61.92095542 36.8359375 65.6640625 C35.90007812 66.43492187 34.96421875 67.20578125 34 68 C32.96987793 68.67252808 32.96987793 68.67252808 31.91894531 69.35864258 C28.39001781 71.89373292 26.32173295 73.68391718 25.26708984 77.99804688 C24.98970257 81.50113885 24.94249957 84.92422347 25 88.4375 C24.98839844 89.64599609 24.97679687 90.85449219 24.96484375 92.09960938 C24.94139136 95.0663367 24.96592535 98.03337567 25 101 C16.75 101 8.5 101 0 101 C0 67.67 0 34.34 0 0 Z " fill="#040400" transform="translate(167,101)"/>
<path d="M0 0 C51.73037791 0 51.73037791 0 65.87109375 13.6640625 C73.3037617 21.81954037 75.38652567 29.58422407 75.1796875 40.53515625 C74.67493981 50.26800853 71.90030512 58.53049094 64.51171875 65.26953125 C44.74473404 80.33941068 25.84094377 77 0 77 C0 51.59 0 26.18 0 0 Z " fill="#DD0200" transform="translate(192,699)"/>
<path d="M0 0 C10.89 0 21.78 0 33 0 C33 16.5 33 33 33 50 C41.96288377 42.70136169 41.96288377 42.70136169 50.5 35 C54.37161659 31.36745013 58.28935456 27.88223461 62.4375 24.5625 C67.47099391 20.52245883 72.18685134 16.20584149 76.87866211 11.77954102 C77.99933787 10.72330781 79.13245274 9.6801363 80.27685547 8.6496582 C82.05077635 7.02362147 82.05077635 7.02362147 83.55517578 5.05932617 C86.67321386 1.54831406 89.33333271 -0.1146157 94.00854492 -0.55273438 C98.84535609 -0.77469974 103.66423387 -0.61161386 108.5 -0.4375 C110.19785239 -0.40234409 111.89577479 -0.3704126 113.59375 -0.34179688 C117.73091013 -0.26509782 121.86467752 -0.14455837 126 0 C125.21085205 0.78842285 124.4217041 1.5768457 123.60864258 2.38916016 C122.1540418 3.84498615 120.70229175 5.30372931 119.26171875 6.7734375 C115.74613612 10.35008484 112.10712494 13.70375395 108.30859375 16.9765625 C104.94518351 19.92452613 101.66626229 22.96284035 98.38793945 26.00488281 C95.01279429 29.12179236 91.54765537 32.08397467 88 35 C88.62268987 38.08381789 89.64193567 40.30669084 91.3359375 42.94921875 C91.81708008 43.70541504 92.29822266 44.46161133 92.79394531 45.24072266 C93.31569336 46.04815918 93.83744141 46.8555957 94.375 47.6875 C95.18855957 48.96052979 95.18855957 48.96052979 96.01855469 50.25927734 C97.67273561 52.84363397 99.33489657 55.42267002 101 58 C101.45729492 58.70882324 101.91458984 59.41764648 102.38574219 60.14794922 C104.10646363 62.81344413 105.82979778 65.47722423 107.55639648 68.13891602 C111.50823929 74.23119356 115.44087644 80.33574031 119.3614502 86.44818115 C120.41259679 88.08619308 121.465554 89.72304265 122.51855469 91.35986328 C123.17114258 92.37806152 123.82373047 93.39625977 124.49609375 94.4453125 C125.07544678 95.34781738 125.6547998 96.25032227 126.25170898 97.18017578 C128.25392942 100.40956359 130.13120122 103.69175224 132 107 C99.65058926 110.12833698 99.65058926 110.12833698 91.18212891 105.43994141 C86.83030017 101.13816966 84.67027734 95.72440268 82.40380859 90.125 C79.75173237 84.22124771 75.9983363 78.94713119 72.4375 73.5625 C71.10106238 71.46078032 69.766316 69.35798385 68.43359375 67.25390625 C66.14713688 63.64687667 63.71284561 60.2997076 61 57 C54.28485157 62.37731421 47.81622575 67.89122957 41.5078125 73.73828125 C39 76 39 76 36.38745117 77.74780273 C33.75559191 79.81007469 33.75559191 79.81007469 33.34057617 82.93261719 C33.3170105 84.5979248 33.3170105 84.5979248 33.29296875 86.296875 C33.26485107 87.38323242 33.2367334 88.46958984 33.20776367 89.58886719 C33.20107666 90.96204102 33.19438965 92.33521484 33.1875 93.75 C33.125625 98.1225 33.06375 102.495 33 107 C22.11 107 11.22 107 0 107 C0 71.69 0 36.38 0 0 Z M4 3 C4 36.33 4 69.66 4 104 C12.25 104 20.5 104 29 104 C28.95875 99.895625 28.9175 95.79125 28.875 91.5625 C29.1156591 79.58384006 29.1156591 79.58384006 31.90625 74.5859375 C34.47779268 72.34804435 37.04508899 70.69366851 40 69 C41.85712413 67.52955752 43.69043659 66.02859131 45.5 64.5 C46.40363281 63.76910156 47.30726563 63.03820312 48.23828125 62.28515625 C52.61706191 58.66197848 56.81306622 54.84180691 61 51 C64.55035153 52.18345051 64.87765934 52.93832637 66.79296875 56.03125 C67.33332764 56.89306885 67.87368652 57.7548877 68.43041992 58.64282227 C69.01025635 59.58569092 69.59009277 60.52855957 70.1875 61.5 C71.43686998 63.4990918 72.68689695 65.49777311 73.9375 67.49609375 C74.59492188 68.5516748 75.25234375 69.60725586 75.9296875 70.69482422 C79.46990468 76.34664735 83.08232655 81.95197718 86.6875 87.5625 C88.02558312 89.64659407 89.36287669 91.73119537 90.69921875 93.81640625 C91.26471436 94.69756104 91.83020996 95.57871582 92.4128418 96.48657227 C94 99 94 99 95.31884766 101.79345703 C96.83722301 104.28997525 96.83722301 104.28997525 99.8190918 104.56762695 C100.93453369 104.54144287 102.04997559 104.51525879 103.19921875 104.48828125 C104.40771484 104.47216797 105.61621094 104.45605469 106.86132812 104.43945312 C108.12396484 104.39755859 109.38660156 104.35566406 110.6875 104.3125 C111.96173828 104.28994141 113.23597656 104.26738281 114.54882812 104.24414062 C117.7003896 104.18512262 120.84961279 104.10282975 124 104 C122.72842777 100.59968295 121.26887591 97.62818991 119.3046875 94.578125 C118.76166992 93.73000244 118.21865234 92.88187988 117.65917969 92.00805664 C117.07040039 91.09789795 116.48162109 90.18773926 115.875 89.25 C115.26043945 88.29279053 114.64587891 87.33558105 114.01269531 86.34936523 C112.69523857 84.29750419 111.37617518 82.24667402 110.05566406 80.19677734 C107.9846763 76.97617001 105.92436288 73.74897623 103.8671875 70.51953125 C96.69507651 59.26638571 89.47684399 48.05350733 82 37 C83.60481508 32.74419293 86.82160934 30.14110894 90.125 27.1875 C91.00841064 26.38530029 91.00841064 26.38530029 91.90966797 25.56689453 C95.55195694 22.26872734 99.23263761 19.01558885 102.9453125 15.796875 C105.65173874 13.43003836 108.33006353 11.03279416 111 8.625 C111.94875 7.77164063 112.8975 6.91828125 113.875 6.0390625 C114.57625 5.36617188 115.2775 4.69328125 116 4 C116 3.67 116 3.34 116 3 C101.99622543 1.18029463 101.99622543 1.18029463 89.08203125 5.203125 C86.0426076 7.84166319 83.5400862 10.88744028 81 14 C79.73903365 15.17953409 78.44987121 16.33022718 77.125 17.4375 C76.50367188 17.97761719 75.88234375 18.51773438 75.2421875 19.07421875 C73.43874839 20.62316558 71.63091498 22.16648652 69.8203125 23.70703125 C63.48801659 29.10075271 57.23106084 34.54799029 51.12695312 40.19946289 C48.37542762 42.74629495 45.59269707 45.24300174 42.75 47.6875 C39.20430218 50.75104226 35.9241206 54.03447317 32.6640625 57.3984375 C31 59 31 59 29 60 C29 41.19 29 22.38 29 3 C20.75 3 12.5 3 4 3 Z " fill="#DCC600" transform="translate(163,98)"/>
<path d="M0 0 C6.04699112 -0.06929913 12.09257494 -0.12890299 18.13964844 -0.16479492 C20.19177957 -0.17977516 22.24387927 -0.20016646 24.29589844 -0.22631836 C53.73612767 -0.59181293 53.73612767 -0.59181293 64 8 C67.22470547 11.62779366 67.52725597 15.08823514 67.34765625 19.7890625 C66.5987481 24.55178172 63.95696022 27.20253315 60.375 30.1875 C52.37520772 34.48368474 44.71452637 35.43524508 35.7421875 35.29296875 C34.71312286 35.28872391 33.68405823 35.28447906 32.62380981 35.28010559 C29.37392734 35.26346639 26.12469141 35.22584231 22.875 35.1875 C20.65625903 35.17243407 18.43750822 35.15874903 16.21875 35.14648438 C10.81205745 35.1161778 5.4067426 35.05742803 0 35 C0 23.45 0 11.9 0 0 Z " fill="#DD0700" transform="translate(191,504)"/>
<path d="M0 0 C1.64510941 0.00015915 3.29022379 0.00585551 4.93530273 0.01586914 C6.23164894 0.01799156 6.23164894 0.01799156 7.55418396 0.02015686 C10.32578941 0.025773 13.09731528 0.0383282 15.86889648 0.05102539 C17.74324428 0.05603831 19.61759334 0.06060158 21.49194336 0.06469727 C26.09679192 0.07574767 30.70158069 0.09302309 35.30639648 0.11352539 C42.13921095 12.40233855 48.71656832 24.78159874 54.95727539 37.38183594 C58.23960661 44.00239277 61.61166851 50.56304434 65.08056641 57.08740234 C68.03922518 62.66910562 70.94178577 68.27822872 73.82592773 73.89868164 C74.22813538 74.68235611 74.63034302 75.46603058 75.04473877 76.27345276 C77.08265731 80.24590727 79.11786492 84.21973284 81.15063477 88.19482422 C81.90954743 89.67555718 82.66849767 91.15627089 83.42749023 92.63696289 C83.77399124 93.31642471 84.12049225 93.99588654 84.47749329 94.69593811 C85.91437329 97.49636294 87.37640146 100.2252077 89.04882812 102.89331055 C90.30639648 105.11352539 90.30639648 105.11352539 90.30639648 108.11352539 C78.42639648 108.11352539 66.54639648 108.11352539 54.30639648 108.11352539 C51.89327148 103.31821289 51.89327148 103.31821289 49.43139648 98.42602539 C48.92753418 97.42740479 48.42367187 96.42878418 47.90454102 95.39990234 C47.30295166 94.20046997 47.30295166 94.20046997 46.68920898 92.97680664 C46.2807373 92.1651001 45.87226563 91.35339355 45.45141602 90.51708984 C44.29825703 88.09643948 43.30220313 85.603042 42.30639648 83.11352539 C22.83639648 83.44352539 3.36639648 83.77352539 -16.69360352 84.11352539 C-20.65360352 92.03352539 -24.61360352 99.95352539 -28.69360352 108.11352539 C-38.59360352 108.11352539 -48.49360352 108.11352539 -58.69360352 108.11352539 C-57.15246569 103.4901119 -55.59099475 99.72546549 -53.36938477 95.45336914 C-52.86819122 94.48441963 -52.86819122 94.48441963 -52.35687256 93.49589539 C-51.6279104 92.08769758 -50.89698905 90.68051262 -50.16433716 89.27423096 C-48.56612133 86.20648866 -46.97724321 83.13394299 -45.38792419 80.06158447 C-44.52864486 78.40050275 -43.66890236 76.73966055 -42.80873108 75.07904053 C-39.44143819 68.57417975 -36.10107156 62.05585117 -32.77172852 55.53149414 C-32.02181892 54.06204597 -32.02181892 54.06204597 -31.25675964 52.56291199 C-29.27949946 48.68738635 -27.3028718 44.81153961 -25.32754517 40.93502808 C-20.11587957 30.7092143 -14.87598541 20.49895849 -9.56469727 10.32446289 C-9.09113297 9.41467682 -8.61756866 8.50489075 -8.12965393 7.5675354 C-7.69370407 6.73499237 -7.25775421 5.90244934 -6.80859375 5.04467773 C-6.42340073 4.30776703 -6.0382077 3.57085632 -5.64134216 2.81161499 C-3.9203505 -0.27193347 -4.0068259 0.12315249 0 0 Z M-0.69360352 3.11352539 C-2.13735352 6.02165039 -3.58110352 8.92977539 -5.06860352 11.92602539 C-8.50673907 18.82548511 -12.01551284 25.68044508 -15.63110352 32.48852539 C-19.25483571 39.31424386 -22.75686027 46.19182082 -26.19360352 53.11352539 C-29.63035599 60.03524855 -33.13295789 66.91248479 -36.75610352 73.73852539 C-40.34834071 80.51561037 -43.86864411 87.32531264 -47.31860352 94.17602539 C-47.75696533 95.0398584 -48.19532715 95.90369141 -48.64697266 96.79370117 C-49.04650146 97.59146973 -49.44603027 98.38923828 -49.85766602 99.21118164 C-50.21296387 99.91766846 -50.56826172 100.62415527 -50.93432617 101.35205078 C-51.82554972 103.09994062 -51.82554972 103.09994062 -51.69360352 105.11352539 C-45.42360352 105.11352539 -39.15360352 105.11352539 -32.69360352 105.11352539 C-31.06291546 102.07478935 -29.43893216 99.0327792 -27.81860352 95.98852539 C-27.3584082 95.13258789 -26.89821289 94.27665039 -26.42407227 93.39477539 C-25.9793457 92.55688477 -25.53461914 91.71899414 -25.07641602 90.85571289 C-24.4637085 89.7088501 -24.4637085 89.7088501 -23.83862305 88.53881836 C-22.55881495 85.82802654 -21.64156454 82.95740847 -20.69360352 80.11352539 C1.41639648 80.11352539 23.52639648 80.11352539 46.30639648 80.11352539 C46.96639648 82.09352539 47.62639648 84.07352539 48.30639648 86.11352539 C49.06165697 87.71326051 49.85560129 89.29537028 50.68920898 90.85571289 C51.29079834 91.99049072 51.29079834 91.99049072 51.90454102 93.14819336 C52.40840332 94.08550293 52.91226563 95.0228125 53.43139648 95.98852539 C55.04014648 98.99977539 56.64889648 102.01102539 58.30639648 105.11352539 C66.88639648 105.11352539 75.46639648 105.11352539 84.30639648 105.11352539 C83.04577039 101.96196015 81.84275195 99.07180646 80.31030273 96.08374023 C79.92229492 95.3245932 79.53428711 94.56544617 79.13452148 93.78329468 C78.71686523 92.97188019 78.29920898 92.1604657 77.86889648 91.32446289 C77.20954102 90.03761093 77.20954102 90.03761093 76.53686523 88.72476196 C75.60318276 86.90361545 74.66842315 85.08302082 73.73266602 83.26293945 C72.33682539 80.54771644 70.94434601 77.83079282 69.55249023 75.11352539 C64.74799121 65.74455187 59.89457226 56.40341483 54.97828674 47.09263611 C50.50404036 38.61100046 46.12145739 30.08284876 41.74389648 21.55102539 C40.93082926 19.96830004 40.1176784 18.38561765 39.30444336 16.80297852 C33.55896248 5.61865737 33.55896248 5.61865737 32.30639648 3.11352539 C21.41639648 3.11352539 10.52639648 3.11352539 -0.69360352 3.11352539 Z " fill="#DCC200" transform="translate(203.693603515625,292.886474609375)"/>
<path d="M0 0 C12.766875 -0.12375 25.53375 -0.2475 38.6875 -0.375 C44.66556763 -0.45693604 44.66556763 -0.45693604 50.7644043 -0.54052734 C84.82801509 -0.81150172 84.82801509 -0.81150172 101 6 C102.19834473 6.47775879 103.39668945 6.95551758 104.63134766 7.44775391 C118.33930883 13.24560722 129.10618909 25.62061902 135 39 C139.28811659 49.82238948 137.41151621 61.53452616 133 72 C131.23875015 75.21850315 129.27497122 78.12550696 127 81 C126.23816406 81.9796875 125.47632813 82.959375 124.69140625 83.96875 C111.36124569 99.81591602 88.71850958 104.84593895 69.13226318 106.82335663 C63.02652355 107.32917525 56.90255835 107.24244559 50.78125 107.1953125 C48.82977051 107.19229126 48.82977051 107.19229126 46.83886719 107.18920898 C42.05920803 107.17888153 37.27959981 107.1509611 32.5 107.125 C21.775 107.08375 11.05 107.0425 0 107 C0 71.69 0 36.38 0 0 Z M5 3 C5 36 5 69 5 103 C22.0465625 103.12375 22.0465625 103.12375 39.4375 103.25 C42.98943115 103.28641602 46.5413623 103.32283203 50.20092773 103.36035156 C53.46185302 103.37375169 53.46185302 103.37375169 56.72279358 103.3817749 C58.14459789 103.38780765 59.56638542 103.40163909 60.98805237 103.42230225 C82.62257706 103.72026914 103.92520621 98.24686475 120.05859375 83.0625 C129.0635882 73.45717259 132.54107374 62.25334737 132.31640625 49.3125 C131.52237342 40.99966242 127.86080656 33.68539084 123 27 C122.35611328 26.10861328 122.35611328 26.10861328 121.69921875 25.19921875 C111.19496194 11.85437418 93.32908789 5.34327391 77 3 C74.57100054 2.91545457 72.13993931 2.88221063 69.70947266 2.88647461 C68.99507208 2.88635407 68.2806715 2.88623354 67.54462242 2.88610935 C65.25106986 2.88685081 62.95760037 2.89444382 60.6640625 2.90234375 C59.24047891 2.90381555 57.81689478 2.90483479 56.39331055 2.90539551 C51.13719873 2.91062083 45.88109854 2.9245821 40.625 2.9375 C28.86875 2.958125 17.1125 2.97875 5 3 Z " fill="#D0B900" transform="translate(162,685)"/>
<path d="M0 0 C13.179375 -0.061875 26.35875 -0.12375 39.9375 -0.1875 C44.0637085 -0.21481201 48.18991699 -0.24212402 52.44116211 -0.27026367 C57.56945801 -0.28381348 57.56945801 -0.28381348 59.98756409 -0.28633118 C61.63850854 -0.29086917 63.28944452 -0.30127287 64.94032288 -0.31672668 C73.82512029 -0.39557222 82.469432 -0.19428272 91.24438477 1.30737305 C91.91544471 1.42079701 92.58650465 1.53422098 93.27789974 1.65108204 C103.8799478 3.68990238 115.42528431 9.40528616 121.75 18.4375 C125.66015853 24.28387851 126.90920865 30.04858195 126 37 C123.50615576 45.78072104 117.88145327 52.41674626 110.25 57.25 C97.80435604 64.17889104 85.09364522 66.33573254 70.98828125 66.1953125 C69.34692451 66.19106766 69.34692451 66.19106766 67.67240906 66.18673706 C64.21898902 66.17565034 60.76584004 66.15056779 57.3125 66.125 C54.95377982 66.11495531 52.59505552 66.10583208 50.23632812 66.09765625 C44.49070005 66.07746072 38.74564909 66.03829015 33 66 C33 79.53 33 93.06 33 107 C22.11 107 11.22 107 0 107 C0 71.69 0 36.38 0 0 Z M4 3 C4 36.33 4 69.66 4 104 C12.25 104 20.5 104 29 104 C29 90.47 29 76.94 29 63 C32.6403125 63.04640625 36.280625 63.0928125 40.03125 63.140625 C43.6091981 63.17193876 47.18713016 63.19615914 50.76513672 63.21972656 C53.22647077 63.23967724 55.68775845 63.26684764 58.14892578 63.30175781 C77.58656575 63.57029896 98.64405128 63.7123834 114 49.6875 C118.2766481 44.94031605 121.1338955 39.38909558 121.4375 32.9375 C120.64900794 25.84107143 118.44014508 19.87082757 113 15 C101.70645156 6.00844662 87.51101941 2.81314973 73.25048828 2.88647461 C72.10454602 2.88629381 72.10454602 2.88629381 70.93545341 2.88610935 C68.48037607 2.8868514 66.02537614 2.89444716 63.5703125 2.90234375 C62.04744503 2.90381536 60.52457706 2.90483472 59.00170898 2.90539551 C53.37613157 2.91062295 47.75056501 2.92458422 42.125 2.9375 C23.253125 2.9684375 23.253125 2.9684375 4 3 Z " fill="#DEC800" transform="translate(163,489)"/>
<path d="M0 0 C2.22686426 2.81836359 3.94064615 5.63292943 5.54370117 8.84448242 C6.02397263 9.8019487 6.50424408 10.75941498 6.99906921 11.74589539 C7.50855606 12.7720546 8.01804291 13.79821381 8.54296875 14.85546875 C9.3356591 16.44153679 9.3356591 16.44153679 10.1443634 18.05964661 C11.25821385 20.29036456 12.37012301 22.52205276 13.48022461 24.75463867 C15.18727909 28.18705582 16.90075487 31.61620846 18.61523438 35.04492188 C19.69569112 37.21074866 20.77578203 39.37675799 21.85546875 41.54296875 C22.62880806 43.0913166 22.62880806 43.0913166 23.41777039 44.67094421 C23.88858536 45.61895401 24.35940033 46.56696381 24.84448242 47.54370117 C25.26179123 48.38213058 25.67910004 49.22056 26.10905457 50.08439636 C27 52 27 52 27 53 C9.51 53 -7.98 53 -26 53 C-25.10239575 48.51197875 -24.05708807 45.81391581 -21.97265625 41.8359375 C-21.66779297 41.24996292 -21.36292969 40.66398834 -21.04882812 40.06025696 C-20.05934861 38.16198584 -19.0610736 36.2685005 -18.0625 34.375 C-17.38089275 33.07165076 -16.6998244 31.76801956 -16.01928711 30.46411133 C-14.33296268 27.2368132 -12.6394118 24.01338018 -10.94287109 20.79144287 C-9.55275811 18.1502462 -8.16723699 15.50664483 -6.78125 12.86328125 C-4.52848608 8.57144816 -2.26742703 4.2841033 0 0 Z " fill="#DD0600" transform="translate(216,308)"/>
<path d="M0 0 C51.73037791 0 51.73037791 0 65.87109375 13.6640625 C73.3037617 21.81954037 75.38652567 29.58422407 75.1796875 40.53515625 C74.67493981 50.26800853 71.90030512 58.53049094 64.51171875 65.26953125 C44.74473404 80.33941068 25.84094377 77 0 77 C0 51.59 0 26.18 0 0 Z M4 3 C4 26.43 4 49.86 4 74 C34.68622352 75.31790483 34.68622352 75.31790483 60.953125 63.06640625 C68.64482723 55.30130991 70.37328352 47.23906217 70.45532227 36.71337891 C70.26335249 27.71849653 66.74737457 20.71516966 60.75 14.0625 C45.21271751 0.08914528 23.36506909 3 4 3 Z " fill="#DBC400" transform="translate(192,699)"/>
<path d="M0 0 C6.04699112 -0.06929913 12.09257494 -0.12890299 18.13964844 -0.16479492 C20.19177957 -0.17977516 22.24387927 -0.20016646 24.29589844 -0.22631836 C53.73612767 -0.59181293 53.73612767 -0.59181293 64 8 C67.22470547 11.62779366 67.52725597 15.08823514 67.34765625 19.7890625 C66.5987481 24.55178172 63.95696022 27.20253315 60.375 30.1875 C52.37520772 34.48368474 44.71452637 35.43524508 35.7421875 35.29296875 C34.71312286 35.28872391 33.68405823 35.28447906 32.62380981 35.28010559 C29.37392734 35.26346639 26.12469141 35.22584231 22.875 35.1875 C20.65625903 35.17243407 18.43750822 35.15874903 16.21875 35.14648438 C10.81205745 35.1161778 5.4067426 35.05742803 0 35 C0 23.45 0 11.9 0 0 Z M5 3 C5 12.57 5 22.14 5 32 C10.40793162 32.04609033 15.8151725 32.08586199 21.22314453 32.10986328 C23.06008218 32.11987648 24.89700407 32.13349102 26.73388672 32.15087891 C29.38513089 32.17533422 32.036163 32.18653013 34.6875 32.1953125 C35.49928711 32.20563507 36.31107422 32.21595764 37.14746094 32.22659302 C45.65611487 32.22824045 53.84104799 30.72116759 60.375 24.875 C62.65311448 20.84448977 62.76665008 17.52570854 62 13 C59.94604406 8.59866584 57.03576077 7.42838087 52.6875 5.75 C45.74609407 3.33387582 38.93735956 2.85085351 31.66015625 2.90234375 C30.50972084 2.90446617 30.50972084 2.90446617 29.33604431 2.90663147 C26.9114881 2.91218234 24.48702781 2.92472537 22.0625 2.9375 C20.40820447 2.94252136 18.75390747 2.94708315 17.09960938 2.95117188 C13.0663405 2.96128032 9.0332763 2.98086479 5 3 Z " fill="#CEBA00" transform="translate(191,504)"/>
<path d="M0 0 C2.22686426 2.81836359 3.94064615 5.63292943 5.54370117 8.84448242 C6.02397263 9.8019487 6.50424408 10.75941498 6.99906921 11.74589539 C7.50855606 12.7720546 8.01804291 13.79821381 8.54296875 14.85546875 C9.3356591 16.44153679 9.3356591 16.44153679 10.1443634 18.05964661 C11.25821385 20.29036456 12.37012301 22.52205276 13.48022461 24.75463867 C15.18727909 28.18705582 16.90075487 31.61620846 18.61523438 35.04492188 C19.69569112 37.21074866 20.77578203 39.37675799 21.85546875 41.54296875 C22.62880806 43.0913166 22.62880806 43.0913166 23.41777039 44.67094421 C23.88858536 45.61895401 24.35940033 46.56696381 24.84448242 47.54370117 C25.26179123 48.38213058 25.67910004 49.22056 26.10905457 50.08439636 C27 52 27 52 27 53 C9.51 53 -7.98 53 -26 53 C-25.10239575 48.51197875 -24.05708807 45.81391581 -21.97265625 41.8359375 C-21.66779297 41.24996292 -21.36292969 40.66398834 -21.04882812 40.06025696 C-20.05934861 38.16198584 -19.0610736 36.2685005 -18.0625 34.375 C-17.38089275 33.07165076 -16.6998244 31.76801956 -16.01928711 30.46411133 C-14.33296268 27.2368132 -12.6394118 24.01338018 -10.94287109 20.79144287 C-9.55275811 18.1502462 -8.16723699 15.50664483 -6.78125 12.86328125 C-4.52848608 8.57144816 -2.26742703 4.2841033 0 0 Z M-1 11 C-3.54772377 16.07074188 -6.09282532 21.14278789 -8.63549805 26.21606445 C-9.50098749 27.94201238 -10.36719438 29.66760072 -11.23413086 31.39282227 C-12.47958824 33.87161752 -13.72246601 36.35169133 -14.96484375 38.83203125 C-15.35341049 39.60400345 -15.74197723 40.37597565 -16.14231873 41.17134094 C-16.50261673 41.89186142 -16.86291473 42.6123819 -17.23413086 43.35473633 C-17.55167831 43.98761063 -17.86922577 44.62048492 -18.19639587 45.27253723 C-19.12188737 47.17662635 -19.12188737 47.17662635 -20 50 C-6.8 50 6.4 50 20 50 C18.49442935 45.48328806 16.96029499 41.67453544 14.84765625 37.46484375 C14.54685654 36.86370255 14.24605682 36.26256134 13.93614197 35.64320374 C13.30348482 34.38089209 12.66889856 33.11954561 12.0324707 31.85913086 C11.06455549 29.94157218 10.10309269 28.02088397 9.14257812 26.09960938 C5.39178073 18.36680586 5.39178073 18.36680586 1 11 C0.34 11 -0.32 11 -1 11 Z " fill="#D9C400" transform="translate(216,308)"/>
</svg>
