<svg xmlns="http://www.w3.org/2000/svg" xml:space="preserve" id="svg1" width="4608" height="3072" version="1.1" viewBox="0 0 1219.2 812.8"><defs id="defs1"><style id="style1">.cls-1{fill:#0283c0}.cls-2{fill:#fff}.cls-3{fill:#ef483f}</style></defs><path id="rect1" d="M 0 0 L 0 812.8 L 1219.2 812.8 L 1219.2 0 L 0 0 z" style="fill:#d00000;fill-rule:evenodd;stroke:none;stroke-width:8.46667;stroke-linecap:round;stroke-linejoin:round;fill-opacity:1"/><path id="path4" d="M 609.6,101.6 A 304.79999,304.79999 0 0 0 304.8,406.4 304.79999,304.79999 0 0 0 609.6,711.2 304.79999,304.79999 0 0 0 914.4,406.4 304.79999,304.79999 0 0 0 609.6,101.6 Z m 0,50.8 a 253.99999,253.99999 0 0 1 254,254 253.99999,253.99999 0 0 1 -254,254 253.99999,253.99999 0 0 1 -254,-254 253.99999,253.99999 0 0 1 254,-254 z" style="display:inline;fill:#000;fill-opacity:1;stroke:none;stroke-width:135.467;stroke-miterlimit:128;paint-order:stroke fill markers"/><path id="path8" d="M 609.6 114.3 A 292.09999 292.09999 0 0 0 317.5 406.4 A 292.09999 292.09999 0 0 0 609.6 698.5 A 292.09999 292.09999 0 0 0 901.7 406.4 A 292.09999 292.09999 0 0 0 609.6 114.3 z M 609.6 139.7 A 266.69999 266.69999 0 0 1 876.3 406.4 A 266.69999 266.69999 0 0 1 609.6 673.1 A 266.69999 266.69999 0 0 1 342.9 406.4 A 266.69999 266.69999 0 0 1 609.6 139.7 z" style="fill:#ffd000;fill-opacity:1;stroke:none;stroke-width:135.467;stroke-miterlimit:128;paint-order:stroke fill markers"/><path id="path2" d="m 688.96828,203.20207 c -8.10297,-0.0855 -17.15375,2.29044 -24.38972,0.39894 -13.02448,9.33448 -10.60232,40.1147 -34.34726,28.21223 -14.56047,-2.3475 -32.85586,8.16766 -35.56786,-11.95327 -16.73245,-19.27947 -36.5835,3.57272 -55.05297,5.6937 -14.02796,4.473 -30.83435,6.517 -42.47492,15.49157 -0.83157,0.64111 -1.63631,1.31768 -2.41226,2.03295 -0.77577,0.71509 -1.52269,1.46894 -2.23707,2.26497 0.003,2.50312 -0.83034,3.99568 -2.22984,4.86741 -0.933,0.58115 -2.11771,0.88619 -3.47421,1.03094 -7.46073,0.79612 -20.11842,-3.26177 -24.67963,7.03627 -13.73545,15.48895 2.90675,34.02576 20.4432,25.22378 12.98397,0.9795 -3.47257,18.85834 4.40542,27.27482 8.90398,21.09745 -6.64454,38.3401 -12.62352,57.44404 -8.99097,22.23445 -16.27087,46.7607 -10.23039,70.76364 2.019,22.54945 -3.56387,46.33965 6.8461,67.5721 6.13948,19.12045 17.00278,40.16999 38.35373,44.95798 19.30795,9.06748 40.91387,10.96511 61.93782,11.97911 20.12995,8.42399 42.59866,11.23038 64.1041,11.61738 17.66545,9.58497 21.84128,41.05945 48.6177,33.25947 26.53795,-1.7985 48.10043,-21.98109 57.9329,-45.74553 8.60847,-20.20495 27.04337,-40.94838 17.7059,-63.95682 -10.51497,-20.14195 -10.44441,-47.32977 -29.29486,-61.95022 -18.91195,-7.90497 -42.99292,-8.57388 -61.93937,0.12609 -15.21595,5.96098 -12.06745,33.37199 -32.8259,25.92452 -22.51344,-1.3575 -39.66293,17.52427 -60.64488,18.73477 -14.53645,-14.85297 -4.77478,-45.19489 -19.92023,-63.09434 -14.48247,-12.44247 0.44425,-32.29028 -3.08973,-49.09623 1.72048,-16.61095 -1.65461,-37.65903 11.50937,-49.98299 16.35595,-10.76997 45.92538,-16.73586 42.1349,-42.2088 -0.06,-9.67872 5.82188,-12.66869 13.32787,-13.80587 1.87648,-0.2843 3.85477,-0.45315 5.86682,-0.58136 6.03613,-0.38466 12.3783,-0.40647 17.20567,-2.10633 21.33445,1.60948 14.68541,29.43402 28.74036,41.16699 9.32098,19.83445 33.51884,10.92318 33.34784,-9.04027 7.20898,-26.82594 3.79324,-54.57461 0.83974,-81.71853 -3.855,-6.20998 -9.58332,-7.76561 -15.88482,-7.83311 z" style="display:inline;fill:#ffd000;fill-opacity:1"/><path id="path7" d="m 688.96828,203.20207 c -8.10297,-0.0855 -17.15375,2.29044 -24.38972,0.39894 -13.02448,9.33448 -10.60232,40.1147 -34.34726,28.21223 -14.56047,-2.3475 -32.85586,8.16766 -35.56786,-11.95327 -16.73245,-19.27947 -36.5835,3.57272 -55.05297,5.6937 -14.02796,4.473 -30.83435,6.517 -42.47492,15.49157 -0.83157,0.64111 -1.63631,1.31768 -2.41226,2.03295 -0.77577,0.71509 -1.52269,1.46894 -2.23707,2.26497 0.003,2.50312 -0.83034,3.99568 -2.22984,4.86741 -0.933,0.58115 -2.11771,0.88619 -3.47421,1.03094 -7.46073,0.79612 -20.11842,-3.26177 -24.67963,7.03627 -13.73545,15.48895 2.90675,34.02576 20.4432,25.22378 12.98397,0.9795 -3.47257,18.85834 4.40542,27.27482 8.90398,21.09745 -6.64454,38.3401 -12.62352,57.44404 -8.99097,22.23445 -16.27087,46.7607 -10.23039,70.76364 2.019,22.54945 -3.56387,46.33965 6.8461,67.5721 6.13948,19.12045 17.00278,40.16999 38.35373,44.95798 19.30795,9.06748 40.91387,10.96511 61.93782,11.97911 20.12995,8.42399 42.59866,11.23038 64.1041,11.61738 17.66545,9.58497 21.84128,41.05945 48.6177,33.25947 26.53795,-1.7985 48.10043,-21.98109 57.9329,-45.74553 8.60847,-20.20495 27.04337,-40.94838 17.7059,-63.95682 -10.51497,-20.14195 -10.44441,-47.32977 -29.29486,-61.95022 -18.91195,-7.90497 -42.99292,-8.57388 -61.93937,0.12609 -15.21595,5.96098 -12.06745,33.37199 -32.8259,25.92452 -22.51344,-1.3575 -39.66293,17.52427 -60.64488,18.73477 -14.53645,-14.85297 -4.77478,-45.19489 -19.92023,-63.09434 -14.48247,-12.44247 0.44425,-32.29028 -3.08973,-49.09623 1.72048,-16.61095 -1.65461,-37.65903 11.50937,-49.98299 16.35595,-10.76997 45.92538,-16.73586 42.1349,-42.2088 -0.06,-9.67872 5.82188,-12.66869 13.32787,-13.80587 1.87648,-0.2843 3.85477,-0.45315 5.86682,-0.58136 6.03613,-0.38466 12.3783,-0.40647 17.20567,-2.10633 21.33445,1.60948 14.68541,29.43402 28.74036,41.16699 9.32098,19.83445 33.51884,10.92318 33.34784,-9.04027 7.20898,-26.82594 3.79324,-54.57461 0.83974,-81.71853 -3.855,-6.20998 -9.58332,-7.76561 -15.88482,-7.83311 z m -9.43043,9.67072 3.06958,0.22273 3.00085,0.68316 c 14.75547,9.65774 11.78503,29.27647 9.8025,44.28515 -0.0557,12.70415 1.35949,44.65599 -18.88153,36.18436 -8.7712,-14.3611 -14.44448,-31.15386 -13.69012,-48.28129 0.59153,-12.54506 -1.55586,-33.84456 16.69872,-33.09411 z m -96.76515,7.81141 c 0.56092,-0.002 1.13745,0.0458 1.72496,0.15193 7.76004,3.30657 4.87816,10.64546 -2.63085,10.13065 -12.46456,1.19461 -7.50792,-10.24647 0.90589,-10.28258 z m -35.94716,12.5243 2.08772,0.72864 1.71721,0.77877 c 13.25638,14.39095 -23.74666,13.75413 -3.80493,-1.50741 z m -18.78025,4.43539 c 3.89554,0.11672 6.72845,3.45284 7.64914,6.99234 6.11319,25.77275 -29.70881,0.028 -7.64914,-6.99234 z m 93.34159,0.74983 c 1.11689,0.0345 2.33811,0.16557 3.66799,0.40669 5.17183,0.13976 10.28899,1.05162 15.46314,1.16375 21.58428,-3.45539 -0.19014,21.04706 -12.89844,15.80627 -16.2438,3.29708 -22.98601,-17.89383 -6.23269,-17.37671 z m -112.69132,7.34684 3.12695,1.52393 1.9792,1.66605 c 2.47872,19.4795 -24.65573,4.31835 -5.10615,-3.18998 z m 52.28208,0.0331 c 0.78135,4.27908 5.60184,5.13969 9.17361,4.46174 23.24397,-12.50452 30.97875,16.47443 25.28062,33.95659 -5.79686,20.56333 -30.06081,18.87755 -46.92013,19.36729 -18.61162,-1.69452 -1.43882,-33.08953 13.05915,-24.74526 10.48852,24.49204 37.47765,-8.63478 16.661,-20.17706 -7.11276,2.20322 -28.49242,-4.52698 -17.25425,-12.8633 z m 40.67556,12.75736 c 5.50696,7.09459 -8.23526,6.39049 0,0 z m -123.36146,4.10569 h 0.002 l 3.72122,0.5364 2.56987,1.61024 c 7.58811,18.66287 -28.43038,2.37098 -6.29264,-2.14664 z m 35.34926,2.35955 c 12.1035,7.01321 -1.92667,16.31615 0,0 z m -3.43235,20.02513 c 0.82029,0.0279 1.6909,0.10122 2.61328,0.22324 6.45289,1.85583 11.19005,8.8754 7.60057,15.3138 -12.9497,26.14744 -35.64279,-16.40213 -10.21385,-15.53704 z m 33.07395,29.02045 c -5.10596,10.64194 -13.77515,3.69839 0,0 z m -19.37401,2.44482 c 9.31129,2.85232 5.51769,12.03935 0.85266,17.09094 -12.29614,5.89636 2.29348,23.32618 -11.95431,19.15749 -1.12189,-9.03514 1.05967,-13.58795 -10.41952,-8.07238 -4.19853,-6.742 13.72409,-22.68436 21.52117,-28.17605 z m 19.78794,18.08985 c -2.75886,11.7459 -11.39915,2.8133 0,0 z m -7.55251,1.10587 c 0.93025,12.96359 -10.13746,8.43788 0,0 z m -2.44533,12.56978 c 9.73202,15.10272 5.65073,33.57828 2.75435,50.04087 -0.91616,20.22154 -9.77087,38.59503 -13.28859,58.28585 4.49873,15.66392 -1.13555,35.55574 5.97431,49.00218 15.43828,-9.00459 15.84128,-30.37508 18.92649,-46.25041 -12.61058,-5.53106 -2.428,-20.5174 -1.2764,-32.02234 7.76982,8.00271 8.84962,23.58614 11.86284,35.02991 1.80344,11.94079 0.9784,28.42359 -9.91929,35.24074 4.5709,13.76649 -20.78951,5.99436 -13.15269,20.33209 17.91234,16.20336 -17.97739,14.52844 -28.37966,13.7201 -14.0019,1.40646 -16.39664,-18.99849 -20.09231,-29.53257 -3.97137,-16.17136 -0.56566,-32.53626 3.82974,-48.14228 10.84164,-10.78748 13.3914,-25.18954 17.66248,-40.52517 8.36826,-21.69439 21.52812,-41.73662 25.09873,-65.17897 z m -32.98765,2.76004 c 7.35703,7.53659 -10.73057,3.65722 0,0 z m 6.47402,4.24366 c -9.59197,15.46954 -10.40819,1.75628 0,0 z m 7.18354,9.864 c -3.10796,10.50752 -15.93181,-0.64962 0,0 z m -23.70604,0.21291 c 12.55916,9.88113 -16.9334,5.21908 0,0 z m 19.20141,7.86877 c -5.79305,13.77474 -13.67237,0.89101 0,0 z m -19.1146,11.07478 c 4.38059,11.59037 -13.02307,1.85205 0,0 z m 10.80761,9.82059 c -3.42453,11.74273 -11.8218,5.01324 0,0 z m -13.28963,4.10052 c 2.64008,4.59683 2.35729,10.14059 2.39779,15.25178 0.82273,24.43312 -12.98956,-9.32555 -2.39779,-15.25178 z m 13.23537,4.11603 -1.03921,2.93264 c -7.27517,14.52655 -11.80852,-3.65057 1.03921,-2.93264 z m -8.06514,27.9709 c 16.22367,2.67546 -9.81316,8.14669 0,0 z m 189.68816,9.42888 0.62994,0.0388 3.90209,0.38034 c 13.96239,10.32761 -14.43283,7.25139 -4.53203,-0.4191 z m 33.30288,1.81023 c 21.16367,3.5686 -21.91918,8.4899 0,0 z m -50.06103,7.97419 c 16.60189,3.58453 -10.68975,13.73431 0,0 z m 33.2295,1.35754 c 12.27234,-0.67022 6.80437,11.91745 0,0 z m 28.01586,0.14676 2.70165,2.00659 1.56166,2.99 c -1.23734,11.30676 5.22606,10.35857 7.41091,17.46199 -13.72738,7.0588 -9.33215,-15.16421 -11.67422,-22.45858 z m -55.36509,4.66535 c 15.6354,7.53894 30.18997,20.36866 34.96065,37.59925 3.23871,25.70831 1.26271,52.67365 -7.46983,77.27074 8.07957,20.73013 -28.02735,41.8741 -38.21213,20.86022 17.69032,-0.21732 19.61064,-24.05241 26.64178,-37.72586 5.1169,-22.3314 6.21039,-46.58475 -0.48627,-68.75187 0.80664,-12.12204 -21.20441,-21.21246 -15.4342,-29.25248 z m 39.35728,0.69763 c 9.63664,0.5653 -0.37908,9.99899 -2.1978,0.0134 0.82538,-0.0495 1.55536,-0.0511 2.1978,-0.0134 z m -55.61211,15.34015 c 14.98412,-0.47732 30.37846,13.56934 17.36173,27.36525 -11.81044,-1.77297 -16.41103,11.27633 -29.64573,7.15254 -13.3708,-7.68408 -12.32105,11.72731 -22.51232,7.0466 -13.06358,-5.86253 -28.27324,-6.5603 -41.34528,-9.19428 15.94979,-12.53141 30.05756,-32.69197 53.10063,-32.01768 5.57667,0.17977 11.15899,0.39045 16.7287,0.78393 2.03982,-0.70409 4.17169,-1.06817 6.31227,-1.13636 z m 57.70294,1.32291 c 2.51346,4.32962 5.76868,8.16106 8.41292,12.40545 -0.50781,8.62641 14.03874,17.17532 2.13424,23.01772 -4.32137,-10.64069 -8.65568,-23.55036 -10.54716,-35.42317 z m 27.5115,11.09545 c 13.22305,5.14863 0.8497,15.74939 0,0 z m 3.89227,12.3362 c 14.6669,1.56464 -3.79267,12.21066 0,0 z m 4.90926,12.65866 c 3.324,2.31342 3.71744,7.12915 2.09393,10.58798 -8.69239,13.94127 -9.07649,-5.8858 -2.09393,-10.58798 z m -19.69751,1.56424 c 2.03877,6.38846 1.85914,13.27938 1.06816,19.86184 -6.43039,27.3163 -15.13245,-17.29308 -1.06816,-19.86184 z m -75.13649,3.86127 c 21.54306,1.96406 -20.58607,6.98952 0,0 z m -70.4355,3.77961 c 20.0984,7.01108 43.83121,2.745 61.95436,15.53239 18.02388,10.08559 -19.54141,12.41738 -7.13548,16.65169 15.46674,0.30724 0.94345,10.23804 -6.44922,9.00669 -17.94166,-1.40785 -35.46005,-7.43841 -52.82003,-12.44937 -10.96682,-6.89377 -37.11651,1.11898 -37.54913,-13.89838 13.17379,-6.93238 31.50714,-2.44536 41.9995,-14.84302 z m 156.84573,7.24814 c 3.62069,-0.0264 6.50753,3.71531 4.29844,7.10912 -8.8729,10.97882 -1.90062,-1.80482 -4.29844,-7.10912 z m -63.65555,11.67009 c 4.57972,7.53164 -10.16098,0.34723 0,0 z m -15.70499,0.85059 c 11.41012,4.07837 -8.2264,2.27086 0,0 z m -7.00474,1.55959 c 11.27855,3.54259 -9.47309,8.16477 0,0 z m 1.87793,6.97529 c 4.0865,7.96714 27.67519,0.073 21.63743,13.59142 -8.33687,8.6638 -35.57566,0.70608 -21.63743,-13.59142 z m 78.99414,3.19205 c 1.18385,1.6394 1.32498,4.18751 -0.37775,5.5423 -13.10698,6.40785 -6.86695,-1.27347 0.37775,-5.5423 z m -28.09751,3.60598 c 13.6648,0.21734 1.66204,13.72333 0,0 z m 19.37815,8.80205 c 6.83293,4.49845 -12.02464,18.5775 -15.66003,24.01869 -1.08294,-4.21144 6.94898,-21.81877 15.66003,-24.01869 z m -19.84944,3.61632 h 0.002 c 6.58656,5.23193 -10.79558,2.81784 -0.002,0 z m -39.23998,12.79043 c 6.37204,5.08719 -9.18616,2.42791 0,0 z" style="display:inline;fill:#000;fill-opacity:1"/></svg>