<svg xmlns="http://www.w3.org/2000/svg" xml:space="preserve" id="svg1" width="4608" height="3072" version="1.1" viewBox="0 0 1219.2 812.8"><defs id="defs1"><style id="style1">.cls-1{fill:#0283c0}.cls-2{fill:#fff}.cls-3{fill:#ef483f}</style></defs><path id="rect1" d="M 0 0 L 0 812.8 L 1219.2 812.8 L 1219.2 0 L 0 0 z" style="fill:#000;fill-rule:evenodd;stroke:none;stroke-width:8.46667;stroke-linecap:round;stroke-linejoin:round;fill-opacity:1"/><path id="path9" d="m 602.04088,135.46666 v 6.94253 h 15.11818 v -6.94253 z m -41.71579,12.64779 v 80.02054 h 15.14741 v -80.02054 z m 20.84989,0 v 80.02054 h 15.14741 v -80.02054 z m 20.85267,0 v 80.02054 h 15.14464 v -80.02054 z m 20.84989,0 v 80.02054 h 15.14463 v -80.02054 z m 20.8499,0 v 80.02054 h 15.14741 V 148.11445 Z M 560.32509,270.33818 V 484.24225 L 575.4725,451.91291 V 270.33818 Z m 20.84989,0 v 169.40318 l 15.14741,-32.32934 V 270.33818 Z m 20.85267,0 V 395.2356 l 15.14464,-32.32376 v -92.57366 z m 20.84989,0 v 80.39724 l 15.14463,-32.32376 v -48.07348 z m 20.8499,0 v 35.89634 l 15.14741,-32.32934 v -3.567 z m 15.14462,58.21816 -15.14462,32.32378 v 177.86357 h 15.14741 V 386.98477 a 2.8521684,2.8521684 0 0 1 -0.003,-0.007 z m -20.84989,44.50088 -15.14463,32.32378 v 133.36269 h 15.14463 z m -20.84988,44.50088 -15.14464,32.32378 v 88.8618 h 15.14464 z m -20.8499,44.5009 -15.14741,32.32934 v 44.35535 h 15.14741 z m -20.84989,44.50088 -15.07918,32.18381 h 15.07918 z m -15.14741,73.57027 v 84.55537 h 15.14741 v -84.55537 z m 20.84989,0 v 84.55537 h 15.14741 v -84.55537 z m 20.85267,0 v 84.55537 h 15.14464 v -84.55537 z m 20.84989,0 v 84.55537 h 15.14463 v -84.55537 z m 20.8499,0 v 84.55537 h 15.14741 v -84.55537 z m -41.68656,90.26063 v 6.94254 h 15.11818 v -6.94254 z" style="color:#000;display:inline;fill:#c0a060;stroke-width:1;stroke-linecap:round;stroke-linejoin:round;-inkscape-stroke:none"/><path id="path6" d="m 560.32509,233.83817 v 12.54684 h 98.54697 v -12.54684 z m 139.93413,15.36048 -20.79977,12.89427 c 7.8087,21.30278 8.9605,35.91958 5.25756,45.97907 -3.52481,9.57562 -11.47196,14.3532 -20.13969,16.52396 v 59.52367 l 69.54233,-0.11561 c 8.76385,-56.73185 -2.14416,-102.7075 -33.86043,-134.80539 z m -139.93413,2.88952 v 12.54684 h 98.54697 v -12.54684 z m 98.54697,35.26831 -98.54697,210.33148 v 27.75554 l 98.54697,-210.32941 z m -98.57343,257.09248 v 12.11026 h 96.35511 v -12.11026 z m 0,17.86845 v 12.11027 h 96.35511 v -12.11027 z" style="color:#000;display:inline;fill:#fff;stroke-width:1;stroke-linecap:round;stroke-linejoin:round;-inkscape-stroke:none"/></svg>