<svg xmlns="http://www.w3.org/2000/svg" xml:space="preserve" width="3072" height="2048" viewBox="0 0 812.8 541.867"><path fill="#e00000" d="M0 0h812.8v541.867H0Z" paint-order="stroke fill markers"/><path fill="#ffe000" d="M0 338.667v203.2h812.8v-203.2H0zm135.632-304.8c-13.041 3.357-26.018 8.505-38.038 15.406-26.806 15.391-48.697 37.942-56.846 61.302-8.31 23.82-9.786 47.078-.58 66.005 5.308 10.914 13.602 19.973 24.037 26.475L51.44 224.086l22.506 12.98 13.562-24.674a81.886 81.886 0 0 0 10.048 1.529c16.162 1.444 33.627-2.628 50.822-9.526l18.88 32.672 22.506-12.981-17.816-30.83-9.238-15.985-3.276-5.669c-7.335 2.705-14.679 4.935-22.016 6.594l8.827-15.276.468-.809h8.921l12.192-21.094h-8.923l8.055-13.937 5.239-9.064h-24.382l-13.293 23h-7.784l25.009-45.5 31.283 18.042 16.648-28.807-50.249-28.983c-15.918 10.188-28.023 5.033-43.272-1.72L99.58 65.425l10.429 6.016-49.307 85.317c-5.384-15.662-.978-39.25 9.138-59.826 10.952-22.279 31.533-46.223 61.637-61.127 1.375-.68 2.771-1.285 4.154-1.94zm-7.336 48.121 6.951 4.01-33.392 55.019h-7.672ZM63.104 162.11h25.95l-8.752 14.42c-7.52-3.193-13.45-7.945-17.178-14.382l-.02-.038zm52.04 0h7.187l-11.216 19.408c-2.246.045-4.449.026-6.602-.065z"/></svg>