<svg xmlns="http://www.w3.org/2000/svg" xml:space="preserve" id="svg1" width="4608" height="3072" version="1.1" viewBox="0 0 1219.2 812.8"><defs id="defs1"><filter id="a" width="1.0034896" height="1.0028084" x="-0.0017447922" y="-0.0014042149" color-interpolation-filters="sRGB"><feGaussianBlur id="feGaussianBlur1" stdDeviation=".364"/></filter><style id="style1">.cls-1{fill:#0283c0}.cls-2{fill:#fff}.cls-3{fill:#ef483f}</style></defs><path id="rect1" d="M 0 0 L 0 812.8 L 1219.2 812.8 L 1219.2 0 L 0 0 z" style="fill:#000;fill-rule:evenodd;stroke:none;stroke-width:8.46667;stroke-linecap:round;stroke-linejoin:round;fill-opacity:1"/><path id="path1" d="M 0,0 V 812.79994 L 1219.1999,0 Z" style="fill:#ffd000;stroke:none;stroke-width:16.9333;stroke-miterlimit:128;paint-order:stroke fill markers;fill-opacity:1"/><g id="g8" style="mix-blend-mode:normal;stroke-width:.500001" transform="matrix(1.9999951,0,0,1.9999951,-203.19801,-135.46467)"><path id="path3" fill="#0080c0" d="m 406.401,135.467 v 135.466 h 93.917 V 135.467 Z m 0,135.466 h -93.918 v 61.126 c 12.556,42.9 72.772,72.306 93.918,74.341 z" paint-order="markers fill stroke" style="stroke-width:.500001"/><path id="path4" fill="#e0e0e0" d="M 312.484,135.467 V 270.933 H 406.4 V 135.467 Z M 406.4,270.933 V 406.4 c 21.146,-2.035 81.362,-31.441 93.917,-74.341 v -61.125 z" paint-order="markers fill stroke" style="stroke-width:.500001"/><path id="path5" fill="#d91315" d="M 340.401,135.467 500.165,314.68 v 17.511 c -3.965,17.621 -23.802,36.707 -23.802,36.707 L 312.482,185.358 v -49.892 z" paint-order="markers fill stroke" style="stroke-width:.500001"/><path id="path6" fill="gray" d="m 117.647,49.27 -7.196,27.424 12.229,-12.363 -2.516,-7.53 z m -7.196,27.424 15.835,5.215 5.263,-5.943 5.264,-5.945 z m 0,0 -9.58,26.523 5.997,-4.697 5.997,-4.698 7.78,1.587 7.78,1.586 z m 0,0 -28.746,5.772 7.067,2.845 7.066,2.845 z m 0,0 -20.357,-21.202 1.069,7.543 1.069,7.543 z m 76.758,56.979 c -4.374,0.009 -7.968,2.17 -7.968,2.17 l 0.136,20.239 14.943,-20.033 c -2.315,-1.795 -4.82,-2.38 -7.111,-2.376 z m -7.832,22.409 23.826,7.415 c 3.086,-7.566 -4.734,-14.14 -4.734,-14.14 z m 0,0 0.417,25.055 c 7.653,-0.357 9.206,-5.022 11.658,-8.532 z m 0,0 -23.263,8.882 c 2.141,7.55 11.797,7.858 11.797,7.858 z m 0,0 -14.678,-19.79 c -7.329,4.37 -4.51,14.45 -4.51,14.45 z m 74.136,45.748 -7.196,27.424 12.229,-12.364 -2.517,-7.53 z m -7.196,27.424 15.835,5.215 5.263,-5.944 5.264,-5.944 z m 0,0 -9.58,26.523 5.997,-4.698 5.997,-4.697 7.78,1.586 7.78,1.587 z m 0,0 -28.746,5.771 7.067,2.845 7.066,2.846 z m 0,0 -20.358,-21.202 1.07,7.542 1.069,7.543 z m -136.76,-18.75 c -9.129,-0.099 -16.66,8.778 -31.375,7.73 l 0.919,52.983 c 26.752,-3.925 59.432,-2.255 83.515,-0.519 l -1.236,-52.937 c -17.541,-0.094 -26.622,-13.087 -41.837,-3.467 -3.723,-2.727 -6.943,-3.757 -9.986,-3.79 z m 20.15,1.763 c 6.9,-0.021 14.997,6.992 29.043,8.483 l -0.25,46.125 c -21.901,-5.784 -26.511,-11.422 -37.25,-6.125 V 217 c 2.844,-3.462 5.543,-4.724 8.457,-4.733 z m -20.164,0.625 c 2.914,0.01 5.613,1.271 8.457,4.733 v 43.75 c -10.739,-5.298 -15.35,0.341 -37.25,6.125 L 80.5,221.375 c 14.046,-1.492 22.144,-8.504 29.043,-8.483 z" paint-order="markers fill stroke" style="mix-blend-mode:normal;stroke-width:.500001" transform="matrix(0.78013,0,0,0.78013,267.712,130.18)"/><path id="path7" fill="#e0e0e0" d="m 237.408,21.743 c -1.621,0.01 -3.14,0.719 -4.473,2.088 -4.034,3.965 -1.72,8.514 1.441,10.406 l 0.08,4.355 c -0.513,0.703 -1.29,0.55 -1.927,0.247 -0.653,-0.31 -1.901,-2.466 -2.833,-5.166 -0.95,-2.758 -2.95,-4.838 -3.898,-5.202 -1.098,-0.421 -4.117,0.751 -8.324,3.23 -9.027,5.321 -13.329,6.625 -17.293,5.243 -5.71,-1.99 -5.33,0.949 0.994,4.941 0.554,0.35 1.926,-0.384 2.274,0.078 0.348,0.463 0.071,1.725 0.601,1.913 1.061,0.375 3.008,0.166 3.508,0.035 0.5,-0.131 1.015,-0.535 1.441,-0.37 1.032,1.09 -0.103,1.915 1.087,2.741 1.203,0.288 3.621,-0.636 4.126,-0.45 1.187,0.757 0.665,2.045 1.994,2.6 1.163,0.193 3.906,-0.547 4.44,-0.427 1.068,0.24 0.24,1.646 1.766,1.728 1.926,0.108 3.134,-0.65 4.773,-1.828 0.427,0.105 0.42,1.886 1.353,2.04 0.934,0.152 4.144,0.129 6.151,-1.087 l 0.196,22.367 1.555,0.847 2.717,-0.084 1.478,-0.715 -0.393,-22.18 c 2.192,0.363 4.013,1.473 6.265,0.185 0.436,-0.64 0.592,-1.567 1.22,-1.531 0.63,0.035 1.578,0.836 2.118,1.066 1.137,0.486 1.924,0.966 3.44,0.39 0.714,-0.273 0.514,-1.075 0.777,-1.26 0.263,-0.186 0.988,0.247 3.467,0.236 1.16,-0.005 1.93,-0.924 2.023,-1.206 0.094,-0.281 0.289,-0.978 0.69,-1.23 0.4,-0.252 1.006,-0.057 1.746,0.12 1.31,0.312 3.689,0.404 3.443,-1.403 -0.067,-0.492 -0.045,-0.6 0.399,-0.76 0.443,-0.16 1.154,-0.042 1.625,0.139 1.067,0.124 2.584,0.426 3.658,-0.07 0.64,-0.258 -0.102,-1.187 0.568,-1.567 0.67,-0.38 1.867,-0.235 2.496,-0.688 0.63,-0.452 1.62,-1.281 2.139,-1.755 0.519,-0.474 0.966,-0.947 1.305,-1.391 0.338,-0.445 0.57,-0.86 0.658,-1.224 0.088,-0.364 0.033,-0.677 -0.2,-0.91 -0.186,-0.186 -1.772,0.073 -3.523,0.575 -4.086,1.172 -7.36,0.198 -16.724,-4.97 -4.147,-2.29 -8.193,-3.911 -8.993,-3.604 -0.8,0.307 -2.861,2.654 -3.71,5.268 -0.86,2.648 -2.001,5.137 -2.632,5.492 -1.592,0.896 -1.952,0.538 -2.464,-0.373 l -0.01,-4.326 c 3.507,-2.122 6.472,-7.222 1.314,-11.284 -1.347,-0.858 -2.669,-1.276 -3.93,-1.269 z m -119.76,27.527 -11.996,9.395 -15.558,-3.173 20.357,21.202 7.196,-27.424 z m -7.197,27.424 26.362,-6.673 -14.133,-5.69 z m 0,0 17.974,20.301 -2.14,-15.086 z m 0,0 -14.613,11.462 5.033,15.061 z m 0,0 L 92.232,70.578 81.705,82.466 Z M 246.281,53.18 c -0.152,-0.003 -0.3,0 -0.442,0.01 -1.71,0.112 -2.715,1.036 -2.873,1.702 -0.245,1.034 1.24,2.78 2.77,3.32 3.141,0.908 5.603,-3.5 5.633,1.841 -0.006,4.375 -3.2,8.545 -6.907,10.928 -1.625,1.045 -3.313,1.467 -3.515,2.041 l 4.322,2.995 c 0.845,-0.373 2.768,-1.79 4.738,-3.972 3.127,-3.46 4.459,-6.92 4.459,-11.189 0,-0.34 -0.991,-3.417 -2.134,-4.705 -1.178,-1.328 -2.856,-2.331 -4.553,-2.762 a 6.556,6.556 0 0 0 -1.498,-0.21 z m -17.419,0.504 c -2.368,0.023 -5.3,0.954 -6.573,2.844 -2.265,3.359 -1.892,9.025 0.72,13.309 1.102,1.808 4.65,5.051 8,7.094 3.35,2.042 7.983,4.233 9.992,5.978 3.153,2.74 3.872,4.39 3.87,8.125 -0.003,3.198 -0.736,5.285 -2.807,7.996 -1.311,1.716 -2.607,2.712 -2.74,3.34 l 4.098,2.815 c 0.967,-0.701 2.098,-1.96 3.593,-3.92 2.08,-2.728 3.879,-4.813 4.203,-9.3 0.633,-8.753 -3.23,-12.798 -14.23,-18.048 -9.545,-4.556 -13.24,-8.581 -13.24,-13.465 0,-4.06 0.732,-3.666 2.58,-2.664 1.848,1.002 6.268,-0.121 5.997,-2.535 -0.118,-1.057 -1.62,-1.587 -3.463,-1.569 z m 1.095,25.094 c -0.89,0.352 -2.47,1.683 -3.649,3.781 -4.706,8.374 -3.521,16.792 9.01,26.07 7.88,5.836 8.054,8.228 8.05,11.26 -0.001,1.91 -0.86,4.879 -1.908,6.598 -0.88,1.442 -1.582,2.454 -1.863,3.082 l 3.681,3.24 c 0.705,-0.297 1.88,-1.597 2.93,-3.697 4.226,-8.448 3.391,-16.458 -2.718,-21.155 -1.818,-1.397 -5.95,-4.309 -8.688,-6.89 -4.37,-4.121 -4.882,-5.528 -4.882,-9.068 0,-2.646 0.794,-5.107 2.312,-7.16 1.113,-1.505 2.311,-2.472 2.705,-3.014 z m 8.119,3.553 -1.76,0.055 -0.813,0.897 v 16.12 l 1.2,1.141 1.737,0.012 0.98,-1.152 v -16.12 z m -6.018,25.687 c -2.933,2.978 -6.698,5.078 -6.873,12.479 -0.175,7.4 6.263,13.917 10.03,16.748 3.765,2.83 4.868,2.409 5.821,4.9 0.419,2.91 -0.303,5.242 -0.458,10.59 0.48,0.487 1.924,-1.203 3.585,-2.9 3.118,-3.188 3.306,-10.561 0.225,-13.063 -1.03,-0.836 -3.52,-3.129 -7.406,-7.007 -3.887,-3.88 -5.512,-5.812 -5.61,-9.116 -0.097,-3.303 2.455,-6.318 4.227,-9.207 z m 4.811,4.212 -0.653,0.976 v 14.478 l 0.94,0.908 1.284,-0.022 0.73,-1.074 -0.034,-14.29 -0.918,-0.921 z m -64.349,22 a 14.48,14.48 0 0 0 -7.821,2.062 l 14.678,19.79 -0.136,-20.24 c 0,0 -2.818,-1.53 -6.72,-1.612 z m 6.857,21.852 19.092,-6.724 c 0,0 2.586,-8.087 -4.149,-13.309 z m 0,0 12.075,16.523 c 4.363,-2.14 9.007,-2.443 11.578,-9.161 z m 0,0 -11.466,16.74 c 0,0 1.058,2.168 3.072,4.291 2.014,2.123 4.985,4.202 8.811,4.024 z m 0,0 -19.189,-5.34 c 0,0 -1.554,1.668 -2.84,4.28 -1.287,2.612 -2.305,6.167 -1.234,9.942 z m 19.092,-6.724 c 0,0 3.515,2.97 4.897,7.207 -1.293,-4.306 -4.897,-7.207 -4.897,-7.207 z m 33.393,-12.974 c -7.718,5.883 1.316,18.005 2.645,16.478 0.9,-0.96 -2.643,-9.062 0.909,-13.553 z m 4.9,3.445 -0.471,0.535 v 15.377 h 2.396 c 0,-5.125 0.088,-10.273 0.088,-15.399 l -0.732,-0.496 z m 16.751,62 -11.995,9.395 -15.559,-3.172 20.358,21.202 7.196,-27.424 z m -7.196,27.425 26.362,-6.673 -14.133,-5.69 z m 0,0 17.973,20.3 -2.138,-15.085 z m 0,0 -14.613,11.462 5.032,15.06 z m 0,0 -18.219,-6.117 -10.527,11.888 z m -116.61,-16.987 c -2.914,0.009 -5.613,1.271 -8.457,4.733 v 43.75 c 0.671,-0.331 1.319,-0.62 1.948,-0.868 9.435,-3.724 14.77,1.57 35.302,6.993 l 0.25,-46.125 c -8.779,-0.932 -15.234,-4.02 -20.525,-6.201 a 58.654,58.654 0 0 0 -3.045,-1.175 c -1.949,-0.678 -3.748,-1.112 -5.473,-1.107 z m -20.164,0.625 c -1.724,-0.005 -3.524,0.43 -5.473,1.107 -0.974,0.339 -1.986,0.738 -3.044,1.174 -5.292,2.18 -11.747,5.27 -20.526,6.202 l 0.25,46.125 c 20.532,-5.422 25.867,-10.717 35.302,-6.993 0.63,0.248 1.277,0.537 1.948,0.868 v -43.75 c -2.844,-3.462 -5.543,-4.724 -8.457,-4.733 z" paint-order="markers fill stroke" style="mix-blend-mode:normal;stroke-width:.500001" transform="matrix(0.78013,0,0,0.78013,267.712,130.18)"/><path id="path8" d="m 467.925,-395.678 a 1.965,1.895 0 0 0 -1.966,1.895 1.965,1.895 0 0 0 1.966,1.896 1.965,1.895 0 0 0 1.964,-1.896 1.965,1.895 0 0 0 -1.964,-1.895 z m -52.5,1.895 a 1.965,1.895 0 0 0 -1.964,1.896 1.965,1.895 0 0 0 1.964,1.895 1.965,1.895 0 0 0 1.966,-1.895 1.965,1.895 0 0 0 -1.966,-1.896 z M 143.84,138.306 v 0.814 h 0.377 c 0.756,0 1.29,0.455 1.6,1.366 l 6.163,17.036 h 1.512 l 5.407,-14.855 a 8.06,8.06 0 0 1 0.727,-1.395 c 0.95,-1.435 1.9,-2.152 2.85,-2.152 h 0.347 v -0.03 h 1.525 c 0.136,0 0.27,0.04 0.406,0.117 0.407,0.233 0.61,0.552 0.61,0.959 v 15.496 c 0,0.136 -0.027,0.27 -0.085,0.406 -0.213,0.446 -0.524,0.669 -0.93,0.669 h -1.542 v 0.785 h 7.413 v -0.785 h -1.51 a 0.838,0.838 0 0 1 -0.38,-0.088 c -0.426,-0.194 -0.639,-0.522 -0.639,-0.987 v -15.496 a 0.83,0.83 0 0 1 0.088,-0.377 c 0.174,-0.466 0.485,-0.698 0.93,-0.698 h 1.51 v -0.785 h -13.85 v 0.814 h 0.727 c 0.891,0 1.444,0.262 1.658,0.785 l 0.087,0.581 c 0,0.446 -0.213,1.25 -0.64,2.412 l -4.594,12.501 -5.378,-14.854 a 2.712,2.712 0 0 1 -0.144,-0.786 c 0,-0.426 0.204,-0.64 0.61,-0.64 h 1.309 v -0.813 z m 27.938,0 v 0.785 h 1.54 a 0.82,0.82 0 0 1 0.41,0.116 c 0.406,0.233 0.61,0.552 0.61,0.959 v 15.496 c 0,0.136 -0.03,0.27 -0.088,0.406 -0.213,0.446 -0.524,0.669 -0.931,0.669 h -1.541 v 0.785 h 7.414 v -0.785 h -1.512 a 0.838,0.838 0 0 1 -0.379,-0.088 c -0.426,-0.194 -0.64,-0.522 -0.64,-0.987 v -15.496 a 0.83,0.83 0 0 1 0.088,-0.377 c 0.175,-0.466 0.486,-0.698 0.931,-0.698 h 1.512 v -0.785 z m -79.384,0.445 v 0.783 h 0.365 c 0.727,0 1.24,0.438 1.54,1.315 l 5.929,16.392 h 1.454 l 5.205,-14.295 c 0.168,-0.429 0.4,-0.875 0.697,-1.341 0.914,-1.38 1.83,-2.07 2.744,-2.07 h 0.335 v -0.03 h 1.466 c 0.13,0 0.261,0.038 0.392,0.113 0.391,0.224 0.587,0.53 0.587,0.922 v 14.911 a 0.987,0.987 0 0 1 -0.083,0.392 c -0.205,0.429 -0.504,0.644 -0.896,0.644 h -1.483 v 0.754 h 7.134 v -0.754 h -1.454 a 0.805,0.805 0 0 1 -0.364,-0.084 c -0.41,-0.186 -0.615,-0.504 -0.615,-0.952 v -14.91 c 0,-0.131 0.028,-0.251 0.084,-0.363 0.167,-0.448 0.466,-0.673 0.895,-0.673 h 1.454 v -0.754 h -13.328 v 0.783 h 0.7 c 0.858,0 1.388,0.25 1.593,0.754 l 0.086,0.56 c 0,0.43 -0.207,1.204 -0.617,2.323 l -4.42,12.028 -5.176,-14.294 a 2.62,2.62 0 0 1 -0.14,-0.756 c 0,-0.41 0.197,-0.615 0.588,-0.615 h 1.26 v -0.783 z M 4.38,138.922 v 0.72 h 1.414 c 0.125,0 0.248,0.036 0.373,0.107 0.373,0.213 0.56,0.506 0.56,0.879 v 14.213 c 0,0.125 -0.026,0.25 -0.079,0.375 -0.195,0.409 -0.48,0.612 -0.854,0.612 H 4.381 v 0.721 h 6.8 v -0.72 H 9.794 a 0.76,0.76 0 0 1 -0.346,-0.08 c -0.39,-0.177 -0.587,-0.481 -0.587,-0.908 v -14.213 c 0,-0.125 0.028,-0.24 0.081,-0.346 0.16,-0.427 0.443,-0.64 0.852,-0.64 h 1.387 v -0.72 h -6.8 z m -31.27,30.11 v 0.772 h 1.52 a 0.79,0.79 0 0 1 0.4,0.115 c 0.402,0.23 0.605,0.546 0.605,0.948 v 15.28 c 0,0.133 -0.03,0.265 -0.088,0.4 -0.21,0.439 -0.515,0.66 -0.916,0.66 h -1.52 v 0.774 h 7.31 v -0.775 h -1.491 a 0.822,0.822 0 0 1 -0.373,-0.085 c -0.42,-0.191 -0.63,-0.516 -0.63,-0.975 v -15.28 c 0,-0.133 0.029,-0.258 0.086,-0.372 0.172,-0.459 0.477,-0.69 0.917,-0.69 h 1.491 v -0.772 h -7.31 z m 8.848,0 v 0.772 h 1.518 c 0.134,0 0.269,0.038 0.402,0.115 0.402,0.23 0.602,0.546 0.602,0.948 v 15.28 c 0,0.133 -0.028,0.265 -0.085,0.4 -0.21,0.439 -0.517,0.66 -0.919,0.66 h -1.518 v 0.774 h 7.309 v -0.775 h -1.49 a 0.822,0.822 0 0 1 -0.372,-0.085 c -0.42,-0.191 -0.631,-0.516 -0.631,-0.975 v -15.28 c 0,-0.133 0.028,-0.258 0.085,-0.372 0.172,-0.459 0.479,-0.69 0.919,-0.69 h 1.489 v -0.772 z m 99.843,0.42 v 0.798 h 0.37 c 0.743,0 1.267,0.449 1.571,1.343 l 6.053,16.73 h 1.485 l 5.31,-14.588 c 0.17,-0.438 0.41,-0.895 0.714,-1.37 0.932,-1.41 1.864,-2.115 2.797,-2.115 h 0.344 v -0.027 h 1.497 a 0.79,0.79 0 0 1 0.398,0.112 c 0.4,0.229 0.6,0.544 0.6,0.944 v 15.217 c 0,0.133 -0.029,0.267 -0.086,0.4 -0.209,0.438 -0.512,0.656 -0.912,0.656 h -1.514 v 0.77 h 7.28 v -0.77 h -1.484 a 0.825,0.825 0 0 1 -0.372,-0.085 c -0.42,-0.19 -0.627,-0.514 -0.627,-0.97 v -15.218 c 0,-0.133 0.028,-0.257 0.085,-0.37 0.171,-0.458 0.477,-0.686 0.914,-0.686 h 1.483 v -0.77 h -13.6 v 0.797 h 0.712 c 0.875,0 1.42,0.257 1.629,0.77 l 0.085,0.573 c 0,0.438 -0.21,1.227 -0.63,2.369 l -4.508,12.276 -5.282,-14.588 a 2.676,2.676 0 0 1 -0.144,-0.77 c 0,-0.42 0.2,-0.63 0.6,-0.63 h 1.285 v -0.798 z m 27.437,0 v 0.771 h 1.512 c 0.134,0 0.267,0.036 0.4,0.112 0.4,0.229 0.6,0.544 0.6,0.944 v 15.217 c 0,0.133 -0.028,0.267 -0.085,0.4 -0.21,0.438 -0.515,0.656 -0.915,0.656 h -1.512 v 0.77 h 7.28 v -0.77 h -1.483 a 0.825,0.825 0 0 1 -0.373,-0.085 c -0.419,-0.19 -0.627,-0.514 -0.627,-0.97 v -15.218 c 0,-0.133 0.028,-0.257 0.085,-0.37 0.172,-0.458 0.477,-0.686 0.915,-0.686 h 1.483 v -0.77 h -7.28 z m 8.81,0 v 0.771 h 1.513 c 0.133,0 0.266,0.036 0.4,0.112 0.4,0.229 0.6,0.544 0.6,0.944 v 15.217 c 0,0.133 -0.029,0.267 -0.086,0.4 -0.21,0.438 -0.515,0.656 -0.914,0.656 h -1.512 v 0.77 h 7.28 v -0.77 h -1.486 a 0.816,0.816 0 0 1 -0.37,-0.085 c -0.42,-0.19 -0.628,-0.514 -0.628,-0.97 v -15.218 c 0,-0.133 0.029,-0.257 0.086,-0.37 0.171,-0.458 0.474,-0.686 0.912,-0.686 h 1.485 v -0.77 h -7.28 z m 31.841,0.354 v 0.777 h 1.527 c 0.134,0 0.267,0.04 0.402,0.117 0.403,0.23 0.606,0.546 0.606,0.95 v 15.352 c 0,0.135 -0.03,0.268 -0.088,0.402 -0.21,0.442 -0.517,0.663 -0.92,0.663 h -1.527 v 0.779 h 7.344 v -0.78 h -1.497 a 0.827,0.827 0 0 1 -0.375,-0.085 c -0.423,-0.192 -0.634,-0.518 -0.634,-0.979 V 171.65 c 0,-0.135 0.03,-0.26 0.088,-0.375 0.173,-0.461 0.479,-0.692 0.92,-0.692 h 1.498 v -0.777 z m 9.723,0 v 0.721 h 0.779 c 0.499,0 1.016,0.461 1.553,1.383 l 4.695,7.602 -3.657,5.416 c -1.402,2.074 -2.794,3.11 -4.176,3.11 h -0.46 v 0.808 h 6.394 v -0.809 h -0.721 c -0.403,0 -0.672,-0.123 -0.806,-0.372 a 0.872,0.872 0 0 1 -0.144,-0.519 c 0.02,-0.71 0.383,-1.593 1.094,-2.65 l 2.91,-4.263 3.859,6.365 c 0.115,0.192 0.173,0.443 0.173,0.75 0,0.46 -0.163,0.69 -0.49,0.69 h -1.297 v 0.808 h 6.74 v -0.721 h -1.035 c -0.116,0 -0.289,-0.078 -0.519,-0.231 -0.5,-0.365 -0.865,-0.739 -1.096,-1.123 -3.379,-5.53 -5.08,-8.296 -5.098,-8.296 l 3.226,-4.75 0.173,-0.232 c 1.344,-1.92 2.613,-2.88 3.803,-2.88 h 0.604 v -0.807 h -6.394 v 0.806 h 0.72 c 0.461,0 0.75,0.173 0.865,0.52 l 0.027,0.518 c -0.077,0.787 -0.46,1.68 -1.152,2.678 l -2.333,3.458 -3.628,-5.761 a 1.88,1.88 0 0 1 -0.231,-0.434 l -0.115,-0.516 c 0,-0.307 0.183,-0.463 0.548,-0.463 h 1.296 v -0.806 z m -137.164,0.071 v 0.75 h 1.471 c 0.13,0 0.26,0.036 0.39,0.11 0.388,0.223 0.583,0.528 0.583,0.917 v 14.8 a 0.97,0.97 0 0 1 -0.084,0.388 c -0.203,0.426 -0.5,0.64 -0.889,0.64 h -1.47 v 0.75 h 7.079 v -0.75 h -1.443 a 0.793,0.793 0 0 1 -0.36,-0.084 c -0.408,-0.185 -0.613,-0.5 -0.613,-0.943 v -14.801 c 0,-0.13 0.028,-0.25 0.083,-0.36 0.167,-0.445 0.464,-0.667 0.89,-0.667 h 1.443 v -0.75 z m 8.57,0 v 0.75 h 1.47 c 0.13,0 0.26,0.036 0.39,0.11 0.388,0.223 0.582,0.528 0.582,0.917 v 14.8 c 0,0.13 -0.027,0.258 -0.083,0.388 -0.203,0.426 -0.5,0.64 -0.89,0.64 h -1.47 v 0.75 h 7.08 v -0.75 h -1.444 a 0.793,0.793 0 0 1 -0.36,-0.084 c -0.407,-0.185 -0.612,-0.5 -0.612,-0.943 v -14.801 c 0,-0.13 0.028,-0.25 0.083,-0.36 0.167,-0.445 0.464,-0.667 0.89,-0.667 h 1.443 v -0.75 h -7.08 z m 8.568,0 v 0.75 h 1.47 c 0.13,0 0.26,0.036 0.39,0.11 0.389,0.223 0.583,0.528 0.583,0.917 v 14.8 c 0,0.13 -0.028,0.258 -0.083,0.388 -0.204,0.426 -0.5,0.64 -0.89,0.64 h -1.47 v 0.75 h 7.08 v -0.75 h -1.444 a 0.802,0.802 0 0 1 -0.362,-0.084 c -0.407,-0.185 -0.61,-0.5 -0.61,-0.943 v -14.801 c 0,-0.13 0.027,-0.25 0.083,-0.36 0.166,-0.445 0.463,-0.667 0.89,-0.667 h 1.443 v -0.75 z m 88.546,37.406 v 0.706 h 0.762 c 0.49,0 0.998,0.452 1.525,1.356 l 4.603,7.454 -3.585,5.307 c -1.374,2.033 -2.74,3.052 -4.095,3.052 h -0.452 v 0.79 h 6.268 v -0.79 h -0.704 c -0.396,0 -0.66,-0.124 -0.792,-0.369 a 0.854,0.854 0 0 1 -0.142,-0.508 c 0.02,-0.697 0.377,-1.562 1.073,-2.597 l 2.854,-4.179 3.782,6.24 c 0.113,0.189 0.17,0.433 0.17,0.734 0,0.452 -0.16,0.679 -0.48,0.679 h -1.27 v 0.79 h 6.606 v -0.707 h -1.016 c -0.113,0 -0.283,-0.074 -0.509,-0.225 -0.49,-0.357 -0.846,-0.725 -1.072,-1.102 -3.313,-5.421 -4.978,-8.131 -4.997,-8.131 l 3.162,-4.66 0.168,-0.226 c 1.318,-1.883 2.562,-2.823 3.729,-2.823 h 0.591 v -0.791 h -6.267 v 0.791 h 0.706 c 0.452,0 0.733,0.17 0.846,0.509 l 0.029,0.508 c -0.076,0.772 -0.451,1.647 -1.13,2.626 l -2.286,3.387 -3.56,-5.647 a 1.825,1.825 0 0 1 -0.225,-0.422 l -0.112,-0.509 c 0,-0.3 0.178,-0.452 0.535,-0.452 h 1.27 v -0.791 z m -158.933,0.069 v 0.78 h 1.53 c 0.135,0 0.272,0.038 0.407,0.115 0.404,0.231 0.606,0.55 0.606,0.954 V 224.6 c 0,0.134 -0.03,0.269 -0.088,0.404 -0.212,0.443 -0.52,0.664 -0.924,0.664 h -1.53 v 0.781 h 7.367 v -0.78 h -1.502 a 0.824,0.824 0 0 1 -0.375,-0.086 c -0.424,-0.193 -0.635,-0.521 -0.635,-0.983 v -15.4 a 0.83,0.83 0 0 1 0.085,-0.377 c 0.173,-0.462 0.482,-0.691 0.925,-0.691 h 1.502 v -0.781 H -30.8 Z m 8.8,0 v 0.808 h 0.377 c 0.75,0 1.28,0.453 1.589,1.358 l 6.123,16.931 h 1.502 l 5.374,-14.763 c 0.173,-0.443 0.414,-0.906 0.723,-1.387 0.943,-1.425 1.888,-2.14 2.832,-2.14 h 0.346 v -0.807 h -6.413 v 0.808 h 0.72 c 0.887,0 1.436,0.26 1.648,0.78 l 0.088,0.578 c 0,0.443 -0.212,1.244 -0.636,2.4 l -4.565,12.421 -5.345,-14.763 c -0.096,-0.308 -0.146,-0.567 -0.146,-0.779 0,-0.424 0.204,-0.637 0.609,-0.637 h 1.3 v -0.808 H -22 Z m 47.905,0.668 v 0.73 h 0.337 c 0.678,0 1.157,0.41 1.435,1.226 l 5.526,15.273 h 1.356 l 4.847,-13.32 c 0.156,-0.399 0.374,-0.817 0.652,-1.251 0.851,-1.286 1.704,-1.929 2.555,-1.929 h 0.313 V 208.02 H 37.14 v 0.73 h 0.652 c 0.799,0 1.294,0.234 1.485,0.703 l 0.077,0.523 c 0,0.4 -0.19,1.12 -0.573,2.162 l -4.118,11.21 -4.822,-13.32 a 2.445,2.445 0 0 1 -0.13,-0.704 c 0,-0.382 0.182,-0.575 0.547,-0.575 h 1.173 v -0.729 h -5.526 z" filter="url(#a)" font-family="Caslon" font-size="26.667px" font-weight="700" letter-spacing="0" style="line-height:1.25;-inkscape-font-specification:&quot;Caslon Bold&quot;;white-space:pre;stroke-width:.500001" transform="matrix(0.2481,0,0,0.2481,343.48,270.63)" word-spacing="0"/></g></svg>