<?xml version="1.0" encoding="UTF-8"?>
<svg xmlns="http://www.w3.org/2000/svg" xmlns:xlink="http://www.w3.org/1999/xlink" width="1056px" height="528px" viewBox="0 0 1056 528" version="1.1">
<g id="surface1">
<path style=" stroke:none;fill-rule:nonzero;fill:rgb(73.72549%,0%,0%);fill-opacity:1;" d="M 423.28125 0.878906 C 634.449219 0.878906 845.617188 0.878906 1056.832031 0.878906 C 1056.832031 176.824219 1056.832031 352.765625 1056.832031 528.792969 C 704.988281 528.792969 353.097656 528.792969 0.878906 528.792969 C 0.878906 441.148438 0.878906 353.417969 1.292969 265.285156 C 142.117188 264.882812 282.53125 264.882812 423.28125 264.882812 C 423.28125 176.492188 423.28125 88.683594 423.28125 0.878906 Z M 423.28125 0.878906 "/>
<path style=" stroke:none;fill-rule:nonzero;fill:rgb(73.72549%,0.392157%,0%);fill-opacity:1;" d="M 0.878906 249.039062 C 0.878906 166.367188 0.878906 83.695312 0.878906 0.878906 C 136.125 0.878906 271.375 0.878906 407.082031 1.289062 C 407.546875 84.023438 407.546875 166.351562 407.546875 249.179688 C 405.1875 249.179688 403.324219 249.179688 401.460938 249.179688 C 269.542969 249.179688 137.625 249.179688 5.710938 249.175781 C 4.101562 249.175781 2.488281 249.085938 0.878906 249.039062 M 177.539062 40.195312 C 169.328125 37.097656 160.816406 36.433594 152.527344 39.011719 C 148.269531 40.339844 143.417969 42.742188 140.929688 46.175781 C 134.042969 55.675781 131.199219 66.734375 132.464844 78.597656 C 134.035156 93.332031 140.738281 105.953125 150.585938 116.417969 C 162.105469 128.652344 174.769531 139.820312 187.109375 151.261719 C 189.359375 153.34375 190.367188 155.285156 190.34375 158.355469 C 190.207031 177.558594 190.269531 196.765625 190.265625 215.96875 C 190.261719 217.683594 190.265625 219.398438 190.265625 221.355469 C 197.753906 221.355469 204.683594 221.355469 212.042969 221.355469 C 212.042969 219.476562 212.046875 217.898438 212.042969 216.320312 C 212.042969 197.261719 212.160156 178.203125 211.929688 159.148438 C 211.882812 155.339844 213.140625 152.960938 215.960938 150.636719 C 222.175781 145.511719 228.28125 140.226562 234.160156 134.71875 C 245.640625 123.953125 256.289062 112.472656 263.28125 98.113281 C 270.554688 83.1875 271.210938 68.199219 264.667969 52.699219 C 260.464844 42.746094 253.007812 38.554688 242.878906 37.765625 C 231.429688 36.875 221.175781 39.683594 212.265625 48.363281 C 212.089844 44.363281 211.949219 41.117188 211.804688 37.917969 C 204.453125 37.917969 197.625 37.917969 190.484375 37.917969 C 190.335938 41.304688 190.195312 44.417969 190.0625 47.441406 C 185.890625 44.976562 182.039062 42.699219 177.539062 40.195312 M 300.5 82.28125 C 300.5 128.832031 300.5 175.386719 300.5 221.980469 C 308.472656 221.980469 315.699219 221.980469 323.332031 221.980469 C 323.332031 220.019531 323.328125 218.433594 323.335938 216.84375 C 323.375 203.066406 323.332031 189.285156 323.550781 175.507812 C 323.585938 173.347656 324.277344 170.785156 325.574219 169.117188 C 340.109375 150.417969 357.253906 134.585938 377.902344 122.800781 C 380.734375 121.183594 381.632812 119.378906 381.617188 116.222656 C 381.496094 91.597656 381.554688 66.96875 381.542969 42.339844 C 381.539062 40.921875 381.394531 39.5 381.308594 37.96875 C 354.25 37.96875 327.523438 37.96875 300.5 37.96875 C 300.5 52.6875 300.5 67.042969 300.5 82.28125 M 40.382812 49.726562 C 40.382812 107.128906 40.382812 164.527344 40.382812 222.003906 C 48.339844 222.003906 55.589844 222.003906 63.246094 222.003906 C 63.246094 220.082031 63.242188 218.492188 63.246094 216.90625 C 63.261719 202.976562 63.214844 189.046875 63.371094 175.117188 C 63.390625 173.230469 63.941406 170.980469 65.0625 169.527344 C 79.65625 150.675781 96.875 134.707031 117.644531 122.820312 C 120.421875 121.230469 121.460938 119.535156 121.445312 116.316406 C 121.304688 91.683594 121.371094 67.050781 121.359375 42.417969 C 121.359375 40.992188 121.226562 39.566406 121.148438 37.988281 C 94.125 37.988281 67.417969 37.988281 40.382812 37.988281 C 40.382812 41.851562 40.382812 45.351562 40.382812 49.726562 M 126.4375 200.742188 C 125.546875 203.703125 125.011719 206.847656 123.617188 209.546875 C 122.941406 210.855469 120.527344 212.167969 119.125 211.960938 C 117.558594 211.730469 116.25 209.777344 114.304688 208.128906 C 120.476562 206.804688 121.96875 204.796875 120.832031 200.613281 C 119.648438 196.261719 116.085938 194.589844 111.539062 196.253906 C 106.03125 198.269531 104.25 204.183594 108.003906 209.71875 C 112.453125 216.285156 118.808594 220.679688 126.691406 221.722656 C 145.722656 224.242188 165.824219 211.144531 168.359375 188.582031 C 161.429688 188.582031 154.515625 188.582031 147.65625 188.582031 C 144.429688 209.148438 139.164062 215.792969 129.371094 211.796875 C 130.222656 209.488281 131.238281 207.214844 131.902344 204.847656 C 134.800781 194.503906 131.5625 185.453125 125.554688 177.191406 C 119.085938 168.292969 119.847656 158.746094 122.902344 149.125 C 125.0625 142.316406 130.371094 138.960938 136.074219 139.933594 C 141.414062 140.839844 144.9375 145.800781 145.109375 152.832031 C 145.21875 157.082031 145.148438 161.335938 145.210938 165.585938 C 145.226562 166.703125 145.429688 167.816406 145.539062 168.851562 C 153.4375 168.851562 160.988281 168.851562 169.027344 168.851562 C 168.679688 166.039062 168.460938 163.59375 168.0625 161.179688 C 165.53125 145.84375 155.613281 134.414062 141.78125 131.488281 C 126.351562 128.222656 113.734375 133.019531 104.328125 145.746094 C 95.960938 157.070312 97.332031 171.0625 107.714844 180.574219 C 110.738281 183.34375 114.347656 185.515625 117.125 188.484375 C 120.460938 192.0625 123.199219 196.199219 126.4375 200.742188 M 292.121094 200.082031 C 293.367188 196.3125 294.617188 192.542969 296.054688 188.203125 C 291.679688 188.203125 288.324219 188.203125 284.96875 188.203125 C 281.519531 188.203125 278.074219 188.203125 274.757812 188.203125 C 271.265625 209.378906 266.652344 215.210938 256.691406 212.101562 C 257.710938 207.703125 259.101562 203.382812 259.648438 198.960938 C 260.792969 189.695312 255.730469 182.484375 251.25 175.03125 C 245.414062 165.328125 246.804688 155.34375 251.535156 145.738281 C 253.914062 140.90625 258.65625 139.03125 263.300781 139.976562 C 267.753906 140.882812 271.453125 145.207031 271.820312 150.527344 C 272.136719 155.054688 271.960938 159.613281 272.03125 164.15625 C 272.054688 165.71875 272.171875 167.273438 272.246094 168.867188 C 280.277344 168.867188 287.824219 168.867188 295.933594 168.867188 C 295.507812 165.621094 295.371094 162.707031 294.726562 159.910156 C 291.40625 145.574219 283.761719 134.890625 268.699219 131.519531 C 253.683594 128.164062 241.195312 132.8125 231.746094 145.035156 C 222.726562 156.703125 224.027344 170.976562 234.949219 180.894531 C 237.765625 183.453125 240.992188 185.574219 243.738281 188.199219 C 246.574219 190.910156 249.417969 193.742188 251.613281 196.964844 C 254.761719 201.589844 254.285156 205.710938 250.488281 209.742188 C 249.355469 210.945312 247.148438 212.257812 245.863281 211.914062 C 244.222656 211.476562 243.019531 209.410156 241.625 208.046875 C 246.433594 207.960938 248.132812 205.910156 248.054688 202.160156 C 247.964844 198.082031 244.652344 195.167969 240.839844 195.605469 C 233.695312 196.429688 230.605469 203.4375 234.980469 209.84375 C 239.445312 216.390625 245.867188 220.507812 253.742188 221.792969 C 268.398438 224.183594 283.859375 215.507812 292.121094 200.082031 Z M 292.121094 200.082031 "/>
<path style=" stroke:none;fill-rule:nonzero;fill:rgb(98.431373%,80.784314%,8.627451%);fill-opacity:1;" d="M 0.878906 249.453125 C 2.488281 249.085938 4.101562 249.175781 5.710938 249.175781 C 137.625 249.179688 269.542969 249.179688 401.460938 249.179688 C 403.324219 249.179688 405.1875 249.179688 407.546875 249.179688 C 407.546875 166.351562 407.546875 84.023438 407.492188 1.289062 C 412.445312 0.878906 417.449219 0.878906 422.867188 0.878906 C 423.28125 88.683594 423.28125 176.492188 423.28125 264.882812 C 282.53125 264.882812 142.117188 264.882812 1.292969 264.882812 C 0.878906 259.875 0.878906 254.867188 0.878906 249.453125 Z M 0.878906 249.453125 "/>
<path style=" stroke:none;fill-rule:nonzero;fill:rgb(98.431373%,80.784314%,8.627451%);fill-opacity:1;" d="M 177.863281 40.308594 C 182.039062 42.699219 185.890625 44.976562 190.0625 47.441406 C 190.195312 44.417969 190.335938 41.304688 190.484375 37.917969 C 197.625 37.917969 204.453125 37.917969 211.804688 37.917969 C 211.949219 41.117188 212.089844 44.363281 212.265625 48.363281 C 221.175781 39.683594 231.429688 36.875 242.878906 37.765625 C 253.007812 38.554688 260.464844 42.746094 264.667969 52.699219 C 271.210938 68.199219 270.554688 83.1875 263.28125 98.113281 C 256.289062 112.472656 245.640625 123.953125 234.160156 134.71875 C 228.28125 140.226562 222.175781 145.511719 215.960938 150.636719 C 213.140625 152.960938 211.882812 155.339844 211.929688 159.148438 C 212.160156 178.203125 212.042969 197.261719 212.042969 216.320312 C 212.046875 217.898438 212.042969 219.476562 212.042969 221.355469 C 204.683594 221.355469 197.753906 221.355469 190.265625 221.355469 C 190.265625 219.398438 190.261719 217.683594 190.265625 215.96875 C 190.269531 196.765625 190.207031 177.558594 190.34375 158.355469 C 190.367188 155.285156 189.359375 153.34375 187.109375 151.261719 C 174.769531 139.820312 162.105469 128.652344 150.585938 116.417969 C 140.738281 105.953125 134.035156 93.332031 132.464844 78.597656 C 131.199219 66.734375 134.042969 55.675781 140.929688 46.175781 C 143.417969 42.742188 148.269531 40.339844 152.527344 39.011719 C 160.816406 36.433594 169.328125 37.097656 177.863281 40.308594 M 187.402344 55.925781 C 181.355469 51.78125 174.753906 51.894531 167.992188 53.453125 C 163.835938 54.40625 161.121094 56.914062 159.503906 60.941406 C 154.265625 74.015625 154.53125 86.96875 160.09375 99.816406 C 166.691406 115.039062 177.5 127.132812 189.21875 138.515625 C 189.320312 138.617188 189.722656 138.410156 190.226562 138.285156 C 190.226562 112.703125 190.269531 87.066406 190.128906 61.433594 C 190.117188 59.742188 188.695312 58.0625 187.402344 55.925781 M 238.445312 106.808594 C 246.636719 91.886719 248.964844 76.421875 241.910156 60.480469 C 240.703125 57.75 237.660156 54.566406 234.976562 54.023438 C 229.851562 52.988281 224.242188 52.964844 219.082031 53.894531 C 213.71875 54.859375 212.046875 58.015625 212.042969 63.480469 C 212.035156 87.507812 212.050781 111.535156 212.082031 135.5625 C 212.085938 136.625 212.316406 137.6875 212.511719 139.367188 C 222.484375 129.226562 231.46875 119.242188 238.445312 106.808594 Z M 238.445312 106.808594 "/>
<path style=" stroke:none;fill-rule:nonzero;fill:rgb(98.431373%,80.392157%,8.627451%);fill-opacity:1;" d="M 300.5 81.839844 C 300.5 67.042969 300.5 52.6875 300.5 37.96875 C 327.523438 37.96875 354.25 37.96875 381.308594 37.96875 C 381.394531 39.5 381.539062 40.921875 381.542969 42.339844 C 381.554688 66.96875 381.496094 91.597656 381.617188 116.222656 C 381.632812 119.378906 380.734375 121.183594 377.902344 122.800781 C 357.253906 134.585938 340.109375 150.417969 325.574219 169.117188 C 324.277344 170.785156 323.585938 173.347656 323.550781 175.507812 C 323.332031 189.285156 323.375 203.066406 323.335938 216.84375 C 323.328125 218.433594 323.332031 220.019531 323.332031 221.980469 C 315.699219 221.980469 308.472656 221.980469 300.5 221.980469 C 300.5 175.386719 300.5 128.832031 300.5 81.839844 M 323.023438 140.324219 C 323.023438 143.683594 323.023438 147.039062 323.023438 151.132812 C 324.226562 150.144531 324.601562 149.910156 324.882812 149.59375 C 333.996094 139.421875 343.5625 129.785156 355.308594 122.535156 C 356.484375 121.808594 357.125 119.375 357.136719 117.730469 C 357.253906 96.636719 357.214844 75.546875 357.214844 54.453125 C 357.214844 53.027344 357.214844 51.605469 357.214844 50.003906 C 345.625 50.003906 334.585938 50.003906 323.023438 50.003906 C 323.023438 80.070312 323.023438 109.761719 323.023438 140.324219 Z M 323.023438 140.324219 "/>
<path style=" stroke:none;fill-rule:nonzero;fill:rgb(98.823529%,81.176471%,8.627451%);fill-opacity:1;" d="M 40.382812 49.289062 C 40.382812 45.351562 40.382812 41.851562 40.382812 37.988281 C 67.417969 37.988281 94.125 37.988281 121.148438 37.988281 C 121.226562 39.566406 121.359375 40.992188 121.359375 42.417969 C 121.371094 67.050781 121.304688 91.683594 121.445312 116.316406 C 121.460938 119.535156 120.421875 121.230469 117.644531 122.820312 C 96.875 134.707031 79.65625 150.675781 65.0625 169.527344 C 63.941406 170.980469 63.390625 173.230469 63.371094 175.117188 C 63.214844 189.046875 63.261719 202.976562 63.246094 216.90625 C 63.242188 218.492188 63.246094 220.082031 63.246094 222.003906 C 55.589844 222.003906 48.339844 222.003906 40.382812 222.003906 C 40.382812 164.527344 40.382812 107.128906 40.382812 49.289062 M 62.824219 79.640625 C 62.824219 103.171875 62.824219 126.707031 62.824219 151.582031 C 64.902344 149.320312 65.949219 147.964844 67.207031 146.851562 C 75.957031 139.105469 84.605469 131.230469 93.632812 123.820312 C 95.945312 121.921875 96.984375 120.367188 96.972656 117.445312 C 96.867188 96.484375 96.921875 75.523438 96.902344 54.5625 C 96.902344 53.019531 96.742188 51.480469 96.65625 49.964844 C 85.242188 49.964844 74.320312 49.964844 62.824219 49.964844 C 62.824219 59.796875 62.824219 69.277344 62.824219 79.640625 Z M 62.824219 79.640625 "/>
<path style=" stroke:none;fill-rule:nonzero;fill:rgb(98.431373%,80.784314%,8.627451%);fill-opacity:1;" d="M 126.316406 200.417969 C 123.199219 196.199219 120.460938 192.0625 117.125 188.484375 C 114.347656 185.515625 110.738281 183.34375 107.714844 180.574219 C 97.332031 171.0625 95.960938 157.070312 104.328125 145.746094 C 113.734375 133.019531 126.351562 128.222656 141.78125 131.488281 C 155.613281 134.414062 165.53125 145.84375 168.0625 161.179688 C 168.460938 163.59375 168.679688 166.039062 169.027344 168.851562 C 160.988281 168.851562 153.4375 168.851562 145.539062 168.851562 C 145.429688 167.816406 145.226562 166.703125 145.210938 165.585938 C 145.148438 161.335938 145.21875 157.082031 145.109375 152.832031 C 144.9375 145.800781 141.414062 140.839844 136.074219 139.933594 C 130.371094 138.960938 125.0625 142.316406 122.902344 149.125 C 119.847656 158.746094 119.085938 168.292969 125.554688 177.191406 C 131.5625 185.453125 134.800781 194.503906 131.902344 204.847656 C 131.238281 207.214844 130.222656 209.488281 129.371094 211.796875 C 139.164062 215.792969 144.429688 209.148438 147.65625 188.582031 C 154.515625 188.582031 161.429688 188.582031 168.359375 188.582031 C 165.824219 211.144531 145.722656 224.242188 126.691406 221.722656 C 118.808594 220.679688 112.453125 216.285156 108.003906 209.71875 C 104.25 204.183594 106.03125 198.269531 111.539062 196.253906 C 116.085938 194.589844 119.648438 196.261719 120.832031 200.613281 C 121.96875 204.796875 120.476562 206.804688 114.304688 208.128906 C 116.25 209.777344 117.558594 211.730469 119.125 211.960938 C 120.527344 212.167969 122.941406 210.855469 123.617188 209.546875 C 125.011719 206.847656 125.546875 203.703125 126.316406 200.417969 Z M 126.316406 200.417969 "/>
<path style=" stroke:none;fill-rule:nonzero;fill:rgb(98.431373%,80.784314%,8.627451%);fill-opacity:1;" d="M 291.984375 200.382812 C 283.859375 215.507812 268.398438 224.183594 253.742188 221.792969 C 245.867188 220.507812 239.445312 216.390625 234.980469 209.84375 C 230.605469 203.4375 233.695312 196.429688 240.839844 195.605469 C 244.652344 195.167969 247.964844 198.082031 248.054688 202.160156 C 248.132812 205.910156 246.433594 207.960938 241.625 208.046875 C 243.019531 209.410156 244.222656 211.476562 245.863281 211.914062 C 247.148438 212.257812 249.355469 210.945312 250.488281 209.742188 C 254.285156 205.710938 254.761719 201.589844 251.613281 196.964844 C 249.417969 193.742188 246.574219 190.910156 243.738281 188.199219 C 240.992188 185.574219 237.765625 183.453125 234.949219 180.894531 C 224.027344 170.976562 222.726562 156.703125 231.746094 145.035156 C 241.195312 132.8125 253.683594 128.164062 268.699219 131.519531 C 283.761719 134.890625 291.40625 145.574219 294.726562 159.910156 C 295.371094 162.707031 295.507812 165.621094 295.933594 168.867188 C 287.824219 168.867188 280.277344 168.867188 272.246094 168.867188 C 272.171875 167.273438 272.054688 165.71875 272.03125 164.15625 C 271.960938 159.613281 272.136719 155.054688 271.820312 150.527344 C 271.453125 145.207031 267.753906 140.882812 263.300781 139.976562 C 258.65625 139.03125 253.914062 140.90625 251.535156 145.738281 C 246.804688 155.34375 245.414062 165.328125 251.25 175.03125 C 255.730469 182.484375 260.792969 189.695312 259.648438 198.960938 C 259.101562 203.382812 257.710938 207.703125 256.691406 212.101562 C 266.652344 215.210938 271.265625 209.378906 274.757812 188.203125 C 278.074219 188.203125 281.519531 188.203125 284.96875 188.203125 C 288.324219 188.203125 291.679688 188.203125 296.054688 188.203125 C 294.617188 192.542969 293.367188 196.3125 291.984375 200.382812 Z M 291.984375 200.382812 "/>
<path style=" stroke:none;fill-rule:nonzero;fill:rgb(73.72549%,0.392157%,0%);fill-opacity:1;" d="M 187.664062 56.152344 C 188.695312 58.0625 190.117188 59.742188 190.128906 61.433594 C 190.269531 87.066406 190.226562 112.703125 190.226562 138.285156 C 189.722656 138.410156 189.320312 138.617188 189.21875 138.515625 C 177.5 127.132812 166.691406 115.039062 160.09375 99.816406 C 154.53125 86.96875 154.265625 74.015625 159.503906 60.941406 C 161.121094 56.914062 163.835938 54.40625 167.992188 53.453125 C 174.753906 51.894531 181.355469 51.78125 187.664062 56.152344 Z M 187.664062 56.152344 "/>
<path style=" stroke:none;fill-rule:nonzero;fill:rgb(73.72549%,0.392157%,0%);fill-opacity:1;" d="M 238.292969 107.097656 C 231.46875 119.242188 222.484375 129.226562 212.511719 139.367188 C 212.316406 137.6875 212.085938 136.625 212.082031 135.5625 C 212.050781 111.535156 212.035156 87.507812 212.042969 63.480469 C 212.046875 58.015625 213.71875 54.859375 219.082031 53.894531 C 224.242188 52.964844 229.851562 52.988281 234.976562 54.023438 C 237.660156 54.566406 240.703125 57.75 241.910156 60.480469 C 248.964844 76.421875 246.636719 91.886719 238.292969 107.097656 Z M 238.292969 107.097656 "/>
<path style=" stroke:none;fill-rule:nonzero;fill:rgb(74.117647%,0.784314%,0%);fill-opacity:1;" d="M 323.023438 139.890625 C 323.023438 109.761719 323.023438 80.070312 323.023438 50.003906 C 334.585938 50.003906 345.625 50.003906 357.214844 50.003906 C 357.214844 51.605469 357.214844 53.027344 357.214844 54.453125 C 357.214844 75.546875 357.253906 96.636719 357.136719 117.730469 C 357.125 119.375 356.484375 121.808594 355.308594 122.535156 C 343.5625 129.785156 333.996094 139.421875 324.882812 149.59375 C 324.601562 149.910156 324.226562 150.144531 323.023438 151.132812 C 323.023438 147.039062 323.023438 143.683594 323.023438 139.890625 Z M 323.023438 139.890625 "/>
<path style=" stroke:none;fill-rule:nonzero;fill:rgb(74.117647%,1.568627%,0%);fill-opacity:1;" d="M 62.824219 79.199219 C 62.824219 69.277344 62.824219 59.796875 62.824219 49.964844 C 74.320312 49.964844 85.242188 49.964844 96.65625 49.964844 C 96.742188 51.480469 96.902344 53.019531 96.902344 54.5625 C 96.921875 75.523438 96.867188 96.484375 96.972656 117.445312 C 96.984375 120.367188 95.945312 121.921875 93.632812 123.820312 C 84.605469 131.230469 75.957031 139.105469 67.207031 146.851562 C 65.949219 147.964844 64.902344 149.320312 62.824219 151.582031 C 62.824219 126.707031 62.824219 103.171875 62.824219 79.199219 Z M 62.824219 79.199219 "/>
</g>
</svg>
