<svg xmlns="http://www.w3.org/2000/svg" xml:space="preserve" id="svg1" width="4608" height="3072" version="1.1" viewBox="0 0 1219.2 812.8"><path id="rect1" d="M 0 0 L 0 812.8 L 1219.2 812.8 L 1219.2 0 L 0 0 z" style="fill:#000;stroke-width:33.8667;stroke-miterlimit:128;paint-order:stroke fill markers;fill-opacity:1"/><defs id="defs1"><style id="style1">.cls-1{fill:#0283c0}.cls-2{fill:#fff}.cls-3{fill:#ef483f}</style></defs><path id="path1" fill="#e00000" d="M 609.59999,8.840141e-6 V 812.79975 l 295.26732,2.4e-4 L 314.33268,8.840141e-6 H 3.6576e-4 V 208.33038 L 1219.1996,604.46962 V 208.33038 L 3.6576e-4,604.47113 V 812.79975 H 314.33286 L 904.86731,8.840141e-6 Z" style="fill:#d00000;fill-opacity:1;stroke-width:1"/><path id="path4" d="M 2304 512.00001 L 2304 1536 L 2533.9024 1219.5664 L 2304 512.00001 z M 2304 1536 L 2303.9981 1536.0039 L 2304 1536.0039 L 2304 1536 z M 2304 1536 L 2074.0977 1219.5664 L 1330.1192 1219.5664 L 1330.125 1219.5703 L 2304 1536 z M 2304 1536.0039 L 2304 1927.1328 L 2905.8926 2364.4336 L 2905.8926 2364.4317 L 2304.002 1536.002 L 2304 1536.0039 z M 2303.9981 1536.0039 L 1932.0078 1656.8711 L 1702.1074 2364.4336 L 2303.9981 1536.0039 z M 3277.8692 1219.5742 L 2304.0039 1536.002 L 2675.9903 1656.8672 L 2675.9903 1656.8653 L 3277.8692 1219.5742 z" style="fill:#000;fill-opacity:1;stroke-width:128;stroke-miterlimit:128;paint-order:stroke fill markers" transform="scale(0.26458333)"/><path id="path5" d="m 609.59692,135.46667 v 270.93332 l -60.82834,-83.72305 z m 0,270.93332 5.1e-4,10e-4 h -5.1e-4 z m 0,0 60.82832,-83.72305 h 196.84431 l -0.002,10e-4 z m 0,10e-4 V 509.88721 L 450.34617,625.58972 v -5.1e-4 L 609.59639,406.40052 Z m 5.1e-4,0 98.42243,31.97944 60.82781,187.20925 z M 351.92737,322.679 l 257.66852,83.72152 -98.4214,31.97892 v -5e-4 z" style="fill:#d00000;fill-opacity:1;stroke-width:33.8667;stroke-miterlimit:128;paint-order:stroke fill markers"/></svg>