<svg xmlns="http://www.w3.org/2000/svg" xml:space="preserve" id="svg1" width="4608" height="3072" version="1.1" viewBox="0 0 1219.2 812.8"><defs id="defs1"><style id="style1">.cls-1{fill:#0283c0}.cls-2{fill:#fff}.cls-3{fill:#ef483f}</style></defs><path id="rect1" d="M 1219.2,0 V 812.8 H 0 V 0 Z" style="fill:#000;fill-opacity:1;fill-rule:evenodd;stroke:none;stroke-width:8.46667;stroke-linecap:round;stroke-linejoin:round"/><path id="path1" fill="#e00000" d="M 609.59999,8.840141e-6 V 812.79975 l 295.26732,2.4e-4 L 314.33268,8.840141e-6 H 3.6576e-4 V 208.33038 L 1219.1996,604.46962 V 208.33038 L 3.6576e-4,604.47113 V 812.79975 H 314.33286 L 904.86731,8.840141e-6 Z" style="stroke-width:1;fill:#d00000;fill-opacity:1"/><path id="path2" d="M 609.6 135.46667 A 270.93329 270.93329 0 0 0 418.50934 215.30934 L 465.91575 262.71575 A 203.19997 203.19997 0 0 1 609.6 203.2 A 203.19997 203.19997 0 0 1 812.8 406.4 A 203.19997 203.19997 0 0 1 775.17026 524.0755 L 657.49475 406.4 L 705.3895 358.50525 L 609.6 358.50525 L 513.8105 454.29475 L 561.70525 502.1895 L 609.6 454.29475 L 727.2755 571.97026 A 203.19997 203.19997 0 0 1 609.6 609.6 A 203.19997 203.19997 0 0 1 465.91575 550.08425 L 441.96837 526.13688 L 298.28412 669.82113 L 346.17887 717.71588 L 443.96308 619.93167 A 270.93329 270.93329 0 0 0 609.6 677.33333 A 270.93329 270.93329 0 0 0 775.70356 620.39831 L 873.02113 717.71588 L 920.91588 669.82113 L 823.59831 572.50356 A 270.93329 270.93329 0 0 0 880.53333 406.4 A 270.93329 270.93329 0 0 0 609.6 135.46667 z" style="display:inline;fill:#fff;stroke-width:1.00012;stroke-linecap:round;stroke-linejoin:round;stroke-miterlimit:128;paint-order:stroke fill markers;fill-opacity:1"/></svg>