<svg xmlns="http://www.w3.org/2000/svg" xml:space="preserve" id="svg1" width="4608" height="3072" version="1.1" viewBox="0 0 1219.2 812.8"><path id="rect1" d="M 0,0 V 812.8 H 1219.2 V 0 Z" style="display:inline;fill:#000;fill-opacity:1;fill-rule:evenodd;stroke:none;stroke-width:8.46667;stroke-linecap:round;stroke-linejoin:round"/><path id="path1" d="M 5.5170178,7.6708028e-6 C 5.3505841,0.04957857 1.1250382,1.0683226 1.1145256,1.0800463 0.93901626,1.2757732 12.37047,5.8322459 19.721162,8.8277298 38.82094,16.61109 82.617186,36.059403 103.46601,46.015853 231.79612,107.30047 339.54202,178.16272 440.95102,267.97291 c 31.00089,27.4551 63.21621,58.39206 118.85386,114.13683 34.20891,34.27477 53.72148,53.16369 70.52187,68.26808 41.41056,37.2302 77.48025,61.09854 112.3936,74.37418 7.29679,2.86834 14.45029,5.67077 25.11615,8.48321 10.66587,2.81244 27.99232,6.14003 35.18997,6.88779 0.91931,0.0955 7.09409,0.29484 9.77409,0.42926 V 7.6708028e-6 Z" style="display:inline;fill:#d00000;fill-opacity:1;stroke-width:.596973" transform="matrix(1.4999984,0,0,1.4999984,4.6274037e-4,-1.1506192e-5)"/><defs id="defs1"><style id="style1">.cls-1{fill:#0283c0}.cls-2{fill:#fff}.cls-3{fill:#ef483f}</style></defs><path id="path4" d="M 1.2564637,1.1389575 C 0.7399177,1.5437705 0.43997518,9.1978531 0.43997518,22.982264 V 45.126328 L 10.886894,45.18145 c 16.9292,0.08923 35.319313,2.985105 61.204943,9.638009 24.385918,6.267463 58.572183,17.516116 86.258393,28.382449 l 14.64787,5.749182 -0.29697,9.575998 c -0.99229,31.975962 6.69678,69.044662 21.02648,101.366182 12.94748,29.20384 29.80187,54.5722 54.69026,82.31651 21.82292,24.32709 42.64425,43.17423 71.71043,64.91084 87.07038,65.11401 216.40443,123.88173 362.51228,164.72122 20.54218,5.74186 50.74846,13.44003 65.26878,16.63397 5.13012,1.12843 14.09747,3.28344 19.92714,4.78869 3.12149,0.80598 7.45615,1.67296 11.49492,2.53662 -4.00418,-0.86367 -8.25072,-1.71046 -11.49492,-2.56591 -5.33292,-1.40622 -9.78769,-2.80989 -13.82139,-4.22059 -4.0337,-1.4107 -7.64637,-2.82845 -11.29476,-4.26262 -4.36416,-1.65945 -8.74629,-3.48458 -13.15477,-5.48046 -4.40847,-1.99589 -8.84342,-4.1626 -13.31255,-6.50573 -4.46912,-2.34313 -8.97244,-4.86252 -13.51857,-7.56371 -4.54612,-2.7012 -9.13506,-5.58402 -13.77454,-8.65409 -4.63947,-3.07008 -9.32957,-6.32742 -14.07874,-9.7772 -4.74916,-3.44977 -9.55735,-7.09204 -14.43255,-10.93233 -4.87521,-3.84029 -9.81736,-7.87858 -14.83494,-12.1202 -5.01759,-4.24162 -10.11063,-8.68669 -15.28694,-13.34046 -8.40019,-7.55219 -17.47852,-16.05054 -28.73282,-26.94515 -11.25429,-10.89462 -24.68461,-24.18557 -41.78905,-41.32293 -13.9094,-13.93618 -26.35492,-26.32184 -37.68353,-37.49026 -11.32861,-11.16843 -21.54031,-21.11955 -30.98212,-30.18665 -9.44182,-9.0671 -18.11392,-17.25036 -26.36293,-24.88257 -8.24902,-7.63222 -16.07506,-14.71358 -23.82528,-21.57735 -12.67611,-11.22626 -25.45128,-22.15661 -38.35325,-32.80906 -12.90197,-10.65244 -25.9308,-21.02709 -39.11428,-31.14231 -13.18347,-10.11523 -26.52175,-19.97087 -40.04239,-29.58548 -13.52063,-9.61461 -27.22378,-18.98829 -41.13724,-28.13888 -13.91345,-9.1506 -28.03726,-18.07831 -42.39918,-26.8015 C 225.54276,110.7725 210.94286,102.25406 196.07682,93.921679 181.21078,85.589303 166.07866,77.443092 150.65284,69.46492 135.22703,61.486749 119.50726,53.676422 103.46601,46.015853 93.041609,41.037633 76.88026,33.6864 60.937639,26.606853 44.995018,19.527306 29.271041,12.719406 19.721162,8.8277298 12.426524,5.8550886 1.2570375,1.398842 1.2564637,1.1389575 Z" style="display:inline;fill:#40a000;fill-opacity:1;stroke-width:.596973" transform="matrix(1.4999984,0,0,1.4999984,4.6274037e-4,-1.1506192e-5)"/><path id="path2" d="m 1.6288789,0.95395563 c -0.072563,0.0180942 -0.3380465,0.0820397 -0.3620799,0.0885391 -0.00447,0.00236 -0.0059,0.092986 -0.010335,0.096463 5.738e-4,0.2598845 11.17006,4.7161311 18.464698,7.6887723 9.549879,3.891676 25.273856,10.699576 41.216477,17.779123 15.942621,7.079547 32.10397,14.43078 42.528371,19.409 16.04125,7.660569 31.76102,15.470896 47.18683,23.449067 15.42582,7.978172 30.55794,16.124383 45.42398,24.456759 14.86604,8.332381 29.46594,16.850821 43.82786,25.574001 14.36192,8.72319 28.48573,17.6509 42.39918,26.8015 13.91346,9.15059 27.61661,18.52427 41.13724,28.13888 13.52064,9.61461 26.85892,19.47025 40.04239,29.58548 13.18348,10.11522 26.21231,20.48987 39.11428,31.14231 12.90197,10.65245 25.67714,21.5828 38.35325,32.80906 7.75022,6.86377 15.57626,13.94513 23.82528,21.57735 8.24901,7.63221 16.92111,15.81547 26.36293,24.88257 9.44181,9.0671 19.65351,19.01822 30.98212,30.18665 11.32861,11.16842 23.77413,23.55408 37.68353,37.49026 17.10444,17.13736 30.53476,30.42831 41.78905,41.32293 11.2543,10.89461 20.33263,19.39296 28.73282,26.94515 5.17631,4.65377 10.26935,9.09884 15.28694,13.34046 5.01758,4.24162 9.95973,8.27991 14.83494,12.1202 4.8752,3.84029 9.68339,7.48256 14.43255,10.93233 4.74917,3.44978 9.43927,6.70712 14.07874,9.7772 4.63948,3.07007 9.22842,5.95289 13.77454,8.65409 4.54613,2.70119 9.04945,5.22058 13.51857,7.56371 4.46913,2.34313 8.90408,4.50984 13.31255,6.50573 4.40848,1.99588 8.79061,3.82101 13.15477,5.48046 3.64839,1.43417 7.26106,2.85192 11.29476,4.26262 4.0337,1.4107 8.48847,2.81437 13.82139,4.22059 3.2442,0.85545 7.49074,1.70224 11.49492,2.56591 9.14253,1.95507 18.77992,3.81125 23.69505,4.32188 0.72751,0.0756 4.76147,0.21769 7.73493,0.33969 0.80009,-0.31183 -1.39847,-1.20862 -7.31119,-2.96658 -15.39985,-4.57864 -26.6855,-9.37307 -41.54961,-17.65131 C 731.50735,502.9179 709.20706,484.08401 677.06262,448.19432 641.40098,408.37765 619.28123,377.4093 557.07085,280.20198 510.51387,207.45402 490.71509,178.22723 469.35277,150.71242 434.25105,105.50118 404.81611,77.720746 373.11495,59.884788 326.82225,33.839221 280.42212,34.63333 229.59901,62.341144 c -7.57856,4.131691 -13.76738,7.834913 -13.75318,8.229308 0.0143,0.394397 6.30294,7.072893 13.97505,14.840799 7.67211,7.767905 13.83756,14.247711 13.70116,14.399825 -0.13641,0.152114 -5.37563,-2.662474 -11.64306,-6.254577 C 203.44828,77.261806 155.10686,56.38882 88.203187,31.519909 59.080246,20.694557 3.7266773,1.1556107 1.6288789,0.95395563 Z" style="display:inline;fill:green;fill-opacity:1;stroke-width:.596973" transform="matrix(1.4999984,0,0,1.4999984,4.6274037e-4,-1.1506192e-5)"/></svg>