<svg xmlns="http://www.w3.org/2000/svg" xml:space="preserve" id="svg1" width="4608" height="3072" version="1.1" viewBox="0 0 1219.2 812.8"><defs id="defs1"><style id="style1">.cls-1{fill:#0283c0}.cls-2{fill:#fff}.cls-3{fill:#ef483f}</style></defs><path id="rect1" d="M 1219.2,0 V 812.8 H 0 V 0 Z" style="fill:#ffd000;fill-opacity:1;fill-rule:evenodd;stroke:none;stroke-width:8.46667;stroke-linecap:round;stroke-linejoin:round"/><path id="path2" d="M 0,270.93332 V 812.8 H 1219.2 V 270.93332 Z" style="fill:#000;fill-opacity:1;fill-rule:evenodd;stroke:none;stroke-width:8.46666;stroke-linecap:round;stroke-linejoin:round"/><path id="path3" d="M 0,270.93332 V 812.8 H 1219.2 V 270.93332 Z" style="fill:#ff8000;fill-opacity:1;fill-rule:evenodd;stroke:none;stroke-width:11.9737;stroke-linecap:round;stroke-linejoin:round" transform="matrix(1,0,0,0.50000004,0,406.39997)"/><path id="path11" d="m 605.18587,136.05153 a 16.946662,16.946662 0 0 0 -7.62803,4.43896 c -57.92589,58.51367 -133.04561,67.81517 -209.1205,66.20162 a 16.946662,16.946662 0 0 0 -17.18543,18.93846 c 16.92426,142.61916 23.32683,230.16779 51.81278,296.78 28.48594,66.6122 80.04555,108.22697 177.30937,153.70132 a 16.946662,16.946662 0 0 0 7.7356,1.02442 16.946662,16.946662 0 0 0 1.4893,0.19702 16.946662,16.946662 0 0 0 1.4893,-0.19702 16.946662,16.946662 0 0 0 7.73766,-1.02442 c 97.26386,-45.47439 148.82341,-87.08913 177.30938,-153.70132 28.48597,-66.61221 34.8885,-154.16084 51.81278,-296.78 a 16.946662,16.946662 0 0 0 -17.1875,-18.93846 c -76.07488,1.61355 -151.19204,-7.68795 -209.11791,-66.20162 a 16.946662,16.946662 0 0 0 -16.4568,-4.43896 z m -5.51353,536.69288 a 16.946662,16.946662 0 0 0 5.63091,2.93155 h -1.14956 z m 19.85324,0 -4.47928,2.93155 h -1.15111 a 16.946662,16.946662 0 0 0 5.63039,-2.93155 z" style="color:#000;fill:silver;fill-opacity:1;stroke:none;stroke-width:1.00012;stroke-linecap:round;stroke-linejoin:round;stroke-dasharray:none;paint-order:stroke fill markers"/><path id="path10" d="m 609.59949,152.41217 c -62.482,63.11602 -143.77917,72.8704 -221.52105,71.22149 33.91045,285.76004 27.77432,347.50196 219.47193,437.12753 l 0.002,-0.002 c 0.70825,-0.27688 1.344,-0.56554 2.04706,-0.84323 0.70303,0.27769 1.33878,0.56635 2.04704,0.84323 l 0.002,0.002 C 803.34614,571.13555 797.21007,509.3937 831.12052,223.63366 753.37864,225.28257 672.08147,215.52819 609.59948,152.41217 Z" style="display:inline;fill:#fff;fill-opacity:1;stroke:none;stroke-width:33.8667;stroke-linecap:round;stroke-linejoin:round;stroke-dasharray:none;stroke-opacity:1;paint-order:stroke fill markers"/><path id="path5" d="m 542.11594,233.03475 c -3.54395,0.0595 -6.25724,1.10769 -8.38626,3.14793 -2.16744,2.07601 -2.71023,3.35587 -2.71023,6.38579 0,2.08262 -0.6097,5.24617 -1.35558,7.03205 -2.50922,6.00681 -1.06899,16.86385 3.55598,26.80144 l 2.31315,4.97224 -0.67551,-5.42409 c -0.37094,-2.98221 -0.62696,-8.87897 -0.56732,-13.10518 0.18017,-12.6575 2.76887,-18.98115 7.77144,-18.98115 2.96764,0 3.15075,1.21905 1.16617,7.76506 -1.75409,5.78028 -1.72525,14.16105 0.0727,21.31118 2.31448,9.20894 3.51884,9.21826 3.59567,0.0291 0.0476,-5.87831 0.59488,-9.3004 2.1648,-13.54519 3.31211,-8.95589 8.07788,-11.86118 12.75057,-7.77009 0.7843,0.68627 1.69808,1.24785 2.03061,1.24785 0.50874,0 9.85306,6.47085 12.82995,8.88468 0.51006,0.41336 2.03494,1.47708 3.38893,2.36471 3.75591,2.46154 3.04849,3.89777 -2.7344,5.55645 -2.8577,0.82009 -5.60279,1.79526 -6.09962,2.16754 -0.49681,0.37229 -2.53038,0.95384 -4.51764,1.29168 -4.74291,0.80814 -9.71922,2.40062 -9.18135,2.94118 0.23584,0.23448 1.92101,0.0146 3.74265,-0.48885 4.21033,-1.16322 6.16331,-0.44786 5.68106,2.0799 -0.32724,1.71169 0.31421,1.48369 5.41086,-1.93703 6.20156,-4.16 11.06226,-5.17893 11.06226,-2.31861 0,2.49332 -18.91862,20.38538 -28.20174,26.66906 -2.93851,1.98993 -3.3518,2.58505 -2.12237,3.05801 2.86697,1.09965 10.39064,-0.46232 17.69313,-3.6737 7.14221,-3.14121 16.6983,-8.75093 18.50008,-10.86007 0.83994,-0.98302 2.01358,-1.83057 8.4748,-6.12836 3.96391,-2.63509 11.49957,-2.11984 17.83096,1.22139 6.2029,3.27236 9.35092,6.02942 13.30557,11.65468 2.74902,3.90828 2.86038,4.41558 2.86038,13.10519 0,7.04416 -0.36445,9.70589 -1.65088,12.06411 -1.71302,3.13985 -10.08352,11.97881 -12.3927,13.08371 -0.72469,0.34712 -2.53702,1.43752 -4.02746,2.42451 -9.50704,6.28767 -18.57423,7.8655 -37.94996,6.6003 -7.45487,-0.48622 -20.17444,-0.96703 -28.26654,-1.07168 -15.1164,-0.19343 -22.41247,0.96203 -31.14976,4.9339 -9.22086,4.1931 -20.04644,13.55696 -26.2268,22.68774 -6.12737,9.0526 -9.84996,24.39851 -6.39079,26.33543 2.076,1.16188 4.48603,0.35208 10.4584,-3.5085 7.88012,-5.09533 19.67378,-10.59065 26.10586,-12.16588 8.62335,-2.1118 28.37153,-3.19808 39.57436,-2.17531 5.26357,0.47959 15.05952,1.2782 21.76848,1.77503 6.70898,0.49548 15.65401,1.58721 19.87892,2.42451 5.19337,1.03071 11.79791,1.49696 20.39742,1.43999 11.23328,-0.0742 13.18476,-0.31771 16.71547,-2.08903 7.5529,-3.78904 11.85476,-9.25387 18.85653,-23.95292 2.13166,-4.47266 4.39566,-9.14952 5.03157,-10.39222 0.63593,-1.24269 2.29735,-6.73434 3.69107,-12.20194 4.73365,-18.57685 3.01242,-39.40476 -4.24104,-51.30709 -1.44407,-2.3688 -2.62304,-4.66461 -2.62304,-5.10049 0,-1.54874 -15.91778,-17.25978 -20.30431,-20.0446 -5.59744,-3.55056 -17.8364,-9.64248 -26.68231,-13.28181 -13.45771,-5.53783 -15.50885,-5.91785 -32.52771,-6.03708 -15.45157,-0.10996 -16.00519,-0.18038 -24.33311,-3.10958 -5.44509,-1.91441 -9.81731,-2.8443 -13.36124,-2.78601 z m 16.81224,152.41601 c -7.38862,-0.0796 -14.36633,0.27314 -18.87343,1.08262 -18.11053,3.25381 -21.58959,3.95058 -26.20398,5.25158 -7.98083,2.25089 -14.67284,4.9944 -18.07105,7.41088 -4.60779,3.27764 -13.76509,13.15326 -15.83185,17.07741 -0.98302,1.86407 -2.41093,4.08431 -3.17668,4.93619 -1.52092,1.69313 -4.74819,10.0333 -4.99459,12.91349 -0.20537,2.37677 2.78457,8.24164 4.79696,9.41412 0.8744,0.50873 2.11574,0.93802 2.76225,0.95392 1.21622,0.0265 6.61371,-2.51474 7.40863,-3.49116 1.09564,-1.34472 10.86792,-7.23601 15.8122,-9.53462 17.7899,-8.26698 45.73471,-12.60047 67.76013,-10.50722 5.96706,0.56703 14.50805,1.60311 18.98068,2.30262 15.80661,2.47215 41.49966,9.28693 47.43756,12.58577 3.05508,1.6958 14.99854,5.65037 19.27644,6.38168 6.51026,1.11287 8.37691,0.0717 11.59626,-6.4702 4.0474,-8.22327 4.08296,-15.42531 0.1164,-23.82742 -3.06171,-6.48508 -5.7393,-8.97179 -14.33616,-13.31195 -5.74052,-2.89874 -11.64536,-4.22353 -22.97801,-5.15754 -3.7281,-0.30604 -10.84366,-1.11417 -15.81313,-1.79648 -4.96814,-0.68097 -12.49053,-1.67985 -16.71411,-2.21775 a 956.84912,956.84912 0 0 1 -17.62055,-2.47515 c -6.14459,-0.92475 -13.94399,-1.43999 -21.33261,-1.5208 z m 176.80935,18.71094 c -2.83779,0.10732 -4.80128,0.94602 -7.65235,4.65821 -3.16635,3.31872 -4.89537,6.20678 -6.49577,10.84638 -2.08262,6.0386 -2.18077,7.35672 -2.18077,29.37153 0,12.67472 -0.35752,24.67366 -0.79735,26.66222 -1.12612,5.094 -6.85357,14.59474 -11.84824,19.65163 -2.32903,2.35822 -7.34861,6.7378 -11.15488,9.73588 a 8266.4534,8266.4534 0 0 0 -7.87369,6.20597 c -2.64043,2.09323 -8.32652,3.0298 -15.67804,2.58332 -11.24257,-0.68228 -16.76196,-2.80476 -36.42916,-14.00889 -9.1798,-5.22915 -22.10213,-11.18034 -30.06439,-13.8446 -1.98726,-0.66505 -4.0213,-1.49462 -4.5181,-1.84439 -1.9886,-1.39638 -12.30613,-3.48157 -22.13776,-4.4752 -14.1731,-1.43081 -27.87199,-0.54456 -36.31914,2.35285 -3.63005,1.24535 -10.36688,3.09383 -14.97334,4.10733 -4.60511,1.01349 -9.71132,2.40314 -11.34751,3.08676 -1.63618,0.68495 -8.6432,2.16085 -15.57077,3.28166 -8.74127,1.41494 -13.59263,2.65627 -15.85145,4.0553 -4.06198,2.51454 -7.97707,9.6844 -9.4397,17.28234 -2.64571,13.7518 4.13609,24.42744 17.40833,27.40301 7.96756,1.78586 22.94386,-1.43482 35.94581,-7.73176 4.89129,-2.36749 18.20958,-6.73258 24.98215,-8.18725 12.43492,-2.66824 37.80832,-1.39103 45.49504,2.28937 4.55345,2.18072 18.69345,7.32491 24.61016,8.95317 3.59561,0.98964 6.88663,2.01345 7.31322,2.27841 3.06303,1.89322 20.36953,4.44376 33.58475,4.94851 21.53921,0.82141 30.8687,-0.67579 39.99154,-6.41498 4.38519,-2.76097 19.6434,-18.24962 19.6434,-19.94145 0,-0.5127 2.23111,-3.89883 4.95764,-7.52223 7.32898,-9.74154 11.08107,-17.31332 13.26174,-26.77132 1.77527,-7.69599 1.84009,-9.02975 0.80009,-16.4051 -0.62267,-4.41571 -2.3398,-11.51554 -3.81566,-15.77755 -2.33702,-6.74342 -2.6986,-9.10974 -2.78736,-18.23124 -0.10068,-10.19593 -0.0251,-10.61851 2.75312,-15.47537 3.40617,-5.95645 5.87698,-7.28161 13.46166,-7.22331 6.31548,0.0476 6.79633,-1.00254 1.8348,-4.00463 -2.40589,-1.45598 -4.59466,-1.75949 -12.67614,-1.75949 -2.71328,0 -4.72948,-0.19869 -6.43188,-0.13509 z m -169.48018,27.42537 c -21.87303,-0.0796 -27.60036,0.43578 -38.40042,3.45509 -2.4854,0.69553 -7.36369,1.92107 -10.84273,2.72391 -3.47902,0.80287 -7.54483,1.99643 -9.03529,2.6509 a 162.14707,162.14707 0 0 1 -6.52362,2.62715 c -8.4339,3.17826 -19.80367,12.94661 -23.23633,19.96426 -2.21513,4.53095 -2.26258,4.9349 -1.00002,8.51725 3.84731,10.9074 7.04929,13.66431 15.86608,13.66431 4.95487,0 22.79129,-3.89513 24.83153,-5.42136 2.15419,-1.61231 20.17358,-8.25859 28.67506,-10.57707 12.60181,-3.43663 22.71543,-3.40767 35.92938,0.10316 10.15219,2.69736 29.80089,9.04444 37.94993,12.25715 6.44534,2.54368 22.14864,10.24788 26.20263,12.85781 1.73951,1.11949 4.17866,2.52104 5.42136,3.11324 3.30944,1.5792 10.6148,1.46136 13.45526,-0.21588 5.35234,-3.16373 10.65013,-15.70178 9.6711,-22.88902 -1.09567,-8.03247 -7.8839,-16.29292 -17.25316,-20.99214 -12.11166,-6.07436 -37.46507,-14.25146 -61.89373,-19.96151 -6.48907,-1.51695 -11.11168,-1.80704 -29.81703,-1.87725 z" style="display:inline;fill:silver;fill-opacity:1;stroke-width:.999993;-inkscape-stroke:none"/></svg>