<svg xmlns="http://www.w3.org/2000/svg" xml:space="preserve" id="svg1" width="4608" height="3072" version="1.1" viewBox="0 0 1219.2 812.8"><defs id="defs1"><style id="style1">.cls-1{fill:#0283c0}.cls-2{fill:#fff}.cls-3{fill:#ef483f}</style></defs><path id="rect1" d="M 0 0 L 0 812.8 L 1219.2 812.8 L 1219.2 0 L 0 0 z" style="fill:#d00000;fill-rule:evenodd;stroke:none;stroke-width:8.46667;stroke-linecap:round;stroke-linejoin:round;fill-opacity:1"/><path id="path2" d="m 618.61016,101.59999 c -0.70677,0 -3.98085,0.0746 -7.25342,0.18788 l -5.94896,0.22266 0.11092,11.00915 0.14979,11.00922 -3.12207,0.22264 c -1.6735,0.14892 -4.20388,0.26073 -5.54269,0.26073 -2.45441,0 -2.49256,-0.001 -2.71569,-1.15485 -0.1116,-0.63234 -0.26068,-3.79027 -0.26068,-6.9887 -0.0331,-3.19842 -0.14655,-7.62417 -0.29464,-9.89288 l -0.22262,-4.05464 -7.25336,0.11093 c -3.97911,0.0331 -7.32435,0.14809 -7.39875,0.22265 -0.22345,0.22347 0.77878,35.33339 1.03922,35.59371 0.1116,0.1116 5.95145,0.0746 12.97993,-0.1498 7.02859,-0.22347 12.86541,-0.2599 13.01422,-0.11092 0.14892,0.14892 0.33516,1.7092 0.37239,3.49439 0.14894,3.19841 0.11104,3.3084 -0.744,3.49438 -0.44607,0.11171 -6.32162,0.33438 -13.05268,0.48335 -6.69382,0.14894 -12.26961,0.41136 -12.38117,0.56032 -0.11171,0.18623 -0.0744,3.27434 0.0746,6.88185 l 0.26068,6.5824 6.91554,-0.2607 c 3.79314,-0.11171 13.0151,-0.4097 20.48993,-0.63317 7.47471,-0.22347 13.61114,-0.44776 13.68556,-0.52225 0.14892,-0.14894 -0.92958,-40.53907 -1.33866,-50.58059 l -0.26069,-5.94941 z m 17.9324,1.43285 c -0.38151,0.033 -0.54704,0.15064 -0.60332,0.35509 -0.11171,0.26069 -1.59786,12.27165 -3.38291,26.70169 -1.7478,14.43005 -3.27135,26.85184 -3.38289,27.59568 -0.18621,1.22725 -0.11336,1.41232 0.66704,1.56105 1.59909,0.33436 13.79645,1.74844 13.908,1.59963 0.0746,-0.0744 1.2641,-9.33506 2.67721,-20.64108 1.37599,-11.26887 2.6427,-20.60227 2.75428,-20.71382 0.14892,-0.14894 5.05563,0.37078 10.93137,1.07778 5.87571,0.74407 10.74575,1.3006 10.82013,1.18902 0.18621,-0.18623 1.93643,-14.13233 1.78773,-14.28107 -0.1116,-0.11172 -26.88631,-3.49439 -34.28673,-4.34977 -0.91111,-0.0926 -1.50921,-0.13158 -1.89032,-0.0943 z m -76.50251,2.62178 c -0.40882,-0.033 -5.58011,1.07903 -11.53014,2.4551 -5.91289,1.41325 -14.76425,3.49498 -19.6731,4.61067 -4.87158,1.15294 -8.92385,2.15697 -8.99825,2.19413 -0.0746,0.0744 0.37159,2.23138 0.96654,4.76037 0.59505,2.56618 3.45757,14.8429 6.32107,27.33903 2.90065,12.45886 5.35707,22.79637 5.43146,22.90795 0.0746,0.14893 1.37654,-0.0414 2.82692,-0.41052 1.48754,-0.37162 4.68647,-1.11445 7.10363,-1.67229 3.16104,-0.74409 4.34949,-1.15211 4.34949,-1.56122 0,-0.29712 -0.74238,-3.83176 -1.67219,-7.84838 -1.11569,-4.83479 -1.56475,-7.36175 -1.30438,-7.51056 0.22346,-0.14893 6.02444,-1.56444 12.94144,-3.1265 6.87978,-1.5992 12.64596,-2.97518 12.75749,-3.04959 0.14894,-0.0746 0.10924,-0.77883 -0.0746,-1.52258 -0.18619,-0.7813 -2.19346,-9.52217 -4.49908,-19.45212 -3.75608,-16.17799 -4.27456,-18.039 -4.94393,-18.1134 z m -70.28846,3.14371 c -0.35752,0.0663 -1.07514,0.38156 -1.85608,0.79953 -1.0041,0.55785 -8.77951,4.50091 -17.18397,8.81503 -8.44171,4.27694 -15.3579,7.92039 -15.3579,8.14352 0,0.33439 8.10801,23.65243 15.65724,45.14874 1.63626,4.57448 2.89834,8.36725 2.8612,8.40441 -0.0746,0.0746 -1.18887,0.63482 -2.52761,1.30457 -1.3388,0.66957 -2.49041,1.26302 -2.52757,1.30017 -0.22346,0.18621 11.1915,22.54046 11.41461,22.42891 0.11171,-0.0744 3.275,-1.67462 7.03098,-3.57131 l 6.7659,-3.42171 -2.08283,-4.12729 c -1.1156,-2.30588 -1.93089,-4.27803 -1.74493,-4.42677 0.14894,-0.18622 5.57821,-3.01451 12.08614,-6.28733 l 11.75254,-6.02207 2.04424,4.01615 c 1.11562,2.1943 2.26853,4.01615 2.56606,4.01615 0.85534,0 13.31357,-6.50823 13.31357,-6.95452 0,-0.37162 -10.63653,-21.42106 -11.00835,-21.83017 -0.0746,-0.11172 -1.34113,0.37081 -2.75427,1.07787 -1.41312,0.70683 -2.63707,1.18944 -2.71147,1.07787 -0.0746,-0.0746 -5.80072,-11.2679 -12.6806,-24.87978 -6.91692,-13.61173 -12.68149,-24.84635 -12.83023,-24.99508 -0.0249,-0.0414 -0.10755,-0.0414 -0.22677,-0.017 z m 202.93613,3.88787 c -0.29793,-0.11171 -2.34302,3.68219 -5.98746,11.12031 -3.04936,6.21094 -8.66498,17.66588 -12.45812,25.40153 -3.83042,7.77292 -6.87869,14.28032 -6.80439,14.50345 0.22346,0.6696 13.23981,4.98436 13.5745,4.53799 0.18621,-0.22346 1.30198,-2.60308 2.45482,-5.24364 1.19001,-2.67773 2.26765,-4.98369 2.41636,-5.13251 0.22345,-0.22347 11.71255,3.4929 12.1588,3.93918 0.0746,0.0414 -0.55781,2.68129 -1.33866,5.84249 -0.78126,3.16124 -1.33765,5.87207 -1.18891,5.98365 0.14893,0.14894 3.23689,1.26749 6.88133,2.53198 4.68564,1.59922 6.65424,2.11825 6.76581,1.78352 0.0746,-0.22345 1.56234,-7.1385 3.31024,-15.32043 1.74781,-8.18194 4.35021,-20.53274 5.83775,-27.45016 1.45026,-6.91753 2.60618,-12.60713 2.53179,-12.68152 -0.0746,-0.0746 -6.32156,-2.26821 -13.90793,-4.87162 -7.54922,-2.60334 -13.98557,-4.83264 -14.24593,-4.94422 z m -143.54487,10.37615 c 0.14894,-0.0414 0.33352,0.25989 0.44443,0.59428 0.66951,2.49176 2.49371,10.97156 2.38218,11.12029 -0.22346,0.22347 -11.52974,2.82621 -11.64131,2.67749 -0.1116,-0.14892 -2.7516,-11.63925 -2.67731,-11.67641 0.0746,-0.0746 11.04544,-2.64156 11.49168,-2.71589 z m -66.23403,6.69355 c 0.11171,-0.033 2.19735,3.86942 4.61463,8.59263 2.41716,4.76047 6.54176,12.90409 9.18214,18.03643 2.64039,5.16949 4.72321,9.52166 4.6488,9.67041 -0.2971,0.4461 -13.61081,6.98942 -13.79677,6.76629 -0.11171,-0.0746 -3.15987,-8.77437 -6.80429,-19.33658 l -6.65467,-19.15693 4.31097,-2.30535 c 2.34287,-1.22734 4.38762,-2.2669 4.49919,-2.2669 z m 258.68363,0.70601 c -0.0414,0 -4.35229,7.36518 -9.55862,16.40252 -5.20629,9.00017 -9.51836,16.58703 -9.59276,16.84732 -0.0746,0.29795 1.22551,1.2996 3.12206,2.37812 l 3.23748,1.89898 -1.2659,0.74409 c -0.70677,0.44611 -4.57563,2.74923 -8.59199,5.16666 -4.05351,2.3802 -7.36028,4.46483 -7.36028,4.57648 0,0.2599 13.60843,8.14353 14.09191,8.14353 0.14892,0 3.75807,-2.2692 7.99752,-5.02124 4.23947,-2.75217 7.76912,-5.02136 7.84354,-5.02136 0.1116,0 0.9307,0.4486 1.86044,1.04369 l 1.63799,1.00509 -4.09292,7.02718 c -2.23128,3.86783 -4.01319,7.21466 -3.93887,7.43781 0.1862,0.40884 11.86183,7.28813 12.41973,7.28813 0.37158,0 28.07513,-47.82654 28.14955,-48.57034 0,-0.29716 -7.36243,-4.79574 -17.92387,-10.93221 -9.89199,-5.72732 -17.99786,-10.41463 -18.03501,-10.41463 z m -42.69482,0.0414 c 0.33435,0 1.86243,0.48168 3.38711,1.03936 1.52471,0.55786 2.74997,1.15277 2.74997,1.33867 -0.22344,1.52487 -3.30942,13.83686 -3.53253,14.09725 -0.26069,0.2607 -8.62742,-2.38218 -9.14798,-2.86563 -0.0746,-0.0746 1.22742,-3.19693 2.93806,-6.91603 2.0826,-4.64889 3.19628,-6.73079 3.60537,-6.69362 z m 48.91748,19.52909 c 0.57681,0.0414 1.89989,0.84728 5.89764,3.19494 2.41718,1.41324 4.35114,2.71258 4.27672,2.8614 -0.52056,1.22725 -6.02097,10.45313 -6.24408,10.45313 -0.22347,0 -9.15112,-4.98585 -10.34115,-5.80399 -0.0746,-0.0414 4.31471,-7.77225 5.76507,-10.11528 0.22346,-0.3625 0.29961,-0.61412 0.64555,-0.59011 z m 79.19684,19.78138 -14.1304,13.49843 c -33.84114,32.39321 -37.70809,36.15162 -37.70809,36.44917 0,0.44611 10.03905,10.74826 10.44805,10.74826 0.14892,0 3.75815,-3.20049 7.99753,-7.14271 l 7.6982,-7.13843 5.87198,6.09912 c 3.23534,3.38432 8.29589,8.66355 11.19655,11.78754 2.93784,3.08687 5.42815,5.5816 5.57688,5.5816 0.26068,-0.0744 1.638,-1.37722 21.05013,-19.93538 8.4417,-8.07045 15.2838,-14.80391 15.24665,-14.95266 -0.0746,-0.14893 -1.11643,-1.33723 -2.34367,-2.6389 -5.87573,-6.13654 -26.29334,-27.55966 -28.48746,-29.82828 z M 610.86489,186.8023 c -5.36467,-0.11591 -10.75518,-0.0414 -16.16604,0.23091 -39.60538,1.97108 -79.5082,15.6193 -111.71307,38.19414 -3.12377,2.19428 -7.21719,5.05965 -9.1137,6.39846 -3.53295,2.49184 -6.3559,5.02134 -8.32694,7.58752 l -1.11617,1.44999 -15.39629,-16.81322 c -12.86713,-14.05808 -15.50827,-16.73385 -16.14046,-16.54794 -1.67351,0.4461 -7.17854,3.23682 -9.55857,4.79888 -6.917,4.61163 -10.26192,10.67069 -8.36531,15.17078 0.70677,1.71077 2.19272,3.42154 12.04755,13.79779 7.92107,8.2935 21.27262,23.17298 21.27262,23.6565 0,0.22345 -2.79035,2.2283 -3.08779,2.2283 -0.11171,0 -1.81957,-2.04324 -3.82775,-4.57217 -4.5369,-5.69026 -8.66474,-9.82003 -11.23072,-11.15888 -1.07844,-0.59508 -2.0824,-1.00419 -2.19397,-0.85536 -0.22345,0.18621 4.79479,6.17237 11.52583,13.75929 l 3.94311,4.46524 -1.00493,0.59425 c -0.55782,0.33438 -1.93503,1.1171 -3.08787,1.74927 l -2.11701,1.1891 -4.94816,-5.46612 c -7.80948,-8.59106 -7.92138,-8.70478 -11.11957,-9.70889 -4.46259,-1.41332 -5.39001,-2.04367 -6.28258,-4.46102 -0.44607,-1.15294 -1.07793,-2.45484 -1.4498,-2.93837 l -0.67118,-0.8554 -1.03928,1.03929 c -0.92965,0.92982 -1.04253,1.22892 -0.89382,2.97688 0.2971,3.64467 4.31629,8.73794 14.35708,18.25879 l 5.61535,5.32062 -1.34286,1.74935 c -4.94607,6.47117 -13.12371,20.1938 -17.95814,30.0122 -2.90065,5.95056 -7.80933,17.21986 -7.80933,17.96366 0,0.22347 -0.14894,0.85226 -0.37241,1.37294 l -0.37243,0.96662 -1.71065,-1.22751 c -2.11974,-1.52488 -4.91165,-4.53402 -6.91982,-7.47205 -7.02858,-10.33908 -7.73576,-25.96268 -1.97161,-44.66968 0.52057,-1.63638 0.85707,-3.04786 0.78292,-3.12227 -0.2607,-0.2607 -3.5332,4.12896 -4.64879,6.24877 -4.53703,8.51673 -5.35534,21.56888 -2.08284,32.91208 1.19,4.1282 4.09273,10.30332 6.28687,13.35299 1.56185,2.19421 5.8019,6.5099 7.58696,7.73724 0.81768,0.55786 0.81768,0.55786 0.22261,2.9383 -0.33432,1.30165 -0.74483,2.52701 -0.8938,2.75014 -1.07851,1.45049 -5.50429,19.30381 -7.21494,29.23377 -4.05344,23.50454 -4.05344,50.02077 0,73.59971 10.0408,58.53833 43.80994,110.45518 93.34445,143.66661 10.30107,6.88029 25.39818,15.24753 28.41042,15.73105 0.81848,0.14893 1.89444,0.63564 2.37784,1.08208 0.52056,0.48336 2.90309,1.70747 5.32033,2.71168 40.75815,17.40524 87.98647,21.68558 131.71967,11.9415 73.89269,-16.43828 134.36139,-70.77531 158.49642,-142.40484 10.18953,-30.27333 13.60924,-62.55555 9.96481,-94.27934 -4.90883,-43.25287 -22.34871,-83.15697 -50.87202,-116.55429 -2.08248,-2.49176 -4.31594,-4.87304 -4.94813,-5.28214 -0.59505,-0.44611 -1.5237,-1.48848 -2.04428,-2.34386 -0.52056,-0.81857 -1.56267,-2.19279 -2.34366,-3.01104 -0.74402,-0.81856 -2.52876,-3.35013 -3.90465,-5.58159 -1.41321,-2.26861 -2.78735,-4.31188 -3.1221,-4.57217 -0.74402,-0.59509 -0.70679,-0.59674 4.27677,-6.77061 2.1569,-2.67773 3.86657,-4.94386 3.755,-5.05543 -0.44607,-0.44611 -15.24821,-2.86512 -26.40463,-4.31559 l -12.15879,-1.56114 -0.78291,-1.63812 c -0.89258,-1.78518 -2.22948,-2.90045 -7.02675,-5.727 -31.79117,-18.84174 -67.99701,-29.0569 -105.55025,-29.87099 z m 215.66381,5.40199 c 0.11172,0 2.82775,2.75186 6.02593,6.09902 l 5.83775,6.09915 -6.73164,6.47114 c -3.68158,3.53313 -6.84367,6.46951 -6.99249,6.54391 -0.2607,0.0744 -5.76085,-5.43086 -10.03749,-10.04254 l -1.97157,-2.11715 4.61031,-4.42673 c 6.917,-6.65714 8.99883,-8.6268 9.2592,-8.6268 z m 35.29176,40.20011 c -0.1116,0 -11.15657,6.36272 -24.54427,14.13564 -13.38768,7.73564 -24.32054,14.20508 -24.28341,14.35382 0.11171,0.4461 20.86294,36.3722 21.01165,36.3722 0.48334,0 49.01331,-28.22792 48.93891,-28.45107 -0.33436,-0.85537 -20.97416,-36.44784 -21.12288,-36.41059 z m -5.35449,20.45716 c 0.22345,-0.0331 1.78647,2.34146 3.45987,5.20517 1.67348,2.90088 2.9753,5.31773 2.93815,5.3549 -0.66953,0.63233 -23.54147,13.50306 -23.72742,13.39148 -0.14894,-0.1116 -1.56146,-2.45434 -3.16053,-5.24365 -1.82223,-3.23559 -2.75492,-5.17025 -2.53181,-5.39338 0.55781,-0.55783 22.57547,-13.27736 23.02174,-13.31452 z m 34.73144,33.10019 c -0.2971,0 -12.30659,3.97593 -26.66125,8.81072 -14.35459,4.87204 -26.21743,8.92726 -26.36615,9.07598 -0.18621,0.22347 12.64485,39.12475 13.09116,39.6826 0.26069,0.29797 19.48489,-6.39577 19.48489,-6.80478 0,-0.63234 -4.16582,-13.01533 -4.53765,-13.38728 -0.18622,-0.22347 -1.3019,-0.0414 -2.93816,0.48336 -1.45029,0.48336 -2.78935,0.70349 -2.93814,0.51728 -0.33437,-0.37162 -3.83098,-10.89459 -3.68225,-11.04341 0.0746,-0.0746 5.6929,-1.97422 12.42394,-4.24285 6.76822,-2.23146 12.53279,-4.19972 12.83022,-4.31128 0.4461,-0.18623 0.96576,0.96471 2.5276,5.42755 1.07844,3.08685 1.82097,5.76649 1.67225,5.9152 -0.18622,0.11172 -1.41248,0.59428 -2.78845,1.07788 -1.4132,0.44613 -2.52757,1.00264 -2.52757,1.30017 0,0.52062 4.31278,13.16671 4.61032,13.46418 0.33435,0.3716 19.59944,-6.28577 19.45071,-6.73204 -0.0746,-0.22348 -3.05037,-9.14619 -6.62049,-19.81994 -4.76003,-14.3185 -6.62188,-19.45081 -7.03098,-19.41358 z M 317.49688,307.8646 c -0.22344,0 -0.52139,0.29796 -0.6331,0.63315 -0.5578,1.82236 -2.82602,12.16359 -2.67729,12.27516 0.0744,0.0744 8.99973,2.19165 19.78431,4.68341 10.82172,2.45459 19.74698,4.53931 19.78422,4.57647 0.33437,0.22347 -2.71461,12.42057 -3.04937,12.42057 -0.22346,0 -9.14674,-2.00766 -19.85691,-4.49941 -10.71013,-2.45461 -19.5615,-4.38869 -19.67307,-4.27713 -0.40884,0.40887 -3.04873,12.68079 -2.78844,12.90392 0.14893,0.11171 7.47522,1.85818 16.25169,3.86652 8.81355,1.97106 20.52876,4.68918 26.03253,5.95362 5.54105,1.30173 10.11159,2.3027 10.14874,2.22838 0.22346,-0.22345 9.04015,-38.60018 8.8914,-38.71176 -0.14894,-0.18621 -51.65707,-12.05273 -52.21488,-12.05273 z m 592.62946,35.33282 -1.37284,0.0414 c -0.744,0.0414 -3.05252,0.25739 -5.09785,0.51728 -2.04536,0.29713 -14.019,1.78693 -26.58861,3.34897 -12.56954,1.56197 -22.98283,2.93927 -23.09449,3.08801 -0.22346,0.29796 4.76329,40.9817 5.09796,41.31648 0.26068,0.25988 19.96705,-2.15456 20.30172,-2.48928 0.11171,-0.14893 0.11336,-1.18959 -0.0746,-2.30537 -0.14893,-1.11568 -0.59751,-4.35466 -0.93228,-7.18113 l -0.66705,-5.16677 -2.08282,0.22264 c -1.15284,0.14893 -2.52864,0.33354 -3.04932,0.44447 l -0.96654,0.18788 -0.70595,-6.02646 c -0.4833,-3.97939 -0.59834,-6.06312 -0.33765,-6.13754 0.37158,-0.14894 26.74213,-3.41908 26.85367,-3.34466 0.18623,0.14894 1.33644,11.78848 1.15049,11.93729 -0.11171,0.1116 -1.30002,0.29631 -2.63875,0.44445 -1.3388,0.11171 -2.60256,0.30045 -2.78843,0.44943 -0.33435,0.22349 1.1147,13.7584 1.56101,14.46504 0.22346,0.37163 20.00554,-2.0459 20.34023,-2.45501 0.1116,-0.14894 -0.85261,-8.6259 -2.117,-18.85331 -1.26442,-10.22751 -2.41728,-19.48986 -2.56606,-20.56841 z m -602.05543,5.79545 c -0.32358,0.002 -0.42291,0.19535 -0.53877,0.63732 -0.48331,2.19421 -1.60024,12.0135 -1.37711,12.23666 0.14892,0.1116 2.7156,0.78047 5.76506,1.44989 4.90885,1.07852 5.46564,1.26508 5.46564,1.97174 0,0.89256 -1.48792,12.64428 -1.5995,12.68152 -0.033,0 -2.71353,-0.0746 -5.94897,-0.18375 -3.19817,-0.1116 -5.83905,-0.18787 -5.87621,-0.18787 -0.14894,0 -1.67258,12.71794 -1.56103,12.90391 0.0746,0.18624 12.34758,0.29962 27.26006,0.29962 h 27.11031 l 0.22263,-1.22752 c 0.78125,-4.35134 3.49356,-26.85366 3.2332,-27.03963 -0.14894,-0.14894 -11.45054,-3.1207 -25.17292,-6.61658 -13.72247,-3.53314 -25.47737,-6.54616 -26.1096,-6.73213 -0.4047,-0.12579 -0.67862,-0.19367 -0.87246,-0.19202 z m 22.85067,18.75062 c 0.22344,0 3.645,0.74157 7.58696,1.63388 3.94195,0.85539 7.253,1.67627 7.36458,1.78784 0.11171,0.11171 -10e-4,1.93342 -0.29961,4.01615 l -0.44524,3.83223 -5.24327,-0.26071 c -2.86349,-0.11171 -6.43436,-0.22263 -7.95903,-0.22263 H 329.176 l 0.26071,-2.15989 c 0.78124,-6.69437 1.1122,-8.62687 1.48405,-8.62687 z m 26.14377,25.66241 -4.127,0.0746 c -2.26853,0 -4.61115,0.0744 -5.24336,0.14979 -0.59502,0.033 -10.85771,0.29547 -22.79503,0.55619 -11.90017,0.26071 -21.7555,0.59674 -21.86708,0.78298 -0.1116,0.18621 -0.11421,3.23449 0.033,6.80477 l 0.29959,6.43267 7.88209,-0.18374 7.88628,-0.22264 0.22264,9.2599 c 0.14893,5.09509 0.2607,10.9709 0.2607,13.05355 0,2.08273 0.10923,3.86907 0.29543,3.94349 0.33436,0.22346 30.72,-0.40805 34.99664,-0.706 l 3.12205,-0.22678 -0.2607,-13.27596 c -0.11171,-7.28937 -0.33435,-16.21374 -0.48331,-19.85842 z m 504.01945,5.18381 c -0.73986,-0.017 -0.75312,0.0331 -0.75312,0.0943 0,0.0746 -0.25821,3.12715 -0.55615,6.80909 -0.29709,3.68188 -0.56027,6.95205 -0.56027,7.24958 0,0.37163 5.72964,3.94307 15.58448,9.67048 8.55327,5.02078 15.54335,9.15123 15.46903,9.22565 -0.0414,0.033 -4.42329,-0.22432 -9.70395,-0.63319 -21.94107,-1.71076 -22.12983,-1.714 -22.42737,-1.19332 -0.29709,0.48337 -1.3393,14.09649 -1.11617,14.31963 0.0746,0.0746 6.17266,0.55867 13.53592,1.11627 7.36325,0.55785 19.97284,1.48921 28.04262,2.12147 8.03263,0.63234 14.65045,1.07944 14.72487,1.00512 0.0744,-0.0746 0.29877,-2.52935 0.5222,-5.50462 0.22346,-2.97527 0.52141,-6.25108 0.63311,-7.29235 l 0.18374,-1.89478 -15.50753,-9.07591 c -8.516,-4.98358 -15.20918,-9.1128 -14.87447,-9.18712 0.33433,-0.0746 7.47507,0.41133 15.87954,1.0436 8.40451,0.66957 15.35746,1.11667 15.46902,1.00511 0.22346,-0.26072 1.34063,-14.39463 1.15474,-14.58052 -0.0744,-0.11171 -4.57391,-0.51895 -10.00338,-0.92813 -34.69646,-2.64986 -43.47624,-3.31456 -45.69709,-3.37033 z m -517.03357,8.57549 0.26071,3.42164 c 0.11171,1.85959 0.22261,4.76046 0.22261,6.47125 v 3.04953 l -6.20983,0.14979 c -3.45845,0.0746 -6.36044,0.10845 -6.50917,0.033 -0.18621,-0.1116 -0.29958,-2.97397 -0.29958,-6.43268 v -6.28303 l 3.83195,-0.1498 c 2.08258,-0.0331 4.90958,-0.15064 6.24839,-0.18787 z m 14.24154,28.37831 c -0.52056,-0.0331 -3.3459,0.40721 -6.32097,0.92813 -4.3882,0.81858 -5.39265,1.11445 -5.50423,1.67236 -0.0746,0.3344 0.33602,3.23726 0.8938,6.39851 0.55782,3.16117 0.92974,5.83775 0.85543,5.94931 -0.11171,0.0746 -9.11057,1.74869 -20.0067,3.68259 -10.85887,1.89676 -19.85954,3.56971 -19.93392,3.64405 -0.14894,0.14893 1.96959,13.01606 2.15547,13.16479 0.0414,0.0414 9.07465,-1.52323 20.04518,-3.49431 11.00768,-1.93391 20.08325,-3.45755 20.19479,-3.38314 0.0746,0.1116 0.66788,3.01243 1.30018,6.47117 0.59504,3.42154 1.15302,6.28435 1.22741,6.3215 0.29794,0.29795 12.90597,-2.2687 12.86871,-2.56625 0,-0.22347 -1.56193,-9.03831 -3.42139,-19.56329 l -3.4214,-19.15268 z m 498.43404,14.31532 -1.41562,4.98708 c -0.744,2.71499 -1.7819,6.32027 -2.22813,7.9938 l -0.85534,3.01112 5.98739,5.50454 c 3.30973,3.01244 6.4321,5.87525 6.9155,6.32151 0.89257,0.81856 0.89406,0.8929 0.4105,2.93836 -0.33435,1.45042 -0.63313,2.01057 -1.00504,1.899 -1.71065,-0.66959 -15.17152,-4.31591 -15.46905,-4.20436 -0.48332,0.14894 -4.35484,13.72397 -4.02006,14.05877 0.1116,0.14894 5.91453,1.82259 12.86871,3.79373 6.95415,1.93392 19.0413,5.31759 26.88796,7.54904 8.55325,2.41734 14.35499,3.86716 14.54094,3.64403 0.33437,-0.37162 11.19226,-38.82588 11.19226,-39.64412 0,-0.63231 -36.70588,-11.00807 -37.15212,-10.48738 -0.14894,0.18622 -0.66704,1.74644 -1.15045,3.49439 -0.48332,1.74793 -0.93064,3.2373 -1.00505,3.34897 -0.0744,0.0746 -3.38413,-3.08502 -7.32609,-7.02727 z m 25.03191,25.05078 c 0.77213,0.0414 2.62671,0.48086 5.61106,1.31739 3.23534,0.92971 5.94721,1.74761 6.02163,1.82202 0.0746,0.0746 -0.59424,2.71679 -1.44981,5.91513 -1.30155,4.6489 -1.7105,5.72742 -2.19398,5.61587 -0.33435,-0.11171 -3.01239,-0.89266 -5.98744,-1.71088 -2.97506,-0.85538 -5.42982,-1.59796 -5.50421,-1.67236 -0.0746,-0.0746 2.45564,-9.37495 3.08787,-11.19728 0.017,-0.0746 0.15727,-0.1035 0.41462,-0.0902 z m -514.76273,1.57827 c -0.1862,-0.0331 -3.75682,1.30457 -7.95905,3.01534 -4.20223,1.67353 -15.35937,6.13528 -24.80512,9.85431 -9.48299,3.75625 -17.21825,6.99101 -17.21825,7.1769 0,0.4461 4.50108,11.90202 4.79851,12.23673 0.11171,0.1116 8.17935,0.81692 17.88539,1.56114 9.70611,0.7441 18.07474,1.37549 18.5953,1.44991 0.55779,0.0331 -5.20535,2.49416 -14.50238,6.17611 -8.47896,3.34714 -15.54568,6.17269 -15.65726,6.32152 -0.33433,0.33437 4.53619,12.30932 4.98243,12.30932 0.4833,0 49.42661,-19.33974 49.79854,-19.67444 0.22343,-0.22347 -4.27665,-12.12236 -4.76005,-12.64303 -0.0746,-0.0746 -8.33213,-0.783 -18.37292,-1.52689 -10.04081,-0.7813 -18.33279,-1.44824 -18.40721,-1.52265 -0.0331,-0.0746 6.65602,-2.82929 14.87458,-6.06486 8.25576,-3.23566 15.20869,-6.02306 15.46905,-6.17179 0.33432,-0.22348 -0.22344,-1.93434 -1.97159,-6.36003 -1.33883,-3.34722 -2.60126,-6.10042 -2.74997,-6.13759 z m 17.70149,41.91522 c -0.11171,0 -7.25194,4.05255 -15.87961,8.99892 -8.62758,4.94644 -15.7299,9.1124 -15.7299,9.29837 0,0.14894 0.81933,1.7477 1.86046,3.53287 l 1.85606,3.23775 -9.85359,0.11104 c -5.42947,0.0414 -9.85367,0.18455 -9.85367,0.33354 0,0.11171 1.63435,3.05093 3.60528,6.50973 l 3.60959,6.32151 5.98743,-0.33355 c 3.2726,-0.14893 7.43403,-0.2996 9.29339,-0.2996 h 3.34871 l 1.00507,1.86057 c 0.52056,1.00412 0.92971,1.93417 0.85531,2.0829 -0.0746,0.11171 -2.30653,1.45072 -4.90973,2.93836 -2.60313,1.52482 -5.72843,3.30827 -6.88126,3.97766 l -2.11701,1.22753 3.27176,5.69274 c 1.78498,3.08685 3.38215,5.65002 3.60528,5.65002 0.59505,0 46.59653,-26.36698 46.63369,-26.70169 0,-0.40887 -19.44697,-34.47611 -19.70726,-34.43894 z m -3.9047,17.96366 c 0.18621,0.0744 1.15443,1.44866 2.12132,3.12228 0.96686,1.67362 2.33977,4.13021 3.08354,5.43186 l 1.33856,2.37804 -5.57687,3.19925 c -3.08662,1.74804 -5.72884,3.19924 -5.91471,3.19924 -0.40883,0 -6.54161,-10.78734 -6.24408,-11.04762 0.55779,-0.59512 10.85756,-6.35737 11.19224,-6.28305 z m 426.80274,29.15251 c -0.53051,0.14723 -3.19648,2.69659 -7.69389,7.4036 -4.05351,4.27695 -8.55037,8.92567 -9.92636,10.37616 l -2.56606,2.64322 4.38796,5.35489 c 2.4544,2.93803 10.18968,12.38365 17.21825,20.97469 6.99133,8.59105 12.82856,15.69645 12.90289,15.80802 0.14894,0.14894 8.73673,-8.77894 8.95988,-9.33677 0.0746,-0.18623 -1.56005,-2.22923 -3.60538,-4.57226 -2.0825,-2.30578 -3.75799,-4.38919 -3.72073,-4.5379 0,-0.18623 2.04599,-2.45643 4.53766,-5.05974 l 4.53757,-4.76039 4.64888,3.68252 4.64882,3.68251 1.22739,-1.15476 c 0.70679,-0.66957 2.74964,-2.7893 4.57186,-4.76038 l 3.31023,-3.60553 -14.98572,-11.08192 c -8.21856,-6.09928 -17.88645,-13.27868 -21.45646,-15.91923 -3.57012,-2.64051 -6.69243,-4.94654 -6.91554,-5.13242 -0.017,-0.009 -0.0497,-0.017 -0.0827,-0.003 z m -387.49505,6.03066 c -0.18621,0 -2.15541,1.93103 -4.34948,4.31131 l -4.05441,4.3155 1.86044,1.71088 c 1.00405,0.96696 4.86889,4.64889 8.58769,8.18201 l 6.80432,6.47117 -2.82263,3.12226 c -1.56193,1.71077 -2.97887,3.1265 -3.16484,3.1265 -0.14893,0 -2.34112,-1.97085 -4.83269,-4.38826 -2.49166,-2.3802 -4.72213,-4.46185 -4.98242,-4.61067 -0.29793,-0.18621 -1.8233,1.14988 -4.42649,3.93918 -2.15691,2.34302 -3.94312,4.35202 -3.94312,4.53799 0,0.14894 2.15945,2.38244 4.83701,4.9486 l 4.83268,4.68332 -2.93805,3.16075 -2.93817,3.12657 -1.82188,-1.63809 c -0.96689,-0.89263 -4.75945,-4.50091 -8.40389,-7.95964 -3.68158,-3.49596 -6.84333,-6.39683 -7.10362,-6.47122 -0.2607,-0.0331 -2.26788,1.82415 -4.49918,4.20434 -3.38404,3.6447 -3.94039,4.38976 -3.49406,4.79886 0.2971,0.26073 5.80225,5.46589 12.23577,11.56519 6.43353,6.09928 12.30884,11.67848 13.05259,12.34788 l 1.33867,1.26178 9.66976,-10.14946 c 5.31784,-5.57868 13.68349,-14.4336 18.62949,-19.64034 l 8.99825,-9.44371 -1.00502,-1.0051 c -0.59505,-0.52061 -4.86984,-4.61307 -9.59274,-9.07598 -4.68571,-4.46285 -10.26442,-9.77927 -12.34698,-11.78757 -2.0825,-2.00834 -3.94113,-3.64405 -4.127,-3.64405 z m 389.69331,10.48732 c 0.14894,0.0746 2.93725,2.19421 6.20982,4.76038 3.30975,2.56616 5.98746,4.72157 5.98746,4.83313 0.033,0.33438 -7.32701,7.99589 -7.47574,7.80992 -1.71065,-1.97117 -8.84772,-10.11272 -9.55424,-10.89372 l -0.93238,-1.00509 2.75425,-2.78864 c 1.5247,-1.52483 2.89927,-2.75314 3.01083,-2.71598 z m -24.35615,7.02726 c -0.22346,0 -7.10373,5.28214 -15.28507,11.75339 -8.1814,6.434 -15.17415,11.90062 -15.54601,12.19816 -0.63227,0.44612 0.6712,2.19372 15.9181,21.71893 9.11107,11.67792 16.69736,21.23558 16.8461,21.23558 0.14894,0 4.01483,-2.93637 8.62624,-6.54392 4.61131,-3.60742 11.60406,-9.03856 15.54602,-12.12541 3.9047,-3.04968 7.1379,-5.72495 7.1379,-5.91091 0,-0.14894 -2.82545,-3.94578 -6.32108,-8.4087 l -6.32104,-8.10505 -2.12134,-0.22264 c -1.18998,-0.14894 -3.27157,-0.26237 -4.61031,-0.29963 l -2.45482,-0.0414 0.85532,-3.82793 c 0.48331,-2.08265 0.89389,-4.09338 0.89389,-4.46525 0,-0.7813 -12.56886,-16.99579 -13.1639,-16.95855 z m -329.41248,15.95774 c -0.11171,0 -1.4904,1.96952 -3.0151,4.34978 -1.5247,2.41737 -7.99364,12.56995 -14.35277,22.57432 -6.39637,9.96713 -11.52881,18.33372 -11.49167,18.5197 0.14893,0.37163 32.98516,21.49653 33.4314,21.49653 0.1116,0 2.79091,-4.05131 5.9147,-8.96052 l 5.7266,-9.00314 -1.37715,-4.0889 c -0.74401,-2.26861 -1.30183,-4.1642 -1.22741,-4.23853 0.0331,-0.0746 1.52683,-0.29713 3.23749,-0.48336 5.95013,-0.70682 4.79537,0.25823 10.93139,-9.33686 3.01221,-4.68597 5.50553,-8.81262 5.54269,-9.11008 0.0331,-0.37162 -5.9511,-4.39018 -16.51255,-11.15887 -9.11109,-5.80183 -16.65887,-10.56007 -16.80762,-10.56007 z m 326.06382,0.73995 c 0.0331,0 0.9303,1.08191 1.97161,2.42073 1.71064,2.15714 1.89752,2.6039 1.86036,4.16587 -0.0414,3.94223 -0.22262,4.27703 -4.12708,7.32665 -1.97103,1.56203 -3.72304,2.82291 -3.90893,2.82291 -0.2971,-0.0414 -6.1321,-7.47414 -6.35523,-8.14356 -0.0746,-0.2607 10.11303,-8.5926 10.55927,-8.5926 z m -29.67639,9.03739 c -0.25986,-0.0331 -8.14492,4.31494 -17.47911,9.67042 -12.75548,7.28938 -16.99355,9.89436 -16.80759,10.30348 0.66952,1.82235 26.44206,46.45057 26.77671,46.37624 0.22347,-0.0331 8.14321,-4.50026 17.5518,-9.89288 10.85895,-6.21086 17.07058,-9.96614 16.88463,-10.22643 -0.11171,-0.22347 -6.13756,-10.70963 -13.35203,-23.28007 -7.17728,-12.57055 -13.31402,-22.91361 -13.57441,-22.95076 z m -291.10566,6.88607 c 0.16715,-0.017 0.32194,0.0663 0.51724,0.18375 0.40885,0.2607 3.01479,1.89477 5.69233,3.60555 2.71479,1.74802 4.94394,3.27288 4.94394,3.42171 0,0.14892 -0.74237,1.41381 -1.67218,2.82713 -1.63631,2.52893 -1.6743,2.60415 -4.05432,3.19923 -1.33883,0.33439 -2.67623,0.59427 -3.01092,0.59427 -0.52056,0 -6.95582,-3.86742 -8.10867,-4.87162 -0.18621,-0.14894 0.96565,-2.26855 2.52757,-4.76037 2.06388,-3.23559 2.66448,-4.14949 3.16477,-4.20007 z m 331.49527,3.2292 c 0.83845,-0.0331 1.8655,0.18707 3.56681,0.52144 1.00413,0.18622 1.75004,0.78378 3.23759,2.64323 1.07842,1.33889 1.93046,2.52867 1.85604,2.67748 -0.033,0.14893 -2.41402,2.11833 -5.27751,4.34977 l -5.2091,4.09313 -1.11619,-1.22752 c -0.59504,-0.70681 -2.15698,-2.60647 -3.42137,-4.24285 l -2.30522,-2.97253 3.79347,-2.97685 c 2.60315,-2.06875 3.47801,-2.81447 4.87548,-2.86561 z m -370.46074,3.81942 c -0.3956,0.0414 -1.91823,1.70557 -4.32382,4.73894 -2.19405,2.75216 -4.05267,5.24002 -4.12709,5.50033 -0.11172,0.37162 9.18316,8.03552 10.18731,8.37023 0.48332,0.14893 8.70296,-10.37806 8.33104,-10.67552 -0.29711,-0.29715 -9.22239,-7.32613 -10.00331,-7.92114 -0.017,-0.009 -0.0414,-0.017 -0.0663,-0.017 z m 325.11008,4.23425 c 0.18621,0.017 0.29628,0.10428 0.38898,0.24416 0.22345,0.33438 3.30858,5.68959 6.80428,11.82604 3.53287,6.1737 6.39373,11.3408 6.39373,11.52668 0,0.33522 -10.5232,6.47125 -11.08101,6.47125 -0.33435,0 -13.98142,-23.76267 -13.75829,-23.98582 0.0746,-0.0746 2.63862,-1.56245 5.68801,-3.3104 3.73745,-2.14779 5.00625,-2.80992 5.56405,-2.7716 z m -239.3655,2.17707 c -0.14894,0 -0.4825,0.37082 -0.70596,0.8169 -1.41311,2.67774 -19.0397,35.11002 -19.15127,35.22166 -0.0746,0.0746 -1.04113,-0.25987 -2.19396,-0.70598 -1.15279,-0.44612 -2.11958,-0.78462 -2.19398,-0.71014 -0.29711,0.40887 -4.64914,12.01386 -4.53759,12.12542 0.0746,0.0744 3.23476,1.37806 7.06517,2.86571 4.87166,1.93391 6.99174,2.60282 7.21487,2.30527 0.18621,-0.22345 4.53906,-8.03427 9.70826,-17.36914 5.13196,-9.33488 9.55615,-17.25817 9.85359,-17.63003 0.44608,-0.63234 0.6687,-0.59591 4.01584,0.70599 l 3.53264,1.37723 -7.39876,18.85761 c -4.05353,10.33901 -7.32775,19.0052 -7.25336,19.19117 0.14894,0.48337 11.93824,5.01946 12.23575,4.72191 0.6323,-0.55785 19.70968,-49.94819 19.41216,-50.20848 -0.3716,-0.33438 -29.19456,-11.56516 -29.60365,-11.56516 z m 207.99559,0.0414 c -0.1116,0 -2.93864,0.96422 -6.24839,2.11716 -3.34691,1.15286 -6.06019,2.26904 -6.06019,2.45502 0,0.18623 1.4127,4.49959 3.16061,9.63191 1.74781,5.09518 3.1207,9.33389 3.08347,9.37106 -0.22344,0.14892 -12.3825,4.24026 -12.41964,4.16586 0,-0.0331 -0.8906,-2.60034 -1.89464,-5.64996 -1.04129,-3.08686 -2.5322,-7.36504 -3.27598,-9.55925 l -1.37282,-3.97767 -5.98746,2.07868 c -3.30974,1.11569 -6.17356,2.1578 -6.35952,2.34378 -0.26072,0.26071 16.36191,49.76384 17.06844,50.99119 0.18622,0.22348 5.43006,-1.45172 12.34708,-3.94349 0.33435,-0.1116 -0.52304,-3.051 -2.86541,-9.93136 -1.82222,-5.35546 -3.27043,-9.78164 -3.23327,-9.78164 0.0331,-0.0331 2.67679,-0.96589 5.83772,-2.04441 3.16104,-1.0785 5.94824,-2.04706 6.17135,-2.12139 0.22346,-0.0746 1.74856,3.83183 3.68233,9.55917 1.93379,5.69027 3.46177,9.6705 3.7593,9.6705 0.52056,0 11.97251,-3.90558 12.26994,-4.16587 0.0746,-0.11171 -7.4e-4,-0.67122 -0.26069,-1.26601 -0.22347,-0.59508 -3.82948,-11.11831 -8.03171,-23.3913 -8.85077,-25.99637 -9.07293,-26.58913 -9.37035,-26.55199 z m -266.26635,4.05033 c 0.1116,0 1.9317,1.11618 4.08858,2.4551 2.11973,1.37605 3.90605,2.49482 3.94319,2.53197 0.0746,0.0414 0.37077,1.37211 0.70593,2.93408 l 0.55616,2.8656 -1.74492,2.78864 c -1.63621,2.60342 -1.82519,2.75166 -2.53179,2.30538 -5.80132,-3.60754 -10.63203,-6.84253 -10.63203,-7.06566 0,-0.37163 5.35508,-8.81511 5.61535,-8.81511 z m 91.21883,8.92626 c -0.25986,0 -0.55532,0.44694 -0.66705,1.00512 -1.30159,6.24809 -9.11024,51.99125 -8.88713,52.21438 0.14894,0.1116 2.9745,0.70849 6.20984,1.26608 3.27258,0.55785 6.13642,1.08037 6.35953,1.15475 0.2607,0.1116 5.13288,-6.25166 11.38043,-14.87987 5.98729,-8.29359 10.96698,-15.02274 11.00414,-14.94832 0.1116,0.0746 -0.92798,6.17227 -3.97737,23.28006 -0.81851,4.61166 -1.48837,8.62863 -1.48837,8.92617 0,0.44612 1.4902,0.81856 6.54774,1.71088 4.31379,0.74405 6.58027,1.00452 6.65466,0.74405 0.29712,-0.89263 9.10941,-51.50914 9.10941,-52.25297 0,-0.48336 -0.29628,-0.81774 -0.81685,-0.96662 -1.41311,-0.29713 -11.67703,-2.04441 -12.08603,-2.04441 -0.22345,0 -5.27904,6.76598 -11.30347,15.05957 -5.98729,8.25633 -10.93272,14.98979 -10.96987,14.95262 -0.0331,-0.0414 1.26203,-7.44085 2.8611,-16.4411 1.5991,-9.00016 2.8257,-16.39954 2.78844,-16.4367 -0.14893,-0.14894 -12.12403,-2.34386 -12.71907,-2.34386 z m 135.40202,0.89396 c -0.22346,-0.0414 -9.03601,1.48639 -19.63462,3.38314 -10.56135,1.85951 -19.30058,3.49828 -19.41215,3.60985 -0.26068,0.22348 8.96294,52.6966 9.29762,53.0313 0.14892,0.18623 35.21569,-5.76161 38.41379,-6.50543 0.59505,-0.14893 0.82017,-0.4494 0.78292,-1.19332 -0.0331,-2.04549 -9.11264,-52.25121 -9.44731,-52.32554 z m -91.25734,6.91593 -0.18787,1.56545 c -0.1116,0.89255 -0.37158,11.3773 -0.59422,23.35273 -0.22346,11.97545 -0.4833,23.43004 -0.59419,25.5127 l -0.22263,3.75958 6.65457,0.22264 c 3.64444,0.11171 6.73254,0.11014 6.88135,-0.0414 0.1116,-0.14894 0.33433,-6.4705 0.48333,-14.02019 0.14892,-7.58695 0.37324,-15.25041 0.52137,-17.03562 l 0.22262,-3.2719 5.39298,10.82093 c 2.97505,5.9134 5.46533,10.78676 5.57686,10.78676 0.11172,0 2.78796,-4.72405 5.94899,-10.5258 l 5.76507,-10.48738 0.11103,2.15995 c 0.0746,1.19009 -0.0414,8.88479 -0.26069,17.10397 -0.18621,8.21909 -0.29378,14.98814 -0.25655,15.0253 0.0331,0.0331 3.04572,0.11336 6.7274,0.18788 l 6.69738,0.11093 0.26068,-10.41463 c 0.11171,-5.72733 0.44442,-17.84955 0.66705,-26.92411 0.22346,-9.07458 0.37407,-16.5121 0.29961,-16.58642 -0.0746,-0.0414 -3.16254,-0.18623 -6.88128,-0.26073 l -6.73164,-0.18787 -5.91477,10.714 c -3.23535,5.91331 -5.94856,10.74826 -6.06011,10.74826 -0.1116,-0.0331 -2.60058,-4.94875 -5.53841,-10.93648 l -5.32031,-10.8979 -4.49909,-0.26072 c -2.45442,-0.1116 -5.50272,-0.22264 -6.80437,-0.22264 z m -114.76238,5.5816 c -0.0746,0 -0.40799,0.37079 -0.70593,0.81689 -1.00403,1.59921 -5.58021,11.04433 -5.43146,11.19314 0.11171,0.0746 2.82774,1.48715 6.02593,3.16078 5.24351,2.71488 5.87389,2.97866 6.17134,2.42075 0.18621,-0.37163 1.63714,-3.12509 3.19901,-6.13754 l 2.86549,-5.46614 -5.95328,-3.01533 c -3.30974,-1.63638 -6.05978,-2.97254 -6.17133,-2.97254 z m 193.83525,3.08808 c 1.81982,-0.0744 1.6668,0.7722 2.10842,3.3061 4.35102,24.50873 4.23956,23.50438 3.42138,23.80191 -1.71066,0.59509 -11.86427,2.19654 -12.12462,1.89901 -0.14894,-0.14894 -1.18787,-5.83875 -2.37786,-12.57029 -1.15286,-6.76871 -2.19357,-12.79642 -2.30512,-13.3915 l -0.18788,-1.11627 5.50423,-0.96664 c 3.06798,-0.54376 4.86986,-0.91787 5.96179,-0.96232 z" style="display:inline;fill:#fff;stroke:none;stroke-width:.00449348"/><path id="path3" d="m 307.15903,152.27201 c -1.11433,0 -2.12035,0.0443 -2.25145,0.0879 -0.10925,0.0437 -0.80673,0.23883 -1.52777,0.45733 -3.38668,0.98324 -6.79711,2.84146 -8.80728,4.76423 -1.72612,1.63872 -2.57661,3.36558 -3.53799,7.12372 -0.39329,1.50762 -0.94045,3.34289 -1.24634,4.08578 l -0.52517,1.33176 0.67845,2.88467 0.69855,2.86206 -1.63833,1.70366 c -1.37652,1.46393 -1.72509,1.96732 -2.33688,3.5405 -0.65549,1.70426 -0.87364,2.0092 -3.146,4.34711 -3.99847,4.10773 -6.73036,8.19396 -8.41278,12.56388 -5.30945,13.69969 -0.72136,27.86 11.25222,34.69893 7.14482,4.08586 14.88005,4.62999 23.68544,1.65843 2.05386,-0.67734 7.36204,-2.8836 9.00076,-3.71388 l 0.85184,-0.43724 -0.17339,2.47008 c -0.28405,3.91106 -0.15326,8.47768 0.34928,12.91315 l 0.47994,4.08577 -0.43722,2.46755 c -0.89584,4.95986 -6.51058,25.63036 -9.30733,34.2391 -1.13618,3.53964 -1.50832,5.39617 -1.31167,6.79455 0.1748,1.26728 1.11494,3.27855 2.09817,4.48028 1.00508,1.20173 25.80425,28.22844 29.69348,32.31431 12.51983,13.24087 17.32631,18.07127 19.13982,19.273 0.50255,0.30589 0.5691,0.30436 0.9624,-0.0452 0.39329,-0.34959 0.43713,-0.32588 1.22372,0.19851 0.89584,0.61179 0.82938,0.63274 2.5555,-0.74378 1.42022,-1.11433 1.46405,-1.35498 0.72117,-2.95 -1.00509,-2.18496 -3.55998,-5.11318 -8.061,-9.26461 -1.74796,-1.59502 -4.72025,-4.58741 -6.62116,-6.64127 -1.92277,-2.07571 -5.98706,-6.3135 -9.046,-9.43799 -3.05895,-3.12449 -7.03648,-7.25641 -8.85,-9.17917 -1.79167,-1.92277 -5.94194,-6.20403 -9.21938,-9.50333 -6.59858,-6.68598 -6.92619,-7.12423 -6.8825,-9.50583 0.0218,-1.37653 0.54567,-3.36393 2.70878,-10.15916 1.98831,-6.22714 4.02148,-13.19677 5.98795,-20.64749 2.22866,-8.4121 2.29381,-8.93693 1.63833,-15.57921 -0.89584,-9.15498 -0.41466,-13.52562 1.87956,-17.02155 1.13617,-1.72611 1.20058,-1.74755 2.11827,-0.63322 1.15803,1.44208 1.2236,1.74778 1.00511,4.87227 -0.28405,4.06403 0.0444,9.04585 1.31167,19.73032 0.78658,6.75153 1.09131,10.37818 1.11315,13.04383 0,3.10265 -0.12984,3.47566 -1.89966,5.35472 -1.13617,1.17989 -1.181,1.28943 -1.181,2.44745 0,1.79167 1.81316,12.86869 2.64344,16.18982 0.1311,0.4807 0.41625,1.5302 0.67845,2.31678 0.43699,1.44208 0.43769,1.46375 1.31167,1.573 0.50254,0.0656 0.95966,0.21742 1.02521,0.32666 0.0655,0.10925 1.00493,0.26188 2.07555,0.34928 1.09249,0.0656 2.01176,0.19752 2.05546,0.24123 0.21849,0.19665 0.45732,2.20779 0.45732,3.75911 0.0218,0.85213 -0.17426,2.5765 -0.41461,3.82193 -0.78658,3.95478 -0.48072,4.63154 6.59856,14.11427 4.12958,5.52795 5.00406,6.46855 6.18394,6.77445 2.35976,0.58994 3.10322,0.69855 4.89489,0.69855 h 1.96499 l 0.41712,1.13577 c 0.74289,1.96647 0.9825,3.67147 0.9825,6.62118 l -0.0226,2.84194 2.22883,2.27156 c 3.36484,3.45223 7.6257,7.25444 10.33505,9.2646 1.33283,0.98323 2.42406,1.85749 2.40222,1.9449 -0.0437,0.17479 -26.43661,34.34565 -30.58803,39.61141 -4.39178,5.5498 -6.05328,7.82425 -6.05328,8.2394 0,0.54624 0.96219,1.48504 1.53027,1.48504 0.24035,0 0.85185,-0.37212 1.35439,-0.80911 1.90091,-1.68242 8.63055,-8.03907 9.89783,-9.35004 0.72104,-0.76474 4.65356,-4.50191 8.73944,-8.34744 4.08587,-3.84553 11.12168,-10.46671 15.64455,-14.72738 4.50102,-4.26068 9.15616,-8.60782 10.29233,-9.65661 l 2.09566,-1.92227 1.83684,0.0653 1.81423,0.0653 0.17337,2.07555 c 0.0874,1.13619 0.3069,2.27069 0.45984,2.53289 0.1748,0.24035 2.01083,1.37834 4.10839,2.49267 9.41718,5.09096 11.66762,6.09439 16.49638,7.33982 2.6438,0.67734 3.21152,0.74378 5.94272,0.74378 2.07572,0 3.34266,-0.10893 4.1511,-0.34927 1.39838,-0.41515 1.52976,-0.32716 2.44745,1.59561 0.43698,0.91769 0.89554,1.55028 1.35438,1.83432 2.77491,1.70427 13.6999,4.34963 17.93873,4.34963 2.906,0 5.57172,-0.3941 6.81715,-1.02772 4.76322,-2.33792 20.3841,-16.25647 39.7647,-35.37489 4.78508,-4.74135 5.1783,-5.31067 5.59344,-8.50072 0.3059,-2.42531 -0.0649,-8.73964 -0.69855,-11.97339 -0.45884,-2.35974 -1.44201,-5.7889 -1.7916,-6.20403 -0.10925,-0.13109 -0.87263,-0.50399 -1.68105,-0.83173 -1.28913,-0.48069 -1.61739,-0.72022 -2.38211,-1.76899 l -0.91718,-1.22373 0.56789,-0.91716 c 1.15803,-1.85721 1.46211,-2.75436 1.30916,-3.91239 -0.0656,-0.61179 -2.09692,-7.01271 -4.50039,-14.24493 l -4.39233,-13.1544 -2.22882,-1.55037 c -2.88415,-2.01017 -3.05849,-2.16362 -2.9274,-2.38212 0.0656,-0.10925 3.60509,-3.32091 7.88761,-7.16644 4.26068,-3.84553 7.64855,-7.03556 7.49561,-7.10111 -0.15295,-0.0437 -5.76888,-1.68306 -12.49854,-3.60582 l -12.21462,-3.49529 -0.19599,-0.76389 c -0.30589,-1.33282 -2.46804,-3.95626 -8.65149,-10.4456 -1.74797,-1.85723 -3.21286,-3.43049 -3.25656,-3.51788 -0.0655,-0.1748 23.26949,-28.68819 49.27053,-60.17347 3.97662,-4.82876 7.25438,-8.82719 7.25438,-8.89274 0.0218,-0.0656 -0.50136,-0.15153 -1.11315,-0.17337 -0.63365,-0.0218 -2.18528,-0.19709 -3.45255,-0.37188 -2.62196,-0.37145 -10.99094,-1.31094 -20.10223,-2.29417 -10.1819,-1.09249 -24.73474,-2.86377 -42.27997,-5.13613 -4.80692,-0.63364 -5.74467,-0.6969 -6.1161,-0.4347 -0.24036,0.15295 -3.91166,7.10003 -8.19417,15.53398 -18.35367,36.13926 -17.39367,34.2828 -17.83067,34.2391 -0.2185,-0.0218 -1.24462,-0.30798 -2.27155,-0.63574 -1.57317,-0.52438 -2.22846,-0.6106 -4.36972,-0.6106 -2.33791,-0.0218 -2.62151,0.0214 -3.93249,0.63322 -0.76474,0.34959 -2.25224,1.26811 -3.27918,2.03283 -1.83536,1.37652 -1.8786,1.39677 -2.92739,1.24383 -0.56808,-0.0656 -1.94371,-0.37005 -3.05805,-0.67594 -6.46748,-1.72612 -22.89912,-4.15124 -33.23398,-4.87227 l -2.83943,-0.19599 -1.87956,-2.03285 c -2.92785,-3.19005 -28.73225,-31.59463 -34.71904,-38.23691 -7.29777,-8.10622 -8.82798,-9.70143 -10.423,-10.83762 -1.94461,-1.39837 -3.32044,-1.81345 -5.78944,-1.7916 z m -2.31678,3.25656 c 0.19664,0 5.46253,5.57191 12.12666,12.84782 6.46748,7.05743 17.37167,18.96437 24.2106,26.43694 6.86078,7.4944 12.45332,13.72259 12.45332,13.87554 0,0.1311 -2.053,2.03149 -4.56571,4.21645 l -4.58833,3.97521 -2.14089,-1.07045 c -1.17988,-0.58994 -2.1859,-1.07044 -2.25145,-1.07044 -0.0437,0 0.43583,0.85262 1.11317,1.87956 0.65548,1.02693 1.15861,1.92206 1.09306,1.98761 -0.2185,0.2185 -1.61628,-0.17438 -2.20623,-0.63323 -0.30589,-0.24034 -1.07176,-1.04795 -1.68355,-1.76898 l -1.09055,-1.3343 0.50256,-0.43723 c 0.30589,-0.26217 0.80802,-0.6542 1.13577,-0.89454 l 0.61061,-0.43722 -1.11317,-2.14089 c -0.91768,-1.72612 -1.20253,-2.51424 -1.53027,-4.34961 -0.2185,-1.24542 -0.52299,-2.68693 -0.67594,-3.21132 l -0.28394,-0.9599 -1.42224,0.1533 c -0.80844,0.0656 -1.87859,0.13066 -2.42483,0.13066 h -0.98249 l -0.63323,1.63833 c -0.34959,0.89584 -0.74334,1.63833 -0.87444,1.63833 -0.54624,0 -10.11706,-10.0512 -16.51899,-17.37083 -3.77999,-4.32623 -8.80452,-9.87627 -11.16427,-12.34528 -8.04066,-8.43394 -8.28212,-8.74025 -8.28212,-10.77227 0,-2.35975 1.94478,-4.91398 5.52811,-7.25188 1.92277,-1.24542 4.95959,-2.70954 5.65878,-2.73138 z m 138.88871,5.59344 c 0.0705,-0.0209 0.13503,-0.0136 0.20604,0 0.32775,0.0437 7.12243,0.93807 15.1194,1.965 7.99694,1.02693 15.07701,1.94619 15.7325,2.05543 2.66563,0.45884 6.9038,1.07024 11.09893,1.63833 5.02539,0.65549 12.17145,1.87794 12.30255,2.11828 0.0437,0.0874 -3.7586,4.9593 -8.47812,10.815 -4.7195,5.85568 -15.55683,19.35928 -24.10003,30.00005 -28.92889,36.00814 -31.79066,39.57153 -31.83437,39.72448 -0.0218,0.0874 10.59696,2.79442 23.59747,6.02814 27.22462,6.77339 25.10462,6.2293 25.01722,6.4478 -0.0656,0.15294 -3.45231,3.34323 -29.12561,27.5526 -7.21035,6.79522 -17.52294,16.51717 -22.94165,21.62998 -5.41868,5.1128 -15.73127,14.83475 -22.94164,21.62998 -7.21038,6.79523 -17.56797,16.56394 -23.05222,21.72044 -5.4624,5.17836 -13.32745,12.5853 -17.47887,16.49639 -4.15143,3.88923 -8.50109,7.99524 -9.65912,9.13143 -1.15803,1.11432 -2.18415,2.03283 -2.27155,2.03283 -0.0656,0 -0.0431,-0.131 0.0879,-0.28395 0.10925,-0.13109 6.88229,-8.91388 15.05405,-19.48909 8.1499,-10.57521 21.02035,-27.24719 28.58032,-37.03582 7.55996,-9.78862 17.37041,-22.52808 21.80588,-28.29638 4.45733,-5.7683 8.71674,-11.14157 9.50332,-11.92815 l 1.39963,-1.46495 -0.67846,-0.15328 c -0.37144,-0.0874 -0.96132,-0.28427 -1.28906,-0.43722 -0.32774,-0.15295 -9.91869,-2.77419 -21.34604,-5.78944 -11.40549,-3.03709 -20.77968,-5.54898 -20.82338,-5.57083 -0.0437,-0.0437 0.65455,-1.46511 1.55039,-3.19122 0.89583,-1.72612 5.20047,-10.18104 9.54855,-18.76794 4.34807,-8.5869 9.0681,-17.89443 10.48833,-20.64748 1.42022,-2.7749 6.03089,-11.86623 10.26972,-20.21279 4.23882,-8.34654 8.60759,-16.95409 9.72192,-19.1172 1.11433,-2.16312 4.8525,-9.50592 8.30474,-16.32299 5.35316,-10.59161 6.13771,-12.13076 6.63121,-12.27743 z m -151.10081,18.57194 0.52266,0.65582 c 0.28405,0.34959 0.6353,1.02697 0.7664,1.50767 0.37144,1.33282 0.87265,1.72621 3.18871,2.51277 2.42531,0.83029 1.83506,0.30403 8.45549,7.40517 6.99188,7.4944 7.93227,8.52105 11.14417,12.25731 1.70427,1.98832 3.47366,3.93448 3.93249,4.34963 1.17989,1.02693 3.12358,1.87968 5.85477,2.60072 1.28913,0.32774 2.3394,0.633 2.3394,0.69855 -0.0218,0.0656 -1.50761,1.17918 -3.29928,2.49016 l -3.29927,2.38211 -1.24634,-0.28393 c -1.72611,-0.37145 -1.85664,-0.47978 -2.70877,-2.05295 -0.437,-0.76474 -3.58452,-4.78575 -6.99306,-8.91533 -5.44055,-6.55489 -6.83804,-8.10667 -11.16427,-12.27995 -5.04726,-4.87244 -7.16592,-7.25508 -8.0836,-9.0686 -0.83028,-1.61688 -0.83028,-2.83838 0,-3.66866 z m 9.05354,1.00762 c 0.31443,0.0133 1.05615,0.37365 1.95745,0.97998 1.50762,1.00508 3.49679,3.12556 6.83978,7.27699 1.48577,1.85722 4.54327,5.26599 6.77193,7.53834 4.26068,4.39178 8.19449,8.91413 7.84489,9.02338 -0.91768,0.34959 -11.9956,-11.05587 -21.23799,-21.80587 -1.28912,-1.48577 -2.33688,-2.79804 -2.33688,-2.90729 0,-0.0765 0.056,-0.10996 0.16082,-0.10553 z m -10.19183,6.98803 c 0.0874,0.0437 1.46555,1.53022 3.06056,3.32189 1.61688,1.81352 3.66989,4.08503 4.56572,5.06827 3.43039,3.77998 9.59134,10.57624 12.10405,13.37299 l 2.60072,2.90478 -0.80911,1.72628 c -0.96139,2.01016 -1.24381,3.86882 -0.74127,4.63356 0.19664,0.28404 0.87228,0.7653 1.52777,1.09305 1.00508,0.50254 1.57295,0.63279 3.86716,0.76389 l 2.68867,0.17337 -0.67845,0.91969 c -1.35467,1.85723 -4.82747,4.14962 -8.49821,5.61355 -5.70275,2.27236 -12.01701,2.81886 -17.06427,1.44233 -0.91768,-0.26219 -2.60031,-0.91619 -3.7365,-1.46244 -1.70427,-0.80843 -2.38105,-1.28954 -3.71388,-2.66607 -2.7749,-2.79675 -4.76447,-6.20643 -5.70401,-9.78976 -0.56809,-2.14127 -0.78681,-6.29283 -0.43722,-8.82739 0.72104,-5.39686 3.54084,-11.16494 7.49561,-15.27267 1.24543,-1.31096 3.29787,-3.08087 3.47266,-3.01532 z m -10.20187,5.42007 c 0.0437,0 -0.26254,1.07037 -0.65583,2.3595 -2.9497,9.76676 -2.90643,18.0243 0.13066,24.0548 1.85722,3.71443 4.58936,6.3147 9.85511,9.32995 1.44207,0.83028 2.94794,1.79302 3.31938,2.12076 l 0.70106,0.61062 -1.83683,-0.13067 c -5.76831,-0.41514 -10.90227,-4.25965 -13.89567,-10.4431 -2.18496,-4.56657 -2.84194,-7.56088 -2.84194,-13.15439 0,-3.62704 0.0656,-4.39249 0.50255,-6.11862 0.67734,-2.57823 2.36194,-6.05101 3.65107,-7.49308 0.56809,-0.63365 1.04859,-1.13577 1.07044,-1.13577 z m 51.94413,11.52609 c 0.13041,-0.0505 0.27127,-0.0292 0.42968,0.0527 0.24034,0.1311 0.63334,0.56833 0.85183,0.93978 1.00508,1.63872 0.23997,4.80755 -1.66095,6.90511 l -0.80911,0.91716 -0.61061,-0.59049 c -0.89583,-0.85213 -0.9402,-1.22213 -0.30655,-2.46756 0.30589,-0.61179 0.74291,-1.96653 1.00511,-3.01531 0.40968,-1.78621 0.70935,-2.58986 1.1006,-2.74145 z m 29.22861,3.00529 c 1.75071,-0.0737 4.13887,0.11921 7.84238,0.54528 11.90803,1.37652 21.67542,3.49574 24.90916,5.37481 l 0.95988,0.56789 -0.67594,0.67595 c -0.56809,0.58993 -0.85448,0.70084 -2.07806,0.76639 -1.28913,0.0874 -1.79021,-0.0453 -6.26938,-1.5529 -5.61535,-1.90092 -8.71733,-2.70987 -11.09894,-2.88467 l -1.66095,-0.10804 1.31168,0.65583 c 0.72103,0.34959 3.60406,1.41898 6.42265,2.40222 5.41871,1.83537 8.58783,3.25714 9.85512,4.34962 l 0.76388,0.67592 -0.96239,0.87447 c -1.15803,1.07061 -2.03103,1.1376 -3.84456,0.32916 -0.67733,-0.28404 -1.57246,-0.63453 -1.9876,-0.74378 -0.87398,-0.24034 -0.87473,-0.23954 0.47994,1.53028 l 0.93978,1.24384 -1.35439,1.28904 c -0.74288,0.69918 -3.21379,2.84145 -5.50801,4.76422 -4.76321,3.99848 -9.43855,8.58555 -10.02849,9.78728 -0.24034,0.52439 -0.32611,1.05 -0.23871,1.3996 0.30589,1.22358 -1.31274,2.40311 -4.28428,3.146 -2.16312,0.54624 -2.59925,0.766 -4.06316,1.90218 l -1.09306,0.87193 -2.97011,-3.82193 c -1.63872,-2.11942 -2.99523,-3.73694 -2.99523,-3.60585 0,0.65549 1.26867,3.60514 2.62335,6.09601 0.85213,1.52947 1.53027,2.86184 1.53027,2.92739 0,0.0656 -0.61401,0.65618 -1.3569,1.31165 l -1.33177,1.15841 -0.87444,-0.9624 c -2.27237,-2.53455 -4.39112,-6.70816 -7.79966,-15.36061 -1.26728,-3.19005 -2.31558,-5.57203 -2.42484,-5.46278 -0.34959,0.34959 0.23863,3.82419 1.02522,6.18395 0.41514,1.26727 1.98863,4.80856 3.45255,7.8675 1.48578,3.05895 2.92904,6.20396 3.19123,6.99055 0.65549,1.79167 0.71963,4.17276 0.17339,4.719 -0.3496,0.37144 -0.41408,0.37319 -0.82922,-0.0201 -0.76474,-0.69919 -2.3154,-3.36677 -3.49528,-6.01058 -1.52947,-3.43039 -2.92833,-7.18883 -5.68138,-15.36059 l -2.3595,-6.94784 1.04782,-1.24381 c 1.07064,-1.26728 3.16973,-3.25614 7.6489,-7.18907 1.37652,-1.20171 3.73403,-3.38825 5.24165,-4.85217 1.50762,-1.44207 3.21266,-2.90369 3.82445,-3.23143 1.15803,-0.63364 2.27225,-0.97408 4.02295,-1.04782 z m 41.55631,3.44752 c 0.47625,-0.0286 1.63171,0.18957 3.25404,0.61564 1.68242,0.45884 5.9,2.31492 5.9,2.62082 0,0.13109 -4.95957,9.98414 -5.15621,10.22449 -0.10925,0.1311 -11.88544,-6.77129 -11.88544,-6.96794 0,-0.2185 5.19982,-5.02555 5.44017,-5.02555 0.0874,0 1.57239,0.47973 3.27666,1.04783 1.68242,0.58993 3.08066,1.02697 3.08066,1.00513 0,-0.0218 -0.93938,-0.76435 -2.07555,-1.63833 -1.13618,-0.85214 -2.07556,-1.65977 -2.07556,-1.76902 0,-0.0656 0.0825,-0.1035 0.24123,-0.11307 z m -30.28399,3.38975 0.63322,0.67592 c 0.87398,0.91768 2.16311,1.5078 3.80183,1.72629 0.74289,0.10926 1.35439,0.15426 1.35439,0.11057 0,-0.0437 -0.52399,-0.39398 -1.13578,-0.80912 -1.07063,-0.67734 -2.4465,-1.20079 -3.99783,-1.55038 z m -44.47866,0.28896 c 0.34686,0.0874 0.54877,0.37682 0.75634,0.91214 0.78659,2.07571 0.13148,3.01566 -2.14088,3.16861 l -1.37701,0.088 -0.26132,-0.70107 c -0.5681,-1.63872 -0.12986,-2.61986 1.39961,-3.1661 0.78659,-0.27312 1.2764,-0.38893 1.62326,-0.30153 z m -13.13178,2.30171 c 0.71285,-0.0191 1.68621,0.11875 2.65852,0.42465 0.54624,0.15294 1.39789,0.34983 1.92228,0.43723 0.50254,0.0874 0.91716,0.21664 0.91716,0.30404 0,0.52439 -1.96655,1.53028 -3.01533,1.53028 -1.17988,0 -3.38657,-1.35332 -3.58322,-2.18361 -0.0656,-0.31682 0.38776,-0.49348 1.10059,-0.51259 z m 16.98889,1.04028 c 0.28131,-0.10925 0.26602,0.0182 0.11308,0.32416 -0.1311,0.2185 -1.20377,1.7025 -2.42735,3.31937 -2.49085,3.343 -3.42942,4.98205 -4.3471,7.75695 -1.44208,4.30436 -1.74876,8.82736 -1.02773,15.9285 0.76474,7.60364 0.61279,8.54457 -3.34199,21.63249 -4.41362,14.63923 -6.22646,21.3456 -6.79455,25.27853 -0.28405,1.98832 -0.2191,2.16302 1.70366,4.58833 2.53456,3.16819 7.31836,8.19369 20.90882,22.02449 9.00204,9.17683 16.36592,16.84805 19.59966,20.43139 2.70935,3.01524 5.1796,6.00795 5.20144,6.29199 0,0.3059 -1.24582,-0.4803 -2.66604,-1.63833 -3.0808,-2.53455 -13.91783,-13.56846 -21.15005,-21.58727 -1.24543,-1.37652 -5.17795,-5.46343 -8.73944,-9.06861 -9.94157,-10.13821 -14.40067,-14.98988 -16.19234,-17.67739 -0.74288,-1.11432 -0.83041,-1.37516 -0.72116,-2.1836 0.34959,-2.25051 6.688,-26.35166 9.52845,-36.18398 1.42022,-4.89431 1.506,-6.09428 0.74127,-10.92305 -1.20173,-7.66921 -1.2237,-9.81196 -0.21862,-13.74488 0.50255,-1.92277 2.00951,-5.35208 3.49528,-7.93032 l 0.5905,-1.02774 -0.91716,-1.07044 c -0.48069,-0.61179 -0.89455,-1.13556 -0.89455,-1.20111 0,-0.0656 0.85088,-0.32906 1.89966,-0.61311 1.31098,-0.34959 2.46998,-0.85176 3.75911,-1.63832 1.03786,-0.63364 1.61583,-0.9788 1.89715,-1.08805 z m 60.88458,4.95268 c 0.92281,-0.0512 2.73449,0.25839 4.07824,0.7664 0.87398,0.32774 2.29212,1.05013 3.1661,1.61823 1.85722,1.20172 4.28429,3.40832 4.28429,3.86716 0,0.45884 -1.29071,2.68868 -1.5529,2.68868 -0.41514,0 -1.50606,-0.67923 -2.75149,-1.70617 -0.69919,-0.56809 -2.2516,-1.79186 -3.47517,-2.7314 -2.51271,-1.90092 -4.56735,-3.95304 -4.327,-4.32447 0.0601,-0.10379 0.27033,-0.16134 0.57793,-0.17843 z m -3.96265,1.29158 c 0.74289,0 1.24516,0.15275 1.85695,0.56789 1.96646,1.33282 8.82738,8.23722 8.82738,8.89271 0,0.32774 -2.25224,-0.21841 -3.27917,-0.7865 l -1.20111,-0.67594 1.05034,1.44234 c 0.56809,0.80843 1.02522,1.57256 1.02522,1.70366 0,0.37144 -5.7456,6.00921 -8.36755,8.19417 -2.55641,2.1194 -5.26526,4.04055 -5.72411,4.04055 -0.24034,0 -9.94305,-10.8576 -9.94305,-11.14165 0,-0.0656 2.622,-2.47058 5.81205,-5.35473 4.39177,-3.95479 5.9223,-5.22254 6.27189,-5.17885 0.91768,0.1311 2.68752,1.0707 4.80694,2.51278 1.17988,0.80843 2.22938,1.46495 2.31678,1.46495 0.10925,0 -1.00537,-1.17874 -2.44744,-2.62082 -2.906,-2.8623 -2.97158,-3.06056 -1.00512,-3.06056 z m -51.43402,1.92226 0.65583,0.32918 c 0.58994,0.32775 0.67585,0.54504 1.46244,3.90989 1.09248,4.61027 1.90049,7.01421 4.43505,13.28506 3.47409,8.56503 4.41428,11.62369 4.10839,13.26242 -0.48069,2.62195 -3.73493,-2.38046 -5.98544,-9.21937 -1.92276,-5.83385 -4.0423,-15.25129 -4.52299,-19.94893 z m 119.14582,13.373 c 0.0655,0 2.42558,2.31501 5.24418,5.13361 2.81858,2.81861 5.02423,5.13611 4.91499,5.13611 -0.74289,-0.0437 -14.42082,-4.13034 -14.42082,-4.32699 0,-0.28404 4.06501,-5.94273 4.26165,-5.94273 z m -87.76627,3.538 c 0.40081,0.0365 0.78116,0.13721 1.13075,0.30655 0.96138,0.45884 9.26474,8.89363 9.98578,10.13906 0.87398,1.52948 0.91856,2.03145 0.24122,2.70878 -1.02693,1.02693 -2.25085,1.00453 -4.45766,-0.088 -4.10773,-2.07573 -11.90813,-10.706 -10.619,-11.75476 1.14711,-0.95046 2.5165,-1.42128 3.71891,-1.31168 z m 28.35669,0.1985 c 0.0656,-0.0218 -1.31183,2.79704 -3.03794,6.24928 -1.72613,3.47409 -3.27777,6.44386 -3.45256,6.61866 -0.2185,0.21849 -0.76391,0.30656 -1.769,0.30656 -1.72612,-0.0218 -3.12338,-0.52323 -3.12338,-1.11317 0,-0.85213 1.48565,-2.90712 3.58322,-4.98283 2.16311,-2.16312 7.55931,-7.05665 7.79966,-7.0785 z m -34.08582,2.86206 c 0.10925,0.0437 2.35914,2.62146 5.00294,5.72411 2.6438,3.12449 4.80694,5.7465 4.80694,5.81205 0,0.24034 -3.86687,3.93406 -5.22155,4.98283 -0.65549,0.5244 -1.48473,1.09242 -1.83432,1.28906 -0.6555,0.32774 -0.6573,0.32674 -1.99012,-0.96239 -2.16311,-2.07572 -3.47386,-3.25568 -3.36461,-3.01533 0.0655,0.10924 0.5478,0.89676 1.05033,1.74888 0.50255,0.83029 1.07079,1.90066 1.22373,2.3595 0.34959,0.96139 0.41394,2.68726 0.10805,2.86206 -0.3059,0.19665 -1.90144,-1.0932 -2.88467,-2.31678 -0.50254,-0.63364 -1.61716,-2.18528 -2.44744,-3.45255 -1.87907,-2.84046 -1.70284,-2.09753 0.32917,1.50766 1.66057,2.906 2.22895,4.19736 2.44745,5.66129 0.10924,0.72103 0.0662,0.96042 -0.196,1.04782 -0.76474,0.3059 -2.77678,-1.55177 -4.5029,-4.17372 -1.55132,-2.31606 -4.41352,-8.63107 -4.08577,-8.98066 0.0655,-0.0656 0.48191,-0.15132 0.89706,-0.23872 0.65549,-0.0874 0.91652,-2.2e-4 1.61572,0.56789 0.45883,0.37144 0.87499,0.67594 0.96239,0.67594 0.0656,0 -3.3e-4,-0.50214 -0.15328,-1.13578 -0.54624,-2.07572 -0.30498,-2.84111 1.24634,-4.10839 0.52438,-0.41514 1.78989,-1.54965 2.81682,-2.53287 2.05386,-1.94463 3.88968,-3.40929 4.17372,-3.3219 z m -24.22568,1.32171 c 0.0437,-0.0164 0.0812,6.6e-4 0.10302,0.0553 0.0218,0.1311 0.89709,3.36364 1.90218,7.20918 1.02693,3.82367 1.83531,7.01468 1.7916,7.05838 -0.0437,0.0437 -0.43821,-0.23993 -0.89706,-0.63322 -1.11432,-0.98323 -1.74629,-2.38275 -2.53287,-5.48539 -0.5681,-2.22866 -0.67845,-3.12399 -0.67845,-5.22156 0,-1.39837 0.0667,-2.68648 0.17589,-2.83942 0.0437,-0.0765 0.092,-0.12686 0.13569,-0.14325 z m 44.7224,11.57135 c 0.22021,0.04 0.51841,0.14487 0.91717,0.28143 1.02693,0.37144 3.47265,1.85684 3.47265,2.14089 0,0.15295 -2.81792,5.85663 -2.99271,6.05328 -0.0437,0.0656 -0.39419,-0.2407 -0.74379,-0.65584 -0.96138,-1.15803 -1.28905,-2.557 -1.28905,-5.39744 0,-2.06479 -0.0249,-2.54215 0.63573,-2.42232 z m -2.23134,0.69855 c 0.0656,0.0437 0.0879,1.22169 0.0879,2.59821 -0.0437,4.10773 -0.37069,4.72095 -4.28177,7.93284 -0.72103,0.58994 -3.64831,3.29946 -6.5106,6.03067 -2.8623,2.70935 -5.92308,5.50409 -6.79706,6.18142 l -1.59311,1.22372 -2.44744,-1.59309 -2.42483,-1.573 0.91716,-0.96239 c 2.88415,-2.97155 13.32724,-12.47528 17.54421,-15.97122 2.29421,-1.90091 5.35255,-4.04196 5.5055,-3.86716 z m -30.52271,0.69856 c 0,-0.3496 2.00994,2.48934 3.36462,4.7617 1.20172,2.01017 2.07611,3.80319 2.66605,5.42006 0.28405,0.80844 0.26285,0.82922 -0.196,0.82922 -0.52439,0 -1.66194,-1.04906 -2.12078,-1.94489 -0.48069,-0.91768 -3.71389,-8.82575 -3.71389,-9.06609 z m -5.59846,4.23905 c 0.56263,-0.0109 1.22876,0.0856 1.7313,0.30404 1.11433,0.45884 1.83406,1.50745 3.69127,5.37483 1.68242,3.49594 2.81924,6.46903 3.10328,8.15145 0.37144,2.07572 -2.64393,2.6435 -4.523,0.85183 -1.52947,-1.46392 -3.6264,-5.70356 -4.50038,-9.13394 -0.50254,-1.94462 -0.80977,-4.67454 -0.61312,-5.19894 0.0874,-0.21849 0.54802,-0.33834 1.11065,-0.34927 z m 37.34489,3.03543 0.7865,0.7664 0.76639,0.7865 -0.85183,1.68105 c -0.48069,0.93953 -1.24733,2.14166 -1.70617,2.66605 -0.437,0.54624 -0.74072,1.04838 -0.65333,1.13578 0.10926,0.0874 2.81703,0.98405 6.05077,2.03284 l 5.9,1.85694 1.18101,1.15839 1.17849,1.15839 -0.34928,-0.83173 c -0.19664,-0.4807 -0.24166,-0.8066 -0.11056,-0.8066 0.34959,0 9.15657,2.86085 9.15657,2.97009 0,0.24036 -1.26867,0.54758 -2.62335,0.61312 -1.98831,0.10925 -3.0365,0.69776 -6.00805,3.47267 -2.6001,2.40345 -4.74109,4.13123 -5.65877,4.56822 -0.56809,0.24035 -0.6769,0.1746 -3.93249,-3.23394 -2.9497,-3.05895 -5.61596,-5.37493 -5.90001,-5.09089 -0.0655,0.0437 0.54771,0.87295 1.33428,1.83433 0.76474,0.96138 2.05209,2.53389 2.81683,3.49527 1.87907,2.31606 3.36448,5.35473 2.64344,5.35473 -0.89583,0 -3.86607,-2.81859 -7.4931,-7.10111 -1.76982,-2.07571 -6.64378,-8.4355 -6.64378,-8.654 0,-1.02693 5.63711,-6.85884 8.39016,-8.69421 z m 94.41257,8.76205 c 0.1311,0 0.74433,0.56901 1.33427,1.24635 0.61179,0.69918 1.22329,1.41906 1.35439,1.61571 0.24035,0.28404 -0.15301,0.74352 -2.51277,3.10328 -3.14634,3.12449 -6.31413,5.87731 -8.23687,7.16644 -1.33283,0.91768 -1.68273,0.96106 -2.95001,0.34927 -0.83028,-0.41514 -1.83498,-1.96632 -1.63833,-2.57811 0.50254,-1.52947 11.36019,-10.90294 12.64932,-10.90294 z m -137.74038,1.96751 c 0.10924,0 0.61313,0.85087 1.11567,1.89966 1.72612,3.73628 2.07444,5.50695 1.3971,6.83977 -0.32774,0.63365 -0.93903,1.09306 -1.41972,1.09306 -0.32774,0 -1.42038,-2.4477 -1.72627,-3.88978 -0.50255,-2.4253 -0.13152,-5.94271 0.63322,-5.94271 z m 31.46499,0.43722 c 0.0874,0 3.23416,3.73642 6.97044,8.32483 3.75813,4.56657 6.77139,8.38995 6.68399,8.4555 -0.24035,0.24034 -2.11775,-0.39409 -3.03543,-1.02773 -1.22358,-0.87398 -1.87898,-1.59451 -4.58834,-5.22155 -1.26727,-1.70427 -3.32127,-4.34791 -4.523,-5.87738 -2.73119,-3.40854 -2.86345,-3.69282 -2.18611,-4.23906 0.28404,-0.24034 0.59105,-0.41461 0.67845,-0.41461 z m 108.46151,2.93995 c 0.0819,-0.0191 0.23936,0.0648 0.54526,0.22866 0.34959,0.1748 0.94023,0.69879 1.31168,1.13578 0.83028,1.00508 1.54996,2.46917 2.68615,5.52811 0.48069,1.26727 1.50933,3.64893 2.27406,5.3095 1.63872,3.49593 2.49016,5.92068 2.49016,7.01316 0,0.96138 -0.17351,0.98301 -0.89455,0.0653 -2.8623,-3.60518 -8.50073,-16.12621 -8.50073,-18.90111 0,-0.24034 0.006,-0.36031 0.088,-0.37942 z m -111.68289,0.33923 c 0.17206,-0.0574 0.53404,0.0528 1.14583,0.30404 0.52439,0.2185 1.02708,0.76293 1.72627,1.81172 0.52439,0.80843 2.68579,3.6507 4.82705,6.2945 3.32114,4.12957 5.79195,7.64695 5.79195,8.23688 0,0.85214 -2.79866,-1.46405 -5.50801,-4.52299 -3.67073,-4.19513 -7.31831,-9.3961 -7.99565,-11.42811 -0.14202,-0.41514 -0.15951,-0.63869 0.0126,-0.69604 z m -13.10162,2.40221 c 0.0874,0 0.15405,0.41462 0.17589,0.91716 0.0874,4.91617 -0.69873,7.25218 -3.42993,10.20188 -1.31098,1.42023 -6.03014,5.26678 -6.44528,5.26678 -0.30589,0 -0.21893,-3.14627 0.13067,-5.09089 0.63363,-3.56148 2.18483,-5.6592 6.88249,-9.32994 1.37653,-1.07063 2.57691,-1.94314 2.68616,-1.96499 z m 10.34008,0.0201 c 0.24581,-0.0437 1.00176,0.5912 2.26904,1.90217 1.79166,1.83537 5.98453,7.23212 9.04348,11.68944 1.22357,1.74798 1.42157,2.13969 1.11567,2.24894 -0.76474,0.30589 -1.96665,-0.30386 -2.73139,-1.37449 -0.41514,-0.58994 -1.87828,-2.53534 -3.27666,-4.327 -2.97154,-3.84553 -4.72098,-6.31499 -5.63867,-7.97556 -0.76474,-1.39837 -1.02728,-2.1198 -0.78147,-2.1635 z m 111.97436,0.196 c 0.0655,0 0.59031,0.80838 1.15839,1.79161 3.0808,5.37501 8.8701,18.57405 8.8701,20.21277 0,0.3933 -5.02349,6.3581 -5.39493,6.37995 -0.37145,0.0218 -2.20769,-2.51363 -4.04306,-5.55072 -1.87906,-3.14635 -6.20506,-11.55754 -7.16644,-13.961 l -0.69855,-1.72627 3.56061,-3.56061 c 1.96647,-1.96647 3.62647,-3.58573 3.71388,-3.58573 z m -70.35524,0.48245 c 0.0874,0.15295 0.2408,1.13483 0.37189,2.1836 0.2185,2.03202 0.0656,3.43206 -0.50255,4.56823 -0.19665,0.37145 -1.11592,1.48432 -2.05545,2.46755 -0.93954,0.96138 -2.83992,3.18964 -4.21644,4.93761 -7.05743,8.84909 -11.20712,12.21441 -15.72999,12.78249 l -1.20362,0.15328 -1.15839,-2.01022 -1.15588,-2.01022 2.92739,-2.95 c 8.52135,-8.56504 22.3516,-20.82151 22.72304,-20.12232 z m 2.66606,0.32164 c 0.37281,0.0307 1.40869,0.63406 5.50549,3.04297 4.50102,2.62195 5.13612,3.01468 5.13612,3.21133 0,0.0874 -1.28965,1.85853 -2.88467,3.91239 l -2.88467,3.73399 -2.25144,-2.33688 c -3.64889,-3.80183 -4.65309,-6.53266 -3.56061,-9.74455 0.2622,-0.78658 0.56745,-1.55071 0.69855,-1.70366 0.0655,-0.071 0.11696,-0.12584 0.24123,-0.11559 z m -51.80592,0.18091 c 0.17479,0.0655 1.18005,1.11255 2.22883,2.31428 6.77338,7.62551 14.24551,17.59017 15.33799,20.40877 0.43699,1.17988 0.41445,1.2245 -1.31167,1.74889 -1.44208,0.437 -2.16178,0.41383 -3.18871,-0.11056 -0.87399,-0.43699 -1.57365,-1.2009 -5.17884,-5.57082 -7.27592,-8.78355 -9.02338,-11.8437 -9.02338,-15.60183 0,-1.61688 0.63324,-3.36351 1.13578,-3.18873 z m 104.33802,6.81717 c 0.18573,-0.0546 0.23426,0.0545 0.32166,0.28395 0.0874,0.26219 0.24099,1.28908 0.30654,2.29416 0.2185,2.79675 -0.13122,3.38691 -4.523,7.53834 -1.96647,1.85721 -5.00385,4.80534 -6.75182,6.55332 -3.27744,3.27744 -4.80766,4.37038 -6.62118,4.67628 -0.96138,0.17479 -2.81749,-0.30615 -3.62592,-0.93978 l -0.52518,-0.392 0.63322,-1.15839 c 0.78659,-1.46392 2.92923,-3.64984 6.42517,-6.55584 1.50762,-1.24542 4.0195,-3.49608 5.57083,-5.02555 3.34299,-3.23374 5.83286,-5.39606 7.64638,-6.57594 0.63364,-0.42606 0.95758,-0.64392 1.1433,-0.69855 z m -106.8508,2.03033 c 0.1311,0 0.96034,0.76588 1.83433,1.68355 4.50102,4.71952 9.8325,12.10346 10.33505,14.31027 0.19665,0.83028 -0.0635,0.7656 -1.37449,-0.26133 -1.04878,-0.83028 -1.50755,-1.39734 -5.09089,-6.13871 -0.87398,-1.15803 -2.27223,-2.92741 -3.08066,-3.9325 -0.83029,-1.00508 -1.72618,-2.29647 -2.01022,-2.86456 -0.58994,-1.13618 -0.94086,-2.79672 -0.61312,-2.79672 z m 52.7457,0.45983 c 0.0655,-0.0218 1.31018,1.20214 2.77411,2.66606 1.46392,1.48578 2.66605,2.77465 2.66605,2.86206 0,0.19664 -5.4418,7.29819 -5.704,7.473 -0.0874,0.0437 -1.3529,-1.44207 -2.81682,-3.29928 -2.66566,-3.40854 -2.66616,-3.4092 -2.38212,-4.10839 0.45885,-1.13618 1.17929,-2.16353 2.20622,-3.16862 0.89584,-0.85213 2.95066,-2.40297 3.25656,-2.42483 z m -64.69646,1.50767 c 0.13109,0 0.21861,0.80948 0.21861,1.9675 0,1.15803 -0.0875,1.96499 -0.21861,1.96499 -0.1311,0 -0.21862,-0.80696 -0.21862,-1.96499 0,-1.15802 0.0875,-1.9675 0.21862,-1.9675 z m 9.58121,0.37189 c 0.36871,0.10345 1.26724,0.95993 2.54545,2.46755 3.93292,4.61027 9.24099,12.34626 8.78215,12.80511 -0.2185,0.21849 -2.35911,-1.74764 -3.99783,-3.64855 -4.15143,-4.85062 -7.51571,-9.98506 -7.51571,-11.47083 0,-0.13656 0.0631,-0.18776 0.18594,-0.15328 z m 113.12521,0.93978 c 0.0218,0 0.6351,0.91774 1.33429,2.01022 3.2993,5.13466 7.27505,12.99968 8.36754,16.47376 0.24035,0.78659 0.43723,1.52909 0.43723,1.63833 0,0.37145 -0.56857,0.19719 -1.37701,-0.4146 -1.20172,-0.89583 -2.5576,-2.81877 -4.19632,-6.03066 -0.83029,-1.57317 -2.18505,-3.93319 -3.01534,-5.24417 -2.11942,-3.32114 -2.66354,-4.56576 -2.66354,-6.07338 0,-1.00509 0.0856,-1.33277 0.52264,-1.79161 0.3059,-0.3059 0.54681,-0.56789 0.59051,-0.56789 z m -115.34399,2.40221 c 0.10925,0 0.69911,0.52399 1.28906,1.13578 2.35975,2.44715 9.46161,11.51676 10.42299,13.33028 l 0.61061,1.15588 -0.45733,0.37189 c -0.26219,0.2185 -0.59182,0.39451 -0.70106,0.39451 -0.3059,0 -3.60415,-3.43198 -5.63616,-5.85729 -3.32114,-3.95478 -5.43951,-7.53686 -5.63616,-9.50332 -0.0437,-0.56809 -0.002,-1.02773 0.10805,-1.02773 z m 110.24809,1.95997 c 0.41515,0.008 0.94581,0.14903 1.40465,0.42215 0.83026,0.52439 1.57195,1.57276 3.40732,4.93761 0.78658,1.44207 2.70859,4.78571 4.28176,7.40766 2.6001,4.32622 3.30091,5.70336 3.06057,5.9 -0.0437,0.0437 -0.34995,0.13045 -0.65584,0.196 -0.50255,0.1311 -0.721,-0.0865 -2.29417,-2.05294 -4.95985,-6.27084 -9.87673,-14.42089 -9.92043,-16.43105 0,-0.2622 0.301,-0.38763 0.71614,-0.37943 z m -61.75904,1.35439 c 0.27142,-0.10754 0.94025,0.13876 1.93987,0.7287 1.24543,0.76474 4.30518,3.25637 5.33211,4.327 l 0.50255,0.56789 -1.05033,1.35439 -1.04783,1.35438 -1.37701,-1.50766 c -2.5564,-2.79675 -4.43505,-5.57162 -4.43505,-6.59855 0,-0.11472 0.0452,-0.19031 0.13569,-0.22615 z m -50.25804,1.49259 c 0.0437,0 2.0967,2.70952 4.56571,6.03066 2.49086,3.32114 4.5655,6.18428 4.63105,6.33722 0.1311,0.37145 -0.98177,0.064 -1.96499,-0.54778 -1.79167,-1.09248 -5.83362,-6.33425 -7.16644,-9.2621 -0.50255,-1.15803 -0.54602,-2.558 -0.0653,-2.558 z m 108.91883,0.65583 c 0.0874,0 0.74467,0.69825 1.48756,1.55038 1.74797,2.07572 4.36967,5.74814 6.66387,9.37518 2.03202,3.19004 4.60888,8.08306 4.47778,8.49821 -0.17479,0.50254 -1.74698,-0.89516 -3.34198,-2.99272 -1.52948,-2.03201 -2.97263,-3.58354 -2.97263,-3.23395 0,0.0874 1.02864,2.09791 2.27407,4.45767 1.26728,2.35976 2.3158,4.41452 2.3595,4.54561 0.10924,0.3933 -3.34313,3.12362 -4.523,3.56061 -0.58995,0.2185 -1.15972,0.37211 -1.26897,0.30656 -0.0874,-0.0437 -3.31915,-3.6926 -7.18654,-8.10622 -3.86738,-4.41362 -7.21003,-8.23853 -7.45037,-8.50073 l -0.43724,-0.50255 0.588,-0.85183 c 0.96138,-1.37652 3.4326,-3.62803 4.65618,-4.26167 1.20173,-0.58994 2.59986,-0.74257 3.3646,-0.34927 0.50254,0.28404 0.50058,0.15279 0.0854,-1.22373 l -0.32665,-1.07044 0.72117,-0.58799 c 0.37144,-0.32775 0.76367,-0.61312 0.82922,-0.61312 z m -62.21134,0.88953 c 0.55819,-0.0758 1.76049,0.0882 2.43237,0.39952 0.48069,0.2185 1.30994,0.76412 1.83433,1.20111 1.07062,0.89583 4.17372,4.28418 4.17372,4.56823 0,0.19665 -1.72716,2.42538 -1.96751,2.51278 -0.50254,0.19664 -6.77193,-7.69306 -6.77193,-8.52334 0,-0.0819 0.11296,-0.13304 0.29902,-0.1583 z m -2.49519,3.31183 c 0.48069,-0.0601 1.05909,0.005 1.45239,0.23369 0.26219,0.15295 1.87895,1.61784 3.58322,3.25656 l 3.12589,3.01534 -0.61312,0.87444 c -0.32774,0.48069 -0.71996,0.87193 -0.82921,0.87193 -0.37145,0 -7.58356,-7.36288 -7.58356,-7.73432 0,-0.27312 0.3837,-0.45755 0.86439,-0.51764 z m 66.30214,1.48003 c -0.65549,0 -0.74378,0.0646 -0.74378,0.54527 0,0.74289 0.50356,1.68337 1.46495,2.754 0.72103,0.80844 2.4682,2.16351 2.77409,2.16351 0.2185,0 -0.30496,-1.11432 -1.55038,-3.29928 -1.15803,-2.07571 -1.24569,-2.1635 -1.94488,-2.1635 z m -70.92314,1.70366 c 0.5681,-0.21849 1.57358,0.0222 2.66607,0.65583 1.00507,0.5681 6.99054,6.2706 6.99054,6.66389 0,0.10925 -0.34951,0.65662 -0.7865,1.18101 l -0.7865,0.93978 -1.769,-1.61823 c -1.98831,-1.79167 -5.07004,-5.22083 -6.05328,-6.70661 -0.58993,-0.85213 -0.61092,-0.98457 -0.26133,-1.11567 z m -11.4281,0.74379 c 0.0437,0.0437 0.21872,1.26669 0.43722,2.70876 0.37145,2.62196 0.37265,2.66588 -0.10805,3.73651 -0.28404,0.67733 -1.0071,1.61694 -1.92479,2.51277 -2.35975,2.31606 -7.99599,7.16534 -8.14893,6.99055 -0.0655,-0.0874 -0.5679,-1.41801 -1.07044,-2.94749 -0.93954,-2.75305 -0.94032,-2.7987 -0.52517,-3.21384 0.89583,-0.87399 11.29646,-9.83097 11.34016,-9.78726 z m 3.07313,0.6684 c 0.16659,-0.0628 0.4239,-0.0354 0.90459,0.0301 0.56809,0.0656 1.46399,0.34841 2.01022,0.6106 1.07063,0.52439 3.14526,2.51347 7.93033,7.62628 l 2.99272,3.21133 -1.68105,2.18611 c -0.91768,1.22358 -1.79118,2.20622 -1.92228,2.20622 -0.41514,0.0218 -6.92841,-6.40194 -8.23939,-8.10621 -0.67734,-0.87399 -1.48571,-2.16287 -1.79161,-2.86206 -0.67734,-1.44207 -0.91748,-3.4528 -0.56789,-4.39233 0.12017,-0.29497 0.19775,-0.44728 0.36436,-0.51009 z m 112.68547,1.10059 c 0.15295,0.0437 0.63421,0.56845 1.09305,1.15839 0.98324,1.31098 1.66085,2.97114 1.9449,4.9376 0.24035,1.52948 0.0883,3.45256 -0.26132,3.45256 -0.37145,0 -2.1644,-2.44847 -2.90729,-3.91239 -0.85213,-1.74797 -1.06989,-3.90871 -0.47995,-5.02304 0.19665,-0.39329 0.47951,-0.67867 0.61061,-0.61312 z m -56.74353,1.09306 c 0.0218,0.0218 0.30799,1.31073 0.63574,2.86205 l 0.58799,2.79672 -1.81171,1.85694 c -1.00508,1.02693 -3.29999,3.14582 -5.11351,4.719 -1.79167,1.57317 -4.63317,4.15093 -6.27189,5.72411 -3.75813,3.56148 -4.95853,4.32831 -6.99054,4.43756 -1.28913,0.0874 -1.65999,-2e-5 -2.70878,-0.50256 -0.65548,-0.32774 -1.18198,-0.67899 -1.13828,-0.7664 0.0655,-0.21849 22.74543,-21.21482 22.81098,-21.12742 z m 3.32191,0.80911 c 0.10924,0 0.63399,0.3045 1.15837,0.67594 1.44208,1.02693 7.07806,6.79468 11.01099,11.31755 3.82369,4.39176 7.31972,8.674 7.31972,8.95805 0,0.10924 -0.63139,0.72249 -1.43982,1.33428 l -1.42222,1.15839 -0.47995,-0.43722 c -2.40345,-2.14127 -6.75149,-5.76845 -6.59854,-5.52811 0.0874,0.1748 1.09263,1.66132 2.22881,3.32189 1.11434,1.63872 2.03208,3.05685 2.01023,3.1661 0,0.0874 -0.80935,0.89676 -1.74888,1.74889 -1.50763,1.37652 -1.85633,1.59561 -2.55549,1.59561 -0.45885,0 -1.02687,-0.15438 -1.28907,-0.32917 -0.43699,-0.3059 -0.48202,-0.30458 -0.61312,0.11056 -0.0874,0.24035 -0.10903,0.74346 -0.0653,1.09306 0.0437,0.437 -0.10774,0.80705 -0.45733,1.17849 -0.3059,0.3059 -0.61365,0.56789 -0.70105,0.56789 -0.0656,0 -1.94431,-1.07037 -4.15112,-2.3595 -2.20682,-1.31097 -4.25904,-2.49049 -4.54309,-2.64344 l -0.52517,-0.28394 0.47995,0.67845 c 0.26217,0.37144 1.2458,1.26733 2.16348,2.01022 2.906,2.3379 4.74292,4.3257 4.34963,4.719 -0.50255,0.48069 -3.88989,-1.1364 -7.91022,-3.7365 -4.52288,-2.9497 -11.25221,-8.12787 -11.25221,-8.67411 0,-0.34959 1.13412,-1.94489 1.37447,-1.94489 0.1311,0 1.33499,0.82925 2.64597,1.83433 2.64378,1.98831 3.49421,2.53442 4.82704,3.08066 l 0.87444,0.37189 -1.31167,-1.3971 c -0.72104,-0.74289 -2.18342,-2.2729 -3.25405,-3.38723 -1.94461,-1.98831 -1.96684,-2.01155 -1.66094,-2.62333 0.85213,-1.66058 9.39519,-9.37157 10.18177,-9.19677 0.1311,0.0437 1.6835,1.63784 3.47517,3.56061 1.76982,1.92276 3.36396,3.64965 3.56061,3.82444 0.80844,0.83029 -0.305,-0.78702 -2.55551,-3.67116 -3.16817,-4.10773 -3.62844,-5.04769 -3.62844,-7.473 0,-1.85722 0.15297,-2.62083 0.50257,-2.62083 z m 50.40628,0.91716 0.52518,0.89455 c 0.28405,0.50255 1.26669,2.40544 2.20623,4.21895 1.94461,3.82368 2.51244,5.72275 2.3595,7.90772 -0.10926,1.59502 -0.50063,2.51248 -1.59311,3.86716 -0.69919,0.87398 -2.42594,2.23025 -2.60074,2.05545 -0.0437,-0.0437 -1.13745,-3.38657 -2.40472,-7.38505 l -2.29417,-7.31972 0.39452,-0.87444 c 0.39329,-0.89584 1.48674,-2.03331 2.75399,-2.90729 z m -111.77835,4.74915 c 0.64182,0.0464 1.47119,0.24353 2.11575,0.56035 1.09248,0.54624 1.72686,1.04708 6.62117,5.32961 l 2.83944,2.49267 -0.59051,0.8066 c -0.32774,0.43699 -1.61487,2.14224 -2.88215,3.75911 l -2.27407,2.92739 -2.86205,-2.1635 c -5.375,-4.12958 -7.62434,-6.20301 -8.71682,-8.03838 l -0.41461,-0.70106 0.91716,0.13066 c 1.22358,0.15295 2.66615,1.07226 5.68139,3.56312 1.37653,1.13618 2.60029,2.05294 2.73139,2.05294 0.10925,0 -1.02777,-1.2454 -2.53539,-2.79672 -2.88415,-2.92785 -3.34288,-3.58326 -3.58322,-5.09088 -0.19664,-1.22358 -0.17513,-1.2006 3.64855,1.68355 l 3.08067,2.31427 -2.31678,-3.08066 c -1.28913,-1.70427 -2.3819,-3.23253 -2.44745,-3.40733 -0.10924,-0.28405 0.34569,-0.38817 0.98753,-0.34174 z m 98.77977,2.89724 0.98249,0.0653 -0.0226,1.00511 c -0.0218,1.98832 -2.70835,5.33165 -6.64126,8.2595 -1.94462,1.42022 -5.79109,3.47352 -6.05329,3.21133 -0.0874,-0.0656 -0.195,-0.72053 -0.23871,-1.41972 -0.1311,-1.66058 0.19584,-2.25117 2.27156,-4.10839 0.93953,-0.80844 2.75218,-2.49031 4.06315,-3.71389 2.73121,-2.5564 4.1529,-3.38667 5.63867,-3.29927 z m 3.7943,0.89203 c 0.54589,-0.006 0.7981,0.28824 1.46995,1.27146 1.90092,2.81861 3.10405,6.38046 3.1259,9.26461 0,0.96139 -0.0885,1.87989 -0.17589,2.03284 -0.24035,0.41515 -0.93895,-0.28443 -2.20622,-2.1635 -2.92783,-4.36992 -4.50153,-10.00905 -2.88465,-10.31495 0.27312,-0.0546 0.48894,-0.0884 0.67091,-0.0905 z m -111.06977,3.45255 c 0.16113,-0.0246 0.38588,0.058 0.71362,0.24375 0.83029,0.43699 3.01476,2.164 5.72411,4.54561 1.44207,1.26728 3.47498,3.0359 4.54561,3.90988 1.04879,0.89584 1.89966,1.68334 1.89966,1.74889 0,0.0874 -1.65921,2.29375 -2.1836,2.92739 -0.19664,0.2185 -3.05855,-2.05388 -5.44016,-4.30439 -3.75813,-3.60519 -6.05229,-7.16648 -5.59344,-8.67411 0.0765,-0.24034 0.17305,-0.37243 0.3342,-0.39702 z m 107.27547,1.73131 c 0.0874,0 0.43515,0.32711 0.8066,0.69855 1.57318,1.66057 4.54553,7.14426 5.83466,10.81499 l 0.54528,1.573 -1.46244,1.72628 c -0.80844,0.93954 -1.72597,2.03154 -2.07556,2.42483 l -0.59049,0.72117 -1.20111,-0.91717 c -2.40346,-1.85722 -7.0794,-7.18803 -8.32482,-9.52594 l -0.41462,-0.74378 3.3847,-3.38722 c 1.85722,-1.85721 3.43225,-3.38471 3.4978,-3.38471 z m -54.3187,7.20916 c 0.21849,0 1.07036,0.52475 1.85693,1.15839 1.44208,1.17988 4.84972,3.49482 10.15916,6.92521 2.75305,1.79166 6.07524,4.61161 5.76935,4.91751 -0.45884,0.48069 -4.85055,-1.48688 -8.89274,-3.97773 -4.71949,-2.906 -11.25208,-7.60335 -11.03359,-7.95294 0.1748,-0.30589 1.68205,-1.04859 2.14089,-1.07044 z m -13.87556,1.74889 c 0.0874,0 0.28351,0.36961 0.41461,0.8066 0.72104,2.40346 0.46123,4.74133 -0.71865,6.59855 -0.69919,1.13618 -2.44749,2.64413 -3.95512,3.45256 -1.31097,0.69919 -4.37028,1.81423 -4.96021,1.81423 -0.4807,0 -0.94087,-2.79599 -0.61313,-3.77922 0.2622,-0.74289 1.29032,-1.83689 3.19124,-3.34451 0.58993,-0.45884 2.29344,-1.90035 3.77921,-3.21133 1.48577,-1.28913 2.77466,-2.33688 2.86205,-2.33688 z m 3.16862,0.43722 c 0.15295,0 1.74883,0.71988 3.5405,1.61572 8.7617,4.36992 19.48812,11.75416 19.53182,13.45843 0,0.58994 -1.31063,1.18177 -2.64345,1.20362 -1.07064,0 -1.59525,-0.19843 -4.23906,-1.48756 -1.66056,-0.80844 -3.0362,-1.44157 -3.05805,-1.41972 -0.0437,0.0437 1.2027,1.0047 2.75402,2.14089 1.52947,1.13617 2.79496,2.20655 2.81681,2.3595 0,0.50253 -0.83011,1.87968 -1.573,2.60072 -0.87399,0.85213 -2.0746,1.377 -3.12338,1.377 -1.13618,0 -3.91156,-0.98329 -5.68138,-2.01023 -0.83029,-0.50253 -3.73516,-2.05319 -6.42266,-3.49527 -5.00356,-2.66565 -8.10622,-4.61019 -8.10622,-5.09088 0,-0.37145 1.26592,-0.87369 2.18361,-0.85183 0.41514,0.0218 1.15763,0.24036 1.63833,0.50255 0.48069,0.24035 1.22318,0.5006 1.63833,0.58799 l 0.76639,0.13067 -0.93978,-0.8066 c -1.02693,-0.89584 -1.33342,-1.37682 -1.59561,-2.44745 -0.19665,-0.91768 0.17627,-1.15839 1.83684,-1.15839 1.55132,0 2.9267,0.43672 5.9201,1.85694 1.35468,0.65549 2.55604,1.20111 2.64345,1.20111 0.39328,0 -1.85667,-1.57128 -3.71389,-2.59821 -3.91109,-2.16311 -4.69889,-3.10412 -4.69889,-5.63867 0,-1.50763 0.13188,-2.03033 0.52517,-2.03033 z m 48.28804,0.43471 c 0.10924,0 0.13164,0.67739 0.0879,1.50767 -0.15295,2.16311 -0.78831,3.12639 -3.27917,5.00545 -1.11433,0.83029 -2.66347,2.09753 -3.45005,2.79672 -2.35977,2.14127 -3.34291,2.88447 -4.58834,3.45256 -1.20171,0.56809 -2.6877,0.71897 -3.23395,0.36937 -0.69918,-0.43699 4.45639,-5.7454 9.15406,-9.43798 2.03202,-1.59503 5.02546,-3.67193 5.30951,-3.69379 z m 2.25145,0.87445 c 0.17477,0 0.61181,0.15263 1.00511,0.34927 2.53455,1.31098 6.70621,5.72454 8.84748,9.39528 l 0.63322,1.09305 -0.74127,0.87445 c -0.39329,0.45884 -1.24593,1.68185 -1.87957,2.70878 -0.61179,1.02693 -1.74727,2.46921 -2.49016,3.23394 l -1.35437,1.377 -0.67845,-0.34928 c -0.37145,-0.19664 -1.70458,-1.02665 -2.95001,-1.85694 -2.29421,-1.48577 -4.06362,-2.27198 -4.9376,-2.14088 -0.37145,0.0437 0.19627,0.61164 2.64343,2.57811 2.84046,2.31605 3.03815,2.51256 2.47006,2.57811 -2.27236,0.28404 -7.42927,-2.18533 -10.26972,-4.96022 -1.04878,-1.02693 -2.14054,-2.4043 -1.9876,-2.5354 0.0437,-0.0437 1.11408,0.19819 2.3595,0.54778 1.26728,0.3496 2.31504,0.60985 2.33688,0.588 0.0218,-0.0437 -0.45866,-0.60997 -1.07045,-1.30916 l -1.11315,-1.26895 0.65333,-0.80661 c 0.34959,-0.43698 1.42072,-1.44224 2.38211,-2.22882 2.79675,-2.29422 4.60953,-4.19604 4.78432,-5.04817 0.2622,-1.24544 1.02916,-2.81934 1.35691,-2.81934 z m -59.49001,12.02113 c 0.58721,0.008 1.37932,0.11657 2.19868,0.32414 1.44208,0.37144 12.17155,5.59317 15.31789,7.45039 1.09247,0.65548 2.35875,1.52974 2.83944,1.94488 0.76474,0.6992 0.80909,0.76586 0.30655,0.67846 -0.30589,-0.0655 -1.2234,-0.21895 -2.07554,-0.3719 -3.75814,-0.63363 -10.46758,-3.27695 -14.46606,-5.7241 -2.46901,-1.48577 -5.09089,-3.5616 -5.09089,-4.02044 0,-0.19665 0.38273,-0.28963 0.96993,-0.28143 z m 36.30711,4.58581 c 0.1748,0 0.32722,0.52389 0.41462,1.41972 0.19665,1.74797 0.13102,1.81417 -2.51277,3.60584 -2.53456,1.70427 -3.10289,1.96499 -4.23907,1.96499 h -0.98249 l -0.15327,-0.9825 c -0.0655,-0.54624 -0.0882,-1.11349 -0.0226,-1.26644 0.10925,-0.2622 0.98383,-0.8517 5.89999,-3.93249 0.74289,-0.437 1.44267,-0.80912 1.59561,-0.80912 z m 2.61329,0.0226 c 0.25502,-0.0645 1.03969,0.0705 2.36703,0.41462 3.43039,0.87398 10.42317,4.71751 12.14929,6.68398 0.63364,0.72104 0.6544,0.83108 0.32665,1.02773 -0.72103,0.39329 -4.01985,0.0451 -6.22666,-0.67594 -1.13618,-0.37145 -2.07456,-0.65759 -2.11826,-0.63573 -0.0218,0.0437 1.22354,0.74446 2.79671,1.55289 1.57317,0.80844 2.7952,1.5293 2.75151,1.573 -0.0437,0.0437 -1.74721,-0.21829 -3.77922,-0.56789 -2.03202,-0.37144 -3.73553,-0.65583 -3.77923,-0.65583 -0.37144,0 1.5078,1.55105 2.22884,1.85694 2.05386,0.83029 2.70737,1.1808 3.38471,1.74889 0.39329,0.32775 0.70106,0.69736 0.70106,0.8066 0,0.39329 -3.86906,0.0445 -5.57334,-0.47994 -1.83536,-0.56809 -8.84748,-4.15155 -8.84748,-4.52299 0,-0.45885 0.93772,-0.93978 1.81171,-0.93978 h 0.83172 l -0.15327,-1.41972 -0.15328,-1.41972 h 1.68356 1.66094 l -1.02771,-2.03283 c -0.5681,-1.09249 -1.07199,-2.07436 -1.11569,-2.18361 -0.0328,-0.0656 -0.004,-0.10916 0.0804,-0.13067 z" style="display:inline;stroke:none;stroke-width:.00264002" transform="matrix(1.7020019,0,0,1.7021264,-85.355546,-57.280464)"/></svg>