<svg xmlns="http://www.w3.org/2000/svg" xml:space="preserve" id="svg1" width="4608" height="3072" version="1.1" viewBox="0 0 1219.2 812.8"><defs id="defs1"><style id="style1">.cls-1{fill:#0283c0}.cls-2{fill:#fff}.cls-3{fill:#ef483f}</style></defs><path id="rect1" d="M 0 0 L 0 812.8 L 1219.2 812.8 L 1219.2 0 L 0 0 z" style="fill:#d00000;fill-rule:evenodd;stroke:none;stroke-width:8.46667;stroke-linecap:round;stroke-linejoin:round;fill-opacity:1"/><path id="path2" fill="#ffc000" d="M 609.60001,8.840141e-6 V 812.79975 L 314.33269,812.79999 904.86732,8.840141e-6 H 1219.1996 V 208.33038 L 3.6576e-4,604.46962 V 208.33038 L 1219.1996,604.47113 V 812.79975 H 904.86714 L 314.33269,8.840141e-6 Z" style="stroke-width:1;fill:#ffd000;fill-opacity:1"/><path id="path5" d="M 609.6 135.46667 L 548.77167 322.67694 L 351.92736 322.67694 L 511.17758 438.37893 L 450.34926 625.58972 L 609.6 509.88722 L 768.85074 625.58972 L 708.02242 438.37893 L 867.27264 322.67694 L 670.42833 322.67694 L 609.6 135.46667 z M 609.6 190.26384 L 658.12572 339.61028 L 815.15696 339.61028 L 688.11614 431.9111 L 736.64186 581.25754 L 609.6 488.95672 L 482.55814 581.25754 L 531.08386 431.9111 L 404.04304 339.61028 L 561.07428 339.61028 L 609.6 190.26384 z" style="color:#000;fill:maroon;stroke-width:.264583;stroke-linecap:round;stroke-miterlimit:128;-inkscape-stroke:none;stroke:none;fill-opacity:1"/></svg>