<?xml version="1.0" encoding="UTF-8"?>
<!-- Created with Inkscape (http://www.inkscape.org/) -->
<svg width="900" height="600" version="1.1" viewBox="0 0 238.12 158.75" xmlns="http://www.w3.org/2000/svg" xmlns:cc="http://creativecommons.org/ns#" xmlns:dc="http://purl.org/dc/elements/1.1/" xmlns:rdf="http://www.w3.org/1999/02/22-rdf-syntax-ns#">
 <metadata>
  <rdf:RDF>
   <cc:Work rdf:about="">
    <dc:format>image/svg+xml</dc:format>
    <dc:type rdf:resource="http://purl.org/dc/dcmitype/StillImage"/>
    <dc:title/>
   </cc:Work>
  </rdf:RDF>
 </metadata>
 <g transform="translate(0 -138.25)">
  <rect y="138.25" width="238.12" height="158.75" fill="#ce1126" style="paint-order:normal"/>
  <path d="m118.74 171.32c0.0661 0.0164-0.79586 2.8249-0.79586 2.8249 4.1516 3.1597 8.2119 6.4205 12.12 9.8873 6.1832 5.587 11.78 12.034 14.686 19.686 6e-3 0.0329-6e-3 0.0658 0 0.088 2.0897 5.9527 3.5155 12.209 3.0964 18.362-0.19546 4-1.6382 7.8368-3.8923 11.123-12.103-11.813-24.18-23.651-36.272-35.488 3.5099-3.1388 7.0179-6.178 10.528-9.3576l2.1232-1.9421-2.7425-0.70627c-5.678-1.5227-11.301-3.1342-16.986-4.6788l-0.88468-0.26475-0.61937 0.7063c-6.5668 6.487-13.185 12.886-19.729 19.421l-1.1501 1.1476 1.1501 1.0593c3.4706 3.4979 6.9086 7.0012 10.351 10.505l1.1501 1.1476 1.0616-1.1476c2.4444-2.4985 4.8577-5.0704 7.2545-7.5921 11.456 11.806 22.94 23.516 34.415 35.312-5.3712 2.0827-11.421 2.7214-16.898 0.97063-4.8712-1.5093-9.2264-4.5185-13.093-8.033-0.40907-0.3774-1.626-1.3572-2.6541-2.0305l-0.88469-0.26475-0.7076 0.70628c-0.7604 0.82139-1.3276 1.5924-1.9463 2.2069-0.5204 0.041-1.1127-0.0329-1.9463 0l-0.61937 0.088-0.44205 0.44071c-0.60287 0.61419-1.2459 1.2365-1.8579 1.8538-0.68618-0.041-1.345-0.13237-2.0348-0.17678l-1.327-0.088-0.3538 1.3242c-0.2936 1.2196-0.8662 2.3375-1.6809 3.3546-3.2332 3.9078-9.0354 5.9982-12.651 11.211-0.03301 0.0329-0.06604 0.0494-0.0882 0.088-1.556 2.0643-2.3984 5.1324-0.79587 7.7686v0.088c1.6961 2.7789 5.3989 3.4893 8.0507 1.854v-0.088c3.5395-2.3302 5.6623-5.7864 7.8737-8.6512 1.8619-2.4176 3.5928-4.7589 5.8389-6.1798h0.0882c0.53854-0.36014 1.2322-0.57225 2.0348-0.6183l1.6809-0.088-0.26555-1.6775c-0.0742-0.53692-0.10314-1.0557-0.17732-1.5888 2.3622 2.3942 4.7974 4.7814 7.6083 6.7093 6.2254 4.3595 13.813 6.7832 21.498 6.4442 5.6046-0.24667 11.179-1.9722 16.013-4.9432 3.6094 3.7334 7.2822 7.4802 10.882 11.211l0.61854 0.61748 0.88469-0.17678c1.7807-0.44234 3.7321-1.0375 5.3971-2.4716 2.0199-1.6529 2.8898-3.9965 3.45-6.0911l0.26555-0.88257-0.70761-0.6183c-3.6608-3.5534-7.2201-7.189-10.882-10.77 3.1473-4.2829 5.4712-9.1473 6.6353-14.301 1.2543-5.9672 1.6177-12.441-0.3538-18.539h0.089c-2.8375-9.2488-8.8379-17.145-15.747-23.57-7.0829-6.5079-15.454-11.54-24.506-14.831l-0.28864-0.11013c-0.33402-0.12991-0.52535-0.15128-0.86142-0.24255z" fill="#ffd214"/>
 </g>
</svg>
