<?xml version="1.0" encoding="UTF-8"?>
<svg xmlns="http://www.w3.org/2000/svg" xmlns:xlink="http://www.w3.org/1999/xlink" width="793px" height="528px" viewBox="0 0 793 528" version="1.1">
<g id="surface1">
<path style=" stroke:none;fill-rule:evenodd;fill:rgb(80%,0%,0%);fill-opacity:1;" d="M -1.441406 -1.441406 C 262.890625 -1.441406 527.222656 -1.441406 791.558594 -1.441406 C 791.558594 174.558594 791.558594 350.558594 791.558594 526.558594 C 527.222656 526.558594 262.890625 526.558594 -1.441406 526.558594 C -1.441406 350.558594 -1.441406 174.558594 -1.441406 -1.441406 Z M -1.441406 -1.441406 "/>
<path style=" stroke:none;fill-rule:evenodd;fill:rgb(99.607843%,87.058824%,0%);fill-opacity:1;" d="M 428.21875 134.164062 C 450.160156 132.328125 470.34375 138.578125 488.777344 152.917969 C 546.769531 208.277344 556.382812 271.269531 517.613281 341.902344 C 523.445312 351.621094 530.65625 360.277344 539.238281 367.867188 C 542.457031 387.730469 534.289062 395.90625 514.730469 392.394531 C 505.582031 386.605469 497.894531 379.390625 491.660156 370.753906 C 430.089844 405.167969 371.457031 400.355469 315.757812 356.328125 C 302.824219 367.824219 290.332031 379.84375 278.269531 392.394531 C 257.277344 397.351562 248.144531 389.175781 250.875 367.867188 C 263.851562 354.886719 276.828125 341.902344 289.804688 328.917969 C 282.570312 320.714844 278.246094 311.578125 276.828125 301.507812 C 285.695312 293.46875 294.824219 285.777344 304.222656 278.425781 C 309.507812 285.160156 314.796875 291.890625 320.082031 298.621094 C 322.496094 294.273438 325.863281 292.832031 330.175781 294.296875 C 337.867188 301.988281 345.554688 309.683594 353.246094 317.378906 C 347.785156 320.488281 346.824219 324.339844 350.363281 328.917969 C 386.167969 353.453125 423.65625 356.820312 462.824219 339.015625 C 451.402344 322.773438 437.945312 308.347656 422.453125 295.738281 C 410.441406 304.152344 397.945312 311.847656 384.964844 318.820312 C 364.316406 309.699219 350.859375 294.3125 344.59375 272.65625 C 367.085938 233.8125 398.804688 204.957031 439.753906 186.097656 C 458.101562 194.359375 471.078125 207.824219 478.683594 226.492188 C 480.183594 231.652344 479.222656 236.460938 475.800781 240.917969 C 467.628906 251.015625 459.457031 261.113281 451.289062 271.214844 C 464.601562 284.882812 477.578125 298.828125 490.21875 313.050781 C 521.246094 248.445312 509.230469 193.144531 454.171875 147.148438 C 446.261719 141.265625 437.613281 136.9375 428.21875 134.164062 Z M 428.21875 134.164062 "/>
</g>
</svg>
