<svg xmlns="http://www.w3.org/2000/svg" xml:space="preserve" width="3072" height="2048" viewBox="0 0 812.8 541.867"><path fill="#e00000" d="M0 0h812.8v541.867H0Z" paint-order="stroke fill markers"/><path fill="#fff" d="M420.724 67.733a276.873 276.873 0 0 1 61.08 78.41c19.252 36.908 30.06 79.33 23.762 120.48-2.02 13.2-5.918 26.43-13.86 37.167-.974 1.316-2.074 2.525-3.154 3.752l-69.666-82.295 44.43-32.282-28.305-37.644-36.77-2.628-24.894 18.76-7.204-8.51h-8.318l-11.163 9.304v7.222l5.701 7.792-38.166 28.757-4.084 18.676 29.474 37.354h14.882l39.13-28.43 62.318 85.169a141.983 141.983 0 0 1-12.081 3.892c-41.779 11.418-87.772 6.608-126.284-13.206l-15.683 24.762c4.69 3.895 9.59 7.54 14.658 10.927l-8.259 11.563-18.366 2.478-44.985 71.602c3.374 9.55 9.731 18.022 17.955 23.935 9.976 7.174 22.661 10.477 34.87 9.079l41.683-76.142-5.16-21.873 5.333-7.634c8.892 4.186 18.117 7.667 27.581 10.317 26.18 7.33 54.026 8.517 80.784 3.716 13.134-2.357 26.152-6.322 38.148-12.144l44.76 61.172a26.966 26.966 0 0 0 15.173 1.57 26.97 26.97 0 0 0 13.57-6.97 26.928 26.928 0 0 0 7.153-11.688 26.938 26.938 0 0 0 .434-13.698l-47.403-55.997c15.243-18.117 23.408-41.737 25.56-65.417 2.563-28.23-2.883-56.899-13.722-83.092-10.838-26.193-26.953-49.997-45.708-71.254a334.649 334.649 0 0 0-65.204-56.952z"/></svg>