<svg xmlns="http://www.w3.org/2000/svg" xml:space="preserve" id="svg1" width="4608" height="3072" version="1.1" viewBox="0 0 1219.2 812.8"><defs id="defs1"><style id="style1">.cls-1{fill:#0283c0}.cls-2{fill:#fff}.cls-3{fill:#ef483f}</style></defs><path id="rect1" d="M 0 0 L 0 812.8 L 1219.2 812.8 L 1219.2 0 L 0 0 z" style="fill:#000;fill-rule:evenodd;stroke:none;stroke-width:8.46667;stroke-linecap:round;stroke-linejoin:round;fill-opacity:1"/><path id="rect2" d="M 0 0 L 0 812.8 L 406.4 812.8 L 406.4 0 L 0 0 z" style="fill:#a02020;fill-opacity:1;stroke-width:1.00012;stroke-linecap:round;stroke-linejoin:round;stroke-miterlimit:128"/><path id="_72731584-7" d="M 739.89076 284.71182 C 738.61326 284.68105 736.3844 285.99519 733.66323 288.73741 C 727.36694 295.08239 728.43229 304.55966 736.045 309.93302 C 739.62519 312.46005 744.30063 314.52809 746.43558 314.52809 C 748.57046 314.52809 752.50372 315.06196 755.17561 315.7151 C 758.15221 316.44261 756.69066 314.66766 751.40116 311.13191 C 740.19948 303.64414 736.48877 296.78706 739.90109 289.87791 C 741.5642 286.5103 741.33874 284.74747 739.89127 284.71182 L 739.89076 284.71182 z M 799.23649 312.69823 L 791.85709 312.7406 L 800.34753 315.69546 C 810.37846 319.18669 814.42551 323.25303 821.14368 336.59341 C 823.88544 342.03788 828.38325 348.20046 831.13893 350.28818 C 833.89463 352.37603 835.42005 354.59932 834.52891 355.22845 C 831.78635 357.16414 816.89333 345.87846 810.46061 336.98977 C 799.77137 322.21954 796.44149 321.04522 766.88084 321.62585 C 743.69392 322.08124 740.31752 321.71456 733.65703 318.01676 L 726.24353 313.90022 L 728.10698 318.42552 C 732.80834 329.83754 737.96097 332.23975 760.14895 333.3626 C 782.98753 334.51822 779.84805 332.98296 801.69887 353.67195 C 812.44039 363.84232 825.27563 368.70399 845.39594 370.22185 C 860.37144 371.35161 860.54659 371.42797 851.52839 372.9085 C 840.53142 374.71398 821.12822 373.17465 811.78249 369.75521 C 808.11674 368.41402 799.59265 363.88037 792.83998 359.68037 C 775.54713 348.92474 769.46231 347.6847 741.17026 349.1513 L 717.00378 350.40393 L 710.03625 344.16504 L 703.06975 337.92563 L 705.63031 344.3087 C 710.57785 356.64146 725.40354 363.16131 748.55793 363.1861 C 754.92044 363.1941 765.40267 365.90082 778.77727 370.99286 C 810.21438 382.9618 837.52154 386.35386 860.81051 381.1819 C 875.17148 377.99264 880.2419 376.28162 881.32037 372.75399 C 884.82893 371.48419 883.88837 370.62876 891.26705 358.23136 C 892.02438 358.94568 893.73079 359.75848 897.60929 360.73354 C 903.81901 362.29363 911.09085 367.38919 917.93829 372.04086 C 908.0842 378.40559 899.10876 385.97719 889.13074 395.45597 C 881.13977 395.39797 873.84017 398.12814 868.40642 402.64106 C 841.09683 393.71766 811.60902 385.33276 789.67945 388.20731 C 756.57659 381.99826 724.04604 390.35319 709.19289 406.38036 C 692.76597 416.45701 668.86394 427.60006 647.3362 425.80398 C 621.93213 423.68434 614.98685 409.91357 609.79792 396.71945 C 606.23855 387.66526 609.13746 373.05316 614.979 365.28468 C 622.85551 354.81227 633.35365 348.71169 647.22406 349.05983 C 659.35992 349.36382 678.74264 357.34219 674.88852 374.51771 C 673.40241 381.14229 665.48479 386.72091 658.72 386.76502 C 649.78849 386.82032 651.75868 391.11009 659.20472 391.23142 C 671.52006 391.43408 684.66985 380.90075 682.50666 366.69855 C 679.91428 349.68409 662.35564 340.99782 646.54245 340.26502 C 630.23795 339.5074 611.62978 349.26335 604.00086 363.75661 C 598.36977 374.44922 596.08674 389.46474 599.9639 400.91971 C 604.22392 413.50529 611.63008 424.81144 623.36298 430.97318 C 646.11597 442.9233 679.89515 438.85364 699.78313 424.5777 C 692.99492 431.80193 686.63478 438.96316 680.68662 446.28645 C 677.09767 448.69026 673.58418 451.18472 670.14411 453.79659 C 658.10531 453.93967 655.0397 463.5961 637.95176 458.15395 C 615.96926 451.15393 626.82077 432.07551 615.73244 434.56521 C 597.8103 438.5888 585.88352 449.50382 569.47015 456.64965 C 564.78367 458.69173 555.85856 454.88113 551.3896 457.36485 C 547.78518 459.36984 545.56875 461.59129 544.80085 463.95463 C 534.67971 476.44736 553.44162 475.17115 560.30947 473.6083 C 567.97768 471.85989 578.93558 462.28281 585.76735 458.37306 C 598.08445 451.32441 607.35814 452.18792 614.91957 457.04394 C 634.70385 469.74781 638.40057 471.88483 649.02757 475.28313 C 645.1696 477.0436 640.44914 478.35444 633.73393 478.58267 C 610.68475 479.36416 614.55451 457.74081 604.9331 463.81045 C 589.3838 473.6186 581.78287 487.91048 568.69707 500.15552 C 564.96004 503.65213 555.27886 503.05841 551.895 506.90136 C 549.16568 509.99979 547.81872 512.8375 547.88232 515.32255 C 542.50678 530.49342 559.76383 522.99239 565.71534 519.21172 C 572.35833 514.98907 579.49368 502.28669 584.63098 496.30666 C 593.88798 485.52867 602.91602 483.22983 611.66086 485.2665 C 645.5345 493.15833 641.8223 493.10636 677.37261 492.05679 C 687.02683 492.1597 696.87009 488.30033 706.25508 482.65891 C 729.46122 477.18892 755.09817 462.60045 773.59671 444.99971 C 775.59353 445.57939 777.88643 446.13487 780.87327 446.53502 C 781.3145 447.18887 784.26621 438.96933 785.31434 435.04425 C 792.96063 434.54882 796.21575 440.78564 803.78815 442.83447 C 838.00269 486.22931 873.2932 516.47627 923.00103 495.4788 C 927.99899 496.56732 932.82314 496.23489 941.1379 497.04356 C 964.72513 499.34127 1002.0674 485.97347 1029.5046 493.24276 C 1039.7484 495.95738 1043.1019 505.83166 1052.744 520.38787 C 1054.8296 524.59075 1057.027 524.51357 1059.0599 525.85472 C 1067.8753 531.66884 1077.7026 525.14541 1066.5969 517.61492 C 1054.3421 509.30232 1054.6215 501.62194 1040.1727 486.5057 L 1040.1727 486.5026 C 1033.8773 479.91739 1030.1336 480.98523 1026.4893 481.00733 C 1004.8175 477.13948 983.06662 476.38771 963.4585 474.95447 C 986.0371 472.87373 1014.4171 465.70158 1036.1171 466.26198 C 1042.8703 467.16052 1060.4055 478.88812 1064.3645 483.71363 C 1067.3328 487.33512 1069.462 486.7676 1071.7444 487.61365 C 1081.9948 490.60829 1089.8173 481.60432 1077.2402 477.88453 C 1054.667 471.20683 1047.8748 453.18975 1032.8873 454.05291 C 1017.6681 454.93066 978.52233 450.99404 957.81699 452.42303 C 955.45528 448.50541 953.10852 447.14691 948.74416 444.39096 C 953.4612 430.47819 953.93321 422.14916 950.74765 416.557 C 954.85387 408.45112 958.78629 398.68013 963.44869 386.6472 C 967.45803 379.67772 963.87979 364.02069 958.25882 358.08615 C 960.12719 356.91536 965.79024 360.70256 969.34703 362.22182 C 983.2986 368.18193 992.90575 374.81519 986.86793 366.84841 C 980.11589 357.93851 977.37723 352.89759 964.73026 345.85434 C 964.06507 345.48366 963.38883 345.16664 962.70299 344.89316 L 962.90608 344.8296 C 965.89201 345.57258 974.5679 350.15344 977.638 350.33159 C 978.31532 350.37109 979.34521 349.15521 978.8524 348.68724 C 971.00681 341.24033 960.00105 338.29227 953.45395 336.21824 C 946.62425 334.05218 944.87673 335.27839 940.27956 339.21185 L 940.36741 339.51674 C 935.81931 337.63456 931.52317 336.80407 922.75039 336.52209 C 920.89021 336.46259 920.03132 336.03625 918.27263 339.39789 C 916.61043 341.50108 910.70918 340.08302 908.02623 339.42269 L 908.02209 339.42218 C 906.5634 339.06368 905.20253 338.79919 903.90245 338.59742 C 905.04362 336.91819 906.18202 335.24214 907.47122 333.38378 C 907.47122 333.38378 913.07242 325.30693 910.79609 322.58806 C 910.72919 322.50816 910.63695 322.46319 910.52065 322.45164 C 908.7763 322.27825 901.64366 329.58409 894.11907 338.02433 C 889.82825 338.06413 885.43682 338.23924 879.51737 337.41196 C 875.44993 336.2316 878.09836 340.11524 877.94744 342.77288 C 876.00026 344.20216 879.40522 347.70254 883.17813 350.72433 C 880.36707 354.09814 877.92582 357.11798 876.2292 359.30985 C 874.18673 358.10483 871.52506 357.86196 868.07466 358.47321 C 855.90661 360.62895 851.96566 358.08388 846.16179 344.32834 C 837.82663 324.57335 820.03074 312.57817 799.23649 312.69823 z" style="fill:#a02020;fill-opacity:1;fill-rule:evenodd;stroke:none;stroke-width:.264583;stroke-miterlimit:4;stroke-dasharray:none"/></svg>