<svg xmlns="http://www.w3.org/2000/svg" xml:space="preserve" id="svg1" width="4608" height="3072" version="1.1" viewBox="0 0 1219.2 812.8"><defs id="defs1"><style id="style1">.cls-1{fill:#0283c0}.cls-2{fill:#fff}.cls-3{fill:#ef483f}</style></defs><path id="rect1" d="M 0 0 L 0 812.8 L 1219.2 812.8 L 1219.2 0 L 0 0 z" style="fill:#000;fill-rule:evenodd;stroke:none;stroke-width:8.46667;stroke-linecap:round;stroke-linejoin:round;fill-opacity:1"/><path id="path2" d="M 609.59998,101.60001 A 304.79991,304.79991 0 0 0 304.8,406.40002 304.79991,304.79991 0 0 0 609.59998,711.2 304.79991,304.79991 0 0 0 914.4,406.40002 304.79991,304.79991 0 0 0 609.59998,101.60001 Z m -1.81539,25.40155 56.68493,190.69923 h -31.03144 l 62.19001,136.16532 -29.54318,-130.45793 53.89052,0.0869 33.14759,65.93706 6.10892,-66.02853 104.36572,0.2403 -40.12467,33.00263 24.18612,107.97327 -35.55365,-2.34638 -18.47639,-79.89434 -6.1097,81.7981 h -32.48406 l -36.52024,-74.19159 14.8479,74.19159 h -22.5901 v 8.54987 L 757.81033,633.7149 605.81805,517.553 454.22419,635.0001 500.7268,477.49576 l 0.14265,-12.83255 -23.55281,-2.38515 -30.77409,-66.58198 -12.87442,68.48574 h -39.36349 l 20.9088,-95.0562 -59.61419,-45.94835 99.00559,2.13475 25.71316,62.77445 17.65783,-64.67977 h 46.48941 l -10.59702,45.65845 h 28.06494 l 19.94995,-51.3643 h -32.19029 z m 2.98044,229.72009 -21.2545,42.77879 h 40.24483 z m -83.98014,42.77724 -15.36572,64.67978 h 6.24536 l 27.39211,-57.19497 v -7.48481 z m 47.88468,34.24751 -15.03474,30.43535 h 99.5823 L 646.80391,433.7464 Z" style="display:inline;fill:#fff;fill-opacity:1;stroke:none;stroke-width:1"/></svg>