<svg xmlns="http://www.w3.org/2000/svg" xml:space="preserve" id="svg1" width="4608" height="3072" version="1.1" viewBox="0 0 1219.2 812.8"><defs id="defs1"><style id="style1">.cls-1{fill:#0283c0}.cls-2{fill:#fff}.cls-3{fill:#ef483f}</style></defs><path id="rect1" d="M 1219.2,0 V 812.8 H 0 V 0 Z" style="fill:#000;fill-opacity:1;fill-rule:evenodd;stroke:none;stroke-width:8.46667;stroke-linecap:round;stroke-linejoin:round"/><path id="path12" d="M 67.733333 50.8 L 180.62205 135.46667 L 1038.578 135.46667 L 1151.4667 50.8 L 67.733333 50.8 z M 248.35538 186.26667 L 398.78031 299.0851 A 237.06666 237.06665 0 0 1 523.15721 186.26667 L 248.35538 186.26667 z M 697.43857 186.26667 A 237.06666 237.06665 0 0 1 820.77419 298.81949 L 970.84462 186.26667 L 697.43857 186.26667 z M 609.6 203.2 C 497.37595 203.19999 406.39999 294.17595 406.4 406.4 C 406.39999 518.62405 497.37595 609.60001 609.6 609.6 C 721.82405 609.60001 812.80001 518.62405 812.8 406.4 C 812.80001 294.17595 721.82405 203.19999 609.6 203.2 z M 609.6 237.06667 C 703.12004 237.06666 778.93334 312.87996 778.93333 406.4 C 778.93334 499.92004 703.12004 575.73334 609.6 575.73333 C 516.07996 575.73334 440.26666 499.92004 440.26667 406.4 C 440.26666 312.87996 516.07996 237.06666 609.6 237.06667 z M 609.6 279.4 A 76.199997 76.200005 0 0 0 533.4 355.6 L 685.8 355.6 A 76.199997 76.200005 0 0 0 609.6 279.4 z M 508 368.3 L 508 393.7 L 711.2 393.7 L 711.2 368.3 L 508 368.3 z M 520.7 406.4 L 520.7 457.2 L 546.1 457.2 L 546.1 406.4 L 520.7 406.4 z M 558.8 406.4 L 558.8 457.2 L 584.2 457.2 L 584.2 406.4 L 558.8 406.4 z M 596.9 406.4 L 596.9 457.2 L 622.3 457.2 L 622.3 406.4 L 596.9 406.4 z M 635 406.4 L 635 457.2 L 660.4 457.2 L 660.4 406.4 L 635 406.4 z M 673.1 406.4 L 673.1 457.2 L 698.5 457.2 L 698.5 406.4 L 673.1 406.4 z M 508 469.9 L 508 495.3 L 711.2 495.3 L 711.2 469.9 L 508 469.9 z M 398.78031 513.7149 L 248.35538 626.53333 L 523.15721 626.53333 A 237.06666 237.06665 0 0 1 398.78031 513.7149 z M 820.77419 513.98051 A 237.06666 237.06665 0 0 1 697.43857 626.53333 L 970.84462 626.53333 L 820.77419 513.98051 z M 180.62205 677.33333 L 67.733333 762 L 1151.4667 762 L 1038.578 677.33333 L 180.62205 677.33333 z" style="fill:#ffd000;fill-opacity:1;stroke-width:33.8667;stroke-miterlimit:128;paint-order:stroke fill markers"/></svg>