<svg xmlns="http://www.w3.org/2000/svg" xml:space="preserve" id="svg1" width="4608" height="3072" version="1.1" viewBox="0 0 1219.2 812.8"><defs id="defs1"><style id="style1">.cls-1{fill:#0283c0}.cls-2{fill:#fff}.cls-3{fill:#ef483f}</style></defs><path id="rect1-8" d="M 0,0 V 812.8 H 1219.2 V 0 Z" style="fill:#d00000;fill-opacity:1;fill-rule:evenodd;stroke:none;stroke-width:8.46667;stroke-linecap:round;stroke-linejoin:round"/><path id="path1" d="M 914.4,406.4 A 304.80002,304.79998 0 0 0 609.6,101.60001 304.80002,304.79998 0 0 0 304.8,406.4 304.80002,304.79998 0 0 0 609.6,711.2 304.80002,304.79998 0 0 0 914.4,406.4 Z" style="fill:#fff;fill-opacity:1;stroke-width:1.00012;stroke-miterlimit:128"/><path id="path2" fill="#e00000" d="m 431.57712,203.20002 c -22.16199,17.479 65.13501,117.35733 65.13501,117.35733 L 406.4413,271.72769 c -8.918,24.41483 83.51466,81.5675 83.51466,81.5675 L 387.52263,335.81618 c -9.18867,26.07968 106.75817,49.38501 106.75817,49.38501 l -76.21834,25.52433 c 5.677,21.917 88.65034,0.27767 88.65034,0.27767 l -63.51334,44.11283 c 7.02684,21.08517 87.297,-26.07967 87.297,-26.07967 l -42.252,54.86368 c 18.53834,12.75166 65.17001,-43.94368 65.17001,-43.94368 l -28.09334,57.6765 c 13.18566,9.80934 55.99534,-51.20266 55.99534,-51.20266 l 12.15432,47.25 c -68.37833,-31.906 -38.43232,42.79683 -38.43232,42.79683 0,0 -63.35351,37.56784 -60.00867,32.27117 3.34366,-5.29667 -2.00668,-7.553 -2.00668,-7.553 0,0 -0.735,-1.01734 -6.76666,1.10366 l -1.834,-4.046 16.62617,-3.5315 -8.21683,-15.302 -12.06568,9.19334 -122.70299,-216.40267 107.82099,224.86567 -14.52382,6.86583 6.87982,12.75168 14.71518,-11.57451 1.50266,2.41733 c -13.57416,7.504 0.1225,14.945 0.1225,14.945 -4.87316,6.86584 6.21134,12.26168 6.21134,12.26168 -2.67634,6.66866 9.17232,7.84582 9.17232,7.84582 0,0 2.205,-1.617 4.32251,-3.15 l 5.61633,9.03584 1.71967,9.22016 10.31917,4.31668 1.148,-10.59334 -7.07117,-5.49384 -5.03767,-11.11832 c 1.24134,-0.80968 2.41034,-1.54 3.31684,-2.02534 4.396,-2.35434 -1.71967,-9.22134 -1.71967,-9.22134 l 0.76417,-4.31432 59.51983,-33.89168 15.01384,0.34417 c -29.547,-47.18466 24.927,-32.68066 21.54016,-27.60334 14.8645,40.78434 -17.0275,57.70801 -17.0275,57.70801 l 15.93666,1.28334 c 0,0 0.3815,21.385 -16.47332,32.109 l 16.47332,1.21916 c 0,0 0.3815,21.38384 -17.01,32.17316 l 15.099,-3.31216 13.18568,38.059 13.18683,-38.059 15.09783,3.31216 C 620.49313,631.7972 620.8758,610.41336 620.8758,610.41336 l 16.47333,-1.21916 C 620.4943,598.4702 620.8758,577.08636 620.8758,577.08636 l 15.93667,-1.28334 c 0,0 -31.89318,-16.92483 -17.0275,-57.70799 -3.38684,-5.0785 51.08716,-19.5825 21.54016,27.60332 l 15.015,-0.34533 59.51867,33.89168 0.763,4.31432 c 0,0 -6.1145,6.867 -1.71967,9.22134 0.70583,0.378 1.58083,0.9135 2.50833,1.50266 -4.914,6.87518 -8.62166,12.72484 -9.25633,15.48984 -2.16183,9.4325 9.4605,8.323 9.4605,8.323 l 11.5605,-15.55166 0.0607,0.0443 c 0,0 11.84867,-1.17716 9.1735,-7.847 0,0 11.08333,-5.39466 6.21133,-12.26166 0,0 7.1715,-3.87916 6.0585,-8.85966 l 13.9615,-18.781 c 0,0 -23.7825,-14.14935 -26.75633,-31.62835 -2.97267,-17.479 7.56817,-38.2865 36.757,-41.06082 29.19,-2.77434 42.43167,34.68032 42.43167,34.68032 0,0 -2.16184,-43.83632 -46.7565,-45.77766 -44.59467,-1.9425 -54.05401,44.38934 -51.08134,54.37834 2.97383,9.98667 1.89233,13.03867 18.109,32.18249 l 10.81034,-2.49667 c 0,0 -3.43467,4.10667 -8.25767,10.05667 -12.52533,-5.7015 -13.71884,-3.97832 -13.71884,-3.97832 0,0 -5.35033,2.25632 -2.00666,7.553 3.34483,5.29666 -60.00867,-32.27118 -60.00867,-32.27118 0,0 29.94717,-74.70167 -38.43233,-42.79683 l 12.15433,-47.25 c 0,0 42.80967,61.012 55.99533,51.20266 l -28.09333,-57.6765 c 0,0 46.63167,56.69534 65.17,43.94368 l -42.252,-54.86368 c 0,0 80.27017,47.16484 87.297,26.07968 l -63.51333,-44.11284 c 0,0 82.97333,21.63934 88.64917,-0.27766 l -76.21834,-25.52434 c 0,0 115.948,-23.30533 106.75817,-49.38501 L 729.244,353.29517 c 0,0 92.43383,-57.15267 83.51466,-81.5675 l -90.27083,48.82967 c 0,0 87.29817,-99.87834 65.135,-117.35734 l -92.70331,97.6593 c 0,0 1.62166,-14.70467 -4.053,-14.98233 0,0 -4.43917,13.41783 -39.221,46.76815 0,0 -19.11117,30.21202 10.129,34.92068 0,0 -14.525,50.81067 -43.00099,-4.1195 l 12.23132,2.45234 -7.931,-25.40534 9.842,3.13832 -8.3125,-22.757 10.605,3.33668 -4.2035,-10.0065 -1.05117,-1.27518 c 0,0 0.38267,-20.89265 -3.91765,-24.13015 0,0 16.723,4.90466 16.34032,-5.39467 l -8.505,-0.588 -21.11667,-14.42 c 0,0 -11.08565,-5.10067 -16.43715,3.2375 0,0 -15.86085,0.098 -11.466,18.04833 0,0 8.69515,-8.043 18.44265,-1.66833 9.74635,6.377 11.84867,22.365 11.84867,22.365 0,0 -13.56832,-13.5345 -19.77967,-9.12218 0,0 21.48067,14.63235 5.06335,62.18918 -28.47485,54.93017 -42.99985,4.1195 -42.99985,4.1195 29.24017,-4.70866 10.129,-34.92068 10.129,-34.92068 -34.78183,-33.35032 -39.221,-46.76815 -39.221,-46.76815 -5.67582,0.27766 -4.05417,14.98233 -4.05417,14.98233 z m 171.33435,69.16933 4.97,2.01134 c 0,0 -3.96668,3.67733 0.6195,5.34566 4.58733,1.66834 5.208,-2.50133 5.208,-2.50133 l 8.12233,5.73883 0.38267,0.686 -0.574,1.12817 -5.63734,-2.50133 c 0,0 -16.961,5.73883 -13.09116,-9.90734 z m -35.833,8.092 -1.2425,2.9435 c 0,0 10.7975,24.42417 21.2135,15.89 10.41482,-8.533 22.93316,1.37317 22.93316,1.37317 0,0 -2.485,-12.2605 -20.9265,-7.945 -18.44266,4.31667 -21.97766,-12.26167 -21.97766,-12.26167 z" style="fill:#000;fill-opacity:1;stroke-width:.999998"/></svg>