<svg xmlns="http://www.w3.org/2000/svg" xml:space="preserve" id="svg1" width="4608" height="3072" version="1.1" viewBox="0 0 1219.2 812.8"><defs id="defs1"><style id="style1">.cls-1{fill:#0283c0}.cls-2{fill:#fff}.cls-3{fill:#ef483f}</style></defs><path id="rect1-1" d="M 0,0 V 812.8 H 1219.2 V 0 Z" style="fill:#ffd000;fill-opacity:1;fill-rule:evenodd;stroke:none;stroke-width:8.46667;stroke-linecap:round;stroke-linejoin:round"/><path id="path3" d="M 3072 512.00001 L 2842.0977 1219.5664 L 2098.1172 1219.5664 L 2700.0098 1656.8672 L 2470.1075 2364.4336 L 3072 1927.1328 L 3673.8926 2364.4336 L 3443.9903 1656.8653 L 4045.8809 1219.5664 L 3301.9024 1219.5664 L 3072 512.00001 z" style="fill:#ff8000;fill-opacity:1;stroke-width:384;stroke-miterlimit:128" transform="scale(0.26458333)"/><path id="rect2" d="M 0,0 V 812.8 H 406.4 V 0 Z" style="fill:#d00000;fill-opacity:1;stroke-width:1.00012;stroke-linecap:round;stroke-linejoin:round;stroke-miterlimit:128"/><path id="_72731584-7" d="m 910.52057,322.45174 c -1.74435,-0.17339 -8.87674,7.13248 -16.40134,15.57273 l 13.90716,1.39866 c -1.46032,-0.35903 -2.82265,-0.62385 -4.12401,-0.82582 1.14117,-1.67923 2.27961,-3.35515 3.56882,-5.21351 0,0 5.60145,-8.07672 3.32511,-10.79559 -0.0669,-0.0799 -0.15944,-0.12492 -0.27574,-0.13647 z m -27.34223,28.2725 c -2.81107,3.37381 -5.25255,6.39362 -6.94917,8.58549 l 5.09096,13.44435 c 3.50857,-1.2698 2.56833,-2.12529 9.94701,-14.5227 z" style="fill:gray;fill-opacity:1;fill-rule:evenodd;stroke:none;stroke-width:.264583;stroke-miterlimit:4;stroke-dasharray:none"/><path id="path10" d="m 739.89125,284.71175 c -1.27742,-0.0311 -3.50674,1.28304 -6.22825,4.0256 -6.29629,6.34498 -5.23087,15.8223 2.38184,21.19567 3.5802,2.52703 8.25585,4.59518 10.3908,4.59518 2.13489,0 6.06819,0.53383 8.74008,1.18697 2.9766,0.72751 1.51503,-1.04736 -3.77447,-4.58311 -11.20169,-7.48778 -14.91256,-14.34501 -11.50024,-21.25416 1.66332,-3.36805 1.43797,-5.13094 -0.01,-5.16615 z m 59.3451,27.98654 -7.37949,0.0422 8.49079,2.95514 c 10.03094,3.49123 14.07783,7.55725 20.796,20.89764 2.74177,5.44448 7.2396,11.6073 9.99529,13.69502 2.7557,2.08785 4.28124,4.31096 3.3901,4.94009 -2.74256,1.9357 -17.63545,-9.34997 -24.06818,-18.23867 -10.68925,-14.77024 -14.01949,-15.94448 -43.58017,-15.36385 -23.18694,0.45539 -26.56323,0.0886 -33.22373,-3.6092 l -7.41338,-4.11659 1.86332,4.52556 c 4.70137,11.41203 9.85386,13.81392 32.04186,14.93677 22.8386,1.15562 19.69936,-0.37951 41.5502,20.3095 10.74153,10.17038 23.57682,15.03203 43.69715,16.54989 14.97551,1.12976 15.15038,1.20628 6.13217,2.68682 -10.99698,1.80548 -30.40008,0.2661 -39.74582,-3.15335 -3.66575,-1.34119 -12.18974,-5.87514 -18.94242,-10.07514 -17.29287,-10.75564 -23.37783,-11.99526 -51.6699,-10.52866 l -24.16659,1.25243 -6.96728,-6.23894 -6.96634,-6.2394 2.56056,6.3833 c 4.94754,12.33277 19.77309,18.85263 42.9275,18.87742 6.36252,0.008 16.84477,2.71453 30.21938,7.80657 31.43714,11.96895 58.74419,15.36083 82.03318,10.18887 14.36099,-3.18926 19.43111,-4.90005 20.50958,-8.42768 l -5.09096,-13.44433 c -2.04248,-1.20502 -4.70385,-1.44775 -8.15425,-0.8365 -12.16806,2.15574 -16.10945,-0.38927 -21.91333,-14.14483 -8.33517,-19.75501 -26.13097,-31.75016 -46.92524,-31.6301 z" style="fill:#a02020;fill-opacity:1;fill-rule:evenodd;stroke:none;stroke-width:.264583;stroke-miterlimit:4;stroke-dasharray:none"/><path id="path7" d="m 894.11923,338.02447 c -4.29082,0.0398 -8.68264,0.21453 -14.60209,-0.61275 -4.06745,-1.18036 -1.41856,2.70348 -1.56948,5.36112 -1.94719,1.42929 1.45776,4.92961 5.23068,7.9514 l 8.0888,7.50714 c 0.75734,0.71432 2.46349,1.52702 6.342,2.50208 6.20972,1.56009 13.48155,6.65593 20.32899,11.3076 -9.8541,6.36474 -18.82924,13.93626 -28.80727,23.41504 -7.99098,-0.058 -15.29074,2.67207 -20.72449,7.18499 -27.30962,-8.92341 -56.79752,-17.30812 -78.72711,-14.43357 -33.10289,-6.20906 -65.63328,2.14557 -80.48645,18.17276 -16.42693,10.07666 -40.32869,21.21986 -61.85645,19.42378 -25.40409,-2.11965 -32.34959,-15.89026 -37.53852,-29.08439 -3.55937,-9.0542 -0.66054,-23.66664 5.18101,-31.43513 7.87652,-10.47242 18.37476,-16.57262 32.24518,-16.22448 12.13587,0.30399 31.5185,8.282 27.66438,25.45754 -1.48611,6.62459 -9.40351,12.20352 -16.16831,12.24763 -8.93152,0.0553 -6.96141,4.3448 0.48464,4.46613 12.31535,0.20266 25.46496,-10.33063 23.30177,-24.53285 -2.59238,-17.01447 -20.15072,-25.70051 -35.96393,-26.43331 -16.30451,-0.75762 -34.91281,8.99837 -42.54174,23.49164 -5.63109,10.69262 -7.91391,25.70799 -4.03675,37.16298 4.26003,12.58559 11.66588,23.89145 23.3988,30.05319 22.75301,11.95013 56.53246,7.88057 76.42046,-6.39538 -6.78821,7.22424 -13.14836,14.38532 -19.09653,21.70862 -3.58895,2.40381 -7.10252,4.89853 -10.5426,7.5104 -12.03881,0.14308 -15.1043,9.79966 -32.19226,4.3575 -21.98252,-7.00002 -11.13136,-26.07881 -22.2197,-23.58911 -17.92216,4.0236 -29.84851,14.93879 -46.2619,22.08462 -4.68648,2.04209 -13.61188,-1.76838 -18.08084,0.71534 -3.60442,2.00499 -5.82058,4.22607 -6.58848,6.58941 -10.12115,12.49275 8.64082,11.21649 15.50868,9.65364 7.66822,-1.74841 18.62577,-11.32503 25.45754,-15.23479 12.31712,-7.04865 21.59073,-6.18551 29.15217,-1.32949 19.7843,12.70389 23.48103,14.8413 34.10804,18.23961 -3.85797,1.76047 -8.57852,3.07088 -15.29374,3.29911 -23.0492,0.78149 -19.17935,-20.84162 -28.80077,-14.77197 -15.54932,9.80816 -23.15015,24.09999 -36.23596,36.34504 -3.73703,3.49662 -13.41809,2.9029 -16.80196,6.74585 -2.72932,3.09843 -4.0762,5.93612 -4.0126,8.42117 -5.37555,15.17088 11.88144,7.6698 17.83296,3.88912 6.643,-4.22265 13.77818,-16.92483 18.91549,-22.90487 9.25701,-10.778 18.28497,-13.07691 27.02981,-11.04023 33.87368,7.89183 30.16134,7.83999 65.71168,6.79042 9.65423,0.10291 19.49794,-3.75691 28.88294,-9.39833 23.20616,-5.47 48.84294,-20.05846 67.3415,-37.65922 1.99682,0.57968 4.2896,1.13544 7.27644,1.53559 0.44123,0.65385 3.39294,-7.56587 4.44107,-11.49096 7.6463,-0.49543 10.90162,5.74148 18.47402,7.79031 34.21458,43.39488 69.50454,73.64176 119.21242,52.64427 4.99797,1.08852 9.82224,0.75617 18.13701,1.56484 23.58725,2.29771 60.92952,-11.07022 88.36672,-3.80092 10.2438,2.71462 13.5976,12.58917 23.2397,27.1454 2.0856,4.20288 4.2826,4.12534 6.3155,5.4665 8.8154,5.81412 18.643,-0.70917 7.5373,-8.23967 -12.2548,-8.31261 -11.9757,-15.99302 -26.4245,-31.10927 v -0.003 c -6.2954,-6.58522 -10.0391,-5.51738 -13.6834,-5.49528 -21.6718,-3.86786 -43.42228,-4.61955 -63.03042,-6.05279 22.57862,-2.08074 50.95852,-9.25266 72.65852,-8.69226 6.7532,0.89854 24.2885,12.62587 28.2475,17.45138 2.9683,3.6215 5.0974,3.05375 7.3798,3.8998 10.2504,2.99465 18.0729,-6.00904 5.4958,-9.72884 -22.5732,-6.6777 -29.3655,-24.69506 -44.353,-23.8319 -15.2193,0.87776 -54.36475,-3.05882 -75.07011,-1.62983 -2.36171,-3.91762 -4.70855,-5.27575 -9.07292,-8.0317 4.71705,-13.91279 5.18907,-22.24213 2.00351,-27.83429 4.10622,-8.10589 8.03876,-17.87681 12.70116,-29.90975 4.00935,-6.96949 0.43067,-22.62623 -5.1903,-28.56077 1.86837,-1.17079 7.53171,2.61635 11.08851,4.13561 13.95158,5.96012 23.55837,12.59307 17.52054,4.62628 -6.75204,-8.90991 -9.49056,-13.95047 -22.13754,-20.99373 -0.66519,-0.37068 -1.34135,-0.68789 -2.02719,-0.96137 l 0.20332,-0.0636 c 2.98593,0.74298 11.66149,5.32409 14.73159,5.50224 0.67732,0.0395 1.70717,-1.17672 1.21436,-1.64469 -7.84559,-7.44692 -18.85101,-10.39501 -25.39812,-12.46904 -6.8297,-2.16606 -8.57747,-0.93981 -13.17465,2.99366 l 0.0878,0.30498 c -4.5481,-1.88219 -8.84432,-2.71261 -17.6171,-2.99459 -1.86019,-0.0595 -2.71904,-0.48588 -4.47773,2.87576 -1.6622,2.10319 -7.56303,0.68493 -10.24598,0.0246 z" style="fill:silver;fill-opacity:1;fill-rule:evenodd;stroke:none;stroke-width:.264583;stroke-miterlimit:4;stroke-dasharray:none"/></svg>