<svg xmlns="http://www.w3.org/2000/svg" xml:space="preserve" id="svg1" width="4608" height="3072" version="1.1" viewBox="0 0 1219.2 812.8"><defs id="defs1"><style id="style1">.cls-1{fill:#0283c0}.cls-2{fill:#fff}.cls-3{fill:#ef483f}</style></defs><path id="rect1" d="M 0 0 L 0 812.8 L 1219.2 812.8 L 1219.2 0 L 0 0 z" style="fill:#000;fill-rule:evenodd;stroke:none;stroke-width:8.46667;stroke-linecap:round;stroke-linejoin:round;fill-opacity:1"/><path id="path14" d="m 589.69119,135.51803 c -6.41446,-1.63863 -123.00625,35.84535 -184.57313,122.39136 10.22235,18.04915 -17.74502,47.41682 -29.91782,36.61841 -11.40003,14.56333 -37.08775,31.18376 -14.15793,54.54376 28.86388,21.22127 39.98428,37.78699 58.35316,21.77825 12.44431,-13.2209 23.54184,-22.9725 10.83972,-32.55676 1.94545,-4.40911 13.06539,-18.02211 15.98925,-21.39251 7.74182,-8.92418 10.18994,-11.201 17.85895,-14.72511 15.31799,-7.03907 24.55552,3.87181 32.26543,9.57851 9.86764,7.87865 19.73531,15.75745 29.60291,23.63612 3.76359,-6.28363 7.99064,-13.19338 12.81116,-20.91311 3.41093,-5.4623 6.75237,-10.84036 7.21174,-11.59937 1.21296,-2.00427 1.2096,-1.715 1.89549,-2.55045 0.68587,-0.83537 1.45085,-1.73837 2.39185,-2.68688 2.2469,-2.26489 4.85844,-4.01321 7.61444,-5.41212 -14.04875,-10.97872 -28.11385,-21.93687 -42.15887,-32.92037 6.51862,-11.7477 6.72925,-20.60461 -9.71717,-28.06657 -18.85069,-12.1942 6.81629,-27.8271 20.74347,-41.27086 l 62.71208,-53.6056 c 0.60067,-0.45405 0.66291,-0.73747 0.23527,-0.8467 z m 27.14318,114.1441 c -3.90853,-0.0719 -8.1818,1.02223 -11.35749,3.06008 -1.11584,0.71607 -4.13361,3.60209 -7.31571,7.3467 -3.18216,3.74463 -6.75466,8.43248 -9.96204,13.16299 -4.83396,7.12948 -6.54632,11.4461 -6.88795,16.66189 l -0.0731,1.11666 -1.17637,-0.28986 c 1.01697,0.25102 1.1539,0.39675 2.03635,0.76484 0.88249,0.36806 2.0462,0.86975 3.42297,1.47141 2.75342,1.20329 6.35732,2.81181 10.15968,4.54179 7.56989,3.44416 16.1436,7.29308 18.92839,8.50022 1.39504,0.6047 2.74514,1.15854 3.7637,1.55255 0.21351,0.0828 0.33144,0.121 0.51186,0.18809 0.25037,-0.23638 0.47373,-0.43075 0.83785,-0.8408 1.08685,-1.224 2.5273,-3.10496 4.0506,-5.30445 3.04663,-4.3991 6.47622,-10.12649 8.7945,-14.96334 5.59833,-11.68042 6.64123,-21.53335 4.79035,-25.16137 -2.18042,-4.27412 -9.31532,-9.47323 -16.79168,-11.33759 -1.16755,-0.29113 -2.42913,-0.44589 -3.73199,-0.46981 z m 48.80934,24.93866 c -0.46845,-0.01 -0.92768,5.1e-4 -1.37848,0.0296 -1.20216,0.077 -2.34159,0.28763 -3.43326,0.62692 -4.36671,1.35708 -8.38756,4.91012 -12.28385,11.43268 -1.45235,2.43149 -6.16028,9.7417 -10.66198,16.58302 -2.23465,3.39602 -4.24245,6.51286 -5.66435,8.77826 -0.19178,0.30554 -0.27222,0.4474 -0.4418,0.72059 1.61978,0.59271 4.41722,1.64686 6.66079,2.51133 2.10004,0.80922 7.13255,2.37772 10.73498,3.32412 3.9717,1.04342 6.78776,1.93648 9.11607,3.09918 2.32834,1.1627 4.12189,2.66885 5.60536,4.47763 2.90548,3.54274 4.09708,7.93625 3.73567,12.26024 8.80407,-14.15335 14.96751,-24.42022 18.00571,-30.76084 3.64101,-7.59848 3.98075,-10.78269 3.38386,-14.99726 -0.8353,-5.89838 -5.25314,-11.61942 -12.00726,-14.88884 -4.36713,-2.11403 -8.09243,-3.1304 -11.37146,-3.19653 z m -95.39498,23.55057 c -6.36549,0.0129 -8.76354,1.04437 -13.55315,5.87237 -1.13519,1.14426 -2.72761,3.15108 -2.96714,3.54686 -0.64522,1.06606 -3.8603,6.23536 -7.27662,11.70631 -9.95405,15.94061 -17.5955,28.72221 -22.97309,38.43059 -5.37766,9.70841 -8.49339,16.5125 -9.32629,19.69395 -1.18061,4.50954 -0.61246,7.56797 2.31223,11.80737 2.1335,3.0927 18.2255,26.33007 20.59597,29.74082 4.16699,5.99587 15.4715,22.31791 17.53368,25.31847 1.19179,1.7341 3.64449,5.2939 5.4453,7.90135 1.80351,2.61135 4.46672,6.47354 5.92251,8.58871 1.44759,2.1033 5.3841,7.80143 8.73916,12.64598 7.78534,11.2415 10.17169,14.69912 13.40785,19.44614 l 2.61535,3.83967 c 0.36745,0.538 0.55262,1.17951 0.52883,1.8306 l -0.24413,6.55383 c -0.14408,3.87922 -1.17927,18.55656 -2.31737,33.11213 -1.13676,14.53839 -2.47761,31.72168 -2.97895,38.18128 -0.50149,6.46232 -1.21458,15.61179 -1.58351,20.33489 -0.36795,4.7101 -1.38903,18.13432 -2.26723,29.8131 -0.87846,11.68273 -1.99029,26.32171 -2.47225,32.542 -0.48112,6.20968 -1.18546,15.46506 -1.56654,20.55468 -0.38168,5.09713 -1.10521,14.65325 -1.60565,21.24059 -0.8586,11.30139 -1.32615,17.55791 -2.9251,39.08035 -0.3687,4.9628 -1.08077,14.82515 -1.58351,21.90439 -0.50332,7.08702 -1.21775,16.9485 -1.58866,21.92725 -0.48118,6.45831 -0.98958,13.73259 -1.37628,19.60102 -0.19337,2.93423 -0.35827,5.51853 -0.47275,7.46765 -0.0636,1.07959 -0.0682,1.32614 -0.098,1.96629 h 74.36823 74.42652 c -0.0161,-1.40042 -0.18885,-5.95009 -0.42408,-10.33154 -0.45287,-8.43558 -1.65594,-33.18823 -2.94282,-60.58276 -0.37932,-8.0753 -1.0923,-23.12396 -1.58572,-33.43667 -1.68531,-35.22349 -2.25376,-47.22942 -3.15595,-66.65499 -0.4963,-10.68621 -1.20553,-25.93674 -1.57761,-33.88876 -0.65134,-13.92024 -1.73438,-37.66604 -3.14785,-69.14202 -0.1782,-3.96847 -0.29392,-7.29647 -0.46318,-11.48138 -0.18105,-4.476 -0.41267,-9.75809 -0.49564,-12.28014 l -0.28983,-8.80851 c -0.0348,-1.0193 0.44231,-1.98835 1.27153,-2.58215 l 3.60882,-2.57919 c 1.85396,-1.32603 3.70331,-2.82521 5.53527,-4.45625 -11.07544,-8.84318 -22.15104,-17.68643 -33.22647,-26.52955 0.20131,1.55517 0.76576,2.91059 0.16153,4.53665 -0.0697,0.17265 -0.15378,0.37431 -0.35993,0.67485 -0.13457,0.19629 -0.39485,0.47457 -0.77442,0.75009 -0.20151,0.14627 -0.3791,0.297 -0.71615,0.4226 -0.97187,0.36218 -2.5051,-0.0396 -3.11392,-0.5738 -0.60884,-0.53425 -0.73919,-0.93008 -0.84965,-1.20368 -0.28719,-1.46685 -0.45888,-2.84161 -0.81794,-4.31464 -4.0217,-19.26 -6.83842,-28.03382 -13.01179,-40.62478 -4.08958,-8.34088 -7.31383,-13.52714 -12.23442,-19.70797 -14.51641,-18.2342 -34.39288,-29.32353 -56.75269,-31.72555 -2.53634,-0.27268 -6.34605,-0.3796 -7.69262,-0.27878 -0.9787,0.0733 -1.86202,0.1035 -2.60133,0.0891 -1.10684,-0.0214 -1.53432,-0.14171 -1.92646,-0.29207 -0.21498,-0.0824 -0.50204,-0.1851 -0.93078,-0.54873 -0.42873,-0.36362 -1.09156,-1.24326 -1.09156,-2.35352 0,-1.08833 0.1439,-1.38632 2.34318,-4.08969 1.045,-1.28444 2.46721,-2.99074 4.03291,-4.82945 1.51794,-1.78259 2.90127,-3.50581 3.87285,-4.79848 l 3.57487,-4.68563 c 0.78697,-0.30769 1.65025,-0.24382 2.49217,-0.25297 0.8805,-0.007 2.07868,-0.006 3.53283,0.009 2.90837,0.0275 6.82442,0.0955 11.06173,0.19619 16.3822,0.38943 24.18115,0.59616 28.14846,0.34076 3.96736,-0.25538 3.68245,-0.54985 6.46606,-2.23625 2.67464,-1.62037 6.30095,-4.50745 9.35724,-7.3688 3.05631,-2.86145 5.65595,-6.02775 6.1032,-6.93 0.27141,-0.54747 0.58078,-1.95508 0.56278,-3.34478 -0.018,-1.3897 -0.35783,-2.7996 -0.6579,-3.37723 -0.83365,-1.60457 -1.75828,-2.62222 -3.5218,-3.65452 -1.76352,-1.03229 -4.43354,-1.98594 -8.3505,-2.90817 -5.1703,-1.21731 -6.57572,-1.68312 -18.25869,-6.15333 -14.56009,-5.57115 -21.62021,-8.5861 -40.86448,-17.4518 -5.34401,-2.46199 -8.417,-3.78915 -10.62878,-4.45259 -2.21173,-0.66343 -3.62347,-0.76246 -6.37904,-0.75673 z m 138.77965,14.24057 c -0.57076,-0.0159 -1.14939,0.0948 -2.36016,0.31787 -4.51685,0.83226 -5.12133,1.27241 -8.51645,6.01543 -3.8615,5.39447 -9.22553,13.61817 -15.96419,24.49242 -9.56811,15.44034 -10.64731,17.14279 -16.30196,25.70423 -3.3085,5.0091 -5.14065,8.01782 -6.02134,10.05496 -0.88071,2.03714 -0.96519,3.02606 -0.85776,5.18347 0.18287,3.67372 0.56251,4.5399 3.0682,7.02587 1.69581,1.68257 4.39704,2.99988 9.76511,4.20771 6.81535,1.53352 8.12724,1.33927 13.04793,-2.00244 1.42003,-0.96439 4.42272,-3.75141 7.97065,-7.54069 3.54795,-3.78923 7.76815,-8.63418 12.22041,-14.0119 8.90462,-10.75535 18.74759,-23.6533 26.15485,-34.59753 0.97249,-1.43685 1.05622,-3.63227 -0.59371,-7.01778 -1.64997,-3.38541 -5.02347,-7.5267 -9.90304,-11.63257 -4.99574,-4.2036 -6.30571,-4.98647 -9.39929,-5.7499 -1.17556,-0.29008 -1.7385,-0.43332 -2.30925,-0.44915 z m 34.99876,39.94031 c -0.73622,-0.0113 -1.4437,0.0421 -2.13961,0.16447 -1.39187,0.24485 -2.73736,0.76877 -4.17672,1.6086 -2.87878,1.67969 -6.09334,4.80944 -9.82192,9.757 -1.86915,2.4802 -4.28536,5.56562 -5.52642,7.04578 -1.0327,1.23157 -4.89736,6.07909 -8.39033,10.53879 -3.52777,4.50433 -8.43143,10.59186 -10.99091,13.63797 -4.69411,5.58678 -6.82992,9.39146 -7.56059,12.65629 -0.32687,1.4608 -0.29592,1.84322 -0.20578,2.12415 0.09,0.28084 0.5182,0.98646 1.8033,2.39259 3.74308,4.09555 9.94531,8.4088 13.27291,9.57482 1.95372,0.6846 2.65015,0.75561 4.82059,-0.28175 2.17045,-1.03736 5.53767,-3.55079 10.7748,-8.03777 7.70712,-6.60307 16.15712,-14.60054 23.03801,-21.6374 6.88082,-7.03675 12.36732,-13.55024 13.44987,-15.53123 2.04827,-3.74837 1.25504,-9.088 -1.88146,-13.95585 -3.13649,-4.8679 -8.45945,-8.88447 -14.1528,-9.8337 -0.81146,-0.13529 -1.57669,-0.21127 -2.31294,-0.22276 z m -85.57525,1.06724 c -0.6229,0.5724 -1.12551,1.1296 -1.7834,1.7067 -4.12865,3.62147 -8.68613,7.00062 -12.53017,8.8321 l -3.32706,1.58646 c -0.41713,0.19841 -0.87388,0.29901 -1.3357,0.29502 l -8.19635,-0.0671 c -4.55084,-0.038 -12.52939,-0.20321 -17.81469,-0.36581 l -7.75604,-0.2139 c -0.0927,0.46993 0.6111,0.87211 0.59814,1.13065 0.0231,-0.0326 0.32586,0.39887 0.98684,1.07682 0.79695,0.81741 1.84771,1.82356 2.92512,2.80415 1.07741,0.9806 2.18754,1.94283 3.09696,2.67803 0.9094,0.73518 1.88162,1.31713 1.58055,1.1786 1.00512,0.4623 3.03482,1.40156 4.53075,2.09832 2.75278,1.28218 4.97354,1.95173 8.22953,2.4693 0.41569,0.0661 4.92824,0.28858 8.6094,0.24783 l 5.66214,-0.062 0.55388,-0.52958 c 1.89995,-1.81042 3.56917,-4.20995 8.37335,-12.43352 1.5993,-2.73759 4.76023,-7.82298 7.59675,-12.4321 z m -8.40877,29.84406 c -0.4247,0.46885 -0.86203,1.1565 -1.30694,1.58057 l -0.002,0.002 -0.54357,0.51853 c -1.66174,1.58845 -3.86499,2.48614 -6.16367,2.51132 l -3.42296,0.0361 c 6.14178,4.72737 11.83651,10.17451 16.84555,16.46647 5.25769,6.60419 9.01476,12.66559 13.27954,21.36377 5.05611,10.31222 8.13306,19.81405 11.20554,32.61206 1.93185,1.54247 3.86376,3.0849 5.79563,4.62737 h 7.3e-4 c 1.7633,1.40789 3.52639,2.81605 5.28969,4.22393 47.87188,38.22277 94.0011,69.47209 141.87305,107.69486 16.83342,2.98774 43.48533,-26.1282 31.46208,-43.33511 -44.54717,-34.79381 -89.0945,-69.58814 -133.65442,-104.36574 -0.20665,-0.16129 -0.41363,-0.32329 -0.62028,-0.48456 -1.02931,-0.80339 -2.058,-1.60765 -3.08736,-2.41103 -2.82156,2.28704 -5.37854,4.2035 -7.97361,5.44383 -1.49808,0.71601 -3.48933,1.56671 -6.05155,1.66462 -2.56229,0.0979 -4.47149,-0.58563 -5.67323,-1.00673 -6.59343,-2.31043 -11.99635,-6.57809 -16.96503,-12.01463 -1.62693,-1.78015 -2.45195,-1.70942 -3.74378,-5.73664 -0.31851,-0.99252 -0.54305,-2.90533 -0.4654,-4.01961 0.0779,-1.11429 0.24374,-1.89999 0.45729,-2.85431 0.28554,-1.27611 1.03196,-2.49903 1.52451,-3.73789 -2.22205,1.39715 -4.60922,2.68896 -7.65721,3.15521 -3.8941,0.59572 -6.98644,-0.13042 -10.59558,-0.94256 -6.10966,-1.37469 -10.72527,-3.21149 -14.15793,-6.61727 -1.464,-1.45248 -3.16412,-3.21329 -4.32647,-5.87383 -1.16233,-2.6606 -1.30573,-5.02031 -1.41092,-7.13281 -0.0191,-0.3842 0.0793,-0.93103 0.0891,-1.36889 z m 97.60464,25.68726 c -0.0436,0.0399 -0.069,0.061 -0.11288,0.101 -3.81249,3.49974 -7.9606,7.16994 -11.49685,10.201 -0.14355,0.123 -0.23956,0.1995 -0.38057,0.3201 4.00486,3.12576 8.00747,6.25429 12.0124,9.38011 0.58995,-6.01665 0.60786,-12.20476 0.0819,-18.84061 -0.0358,-0.44909 -0.0683,-0.7346 -0.104,-1.16165 z" style="color:#000;display:inline;fill:#c00000;fill-opacity:1;stroke:none;stroke-width:1.00013;stroke-linecap:round;stroke-linejoin:round;stroke-dasharray:none;paint-order:stroke fill markers"/></svg>