<svg xmlns="http://www.w3.org/2000/svg" xml:space="preserve" id="svg1" width="4608" height="3072" version="1.1" viewBox="0 0 1219.2 812.8"><defs id="defs1"><style id="style1">.cls-1{fill:#0283c0}.cls-2{fill:#fff}.cls-3{fill:#ef483f}</style></defs><path id="rect1" d="M 0 0 L 0 812.8 L 1219.2 812.8 L 1219.2 0 L 0 0 z" style="fill:#000;fill-rule:evenodd;stroke:none;stroke-width:8.46667;stroke-linecap:round;stroke-linejoin:round;fill-opacity:1"/><path id="path1-7" d="m 637.83309,101.60118 a 6.335856,6.335856 0 0 0 -6.45701,6.45698 l 0.3106,16.04914 a 6.335856,6.335856 0 0 0 1.8526,4.35788 l 57.26468,57.26522 28.5988,28.59876 L 584.65489,344.79815 373.71955,133.8607 a 6.335856,6.335856 0 0 0 -4.48086,-1.8562 h -65.44558 a 6.335856,6.335856 0 0 0 -6.33399,6.33655 v 65.44663 a 6.335856,6.335856 0 0 0 1.85622,4.48086 L 509.04976,418.00141 285.07177,634.86664 a 6.335856,6.335856 0 0 0 -0.0734,9.02891 l 65.44663,65.44871 a 6.335856,6.335856 0 0 0 9.03201,-0.0729 l 216.8652,-223.9785 50.16177,50.16126 c 0.015,0.0153 0.023,0.0344 0.038,0.0496 3.1539,3.15309 7.5059,4.11505 11.60299,3.98425 l -6.14329,6.14329 -28.50989,-14.41255 a 6.335856,6.335856 0 0 0 -8.7948,3.44061 l -14.59969,39.14283 a 6.335856,6.335856 0 0 0 2.81739,7.72769 l 57.49569,32.49671 a 6.335856,6.335856 0 0 0 7.5965,-1.03766 l 38.23688,-38.23642 42.56328,42.55915 46.70979,46.71393 c -1.4152,2.48297 -2.78469,4.95924 -3.8752,7.34735 -2.7079,5.93007 -4.42769,11.5153 -4.7615,16.83566 -0.3337,5.32043 0.88491,10.815 4.7672,14.69678 3.88221,3.88173 9.37279,5.09758 14.6932,4.76352 5.32029,-0.33407 10.90869,-2.05237 16.83869,-4.76043 11.86,-5.41608 25.0955,-14.94708 37.66129,-27.51303 12.56609,-12.56617 22.09409,-25.80115 27.50989,-37.66126 2.708,-5.93008 4.4277,-11.51833 4.7615,-16.83877 0.3338,-5.3204 -0.8853,-10.8119 -4.7677,-14.69366 -3.1021,-3.10195 -7.4029,-4.57252 -11.77029,-4.77801 -8.43351,-0.39666 -17.4666,3.05022 -27.14719,8.60464 l -11.06039,-11.06031 a 6.3352223,6.3352223 0 0 0 -0.017,-0.0262 6.3352223,6.3352223 0 0 0 -0.015,-0.006 l -11.82904,-11.83219 a 6.3352223,6.3352223 0 0 0 -0.017,-0.0238 6.3352223,6.3352223 0 0 0 -0.015,-0.006 l -11.82621,-11.82562 a 6.3352223,6.3352223 0 0 0 -0.02,-0.0326 6.3352223,6.3352223 0 0 0 -0.018,-0.009 l -11.823,-11.82305 a 6.3352223,6.3352223 0 0 0 -0.02,-0.0285 6.3352223,6.3352223 0 0 0 -0.018,-0.006 l -11.82619,-11.82872 a 6.3352223,6.3352223 0 0 0 -0.02,-0.0295 6.3352223,6.3352223 0 0 0 -0.018,-0.006 L 759.0516,539.64992 a 6.3352223,6.3352223 0 0 0 -0.015,-0.0202 6.3352223,6.3352223 0 0 0 -0.012,-0.006 l -11.8381,-11.8354 a 6.3352223,6.3352223 0 0 0 -0.012,-0.0176 6.3352223,6.3352223 0 0 0 -0.012,-0.003 l -6.9644,-6.96805 38.24259,-38.24262 a 6.335856,6.335856 0 0 0 1.0377,-7.59643 l -32.49335,-57.50078 a 6.335856,6.335856 0 0 0 -3.34559,-2.83497 h -5e-4 a 6.335856,6.335856 0 0 0 -4.38421,0.017 l -39.14278,14.60015 a 6.335856,6.335856 0 0 0 -3.44059,8.7948 l 14.41298,28.51246 -6.15619,6.1557 c 0.1143,-3.56786 -0.6939,-7.28306 -2.9616,-10.27895 a 6.3352223,6.3352223 0 0 0 -1.0139,-1.32965 l -51.40818,-51.40769 130.46955,-134.74883 74.40938,74.40938 a 6.335856,6.335856 0 0 0 8.9612,0 l 70.81577,-70.81787 a 6.335856,6.335856 0 0 0 0,-8.95914 l -75.69607,-75.69666 8.04859,-8.31266 a 6.335856,6.335856 0 0 0 -0.069,-8.88783 L 817.66882,127.86 a 6.335856,6.335856 0 0 0 -4.4282,-1.85571 6.335856,6.335856 0 0 0 -4.4576,1.78232 l -8.3158,8.05222 -29.88599,-29.88602 a 6.335856,6.335856 0 0 0 -4.35839,-1.85312 z" style="display:inline;fill:#fff;fill-opacity:1;stroke-width:.999997"/><path id="path1" d="m 644.16951,114.39743 0.13507,6.91565 55.45854,55.45745 159.14031,159.13976 61.85733,-61.86006 -157.33541,-157.33215 z m 168.9479,26.82929 -3.68983,3.57273 40.11812,40.11812 3.57109,-3.6893 z m -502.98775,3.44801 v 56.48843 L 518.15381,409.18567 542.3019,385.80658 336.12839,179.63307 c -2.47391,-2.47402 -2.47391,-6.48504 0,-8.95906 1.18751,-1.18786 2.79826,-1.85539 4.4779,-1.85608 1.68072,-1.5e-4 3.29236,0.66745 4.48063,1.85608 L 551.40475,376.99239 575.55121,353.61112 366.617,144.67473 Z m 418.23386,78.61488 -25.3223,24.51845 -404.52676,391.68234 56.33538,56.33865 412.01699,-425.52365 4.18761,-4.32487 z m 18.62125,194.17 20.76163,36.73817 -20.76108,-36.73817 z m -106.25456,1.33161 -23.38017,24.14699 34.38757,34.38758 c 5.94145,-5.37676 12.017,-10.14781 17.92577,-13.55351 3.74454,-2.15825 7.37171,-3.92908 10.93115,-5.11675 z m 97.88641,9.61315 -27.43981,10.23512 13.28448,26.28793 c 1.23469,2.44224 0.76177,5.40139 -1.17258,7.33718 l -38.3045,38.30396 v 0.003 l 23.76304,23.76249 57.33205,-57.33423 z m -130.07969,23.63724 -23.37909,24.14701 39.07406,39.07461 c 0.55941,-1.68936 1.13427,-3.37929 1.92743,-5.12437 3.47158,-7.63802 9.19866,-15.88709 16.52227,-23.95258 z m 81.93273,17.654 c -2.54649,-0.12651 -8.17782,1.42551 -14.47612,5.05575 -6.29214,3.62665 -13.37421,9.09083 -20.02093,15.73419 -0.004,0.007 -0.008,0.0139 -0.012,0.0207 -0.005,0.002 -0.009,0.004 -0.0153,0.006 -8.57929,8.58061 -14.99132,17.69455 -18.25309,24.87081 -1.63127,3.58903 -2.43641,6.69226 -2.55538,8.6726 -0.11643,1.93857 0.26009,2.37076 0.35183,2.46443 l 0.0196,0.0196 c 0.003,0.004 0.006,0.008 0.009,0.012 0.0904,0.089 0.52145,0.47103 2.46987,0.354 1.98038,-0.11894 5.08357,-0.92356 8.67259,-2.55483 7.17799,-3.26256 16.29378,-9.67667 24.87627,-18.25908 8.58241,-8.58249 14.99437,-17.69607 18.25689,-24.87408 1.63127,-3.58902 2.43532,-6.69113 2.55429,-8.6715 0.11895,-1.98038 -0.27895,-2.41006 -0.35946,-2.49057 h -0.003 c -0.0357,-0.0358 -0.22576,-0.29495 -1.51351,-0.35945 h -5.4e-4 z m -14.4467,49.83475 -38.30398,38.30452 c -1.93604,1.934 -4.8946,2.40644 -7.33663,1.17148 l -26.28793,-13.28448 -10.2362,27.43981 48.59519,27.46378 57.33259,-57.3326 z m 55.2249,10.23894 -36.0329,36.03343 2.48404,2.48403 36.03289,-36.03343 z m 11.44582,11.44256 -36.0367,36.03288 2.90611,2.90557 36.03289,-36.03506 z m 11.86137,11.86463 -36.03289,36.03343 2.90176,2.90176 36.03289,-36.03561 z m 28.19302,10.27271 v 5.5e-4 c 0.006,0.002 0.0115,0.004 0.0174,0.006 0.007,0.009 0.0135,0.0189 0.0201,0.0283 h 5.4e-4 c -0.007,-0.009 -0.0133,-0.0194 -0.0201,-0.0289 -0.006,-0.002 -0.0119,-0.004 -0.0179,-0.006 z m -16.33219,1.58758 -36.03288,36.03343 2.90175,2.90231 36.03615,-36.0329 z m 28.21045,10.27924 c 8e-5,1.3e-4 -9e-5,4.1e-4 0,5.4e-4 0.007,0.0106 0.0135,0.0214 0.0201,0.0321 h 5.5e-4 c -0.007,-0.0109 -0.0133,-0.0218 -0.0201,-0.0327 z m -16.34363,1.58158 -36.03616,36.03616 2.89904,2.89958 36.03616,-36.03343 z m 28.19083,10.27598 -5.3e-4,5.4e-4 c 0.005,0.002 0.009,0.004 0.0148,0.006 0.006,0.008 0.0112,0.0154 0.0169,0.0234 h 5.5e-4 c -0.006,-0.008 -0.0112,-0.0158 -0.0169,-0.0239 -0.005,-0.002 -0.009,-0.004 -0.0148,-0.006 z m -16.33328,1.58485 -36.03288,36.03616 2.9023,2.90284 36.03616,-36.03343 z m 11.86411,11.86519 -36.03344,36.03506 2.90012,2.90012 36.03507,-36.03288 z m 11.86137,11.86028 -36.03289,36.0367 3.54768,3.54768 11.4371,-11.43711 c 2.05012,-2.28251 4.08329,-4.5707 6.33453,-6.82196 1.43098,-1.43101 2.93031,-2.53997 4.38369,-3.89624 l 13.87757,-13.87812 z m 42.11252,1.69542 c -4.14273,-0.19484 -11.92098,2.1078 -20.55956,7.10244 -7.27495,4.20629 -15.21328,10.44304 -22.95047,17.61642 l -10.4813,10.48129 c -8.55466,9.60382 -15.13101,19.27569 -18.82058,27.35539 -2.26962,4.97015 -3.45151,9.33466 -3.6419,12.36951 -0.1904,3.03489 0.44429,4.30248 1.08108,4.93919 0.63677,0.6367 1.90518,1.26948 4.94029,1.0789 3.03512,-0.19056 7.39926,-1.36941 12.3695,-3.63918 9.94041,-4.53944 22.30053,-13.28359 33.96332,-24.94651 11.66308,-11.66308 20.40781,-24.0267 24.94706,-33.96712 2.26962,-4.97017 3.44933,-9.33134 3.63972,-12.36624 0.1904,-3.03483 -0.44265,-4.30303 -1.07945,-4.93975 v -0.003 c -0.47611,-0.47604 -1.30309,-0.982 -3.40771,-1.08107 z" style="display:inline;fill:#d00000;fill-opacity:1;stroke:none;stroke-width:.999997"/></svg>