<svg xmlns="http://www.w3.org/2000/svg" xml:space="preserve" id="svg1" width="4608" height="3072" version="1.1" viewBox="0 0 1219.2 812.8"><defs id="defs1"><style id="style1">.cls-1{fill:#0283c0}.cls-2{fill:#fff}.cls-3{fill:#ef483f}</style></defs><path id="rect1" d="M 0 0 L 0 812.8 L 1219.2 812.8 L 1219.2 0 L 0 0 z" style="fill:#d00000;fill-rule:evenodd;stroke:none;stroke-width:8.46667;stroke-linecap:round;stroke-linejoin:round;fill-opacity:1"/><path id="path3" d="m 1024,239.99987 c -29.24113,0.4182 -58.4345,2.50624 -87.43749,6.25391 L 914.23829,378.578 c -37.32305,6.69782 -73.977,16.69941 -109.5293,29.88672 l -86.0918,-104.15626 c -53.5223,23.6203 -104.17045,53.2788 -150.95898,88.39844 l 46.4414,124.71875 c -29.23933,24.43598 -56.23785,51.4345 -80.67382,80.67383 l -124.71876,-46.4414 c -35.11964,46.78853 -64.77814,97.43668 -88.39843,150.95898 l 104.15625,86.0918 c -13.18731,35.5523 -23.1889,72.20625 -29.88672,109.5293 l -132.32422,22.32422 c -3.74767,29.003 -5.83571,58.19638 -6.25391,87.43752 0.4182,29.2411 2.50624,58.4345 6.25391,87.4375 l 132.32422,22.3242 c 6.69782,37.3231 16.69941,73.977 29.88672,109.5293 l -104.15625,86.0918 c 23.62029,53.5223 53.27879,104.1705 88.39843,150.959 l 124.71876,-46.4414 c 24.43598,29.2393 51.4345,56.2378 80.67382,80.6738 l -46.4414,124.7188 c 46.78853,35.1196 97.43668,64.7781 150.95898,88.3984 l 86.0918,-104.1563 c 35.55229,13.1873 72.20625,23.1889 109.5293,29.8868 l 22.32422,132.3242 c 29.00299,3.7477 58.19636,5.8357 87.43749,6.2539 29.1593,-0.067 58.2911,-1.7955 87.2539,-5.1758 l 22.3516,-132.4746 c 37.7131,-6.5285 74.7646,-16.4269 110.709,-29.5762 l 85.5273,103.4727 c 53.5447,-23.1835 104.273,-52.3935 151.2031,-87.0645 l -46.9199,-126.0039 c 29.3875,-24.5388 56.5139,-51.6652 81.0528,-81.0527 l 126.0039,46.9199 c 34.671,-46.9301 63.8809,-97.6584 87.0644,-151.2031 l -103.4726,-85.5274 c 13.1492,-35.9444 23.0476,-72.9959 29.5761,-110.709 l 132.4746,-22.3515 c 3.3803,-28.9628 5.1084,-58.0946 5.1758,-87.2539 -0.067,-29.15932 -1.7955,-58.29113 -5.1758,-87.25393 l -132.4746,-22.35156 c -6.5285,-37.71313 -16.4269,-74.7646 -29.5761,-110.70899 l 103.4726,-85.52734 c -23.1835,-53.54473 -52.3934,-104.27305 -87.0644,-151.20313 l -126.0039,46.91992 c -24.5389,-29.38753 -51.6652,-56.51388 -81.0528,-81.05273 l 46.9199,-126.00391 c -46.9301,-34.67102 -97.6584,-63.88096 -151.2031,-87.06445 l -85.5273,103.47265 c -35.9444,-13.14927 -72.9959,-23.04766 -110.709,-29.57617 l -22.3516,-132.47461 c -28.9628,-3.38029 -58.0946,-5.10834 -87.2539,-5.17578 z m 0,256 c 135.7909,-2e-5 266.0201,53.94269 362.0387,149.96132 C 1482.0573,741.97983 1536,872.20905 1536,1007.9999 c 0,135.7908 -53.9427,266.0201 -149.9613,362.0387 -96.0186,96.0186 -226.2479,149.9613 -362.0387,149.9613 -135.79085,0 -266.02006,-53.9427 -362.03869,-149.9613 C 565.94268,1274.02 511.99998,1143.7907 512,1007.9999 511.99998,872.20905 565.94267,741.97983 661.9613,645.96119 757.97993,549.94256 888.20915,495.99985 1024,495.99987 Z M 698.48829,695.6737 v 0.002 0.004 c -0.15042,0.15004 0.7724,3.32684 2.05664,7.06055 5.78855,16.90207 7.07991,26.42048 5.81445,42.71484 -0.68912,8.77053 -3.56486,25.26469 -5.88281,33.70313 -4.46672,16.3006 -9.29097,32.3816 -9.80469,32.73242 -0.34469,0.23811 -0.87155,1.08328 -1.16601,1.87891 -0.84571,2.29912 -4.17081,1.70969 -8.14258,-1.44141 -4.39782,-3.50198 -6.12138,-3.63465 -7.6875,-0.61523 -1.52859,2.95686 -3.52639,14.58607 -4.59766,26.7207 -2.41814,27.40145 -2.77792,32.93838 -2.85937,44.75977 -0.10658,14.70938 0.81421,19.40993 4.92382,25.06054 6.12056,8.43226 14.28463,12.48417 27.72852,13.75586 17.37814,1.64761 44.41044,0.84505 46.64063,-1.3789 1.29677,-1.30299 0.0694,-3.60025 -4.72266,-8.84375 -2.49962,-2.73135 -4.55539,-5.4338 -4.57422,-6.00391 -0.0189,-0.57002 -0.35729,-1.03906 -0.75195,-1.03906 -0.40721,0 -1.20101,-1.13268 -1.77735,-2.52344 -2.17389,-5.23726 0.83695,-7.41756 10.27149,-7.42383 7.1104,-0.008 15.1013,-2.55037 15.89062,-5.0625 0.85829,-2.69376 -0.29656,-4.42814 -4.375,-6.5957 -2.17382,-1.14644 -4.38464,-3.00715 -4.92968,-4.13477 -2.94436,-6.10176 -3.46559,-22.42006 -1.49219,-46.93359 1.67894,-20.83621 1.71148,-20.99414 4.48047,-20.99414 2.86921,0 9.43355,3.27144 18.31054,9.1289 11.48939,7.5802 22.38618,11.66274 31.26954,11.7129 10.23017,0.0688 13.0716,-3.17434 17.51953,-20.01368 3.38908,-12.78617 6.50939,-32.8084 7.99414,-51.28906 0.87704,-10.8316 1.41149,-13.99575 2.6582,-15.66211 2.31791,-3.09475 4.47079,-3.59105 8.27344,-1.88086 3.49572,1.5662 9.41211,6.32717 9.41211,7.58008 0,0.41356 1.11444,1.92286 2.48633,3.35742 1.36571,1.42839 2.98803,3.57339 3.5957,4.76367 0.61399,1.18401 2.04887,3.83234 3.19531,5.88086 1.15272,2.05481 4.99134,9.32739 8.53711,16.16211 6.82214,13.15574 10.94361,20.05341 13.02344,21.76367 1.04617,0.86452 1.63689,0.67799 3.41601,-1.10742 3.16365,-3.16363 6.70405,-10.93846 10.34375,-22.72851 1.89823,-6.14562 2.17956,-8.52732 2.21094,-18.73243 0.0189,-6.60917 -0.34367,-12.54616 -0.85156,-13.67382 -5.57553,-12.51051 -8.82278,-16.67409 -17.59961,-22.58789 -4.93021,-3.32031 -15.64095,-8.83008 -17.17578,-8.83008 -0.31332,0 -1.74274,-0.53437 -3.18359,-1.17969 -3.20126,-1.44086 -20.10324,-5.74525 -29.25586,-7.44922 -17.67258,-3.28269 -47.61157,-6.20187 -86.13282,-8.39453 -12.76736,-0.73292 -27.62609,-1.58872 -33.01367,-1.9082 -5.38752,-0.31937 -9.92582,-0.45892 -10.07617,-0.31446 z m 444.74221,2.52149 c -8.0125,0 -15.9131,0.31131 -20.6113,0.9375 -17.0085,2.28665 -37.7545,8.91643 -53.8985,17.24219 -4.3352,2.23016 -11.7975,6.07591 -16.5898,8.55664 l -8.7071,4.49414 26.9493,0.52343 c 33.641,0.65154 49.7106,2.57081 65.9296,7.87696 14.5027,4.74861 24.1668,10.2348 31.5215,17.89648 9.6476,10.04848 11.6107,16.70136 11.5606,39.19141 -0.03,16.03754 -1.5419,27.00303 -4.8496,35.22852 -4.2411,10.55591 -5.7878,13.82633 -8.1309,17.26562 -1.4534,2.12999 -2.9468,4.00195 -3.3164,4.15234 -0.3693,0.15003 -0.6699,0.7712 -0.6699,1.37891 0,0.60768 -0.2729,1.22656 -0.6172,1.37695 -0.6641,0.30047 -3.4464,3.60272 -6.8418,8.14453 -1.1401,1.51607 -2.4431,3.17034 -2.9004,3.67774 -0.4572,0.50117 -3.069,3.51248 -5.8066,6.70117 -17.0712,19.86518 -51.147,54.52082 -69.6778,70.86524 -9.8731,8.70785 -15.0482,12.51518 -21.125,15.54101 -4.3226,2.14877 -6.4811,2.31033 -10.1836,0.74414 -3.1949,-1.35314 -13.3578,-11.38535 -21.9589,-21.67187 -3.0026,-3.59549 -6.0105,-7.18664 -9.0235,-10.77344 -2.3672,-2.86729 -4.6903,-5.77063 -6.9687,-8.70898 -2.2992,-2.95687 -5.7962,-7.43555 -7.76957,-9.94141 -4.60449,-5.86372 -18.30985,-24.91876 -20.79687,-28.92188 -0.37271,-0.62016 -0.80089,-1.20524 -1.2793,-1.74804 -0.23811,-0.22526 -1.77395,-2.4708 -3.39648,-4.97657 -12.02182,-18.54341 -14.81641,-24.2189 -14.81641,-30.04492 0,-4.65466 2.69261,-17.19674 6.17578,-28.76758 4.47923,-14.84722 1.56658,-31.23571 -7.04102,-39.66797 -3.77131,-3.69606 -8.31067,-5.12262 -10.57226,-3.31836 l -2.95703,2.32813 c -5.07435,3.95297 -29.07635,25.06056 -38.19141,33.57422 -21.72583,20.30991 -41.84565,39.65713 -88.49219,85.08203 -18.51762,17.98221 -37.08736,35.91067 -55.70898,53.78516 -3.10726,2.95068 -8.3291,7.92625 -11.60547,11.05859 -3.28263,3.13228 -10.17006,9.43463 -15.30078,14.00781 -5.13074,4.57317 -9.32618,8.60037 -9.32618,8.95118 0,0.68916 16.3051,16.788 20.31446,20.06449 6.50273,5.3061 10.81428,5.8662 19.9043,2.5898 11.68976,-4.20977 17.32854,-5.43759 27.04492,-5.88867 11.99687,-0.5638 19.20135,0.87525 29.49414,5.91207 6.15811,3.007 19.59471,11.7705 20.99805,13.6875 0.22526,0.3133 1.1919,1.104 2.15039,1.7618 1.9608,1.3532 4.47915,3.429 22.61523,18.5957 22.61539,18.9192 41.10194,37.0597 44.59766,43.7754 1.4722,2.8191 1.04638,4.2549 -2.41797,8.164 -1.44987,1.6317 -2.87002,3.2895 -4.25977,4.9727 -5.66946,6.9914 -18.51362,20.6384 -46.59179,49.5058 -14.38364,14.7846 -15.10981,15.5108 -78.26368,78.3828 l -43.23242,43.0372 21.96875,22.0332 c 12.09076,12.1158 29.0505,29.2095 37.68945,37.9863 8.64524,8.7706 16.03737,15.957 16.42579,15.957 0.38834,0 42.88153,-42.1601 94.4082,-93.6679 51.53292,-51.5079 94.10156,-93.67 94.58396,-93.67 0.4887,0 1.6183,0.6517 2.5078,1.4473 0.8959,0.8019 4.6025,3.8658 8.2422,6.8164 3.6335,2.9444 6.8034,5.5744 7.0352,5.8437 0.2252,0.2634 3.2162,2.7015 6.6367,5.4141 2.4058,1.8887 4.7862,3.8094 7.1406,5.7617 1.4785,1.3155 10.169,8.6461 20.5684,17.3164 2.2364,1.8731 4.4847,3.7772 4.9922,4.2344 0.5011,0.4573 2.9613,2.5062 5.4609,4.5547 6.4652,5.3125 7.6862,6.3403 15.6484,13.1563 3.9216,3.3515 8.8167,7.5174 10.8653,9.2402 2.0548,1.7291 6.7406,5.7025 10.418,8.8223 14.2673,12.02 28.4855,24.0982 42.6542,36.2343 1.1402,0.9773 5.2009,4.3852 9.0098,7.5801 7.9786,6.6561 15.9001,13.3804 23.7637,20.1719 1.3782,1.2154 5.856,4.9987 9.9531,8.4004 2.8112,2.3167 5.5972,4.6638 8.3574,7.041 0.5012,0.4635 3.0927,2.7181 5.7676,4.9922 2.675,2.2803 6.5772,5.6399 8.6758,7.4629 2.0987,1.823 6.0215,5.1869 8.709,7.4609 2.6938,2.2803 5.4757,4.7038 6.1836,5.3867 0.7079,0.6891 4.1979,3.573 7.75,6.4297 3.7337,2.9882 7.2661,5.1797 8.375,5.1797 5.3813,0 21.6134,-10.8494 32.9023,-21.9941 7.0666,-6.9789 9.5119,-9.9604 20.6504,-25.0957 l 7.5039,-10.2149 -1.8808,-2.6348 c -0.9285,-1.3182 -1.8891,-2.6135 -2.8809,-3.8847 -3.6235,-4.552 -7.2361,-9.1126 -10.8379,-13.6817 -11.068,-13.9898 -22.1813,-27.9436 -33.3398,-41.8613 -6.0141,-7.5175 -12.5797,-15.7302 -14.5782,-18.2422 -4.6231,-5.8113 -9.2585,-11.6127 -13.9062,-17.4043 -0.5575,-0.6891 -2.1234,-2.7357 -3.4766,-4.5586 -0.9244,-1.2788 -1.8964,-2.5225 -2.914,-3.7285 -2.3978,-2.9602 -4.7496,-5.9573 -7.0547,-8.9902 -2.8903,-3.7873 -5.8517,-7.5197 -8.8828,-11.1953 -1.253,-1.4409 -2.4885,-3.2708 -2.7579,-4.0664 -0.257,-0.7956 -0.7768,-1.4473 -1.1464,-1.4473 -0.3757,0 -2.8442,-2.8924 -5.4942,-6.4258 -1.8513,-2.5023 -3.7521,-4.9676 -5.7012,-7.3945 -0.9158,-1.0746 -1.7965,-2.1787 -2.6406,-3.3106 -4.331,-5.6062 -8.7212,-11.1664 -13.1699,-16.6797 -3.3332,-4.1831 -6.6412,-8.3863 -9.9238,-12.6093 -5.2231,-6.7353 -10.4817,-13.4431 -15.7754,-20.1231 -2.415,-2.906 -4.7645,-5.8657 -7.0469,-8.8769 -4.0665,-5.2399 -8.174,-10.4477 -12.3223,-15.6231 -5.6381,-7.0791 -11.5825,-14.7527 -13.205,-17.0644 -3.6961,-5.2498 -8.4727,-15.4727 -8.4727,-18.1289 0,-2.1738 2.358,-5.7018 10.6524,-15.9317 5.0554,-6.2271 16.5836,-19.41 20.3925,-23.30662 0.9398,-0.96477 7.4978,-7.84621 14.5703,-15.29492 26.6687,-28.10943 60.6555,-61.32098 75.4336,-73.71875 2.4433,-2.05477 4.8469,-4.10323 5.3418,-4.56055 3.5583,-3.27642 11.9403,-8.76401 18.2676,-11.95898 7.4299,-3.74626 7.5988,-3.79102 15.8242,-3.79102 6.4275,0 9.1621,0.37242 12.0313,1.61914 4.2913,1.8794 11.2549,6.18143 13.6543,8.44922 0.9146,0.85821 2.7827,2.42998 4.1484,3.48242 2.0736,1.60372 9.0133,7.90157 21.2168,19.26563 1.184,1.10264 3.5168,3.80739 5.1895,6 2.5121,3.32024 3.0293,4.68718 3.0293,7.98242 0,2.18631 -0.53,5.48201 -1.1875,7.33008 -1.5912,4.52306 -9.5036,21.14832 -10.3243,21.69336 -0.3571,0.24454 -1.0722,1.66444 -1.5859,3.16797 -1.1652,3.40791 -0.3186,5.81341 3.4902,9.93554 1.5662,1.69771 3.5281,3.83495 4.3614,4.75586 4.3226,4.76114 16.6575,14.11512 22.6152,17.16602 7.1605,3.65858 9.0317,3.07018 21.1914,-6.74023 8.5387,-6.87862 11.4512,-9.57299 26.1231,-24.11329 20.8484,-20.65445 32.6008,-33.87912 40.2812,-45.31836 3.1887,-4.7361 3.7349,-6.11919 3.3652,-8.44336 -1.3594,-8.44473 -12.8176,-22.1964 -23.8183,-28.58007 -6.3963,-3.72121 -9.6297,-3.2162 -31.0235,4.86523 -4.3537,1.6413 -6.8639,2.10643 -10.0527,1.84961 -22.5088,-1.80427 -51.8142,-45.77665 -48.7695,-73.17188 0.639,-5.73216 2.021,-8.88394 5.5293,-12.58007 2.2803,-2.39936 2.4195,-2.86041 1.5801,-5.25977 -3.0321,-8.68903 -23.6478,-30.73635 -46.1192,-49.30469 -1.8698,-1.56128 -3.7866,-3.06523 -5.748,-4.50976 -0.7554,-0.50136 -1.4735,-1.05686 -2.1485,-1.66211 -1.2341,-1.37817 -7.4847,-5.8418 -8.1738,-5.8418 -0.4446,0 -0.9419,-0.28433 -1.0859,-0.62891 -0.3568,-0.79562 -10.033,-7.19685 -18.4903,-12.21484 -6.9538,-4.13464 -28.4304,-14.689 -31.9511,-15.72266 -2.7909,-0.92575 -5.5562,-1.92677 -8.293,-3.00195 -8.3821,-3.23262 -30.8353,-8.64706 -41.0527,-9.90625 -5.1371,-0.63276 -13.2638,-0.95117 -21.2637,-0.95117 z" style="display:inline;fill:#000;fill-opacity:1;stroke-width:2.82222;stroke-linecap:round;stroke-linejoin:round;stroke-miterlimit:128" transform="matrix(0.39687499,0,0,0.39687499,203.20001,6.3500557)"/></svg>