<svg xmlns="http://www.w3.org/2000/svg" xml:space="preserve" id="svg1" width="4608" height="3072" version="1.1" viewBox="0 0 1219.2 812.8"><defs id="defs1"><style id="style1">.cls-1{fill:#0283c0}.cls-2{fill:#fff}.cls-3{fill:#ef483f}</style></defs><path id="rect1" d="M 0 0 L 0 812.8 L 1219.2 812.8 L 1219.2 0 L 0 0 z" style="fill:#fff;fill-rule:evenodd;stroke:none;stroke-width:8.46667;stroke-linecap:round;stroke-linejoin:round;fill-opacity:1"/><path id="path1" d="M 0,0 V 270.93333 H 1219.2 V 0 Z" style="fill:#0020a0;fill-opacity:1;fill-rule:evenodd;stroke:none;stroke-width:8.46667;stroke-linecap:round;stroke-linejoin:round"/><path id="path6" d="M -6.3086945e-5,541.86663 V 812.79996 H 1219.1999 V 541.86663 Z" style="fill:#d00000;fill-opacity:1;fill-rule:evenodd;stroke:none;stroke-width:8.46667;stroke-linecap:round;stroke-linejoin:round"/><path id="path9" d="M 609.6,135.46667 548.77167,322.67694 H 351.92736 L 511.17758,438.37893 450.34926,625.58972 609.6,509.88722 768.85074,625.58972 708.02242,438.37893 867.27264,322.67694 H 670.42833 Z" style="color:#000;fill:#ffd000;stroke-miterlimit:128;-inkscape-stroke:none;fill-opacity:1"/><path id="path11" d="M 609.59948 190.26384 L 561.07428 339.60924 L 404.04097 339.60924 L 531.08386 431.91007 L 482.55659 581.25961 L 609.59948 488.95723 L 736.64082 581.25806 L 688.1151 431.91007 L 815.16006 339.60924 L 658.1252 339.60924 L 609.59948 190.26384 z" style="color:#000;fill:#d00000;stroke-miterlimit:128;-inkscape-stroke:none"/></svg>